<?xml version="1.0" encoding="utf-8"?>
<svg xmlns="http://www.w3.org/2000/svg" xmlns:xlink="http://www.w3.org/1999/xlink" width="600" height="400" viewBox="0 0 2400 1600">
<defs>
  <clipPath id="clip090">
    <rect x="0" y="0" width="2400" height="1600"/>
  </clipPath>
</defs>
<path clip-path="url(#clip090)" d="M0 1600 L2400 1600 L2400 0 L0 0  Z" fill="#ffffff" fill-rule="evenodd" fill-opacity="1"/>
<defs>
  <clipPath id="clip091">
    <rect x="480" y="0" width="1681" height="1600"/>
  </clipPath>
</defs>
<path clip-path="url(#clip090)" d="M184.191 1486.45 L2352.76 1486.45 L2352.76 47.2441 L184.191 47.2441  Z" fill="#ffffff" fill-rule="evenodd" fill-opacity="1"/>
<defs>
  <clipPath id="clip092">
    <rect x="184" y="47" width="2170" height="1440"/>
  </clipPath>
</defs>
<polyline clip-path="url(#clip092)" style="stroke:#000000; stroke-linecap:round; stroke-linejoin:round; stroke-width:2; stroke-opacity:0.1; fill:none" points="225.107,1486.45 225.107,47.2441 "/>
<polyline clip-path="url(#clip092)" style="stroke:#000000; stroke-linecap:round; stroke-linejoin:round; stroke-width:2; stroke-opacity:0.1; fill:none" points="736.561,1486.45 736.561,47.2441 "/>
<polyline clip-path="url(#clip092)" style="stroke:#000000; stroke-linecap:round; stroke-linejoin:round; stroke-width:2; stroke-opacity:0.1; fill:none" points="1248.02,1486.45 1248.02,47.2441 "/>
<polyline clip-path="url(#clip092)" style="stroke:#000000; stroke-linecap:round; stroke-linejoin:round; stroke-width:2; stroke-opacity:0.1; fill:none" points="1759.47,1486.45 1759.47,47.2441 "/>
<polyline clip-path="url(#clip092)" style="stroke:#000000; stroke-linecap:round; stroke-linejoin:round; stroke-width:2; stroke-opacity:0.1; fill:none" points="2270.92,1486.45 2270.92,47.2441 "/>
<polyline clip-path="url(#clip090)" style="stroke:#000000; stroke-linecap:round; stroke-linejoin:round; stroke-width:4; stroke-opacity:1; fill:none" points="184.191,1486.45 2352.76,1486.45 "/>
<polyline clip-path="url(#clip090)" style="stroke:#000000; stroke-linecap:round; stroke-linejoin:round; stroke-width:4; stroke-opacity:1; fill:none" points="225.107,1486.45 225.107,1467.55 "/>
<polyline clip-path="url(#clip090)" style="stroke:#000000; stroke-linecap:round; stroke-linejoin:round; stroke-width:4; stroke-opacity:1; fill:none" points="736.561,1486.45 736.561,1467.55 "/>
<polyline clip-path="url(#clip090)" style="stroke:#000000; stroke-linecap:round; stroke-linejoin:round; stroke-width:4; stroke-opacity:1; fill:none" points="1248.02,1486.45 1248.02,1467.55 "/>
<polyline clip-path="url(#clip090)" style="stroke:#000000; stroke-linecap:round; stroke-linejoin:round; stroke-width:4; stroke-opacity:1; fill:none" points="1759.47,1486.45 1759.47,1467.55 "/>
<polyline clip-path="url(#clip090)" style="stroke:#000000; stroke-linecap:round; stroke-linejoin:round; stroke-width:4; stroke-opacity:1; fill:none" points="2270.92,1486.45 2270.92,1467.55 "/>
<path clip-path="url(#clip090)" d="M225.107 1517.37 Q221.496 1517.37 219.667 1520.93 Q217.862 1524.47 217.862 1531.6 Q217.862 1538.71 219.667 1542.27 Q221.496 1545.82 225.107 1545.82 Q228.741 1545.82 230.547 1542.27 Q232.375 1538.71 232.375 1531.6 Q232.375 1524.47 230.547 1520.93 Q228.741 1517.37 225.107 1517.37 M225.107 1513.66 Q230.917 1513.66 233.973 1518.27 Q237.051 1522.85 237.051 1531.6 Q237.051 1540.33 233.973 1544.94 Q230.917 1549.52 225.107 1549.52 Q219.297 1549.52 216.218 1544.94 Q213.163 1540.33 213.163 1531.6 Q213.163 1522.85 216.218 1518.27 Q219.297 1513.66 225.107 1513.66 Z" fill="#000000" fill-rule="nonzero" fill-opacity="1" /><path clip-path="url(#clip090)" d="M715.832 1544.91 L732.151 1544.91 L732.151 1548.85 L710.207 1548.85 L710.207 1544.91 Q712.869 1542.16 717.452 1537.53 Q722.059 1532.88 723.239 1531.53 Q725.485 1529.01 726.364 1527.27 Q727.267 1525.51 727.267 1523.82 Q727.267 1521.07 725.323 1519.33 Q723.401 1517.6 720.3 1517.6 Q718.101 1517.6 715.647 1518.36 Q713.216 1519.13 710.439 1520.68 L710.439 1515.95 Q713.263 1514.82 715.716 1514.24 Q718.17 1513.66 720.207 1513.66 Q725.577 1513.66 728.772 1516.35 Q731.966 1519.03 731.966 1523.52 Q731.966 1525.65 731.156 1527.57 Q730.369 1529.47 728.263 1532.07 Q727.684 1532.74 724.582 1535.95 Q721.48 1539.15 715.832 1544.91 Z" fill="#000000" fill-rule="nonzero" fill-opacity="1" /><path clip-path="url(#clip090)" d="M742.012 1514.29 L760.369 1514.29 L760.369 1518.22 L746.295 1518.22 L746.295 1526.7 Q747.313 1526.35 748.332 1526.19 Q749.35 1526 750.369 1526 Q756.156 1526 759.535 1529.17 Q762.915 1532.34 762.915 1537.76 Q762.915 1543.34 759.443 1546.44 Q755.971 1549.52 749.651 1549.52 Q747.475 1549.52 745.207 1549.15 Q742.961 1548.78 740.554 1548.04 L740.554 1543.34 Q742.637 1544.47 744.86 1545.03 Q747.082 1545.58 749.559 1545.58 Q753.563 1545.58 755.901 1543.48 Q758.239 1541.37 758.239 1537.76 Q758.239 1534.15 755.901 1532.04 Q753.563 1529.94 749.559 1529.94 Q747.684 1529.94 745.809 1530.35 Q743.957 1530.77 742.012 1531.65 L742.012 1514.29 Z" fill="#000000" fill-rule="nonzero" fill-opacity="1" /><path clip-path="url(#clip090)" d="M1222.71 1514.29 L1241.07 1514.29 L1241.07 1518.22 L1227 1518.22 L1227 1526.7 Q1228.02 1526.35 1229.03 1526.19 Q1230.05 1526 1231.07 1526 Q1236.86 1526 1240.24 1529.17 Q1243.62 1532.34 1243.62 1537.76 Q1243.62 1543.34 1240.14 1546.44 Q1236.67 1549.52 1230.35 1549.52 Q1228.18 1549.52 1225.91 1549.15 Q1223.66 1548.78 1221.26 1548.04 L1221.26 1543.34 Q1223.34 1544.47 1225.56 1545.03 Q1227.78 1545.58 1230.26 1545.58 Q1234.27 1545.58 1236.6 1543.48 Q1238.94 1541.37 1238.94 1537.76 Q1238.94 1534.15 1236.6 1532.04 Q1234.27 1529.94 1230.26 1529.94 Q1228.39 1529.94 1226.51 1530.35 Q1224.66 1530.77 1222.71 1531.65 L1222.71 1514.29 Z" fill="#000000" fill-rule="nonzero" fill-opacity="1" /><path clip-path="url(#clip090)" d="M1262.83 1517.37 Q1259.22 1517.37 1257.39 1520.93 Q1255.58 1524.47 1255.58 1531.6 Q1255.58 1538.71 1257.39 1542.27 Q1259.22 1545.82 1262.83 1545.82 Q1266.46 1545.82 1268.27 1542.27 Q1270.1 1538.71 1270.1 1531.6 Q1270.1 1524.47 1268.27 1520.93 Q1266.46 1517.37 1262.83 1517.37 M1262.83 1513.66 Q1268.64 1513.66 1271.7 1518.27 Q1274.77 1522.85 1274.77 1531.6 Q1274.77 1540.33 1271.7 1544.94 Q1268.64 1549.52 1262.83 1549.52 Q1257.02 1549.52 1253.94 1544.94 Q1250.89 1540.33 1250.89 1531.6 Q1250.89 1522.85 1253.94 1518.27 Q1257.02 1513.66 1262.83 1513.66 Z" fill="#000000" fill-rule="nonzero" fill-opacity="1" /><path clip-path="url(#clip090)" d="M1733.32 1514.29 L1755.55 1514.29 L1755.55 1516.28 L1743 1548.85 L1738.12 1548.85 L1749.92 1518.22 L1733.32 1518.22 L1733.32 1514.29 Z" fill="#000000" fill-rule="nonzero" fill-opacity="1" /><path clip-path="url(#clip090)" d="M1764.71 1514.29 L1783.07 1514.29 L1783.07 1518.22 L1768.99 1518.22 L1768.99 1526.7 Q1770.01 1526.35 1771.03 1526.19 Q1772.05 1526 1773.07 1526 Q1778.86 1526 1782.24 1529.17 Q1785.61 1532.34 1785.61 1537.76 Q1785.61 1543.34 1782.14 1546.44 Q1778.67 1549.52 1772.35 1549.52 Q1770.18 1549.52 1767.91 1549.15 Q1765.66 1548.78 1763.25 1548.04 L1763.25 1543.34 Q1765.34 1544.47 1767.56 1545.03 Q1769.78 1545.58 1772.26 1545.58 Q1776.26 1545.58 1778.6 1543.48 Q1780.94 1541.37 1780.94 1537.76 Q1780.94 1534.15 1778.6 1532.04 Q1776.26 1529.94 1772.26 1529.94 Q1770.38 1529.94 1768.51 1530.35 Q1766.66 1530.77 1764.71 1531.65 L1764.71 1514.29 Z" fill="#000000" fill-rule="nonzero" fill-opacity="1" /><path clip-path="url(#clip090)" d="M2230.53 1544.91 L2238.17 1544.91 L2238.17 1518.55 L2229.86 1520.21 L2229.86 1515.95 L2238.12 1514.29 L2242.8 1514.29 L2242.8 1544.91 L2250.44 1544.91 L2250.44 1548.85 L2230.53 1548.85 L2230.53 1544.91 Z" fill="#000000" fill-rule="nonzero" fill-opacity="1" /><path clip-path="url(#clip090)" d="M2269.88 1517.37 Q2266.27 1517.37 2264.44 1520.93 Q2262.64 1524.47 2262.64 1531.6 Q2262.64 1538.71 2264.44 1542.27 Q2266.27 1545.82 2269.88 1545.82 Q2273.52 1545.82 2275.32 1542.27 Q2277.15 1538.71 2277.15 1531.6 Q2277.15 1524.47 2275.32 1520.93 Q2273.52 1517.37 2269.88 1517.37 M2269.88 1513.66 Q2275.69 1513.66 2278.75 1518.27 Q2281.83 1522.85 2281.83 1531.6 Q2281.83 1540.33 2278.75 1544.94 Q2275.69 1549.52 2269.88 1549.52 Q2264.07 1549.52 2260.99 1544.94 Q2257.94 1540.33 2257.94 1531.6 Q2257.94 1522.85 2260.99 1518.27 Q2264.07 1513.66 2269.88 1513.66 Z" fill="#000000" fill-rule="nonzero" fill-opacity="1" /><path clip-path="url(#clip090)" d="M2300.04 1517.37 Q2296.43 1517.37 2294.6 1520.93 Q2292.8 1524.47 2292.8 1531.6 Q2292.8 1538.71 2294.6 1542.27 Q2296.43 1545.82 2300.04 1545.82 Q2303.68 1545.82 2305.48 1542.27 Q2307.31 1538.71 2307.31 1531.6 Q2307.31 1524.47 2305.48 1520.93 Q2303.68 1517.37 2300.04 1517.37 M2300.04 1513.66 Q2305.85 1513.66 2308.91 1518.27 Q2311.99 1522.85 2311.99 1531.6 Q2311.99 1540.33 2308.91 1544.94 Q2305.85 1549.52 2300.04 1549.52 Q2294.23 1549.52 2291.15 1544.94 Q2288.1 1540.33 2288.1 1531.6 Q2288.1 1522.85 2291.15 1518.27 Q2294.23 1513.66 2300.04 1513.66 Z" fill="#000000" fill-rule="nonzero" fill-opacity="1" /><polyline clip-path="url(#clip092)" style="stroke:#000000; stroke-linecap:round; stroke-linejoin:round; stroke-width:2; stroke-opacity:0.1; fill:none" points="184.191,1445.73 2352.76,1445.73 "/>
<polyline clip-path="url(#clip092)" style="stroke:#000000; stroke-linecap:round; stroke-linejoin:round; stroke-width:2; stroke-opacity:0.1; fill:none" points="184.191,1106.29 2352.76,1106.29 "/>
<polyline clip-path="url(#clip092)" style="stroke:#000000; stroke-linecap:round; stroke-linejoin:round; stroke-width:2; stroke-opacity:0.1; fill:none" points="184.191,766.852 2352.76,766.852 "/>
<polyline clip-path="url(#clip092)" style="stroke:#000000; stroke-linecap:round; stroke-linejoin:round; stroke-width:2; stroke-opacity:0.1; fill:none" points="184.191,427.414 2352.76,427.414 "/>
<polyline clip-path="url(#clip092)" style="stroke:#000000; stroke-linecap:round; stroke-linejoin:round; stroke-width:2; stroke-opacity:0.1; fill:none" points="184.191,87.9763 2352.76,87.9763 "/>
<polyline clip-path="url(#clip090)" style="stroke:#000000; stroke-linecap:round; stroke-linejoin:round; stroke-width:4; stroke-opacity:1; fill:none" points="184.191,1486.45 184.191,47.2441 "/>
<polyline clip-path="url(#clip090)" style="stroke:#000000; stroke-linecap:round; stroke-linejoin:round; stroke-width:4; stroke-opacity:1; fill:none" points="184.191,1445.73 203.088,1445.73 "/>
<polyline clip-path="url(#clip090)" style="stroke:#000000; stroke-linecap:round; stroke-linejoin:round; stroke-width:4; stroke-opacity:1; fill:none" points="184.191,1106.29 203.088,1106.29 "/>
<polyline clip-path="url(#clip090)" style="stroke:#000000; stroke-linecap:round; stroke-linejoin:round; stroke-width:4; stroke-opacity:1; fill:none" points="184.191,766.852 203.088,766.852 "/>
<polyline clip-path="url(#clip090)" style="stroke:#000000; stroke-linecap:round; stroke-linejoin:round; stroke-width:4; stroke-opacity:1; fill:none" points="184.191,427.414 203.088,427.414 "/>
<polyline clip-path="url(#clip090)" style="stroke:#000000; stroke-linecap:round; stroke-linejoin:round; stroke-width:4; stroke-opacity:1; fill:none" points="184.191,87.9763 203.088,87.9763 "/>
<path clip-path="url(#clip090)" d="M91.0151 1431.53 Q87.404 1431.53 85.5753 1435.09 Q83.7697 1438.63 83.7697 1445.76 Q83.7697 1452.87 85.5753 1456.43 Q87.404 1459.98 91.0151 1459.98 Q94.6493 1459.98 96.4548 1456.43 Q98.2835 1452.87 98.2835 1445.76 Q98.2835 1438.63 96.4548 1435.09 Q94.6493 1431.53 91.0151 1431.53 M91.0151 1427.82 Q96.8252 1427.82 99.8808 1432.43 Q102.959 1437.01 102.959 1445.76 Q102.959 1454.49 99.8808 1459.1 Q96.8252 1463.68 91.0151 1463.68 Q85.2049 1463.68 82.1262 1459.1 Q79.0707 1454.49 79.0707 1445.76 Q79.0707 1437.01 82.1262 1432.43 Q85.2049 1427.82 91.0151 1427.82 Z" fill="#000000" fill-rule="nonzero" fill-opacity="1" /><path clip-path="url(#clip090)" d="M111.177 1457.13 L116.061 1457.13 L116.061 1463.01 L111.177 1463.01 L111.177 1457.13 Z" fill="#000000" fill-rule="nonzero" fill-opacity="1" /><path clip-path="url(#clip090)" d="M136.246 1431.53 Q132.635 1431.53 130.807 1435.09 Q129.001 1438.63 129.001 1445.76 Q129.001 1452.87 130.807 1456.43 Q132.635 1459.98 136.246 1459.98 Q139.881 1459.98 141.686 1456.43 Q143.515 1452.87 143.515 1445.76 Q143.515 1438.63 141.686 1435.09 Q139.881 1431.53 136.246 1431.53 M136.246 1427.82 Q142.056 1427.82 145.112 1432.43 Q148.191 1437.01 148.191 1445.76 Q148.191 1454.49 145.112 1459.1 Q142.056 1463.68 136.246 1463.68 Q130.436 1463.68 127.357 1459.1 Q124.302 1454.49 124.302 1445.76 Q124.302 1437.01 127.357 1432.43 Q130.436 1427.82 136.246 1427.82 Z" fill="#000000" fill-rule="nonzero" fill-opacity="1" /><path clip-path="url(#clip090)" d="M86.0382 1119.64 L102.358 1119.64 L102.358 1123.57 L80.4133 1123.57 L80.4133 1119.64 Q83.0753 1116.88 87.6586 1112.25 Q92.2651 1107.6 93.4456 1106.26 Q95.691 1103.73 96.5706 1102 Q97.4734 1100.24 97.4734 1098.55 Q97.4734 1095.79 95.5289 1094.06 Q93.6076 1092.32 90.5058 1092.32 Q88.3067 1092.32 85.8531 1093.08 Q83.4225 1093.85 80.6447 1095.4 L80.6447 1090.68 Q83.4688 1089.54 85.9225 1088.96 Q88.3762 1088.39 90.4132 1088.39 Q95.7836 1088.39 98.978 1091.07 Q102.172 1093.76 102.172 1098.25 Q102.172 1100.38 101.362 1102.3 Q100.575 1104.2 98.4687 1106.79 Q97.89 1107.46 94.7882 1110.68 Q91.6864 1113.87 86.0382 1119.64 Z" fill="#000000" fill-rule="nonzero" fill-opacity="1" /><path clip-path="url(#clip090)" d="M112.172 1117.69 L117.057 1117.69 L117.057 1123.57 L112.172 1123.57 L112.172 1117.69 Z" fill="#000000" fill-rule="nonzero" fill-opacity="1" /><path clip-path="url(#clip090)" d="M127.288 1089.01 L145.644 1089.01 L145.644 1092.95 L131.57 1092.95 L131.57 1101.42 Q132.589 1101.07 133.607 1100.91 Q134.626 1100.72 135.644 1100.72 Q141.431 1100.72 144.811 1103.89 Q148.191 1107.07 148.191 1112.48 Q148.191 1118.06 144.718 1121.16 Q141.246 1124.24 134.927 1124.24 Q132.751 1124.24 130.482 1123.87 Q128.237 1123.5 125.83 1122.76 L125.83 1118.06 Q127.913 1119.2 130.135 1119.75 Q132.357 1120.31 134.834 1120.31 Q138.839 1120.31 141.177 1118.2 Q143.515 1116.09 143.515 1112.48 Q143.515 1108.87 141.177 1106.76 Q138.839 1104.66 134.834 1104.66 Q132.959 1104.66 131.084 1105.07 Q129.232 1105.49 127.288 1106.37 L127.288 1089.01 Z" fill="#000000" fill-rule="nonzero" fill-opacity="1" /><path clip-path="url(#clip090)" d="M81.0614 749.572 L99.4178 749.572 L99.4178 753.507 L85.3438 753.507 L85.3438 761.98 Q86.3623 761.632 87.3808 761.47 Q88.3993 761.285 89.4178 761.285 Q95.2049 761.285 98.5845 764.456 Q101.964 767.628 101.964 773.044 Q101.964 778.623 98.4919 781.725 Q95.0197 784.804 88.7003 784.804 Q86.5243 784.804 84.2558 784.433 Q82.0105 784.063 79.6031 783.322 L79.6031 778.623 Q81.6864 779.757 83.9086 780.313 Q86.1308 780.868 88.6077 780.868 Q92.6123 780.868 94.9502 778.762 Q97.2882 776.655 97.2882 773.044 Q97.2882 769.433 94.9502 767.327 Q92.6123 765.22 88.6077 765.22 Q86.7327 765.22 84.8577 765.637 Q83.0058 766.054 81.0614 766.933 L81.0614 749.572 Z" fill="#000000" fill-rule="nonzero" fill-opacity="1" /><path clip-path="url(#clip090)" d="M111.177 778.253 L116.061 778.253 L116.061 784.132 L111.177 784.132 L111.177 778.253 Z" fill="#000000" fill-rule="nonzero" fill-opacity="1" /><path clip-path="url(#clip090)" d="M136.246 752.651 Q132.635 752.651 130.807 756.216 Q129.001 759.757 129.001 766.887 Q129.001 773.993 130.807 777.558 Q132.635 781.1 136.246 781.1 Q139.881 781.1 141.686 777.558 Q143.515 773.993 143.515 766.887 Q143.515 759.757 141.686 756.216 Q139.881 752.651 136.246 752.651 M136.246 748.947 Q142.056 748.947 145.112 753.554 Q148.191 758.137 148.191 766.887 Q148.191 775.614 145.112 780.22 Q142.056 784.804 136.246 784.804 Q130.436 784.804 127.357 780.22 Q124.302 775.614 124.302 766.887 Q124.302 758.137 127.357 753.554 Q130.436 748.947 136.246 748.947 Z" fill="#000000" fill-rule="nonzero" fill-opacity="1" /><path clip-path="url(#clip090)" d="M80.8299 410.134 L103.052 410.134 L103.052 412.125 L90.5058 444.694 L85.6216 444.694 L97.4271 414.069 L80.8299 414.069 L80.8299 410.134 Z" fill="#000000" fill-rule="nonzero" fill-opacity="1" /><path clip-path="url(#clip090)" d="M112.172 438.815 L117.057 438.815 L117.057 444.694 L112.172 444.694 L112.172 438.815 Z" fill="#000000" fill-rule="nonzero" fill-opacity="1" /><path clip-path="url(#clip090)" d="M127.288 410.134 L145.644 410.134 L145.644 414.069 L131.57 414.069 L131.57 422.542 Q132.589 422.194 133.607 422.032 Q134.626 421.847 135.644 421.847 Q141.431 421.847 144.811 425.018 Q148.191 428.19 148.191 433.606 Q148.191 439.185 144.718 442.287 Q141.246 445.366 134.927 445.366 Q132.751 445.366 130.482 444.995 Q128.237 444.625 125.83 443.884 L125.83 439.185 Q127.913 440.319 130.135 440.875 Q132.357 441.43 134.834 441.43 Q138.839 441.43 141.177 439.324 Q143.515 437.217 143.515 433.606 Q143.515 429.995 141.177 427.889 Q138.839 425.782 134.834 425.782 Q132.959 425.782 131.084 426.199 Q129.232 426.616 127.288 427.495 L127.288 410.134 Z" fill="#000000" fill-rule="nonzero" fill-opacity="1" /><path clip-path="url(#clip090)" d="M51.6634 101.321 L59.3023 101.321 L59.3023 74.9555 L50.9921 76.6222 L50.9921 72.3629 L59.256 70.6963 L63.9319 70.6963 L63.9319 101.321 L71.5707 101.321 L71.5707 105.256 L51.6634 105.256 L51.6634 101.321 Z" fill="#000000" fill-rule="nonzero" fill-opacity="1" /><path clip-path="url(#clip090)" d="M91.0151 73.775 Q87.404 73.775 85.5753 77.3398 Q83.7697 80.8814 83.7697 88.011 Q83.7697 95.1174 85.5753 98.6822 Q87.404 102.224 91.0151 102.224 Q94.6493 102.224 96.4548 98.6822 Q98.2835 95.1174 98.2835 88.011 Q98.2835 80.8814 96.4548 77.3398 Q94.6493 73.775 91.0151 73.775 M91.0151 70.0713 Q96.8252 70.0713 99.8808 74.6777 Q102.959 79.261 102.959 88.011 Q102.959 96.7378 99.8808 101.344 Q96.8252 105.928 91.0151 105.928 Q85.2049 105.928 82.1262 101.344 Q79.0707 96.7378 79.0707 88.011 Q79.0707 79.261 82.1262 74.6777 Q85.2049 70.0713 91.0151 70.0713 Z" fill="#000000" fill-rule="nonzero" fill-opacity="1" /><path clip-path="url(#clip090)" d="M111.177 99.3767 L116.061 99.3767 L116.061 105.256 L111.177 105.256 L111.177 99.3767 Z" fill="#000000" fill-rule="nonzero" fill-opacity="1" /><path clip-path="url(#clip090)" d="M136.246 73.775 Q132.635 73.775 130.807 77.3398 Q129.001 80.8814 129.001 88.011 Q129.001 95.1174 130.807 98.6822 Q132.635 102.224 136.246 102.224 Q139.881 102.224 141.686 98.6822 Q143.515 95.1174 143.515 88.011 Q143.515 80.8814 141.686 77.3398 Q139.881 73.775 136.246 73.775 M136.246 70.0713 Q142.056 70.0713 145.112 74.6777 Q148.191 79.261 148.191 88.011 Q148.191 96.7378 145.112 101.344 Q142.056 105.928 136.246 105.928 Q130.436 105.928 127.357 101.344 Q124.302 96.7378 124.302 88.011 Q124.302 79.261 127.357 74.6777 Q130.436 70.0713 136.246 70.0713 Z" fill="#000000" fill-rule="nonzero" fill-opacity="1" /><polyline clip-path="url(#clip092)" style="stroke:#009af9; stroke-linecap:round; stroke-linejoin:round; stroke-width:4; stroke-opacity:1; fill:none" points="245.565,1288.32 266.023,1288.32 286.481,1288.32 306.94,1288.32 327.398,1288.32 347.856,1288.32 368.314,1288.32 388.772,1288.32 409.23,1288.32 429.689,1288.32 450.147,1288.32 470.605,1288.32 491.063,1288.32 511.521,1288.32 531.979,1288.32 552.438,1288.32 572.896,1288.32 593.354,1288.32 613.812,1288.32 634.27,1288.32 654.728,1288.32 675.187,1288.32 695.645,1288.32 716.103,1288.32 736.561,1288.32 757.019,1288.32 777.477,1288.32 797.936,1288.32 818.394,1288.32 838.852,1288.32 859.31,1288.32 879.768,1288.32 900.226,1288.32 920.685,1288.32 941.143,1288.32 961.601,1288.32 982.059,1288.32 1002.52,1288.32 1022.98,1288.32 1043.43,1288.32 1063.89,1288.32 1084.35,1288.32 1104.81,1288.32 1125.27,1288.32 1145.72,1288.32 1166.18,1288.32 1186.64,1288.32 1207.1,1288.32 1227.56,1288.32 1248.02,1288.32 1268.47,1288.32 1288.93,1288.32 1309.39,1288.32 1329.85,1288.32 1350.31,1288.32 1370.76,1288.32 1391.22,1288.32 1411.68,1288.32 1432.14,1288.32 1452.6,1288.32 1473.05,1288.32 1493.51,1288.32 1513.97,1288.32 1534.43,1288.32 1554.89,1288.32 1575.35,1288.32 1595.8,1288.32 1616.26,1288.32 1636.72,1288.32 1657.18,1288.32 1677.64,1288.32 1698.09,1288.32 1718.55,1288.32 1739.01,1288.32 1759.47,1288.32 1779.93,1288.32 1800.39,1288.32 1820.84,1288.32 1841.3,1288.32 1861.76,1288.32 1882.22,1288.32 1902.68,1288.32 1923.13,1288.32 1943.59,1288.32 1964.05,1288.32 1984.51,1288.32 2004.97,1288.32 2025.43,1288.32 2045.88,1288.32 2066.34,1288.32 2086.8,1288.32 2107.26,1288.32 2127.72,1288.32 2148.17,1288.33 2168.63,1288.33 2189.09,1288.33 2209.55,1288.33 2230.01,1288.33 2250.47,1288.33 2270.92,1288.33 2291.38,1288.33 "/>
<polyline clip-path="url(#clip092)" style="stroke:#e26f46; stroke-linecap:round; stroke-linejoin:round; stroke-width:4; stroke-opacity:1; fill:none" points="245.565,87.9763 266.023,95.8983 286.481,103.9 306.94,111.983 327.398,120.147 347.856,128.394 368.314,136.724 388.772,145.138 409.23,153.636 429.689,162.221 450.147,170.892 470.605,179.651 491.063,188.498 511.521,197.434 531.979,206.461 552.438,215.579 572.896,224.788 593.354,234.091 613.812,243.487 634.27,252.979 654.728,262.566 675.187,272.249 695.645,282.031 716.103,291.911 736.561,301.891 757.019,311.972 777.477,322.154 797.936,332.439 818.394,342.828 838.852,353.322 859.31,363.922 879.768,374.629 900.226,385.444 920.685,396.367 941.143,407.402 961.601,418.547 982.059,429.805 1002.52,441.177 1022.98,452.663 1043.43,464.266 1063.89,475.985 1084.35,487.823 1104.81,499.78 1125.27,511.858 1145.72,524.058 1166.18,536.381 1186.64,548.828 1207.1,561.401 1227.56,574.101 1248.02,586.93 1268.47,599.887 1288.93,612.976 1309.39,626.196 1329.85,639.55 1350.31,653.039 1370.76,666.664 1391.22,680.426 1411.68,694.328 1432.14,708.369 1452.6,722.553 1473.05,736.879 1493.51,751.35 1513.97,765.968 1534.43,780.733 1554.89,795.647 1575.35,810.711 1595.8,825.928 1616.26,841.298 1636.72,856.823 1657.18,872.505 1677.64,888.345 1698.09,904.346 1718.55,920.507 1739.01,936.832 1759.47,953.322 1779.93,969.978 1800.39,986.803 1820.84,1003.8 1841.3,1020.96 1861.76,1038.3 1882.22,1055.82 1902.68,1073.51 1923.13,1091.38 1943.59,1109.43 1964.05,1127.66 1984.51,1146.07 2004.97,1164.68 2025.43,1183.47 2045.88,1202.45 2066.34,1221.62 2086.8,1240.98 2107.26,1260.54 2127.72,1280.3 2148.17,1300.26 2168.63,1320.42 2189.09,1340.78 2209.55,1361.35 2230.01,1382.12 2250.47,1403.11 2270.92,1424.3 2291.38,1445.72 "/>
<path clip-path="url(#clip090)" d="M1989.79 250.738 L2280.47 250.738 L2280.47 95.2176 L1989.79 95.2176  Z" fill="#ffffff" fill-rule="evenodd" fill-opacity="1"/>
<polyline clip-path="url(#clip090)" style="stroke:#000000; stroke-linecap:round; stroke-linejoin:round; stroke-width:4; stroke-opacity:1; fill:none" points="1989.79,250.738 2280.47,250.738 2280.47,95.2176 1989.79,95.2176 1989.79,250.738 "/>
<polyline clip-path="url(#clip090)" style="stroke:#009af9; stroke-linecap:round; stroke-linejoin:round; stroke-width:4; stroke-opacity:1; fill:none" points="2013.89,147.058 2158.46,147.058 "/>
<path clip-path="url(#clip090)" d="M2203.07 139.407 L2203.07 143.389 Q2201.26 142.393 2199.43 141.907 Q2197.63 141.398 2195.77 141.398 Q2191.63 141.398 2189.34 144.037 Q2187.05 146.652 2187.05 151.398 Q2187.05 156.143 2189.34 158.782 Q2191.63 161.398 2195.77 161.398 Q2197.63 161.398 2199.43 160.912 Q2201.26 160.402 2203.07 159.407 L2203.07 163.342 Q2201.28 164.176 2199.36 164.592 Q2197.46 165.009 2195.31 165.009 Q2189.45 165.009 2186.01 161.328 Q2182.56 157.648 2182.56 151.398 Q2182.56 145.055 2186.03 141.421 Q2189.52 137.787 2195.59 137.787 Q2197.56 137.787 2199.43 138.203 Q2201.31 138.597 2203.07 139.407 Z" fill="#000000" fill-rule="nonzero" fill-opacity="1" /><path clip-path="url(#clip090)" d="M2214.69 131.051 L2214.69 138.412 L2223.46 138.412 L2223.46 141.722 L2214.69 141.722 L2214.69 155.796 Q2214.69 158.967 2215.54 159.87 Q2216.42 160.773 2219.08 160.773 L2223.46 160.773 L2223.46 164.338 L2219.08 164.338 Q2214.15 164.338 2212.28 162.509 Q2210.4 160.657 2210.4 155.796 L2210.4 141.722 L2207.28 141.722 L2207.28 138.412 L2210.4 138.412 L2210.4 131.051 L2214.69 131.051 Z" fill="#000000" fill-rule="nonzero" fill-opacity="1" /><polyline clip-path="url(#clip090)" style="stroke:#e26f46; stroke-linecap:round; stroke-linejoin:round; stroke-width:4; stroke-opacity:1; fill:none" points="2013.89,198.898 2158.46,198.898 "/>
<path clip-path="url(#clip090)" d="M2195.96 203.145 Q2190.8 203.145 2188.81 204.326 Q2186.82 205.506 2186.82 208.354 Q2186.82 210.622 2188.3 211.965 Q2189.8 213.284 2192.37 213.284 Q2195.91 213.284 2198.04 210.784 Q2200.19 208.261 2200.19 204.094 L2200.19 203.145 L2195.96 203.145 M2204.45 201.386 L2204.45 216.178 L2200.19 216.178 L2200.19 212.242 Q2198.74 214.603 2196.56 215.738 Q2194.38 216.849 2191.24 216.849 Q2187.26 216.849 2184.89 214.627 Q2182.56 212.381 2182.56 208.631 Q2182.56 204.256 2185.47 202.034 Q2188.41 199.812 2194.22 199.812 L2200.19 199.812 L2200.19 199.395 Q2200.19 196.455 2198.25 194.858 Q2196.33 193.238 2192.83 193.238 Q2190.61 193.238 2188.51 193.77 Q2186.4 194.303 2184.45 195.367 L2184.45 191.432 Q2186.79 190.53 2188.99 190.09 Q2191.19 189.627 2193.27 189.627 Q2198.9 189.627 2201.68 192.543 Q2204.45 195.46 2204.45 201.386 Z" fill="#000000" fill-rule="nonzero" fill-opacity="1" /><path clip-path="url(#clip090)" d="M2214.64 212.242 L2222.28 212.242 L2222.28 185.877 L2213.97 187.543 L2213.97 183.284 L2222.23 181.618 L2226.91 181.618 L2226.91 212.242 L2234.55 212.242 L2234.55 216.178 L2214.64 216.178 L2214.64 212.242 Z" fill="#000000" fill-rule="nonzero" fill-opacity="1" /><path clip-path="url(#clip090)" d="M2247.6 182.891 L2247.6 190.252 L2256.38 190.252 L2256.38 193.562 L2247.6 193.562 L2247.6 207.636 Q2247.6 210.807 2248.46 211.71 Q2249.34 212.613 2252 212.613 L2256.38 212.613 L2256.38 216.178 L2252 216.178 Q2247.07 216.178 2245.19 214.349 Q2243.32 212.497 2243.32 207.636 L2243.32 193.562 L2240.19 193.562 L2240.19 190.252 L2243.32 190.252 L2243.32 182.891 L2247.6 182.891 Z" fill="#000000" fill-rule="nonzero" fill-opacity="1" /></svg>