<?xml version="1.0" encoding="utf-8"?>
<svg xmlns="http://www.w3.org/2000/svg" xmlns:xlink="http://www.w3.org/1999/xlink" width="600" height="400" viewBox="0 0 2400 1600">
<defs>
  <clipPath id="clip090">
    <rect x="0" y="0" width="2400" height="1600"/>
  </clipPath>
</defs>
<path clip-path="url(#clip090)" d="M0 1600 L2400 1600 L2400 0 L0 0  Z" fill="#ffffff" fill-rule="evenodd" fill-opacity="1"/>
<defs>
  <clipPath id="clip091">
    <rect x="480" y="0" width="1681" height="1600"/>
  </clipPath>
</defs>
<path clip-path="url(#clip090)" d="M156.598 1486.45 L2352.76 1486.45 L2352.76 47.2441 L156.598 47.2441  Z" fill="#ffffff" fill-rule="evenodd" fill-opacity="1"/>
<defs>
  <clipPath id="clip092">
    <rect x="156" y="47" width="2197" height="1440"/>
  </clipPath>
</defs>
<polyline clip-path="url(#clip092)" style="stroke:#000000; stroke-linecap:round; stroke-linejoin:round; stroke-width:2; stroke-opacity:0.1; fill:none" points="197.826,1486.45 197.826,47.2441 "/>
<polyline clip-path="url(#clip092)" style="stroke:#000000; stroke-linecap:round; stroke-linejoin:round; stroke-width:2; stroke-opacity:0.1; fill:none" points="721.02,1486.45 721.02,47.2441 "/>
<polyline clip-path="url(#clip092)" style="stroke:#000000; stroke-linecap:round; stroke-linejoin:round; stroke-width:2; stroke-opacity:0.1; fill:none" points="1244.21,1486.45 1244.21,47.2441 "/>
<polyline clip-path="url(#clip092)" style="stroke:#000000; stroke-linecap:round; stroke-linejoin:round; stroke-width:2; stroke-opacity:0.1; fill:none" points="1767.41,1486.45 1767.41,47.2441 "/>
<polyline clip-path="url(#clip092)" style="stroke:#000000; stroke-linecap:round; stroke-linejoin:round; stroke-width:2; stroke-opacity:0.1; fill:none" points="2290.6,1486.45 2290.6,47.2441 "/>
<polyline clip-path="url(#clip090)" style="stroke:#000000; stroke-linecap:round; stroke-linejoin:round; stroke-width:4; stroke-opacity:1; fill:none" points="156.598,1486.45 2352.76,1486.45 "/>
<polyline clip-path="url(#clip090)" style="stroke:#000000; stroke-linecap:round; stroke-linejoin:round; stroke-width:4; stroke-opacity:1; fill:none" points="197.826,1486.45 197.826,1467.55 "/>
<polyline clip-path="url(#clip090)" style="stroke:#000000; stroke-linecap:round; stroke-linejoin:round; stroke-width:4; stroke-opacity:1; fill:none" points="721.02,1486.45 721.02,1467.55 "/>
<polyline clip-path="url(#clip090)" style="stroke:#000000; stroke-linecap:round; stroke-linejoin:round; stroke-width:4; stroke-opacity:1; fill:none" points="1244.21,1486.45 1244.21,1467.55 "/>
<polyline clip-path="url(#clip090)" style="stroke:#000000; stroke-linecap:round; stroke-linejoin:round; stroke-width:4; stroke-opacity:1; fill:none" points="1767.41,1486.45 1767.41,1467.55 "/>
<polyline clip-path="url(#clip090)" style="stroke:#000000; stroke-linecap:round; stroke-linejoin:round; stroke-width:4; stroke-opacity:1; fill:none" points="2290.6,1486.45 2290.6,1467.55 "/>
<path clip-path="url(#clip090)" d="M197.826 1517.37 Q194.215 1517.37 192.386 1520.93 Q190.581 1524.47 190.581 1531.6 Q190.581 1538.71 192.386 1542.27 Q194.215 1545.82 197.826 1545.82 Q201.46 1545.82 203.266 1542.27 Q205.094 1538.71 205.094 1531.6 Q205.094 1524.47 203.266 1520.93 Q201.46 1517.37 197.826 1517.37 M197.826 1513.66 Q203.636 1513.66 206.692 1518.27 Q209.77 1522.85 209.77 1531.6 Q209.77 1540.33 206.692 1544.94 Q203.636 1549.52 197.826 1549.52 Q192.016 1549.52 188.937 1544.94 Q185.882 1540.33 185.882 1531.6 Q185.882 1522.85 188.937 1518.27 Q192.016 1513.66 197.826 1513.66 Z" fill="#000000" fill-rule="nonzero" fill-opacity="1" /><path clip-path="url(#clip090)" d="M700.29 1544.91 L716.61 1544.91 L716.61 1548.85 L694.666 1548.85 L694.666 1544.91 Q697.328 1542.16 701.911 1537.53 Q706.517 1532.88 707.698 1531.53 Q709.943 1529.01 710.823 1527.27 Q711.726 1525.51 711.726 1523.82 Q711.726 1521.07 709.781 1519.33 Q707.86 1517.6 704.758 1517.6 Q702.559 1517.6 700.105 1518.36 Q697.675 1519.13 694.897 1520.68 L694.897 1515.95 Q697.721 1514.82 700.175 1514.24 Q702.628 1513.66 704.665 1513.66 Q710.036 1513.66 713.23 1516.35 Q716.425 1519.03 716.425 1523.52 Q716.425 1525.65 715.614 1527.57 Q714.827 1529.47 712.721 1532.07 Q712.142 1532.74 709.04 1535.95 Q705.939 1539.15 700.29 1544.91 Z" fill="#000000" fill-rule="nonzero" fill-opacity="1" /><path clip-path="url(#clip090)" d="M726.471 1514.29 L744.827 1514.29 L744.827 1518.22 L730.753 1518.22 L730.753 1526.7 Q731.772 1526.35 732.79 1526.19 Q733.809 1526 734.827 1526 Q740.614 1526 743.994 1529.17 Q747.374 1532.34 747.374 1537.76 Q747.374 1543.34 743.901 1546.44 Q740.429 1549.52 734.11 1549.52 Q731.934 1549.52 729.665 1549.15 Q727.42 1548.78 725.013 1548.04 L725.013 1543.34 Q727.096 1544.47 729.318 1545.03 Q731.54 1545.58 734.017 1545.58 Q738.022 1545.58 740.36 1543.48 Q742.698 1541.37 742.698 1537.76 Q742.698 1534.15 740.36 1532.04 Q738.022 1529.94 734.017 1529.94 Q732.142 1529.94 730.267 1530.35 Q728.415 1530.77 726.471 1531.65 L726.471 1514.29 Z" fill="#000000" fill-rule="nonzero" fill-opacity="1" /><path clip-path="url(#clip090)" d="M1218.91 1514.29 L1237.27 1514.29 L1237.27 1518.22 L1223.19 1518.22 L1223.19 1526.7 Q1224.21 1526.35 1225.23 1526.19 Q1226.25 1526 1227.27 1526 Q1233.06 1526 1236.44 1529.17 Q1239.82 1532.34 1239.82 1537.76 Q1239.82 1543.34 1236.34 1546.44 Q1232.87 1549.52 1226.55 1549.52 Q1224.38 1549.52 1222.11 1549.15 Q1219.86 1548.78 1217.45 1548.04 L1217.45 1543.34 Q1219.54 1544.47 1221.76 1545.03 Q1223.98 1545.58 1226.46 1545.58 Q1230.46 1545.58 1232.8 1543.48 Q1235.14 1541.37 1235.14 1537.76 Q1235.14 1534.15 1232.8 1532.04 Q1230.46 1529.94 1226.46 1529.94 Q1224.58 1529.94 1222.71 1530.35 Q1220.86 1530.77 1218.91 1531.65 L1218.91 1514.29 Z" fill="#000000" fill-rule="nonzero" fill-opacity="1" /><path clip-path="url(#clip090)" d="M1259.03 1517.37 Q1255.42 1517.37 1253.59 1520.93 Q1251.78 1524.47 1251.78 1531.6 Q1251.78 1538.71 1253.59 1542.27 Q1255.42 1545.82 1259.03 1545.82 Q1262.66 1545.82 1264.47 1542.27 Q1266.3 1538.71 1266.3 1531.6 Q1266.3 1524.47 1264.47 1520.93 Q1262.66 1517.37 1259.03 1517.37 M1259.03 1513.66 Q1264.84 1513.66 1267.89 1518.27 Q1270.97 1522.85 1270.97 1531.6 Q1270.97 1540.33 1267.89 1544.94 Q1264.84 1549.52 1259.03 1549.52 Q1253.22 1549.52 1250.14 1544.94 Q1247.08 1540.33 1247.08 1531.6 Q1247.08 1522.85 1250.14 1518.27 Q1253.22 1513.66 1259.03 1513.66 Z" fill="#000000" fill-rule="nonzero" fill-opacity="1" /><path clip-path="url(#clip090)" d="M1741.26 1514.29 L1763.48 1514.29 L1763.48 1516.28 L1750.94 1548.85 L1746.05 1548.85 L1757.86 1518.22 L1741.26 1518.22 L1741.26 1514.29 Z" fill="#000000" fill-rule="nonzero" fill-opacity="1" /><path clip-path="url(#clip090)" d="M1772.65 1514.29 L1791.01 1514.29 L1791.01 1518.22 L1776.93 1518.22 L1776.93 1526.7 Q1777.95 1526.35 1778.97 1526.19 Q1779.99 1526 1781.01 1526 Q1786.79 1526 1790.17 1529.17 Q1793.55 1532.34 1793.55 1537.76 Q1793.55 1543.34 1790.08 1546.44 Q1786.61 1549.52 1780.29 1549.52 Q1778.11 1549.52 1775.84 1549.15 Q1773.6 1548.78 1771.19 1548.04 L1771.19 1543.34 Q1773.27 1544.47 1775.5 1545.03 Q1777.72 1545.58 1780.2 1545.58 Q1784.2 1545.58 1786.54 1543.48 Q1788.88 1541.37 1788.88 1537.76 Q1788.88 1534.15 1786.54 1532.04 Q1784.2 1529.94 1780.2 1529.94 Q1778.32 1529.94 1776.45 1530.35 Q1774.59 1530.77 1772.65 1531.65 L1772.65 1514.29 Z" fill="#000000" fill-rule="nonzero" fill-opacity="1" /><path clip-path="url(#clip090)" d="M2250.21 1544.91 L2257.85 1544.91 L2257.85 1518.55 L2249.54 1520.21 L2249.54 1515.95 L2257.8 1514.29 L2262.48 1514.29 L2262.48 1544.91 L2270.11 1544.91 L2270.11 1548.85 L2250.21 1548.85 L2250.21 1544.91 Z" fill="#000000" fill-rule="nonzero" fill-opacity="1" /><path clip-path="url(#clip090)" d="M2289.56 1517.37 Q2285.95 1517.37 2284.12 1520.93 Q2282.31 1524.47 2282.31 1531.6 Q2282.31 1538.71 2284.12 1542.27 Q2285.95 1545.82 2289.56 1545.82 Q2293.19 1545.82 2295 1542.27 Q2296.83 1538.71 2296.83 1531.6 Q2296.83 1524.47 2295 1520.93 Q2293.19 1517.37 2289.56 1517.37 M2289.56 1513.66 Q2295.37 1513.66 2298.42 1518.27 Q2301.5 1522.85 2301.5 1531.6 Q2301.5 1540.33 2298.42 1544.94 Q2295.37 1549.52 2289.56 1549.52 Q2283.75 1549.52 2280.67 1544.94 Q2277.61 1540.33 2277.61 1531.6 Q2277.61 1522.85 2280.67 1518.27 Q2283.75 1513.66 2289.56 1513.66 Z" fill="#000000" fill-rule="nonzero" fill-opacity="1" /><path clip-path="url(#clip090)" d="M2319.72 1517.37 Q2316.11 1517.37 2314.28 1520.93 Q2312.48 1524.47 2312.48 1531.6 Q2312.48 1538.71 2314.28 1542.27 Q2316.11 1545.82 2319.72 1545.82 Q2323.35 1545.82 2325.16 1542.27 Q2326.99 1538.71 2326.99 1531.6 Q2326.99 1524.47 2325.16 1520.93 Q2323.35 1517.37 2319.72 1517.37 M2319.72 1513.66 Q2325.53 1513.66 2328.59 1518.27 Q2331.67 1522.85 2331.67 1531.6 Q2331.67 1540.33 2328.59 1544.94 Q2325.53 1549.52 2319.72 1549.52 Q2313.91 1549.52 2310.83 1544.94 Q2307.78 1540.33 2307.78 1531.6 Q2307.78 1522.85 2310.83 1518.27 Q2313.91 1513.66 2319.72 1513.66 Z" fill="#000000" fill-rule="nonzero" fill-opacity="1" /><polyline clip-path="url(#clip092)" style="stroke:#000000; stroke-linecap:round; stroke-linejoin:round; stroke-width:2; stroke-opacity:0.1; fill:none" points="156.598,1445.72 2352.76,1445.72 "/>
<polyline clip-path="url(#clip092)" style="stroke:#000000; stroke-linecap:round; stroke-linejoin:round; stroke-width:2; stroke-opacity:0.1; fill:none" points="156.598,1204.56 2352.76,1204.56 "/>
<polyline clip-path="url(#clip092)" style="stroke:#000000; stroke-linecap:round; stroke-linejoin:round; stroke-width:2; stroke-opacity:0.1; fill:none" points="156.598,963.396 2352.76,963.396 "/>
<polyline clip-path="url(#clip092)" style="stroke:#000000; stroke-linecap:round; stroke-linejoin:round; stroke-width:2; stroke-opacity:0.1; fill:none" points="156.598,722.236 2352.76,722.236 "/>
<polyline clip-path="url(#clip092)" style="stroke:#000000; stroke-linecap:round; stroke-linejoin:round; stroke-width:2; stroke-opacity:0.1; fill:none" points="156.598,481.076 2352.76,481.076 "/>
<polyline clip-path="url(#clip092)" style="stroke:#000000; stroke-linecap:round; stroke-linejoin:round; stroke-width:2; stroke-opacity:0.1; fill:none" points="156.598,239.916 2352.76,239.916 "/>
<polyline clip-path="url(#clip090)" style="stroke:#000000; stroke-linecap:round; stroke-linejoin:round; stroke-width:4; stroke-opacity:1; fill:none" points="156.598,1486.45 156.598,47.2441 "/>
<polyline clip-path="url(#clip090)" style="stroke:#000000; stroke-linecap:round; stroke-linejoin:round; stroke-width:4; stroke-opacity:1; fill:none" points="156.598,1445.72 175.496,1445.72 "/>
<polyline clip-path="url(#clip090)" style="stroke:#000000; stroke-linecap:round; stroke-linejoin:round; stroke-width:4; stroke-opacity:1; fill:none" points="156.598,1204.56 175.496,1204.56 "/>
<polyline clip-path="url(#clip090)" style="stroke:#000000; stroke-linecap:round; stroke-linejoin:round; stroke-width:4; stroke-opacity:1; fill:none" points="156.598,963.396 175.496,963.396 "/>
<polyline clip-path="url(#clip090)" style="stroke:#000000; stroke-linecap:round; stroke-linejoin:round; stroke-width:4; stroke-opacity:1; fill:none" points="156.598,722.236 175.496,722.236 "/>
<polyline clip-path="url(#clip090)" style="stroke:#000000; stroke-linecap:round; stroke-linejoin:round; stroke-width:4; stroke-opacity:1; fill:none" points="156.598,481.076 175.496,481.076 "/>
<polyline clip-path="url(#clip090)" style="stroke:#000000; stroke-linecap:round; stroke-linejoin:round; stroke-width:4; stroke-opacity:1; fill:none" points="156.598,239.916 175.496,239.916 "/>
<path clip-path="url(#clip090)" d="M64.6495 1431.51 Q61.0384 1431.51 59.2097 1435.08 Q57.4041 1438.62 57.4041 1445.75 Q57.4041 1452.86 59.2097 1456.42 Q61.0384 1459.96 64.6495 1459.96 Q68.2837 1459.96 70.0892 1456.42 Q71.9179 1452.86 71.9179 1445.75 Q71.9179 1438.62 70.0892 1435.08 Q68.2837 1431.51 64.6495 1431.51 M64.6495 1427.81 Q70.4596 1427.81 73.5152 1432.42 Q76.5938 1437 76.5938 1445.75 Q76.5938 1454.48 73.5152 1459.08 Q70.4596 1463.67 64.6495 1463.67 Q58.8393 1463.67 55.7606 1459.08 Q52.7051 1454.48 52.7051 1445.75 Q52.7051 1437 55.7606 1432.42 Q58.8393 1427.81 64.6495 1427.81 Z" fill="#000000" fill-rule="nonzero" fill-opacity="1" /><path clip-path="url(#clip090)" d="M84.8114 1457.12 L89.6956 1457.12 L89.6956 1463 L84.8114 1463 L84.8114 1457.12 Z" fill="#000000" fill-rule="nonzero" fill-opacity="1" /><path clip-path="url(#clip090)" d="M100.691 1459.06 L108.33 1459.06 L108.33 1432.69 L100.02 1434.36 L100.02 1430.1 L108.283 1428.44 L112.959 1428.44 L112.959 1459.06 L120.598 1459.06 L120.598 1463 L100.691 1463 L100.691 1459.06 Z" fill="#000000" fill-rule="nonzero" fill-opacity="1" /><path clip-path="url(#clip090)" d="M65.0198 1190.35 Q61.4087 1190.35 59.58 1193.92 Q57.7745 1197.46 57.7745 1204.59 Q57.7745 1211.7 59.58 1215.26 Q61.4087 1218.8 65.0198 1218.8 Q68.6541 1218.8 70.4596 1215.26 Q72.2883 1211.7 72.2883 1204.59 Q72.2883 1197.46 70.4596 1193.92 Q68.6541 1190.35 65.0198 1190.35 M65.0198 1186.65 Q70.83 1186.65 73.8855 1191.26 Q76.9642 1195.84 76.9642 1204.59 Q76.9642 1213.32 73.8855 1217.92 Q70.83 1222.51 65.0198 1222.51 Q59.2097 1222.51 56.131 1217.92 Q53.0754 1213.32 53.0754 1204.59 Q53.0754 1195.84 56.131 1191.26 Q59.2097 1186.65 65.0198 1186.65 Z" fill="#000000" fill-rule="nonzero" fill-opacity="1" /><path clip-path="url(#clip090)" d="M85.1818 1215.96 L90.066 1215.96 L90.066 1221.84 L85.1818 1221.84 L85.1818 1215.96 Z" fill="#000000" fill-rule="nonzero" fill-opacity="1" /><path clip-path="url(#clip090)" d="M104.279 1217.9 L120.598 1217.9 L120.598 1221.84 L98.6539 1221.84 L98.6539 1217.9 Q101.316 1215.15 105.899 1210.52 Q110.506 1205.86 111.686 1204.52 Q113.932 1202 114.811 1200.26 Q115.714 1198.5 115.714 1196.81 Q115.714 1194.06 113.77 1192.32 Q111.848 1190.59 108.746 1190.59 Q106.547 1190.59 104.094 1191.35 Q101.663 1192.11 98.8854 1193.66 L98.8854 1188.94 Q101.709 1187.81 104.163 1187.23 Q106.617 1186.65 108.654 1186.65 Q114.024 1186.65 117.219 1189.34 Q120.413 1192.02 120.413 1196.51 Q120.413 1198.64 119.603 1200.56 Q118.816 1202.46 116.709 1205.05 Q116.131 1205.72 113.029 1208.94 Q109.927 1212.14 104.279 1217.9 Z" fill="#000000" fill-rule="nonzero" fill-opacity="1" /><path clip-path="url(#clip090)" d="M64.0708 949.195 Q60.4597 949.195 58.631 952.759 Q56.8254 956.301 56.8254 963.431 Q56.8254 970.537 58.631 974.102 Q60.4597 977.644 64.0708 977.644 Q67.705 977.644 69.5105 974.102 Q71.3392 970.537 71.3392 963.431 Q71.3392 956.301 69.5105 952.759 Q67.705 949.195 64.0708 949.195 M64.0708 945.491 Q69.8809 945.491 72.9365 950.097 Q76.0151 954.681 76.0151 963.431 Q76.0151 972.158 72.9365 976.764 Q69.8809 981.347 64.0708 981.347 Q58.2606 981.347 55.1819 976.764 Q52.1264 972.158 52.1264 963.431 Q52.1264 954.681 55.1819 950.097 Q58.2606 945.491 64.0708 945.491 Z" fill="#000000" fill-rule="nonzero" fill-opacity="1" /><path clip-path="url(#clip090)" d="M84.2327 974.796 L89.1169 974.796 L89.1169 980.676 L84.2327 980.676 L84.2327 974.796 Z" fill="#000000" fill-rule="nonzero" fill-opacity="1" /><path clip-path="url(#clip090)" d="M113.469 962.042 Q116.825 962.759 118.7 965.028 Q120.598 967.296 120.598 970.63 Q120.598 975.745 117.08 978.546 Q113.561 981.347 107.08 981.347 Q104.904 981.347 102.589 980.907 Q100.297 980.491 97.8437 979.634 L97.8437 975.12 Q99.7882 976.255 102.103 976.833 Q104.418 977.412 106.941 977.412 Q111.339 977.412 113.631 975.676 Q115.945 973.94 115.945 970.63 Q115.945 967.574 113.793 965.861 Q111.663 964.125 107.844 964.125 L103.816 964.125 L103.816 960.283 L108.029 960.283 Q111.478 960.283 113.307 958.917 Q115.135 957.528 115.135 954.935 Q115.135 952.273 113.237 950.861 Q111.362 949.426 107.844 949.426 Q105.922 949.426 103.723 949.843 Q101.524 950.259 98.8854 951.139 L98.8854 946.972 Q101.547 946.232 103.862 945.861 Q106.2 945.491 108.26 945.491 Q113.584 945.491 116.686 947.922 Q119.788 950.329 119.788 954.449 Q119.788 957.32 118.145 959.31 Q116.501 961.278 113.469 962.042 Z" fill="#000000" fill-rule="nonzero" fill-opacity="1" /><path clip-path="url(#clip090)" d="M62.9365 708.035 Q59.3254 708.035 57.4967 711.6 Q55.6912 715.141 55.6912 722.271 Q55.6912 729.377 57.4967 732.942 Q59.3254 736.484 62.9365 736.484 Q66.5707 736.484 68.3763 732.942 Q70.205 729.377 70.205 722.271 Q70.205 715.141 68.3763 711.6 Q66.5707 708.035 62.9365 708.035 M62.9365 704.331 Q68.7467 704.331 71.8022 708.938 Q74.8809 713.521 74.8809 722.271 Q74.8809 730.998 71.8022 735.604 Q68.7467 740.187 62.9365 740.187 Q57.1264 740.187 54.0477 735.604 Q50.9921 730.998 50.9921 722.271 Q50.9921 713.521 54.0477 708.938 Q57.1264 704.331 62.9365 704.331 Z" fill="#000000" fill-rule="nonzero" fill-opacity="1" /><path clip-path="url(#clip090)" d="M83.0984 733.637 L87.9827 733.637 L87.9827 739.516 L83.0984 739.516 L83.0984 733.637 Z" fill="#000000" fill-rule="nonzero" fill-opacity="1" /><path clip-path="url(#clip090)" d="M111.015 709.03 L99.2095 727.479 L111.015 727.479 L111.015 709.03 M109.788 704.956 L115.668 704.956 L115.668 727.479 L120.598 727.479 L120.598 731.368 L115.668 731.368 L115.668 739.516 L111.015 739.516 L111.015 731.368 L95.4132 731.368 L95.4132 726.854 L109.788 704.956 Z" fill="#000000" fill-rule="nonzero" fill-opacity="1" /><path clip-path="url(#clip090)" d="M64.418 466.875 Q60.8069 466.875 58.9782 470.44 Q57.1726 473.981 57.1726 481.111 Q57.1726 488.217 58.9782 491.782 Q60.8069 495.324 64.418 495.324 Q68.0522 495.324 69.8578 491.782 Q71.6865 488.217 71.6865 481.111 Q71.6865 473.981 69.8578 470.44 Q68.0522 466.875 64.418 466.875 M64.418 463.171 Q70.2281 463.171 73.2837 467.778 Q76.3624 472.361 76.3624 481.111 Q76.3624 489.838 73.2837 494.444 Q70.2281 499.028 64.418 499.028 Q58.6078 499.028 55.5291 494.444 Q52.4736 489.838 52.4736 481.111 Q52.4736 472.361 55.5291 467.778 Q58.6078 463.171 64.418 463.171 Z" fill="#000000" fill-rule="nonzero" fill-opacity="1" /><path clip-path="url(#clip090)" d="M84.5799 492.477 L89.4641 492.477 L89.4641 498.356 L84.5799 498.356 L84.5799 492.477 Z" fill="#000000" fill-rule="nonzero" fill-opacity="1" /><path clip-path="url(#clip090)" d="M99.6956 463.796 L118.052 463.796 L118.052 467.731 L103.978 467.731 L103.978 476.204 Q104.996 475.856 106.015 475.694 Q107.033 475.509 108.052 475.509 Q113.839 475.509 117.219 478.68 Q120.598 481.852 120.598 487.268 Q120.598 492.847 117.126 495.949 Q113.654 499.028 107.334 499.028 Q105.159 499.028 102.89 498.657 Q100.645 498.287 98.2372 497.546 L98.2372 492.847 Q100.321 493.981 102.543 494.537 Q104.765 495.092 107.242 495.092 Q111.246 495.092 113.584 492.986 Q115.922 490.879 115.922 487.268 Q115.922 483.657 113.584 481.551 Q111.246 479.444 107.242 479.444 Q105.367 479.444 103.492 479.861 Q101.64 480.278 99.6956 481.157 L99.6956 463.796 Z" fill="#000000" fill-rule="nonzero" fill-opacity="1" /><path clip-path="url(#clip090)" d="M63.2606 225.715 Q59.6495 225.715 57.8208 229.28 Q56.0152 232.822 56.0152 239.951 Q56.0152 247.058 57.8208 250.622 Q59.6495 254.164 63.2606 254.164 Q66.8948 254.164 68.7004 250.622 Q70.5291 247.058 70.5291 239.951 Q70.5291 232.822 68.7004 229.28 Q66.8948 225.715 63.2606 225.715 M63.2606 222.011 Q69.0707 222.011 72.1263 226.618 Q75.205 231.201 75.205 239.951 Q75.205 248.678 72.1263 253.284 Q69.0707 257.868 63.2606 257.868 Q57.4504 257.868 54.3717 253.284 Q51.3162 248.678 51.3162 239.951 Q51.3162 231.201 54.3717 226.618 Q57.4504 222.011 63.2606 222.011 Z" fill="#000000" fill-rule="nonzero" fill-opacity="1" /><path clip-path="url(#clip090)" d="M83.4225 251.317 L88.3067 251.317 L88.3067 257.196 L83.4225 257.196 L83.4225 251.317 Z" fill="#000000" fill-rule="nonzero" fill-opacity="1" /><path clip-path="url(#clip090)" d="M109.071 238.053 Q105.922 238.053 104.071 240.206 Q102.242 242.359 102.242 246.109 Q102.242 249.835 104.071 252.011 Q105.922 254.164 109.071 254.164 Q112.219 254.164 114.047 252.011 Q115.899 249.835 115.899 246.109 Q115.899 242.359 114.047 240.206 Q112.219 238.053 109.071 238.053 M118.353 223.4 L118.353 227.66 Q116.594 226.826 114.788 226.386 Q113.006 225.947 111.246 225.947 Q106.617 225.947 104.163 229.072 Q101.733 232.197 101.385 238.516 Q102.751 236.502 104.811 235.437 Q106.871 234.349 109.348 234.349 Q114.557 234.349 117.566 237.521 Q120.598 240.669 120.598 246.109 Q120.598 251.433 117.45 254.65 Q114.302 257.868 109.071 257.868 Q103.075 257.868 99.9039 253.284 Q96.7326 248.678 96.7326 239.951 Q96.7326 231.757 100.621 226.896 Q104.51 222.011 111.061 222.011 Q112.82 222.011 114.603 222.359 Q116.408 222.706 118.353 223.4 Z" fill="#000000" fill-rule="nonzero" fill-opacity="1" /><polyline clip-path="url(#clip092)" style="stroke:#009af9; stroke-linecap:round; stroke-linejoin:round; stroke-width:4; stroke-opacity:1; fill:none" points="218.754,1445.72 239.681,1179.58 260.609,929.275 281.537,721.143 302.465,557.653 323.392,433.148 344.32,340.079 365.248,271.327 386.176,220.934 407.103,184.193 428.031,157.504 448.959,138.167 469.887,124.181 490.814,114.078 511.742,106.788 532.67,101.53 553.598,97.7398 574.525,95.0085 595.453,93.0408 616.381,91.6234 637.309,90.6026 658.236,89.8674 679.164,89.338 700.092,88.9567 721.02,88.6822 741.947,88.4846 762.875,88.3423 783.803,88.2398 804.731,88.166 825.658,88.1129 846.586,88.0746 867.514,88.0471 888.442,88.0273 909.369,88.013 930.297,88.0027 951.225,87.9953 972.152,87.99 993.08,87.9861 1014.01,87.9834 1034.94,87.9814 1055.86,87.98 1076.79,87.9789 1097.72,87.9782 1118.65,87.9777 1139.57,87.9773 1160.5,87.977 1181.43,87.9768 1202.36,87.9766 1223.29,87.9765 1244.21,87.9765 1265.14,87.9764 1286.07,87.9764 1307,87.9763 1327.92,87.9763 1348.85,87.9763 1369.78,87.9763 1390.71,87.9763 1411.64,87.9763 1432.56,87.9763 1453.49,87.9763 1474.42,87.9763 1495.35,87.9763 1516.27,87.9763 1537.2,87.9763 1558.13,87.9763 1579.06,87.9763 1599.98,87.9763 1620.91,87.9763 1641.84,87.9763 1662.77,87.9763 1683.7,87.9763 1704.62,87.9763 1725.55,87.9763 1746.48,87.9763 1767.41,87.9763 1788.33,87.9763 1809.26,87.9763 1830.19,87.9763 1851.12,87.9763 1872.05,87.9763 1892.97,87.9763 1913.9,87.9763 1934.83,87.9763 1955.76,87.9763 1976.68,87.9763 1997.61,87.9763 2018.54,87.9763 2039.47,87.9763 2060.4,87.9763 2081.32,87.9763 2102.25,87.9763 2123.18,87.9763 2144.11,87.9763 2165.03,87.9763 2185.96,87.9763 2206.89,87.9763 2227.82,87.9763 2248.75,87.9763 2269.67,87.9763 2290.6,87.9763 "/>
<polyline clip-path="url(#clip092)" style="stroke:#e26f46; stroke-linecap:round; stroke-linejoin:round; stroke-width:4; stroke-opacity:1; fill:none" points="218.754,1445.72 239.681,1184.6 260.609,941.097 281.537,740.111 302.465,583.33 323.392,464.738 344.32,376.67 365.248,312.029 386.176,264.948 407.103,230.835 428.031,206.206 448.959,188.469 469.887,175.718 490.814,166.562 511.742,159.994 532.67,155.285 553.598,151.91 574.525,149.492 595.453,147.76 616.381,146.52 637.309,145.632 658.236,144.997 679.164,144.541 700.092,144.216 721.02,143.982 741.947,143.815 762.875,143.696 783.803,143.61 804.731,143.549 825.658,143.505 846.586,143.474 867.514,143.451 888.442,143.435 909.369,143.424 930.297,143.415 951.225,143.409 972.152,143.405 993.08,143.402 1014.01,143.4 1034.94,143.398 1055.86,143.397 1076.79,143.397 1097.72,143.396 1118.65,143.396 1139.57,143.395 1160.5,143.395 1181.43,143.395 1202.36,143.395 1223.29,143.395 1244.21,143.395 1265.14,143.395 1286.07,143.395 1307,143.395 1327.92,143.395 1348.85,143.395 1369.78,143.395 1390.71,143.395 1411.64,143.395 1432.56,143.395 1453.49,143.395 1474.42,143.395 1495.35,143.395 1516.27,143.395 1537.2,143.395 1558.13,143.395 1579.06,143.395 1599.98,143.395 1620.91,143.395 1641.84,143.395 1662.77,143.395 1683.7,143.395 1704.62,143.395 1725.55,143.395 1746.48,143.395 1767.41,143.395 1788.33,143.395 1809.26,143.395 1830.19,143.395 1851.12,143.395 1872.05,143.395 1892.97,143.395 1913.9,143.395 1934.83,143.395 1955.76,143.395 1976.68,143.395 1997.61,143.395 2018.54,143.395 2039.47,143.395 2060.4,143.395 2081.32,143.395 2102.25,143.395 2123.18,143.395 2144.11,143.395 2165.03,143.395 2185.96,143.395 2206.89,143.395 2227.82,143.395 2248.75,143.395 2269.67,143.395 2290.6,143.395 "/>
<polyline clip-path="url(#clip092)" style="stroke:#3da44d; stroke-linecap:round; stroke-linejoin:round; stroke-width:4; stroke-opacity:1; fill:none" points="218.754,1445.72 239.681,1225.7 260.609,1034.92 281.537,887.031 302.465,778.269 323.392,700.528 344.32,645.887 365.248,607.882 386.176,581.622 407.103,563.558 428.031,551.168 448.959,542.685 469.887,536.886 490.814,532.924 511.742,530.22 532.67,528.374 553.598,527.115 574.525,526.256 595.453,525.671 616.381,525.271 637.309,524.999 658.236,524.813 679.164,524.686 700.092,524.6 721.02,524.541 741.947,524.501 762.875,524.474 783.803,524.455 804.731,524.442 825.658,524.434 846.586,524.428 867.514,524.424 888.442,524.421 909.369,524.419 930.297,524.418 951.225,524.417 972.152,524.416 993.08,524.416 1014.01,524.416 1034.94,524.415 1055.86,524.415 1076.79,524.415 1097.72,524.415 1118.65,524.415 1139.57,524.415 1160.5,524.415 1181.43,524.415 1202.36,524.415 1223.29,524.415 1244.21,524.415 1265.14,524.415 1286.07,524.415 1307,524.415 1327.92,524.415 1348.85,524.415 1369.78,524.415 1390.71,524.415 1411.64,524.415 1432.56,524.415 1453.49,524.415 1474.42,524.415 1495.35,524.415 1516.27,524.415 1537.2,524.415 1558.13,524.415 1579.06,524.415 1599.98,524.415 1620.91,524.415 1641.84,524.415 1662.77,524.415 1683.7,524.415 1704.62,524.415 1725.55,524.415 1746.48,524.415 1767.41,524.415 1788.33,524.415 1809.26,524.415 1830.19,524.415 1851.12,524.415 1872.05,524.415 1892.97,524.415 1913.9,524.415 1934.83,524.415 1955.76,524.415 1976.68,524.415 1997.61,524.415 2018.54,524.415 2039.47,524.415 2060.4,524.415 2081.32,524.415 2102.25,524.415 2123.18,524.415 2144.11,524.415 2165.03,524.415 2185.96,524.415 2206.89,524.415 2227.82,524.415 2248.75,524.415 2269.67,524.415 2290.6,524.415 "/>
<path clip-path="url(#clip090)" d="M1889.98 1438.47 L2279.55 1438.47 L2279.55 1231.11 L1889.98 1231.11  Z" fill="#ffffff" fill-rule="evenodd" fill-opacity="1"/>
<polyline clip-path="url(#clip090)" style="stroke:#000000; stroke-linecap:round; stroke-linejoin:round; stroke-width:4; stroke-opacity:1; fill:none" points="1889.98,1438.47 2279.55,1438.47 2279.55,1231.11 1889.98,1231.11 1889.98,1438.47 "/>
<polyline clip-path="url(#clip090)" style="stroke:#009af9; stroke-linecap:round; stroke-linejoin:round; stroke-width:4; stroke-opacity:1; fill:none" points="1914.38,1282.95 2060.79,1282.95 "/>
<path clip-path="url(#clip090)" d="M2104.11 1286.97 Q2104.11 1282.34 2102.19 1279.79 Q2100.29 1277.25 2096.84 1277.25 Q2093.41 1277.25 2091.49 1279.79 Q2089.59 1282.34 2089.59 1286.97 Q2089.59 1291.58 2091.49 1294.12 Q2093.41 1296.67 2096.84 1296.67 Q2100.29 1296.67 2102.19 1294.12 Q2104.11 1291.58 2104.11 1286.97 M2108.37 1297.02 Q2108.37 1303.64 2105.43 1306.85 Q2102.49 1310.1 2096.42 1310.1 Q2094.18 1310.1 2092.19 1309.75 Q2090.2 1309.42 2088.32 1308.73 L2088.32 1304.59 Q2090.2 1305.6 2092.02 1306.09 Q2093.85 1306.58 2095.75 1306.58 Q2099.94 1306.58 2102.02 1304.38 Q2104.11 1302.2 2104.11 1297.78 L2104.11 1295.67 Q2102.79 1297.97 2100.73 1299.1 Q2098.67 1300.23 2095.8 1300.23 Q2091.03 1300.23 2088.11 1296.6 Q2085.2 1292.97 2085.2 1286.97 Q2085.2 1280.95 2088.11 1277.32 Q2091.03 1273.68 2095.8 1273.68 Q2098.67 1273.68 2100.73 1274.82 Q2102.79 1275.95 2104.11 1278.24 L2104.11 1274.31 L2108.37 1274.31 L2108.37 1297.02 Z" fill="#000000" fill-rule="nonzero" fill-opacity="1" /><path clip-path="url(#clip090)" d="M2117.7 1278.71 L2147.37 1278.71 L2147.37 1282.6 L2117.7 1282.6 L2117.7 1278.71 M2117.7 1288.15 L2147.37 1288.15 L2147.37 1292.09 L2117.7 1292.09 L2117.7 1288.15 Z" fill="#000000" fill-rule="nonzero" fill-opacity="1" /><path clip-path="url(#clip090)" d="M2167.46 1268.75 Q2163.85 1268.75 2162.02 1272.32 Q2160.22 1275.86 2160.22 1282.99 Q2160.22 1290.1 2162.02 1293.66 Q2163.85 1297.2 2167.46 1297.2 Q2171.1 1297.2 2172.9 1293.66 Q2174.73 1290.1 2174.73 1282.99 Q2174.73 1275.86 2172.9 1272.32 Q2171.1 1268.75 2167.46 1268.75 M2167.46 1265.05 Q2173.27 1265.05 2176.33 1269.66 Q2179.41 1274.24 2179.41 1282.99 Q2179.41 1291.72 2176.33 1296.32 Q2173.27 1300.91 2167.46 1300.91 Q2161.65 1300.91 2158.58 1296.32 Q2155.52 1291.72 2155.52 1282.99 Q2155.52 1274.24 2158.58 1269.66 Q2161.65 1265.05 2167.46 1265.05 Z" fill="#000000" fill-rule="nonzero" fill-opacity="1" /><path clip-path="url(#clip090)" d="M2217.02 1285.03 Q2215.01 1285.03 2213.85 1286.74 Q2212.72 1288.45 2212.72 1291.51 Q2212.72 1294.52 2213.85 1296.25 Q2215.01 1297.97 2217.02 1297.97 Q2218.99 1297.97 2220.13 1296.25 Q2221.28 1294.52 2221.28 1291.51 Q2221.28 1288.48 2220.13 1286.76 Q2218.99 1285.03 2217.02 1285.03 M2217.02 1282.09 Q2220.68 1282.09 2222.83 1284.63 Q2224.99 1287.18 2224.99 1291.51 Q2224.99 1295.84 2222.81 1298.38 Q2220.66 1300.91 2217.02 1300.91 Q2213.32 1300.91 2211.17 1298.38 Q2209.01 1295.84 2209.01 1291.51 Q2209.01 1287.16 2211.17 1284.63 Q2213.34 1282.09 2217.02 1282.09 M2193.14 1267.99 Q2191.14 1267.99 2189.99 1269.73 Q2188.85 1271.44 2188.85 1274.45 Q2188.85 1277.5 2189.99 1279.22 Q2191.12 1280.93 2193.14 1280.93 Q2195.15 1280.93 2196.28 1279.22 Q2197.44 1277.5 2197.44 1274.45 Q2197.44 1271.46 2196.28 1269.73 Q2195.13 1267.99 2193.14 1267.99 M2214.04 1265.05 L2217.74 1265.05 L2196.12 1300.91 L2192.42 1300.91 L2214.04 1265.05 M2193.14 1265.05 Q2196.79 1265.05 2198.97 1267.6 Q2201.14 1270.12 2201.14 1274.45 Q2201.14 1278.82 2198.97 1281.35 Q2196.82 1283.87 2193.14 1283.87 Q2189.45 1283.87 2187.3 1281.35 Q2185.17 1278.8 2185.17 1274.45 Q2185.17 1270.14 2187.33 1267.6 Q2189.48 1265.05 2193.14 1265.05 Z" fill="#000000" fill-rule="nonzero" fill-opacity="1" /><polyline clip-path="url(#clip090)" style="stroke:#e26f46; stroke-linecap:round; stroke-linejoin:round; stroke-width:4; stroke-opacity:1; fill:none" points="1914.38,1334.79 2060.79,1334.79 "/>
<path clip-path="url(#clip090)" d="M2104.11 1338.81 Q2104.11 1334.18 2102.19 1331.63 Q2100.29 1329.09 2096.84 1329.09 Q2093.41 1329.09 2091.49 1331.63 Q2089.59 1334.18 2089.59 1338.81 Q2089.59 1343.42 2091.49 1345.96 Q2093.41 1348.51 2096.84 1348.51 Q2100.29 1348.51 2102.19 1345.96 Q2104.11 1343.42 2104.11 1338.81 M2108.37 1348.86 Q2108.37 1355.48 2105.43 1358.69 Q2102.49 1361.94 2096.42 1361.94 Q2094.18 1361.94 2092.19 1361.59 Q2090.2 1361.26 2088.32 1360.57 L2088.32 1356.43 Q2090.2 1357.44 2092.02 1357.93 Q2093.85 1358.42 2095.75 1358.42 Q2099.94 1358.42 2102.02 1356.22 Q2104.11 1354.04 2104.11 1349.62 L2104.11 1347.51 Q2102.79 1349.81 2100.73 1350.94 Q2098.67 1352.07 2095.8 1352.07 Q2091.03 1352.07 2088.11 1348.44 Q2085.2 1344.81 2085.2 1338.81 Q2085.2 1332.79 2088.11 1329.16 Q2091.03 1325.52 2095.8 1325.52 Q2098.67 1325.52 2100.73 1326.66 Q2102.79 1327.79 2104.11 1330.08 L2104.11 1326.15 L2108.37 1326.15 L2108.37 1348.86 Z" fill="#000000" fill-rule="nonzero" fill-opacity="1" /><path clip-path="url(#clip090)" d="M2117.7 1330.55 L2147.37 1330.55 L2147.37 1334.44 L2117.7 1334.44 L2117.7 1330.55 M2117.7 1339.99 L2147.37 1339.99 L2147.37 1343.93 L2117.7 1343.93 L2117.7 1339.99 Z" fill="#000000" fill-rule="nonzero" fill-opacity="1" /><path clip-path="url(#clip090)" d="M2157.51 1317.51 L2175.87 1317.51 L2175.87 1321.45 L2161.79 1321.45 L2161.79 1329.92 Q2162.81 1329.57 2163.83 1329.41 Q2164.85 1329.23 2165.87 1329.23 Q2171.65 1329.23 2175.03 1332.4 Q2178.41 1335.57 2178.41 1340.99 Q2178.41 1346.57 2174.94 1349.67 Q2171.47 1352.75 2165.15 1352.75 Q2162.97 1352.75 2160.7 1352.38 Q2158.46 1352 2156.05 1351.26 L2156.05 1346.57 Q2158.14 1347.7 2160.36 1348.25 Q2162.58 1348.81 2165.06 1348.81 Q2169.06 1348.81 2171.4 1346.7 Q2173.74 1344.6 2173.74 1340.99 Q2173.74 1337.38 2171.4 1335.27 Q2169.06 1333.16 2165.06 1333.16 Q2163.18 1333.16 2161.31 1333.58 Q2159.45 1334 2157.51 1334.88 L2157.51 1317.51 Z" fill="#000000" fill-rule="nonzero" fill-opacity="1" /><path clip-path="url(#clip090)" d="M2217.02 1336.87 Q2215.01 1336.87 2213.85 1338.58 Q2212.72 1340.29 2212.72 1343.35 Q2212.72 1346.36 2213.85 1348.09 Q2215.01 1349.81 2217.02 1349.81 Q2218.99 1349.81 2220.13 1348.09 Q2221.28 1346.36 2221.28 1343.35 Q2221.28 1340.32 2220.13 1338.6 Q2218.99 1336.87 2217.02 1336.87 M2217.02 1333.93 Q2220.68 1333.93 2222.83 1336.47 Q2224.99 1339.02 2224.99 1343.35 Q2224.99 1347.68 2222.81 1350.22 Q2220.66 1352.75 2217.02 1352.75 Q2213.32 1352.75 2211.17 1350.22 Q2209.01 1347.68 2209.01 1343.35 Q2209.01 1339 2211.17 1336.47 Q2213.34 1333.93 2217.02 1333.93 M2193.14 1319.83 Q2191.14 1319.83 2189.99 1321.57 Q2188.85 1323.28 2188.85 1326.29 Q2188.85 1329.34 2189.99 1331.06 Q2191.12 1332.77 2193.14 1332.77 Q2195.15 1332.77 2196.28 1331.06 Q2197.44 1329.34 2197.44 1326.29 Q2197.44 1323.3 2196.28 1321.57 Q2195.13 1319.83 2193.14 1319.83 M2214.04 1316.89 L2217.74 1316.89 L2196.12 1352.75 L2192.42 1352.75 L2214.04 1316.89 M2193.14 1316.89 Q2196.79 1316.89 2198.97 1319.44 Q2201.14 1321.96 2201.14 1326.29 Q2201.14 1330.66 2198.97 1333.19 Q2196.82 1335.71 2193.14 1335.71 Q2189.45 1335.71 2187.3 1333.19 Q2185.17 1330.64 2185.17 1326.29 Q2185.17 1321.98 2187.33 1319.44 Q2189.48 1316.89 2193.14 1316.89 Z" fill="#000000" fill-rule="nonzero" fill-opacity="1" /><polyline clip-path="url(#clip090)" style="stroke:#3da44d; stroke-linecap:round; stroke-linejoin:round; stroke-width:4; stroke-opacity:1; fill:none" points="1914.38,1386.63 2060.79,1386.63 "/>
<path clip-path="url(#clip090)" d="M2104.11 1390.65 Q2104.11 1386.02 2102.19 1383.47 Q2100.29 1380.93 2096.84 1380.93 Q2093.41 1380.93 2091.49 1383.47 Q2089.59 1386.02 2089.59 1390.65 Q2089.59 1395.26 2091.49 1397.8 Q2093.41 1400.35 2096.84 1400.35 Q2100.29 1400.35 2102.19 1397.8 Q2104.11 1395.26 2104.11 1390.65 M2108.37 1400.7 Q2108.37 1407.32 2105.43 1410.53 Q2102.49 1413.78 2096.42 1413.78 Q2094.18 1413.78 2092.19 1413.43 Q2090.2 1413.1 2088.32 1412.41 L2088.32 1408.27 Q2090.2 1409.28 2092.02 1409.77 Q2093.85 1410.26 2095.75 1410.26 Q2099.94 1410.26 2102.02 1408.06 Q2104.11 1405.88 2104.11 1401.46 L2104.11 1399.35 Q2102.79 1401.65 2100.73 1402.78 Q2098.67 1403.91 2095.8 1403.91 Q2091.03 1403.91 2088.11 1400.28 Q2085.2 1396.65 2085.2 1390.65 Q2085.2 1384.63 2088.11 1381 Q2091.03 1377.36 2095.8 1377.36 Q2098.67 1377.36 2100.73 1378.5 Q2102.79 1379.63 2104.11 1381.92 L2104.11 1377.99 L2108.37 1377.99 L2108.37 1400.7 Z" fill="#000000" fill-rule="nonzero" fill-opacity="1" /><path clip-path="url(#clip090)" d="M2117.7 1382.39 L2147.37 1382.39 L2147.37 1386.28 L2117.7 1386.28 L2117.7 1382.39 M2117.7 1391.83 L2147.37 1391.83 L2147.37 1395.77 L2117.7 1395.77 L2117.7 1391.83 Z" fill="#000000" fill-rule="nonzero" fill-opacity="1" /><path clip-path="url(#clip090)" d="M2158.27 1399.98 L2165.91 1399.98 L2165.91 1373.61 L2157.6 1375.28 L2157.6 1371.02 L2165.87 1369.35 L2170.54 1369.35 L2170.54 1399.98 L2178.18 1399.98 L2178.18 1403.91 L2158.27 1403.91 L2158.27 1399.98 Z" fill="#000000" fill-rule="nonzero" fill-opacity="1" /><path clip-path="url(#clip090)" d="M2197.63 1372.43 Q2194.01 1372.43 2192.19 1376 Q2190.38 1379.54 2190.38 1386.67 Q2190.38 1393.78 2192.19 1397.34 Q2194.01 1400.88 2197.63 1400.88 Q2201.26 1400.88 2203.07 1397.34 Q2204.89 1393.78 2204.89 1386.67 Q2204.89 1379.54 2203.07 1376 Q2201.26 1372.43 2197.63 1372.43 M2197.63 1368.73 Q2203.44 1368.73 2206.49 1373.34 Q2209.57 1377.92 2209.57 1386.67 Q2209.57 1395.4 2206.49 1400 Q2203.44 1404.59 2197.63 1404.59 Q2191.82 1404.59 2188.74 1400 Q2185.68 1395.4 2185.68 1386.67 Q2185.68 1377.92 2188.74 1373.34 Q2191.82 1368.73 2197.63 1368.73 Z" fill="#000000" fill-rule="nonzero" fill-opacity="1" /><path clip-path="url(#clip090)" d="M2247.19 1388.71 Q2245.17 1388.71 2244.01 1390.42 Q2242.88 1392.13 2242.88 1395.19 Q2242.88 1398.2 2244.01 1399.93 Q2245.17 1401.65 2247.19 1401.65 Q2249.15 1401.65 2250.29 1399.93 Q2251.45 1398.2 2251.45 1395.19 Q2251.45 1392.16 2250.29 1390.44 Q2249.15 1388.71 2247.19 1388.71 M2247.19 1385.77 Q2250.84 1385.77 2253 1388.31 Q2255.15 1390.86 2255.15 1395.19 Q2255.15 1399.52 2252.97 1402.06 Q2250.82 1404.59 2247.19 1404.59 Q2243.48 1404.59 2241.33 1402.06 Q2239.18 1399.52 2239.18 1395.19 Q2239.18 1390.84 2241.33 1388.31 Q2243.51 1385.77 2247.19 1385.77 M2223.3 1371.67 Q2221.31 1371.67 2220.15 1373.41 Q2219.01 1375.12 2219.01 1378.13 Q2219.01 1381.18 2220.15 1382.9 Q2221.28 1384.61 2223.3 1384.61 Q2225.31 1384.61 2226.45 1382.9 Q2227.6 1381.18 2227.6 1378.13 Q2227.6 1375.14 2226.45 1373.41 Q2225.29 1371.67 2223.3 1371.67 M2244.2 1368.73 L2247.9 1368.73 L2226.28 1404.59 L2222.58 1404.59 L2244.2 1368.73 M2223.3 1368.73 Q2226.95 1368.73 2229.13 1371.28 Q2231.31 1373.8 2231.31 1378.13 Q2231.31 1382.5 2229.13 1385.03 Q2226.98 1387.55 2223.3 1387.55 Q2219.62 1387.55 2217.46 1385.03 Q2215.33 1382.48 2215.33 1378.13 Q2215.33 1373.82 2217.49 1371.28 Q2219.64 1368.73 2223.3 1368.73 Z" fill="#000000" fill-rule="nonzero" fill-opacity="1" /></svg>