<?xml version="1.0" encoding="utf-8"?>
<svg xmlns="http://www.w3.org/2000/svg" xmlns:xlink="http://www.w3.org/1999/xlink" width="800" height="400" viewBox="0 0 3200 1600">
<defs>
  <clipPath id="clip170">
    <rect x="0" y="0" width="3200" height="1600"/>
  </clipPath>
</defs>
<path clip-path="url(#clip170)" d="M0 1600 L3200 1600 L3200 0 L0 0  Z" fill="#ffffff" fill-rule="evenodd" fill-opacity="1"/>
<defs>
  <clipPath id="clip171">
    <rect x="640" y="0" width="2241" height="1600"/>
  </clipPath>
</defs>
<path clip-path="url(#clip170)" d="M164.02 1495.09 L1556.17 1495.09 L1556.17 47.2441 L164.02 47.2441  Z" fill="#ffffff" fill-rule="evenodd" fill-opacity="1"/>
<defs>
  <clipPath id="clip172">
    <rect x="164" y="47" width="1393" height="1449"/>
  </clipPath>
</defs>
<polyline clip-path="url(#clip172)" style="stroke:#000000; stroke-linecap:round; stroke-linejoin:round; stroke-width:2; stroke-opacity:0.1; fill:none" points="190.287,1495.09 190.287,47.2441 "/>
<polyline clip-path="url(#clip172)" style="stroke:#000000; stroke-linecap:round; stroke-linejoin:round; stroke-width:2; stroke-opacity:0.1; fill:none" points="518.624,1495.09 518.624,47.2441 "/>
<polyline clip-path="url(#clip172)" style="stroke:#000000; stroke-linecap:round; stroke-linejoin:round; stroke-width:2; stroke-opacity:0.1; fill:none" points="846.961,1495.09 846.961,47.2441 "/>
<polyline clip-path="url(#clip172)" style="stroke:#000000; stroke-linecap:round; stroke-linejoin:round; stroke-width:2; stroke-opacity:0.1; fill:none" points="1175.3,1495.09 1175.3,47.2441 "/>
<polyline clip-path="url(#clip172)" style="stroke:#000000; stroke-linecap:round; stroke-linejoin:round; stroke-width:2; stroke-opacity:0.1; fill:none" points="1503.64,1495.09 1503.64,47.2441 "/>
<polyline clip-path="url(#clip170)" style="stroke:#000000; stroke-linecap:round; stroke-linejoin:round; stroke-width:4; stroke-opacity:1; fill:none" points="164.02,1495.09 1556.17,1495.09 "/>
<polyline clip-path="url(#clip170)" style="stroke:#000000; stroke-linecap:round; stroke-linejoin:round; stroke-width:4; stroke-opacity:1; fill:none" points="190.287,1495.09 190.287,1476.19 "/>
<polyline clip-path="url(#clip170)" style="stroke:#000000; stroke-linecap:round; stroke-linejoin:round; stroke-width:4; stroke-opacity:1; fill:none" points="518.624,1495.09 518.624,1476.19 "/>
<polyline clip-path="url(#clip170)" style="stroke:#000000; stroke-linecap:round; stroke-linejoin:round; stroke-width:4; stroke-opacity:1; fill:none" points="846.961,1495.09 846.961,1476.19 "/>
<polyline clip-path="url(#clip170)" style="stroke:#000000; stroke-linecap:round; stroke-linejoin:round; stroke-width:4; stroke-opacity:1; fill:none" points="1175.3,1495.09 1175.3,1476.19 "/>
<polyline clip-path="url(#clip170)" style="stroke:#000000; stroke-linecap:round; stroke-linejoin:round; stroke-width:4; stroke-opacity:1; fill:none" points="1503.64,1495.09 1503.64,1476.19 "/>
<path clip-path="url(#clip170)" d="M190.287 1532.41 Q186.675 1532.41 184.847 1535.97 Q183.041 1539.51 183.041 1546.64 Q183.041 1553.75 184.847 1557.31 Q186.675 1560.86 190.287 1560.86 Q193.921 1560.86 195.726 1557.31 Q197.555 1553.75 197.555 1546.64 Q197.555 1539.51 195.726 1535.97 Q193.921 1532.41 190.287 1532.41 M190.287 1528.7 Q196.097 1528.7 199.152 1533.31 Q202.231 1537.89 202.231 1546.64 Q202.231 1555.37 199.152 1559.98 Q196.097 1564.56 190.287 1564.56 Q184.476 1564.56 181.398 1559.98 Q178.342 1555.37 178.342 1546.64 Q178.342 1537.89 181.398 1533.31 Q184.476 1528.7 190.287 1528.7 Z" fill="#000000" fill-rule="nonzero" fill-opacity="1" /><path clip-path="url(#clip170)" d="M497.895 1559.95 L514.214 1559.95 L514.214 1563.89 L492.27 1563.89 L492.27 1559.95 Q494.932 1557.2 499.515 1552.57 Q504.122 1547.92 505.302 1546.57 Q507.548 1544.05 508.427 1542.31 Q509.33 1540.55 509.33 1538.86 Q509.33 1536.11 507.386 1534.37 Q505.464 1532.64 502.362 1532.64 Q500.163 1532.64 497.71 1533.4 Q495.279 1534.17 492.501 1535.72 L492.501 1530.99 Q495.325 1529.86 497.779 1529.28 Q500.233 1528.7 502.27 1528.7 Q507.64 1528.7 510.835 1531.39 Q514.029 1534.07 514.029 1538.56 Q514.029 1540.69 513.219 1542.61 Q512.432 1544.51 510.325 1547.11 Q509.747 1547.78 506.645 1550.99 Q503.543 1554.19 497.895 1559.95 Z" fill="#000000" fill-rule="nonzero" fill-opacity="1" /><path clip-path="url(#clip170)" d="M524.075 1529.33 L542.432 1529.33 L542.432 1533.26 L528.358 1533.26 L528.358 1541.74 Q529.376 1541.39 530.395 1541.23 Q531.413 1541.04 532.432 1541.04 Q538.219 1541.04 541.598 1544.21 Q544.978 1547.38 544.978 1552.8 Q544.978 1558.38 541.506 1561.48 Q538.034 1564.56 531.714 1564.56 Q529.538 1564.56 527.27 1564.19 Q525.024 1563.82 522.617 1563.08 L522.617 1558.38 Q524.7 1559.51 526.923 1560.07 Q529.145 1560.62 531.622 1560.62 Q535.626 1560.62 537.964 1558.52 Q540.302 1556.41 540.302 1552.8 Q540.302 1549.19 537.964 1547.08 Q535.626 1544.98 531.622 1544.98 Q529.747 1544.98 527.872 1545.39 Q526.02 1545.81 524.075 1546.69 L524.075 1529.33 Z" fill="#000000" fill-rule="nonzero" fill-opacity="1" /><path clip-path="url(#clip170)" d="M821.661 1529.33 L840.017 1529.33 L840.017 1533.26 L825.943 1533.26 L825.943 1541.74 Q826.961 1541.39 827.98 1541.23 Q828.999 1541.04 830.017 1541.04 Q835.804 1541.04 839.184 1544.21 Q842.563 1547.38 842.563 1552.8 Q842.563 1558.38 839.091 1561.48 Q835.619 1564.56 829.299 1564.56 Q827.124 1564.56 824.855 1564.19 Q822.61 1563.82 820.202 1563.08 L820.202 1558.38 Q822.286 1559.51 824.508 1560.07 Q826.73 1560.62 829.207 1560.62 Q833.211 1560.62 835.549 1558.52 Q837.887 1556.41 837.887 1552.8 Q837.887 1549.19 835.549 1547.08 Q833.211 1544.98 829.207 1544.98 Q827.332 1544.98 825.457 1545.39 Q823.605 1545.81 821.661 1546.69 L821.661 1529.33 Z" fill="#000000" fill-rule="nonzero" fill-opacity="1" /><path clip-path="url(#clip170)" d="M861.776 1532.41 Q858.165 1532.41 856.336 1535.97 Q854.531 1539.51 854.531 1546.64 Q854.531 1553.75 856.336 1557.31 Q858.165 1560.86 861.776 1560.86 Q865.41 1560.86 867.216 1557.31 Q869.045 1553.75 869.045 1546.64 Q869.045 1539.51 867.216 1535.97 Q865.41 1532.41 861.776 1532.41 M861.776 1528.7 Q867.586 1528.7 870.642 1533.31 Q873.721 1537.89 873.721 1546.64 Q873.721 1555.37 870.642 1559.98 Q867.586 1564.56 861.776 1564.56 Q855.966 1564.56 852.887 1559.98 Q849.832 1555.37 849.832 1546.64 Q849.832 1537.89 852.887 1533.31 Q855.966 1528.7 861.776 1528.7 Z" fill="#000000" fill-rule="nonzero" fill-opacity="1" /><path clip-path="url(#clip170)" d="M1149.15 1529.33 L1171.38 1529.33 L1171.38 1531.32 L1158.83 1563.89 L1153.94 1563.89 L1165.75 1533.26 L1149.15 1533.26 L1149.15 1529.33 Z" fill="#000000" fill-rule="nonzero" fill-opacity="1" /><path clip-path="url(#clip170)" d="M1180.54 1529.33 L1198.9 1529.33 L1198.9 1533.26 L1184.82 1533.26 L1184.82 1541.74 Q1185.84 1541.39 1186.86 1541.23 Q1187.88 1541.04 1188.9 1541.04 Q1194.69 1541.04 1198.06 1544.21 Q1201.44 1547.38 1201.44 1552.8 Q1201.44 1558.38 1197.97 1561.48 Q1194.5 1564.56 1188.18 1564.56 Q1186 1564.56 1183.74 1564.19 Q1181.49 1563.82 1179.08 1563.08 L1179.08 1558.38 Q1181.17 1559.51 1183.39 1560.07 Q1185.61 1560.62 1188.09 1560.62 Q1192.09 1560.62 1194.43 1558.52 Q1196.77 1556.41 1196.77 1552.8 Q1196.77 1549.19 1194.43 1547.08 Q1192.09 1544.98 1188.09 1544.98 Q1186.21 1544.98 1184.34 1545.39 Q1182.49 1545.81 1180.54 1546.69 L1180.54 1529.33 Z" fill="#000000" fill-rule="nonzero" fill-opacity="1" /><path clip-path="url(#clip170)" d="M1463.24 1559.95 L1470.88 1559.95 L1470.88 1533.59 L1462.57 1535.25 L1462.57 1530.99 L1470.84 1529.33 L1475.51 1529.33 L1475.51 1559.95 L1483.15 1559.95 L1483.15 1563.89 L1463.24 1563.89 L1463.24 1559.95 Z" fill="#000000" fill-rule="nonzero" fill-opacity="1" /><path clip-path="url(#clip170)" d="M1502.59 1532.41 Q1498.98 1532.41 1497.15 1535.97 Q1495.35 1539.51 1495.35 1546.64 Q1495.35 1553.75 1497.15 1557.31 Q1498.98 1560.86 1502.59 1560.86 Q1506.23 1560.86 1508.03 1557.31 Q1509.86 1553.75 1509.86 1546.64 Q1509.86 1539.51 1508.03 1535.97 Q1506.23 1532.41 1502.59 1532.41 M1502.59 1528.7 Q1508.4 1528.7 1511.46 1533.31 Q1514.54 1537.89 1514.54 1546.64 Q1514.54 1555.37 1511.46 1559.98 Q1508.4 1564.56 1502.59 1564.56 Q1496.78 1564.56 1493.71 1559.98 Q1490.65 1555.37 1490.65 1546.64 Q1490.65 1537.89 1493.71 1533.31 Q1496.78 1528.7 1502.59 1528.7 Z" fill="#000000" fill-rule="nonzero" fill-opacity="1" /><path clip-path="url(#clip170)" d="M1532.76 1532.41 Q1529.15 1532.41 1527.32 1535.97 Q1525.51 1539.51 1525.51 1546.64 Q1525.51 1553.75 1527.32 1557.31 Q1529.15 1560.86 1532.76 1560.86 Q1536.39 1560.86 1538.2 1557.31 Q1540.02 1553.75 1540.02 1546.64 Q1540.02 1539.51 1538.2 1535.97 Q1536.39 1532.41 1532.76 1532.41 M1532.76 1528.7 Q1538.57 1528.7 1541.62 1533.31 Q1544.7 1537.89 1544.7 1546.64 Q1544.7 1555.37 1541.62 1559.98 Q1538.57 1564.56 1532.76 1564.56 Q1526.95 1564.56 1523.87 1559.98 Q1520.81 1555.37 1520.81 1546.64 Q1520.81 1537.89 1523.87 1533.31 Q1526.95 1528.7 1532.76 1528.7 Z" fill="#000000" fill-rule="nonzero" fill-opacity="1" /><polyline clip-path="url(#clip172)" style="stroke:#000000; stroke-linecap:round; stroke-linejoin:round; stroke-width:2; stroke-opacity:0.1; fill:none" points="164.02,1445.21 1556.17,1445.21 "/>
<polyline clip-path="url(#clip172)" style="stroke:#000000; stroke-linecap:round; stroke-linejoin:round; stroke-width:2; stroke-opacity:0.1; fill:none" points="164.02,1166.67 1556.17,1166.67 "/>
<polyline clip-path="url(#clip172)" style="stroke:#000000; stroke-linecap:round; stroke-linejoin:round; stroke-width:2; stroke-opacity:0.1; fill:none" points="164.02,888.132 1556.17,888.132 "/>
<polyline clip-path="url(#clip172)" style="stroke:#000000; stroke-linecap:round; stroke-linejoin:round; stroke-width:2; stroke-opacity:0.1; fill:none" points="164.02,609.591 1556.17,609.591 "/>
<polyline clip-path="url(#clip172)" style="stroke:#000000; stroke-linecap:round; stroke-linejoin:round; stroke-width:2; stroke-opacity:0.1; fill:none" points="164.02,331.05 1556.17,331.05 "/>
<polyline clip-path="url(#clip172)" style="stroke:#000000; stroke-linecap:round; stroke-linejoin:round; stroke-width:2; stroke-opacity:0.1; fill:none" points="164.02,52.5093 1556.17,52.5093 "/>
<polyline clip-path="url(#clip170)" style="stroke:#000000; stroke-linecap:round; stroke-linejoin:round; stroke-width:4; stroke-opacity:1; fill:none" points="164.02,1495.09 164.02,47.2441 "/>
<polyline clip-path="url(#clip170)" style="stroke:#000000; stroke-linecap:round; stroke-linejoin:round; stroke-width:4; stroke-opacity:1; fill:none" points="164.02,1445.21 182.917,1445.21 "/>
<polyline clip-path="url(#clip170)" style="stroke:#000000; stroke-linecap:round; stroke-linejoin:round; stroke-width:4; stroke-opacity:1; fill:none" points="164.02,1166.67 182.917,1166.67 "/>
<polyline clip-path="url(#clip170)" style="stroke:#000000; stroke-linecap:round; stroke-linejoin:round; stroke-width:4; stroke-opacity:1; fill:none" points="164.02,888.132 182.917,888.132 "/>
<polyline clip-path="url(#clip170)" style="stroke:#000000; stroke-linecap:round; stroke-linejoin:round; stroke-width:4; stroke-opacity:1; fill:none" points="164.02,609.591 182.917,609.591 "/>
<polyline clip-path="url(#clip170)" style="stroke:#000000; stroke-linecap:round; stroke-linejoin:round; stroke-width:4; stroke-opacity:1; fill:none" points="164.02,331.05 182.917,331.05 "/>
<polyline clip-path="url(#clip170)" style="stroke:#000000; stroke-linecap:round; stroke-linejoin:round; stroke-width:4; stroke-opacity:1; fill:none" points="164.02,52.5093 182.917,52.5093 "/>
<path clip-path="url(#clip170)" d="M59.7467 1431.01 Q56.1356 1431.01 54.3069 1434.58 Q52.5014 1438.12 52.5014 1445.25 Q52.5014 1452.35 54.3069 1455.92 Q56.1356 1459.46 59.7467 1459.46 Q63.3809 1459.46 65.1865 1455.92 Q67.0152 1452.35 67.0152 1445.25 Q67.0152 1438.12 65.1865 1434.58 Q63.3809 1431.01 59.7467 1431.01 M59.7467 1427.31 Q65.5568 1427.31 68.6124 1431.91 Q71.6911 1436.5 71.6911 1445.25 Q71.6911 1453.97 68.6124 1458.58 Q65.5568 1463.16 59.7467 1463.16 Q53.9365 1463.16 50.8578 1458.58 Q47.8023 1453.97 47.8023 1445.25 Q47.8023 1436.5 50.8578 1431.91 Q53.9365 1427.31 59.7467 1427.31 Z" fill="#000000" fill-rule="nonzero" fill-opacity="1" /><path clip-path="url(#clip170)" d="M79.9086 1456.61 L84.7928 1456.61 L84.7928 1462.49 L79.9086 1462.49 L79.9086 1456.61 Z" fill="#000000" fill-rule="nonzero" fill-opacity="1" /><path clip-path="url(#clip170)" d="M93.7974 1427.93 L116.02 1427.93 L116.02 1429.92 L103.473 1462.49 L98.5891 1462.49 L110.395 1431.87 L93.7974 1431.87 L93.7974 1427.93 Z" fill="#000000" fill-rule="nonzero" fill-opacity="1" /><path clip-path="url(#clip170)" d="M58.9365 1152.47 Q55.3254 1152.47 53.4967 1156.04 Q51.6912 1159.58 51.6912 1166.71 Q51.6912 1173.81 53.4967 1177.38 Q55.3254 1180.92 58.9365 1180.92 Q62.5707 1180.92 64.3763 1177.38 Q66.205 1173.81 66.205 1166.71 Q66.205 1159.58 64.3763 1156.04 Q62.5707 1152.47 58.9365 1152.47 M58.9365 1148.77 Q64.7467 1148.77 67.8022 1153.37 Q70.8809 1157.96 70.8809 1166.71 Q70.8809 1175.43 67.8022 1180.04 Q64.7467 1184.62 58.9365 1184.62 Q53.1264 1184.62 50.0477 1180.04 Q46.9921 1175.43 46.9921 1166.71 Q46.9921 1157.96 50.0477 1153.37 Q53.1264 1148.77 58.9365 1148.77 Z" fill="#000000" fill-rule="nonzero" fill-opacity="1" /><path clip-path="url(#clip170)" d="M79.0984 1178.07 L83.9827 1178.07 L83.9827 1183.95 L79.0984 1183.95 L79.0984 1178.07 Z" fill="#000000" fill-rule="nonzero" fill-opacity="1" /><path clip-path="url(#clip170)" d="M104.168 1167.54 Q100.834 1167.54 98.9131 1169.32 Q97.015 1171.11 97.015 1174.23 Q97.015 1177.36 98.9131 1179.14 Q100.834 1180.92 104.168 1180.92 Q107.501 1180.92 109.422 1179.14 Q111.344 1177.33 111.344 1174.23 Q111.344 1171.11 109.422 1169.32 Q107.524 1167.54 104.168 1167.54 M99.4918 1165.55 Q96.4826 1164.81 94.7928 1162.75 Q93.1261 1160.69 93.1261 1157.73 Q93.1261 1153.58 96.0659 1151.17 Q99.0289 1148.77 104.168 1148.77 Q109.33 1148.77 112.27 1151.17 Q115.209 1153.58 115.209 1157.73 Q115.209 1160.69 113.52 1162.75 Q111.853 1164.81 108.867 1165.55 Q112.246 1166.34 114.121 1168.63 Q116.02 1170.92 116.02 1174.23 Q116.02 1179.25 112.941 1181.94 Q109.885 1184.62 104.168 1184.62 Q98.4502 1184.62 95.3715 1181.94 Q92.316 1179.25 92.316 1174.23 Q92.316 1170.92 94.2141 1168.63 Q96.1122 1166.34 99.4918 1165.55 M97.7789 1158.17 Q97.7789 1160.85 99.4455 1162.36 Q101.135 1163.86 104.168 1163.86 Q107.177 1163.86 108.867 1162.36 Q110.58 1160.85 110.58 1158.17 Q110.58 1155.48 108.867 1153.98 Q107.177 1152.47 104.168 1152.47 Q101.135 1152.47 99.4455 1153.98 Q97.7789 1155.48 97.7789 1158.17 Z" fill="#000000" fill-rule="nonzero" fill-opacity="1" /><path clip-path="url(#clip170)" d="M59.0291 873.93 Q55.418 873.93 53.5893 877.495 Q51.7838 881.037 51.7838 888.166 Q51.7838 895.273 53.5893 898.838 Q55.418 902.379 59.0291 902.379 Q62.6633 902.379 64.4689 898.838 Q66.2976 895.273 66.2976 888.166 Q66.2976 881.037 64.4689 877.495 Q62.6633 873.93 59.0291 873.93 M59.0291 870.227 Q64.8393 870.227 67.8948 874.833 Q70.9735 879.416 70.9735 888.166 Q70.9735 896.893 67.8948 901.5 Q64.8393 906.083 59.0291 906.083 Q53.2189 906.083 50.1403 901.5 Q47.0847 896.893 47.0847 888.166 Q47.0847 879.416 50.1403 874.833 Q53.2189 870.227 59.0291 870.227 Z" fill="#000000" fill-rule="nonzero" fill-opacity="1" /><path clip-path="url(#clip170)" d="M79.191 899.532 L84.0753 899.532 L84.0753 905.412 L79.191 905.412 L79.191 899.532 Z" fill="#000000" fill-rule="nonzero" fill-opacity="1" /><path clip-path="url(#clip170)" d="M94.3993 904.694 L94.3993 900.435 Q96.1585 901.268 97.9641 901.708 Q99.7696 902.148 101.506 902.148 Q106.135 902.148 108.566 899.046 Q111.02 895.921 111.367 889.578 Q110.024 891.569 107.964 892.634 Q105.904 893.699 103.404 893.699 Q98.2187 893.699 95.1863 890.574 Q92.1771 887.426 92.1771 881.986 Q92.1771 876.662 95.3252 873.444 Q98.4733 870.227 103.705 870.227 Q109.7 870.227 112.848 874.833 Q116.02 879.416 116.02 888.166 Q116.02 896.338 112.131 901.222 Q108.265 906.083 101.714 906.083 Q99.9548 906.083 98.1493 905.736 Q96.3437 905.388 94.3993 904.694 M103.705 890.041 Q106.853 890.041 108.682 887.889 Q110.533 885.736 110.533 881.986 Q110.533 878.259 108.682 876.106 Q106.853 873.93 103.705 873.93 Q100.557 873.93 98.7048 876.106 Q96.8761 878.259 96.8761 881.986 Q96.8761 885.736 98.7048 887.889 Q100.557 890.041 103.705 890.041 Z" fill="#000000" fill-rule="nonzero" fill-opacity="1" /><path clip-path="url(#clip170)" d="M49.6541 622.936 L57.293 622.936 L57.293 596.57 L48.9829 598.237 L48.9829 593.977 L57.2467 592.311 L61.9226 592.311 L61.9226 622.936 L69.5614 622.936 L69.5614 626.871 L49.6541 626.871 L49.6541 622.936 Z" fill="#000000" fill-rule="nonzero" fill-opacity="1" /><path clip-path="url(#clip170)" d="M79.0058 620.991 L83.8901 620.991 L83.8901 626.871 L79.0058 626.871 L79.0058 620.991 Z" fill="#000000" fill-rule="nonzero" fill-opacity="1" /><path clip-path="url(#clip170)" d="M104.075 595.39 Q100.464 595.39 98.6354 598.954 Q96.8298 602.496 96.8298 609.626 Q96.8298 616.732 98.6354 620.297 Q100.464 623.838 104.075 623.838 Q107.709 623.838 109.515 620.297 Q111.344 616.732 111.344 609.626 Q111.344 602.496 109.515 598.954 Q107.709 595.39 104.075 595.39 M104.075 591.686 Q109.885 591.686 112.941 596.292 Q116.02 600.876 116.02 609.626 Q116.02 618.352 112.941 622.959 Q109.885 627.542 104.075 627.542 Q98.265 627.542 95.1863 622.959 Q92.1308 618.352 92.1308 609.626 Q92.1308 600.876 95.1863 596.292 Q98.265 591.686 104.075 591.686 Z" fill="#000000" fill-rule="nonzero" fill-opacity="1" /><path clip-path="url(#clip170)" d="M50.881 344.395 L58.5198 344.395 L58.5198 318.029 L50.2097 319.696 L50.2097 315.437 L58.4735 313.77 L63.1494 313.77 L63.1494 344.395 L70.7883 344.395 L70.7883 348.33 L50.881 348.33 L50.881 344.395 Z" fill="#000000" fill-rule="nonzero" fill-opacity="1" /><path clip-path="url(#clip170)" d="M80.2327 342.45 L85.1169 342.45 L85.1169 348.33 L80.2327 348.33 L80.2327 342.45 Z" fill="#000000" fill-rule="nonzero" fill-opacity="1" /><path clip-path="url(#clip170)" d="M96.1122 344.395 L103.751 344.395 L103.751 318.029 L95.4409 319.696 L95.4409 315.437 L103.705 313.77 L108.381 313.77 L108.381 344.395 L116.02 344.395 L116.02 348.33 L96.1122 348.33 L96.1122 344.395 Z" fill="#000000" fill-rule="nonzero" fill-opacity="1" /><path clip-path="url(#clip170)" d="M51.2514 65.8542 L58.8902 65.8542 L58.8902 39.4886 L50.5801 41.1552 L50.5801 36.896 L58.8439 35.2293 L63.5198 35.2293 L63.5198 65.8542 L71.1587 65.8542 L71.1587 69.7893 L51.2514 69.7893 L51.2514 65.8542 Z" fill="#000000" fill-rule="nonzero" fill-opacity="1" /><path clip-path="url(#clip170)" d="M80.6031 63.9097 L85.4873 63.9097 L85.4873 69.7893 L80.6031 69.7893 L80.6031 63.9097 Z" fill="#000000" fill-rule="nonzero" fill-opacity="1" /><path clip-path="url(#clip170)" d="M99.7002 65.8542 L116.02 65.8542 L116.02 69.7893 L94.0752 69.7893 L94.0752 65.8542 Q96.7372 63.0996 101.321 58.47 Q105.927 53.8172 107.108 52.4746 Q109.353 49.9515 110.233 48.2154 Q111.135 46.4561 111.135 44.7663 Q111.135 42.0117 109.191 40.2756 Q107.27 38.5395 104.168 38.5395 Q101.969 38.5395 99.515 39.3034 Q97.0845 40.0673 94.3067 41.6182 L94.3067 36.896 Q97.1307 35.7617 99.5844 35.183 Q102.038 34.6043 104.075 34.6043 Q109.445 34.6043 112.64 37.2895 Q115.834 39.9747 115.834 44.4654 Q115.834 46.595 115.024 48.5163 Q114.237 50.4144 112.131 53.007 Q111.552 53.6783 108.45 56.8959 Q105.348 60.0903 99.7002 65.8542 Z" fill="#000000" fill-rule="nonzero" fill-opacity="1" /><polyline clip-path="url(#clip172)" style="stroke:#009af9; stroke-linecap:round; stroke-linejoin:round; stroke-width:4; stroke-opacity:1; fill:none" points="203.42,88.2208 216.554,105.793 229.687,123.273 242.821,140.659 255.954,157.953 269.088,175.155 282.221,192.266 295.355,209.285 308.488,226.215 321.622,243.054 334.755,259.804 347.888,276.464 361.022,293.037 374.155,309.521 387.289,325.918 400.422,342.227 413.556,358.45 426.689,374.586 439.823,390.637 452.956,406.603 466.09,422.483 479.223,438.28 492.357,453.992 505.49,469.621 518.624,485.167 531.757,500.63 544.891,516.011 558.024,531.31 571.158,546.528 584.291,561.665 597.425,576.722 610.558,591.699 623.692,606.596 636.825,621.414 649.959,636.153 663.092,650.814 676.226,665.397 689.359,679.902 702.493,694.33 715.626,708.682 728.76,722.957 741.893,737.157 755.027,751.281 768.16,765.33 781.294,779.304 794.427,793.205 807.561,807.031 820.694,820.784 833.828,834.463 846.961,848.07 860.095,861.605 873.228,875.068 886.362,888.459 899.495,901.779 912.629,915.028 925.762,928.207 938.896,941.316 952.029,954.355 965.163,967.325 978.296,980.226 991.43,993.058 1004.56,1005.82 1017.7,1018.52 1030.83,1031.15 1043.96,1043.71 1057.1,1056.2 1070.23,1068.63 1083.36,1081 1096.5,1093.29 1109.63,1105.52 1122.76,1117.69 1135.9,1129.79 1149.03,1141.83 1162.17,1153.8 1175.3,1165.71 1188.43,1177.56 1201.57,1189.34 1214.7,1201.07 1227.83,1212.72 1240.97,1224.32 1254.1,1235.86 1267.23,1247.33 1280.37,1258.74 1293.5,1270.1 1306.63,1281.39 1319.77,1292.62 1332.9,1303.79 1346.03,1314.9 1359.17,1325.96 1372.3,1336.95 1385.43,1347.89 1398.57,1358.77 1411.7,1369.59 1424.84,1380.35 1437.97,1391.06 1451.1,1401.71 1464.24,1412.3 1477.37,1422.84 1490.5,1433.32 1503.64,1443.74 1516.77,1454.11 "/>
<path clip-path="url(#clip170)" d="M1329.65 199.186 L1509.77 199.186 L1509.77 95.5056 L1329.65 95.5056  Z" fill="#ffffff" fill-rule="evenodd" fill-opacity="1"/>
<polyline clip-path="url(#clip170)" style="stroke:#000000; stroke-linecap:round; stroke-linejoin:round; stroke-width:4; stroke-opacity:1; fill:none" points="1329.65,199.186 1509.77,199.186 1509.77,95.5056 1329.65,95.5056 1329.65,199.186 "/>
<polyline clip-path="url(#clip170)" style="stroke:#009af9; stroke-linecap:round; stroke-linejoin:round; stroke-width:4; stroke-opacity:1; fill:none" points="1345.12,147.346 1437.93,147.346 "/>
<path clip-path="url(#clip170)" d="M1473.9 139.695 L1473.9 143.677 Q1472.1 142.681 1470.27 142.195 Q1468.46 141.686 1466.61 141.686 Q1462.47 141.686 1460.18 144.325 Q1457.89 146.94 1457.89 151.686 Q1457.89 156.431 1460.18 159.07 Q1462.47 161.686 1466.61 161.686 Q1468.46 161.686 1470.27 161.2 Q1472.1 160.69 1473.9 159.695 L1473.9 163.63 Q1472.12 164.464 1470.2 164.88 Q1468.3 165.297 1466.15 165.297 Q1460.29 165.297 1456.84 161.616 Q1453.39 157.936 1453.39 151.686 Q1453.39 145.343 1456.87 141.709 Q1460.36 138.075 1466.43 138.075 Q1468.39 138.075 1470.27 138.491 Q1472.14 138.885 1473.9 139.695 Z" fill="#000000" fill-rule="nonzero" fill-opacity="1" /><path clip-path="url(#clip170)" d="M1485.52 131.339 L1485.52 138.7 L1494.3 138.7 L1494.3 142.01 L1485.52 142.01 L1485.52 156.084 Q1485.52 159.255 1486.38 160.158 Q1487.26 161.061 1489.92 161.061 L1494.3 161.061 L1494.3 164.626 L1489.92 164.626 Q1484.99 164.626 1483.12 162.797 Q1481.24 160.945 1481.24 156.084 L1481.24 142.01 L1478.12 142.01 L1478.12 138.7 L1481.24 138.7 L1481.24 131.339 L1485.52 131.339 Z" fill="#000000" fill-rule="nonzero" fill-opacity="1" /><path clip-path="url(#clip170)" d="M1760.61 1495.09 L3152.76 1495.09 L3152.76 47.2441 L1760.61 47.2441  Z" fill="#ffffff" fill-rule="evenodd" fill-opacity="1"/>
<defs>
  <clipPath id="clip173">
    <rect x="1760" y="47" width="1393" height="1449"/>
  </clipPath>
</defs>
<polyline clip-path="url(#clip173)" style="stroke:#000000; stroke-linecap:round; stroke-linejoin:round; stroke-width:2; stroke-opacity:0.1; fill:none" points="1786.87,1495.09 1786.87,47.2441 "/>
<polyline clip-path="url(#clip173)" style="stroke:#000000; stroke-linecap:round; stroke-linejoin:round; stroke-width:2; stroke-opacity:0.1; fill:none" points="2115.21,1495.09 2115.21,47.2441 "/>
<polyline clip-path="url(#clip173)" style="stroke:#000000; stroke-linecap:round; stroke-linejoin:round; stroke-width:2; stroke-opacity:0.1; fill:none" points="2443.55,1495.09 2443.55,47.2441 "/>
<polyline clip-path="url(#clip173)" style="stroke:#000000; stroke-linecap:round; stroke-linejoin:round; stroke-width:2; stroke-opacity:0.1; fill:none" points="2771.88,1495.09 2771.88,47.2441 "/>
<polyline clip-path="url(#clip173)" style="stroke:#000000; stroke-linecap:round; stroke-linejoin:round; stroke-width:2; stroke-opacity:0.1; fill:none" points="3100.22,1495.09 3100.22,47.2441 "/>
<polyline clip-path="url(#clip170)" style="stroke:#000000; stroke-linecap:round; stroke-linejoin:round; stroke-width:4; stroke-opacity:1; fill:none" points="1760.61,1495.09 3152.76,1495.09 "/>
<polyline clip-path="url(#clip170)" style="stroke:#000000; stroke-linecap:round; stroke-linejoin:round; stroke-width:4; stroke-opacity:1; fill:none" points="1786.87,1495.09 1786.87,1476.19 "/>
<polyline clip-path="url(#clip170)" style="stroke:#000000; stroke-linecap:round; stroke-linejoin:round; stroke-width:4; stroke-opacity:1; fill:none" points="2115.21,1495.09 2115.21,1476.19 "/>
<polyline clip-path="url(#clip170)" style="stroke:#000000; stroke-linecap:round; stroke-linejoin:round; stroke-width:4; stroke-opacity:1; fill:none" points="2443.55,1495.09 2443.55,1476.19 "/>
<polyline clip-path="url(#clip170)" style="stroke:#000000; stroke-linecap:round; stroke-linejoin:round; stroke-width:4; stroke-opacity:1; fill:none" points="2771.88,1495.09 2771.88,1476.19 "/>
<polyline clip-path="url(#clip170)" style="stroke:#000000; stroke-linecap:round; stroke-linejoin:round; stroke-width:4; stroke-opacity:1; fill:none" points="3100.22,1495.09 3100.22,1476.19 "/>
<path clip-path="url(#clip170)" d="M1786.87 1532.41 Q1783.26 1532.41 1781.43 1535.97 Q1779.63 1539.51 1779.63 1546.64 Q1779.63 1553.75 1781.43 1557.31 Q1783.26 1560.86 1786.87 1560.86 Q1790.51 1560.86 1792.31 1557.31 Q1794.14 1553.75 1794.14 1546.64 Q1794.14 1539.51 1792.31 1535.97 Q1790.51 1532.41 1786.87 1532.41 M1786.87 1528.7 Q1792.68 1528.7 1795.74 1533.31 Q1798.82 1537.89 1798.82 1546.64 Q1798.82 1555.37 1795.74 1559.98 Q1792.68 1564.56 1786.87 1564.56 Q1781.06 1564.56 1777.98 1559.98 Q1774.93 1555.37 1774.93 1546.64 Q1774.93 1537.89 1777.98 1533.31 Q1781.06 1528.7 1786.87 1528.7 Z" fill="#000000" fill-rule="nonzero" fill-opacity="1" /><path clip-path="url(#clip170)" d="M2094.48 1559.95 L2110.8 1559.95 L2110.8 1563.89 L2088.86 1563.89 L2088.86 1559.95 Q2091.52 1557.2 2096.1 1552.57 Q2100.71 1547.92 2101.89 1546.57 Q2104.13 1544.05 2105.01 1542.31 Q2105.92 1540.55 2105.92 1538.86 Q2105.92 1536.11 2103.97 1534.37 Q2102.05 1532.64 2098.95 1532.64 Q2096.75 1532.64 2094.3 1533.4 Q2091.86 1534.17 2089.09 1535.72 L2089.09 1530.99 Q2091.91 1529.86 2094.36 1529.28 Q2096.82 1528.7 2098.86 1528.7 Q2104.23 1528.7 2107.42 1531.39 Q2110.61 1534.07 2110.61 1538.56 Q2110.61 1540.69 2109.8 1542.61 Q2109.02 1544.51 2106.91 1547.11 Q2106.33 1547.78 2103.23 1550.99 Q2100.13 1554.19 2094.48 1559.95 Z" fill="#000000" fill-rule="nonzero" fill-opacity="1" /><path clip-path="url(#clip170)" d="M2120.66 1529.33 L2139.02 1529.33 L2139.02 1533.26 L2124.94 1533.26 L2124.94 1541.74 Q2125.96 1541.39 2126.98 1541.23 Q2128 1541.04 2129.02 1541.04 Q2134.8 1541.04 2138.18 1544.21 Q2141.56 1547.38 2141.56 1552.8 Q2141.56 1558.38 2138.09 1561.48 Q2134.62 1564.56 2128.3 1564.56 Q2126.12 1564.56 2123.86 1564.19 Q2121.61 1563.82 2119.2 1563.08 L2119.2 1558.38 Q2121.29 1559.51 2123.51 1560.07 Q2125.73 1560.62 2128.21 1560.62 Q2132.21 1560.62 2134.55 1558.52 Q2136.89 1556.41 2136.89 1552.8 Q2136.89 1549.19 2134.55 1547.08 Q2132.21 1544.98 2128.21 1544.98 Q2126.33 1544.98 2124.46 1545.39 Q2122.61 1545.81 2120.66 1546.69 L2120.66 1529.33 Z" fill="#000000" fill-rule="nonzero" fill-opacity="1" /><path clip-path="url(#clip170)" d="M2418.25 1529.33 L2436.6 1529.33 L2436.6 1533.26 L2422.53 1533.26 L2422.53 1541.74 Q2423.55 1541.39 2424.57 1541.23 Q2425.58 1541.04 2426.6 1541.04 Q2432.39 1541.04 2435.77 1544.21 Q2439.15 1547.38 2439.15 1552.8 Q2439.15 1558.38 2435.68 1561.48 Q2432.2 1564.56 2425.89 1564.56 Q2423.71 1564.56 2421.44 1564.19 Q2419.2 1563.82 2416.79 1563.08 L2416.79 1558.38 Q2418.87 1559.51 2421.09 1560.07 Q2423.32 1560.62 2425.79 1560.62 Q2429.8 1560.62 2432.14 1558.52 Q2434.47 1556.41 2434.47 1552.8 Q2434.47 1549.19 2432.14 1547.08 Q2429.8 1544.98 2425.79 1544.98 Q2423.92 1544.98 2422.04 1545.39 Q2420.19 1545.81 2418.25 1546.69 L2418.25 1529.33 Z" fill="#000000" fill-rule="nonzero" fill-opacity="1" /><path clip-path="url(#clip170)" d="M2458.36 1532.41 Q2454.75 1532.41 2452.92 1535.97 Q2451.12 1539.51 2451.12 1546.64 Q2451.12 1553.75 2452.92 1557.31 Q2454.75 1560.86 2458.36 1560.86 Q2462 1560.86 2463.8 1557.31 Q2465.63 1553.75 2465.63 1546.64 Q2465.63 1539.51 2463.8 1535.97 Q2462 1532.41 2458.36 1532.41 M2458.36 1528.7 Q2464.17 1528.7 2467.23 1533.31 Q2470.31 1537.89 2470.31 1546.64 Q2470.31 1555.37 2467.23 1559.98 Q2464.17 1564.56 2458.36 1564.56 Q2452.55 1564.56 2449.47 1559.98 Q2446.42 1555.37 2446.42 1546.64 Q2446.42 1537.89 2449.47 1533.31 Q2452.55 1528.7 2458.36 1528.7 Z" fill="#000000" fill-rule="nonzero" fill-opacity="1" /><path clip-path="url(#clip170)" d="M2745.74 1529.33 L2767.96 1529.33 L2767.96 1531.32 L2755.41 1563.89 L2750.53 1563.89 L2762.34 1533.26 L2745.74 1533.26 L2745.74 1529.33 Z" fill="#000000" fill-rule="nonzero" fill-opacity="1" /><path clip-path="url(#clip170)" d="M2777.13 1529.33 L2795.48 1529.33 L2795.48 1533.26 L2781.41 1533.26 L2781.41 1541.74 Q2782.43 1541.39 2783.45 1541.23 Q2784.47 1541.04 2785.48 1541.04 Q2791.27 1541.04 2794.65 1544.21 Q2798.03 1547.38 2798.03 1552.8 Q2798.03 1558.38 2794.56 1561.48 Q2791.09 1564.56 2784.77 1564.56 Q2782.59 1564.56 2780.32 1564.19 Q2778.08 1563.82 2775.67 1563.08 L2775.67 1558.38 Q2777.75 1559.51 2779.97 1560.07 Q2782.2 1560.62 2784.67 1560.62 Q2788.68 1560.62 2791.02 1558.52 Q2793.35 1556.41 2793.35 1552.8 Q2793.35 1549.19 2791.02 1547.08 Q2788.68 1544.98 2784.67 1544.98 Q2782.8 1544.98 2780.92 1545.39 Q2779.07 1545.81 2777.13 1546.69 L2777.13 1529.33 Z" fill="#000000" fill-rule="nonzero" fill-opacity="1" /><path clip-path="url(#clip170)" d="M3059.83 1559.95 L3067.47 1559.95 L3067.47 1533.59 L3059.16 1535.25 L3059.16 1530.99 L3067.42 1529.33 L3072.1 1529.33 L3072.1 1559.95 L3079.74 1559.95 L3079.74 1563.89 L3059.83 1563.89 L3059.83 1559.95 Z" fill="#000000" fill-rule="nonzero" fill-opacity="1" /><path clip-path="url(#clip170)" d="M3099.18 1532.41 Q3095.57 1532.41 3093.74 1535.97 Q3091.93 1539.51 3091.93 1546.64 Q3091.93 1553.75 3093.74 1557.31 Q3095.57 1560.86 3099.18 1560.86 Q3102.81 1560.86 3104.62 1557.31 Q3106.45 1553.75 3106.45 1546.64 Q3106.45 1539.51 3104.62 1535.97 Q3102.81 1532.41 3099.18 1532.41 M3099.18 1528.7 Q3104.99 1528.7 3108.05 1533.31 Q3111.12 1537.89 3111.12 1546.64 Q3111.12 1555.37 3108.05 1559.98 Q3104.99 1564.56 3099.18 1564.56 Q3093.37 1564.56 3090.29 1559.98 Q3087.24 1555.37 3087.24 1546.64 Q3087.24 1537.89 3090.29 1533.31 Q3093.37 1528.7 3099.18 1528.7 Z" fill="#000000" fill-rule="nonzero" fill-opacity="1" /><path clip-path="url(#clip170)" d="M3129.34 1532.41 Q3125.73 1532.41 3123.9 1535.97 Q3122.1 1539.51 3122.1 1546.64 Q3122.1 1553.75 3123.9 1557.31 Q3125.73 1560.86 3129.34 1560.86 Q3132.98 1560.86 3134.78 1557.31 Q3136.61 1553.75 3136.61 1546.64 Q3136.61 1539.51 3134.78 1535.97 Q3132.98 1532.41 3129.34 1532.41 M3129.34 1528.7 Q3135.15 1528.7 3138.21 1533.31 Q3141.29 1537.89 3141.29 1546.64 Q3141.29 1555.37 3138.21 1559.98 Q3135.15 1564.56 3129.34 1564.56 Q3123.53 1564.56 3120.45 1559.98 Q3117.4 1555.37 3117.4 1546.64 Q3117.4 1537.89 3120.45 1533.31 Q3123.53 1528.7 3129.34 1528.7 Z" fill="#000000" fill-rule="nonzero" fill-opacity="1" /><polyline clip-path="url(#clip173)" style="stroke:#000000; stroke-linecap:round; stroke-linejoin:round; stroke-width:2; stroke-opacity:0.1; fill:none" points="1760.61,1266.11 3152.76,1266.11 "/>
<polyline clip-path="url(#clip173)" style="stroke:#000000; stroke-linecap:round; stroke-linejoin:round; stroke-width:2; stroke-opacity:0.1; fill:none" points="1760.61,1030.54 3152.76,1030.54 "/>
<polyline clip-path="url(#clip173)" style="stroke:#000000; stroke-linecap:round; stroke-linejoin:round; stroke-width:2; stroke-opacity:0.1; fill:none" points="1760.61,794.957 3152.76,794.957 "/>
<polyline clip-path="url(#clip173)" style="stroke:#000000; stroke-linecap:round; stroke-linejoin:round; stroke-width:2; stroke-opacity:0.1; fill:none" points="1760.61,559.378 3152.76,559.378 "/>
<polyline clip-path="url(#clip173)" style="stroke:#000000; stroke-linecap:round; stroke-linejoin:round; stroke-width:2; stroke-opacity:0.1; fill:none" points="1760.61,323.799 3152.76,323.799 "/>
<polyline clip-path="url(#clip173)" style="stroke:#000000; stroke-linecap:round; stroke-linejoin:round; stroke-width:2; stroke-opacity:0.1; fill:none" points="1760.61,88.2208 3152.76,88.2208 "/>
<polyline clip-path="url(#clip170)" style="stroke:#000000; stroke-linecap:round; stroke-linejoin:round; stroke-width:4; stroke-opacity:1; fill:none" points="1760.61,1495.09 1760.61,47.2441 "/>
<polyline clip-path="url(#clip170)" style="stroke:#000000; stroke-linecap:round; stroke-linejoin:round; stroke-width:4; stroke-opacity:1; fill:none" points="1760.61,1266.11 1779.5,1266.11 "/>
<polyline clip-path="url(#clip170)" style="stroke:#000000; stroke-linecap:round; stroke-linejoin:round; stroke-width:4; stroke-opacity:1; fill:none" points="1760.61,1030.54 1779.5,1030.54 "/>
<polyline clip-path="url(#clip170)" style="stroke:#000000; stroke-linecap:round; stroke-linejoin:round; stroke-width:4; stroke-opacity:1; fill:none" points="1760.61,794.957 1779.5,794.957 "/>
<polyline clip-path="url(#clip170)" style="stroke:#000000; stroke-linecap:round; stroke-linejoin:round; stroke-width:4; stroke-opacity:1; fill:none" points="1760.61,559.378 1779.5,559.378 "/>
<polyline clip-path="url(#clip170)" style="stroke:#000000; stroke-linecap:round; stroke-linejoin:round; stroke-width:4; stroke-opacity:1; fill:none" points="1760.61,323.799 1779.5,323.799 "/>
<polyline clip-path="url(#clip170)" style="stroke:#000000; stroke-linecap:round; stroke-linejoin:round; stroke-width:4; stroke-opacity:1; fill:none" points="1760.61,88.2208 1779.5,88.2208 "/>
<path clip-path="url(#clip170)" d="M1651.89 1266.57 L1681.56 1266.57 L1681.56 1270.5 L1651.89 1270.5 L1651.89 1266.57 Z" fill="#000000" fill-rule="nonzero" fill-opacity="1" /><path clip-path="url(#clip170)" d="M1691.7 1248.83 L1710.06 1248.83 L1710.06 1252.77 L1695.98 1252.77 L1695.98 1261.24 Q1697 1260.89 1698.02 1260.73 Q1699.04 1260.55 1700.06 1260.55 Q1705.85 1260.55 1709.23 1263.72 Q1712.61 1266.89 1712.61 1272.31 Q1712.61 1277.88 1709.13 1280.99 Q1705.66 1284.07 1699.34 1284.07 Q1697.17 1284.07 1694.9 1283.69 Q1692.65 1283.32 1690.24 1282.58 L1690.24 1277.88 Q1692.33 1279.02 1694.55 1279.57 Q1696.77 1280.13 1699.25 1280.13 Q1703.25 1280.13 1705.59 1278.02 Q1707.93 1275.92 1707.93 1272.31 Q1707.93 1268.69 1705.59 1266.59 Q1703.25 1264.48 1699.25 1264.48 Q1697.37 1264.48 1695.5 1264.9 Q1693.65 1265.32 1691.7 1266.19 L1691.7 1248.83 Z" fill="#000000" fill-rule="nonzero" fill-opacity="1" /><path clip-path="url(#clip170)" d="M1650.41 1030.99 L1680.08 1030.99 L1680.08 1034.92 L1650.41 1034.92 L1650.41 1030.99 Z" fill="#000000" fill-rule="nonzero" fill-opacity="1" /><path clip-path="url(#clip170)" d="M1703.02 1017.33 L1691.22 1035.78 L1703.02 1035.78 L1703.02 1017.33 M1701.8 1013.26 L1707.67 1013.26 L1707.67 1035.78 L1712.61 1035.78 L1712.61 1039.67 L1707.67 1039.67 L1707.67 1047.82 L1703.02 1047.82 L1703.02 1039.67 L1687.42 1039.67 L1687.42 1035.15 L1701.8 1013.26 Z" fill="#000000" fill-rule="nonzero" fill-opacity="1" /><path clip-path="url(#clip170)" d="M1651.54 795.408 L1681.22 795.408 L1681.22 799.343 L1651.54 799.343 L1651.54 795.408 Z" fill="#000000" fill-rule="nonzero" fill-opacity="1" /><path clip-path="url(#clip170)" d="M1705.48 793.602 Q1708.83 794.32 1710.71 796.589 Q1712.61 798.857 1712.61 802.19 Q1712.61 807.306 1709.09 810.107 Q1705.57 812.908 1699.09 812.908 Q1696.91 812.908 1694.6 812.468 Q1692.3 812.051 1689.85 811.195 L1689.85 806.681 Q1691.8 807.815 1694.11 808.394 Q1696.42 808.973 1698.95 808.973 Q1703.35 808.973 1705.64 807.237 Q1707.95 805.5 1707.95 802.19 Q1707.95 799.135 1705.8 797.422 Q1703.67 795.686 1699.85 795.686 L1695.82 795.686 L1695.82 791.843 L1700.04 791.843 Q1703.48 791.843 1705.31 790.477 Q1707.14 789.089 1707.14 786.496 Q1707.14 783.834 1705.24 782.422 Q1703.37 780.987 1699.85 780.987 Q1697.93 780.987 1695.73 781.403 Q1693.53 781.82 1690.89 782.7 L1690.89 778.533 Q1693.55 777.792 1695.87 777.422 Q1698.21 777.052 1700.27 777.052 Q1705.59 777.052 1708.69 779.482 Q1711.8 781.89 1711.8 786.01 Q1711.8 788.88 1710.15 790.871 Q1708.51 792.839 1705.48 793.602 Z" fill="#000000" fill-rule="nonzero" fill-opacity="1" /><path clip-path="url(#clip170)" d="M1652.49 559.829 L1682.17 559.829 L1682.17 563.765 L1652.49 563.765 L1652.49 559.829 Z" fill="#000000" fill-rule="nonzero" fill-opacity="1" /><path clip-path="url(#clip170)" d="M1696.29 572.723 L1712.61 572.723 L1712.61 576.658 L1690.66 576.658 L1690.66 572.723 Q1693.32 569.968 1697.91 565.339 Q1702.51 560.686 1703.69 559.343 Q1705.94 556.82 1706.82 555.084 Q1707.72 553.325 1707.72 551.635 Q1707.72 548.88 1705.78 547.144 Q1703.86 545.408 1700.75 545.408 Q1698.55 545.408 1696.1 546.172 Q1693.67 546.936 1690.89 548.487 L1690.89 543.765 Q1693.72 542.63 1696.17 542.052 Q1698.62 541.473 1700.66 541.473 Q1706.03 541.473 1709.23 544.158 Q1712.42 546.843 1712.42 551.334 Q1712.42 553.464 1711.61 555.385 Q1710.82 557.283 1708.72 559.876 Q1708.14 560.547 1705.04 563.765 Q1701.93 566.959 1696.29 572.723 Z" fill="#000000" fill-rule="nonzero" fill-opacity="1" /><path clip-path="url(#clip170)" d="M1652.12 324.251 L1681.8 324.251 L1681.8 328.186 L1652.12 328.186 L1652.12 324.251 Z" fill="#000000" fill-rule="nonzero" fill-opacity="1" /><path clip-path="url(#clip170)" d="M1692.7 337.144 L1700.34 337.144 L1700.34 310.779 L1692.03 312.445 L1692.03 308.186 L1700.29 306.519 L1704.97 306.519 L1704.97 337.144 L1712.61 337.144 L1712.61 341.079 L1692.7 341.079 L1692.7 337.144 Z" fill="#000000" fill-rule="nonzero" fill-opacity="1" /><path clip-path="url(#clip170)" d="M1700.66 74.0195 Q1697.05 74.0195 1695.22 77.5843 Q1693.42 81.1259 1693.42 88.2555 Q1693.42 95.362 1695.22 98.9268 Q1697.05 102.468 1700.66 102.468 Q1704.3 102.468 1706.1 98.9268 Q1707.93 95.362 1707.93 88.2555 Q1707.93 81.1259 1706.1 77.5843 Q1704.3 74.0195 1700.66 74.0195 M1700.66 70.3158 Q1706.47 70.3158 1709.53 74.9223 Q1712.61 79.5056 1712.61 88.2555 Q1712.61 96.9823 1709.53 101.589 Q1706.47 106.172 1700.66 106.172 Q1694.85 106.172 1691.77 101.589 Q1688.72 96.9823 1688.72 88.2555 Q1688.72 79.5056 1691.77 74.9223 Q1694.85 70.3158 1700.66 70.3158 Z" fill="#000000" fill-rule="nonzero" fill-opacity="1" /><polyline clip-path="url(#clip173)" style="stroke:#009af9; stroke-linecap:round; stroke-linejoin:round; stroke-width:4; stroke-opacity:1; fill:none" points="1800.01,88.2208 1813.14,132.316 1826.27,175.807 1839.41,218.69 1852.54,260.96 1865.67,302.612 1878.81,343.643 1891.94,384.047 1905.07,423.82 1918.21,462.956 1931.34,501.451 1944.47,539.299 1957.61,576.495 1970.74,613.034 1983.87,648.909 1997.01,684.114 2010.14,718.645 2023.28,752.494 2036.41,785.655 2049.54,818.122 2062.68,849.888 2075.81,880.946 2088.94,911.289 2102.08,940.91 2115.21,969.802 2128.34,997.957 2141.48,1025.37 2154.61,1052.02 2167.74,1077.92 2180.88,1103.05 2194.01,1127.4 2207.14,1150.96 2220.28,1173.73 2233.41,1195.69 2246.54,1216.84 2259.68,1237.17 2272.81,1256.66 2285.95,1275.31 2299.08,1293.11 2312.21,1310.04 2325.35,1326.09 2338.48,1341.26 2351.61,1355.53 2364.75,1368.9 2377.88,1381.34 2391.01,1392.85 2404.15,1403.41 2417.28,1413.02 2430.41,1421.65 2443.55,1429.3 2456.68,1435.95 2469.81,1441.59 2482.95,1446.21 2496.08,1449.78 2509.21,1452.3 2522.35,1453.75 2535.48,1454.11 2548.62,1453.37 2561.75,1451.52 2574.88,1448.53 2588.02,1444.39 2601.15,1439.08 2614.28,1432.58 2627.42,1424.89 2640.55,1415.96 2653.68,1405.8 2666.82,1394.38 2679.95,1381.68 2693.08,1367.68 2706.22,1352.36 2719.35,1335.7 2732.48,1317.68 2745.62,1298.27 2758.75,1277.46 2771.88,1255.21 2785.02,1231.52 2798.15,1206.35 2811.28,1179.68 2824.42,1151.48 2837.55,1121.74 2850.69,1090.41 2863.82,1057.49 2876.95,1022.94 2890.09,986.731 2903.22,948.838 2916.35,909.233 2929.49,867.885 2942.62,824.766 2955.75,779.844 2968.89,733.089 2982.02,684.469 2995.15,633.952 3008.29,581.504 3021.42,527.092 3034.55,470.681 3047.69,412.237 3060.82,351.723 3073.95,289.103 3087.09,224.34 3100.22,157.395 3113.36,88.229 "/>
<path clip-path="url(#clip170)" d="M1807.01 1446.83 L2020.04 1446.83 L2020.04 1343.15 L1807.01 1343.15  Z" fill="#ffffff" fill-rule="evenodd" fill-opacity="1"/>
<polyline clip-path="url(#clip170)" style="stroke:#000000; stroke-linecap:round; stroke-linejoin:round; stroke-width:4; stroke-opacity:1; fill:none" points="1807.01,1446.83 2020.04,1446.83 2020.04,1343.15 1807.01,1343.15 1807.01,1446.83 "/>
<polyline clip-path="url(#clip170)" style="stroke:#009af9; stroke-linecap:round; stroke-linejoin:round; stroke-width:4; stroke-opacity:1; fill:none" points="1822.48,1394.99 1915.29,1394.99 "/>
<path clip-path="url(#clip170)" d="M1944.16 1399.23 Q1939 1399.23 1937.01 1400.41 Q1935.02 1401.6 1935.02 1404.44 Q1935.02 1406.71 1936.5 1408.05 Q1938 1409.37 1940.57 1409.37 Q1944.11 1409.37 1946.24 1406.87 Q1948.4 1404.35 1948.4 1400.18 L1948.4 1399.23 L1944.16 1399.23 M1952.65 1397.47 L1952.65 1412.27 L1948.4 1412.27 L1948.4 1408.33 Q1946.94 1410.69 1944.76 1411.83 Q1942.59 1412.94 1939.44 1412.94 Q1935.46 1412.94 1933.09 1410.72 Q1930.76 1408.47 1930.76 1404.72 Q1930.76 1400.35 1933.67 1398.12 Q1936.61 1395.9 1942.42 1395.9 L1948.4 1395.9 L1948.4 1395.48 Q1948.4 1392.54 1946.45 1390.95 Q1944.53 1389.33 1941.03 1389.33 Q1938.81 1389.33 1936.71 1389.86 Q1934.6 1390.39 1932.66 1391.46 L1932.66 1387.52 Q1934.99 1386.62 1937.19 1386.18 Q1939.39 1385.72 1941.47 1385.72 Q1947.1 1385.72 1949.88 1388.63 Q1952.65 1391.55 1952.65 1397.47 Z" fill="#000000" fill-rule="nonzero" fill-opacity="1" /><path clip-path="url(#clip170)" d="M1962.84 1408.33 L1970.48 1408.33 L1970.48 1381.97 L1962.17 1383.63 L1962.17 1379.37 L1970.43 1377.71 L1975.11 1377.71 L1975.11 1408.33 L1982.75 1408.33 L1982.75 1412.27 L1962.84 1412.27 L1962.84 1408.33 Z" fill="#000000" fill-rule="nonzero" fill-opacity="1" /><path clip-path="url(#clip170)" d="M1995.8 1378.98 L1995.8 1386.34 L2004.58 1386.34 L2004.58 1389.65 L1995.8 1389.65 L1995.8 1403.72 Q1995.8 1406.9 1996.66 1407.8 Q1997.54 1408.7 2000.2 1408.7 L2004.58 1408.7 L2004.58 1412.27 L2000.2 1412.27 Q1995.27 1412.27 1993.4 1410.44 Q1991.52 1408.59 1991.52 1403.72 L1991.52 1389.65 L1988.4 1389.65 L1988.4 1386.34 L1991.52 1386.34 L1991.52 1378.98 L1995.8 1378.98 Z" fill="#000000" fill-rule="nonzero" fill-opacity="1" /></svg>