<?xml version="1.0" encoding="utf-8"?>
<svg xmlns="http://www.w3.org/2000/svg" xmlns:xlink="http://www.w3.org/1999/xlink" width="800" height="400" viewBox="0 0 3200 1600">
<defs>
  <clipPath id="clip250">
    <rect x="0" y="0" width="3200" height="1600"/>
  </clipPath>
</defs>
<path clip-path="url(#clip250)" d="M0 1600 L3200 1600 L3200 0 L0 0  Z" fill="#ffffff" fill-rule="evenodd" fill-opacity="1"/>
<defs>
  <clipPath id="clip251">
    <rect x="640" y="0" width="2241" height="1600"/>
  </clipPath>
</defs>
<path clip-path="url(#clip250)" d="M194.274 1495.09 L1575.55 1495.09 L1575.55 47.2441 L194.274 47.2441  Z" fill="#ffffff" fill-rule="evenodd" fill-opacity="1"/>
<defs>
  <clipPath id="clip252">
    <rect x="194" y="47" width="1382" height="1449"/>
  </clipPath>
</defs>
<polyline clip-path="url(#clip252)" style="stroke:#000000; stroke-linecap:round; stroke-linejoin:round; stroke-width:2; stroke-opacity:0.1; fill:none" points="407.111,1495.09 407.111,47.2441 "/>
<polyline clip-path="url(#clip252)" style="stroke:#000000; stroke-linecap:round; stroke-linejoin:round; stroke-width:2; stroke-opacity:0.1; fill:none" points="667.729,1495.09 667.729,47.2441 "/>
<polyline clip-path="url(#clip252)" style="stroke:#000000; stroke-linecap:round; stroke-linejoin:round; stroke-width:2; stroke-opacity:0.1; fill:none" points="928.346,1495.09 928.346,47.2441 "/>
<polyline clip-path="url(#clip252)" style="stroke:#000000; stroke-linecap:round; stroke-linejoin:round; stroke-width:2; stroke-opacity:0.1; fill:none" points="1188.96,1495.09 1188.96,47.2441 "/>
<polyline clip-path="url(#clip252)" style="stroke:#000000; stroke-linecap:round; stroke-linejoin:round; stroke-width:2; stroke-opacity:0.1; fill:none" points="1449.58,1495.09 1449.58,47.2441 "/>
<polyline clip-path="url(#clip250)" style="stroke:#000000; stroke-linecap:round; stroke-linejoin:round; stroke-width:4; stroke-opacity:1; fill:none" points="194.274,1495.09 1575.55,1495.09 "/>
<polyline clip-path="url(#clip250)" style="stroke:#000000; stroke-linecap:round; stroke-linejoin:round; stroke-width:4; stroke-opacity:1; fill:none" points="407.111,1495.09 407.111,1476.19 "/>
<polyline clip-path="url(#clip250)" style="stroke:#000000; stroke-linecap:round; stroke-linejoin:round; stroke-width:4; stroke-opacity:1; fill:none" points="667.729,1495.09 667.729,1476.19 "/>
<polyline clip-path="url(#clip250)" style="stroke:#000000; stroke-linecap:round; stroke-linejoin:round; stroke-width:4; stroke-opacity:1; fill:none" points="928.346,1495.09 928.346,1476.19 "/>
<polyline clip-path="url(#clip250)" style="stroke:#000000; stroke-linecap:round; stroke-linejoin:round; stroke-width:4; stroke-opacity:1; fill:none" points="1188.96,1495.09 1188.96,1476.19 "/>
<polyline clip-path="url(#clip250)" style="stroke:#000000; stroke-linecap:round; stroke-linejoin:round; stroke-width:4; stroke-opacity:1; fill:none" points="1449.58,1495.09 1449.58,1476.19 "/>
<path clip-path="url(#clip250)" d="M411.359 1545.25 Q414.716 1545.97 416.59 1548.24 Q418.489 1550.51 418.489 1553.84 Q418.489 1558.96 414.97 1561.76 Q411.452 1564.56 404.97 1564.56 Q402.794 1564.56 400.479 1564.12 Q398.188 1563.7 395.734 1562.85 L395.734 1558.33 Q397.679 1559.47 399.993 1560.05 Q402.308 1560.62 404.831 1560.62 Q409.229 1560.62 411.521 1558.89 Q413.836 1557.15 413.836 1553.84 Q413.836 1550.79 411.683 1549.07 Q409.553 1547.34 405.734 1547.34 L401.706 1547.34 L401.706 1543.49 L405.919 1543.49 Q409.368 1543.49 411.197 1542.13 Q413.026 1540.74 413.026 1538.15 Q413.026 1535.49 411.128 1534.07 Q409.253 1532.64 405.734 1532.64 Q403.813 1532.64 401.614 1533.05 Q399.415 1533.47 396.776 1534.35 L396.776 1530.18 Q399.438 1529.44 401.753 1529.07 Q404.091 1528.7 406.151 1528.7 Q411.475 1528.7 414.577 1531.13 Q417.678 1533.54 417.678 1537.66 Q417.678 1540.53 416.035 1542.52 Q414.391 1544.49 411.359 1545.25 Z" fill="#000000" fill-rule="nonzero" fill-opacity="1" /><path clip-path="url(#clip250)" d="M668.134 1544.74 Q664.986 1544.74 663.134 1546.9 Q661.305 1549.05 661.305 1552.8 Q661.305 1556.53 663.134 1558.7 Q664.986 1560.86 668.134 1560.86 Q671.282 1560.86 673.11 1558.7 Q674.962 1556.53 674.962 1552.8 Q674.962 1549.05 673.11 1546.9 Q671.282 1544.74 668.134 1544.74 M677.416 1530.09 L677.416 1534.35 Q675.657 1533.52 673.851 1533.08 Q672.069 1532.64 670.31 1532.64 Q665.68 1532.64 663.226 1535.76 Q660.796 1538.89 660.449 1545.21 Q661.814 1543.19 663.874 1542.13 Q665.935 1541.04 668.411 1541.04 Q673.62 1541.04 676.629 1544.21 Q679.661 1547.36 679.661 1552.8 Q679.661 1558.12 676.513 1561.34 Q673.365 1564.56 668.134 1564.56 Q662.138 1564.56 658.967 1559.98 Q655.796 1555.37 655.796 1546.64 Q655.796 1538.45 659.685 1533.59 Q663.574 1528.7 670.124 1528.7 Q671.884 1528.7 673.666 1529.05 Q675.472 1529.4 677.416 1530.09 Z" fill="#000000" fill-rule="nonzero" fill-opacity="1" /><path clip-path="url(#clip250)" d="M918.647 1563.17 L918.647 1558.91 Q920.406 1559.74 922.212 1560.18 Q924.017 1560.62 925.753 1560.62 Q930.383 1560.62 932.813 1557.52 Q935.267 1554.4 935.614 1548.05 Q934.272 1550.05 932.211 1551.11 Q930.151 1552.17 927.651 1552.17 Q922.466 1552.17 919.434 1549.05 Q916.425 1545.9 916.425 1540.46 Q916.425 1535.14 919.573 1531.92 Q922.721 1528.7 927.952 1528.7 Q933.948 1528.7 937.096 1533.31 Q940.267 1537.89 940.267 1546.64 Q940.267 1554.81 936.378 1559.7 Q932.512 1564.56 925.962 1564.56 Q924.202 1564.56 922.397 1564.21 Q920.591 1563.86 918.647 1563.17 M927.952 1548.52 Q931.1 1548.52 932.929 1546.36 Q934.781 1544.21 934.781 1540.46 Q934.781 1536.74 932.929 1534.58 Q931.1 1532.41 927.952 1532.41 Q924.804 1532.41 922.952 1534.58 Q921.124 1536.74 921.124 1540.46 Q921.124 1544.21 922.952 1546.36 Q924.804 1548.52 927.952 1548.52 Z" fill="#000000" fill-rule="nonzero" fill-opacity="1" /><path clip-path="url(#clip250)" d="M1164.45 1559.95 L1172.09 1559.95 L1172.09 1533.59 L1163.78 1535.25 L1163.78 1530.99 L1172.04 1529.33 L1176.72 1529.33 L1176.72 1559.95 L1184.36 1559.95 L1184.36 1563.89 L1164.45 1563.89 L1164.45 1559.95 Z" fill="#000000" fill-rule="nonzero" fill-opacity="1" /><path clip-path="url(#clip250)" d="M1197.83 1559.95 L1214.15 1559.95 L1214.15 1563.89 L1192.2 1563.89 L1192.2 1559.95 Q1194.87 1557.2 1199.45 1552.57 Q1204.06 1547.92 1205.24 1546.57 Q1207.48 1544.05 1208.36 1542.31 Q1209.26 1540.55 1209.26 1538.86 Q1209.26 1536.11 1207.32 1534.37 Q1205.4 1532.64 1202.3 1532.64 Q1200.1 1532.64 1197.64 1533.4 Q1195.21 1534.17 1192.44 1535.72 L1192.44 1530.99 Q1195.26 1529.86 1197.71 1529.28 Q1200.17 1528.7 1202.2 1528.7 Q1207.57 1528.7 1210.77 1531.39 Q1213.96 1534.07 1213.96 1538.56 Q1213.96 1540.69 1213.15 1542.61 Q1212.37 1544.51 1210.26 1547.11 Q1209.68 1547.78 1206.58 1550.99 Q1203.48 1554.19 1197.83 1559.95 Z" fill="#000000" fill-rule="nonzero" fill-opacity="1" /><path clip-path="url(#clip250)" d="M1424.77 1559.95 L1432.4 1559.95 L1432.4 1533.59 L1424.09 1535.25 L1424.09 1530.99 L1432.36 1529.33 L1437.03 1529.33 L1437.03 1559.95 L1444.67 1559.95 L1444.67 1563.89 L1424.77 1563.89 L1424.77 1559.95 Z" fill="#000000" fill-rule="nonzero" fill-opacity="1" /><path clip-path="url(#clip250)" d="M1454.16 1529.33 L1472.52 1529.33 L1472.52 1533.26 L1458.45 1533.26 L1458.45 1541.74 Q1459.46 1541.39 1460.48 1541.23 Q1461.5 1541.04 1462.52 1541.04 Q1468.31 1541.04 1471.69 1544.21 Q1475.07 1547.38 1475.07 1552.8 Q1475.07 1558.38 1471.59 1561.48 Q1468.12 1564.56 1461.8 1564.56 Q1459.63 1564.56 1457.36 1564.19 Q1455.11 1563.82 1452.71 1563.08 L1452.71 1558.38 Q1454.79 1559.51 1457.01 1560.07 Q1459.23 1560.62 1461.71 1560.62 Q1465.71 1560.62 1468.05 1558.52 Q1470.39 1556.41 1470.39 1552.8 Q1470.39 1549.19 1468.05 1547.08 Q1465.71 1544.98 1461.71 1544.98 Q1459.83 1544.98 1457.96 1545.39 Q1456.11 1545.81 1454.16 1546.69 L1454.16 1529.33 Z" fill="#000000" fill-rule="nonzero" fill-opacity="1" /><polyline clip-path="url(#clip252)" style="stroke:#000000; stroke-linecap:round; stroke-linejoin:round; stroke-width:2; stroke-opacity:0.1; fill:none" points="194.274,1454.11 1575.55,1454.11 "/>
<polyline clip-path="url(#clip252)" style="stroke:#000000; stroke-linecap:round; stroke-linejoin:round; stroke-width:2; stroke-opacity:0.1; fill:none" points="194.274,1118.64 1575.55,1118.64 "/>
<polyline clip-path="url(#clip252)" style="stroke:#000000; stroke-linecap:round; stroke-linejoin:round; stroke-width:2; stroke-opacity:0.1; fill:none" points="194.274,783.161 1575.55,783.161 "/>
<polyline clip-path="url(#clip252)" style="stroke:#000000; stroke-linecap:round; stroke-linejoin:round; stroke-width:2; stroke-opacity:0.1; fill:none" points="194.274,447.686 1575.55,447.686 "/>
<polyline clip-path="url(#clip252)" style="stroke:#000000; stroke-linecap:round; stroke-linejoin:round; stroke-width:2; stroke-opacity:0.1; fill:none" points="194.274,112.211 1575.55,112.211 "/>
<polyline clip-path="url(#clip250)" style="stroke:#000000; stroke-linecap:round; stroke-linejoin:round; stroke-width:4; stroke-opacity:1; fill:none" points="194.274,1495.09 194.274,47.2441 "/>
<polyline clip-path="url(#clip250)" style="stroke:#000000; stroke-linecap:round; stroke-linejoin:round; stroke-width:4; stroke-opacity:1; fill:none" points="194.274,1454.11 213.172,1454.11 "/>
<polyline clip-path="url(#clip250)" style="stroke:#000000; stroke-linecap:round; stroke-linejoin:round; stroke-width:4; stroke-opacity:1; fill:none" points="194.274,1118.64 213.172,1118.64 "/>
<polyline clip-path="url(#clip250)" style="stroke:#000000; stroke-linecap:round; stroke-linejoin:round; stroke-width:4; stroke-opacity:1; fill:none" points="194.274,783.161 213.172,783.161 "/>
<polyline clip-path="url(#clip250)" style="stroke:#000000; stroke-linecap:round; stroke-linejoin:round; stroke-width:4; stroke-opacity:1; fill:none" points="194.274,447.686 213.172,447.686 "/>
<polyline clip-path="url(#clip250)" style="stroke:#000000; stroke-linecap:round; stroke-linejoin:round; stroke-width:4; stroke-opacity:1; fill:none" points="194.274,112.211 213.172,112.211 "/>
<path clip-path="url(#clip250)" d="M58.9365 1439.91 Q55.3254 1439.91 53.4967 1443.47 Q51.6912 1447.02 51.6912 1454.15 Q51.6912 1461.25 53.4967 1464.82 Q55.3254 1468.36 58.9365 1468.36 Q62.5707 1468.36 64.3763 1464.82 Q66.205 1461.25 66.205 1454.15 Q66.205 1447.02 64.3763 1443.47 Q62.5707 1439.91 58.9365 1439.91 M58.9365 1436.21 Q64.7467 1436.21 67.8022 1440.81 Q70.8809 1445.4 70.8809 1454.15 Q70.8809 1462.87 67.8022 1467.48 Q64.7467 1472.06 58.9365 1472.06 Q53.1264 1472.06 50.0477 1467.48 Q46.9921 1462.87 46.9921 1454.15 Q46.9921 1445.4 50.0477 1440.81 Q53.1264 1436.21 58.9365 1436.21 Z" fill="#000000" fill-rule="nonzero" fill-opacity="1" /><path clip-path="url(#clip250)" d="M79.0984 1465.51 L83.9827 1465.51 L83.9827 1471.39 L79.0984 1471.39 L79.0984 1465.51 Z" fill="#000000" fill-rule="nonzero" fill-opacity="1" /><path clip-path="url(#clip250)" d="M94.978 1467.46 L102.617 1467.46 L102.617 1441.09 L94.3067 1442.76 L94.3067 1438.5 L102.571 1436.83 L107.246 1436.83 L107.246 1467.46 L114.885 1467.46 L114.885 1471.39 L94.978 1471.39 L94.978 1467.46 Z" fill="#000000" fill-rule="nonzero" fill-opacity="1" /><path clip-path="url(#clip250)" d="M134.33 1439.91 Q130.719 1439.91 128.89 1443.47 Q127.084 1447.02 127.084 1454.15 Q127.084 1461.25 128.89 1464.82 Q130.719 1468.36 134.33 1468.36 Q137.964 1468.36 139.769 1464.82 Q141.598 1461.25 141.598 1454.15 Q141.598 1447.02 139.769 1443.47 Q137.964 1439.91 134.33 1439.91 M134.33 1436.21 Q140.14 1436.21 143.195 1440.81 Q146.274 1445.4 146.274 1454.15 Q146.274 1462.87 143.195 1467.48 Q140.14 1472.06 134.33 1472.06 Q128.519 1472.06 125.441 1467.48 Q122.385 1462.87 122.385 1454.15 Q122.385 1445.4 125.441 1440.81 Q128.519 1436.21 134.33 1436.21 Z" fill="#000000" fill-rule="nonzero" fill-opacity="1" /><path clip-path="url(#clip250)" d="M59.9319 1104.43 Q56.3208 1104.43 54.4921 1108 Q52.6865 1111.54 52.6865 1118.67 Q52.6865 1125.78 54.4921 1129.34 Q56.3208 1132.88 59.9319 1132.88 Q63.5661 1132.88 65.3717 1129.34 Q67.2004 1125.78 67.2004 1118.67 Q67.2004 1111.54 65.3717 1108 Q63.5661 1104.43 59.9319 1104.43 M59.9319 1100.73 Q65.742 1100.73 68.7976 1105.34 Q71.8763 1109.92 71.8763 1118.67 Q71.8763 1127.4 68.7976 1132 Q65.742 1136.59 59.9319 1136.59 Q54.1217 1136.59 51.043 1132 Q47.9875 1127.4 47.9875 1118.67 Q47.9875 1109.92 51.043 1105.34 Q54.1217 1100.73 59.9319 1100.73 Z" fill="#000000" fill-rule="nonzero" fill-opacity="1" /><path clip-path="url(#clip250)" d="M80.0938 1130.04 L84.978 1130.04 L84.978 1135.92 L80.0938 1135.92 L80.0938 1130.04 Z" fill="#000000" fill-rule="nonzero" fill-opacity="1" /><path clip-path="url(#clip250)" d="M95.9733 1131.98 L103.612 1131.98 L103.612 1105.62 L95.3021 1107.28 L95.3021 1103.02 L103.566 1101.36 L108.242 1101.36 L108.242 1131.98 L115.881 1131.98 L115.881 1135.92 L95.9733 1135.92 L95.9733 1131.98 Z" fill="#000000" fill-rule="nonzero" fill-opacity="1" /><path clip-path="url(#clip250)" d="M125.371 1101.36 L143.728 1101.36 L143.728 1105.29 L129.654 1105.29 L129.654 1113.76 Q130.672 1113.42 131.691 1113.25 Q132.709 1113.07 133.728 1113.07 Q139.515 1113.07 142.894 1116.24 Q146.274 1119.41 146.274 1124.83 Q146.274 1130.41 142.802 1133.51 Q139.33 1136.59 133.01 1136.59 Q130.834 1136.59 128.566 1136.22 Q126.32 1135.85 123.913 1135.11 L123.913 1130.41 Q125.996 1131.54 128.219 1132.1 Q130.441 1132.65 132.918 1132.65 Q136.922 1132.65 139.26 1130.55 Q141.598 1128.44 141.598 1124.83 Q141.598 1121.22 139.26 1119.11 Q136.922 1117 132.918 1117 Q131.043 1117 129.168 1117.42 Q127.316 1117.84 125.371 1118.72 L125.371 1101.36 Z" fill="#000000" fill-rule="nonzero" fill-opacity="1" /><path clip-path="url(#clip250)" d="M58.9365 768.96 Q55.3254 768.96 53.4967 772.525 Q51.6912 776.066 51.6912 783.196 Q51.6912 790.302 53.4967 793.867 Q55.3254 797.409 58.9365 797.409 Q62.5707 797.409 64.3763 793.867 Q66.205 790.302 66.205 783.196 Q66.205 776.066 64.3763 772.525 Q62.5707 768.96 58.9365 768.96 M58.9365 765.256 Q64.7467 765.256 67.8022 769.863 Q70.8809 774.446 70.8809 783.196 Q70.8809 791.923 67.8022 796.529 Q64.7467 801.113 58.9365 801.113 Q53.1264 801.113 50.0477 796.529 Q46.9921 791.923 46.9921 783.196 Q46.9921 774.446 50.0477 769.863 Q53.1264 765.256 58.9365 765.256 Z" fill="#000000" fill-rule="nonzero" fill-opacity="1" /><path clip-path="url(#clip250)" d="M79.0984 794.562 L83.9827 794.562 L83.9827 800.441 L79.0984 800.441 L79.0984 794.562 Z" fill="#000000" fill-rule="nonzero" fill-opacity="1" /><path clip-path="url(#clip250)" d="M98.1956 796.506 L114.515 796.506 L114.515 800.441 L92.5706 800.441 L92.5706 796.506 Q95.2326 793.751 99.8159 789.122 Q104.422 784.469 105.603 783.127 Q107.848 780.603 108.728 778.867 Q109.631 777.108 109.631 775.418 Q109.631 772.664 107.686 770.928 Q105.765 769.191 102.663 769.191 Q100.464 769.191 98.0104 769.955 Q95.5798 770.719 92.8021 772.27 L92.8021 767.548 Q95.6261 766.414 98.0798 765.835 Q100.534 765.256 102.571 765.256 Q107.941 765.256 111.135 767.941 Q114.33 770.627 114.33 775.117 Q114.33 777.247 113.52 779.168 Q112.733 781.066 110.626 783.659 Q110.047 784.33 106.946 787.548 Q103.844 790.742 98.1956 796.506 Z" fill="#000000" fill-rule="nonzero" fill-opacity="1" /><path clip-path="url(#clip250)" d="M134.33 768.96 Q130.719 768.96 128.89 772.525 Q127.084 776.066 127.084 783.196 Q127.084 790.302 128.89 793.867 Q130.719 797.409 134.33 797.409 Q137.964 797.409 139.769 793.867 Q141.598 790.302 141.598 783.196 Q141.598 776.066 139.769 772.525 Q137.964 768.96 134.33 768.96 M134.33 765.256 Q140.14 765.256 143.195 769.863 Q146.274 774.446 146.274 783.196 Q146.274 791.923 143.195 796.529 Q140.14 801.113 134.33 801.113 Q128.519 801.113 125.441 796.529 Q122.385 791.923 122.385 783.196 Q122.385 774.446 125.441 769.863 Q128.519 765.256 134.33 765.256 Z" fill="#000000" fill-rule="nonzero" fill-opacity="1" /><path clip-path="url(#clip250)" d="M59.9319 433.485 Q56.3208 433.485 54.4921 437.05 Q52.6865 440.591 52.6865 447.721 Q52.6865 454.827 54.4921 458.392 Q56.3208 461.934 59.9319 461.934 Q63.5661 461.934 65.3717 458.392 Q67.2004 454.827 67.2004 447.721 Q67.2004 440.591 65.3717 437.05 Q63.5661 433.485 59.9319 433.485 M59.9319 429.781 Q65.742 429.781 68.7976 434.388 Q71.8763 438.971 71.8763 447.721 Q71.8763 456.448 68.7976 461.054 Q65.742 465.638 59.9319 465.638 Q54.1217 465.638 51.043 461.054 Q47.9875 456.448 47.9875 447.721 Q47.9875 438.971 51.043 434.388 Q54.1217 429.781 59.9319 429.781 Z" fill="#000000" fill-rule="nonzero" fill-opacity="1" /><path clip-path="url(#clip250)" d="M80.0938 459.087 L84.978 459.087 L84.978 464.966 L80.0938 464.966 L80.0938 459.087 Z" fill="#000000" fill-rule="nonzero" fill-opacity="1" /><path clip-path="url(#clip250)" d="M99.1909 461.031 L115.51 461.031 L115.51 464.966 L93.566 464.966 L93.566 461.031 Q96.228 458.276 100.811 453.647 Q105.418 448.994 106.598 447.652 Q108.844 445.128 109.723 443.392 Q110.626 441.633 110.626 439.943 Q110.626 437.189 108.682 435.453 Q106.76 433.716 103.658 433.716 Q101.459 433.716 99.0057 434.48 Q96.5752 435.244 93.7974 436.795 L93.7974 432.073 Q96.6215 430.939 99.0752 430.36 Q101.529 429.781 103.566 429.781 Q108.936 429.781 112.131 432.466 Q115.325 435.152 115.325 439.642 Q115.325 441.772 114.515 443.693 Q113.728 445.591 111.621 448.184 Q111.043 448.855 107.941 452.073 Q104.839 455.267 99.1909 461.031 Z" fill="#000000" fill-rule="nonzero" fill-opacity="1" /><path clip-path="url(#clip250)" d="M125.371 430.406 L143.728 430.406 L143.728 434.341 L129.654 434.341 L129.654 442.814 Q130.672 442.466 131.691 442.304 Q132.709 442.119 133.728 442.119 Q139.515 442.119 142.894 445.29 Q146.274 448.462 146.274 453.878 Q146.274 459.457 142.802 462.559 Q139.33 465.638 133.01 465.638 Q130.834 465.638 128.566 465.267 Q126.32 464.897 123.913 464.156 L123.913 459.457 Q125.996 460.591 128.219 461.147 Q130.441 461.702 132.918 461.702 Q136.922 461.702 139.26 459.596 Q141.598 457.489 141.598 453.878 Q141.598 450.267 139.26 448.161 Q136.922 446.054 132.918 446.054 Q131.043 446.054 129.168 446.471 Q127.316 446.888 125.371 447.767 L125.371 430.406 Z" fill="#000000" fill-rule="nonzero" fill-opacity="1" /><path clip-path="url(#clip250)" d="M58.9365 98.01 Q55.3254 98.01 53.4967 101.575 Q51.6912 105.116 51.6912 112.246 Q51.6912 119.352 53.4967 122.917 Q55.3254 126.459 58.9365 126.459 Q62.5707 126.459 64.3763 122.917 Q66.205 119.352 66.205 112.246 Q66.205 105.116 64.3763 101.575 Q62.5707 98.01 58.9365 98.01 M58.9365 94.3063 Q64.7467 94.3063 67.8022 98.9128 Q70.8809 103.496 70.8809 112.246 Q70.8809 120.973 67.8022 125.579 Q64.7467 130.163 58.9365 130.163 Q53.1264 130.163 50.0477 125.579 Q46.9921 120.973 46.9921 112.246 Q46.9921 103.496 50.0477 98.9128 Q53.1264 94.3063 58.9365 94.3063 Z" fill="#000000" fill-rule="nonzero" fill-opacity="1" /><path clip-path="url(#clip250)" d="M79.0984 123.612 L83.9827 123.612 L83.9827 129.491 L79.0984 129.491 L79.0984 123.612 Z" fill="#000000" fill-rule="nonzero" fill-opacity="1" /><path clip-path="url(#clip250)" d="M108.334 110.857 Q111.691 111.575 113.566 113.843 Q115.464 116.112 115.464 119.445 Q115.464 124.561 111.945 127.362 Q108.427 130.163 101.946 130.163 Q99.7696 130.163 97.4548 129.723 Q95.1632 129.306 92.7095 128.45 L92.7095 123.936 Q94.6539 125.07 96.9687 125.649 Q99.2835 126.227 101.807 126.227 Q106.205 126.227 108.496 124.491 Q110.811 122.755 110.811 119.445 Q110.811 116.39 108.658 114.677 Q106.529 112.94 102.709 112.94 L98.6817 112.94 L98.6817 109.098 L102.895 109.098 Q106.344 109.098 108.172 107.732 Q110.001 106.343 110.001 103.751 Q110.001 101.089 108.103 99.6767 Q106.228 98.2415 102.709 98.2415 Q100.788 98.2415 98.5891 98.6581 Q96.39 99.0748 93.7511 99.9544 L93.7511 95.7878 Q96.4132 95.047 98.728 94.6767 Q101.066 94.3063 103.126 94.3063 Q108.45 94.3063 111.552 96.7369 Q114.654 99.1442 114.654 103.265 Q114.654 106.135 113.01 108.126 Q111.367 110.093 108.334 110.857 Z" fill="#000000" fill-rule="nonzero" fill-opacity="1" /><path clip-path="url(#clip250)" d="M134.33 98.01 Q130.719 98.01 128.89 101.575 Q127.084 105.116 127.084 112.246 Q127.084 119.352 128.89 122.917 Q130.719 126.459 134.33 126.459 Q137.964 126.459 139.769 122.917 Q141.598 119.352 141.598 112.246 Q141.598 105.116 139.769 101.575 Q137.964 98.01 134.33 98.01 M134.33 94.3063 Q140.14 94.3063 143.195 98.9128 Q146.274 103.496 146.274 112.246 Q146.274 120.973 143.195 125.579 Q140.14 130.163 134.33 130.163 Q128.519 130.163 125.441 125.579 Q122.385 120.973 122.385 112.246 Q122.385 103.496 125.441 98.9128 Q128.519 94.3063 134.33 94.3063 Z" fill="#000000" fill-rule="nonzero" fill-opacity="1" /><polyline clip-path="url(#clip252)" style="stroke:#009af9; stroke-linecap:round; stroke-linejoin:round; stroke-width:4; stroke-opacity:1; fill:none" points="233.367,1454.11 320.239,1029.15 407.111,726.472 493.984,508.102 580.856,350.697 667.729,239.442 754.601,164.158 841.473,117.42 928.346,93.5824 1015.22,88.2208 1102.09,97.795 1188.96,119.428 1275.84,150.758 1362.71,189.825 1449.58,235 1536.45,284.917 "/>
<path clip-path="url(#clip250)" d="M1771.48 1495.09 L3152.76 1495.09 L3152.76 47.2441 L1771.48 47.2441  Z" fill="#ffffff" fill-rule="evenodd" fill-opacity="1"/>
<defs>
  <clipPath id="clip253">
    <rect x="1771" y="47" width="1382" height="1449"/>
  </clipPath>
</defs>
<polyline clip-path="url(#clip253)" style="stroke:#000000; stroke-linecap:round; stroke-linejoin:round; stroke-width:2; stroke-opacity:0.1; fill:none" points="1984.32,1495.09 1984.32,47.2441 "/>
<polyline clip-path="url(#clip253)" style="stroke:#000000; stroke-linecap:round; stroke-linejoin:round; stroke-width:2; stroke-opacity:0.1; fill:none" points="2244.94,1495.09 2244.94,47.2441 "/>
<polyline clip-path="url(#clip253)" style="stroke:#000000; stroke-linecap:round; stroke-linejoin:round; stroke-width:2; stroke-opacity:0.1; fill:none" points="2505.56,1495.09 2505.56,47.2441 "/>
<polyline clip-path="url(#clip253)" style="stroke:#000000; stroke-linecap:round; stroke-linejoin:round; stroke-width:2; stroke-opacity:0.1; fill:none" points="2766.17,1495.09 2766.17,47.2441 "/>
<polyline clip-path="url(#clip253)" style="stroke:#000000; stroke-linecap:round; stroke-linejoin:round; stroke-width:2; stroke-opacity:0.1; fill:none" points="3026.79,1495.09 3026.79,47.2441 "/>
<polyline clip-path="url(#clip250)" style="stroke:#000000; stroke-linecap:round; stroke-linejoin:round; stroke-width:4; stroke-opacity:1; fill:none" points="1771.48,1495.09 3152.76,1495.09 "/>
<polyline clip-path="url(#clip250)" style="stroke:#000000; stroke-linecap:round; stroke-linejoin:round; stroke-width:4; stroke-opacity:1; fill:none" points="1984.32,1495.09 1984.32,1476.19 "/>
<polyline clip-path="url(#clip250)" style="stroke:#000000; stroke-linecap:round; stroke-linejoin:round; stroke-width:4; stroke-opacity:1; fill:none" points="2244.94,1495.09 2244.94,1476.19 "/>
<polyline clip-path="url(#clip250)" style="stroke:#000000; stroke-linecap:round; stroke-linejoin:round; stroke-width:4; stroke-opacity:1; fill:none" points="2505.56,1495.09 2505.56,1476.19 "/>
<polyline clip-path="url(#clip250)" style="stroke:#000000; stroke-linecap:round; stroke-linejoin:round; stroke-width:4; stroke-opacity:1; fill:none" points="2766.17,1495.09 2766.17,1476.19 "/>
<polyline clip-path="url(#clip250)" style="stroke:#000000; stroke-linecap:round; stroke-linejoin:round; stroke-width:4; stroke-opacity:1; fill:none" points="3026.79,1495.09 3026.79,1476.19 "/>
<path clip-path="url(#clip250)" d="M1988.57 1545.25 Q1991.93 1545.97 1993.8 1548.24 Q1995.7 1550.51 1995.7 1553.84 Q1995.7 1558.96 1992.18 1561.76 Q1988.66 1564.56 1982.18 1564.56 Q1980.01 1564.56 1977.69 1564.12 Q1975.4 1563.7 1972.94 1562.85 L1972.94 1558.33 Q1974.89 1559.47 1977.2 1560.05 Q1979.52 1560.62 1982.04 1560.62 Q1986.44 1560.62 1988.73 1558.89 Q1991.05 1557.15 1991.05 1553.84 Q1991.05 1550.79 1988.89 1549.07 Q1986.76 1547.34 1982.94 1547.34 L1978.92 1547.34 L1978.92 1543.49 L1983.13 1543.49 Q1986.58 1543.49 1988.41 1542.13 Q1990.24 1540.74 1990.24 1538.15 Q1990.24 1535.49 1988.34 1534.07 Q1986.46 1532.64 1982.94 1532.64 Q1981.02 1532.64 1978.82 1533.05 Q1976.63 1533.47 1973.99 1534.35 L1973.99 1530.18 Q1976.65 1529.44 1978.96 1529.07 Q1981.3 1528.7 1983.36 1528.7 Q1988.69 1528.7 1991.79 1531.13 Q1994.89 1533.54 1994.89 1537.66 Q1994.89 1540.53 1993.25 1542.52 Q1991.6 1544.49 1988.57 1545.25 Z" fill="#000000" fill-rule="nonzero" fill-opacity="1" /><path clip-path="url(#clip250)" d="M2245.34 1544.74 Q2242.2 1544.74 2240.34 1546.9 Q2238.52 1549.05 2238.52 1552.8 Q2238.52 1556.53 2240.34 1558.7 Q2242.2 1560.86 2245.34 1560.86 Q2248.49 1560.86 2250.32 1558.7 Q2252.17 1556.53 2252.17 1552.8 Q2252.17 1549.05 2250.32 1546.9 Q2248.49 1544.74 2245.34 1544.74 M2254.63 1530.09 L2254.63 1534.35 Q2252.87 1533.52 2251.06 1533.08 Q2249.28 1532.64 2247.52 1532.64 Q2242.89 1532.64 2240.44 1535.76 Q2238.01 1538.89 2237.66 1545.21 Q2239.03 1543.19 2241.09 1542.13 Q2243.15 1541.04 2245.62 1541.04 Q2250.83 1541.04 2253.84 1544.21 Q2256.87 1547.36 2256.87 1552.8 Q2256.87 1558.12 2253.72 1561.34 Q2250.58 1564.56 2245.34 1564.56 Q2239.35 1564.56 2236.18 1559.98 Q2233.01 1555.37 2233.01 1546.64 Q2233.01 1538.45 2236.9 1533.59 Q2240.78 1528.7 2247.34 1528.7 Q2249.09 1528.7 2250.88 1529.05 Q2252.68 1529.4 2254.63 1530.09 Z" fill="#000000" fill-rule="nonzero" fill-opacity="1" /><path clip-path="url(#clip250)" d="M2495.86 1563.17 L2495.86 1558.91 Q2497.62 1559.74 2499.42 1560.18 Q2501.23 1560.62 2502.96 1560.62 Q2507.59 1560.62 2510.02 1557.52 Q2512.48 1554.4 2512.83 1548.05 Q2511.48 1550.05 2509.42 1551.11 Q2507.36 1552.17 2504.86 1552.17 Q2499.68 1552.17 2496.64 1549.05 Q2493.64 1545.9 2493.64 1540.46 Q2493.64 1535.14 2496.78 1531.92 Q2499.93 1528.7 2505.16 1528.7 Q2511.16 1528.7 2514.31 1533.31 Q2517.48 1537.89 2517.48 1546.64 Q2517.48 1554.81 2513.59 1559.7 Q2509.72 1564.56 2503.17 1564.56 Q2501.41 1564.56 2499.61 1564.21 Q2497.8 1563.86 2495.86 1563.17 M2505.16 1548.52 Q2508.31 1548.52 2510.14 1546.36 Q2511.99 1544.21 2511.99 1540.46 Q2511.99 1536.74 2510.14 1534.58 Q2508.31 1532.41 2505.16 1532.41 Q2502.01 1532.41 2500.16 1534.58 Q2498.33 1536.74 2498.33 1540.46 Q2498.33 1544.21 2500.16 1546.36 Q2502.01 1548.52 2505.16 1548.52 Z" fill="#000000" fill-rule="nonzero" fill-opacity="1" /><path clip-path="url(#clip250)" d="M2741.66 1559.95 L2749.3 1559.95 L2749.3 1533.59 L2740.99 1535.25 L2740.99 1530.99 L2749.25 1529.33 L2753.93 1529.33 L2753.93 1559.95 L2761.57 1559.95 L2761.57 1563.89 L2741.66 1563.89 L2741.66 1559.95 Z" fill="#000000" fill-rule="nonzero" fill-opacity="1" /><path clip-path="url(#clip250)" d="M2775.04 1559.95 L2791.36 1559.95 L2791.36 1563.89 L2769.41 1563.89 L2769.41 1559.95 Q2772.08 1557.2 2776.66 1552.57 Q2781.27 1547.92 2782.45 1546.57 Q2784.69 1544.05 2785.57 1542.31 Q2786.47 1540.55 2786.47 1538.86 Q2786.47 1536.11 2784.53 1534.37 Q2782.61 1532.64 2779.51 1532.64 Q2777.31 1532.64 2774.85 1533.4 Q2772.42 1534.17 2769.65 1535.72 L2769.65 1530.99 Q2772.47 1529.86 2774.92 1529.28 Q2777.38 1528.7 2779.41 1528.7 Q2784.78 1528.7 2787.98 1531.39 Q2791.17 1534.07 2791.17 1538.56 Q2791.17 1540.69 2790.36 1542.61 Q2789.58 1544.51 2787.47 1547.11 Q2786.89 1547.78 2783.79 1550.99 Q2780.69 1554.19 2775.04 1559.95 Z" fill="#000000" fill-rule="nonzero" fill-opacity="1" /><path clip-path="url(#clip250)" d="M3001.98 1559.95 L3009.62 1559.95 L3009.62 1533.59 L3001.3 1535.25 L3001.3 1530.99 L3009.57 1529.33 L3014.24 1529.33 L3014.24 1559.95 L3021.88 1559.95 L3021.88 1563.89 L3001.98 1563.89 L3001.98 1559.95 Z" fill="#000000" fill-rule="nonzero" fill-opacity="1" /><path clip-path="url(#clip250)" d="M3031.37 1529.33 L3049.73 1529.33 L3049.73 1533.26 L3035.66 1533.26 L3035.66 1541.74 Q3036.68 1541.39 3037.69 1541.23 Q3038.71 1541.04 3039.73 1541.04 Q3045.52 1541.04 3048.9 1544.21 Q3052.28 1547.38 3052.28 1552.8 Q3052.28 1558.38 3048.8 1561.48 Q3045.33 1564.56 3039.01 1564.56 Q3036.84 1564.56 3034.57 1564.19 Q3032.32 1563.82 3029.92 1563.08 L3029.92 1558.38 Q3032 1559.51 3034.22 1560.07 Q3036.44 1560.62 3038.92 1560.62 Q3042.93 1560.62 3045.26 1558.52 Q3047.6 1556.41 3047.6 1552.8 Q3047.6 1549.19 3045.26 1547.08 Q3042.93 1544.98 3038.92 1544.98 Q3037.05 1544.98 3035.17 1545.39 Q3033.32 1545.81 3031.37 1546.69 L3031.37 1529.33 Z" fill="#000000" fill-rule="nonzero" fill-opacity="1" /><polyline clip-path="url(#clip253)" style="stroke:#000000; stroke-linecap:round; stroke-linejoin:round; stroke-width:2; stroke-opacity:0.1; fill:none" points="1771.48,1473.28 3152.76,1473.28 "/>
<polyline clip-path="url(#clip253)" style="stroke:#000000; stroke-linecap:round; stroke-linejoin:round; stroke-width:2; stroke-opacity:0.1; fill:none" points="1771.48,1153.75 3152.76,1153.75 "/>
<polyline clip-path="url(#clip253)" style="stroke:#000000; stroke-linecap:round; stroke-linejoin:round; stroke-width:2; stroke-opacity:0.1; fill:none" points="1771.48,834.225 3152.76,834.225 "/>
<polyline clip-path="url(#clip253)" style="stroke:#000000; stroke-linecap:round; stroke-linejoin:round; stroke-width:2; stroke-opacity:0.1; fill:none" points="1771.48,514.696 3152.76,514.696 "/>
<polyline clip-path="url(#clip253)" style="stroke:#000000; stroke-linecap:round; stroke-linejoin:round; stroke-width:2; stroke-opacity:0.1; fill:none" points="1771.48,195.166 3152.76,195.166 "/>
<polyline clip-path="url(#clip250)" style="stroke:#000000; stroke-linecap:round; stroke-linejoin:round; stroke-width:4; stroke-opacity:1; fill:none" points="1771.48,1495.09 1771.48,47.2441 "/>
<polyline clip-path="url(#clip250)" style="stroke:#000000; stroke-linecap:round; stroke-linejoin:round; stroke-width:4; stroke-opacity:1; fill:none" points="1771.48,1473.28 1790.38,1473.28 "/>
<polyline clip-path="url(#clip250)" style="stroke:#000000; stroke-linecap:round; stroke-linejoin:round; stroke-width:4; stroke-opacity:1; fill:none" points="1771.48,1153.75 1790.38,1153.75 "/>
<polyline clip-path="url(#clip250)" style="stroke:#000000; stroke-linecap:round; stroke-linejoin:round; stroke-width:4; stroke-opacity:1; fill:none" points="1771.48,834.225 1790.38,834.225 "/>
<polyline clip-path="url(#clip250)" style="stroke:#000000; stroke-linecap:round; stroke-linejoin:round; stroke-width:4; stroke-opacity:1; fill:none" points="1771.48,514.696 1790.38,514.696 "/>
<polyline clip-path="url(#clip250)" style="stroke:#000000; stroke-linecap:round; stroke-linejoin:round; stroke-width:4; stroke-opacity:1; fill:none" points="1771.48,195.166 1790.38,195.166 "/>
<path clip-path="url(#clip250)" d="M1711.54 1459.08 Q1707.93 1459.08 1706.1 1462.65 Q1704.3 1466.19 1704.3 1473.32 Q1704.3 1480.42 1706.1 1483.99 Q1707.93 1487.53 1711.54 1487.53 Q1715.17 1487.53 1716.98 1483.99 Q1718.81 1480.42 1718.81 1473.32 Q1718.81 1466.19 1716.98 1462.65 Q1715.17 1459.08 1711.54 1459.08 M1711.54 1455.38 Q1717.35 1455.38 1720.41 1459.98 Q1723.48 1464.57 1723.48 1473.32 Q1723.48 1482.04 1720.41 1486.65 Q1717.35 1491.23 1711.54 1491.23 Q1705.73 1491.23 1702.65 1486.65 Q1699.6 1482.04 1699.6 1473.32 Q1699.6 1464.57 1702.65 1459.98 Q1705.73 1455.38 1711.54 1455.38 Z" fill="#000000" fill-rule="nonzero" fill-opacity="1" /><path clip-path="url(#clip250)" d="M1702.58 1136.47 L1720.94 1136.47 L1720.94 1140.41 L1706.86 1140.41 L1706.86 1148.88 Q1707.88 1148.53 1708.9 1148.37 Q1709.92 1148.19 1710.94 1148.19 Q1716.73 1148.19 1720.11 1151.36 Q1723.48 1154.53 1723.48 1159.95 Q1723.48 1165.52 1720.01 1168.63 Q1716.54 1171.71 1710.22 1171.71 Q1708.05 1171.71 1705.78 1171.33 Q1703.53 1170.96 1701.12 1170.22 L1701.12 1165.52 Q1703.21 1166.66 1705.43 1167.21 Q1707.65 1167.77 1710.13 1167.77 Q1714.13 1167.77 1716.47 1165.66 Q1718.81 1163.56 1718.81 1159.95 Q1718.81 1156.33 1716.47 1154.23 Q1714.13 1152.12 1710.13 1152.12 Q1708.25 1152.12 1706.38 1152.54 Q1704.53 1152.96 1702.58 1153.83 L1702.58 1136.47 Z" fill="#000000" fill-rule="nonzero" fill-opacity="1" /><path clip-path="url(#clip250)" d="M1672.19 847.57 L1679.83 847.57 L1679.83 821.204 L1671.52 822.871 L1671.52 818.611 L1679.78 816.945 L1684.46 816.945 L1684.46 847.57 L1692.1 847.57 L1692.1 851.505 L1672.19 851.505 L1672.19 847.57 Z" fill="#000000" fill-rule="nonzero" fill-opacity="1" /><path clip-path="url(#clip250)" d="M1711.54 820.023 Q1707.93 820.023 1706.1 823.588 Q1704.3 827.13 1704.3 834.259 Q1704.3 841.366 1706.1 844.931 Q1707.93 848.472 1711.54 848.472 Q1715.17 848.472 1716.98 844.931 Q1718.81 841.366 1718.81 834.259 Q1718.81 827.13 1716.98 823.588 Q1715.17 820.023 1711.54 820.023 M1711.54 816.32 Q1717.35 816.32 1720.41 820.926 Q1723.48 825.509 1723.48 834.259 Q1723.48 842.986 1720.41 847.593 Q1717.35 852.176 1711.54 852.176 Q1705.73 852.176 1702.65 847.593 Q1699.6 842.986 1699.6 834.259 Q1699.6 825.509 1702.65 820.926 Q1705.73 816.32 1711.54 816.32 Z" fill="#000000" fill-rule="nonzero" fill-opacity="1" /><path clip-path="url(#clip250)" d="M1673.18 528.04 L1680.82 528.04 L1680.82 501.675 L1672.51 503.341 L1672.51 499.082 L1680.78 497.416 L1685.45 497.416 L1685.45 528.04 L1693.09 528.04 L1693.09 531.976 L1673.18 531.976 L1673.18 528.04 Z" fill="#000000" fill-rule="nonzero" fill-opacity="1" /><path clip-path="url(#clip250)" d="M1702.58 497.416 L1720.94 497.416 L1720.94 501.351 L1706.86 501.351 L1706.86 509.823 Q1707.88 509.476 1708.9 509.314 Q1709.92 509.128 1710.94 509.128 Q1716.73 509.128 1720.11 512.3 Q1723.48 515.471 1723.48 520.888 Q1723.48 526.466 1720.01 529.568 Q1716.54 532.647 1710.22 532.647 Q1708.05 532.647 1705.78 532.277 Q1703.53 531.906 1701.12 531.165 L1701.12 526.466 Q1703.21 527.601 1705.43 528.156 Q1707.65 528.712 1710.13 528.712 Q1714.13 528.712 1716.47 526.605 Q1718.81 524.499 1718.81 520.888 Q1718.81 517.277 1716.47 515.17 Q1714.13 513.064 1710.13 513.064 Q1708.25 513.064 1706.38 513.48 Q1704.53 513.897 1702.58 514.777 L1702.58 497.416 Z" fill="#000000" fill-rule="nonzero" fill-opacity="1" /><path clip-path="url(#clip250)" d="M1675.41 208.511 L1691.73 208.511 L1691.73 212.446 L1669.78 212.446 L1669.78 208.511 Q1672.44 205.757 1677.03 201.127 Q1681.63 196.474 1682.81 195.132 Q1685.06 192.609 1685.94 190.873 Q1686.84 189.113 1686.84 187.423 Q1686.84 184.669 1684.9 182.933 Q1682.98 181.197 1679.87 181.197 Q1677.67 181.197 1675.22 181.961 Q1672.79 182.724 1670.01 184.275 L1670.01 179.553 Q1672.84 178.419 1675.29 177.84 Q1677.74 177.261 1679.78 177.261 Q1685.15 177.261 1688.35 179.947 Q1691.54 182.632 1691.54 187.123 Q1691.54 189.252 1690.73 191.173 Q1689.94 193.072 1687.84 195.664 Q1687.26 196.335 1684.16 199.553 Q1681.05 202.747 1675.41 208.511 Z" fill="#000000" fill-rule="nonzero" fill-opacity="1" /><path clip-path="url(#clip250)" d="M1711.54 180.965 Q1707.93 180.965 1706.1 184.53 Q1704.3 188.072 1704.3 195.201 Q1704.3 202.308 1706.1 205.872 Q1707.93 209.414 1711.54 209.414 Q1715.17 209.414 1716.98 205.872 Q1718.81 202.308 1718.81 195.201 Q1718.81 188.072 1716.98 184.53 Q1715.17 180.965 1711.54 180.965 M1711.54 177.261 Q1717.35 177.261 1720.41 181.868 Q1723.48 186.451 1723.48 195.201 Q1723.48 203.928 1720.41 208.534 Q1717.35 213.118 1711.54 213.118 Q1705.73 213.118 1702.65 208.534 Q1699.6 203.928 1699.6 195.201 Q1699.6 186.451 1702.65 181.868 Q1705.73 177.261 1711.54 177.261 Z" fill="#000000" fill-rule="nonzero" fill-opacity="1" /><polyline clip-path="url(#clip253)" style="stroke:#009af9; stroke-linecap:round; stroke-linejoin:round; stroke-width:4; stroke-opacity:1; fill:none" points="1810.58,1454.11 1897.45,1417.93 1984.32,1368.53 2071.19,1308.72 2158.07,1240.1 2244.94,1163.7 2331.81,1080.29 2418.68,990.45 2505.56,894.673 2592.43,793.374 2679.3,686.921 2766.17,575.65 2853.05,459.866 2939.92,339.857 3026.79,215.89 3113.66,88.2208 "/>
</svg>