<?xml version="1.0" encoding="utf-8"?>
<svg xmlns="http://www.w3.org/2000/svg" xmlns:xlink="http://www.w3.org/1999/xlink" width="600" height="400" viewBox="0 0 2400 1600">
<defs>
  <clipPath id="clip000">
    <rect x="0" y="0" width="2400" height="1600"/>
  </clipPath>
</defs>
<path clip-path="url(#clip000)" d="M0 1600 L2400 1600 L2400 0 L0 0  Z" fill="#ffffff" fill-rule="evenodd" fill-opacity="1"/>
<defs>
  <clipPath id="clip001">
    <rect x="480" y="0" width="1681" height="1600"/>
  </clipPath>
</defs>
<path clip-path="url(#clip000)" d="M219.38 1423.18 L2352.76 1423.18 L2352.76 47.2441 L219.38 47.2441  Z" fill="#ffffff" fill-rule="evenodd" fill-opacity="1"/>
<defs>
  <clipPath id="clip002">
    <rect x="219" y="47" width="2134" height="1377"/>
  </clipPath>
</defs>
<polyline clip-path="url(#clip002)" style="stroke:#000000; stroke-linecap:round; stroke-linejoin:round; stroke-width:2; stroke-opacity:0.1; fill:none" points="269.696,1423.18 269.696,47.2441 "/>
<polyline clip-path="url(#clip002)" style="stroke:#000000; stroke-linecap:round; stroke-linejoin:round; stroke-width:2; stroke-opacity:0.1; fill:none" points="772.85,1423.18 772.85,47.2441 "/>
<polyline clip-path="url(#clip002)" style="stroke:#000000; stroke-linecap:round; stroke-linejoin:round; stroke-width:2; stroke-opacity:0.1; fill:none" points="1276,1423.18 1276,47.2441 "/>
<polyline clip-path="url(#clip002)" style="stroke:#000000; stroke-linecap:round; stroke-linejoin:round; stroke-width:2; stroke-opacity:0.1; fill:none" points="1779.16,1423.18 1779.16,47.2441 "/>
<polyline clip-path="url(#clip002)" style="stroke:#000000; stroke-linecap:round; stroke-linejoin:round; stroke-width:2; stroke-opacity:0.1; fill:none" points="2282.31,1423.18 2282.31,47.2441 "/>
<polyline clip-path="url(#clip000)" style="stroke:#000000; stroke-linecap:round; stroke-linejoin:round; stroke-width:4; stroke-opacity:1; fill:none" points="219.38,1423.18 2352.76,1423.18 "/>
<polyline clip-path="url(#clip000)" style="stroke:#000000; stroke-linecap:round; stroke-linejoin:round; stroke-width:4; stroke-opacity:1; fill:none" points="269.696,1423.18 269.696,1404.28 "/>
<polyline clip-path="url(#clip000)" style="stroke:#000000; stroke-linecap:round; stroke-linejoin:round; stroke-width:4; stroke-opacity:1; fill:none" points="772.85,1423.18 772.85,1404.28 "/>
<polyline clip-path="url(#clip000)" style="stroke:#000000; stroke-linecap:round; stroke-linejoin:round; stroke-width:4; stroke-opacity:1; fill:none" points="1276,1423.18 1276,1404.28 "/>
<polyline clip-path="url(#clip000)" style="stroke:#000000; stroke-linecap:round; stroke-linejoin:round; stroke-width:4; stroke-opacity:1; fill:none" points="1779.16,1423.18 1779.16,1404.28 "/>
<polyline clip-path="url(#clip000)" style="stroke:#000000; stroke-linecap:round; stroke-linejoin:round; stroke-width:4; stroke-opacity:1; fill:none" points="2282.31,1423.18 2282.31,1404.28 "/>
<path clip-path="url(#clip000)" d="M269.696 1454.1 Q266.085 1454.1 264.256 1457.66 Q262.45 1461.2 262.45 1468.33 Q262.45 1475.44 264.256 1479.01 Q266.085 1482.55 269.696 1482.55 Q273.33 1482.55 275.135 1479.01 Q276.964 1475.44 276.964 1468.33 Q276.964 1461.2 275.135 1457.66 Q273.33 1454.1 269.696 1454.1 M269.696 1450.39 Q275.506 1450.39 278.561 1455 Q281.64 1459.58 281.64 1468.33 Q281.64 1477.06 278.561 1481.67 Q275.506 1486.25 269.696 1486.25 Q263.885 1486.25 260.807 1481.67 Q257.751 1477.06 257.751 1468.33 Q257.751 1459.58 260.807 1455 Q263.885 1450.39 269.696 1450.39 Z" fill="#000000" fill-rule="nonzero" fill-opacity="1" /><path clip-path="url(#clip000)" d="M747.549 1451.02 L765.906 1451.02 L765.906 1454.96 L751.832 1454.96 L751.832 1463.43 Q752.85 1463.08 753.869 1462.92 Q754.887 1462.73 755.906 1462.73 Q761.693 1462.73 765.073 1465.9 Q768.452 1469.08 768.452 1474.49 Q768.452 1480.07 764.98 1483.17 Q761.508 1486.25 755.188 1486.25 Q753.012 1486.25 750.744 1485.88 Q748.499 1485.51 746.091 1484.77 L746.091 1480.07 Q748.174 1481.2 750.397 1481.76 Q752.619 1482.32 755.096 1482.32 Q759.1 1482.32 761.438 1480.21 Q763.776 1478.1 763.776 1474.49 Q763.776 1470.88 761.438 1468.77 Q759.1 1466.67 755.096 1466.67 Q753.221 1466.67 751.346 1467.08 Q749.494 1467.5 747.549 1468.38 L747.549 1451.02 Z" fill="#000000" fill-rule="nonzero" fill-opacity="1" /><path clip-path="url(#clip000)" d="M787.665 1454.1 Q784.054 1454.1 782.225 1457.66 Q780.42 1461.2 780.42 1468.33 Q780.42 1475.44 782.225 1479.01 Q784.054 1482.55 787.665 1482.55 Q791.299 1482.55 793.105 1479.01 Q794.933 1475.44 794.933 1468.33 Q794.933 1461.2 793.105 1457.66 Q791.299 1454.1 787.665 1454.1 M787.665 1450.39 Q793.475 1450.39 796.531 1455 Q799.609 1459.58 799.609 1468.33 Q799.609 1477.06 796.531 1481.67 Q793.475 1486.25 787.665 1486.25 Q781.855 1486.25 778.776 1481.67 Q775.721 1477.06 775.721 1468.33 Q775.721 1459.58 778.776 1455 Q781.855 1450.39 787.665 1450.39 Z" fill="#000000" fill-rule="nonzero" fill-opacity="1" /><path clip-path="url(#clip000)" d="M1235.61 1481.64 L1243.25 1481.64 L1243.25 1455.28 L1234.94 1456.95 L1234.94 1452.69 L1243.2 1451.02 L1247.88 1451.02 L1247.88 1481.64 L1255.52 1481.64 L1255.52 1485.58 L1235.61 1485.58 L1235.61 1481.64 Z" fill="#000000" fill-rule="nonzero" fill-opacity="1" /><path clip-path="url(#clip000)" d="M1274.96 1454.1 Q1271.35 1454.1 1269.52 1457.66 Q1267.72 1461.2 1267.72 1468.33 Q1267.72 1475.44 1269.52 1479.01 Q1271.35 1482.55 1274.96 1482.55 Q1278.6 1482.55 1280.4 1479.01 Q1282.23 1475.44 1282.23 1468.33 Q1282.23 1461.2 1280.4 1457.66 Q1278.6 1454.1 1274.96 1454.1 M1274.96 1450.39 Q1280.77 1450.39 1283.83 1455 Q1286.91 1459.58 1286.91 1468.33 Q1286.91 1477.06 1283.83 1481.67 Q1280.77 1486.25 1274.96 1486.25 Q1269.15 1486.25 1266.07 1481.67 Q1263.02 1477.06 1263.02 1468.33 Q1263.02 1459.58 1266.07 1455 Q1269.15 1450.39 1274.96 1450.39 Z" fill="#000000" fill-rule="nonzero" fill-opacity="1" /><path clip-path="url(#clip000)" d="M1305.13 1454.1 Q1301.51 1454.1 1299.69 1457.66 Q1297.88 1461.2 1297.88 1468.33 Q1297.88 1475.44 1299.69 1479.01 Q1301.51 1482.55 1305.13 1482.55 Q1308.76 1482.55 1310.56 1479.01 Q1312.39 1475.44 1312.39 1468.33 Q1312.39 1461.2 1310.56 1457.66 Q1308.76 1454.1 1305.13 1454.1 M1305.13 1450.39 Q1310.94 1450.39 1313.99 1455 Q1317.07 1459.58 1317.07 1468.33 Q1317.07 1477.06 1313.99 1481.67 Q1310.94 1486.25 1305.13 1486.25 Q1299.31 1486.25 1296.24 1481.67 Q1293.18 1477.06 1293.18 1468.33 Q1293.18 1459.58 1296.24 1455 Q1299.31 1450.39 1305.13 1450.39 Z" fill="#000000" fill-rule="nonzero" fill-opacity="1" /><path clip-path="url(#clip000)" d="M1738.77 1481.64 L1746.41 1481.64 L1746.41 1455.28 L1738.1 1456.95 L1738.1 1452.69 L1746.36 1451.02 L1751.03 1451.02 L1751.03 1481.64 L1758.67 1481.64 L1758.67 1485.58 L1738.77 1485.58 L1738.77 1481.64 Z" fill="#000000" fill-rule="nonzero" fill-opacity="1" /><path clip-path="url(#clip000)" d="M1768.16 1451.02 L1786.52 1451.02 L1786.52 1454.96 L1772.45 1454.96 L1772.45 1463.43 Q1773.47 1463.08 1774.48 1462.92 Q1775.5 1462.73 1776.52 1462.73 Q1782.31 1462.73 1785.69 1465.9 Q1789.07 1469.08 1789.07 1474.49 Q1789.07 1480.07 1785.59 1483.17 Q1782.12 1486.25 1775.8 1486.25 Q1773.63 1486.25 1771.36 1485.88 Q1769.11 1485.51 1766.71 1484.77 L1766.71 1480.07 Q1768.79 1481.2 1771.01 1481.76 Q1773.23 1482.32 1775.71 1482.32 Q1779.72 1482.32 1782.05 1480.21 Q1784.39 1478.1 1784.39 1474.49 Q1784.39 1470.88 1782.05 1468.77 Q1779.72 1466.67 1775.71 1466.67 Q1773.84 1466.67 1771.96 1467.08 Q1770.11 1467.5 1768.16 1468.38 L1768.16 1451.02 Z" fill="#000000" fill-rule="nonzero" fill-opacity="1" /><path clip-path="url(#clip000)" d="M1808.28 1454.1 Q1804.67 1454.1 1802.84 1457.66 Q1801.03 1461.2 1801.03 1468.33 Q1801.03 1475.44 1802.84 1479.01 Q1804.67 1482.55 1808.28 1482.55 Q1811.91 1482.55 1813.72 1479.01 Q1815.55 1475.44 1815.55 1468.33 Q1815.55 1461.2 1813.72 1457.66 Q1811.91 1454.1 1808.28 1454.1 M1808.28 1450.39 Q1814.09 1450.39 1817.15 1455 Q1820.22 1459.58 1820.22 1468.33 Q1820.22 1477.06 1817.15 1481.67 Q1814.09 1486.25 1808.28 1486.25 Q1802.47 1486.25 1799.39 1481.67 Q1796.34 1477.06 1796.34 1468.33 Q1796.34 1459.58 1799.39 1455 Q1802.47 1450.39 1808.28 1450.39 Z" fill="#000000" fill-rule="nonzero" fill-opacity="1" /><path clip-path="url(#clip000)" d="M2246.01 1481.64 L2262.33 1481.64 L2262.33 1485.58 L2240.38 1485.58 L2240.38 1481.64 Q2243.04 1478.89 2247.63 1474.26 Q2252.23 1469.61 2253.41 1468.27 Q2255.66 1465.74 2256.54 1464.01 Q2257.44 1462.25 2257.44 1460.56 Q2257.44 1457.8 2255.5 1456.07 Q2253.58 1454.33 2250.47 1454.33 Q2248.28 1454.33 2245.82 1455.09 Q2243.39 1455.86 2240.61 1457.41 L2240.61 1452.69 Q2243.44 1451.55 2245.89 1450.97 Q2248.34 1450.39 2250.38 1450.39 Q2255.75 1450.39 2258.95 1453.08 Q2262.14 1455.77 2262.14 1460.26 Q2262.14 1462.39 2261.33 1464.31 Q2260.54 1466.2 2258.44 1468.8 Q2257.86 1469.47 2254.76 1472.69 Q2251.65 1475.88 2246.01 1481.64 Z" fill="#000000" fill-rule="nonzero" fill-opacity="1" /><path clip-path="url(#clip000)" d="M2282.14 1454.1 Q2278.53 1454.1 2276.7 1457.66 Q2274.9 1461.2 2274.9 1468.33 Q2274.9 1475.44 2276.7 1479.01 Q2278.53 1482.55 2282.14 1482.55 Q2285.77 1482.55 2287.58 1479.01 Q2289.41 1475.44 2289.41 1468.33 Q2289.41 1461.2 2287.58 1457.66 Q2285.77 1454.1 2282.14 1454.1 M2282.14 1450.39 Q2287.95 1450.39 2291.01 1455 Q2294.09 1459.58 2294.09 1468.33 Q2294.09 1477.06 2291.01 1481.67 Q2287.95 1486.25 2282.14 1486.25 Q2276.33 1486.25 2273.25 1481.67 Q2270.2 1477.06 2270.2 1468.33 Q2270.2 1459.58 2273.25 1455 Q2276.33 1450.39 2282.14 1450.39 Z" fill="#000000" fill-rule="nonzero" fill-opacity="1" /><path clip-path="url(#clip000)" d="M2312.3 1454.1 Q2308.69 1454.1 2306.86 1457.66 Q2305.06 1461.2 2305.06 1468.33 Q2305.06 1475.44 2306.86 1479.01 Q2308.69 1482.55 2312.3 1482.55 Q2315.94 1482.55 2317.74 1479.01 Q2319.57 1475.44 2319.57 1468.33 Q2319.57 1461.2 2317.74 1457.66 Q2315.94 1454.1 2312.3 1454.1 M2312.3 1450.39 Q2318.11 1450.39 2321.17 1455 Q2324.25 1459.58 2324.25 1468.33 Q2324.25 1477.06 2321.17 1481.67 Q2318.11 1486.25 2312.3 1486.25 Q2306.49 1486.25 2303.41 1481.67 Q2300.36 1477.06 2300.36 1468.33 Q2300.36 1459.58 2303.41 1455 Q2306.49 1450.39 2312.3 1450.39 Z" fill="#000000" fill-rule="nonzero" fill-opacity="1" /><path clip-path="url(#clip000)" d="M1183.85 1520.52 L1224.05 1520.52 L1224.05 1525.93 L1207.18 1525.93 L1207.18 1568.04 L1200.72 1568.04 L1200.72 1525.93 L1183.85 1525.93 L1183.85 1520.52 Z" fill="#000000" fill-rule="nonzero" fill-opacity="1" /><path clip-path="url(#clip000)" d="M1228 1532.4 L1233.85 1532.4 L1233.85 1568.04 L1228 1568.04 L1228 1532.4 M1228 1518.52 L1233.85 1518.52 L1233.85 1525.93 L1228 1525.93 L1228 1518.52 Z" fill="#000000" fill-rule="nonzero" fill-opacity="1" /><path clip-path="url(#clip000)" d="M1273.86 1539.24 Q1276.06 1535.29 1279.11 1533.41 Q1282.17 1531.54 1286.31 1531.54 Q1291.88 1531.54 1294.9 1535.45 Q1297.92 1539.33 1297.92 1546.53 L1297.92 1568.04 L1292.04 1568.04 L1292.04 1546.72 Q1292.04 1541.59 1290.22 1539.11 Q1288.41 1536.63 1284.68 1536.63 Q1280.13 1536.63 1277.49 1539.65 Q1274.85 1542.68 1274.85 1547.9 L1274.85 1568.04 L1268.96 1568.04 L1268.96 1546.72 Q1268.96 1541.56 1267.15 1539.11 Q1265.33 1536.63 1261.54 1536.63 Q1257.06 1536.63 1254.41 1539.68 Q1251.77 1542.71 1251.77 1547.9 L1251.77 1568.04 L1245.88 1568.04 L1245.88 1532.4 L1251.77 1532.4 L1251.77 1537.93 Q1253.78 1534.66 1256.58 1533.1 Q1259.38 1531.54 1263.23 1531.54 Q1267.11 1531.54 1269.82 1533.51 Q1272.56 1535.48 1273.86 1539.24 Z" fill="#000000" fill-rule="nonzero" fill-opacity="1" /><path clip-path="url(#clip000)" d="M1340.1 1548.76 L1340.1 1551.62 L1313.17 1551.62 Q1313.55 1557.67 1316.8 1560.85 Q1320.08 1564 1325.9 1564 Q1329.28 1564 1332.43 1563.17 Q1335.61 1562.35 1338.73 1560.69 L1338.73 1566.23 Q1335.58 1567.57 1332.27 1568.27 Q1328.96 1568.97 1325.55 1568.97 Q1317.02 1568.97 1312.02 1564 Q1307.06 1559.04 1307.06 1550.57 Q1307.06 1541.82 1311.77 1536.69 Q1316.51 1531.54 1324.53 1531.54 Q1331.73 1531.54 1335.9 1536.18 Q1340.1 1540.8 1340.1 1548.76 M1334.24 1547.04 Q1334.18 1542.23 1331.54 1539.37 Q1328.93 1536.5 1324.6 1536.5 Q1319.69 1536.5 1316.73 1539.27 Q1313.81 1542.04 1313.36 1547.07 L1334.24 1547.04 Z" fill="#000000" fill-rule="nonzero" fill-opacity="1" /><path clip-path="url(#clip000)" d="M1376.22 1522.27 L1376.22 1532.4 L1388.29 1532.4 L1388.29 1536.95 L1376.22 1536.95 L1376.22 1556.3 Q1376.22 1560.66 1377.4 1561.9 Q1378.61 1563.14 1382.27 1563.14 L1388.29 1563.14 L1388.29 1568.04 L1382.27 1568.04 Q1375.49 1568.04 1372.91 1565.53 Q1370.33 1562.98 1370.33 1556.3 L1370.33 1536.95 L1366.04 1536.95 L1366.04 1532.4 L1370.33 1532.4 L1370.33 1522.27 L1376.22 1522.27 Z" fill="#000000" fill-rule="nonzero" fill-opacity="1" /><polyline clip-path="url(#clip002)" style="stroke:#000000; stroke-linecap:round; stroke-linejoin:round; stroke-width:2; stroke-opacity:0.1; fill:none" points="219.38,1384.24 2352.76,1384.24 "/>
<polyline clip-path="url(#clip002)" style="stroke:#000000; stroke-linecap:round; stroke-linejoin:round; stroke-width:2; stroke-opacity:0.1; fill:none" points="219.38,1121.26 2352.76,1121.26 "/>
<polyline clip-path="url(#clip002)" style="stroke:#000000; stroke-linecap:round; stroke-linejoin:round; stroke-width:2; stroke-opacity:0.1; fill:none" points="219.38,858.273 2352.76,858.273 "/>
<polyline clip-path="url(#clip002)" style="stroke:#000000; stroke-linecap:round; stroke-linejoin:round; stroke-width:2; stroke-opacity:0.1; fill:none" points="219.38,595.29 2352.76,595.29 "/>
<polyline clip-path="url(#clip002)" style="stroke:#000000; stroke-linecap:round; stroke-linejoin:round; stroke-width:2; stroke-opacity:0.1; fill:none" points="219.38,332.308 2352.76,332.308 "/>
<polyline clip-path="url(#clip002)" style="stroke:#000000; stroke-linecap:round; stroke-linejoin:round; stroke-width:2; stroke-opacity:0.1; fill:none" points="219.38,69.325 2352.76,69.325 "/>
<polyline clip-path="url(#clip000)" style="stroke:#000000; stroke-linecap:round; stroke-linejoin:round; stroke-width:4; stroke-opacity:1; fill:none" points="219.38,1423.18 219.38,47.2441 "/>
<polyline clip-path="url(#clip000)" style="stroke:#000000; stroke-linecap:round; stroke-linejoin:round; stroke-width:4; stroke-opacity:1; fill:none" points="219.38,1384.24 238.278,1384.24 "/>
<polyline clip-path="url(#clip000)" style="stroke:#000000; stroke-linecap:round; stroke-linejoin:round; stroke-width:4; stroke-opacity:1; fill:none" points="219.38,1121.26 238.278,1121.26 "/>
<polyline clip-path="url(#clip000)" style="stroke:#000000; stroke-linecap:round; stroke-linejoin:round; stroke-width:4; stroke-opacity:1; fill:none" points="219.38,858.273 238.278,858.273 "/>
<polyline clip-path="url(#clip000)" style="stroke:#000000; stroke-linecap:round; stroke-linejoin:round; stroke-width:4; stroke-opacity:1; fill:none" points="219.38,595.29 238.278,595.29 "/>
<polyline clip-path="url(#clip000)" style="stroke:#000000; stroke-linecap:round; stroke-linejoin:round; stroke-width:4; stroke-opacity:1; fill:none" points="219.38,332.308 238.278,332.308 "/>
<polyline clip-path="url(#clip000)" style="stroke:#000000; stroke-linecap:round; stroke-linejoin:round; stroke-width:4; stroke-opacity:1; fill:none" points="219.38,69.325 238.278,69.325 "/>
<path clip-path="url(#clip000)" d="M126.205 1370.04 Q122.593 1370.04 120.765 1373.6 Q118.959 1377.14 118.959 1384.27 Q118.959 1391.38 120.765 1394.94 Q122.593 1398.49 126.205 1398.49 Q129.839 1398.49 131.644 1394.94 Q133.473 1391.38 133.473 1384.27 Q133.473 1377.14 131.644 1373.6 Q129.839 1370.04 126.205 1370.04 M126.205 1366.33 Q132.015 1366.33 135.07 1370.94 Q138.149 1375.52 138.149 1384.27 Q138.149 1393 135.07 1397.61 Q132.015 1402.19 126.205 1402.19 Q120.394 1402.19 117.316 1397.61 Q114.26 1393 114.26 1384.27 Q114.26 1375.52 117.316 1370.94 Q120.394 1366.33 126.205 1366.33 Z" fill="#000000" fill-rule="nonzero" fill-opacity="1" /><path clip-path="url(#clip000)" d="M146.366 1395.64 L151.251 1395.64 L151.251 1401.52 L146.366 1401.52 L146.366 1395.64 Z" fill="#000000" fill-rule="nonzero" fill-opacity="1" /><path clip-path="url(#clip000)" d="M171.436 1370.04 Q167.825 1370.04 165.996 1373.6 Q164.19 1377.14 164.19 1384.27 Q164.19 1391.38 165.996 1394.94 Q167.825 1398.49 171.436 1398.49 Q175.07 1398.49 176.876 1394.94 Q178.704 1391.38 178.704 1384.27 Q178.704 1377.14 176.876 1373.6 Q175.07 1370.04 171.436 1370.04 M171.436 1366.33 Q177.246 1366.33 180.301 1370.94 Q183.38 1375.52 183.38 1384.27 Q183.38 1393 180.301 1397.61 Q177.246 1402.19 171.436 1402.19 Q165.626 1402.19 162.547 1397.61 Q159.491 1393 159.491 1384.27 Q159.491 1375.52 162.547 1370.94 Q165.626 1366.33 171.436 1366.33 Z" fill="#000000" fill-rule="nonzero" fill-opacity="1" /><path clip-path="url(#clip000)" d="M127.2 1107.05 Q123.589 1107.05 121.76 1110.62 Q119.955 1114.16 119.955 1121.29 Q119.955 1128.4 121.76 1131.96 Q123.589 1135.5 127.2 1135.5 Q130.834 1135.5 132.64 1131.96 Q134.468 1128.4 134.468 1121.29 Q134.468 1114.16 132.64 1110.62 Q130.834 1107.05 127.2 1107.05 M127.2 1103.35 Q133.01 1103.35 136.066 1107.96 Q139.144 1112.54 139.144 1121.29 Q139.144 1130.02 136.066 1134.62 Q133.01 1139.21 127.2 1139.21 Q121.39 1139.21 118.311 1134.62 Q115.256 1130.02 115.256 1121.29 Q115.256 1112.54 118.311 1107.96 Q121.39 1103.35 127.2 1103.35 Z" fill="#000000" fill-rule="nonzero" fill-opacity="1" /><path clip-path="url(#clip000)" d="M147.362 1132.66 L152.246 1132.66 L152.246 1138.54 L147.362 1138.54 L147.362 1132.66 Z" fill="#000000" fill-rule="nonzero" fill-opacity="1" /><path clip-path="url(#clip000)" d="M162.477 1103.98 L180.834 1103.98 L180.834 1107.91 L166.76 1107.91 L166.76 1116.38 Q167.778 1116.04 168.797 1115.87 Q169.815 1115.69 170.834 1115.69 Q176.621 1115.69 180.001 1118.86 Q183.38 1122.03 183.38 1127.45 Q183.38 1133.03 179.908 1136.13 Q176.436 1139.21 170.116 1139.21 Q167.94 1139.21 165.672 1138.84 Q163.427 1138.47 161.019 1137.73 L161.019 1133.03 Q163.102 1134.16 165.325 1134.72 Q167.547 1135.27 170.024 1135.27 Q174.028 1135.27 176.366 1133.17 Q178.704 1131.06 178.704 1127.45 Q178.704 1123.84 176.366 1121.73 Q174.028 1119.62 170.024 1119.62 Q168.149 1119.62 166.274 1120.04 Q164.422 1120.46 162.477 1121.34 L162.477 1103.98 Z" fill="#000000" fill-rule="nonzero" fill-opacity="1" /><path clip-path="url(#clip000)" d="M117.015 871.618 L124.654 871.618 L124.654 845.252 L116.343 846.919 L116.343 842.66 L124.607 840.993 L129.283 840.993 L129.283 871.618 L136.922 871.618 L136.922 875.553 L117.015 875.553 L117.015 871.618 Z" fill="#000000" fill-rule="nonzero" fill-opacity="1" /><path clip-path="url(#clip000)" d="M146.366 869.673 L151.251 869.673 L151.251 875.553 L146.366 875.553 L146.366 869.673 Z" fill="#000000" fill-rule="nonzero" fill-opacity="1" /><path clip-path="url(#clip000)" d="M171.436 844.072 Q167.825 844.072 165.996 847.636 Q164.19 851.178 164.19 858.308 Q164.19 865.414 165.996 868.979 Q167.825 872.521 171.436 872.521 Q175.07 872.521 176.876 868.979 Q178.704 865.414 178.704 858.308 Q178.704 851.178 176.876 847.636 Q175.07 844.072 171.436 844.072 M171.436 840.368 Q177.246 840.368 180.301 844.974 Q183.38 849.558 183.38 858.308 Q183.38 867.035 180.301 871.641 Q177.246 876.224 171.436 876.224 Q165.626 876.224 162.547 871.641 Q159.491 867.035 159.491 858.308 Q159.491 849.558 162.547 844.974 Q165.626 840.368 171.436 840.368 Z" fill="#000000" fill-rule="nonzero" fill-opacity="1" /><path clip-path="url(#clip000)" d="M118.01 608.635 L125.649 608.635 L125.649 582.27 L117.339 583.936 L117.339 579.677 L125.603 578.01 L130.279 578.01 L130.279 608.635 L137.917 608.635 L137.917 612.57 L118.01 612.57 L118.01 608.635 Z" fill="#000000" fill-rule="nonzero" fill-opacity="1" /><path clip-path="url(#clip000)" d="M147.362 606.691 L152.246 606.691 L152.246 612.57 L147.362 612.57 L147.362 606.691 Z" fill="#000000" fill-rule="nonzero" fill-opacity="1" /><path clip-path="url(#clip000)" d="M162.477 578.01 L180.834 578.01 L180.834 581.945 L166.76 581.945 L166.76 590.418 Q167.778 590.07 168.797 589.908 Q169.815 589.723 170.834 589.723 Q176.621 589.723 180.001 592.895 Q183.38 596.066 183.38 601.482 Q183.38 607.061 179.908 610.163 Q176.436 613.242 170.116 613.242 Q167.94 613.242 165.672 612.871 Q163.427 612.501 161.019 611.76 L161.019 607.061 Q163.102 608.195 165.325 608.751 Q167.547 609.306 170.024 609.306 Q174.028 609.306 176.366 607.2 Q178.704 605.094 178.704 601.482 Q178.704 597.871 176.366 595.765 Q174.028 593.658 170.024 593.658 Q168.149 593.658 166.274 594.075 Q164.422 594.492 162.477 595.371 L162.477 578.01 Z" fill="#000000" fill-rule="nonzero" fill-opacity="1" /><path clip-path="url(#clip000)" d="M120.232 345.653 L136.552 345.653 L136.552 349.588 L114.607 349.588 L114.607 345.653 Q117.269 342.898 121.853 338.268 Q126.459 333.616 127.64 332.273 Q129.885 329.75 130.765 328.014 Q131.667 326.254 131.667 324.565 Q131.667 321.81 129.723 320.074 Q127.802 318.338 124.7 318.338 Q122.501 318.338 120.047 319.102 Q117.617 319.866 114.839 321.417 L114.839 316.694 Q117.663 315.56 120.117 314.981 Q122.57 314.403 124.607 314.403 Q129.978 314.403 133.172 317.088 Q136.367 319.773 136.367 324.264 Q136.367 326.393 135.556 328.315 Q134.769 330.213 132.663 332.805 Q132.084 333.477 128.982 336.694 Q125.88 339.889 120.232 345.653 Z" fill="#000000" fill-rule="nonzero" fill-opacity="1" /><path clip-path="url(#clip000)" d="M146.366 343.708 L151.251 343.708 L151.251 349.588 L146.366 349.588 L146.366 343.708 Z" fill="#000000" fill-rule="nonzero" fill-opacity="1" /><path clip-path="url(#clip000)" d="M171.436 318.106 Q167.825 318.106 165.996 321.671 Q164.19 325.213 164.19 332.342 Q164.19 339.449 165.996 343.014 Q167.825 346.555 171.436 346.555 Q175.07 346.555 176.876 343.014 Q178.704 339.449 178.704 332.342 Q178.704 325.213 176.876 321.671 Q175.07 318.106 171.436 318.106 M171.436 314.403 Q177.246 314.403 180.301 319.009 Q183.38 323.592 183.38 332.342 Q183.38 341.069 180.301 345.676 Q177.246 350.259 171.436 350.259 Q165.626 350.259 162.547 345.676 Q159.491 341.069 159.491 332.342 Q159.491 323.592 162.547 319.009 Q165.626 314.403 171.436 314.403 Z" fill="#000000" fill-rule="nonzero" fill-opacity="1" /><path clip-path="url(#clip000)" d="M121.228 82.6699 L137.547 82.6699 L137.547 86.605 L115.603 86.605 L115.603 82.6699 Q118.265 79.9153 122.848 75.2857 Q127.455 70.6329 128.635 69.2903 Q130.88 66.7672 131.76 65.0311 Q132.663 63.2718 132.663 61.582 Q132.663 58.8274 130.718 57.0913 Q128.797 55.3552 125.695 55.3552 Q123.496 55.3552 121.043 56.1191 Q118.612 56.883 115.834 58.4339 L115.834 53.7117 Q118.658 52.5774 121.112 51.9987 Q123.566 51.42 125.603 51.42 Q130.973 51.42 134.167 54.1052 Q137.362 56.7904 137.362 61.2811 Q137.362 63.4107 136.552 65.332 Q135.765 67.2301 133.658 69.8227 Q133.08 70.494 129.978 73.7116 Q126.876 76.906 121.228 82.6699 Z" fill="#000000" fill-rule="nonzero" fill-opacity="1" /><path clip-path="url(#clip000)" d="M147.362 80.7254 L152.246 80.7254 L152.246 86.605 L147.362 86.605 L147.362 80.7254 Z" fill="#000000" fill-rule="nonzero" fill-opacity="1" /><path clip-path="url(#clip000)" d="M162.477 52.045 L180.834 52.045 L180.834 55.9802 L166.76 55.9802 L166.76 64.4524 Q167.778 64.1052 168.797 63.9431 Q169.815 63.7579 170.834 63.7579 Q176.621 63.7579 180.001 66.9292 Q183.38 70.1005 183.38 75.5171 Q183.38 81.0958 179.908 84.1976 Q176.436 87.2763 170.116 87.2763 Q167.94 87.2763 165.672 86.906 Q163.427 86.5356 161.019 85.7949 L161.019 81.0958 Q163.102 82.2301 165.325 82.7856 Q167.547 83.3412 170.024 83.3412 Q174.028 83.3412 176.366 81.2347 Q178.704 79.1282 178.704 75.5171 Q178.704 71.906 176.366 69.7996 Q174.028 67.6931 170.024 67.6931 Q168.149 67.6931 166.274 68.1098 Q164.422 68.5264 162.477 69.4061 L162.477 52.045 Z" fill="#000000" fill-rule="nonzero" fill-opacity="1" /><path clip-path="url(#clip000)" d="M20.1444 967.497 L26.9239 967.497 Q23.9002 970.743 22.4043 974.435 Q20.9083 978.096 20.9083 982.233 Q20.9083 990.381 25.9054 994.71 Q30.8707 999.039 40.2919 999.039 Q49.6813 999.039 54.6784 994.71 Q59.6436 990.381 59.6436 982.233 Q59.6436 978.096 58.1477 974.435 Q56.6518 970.743 53.6281 967.497 L60.3439 967.497 Q62.6355 970.87 63.7814 974.658 Q64.9272 978.414 64.9272 982.615 Q64.9272 993.405 58.3387 999.612 Q51.7183 1005.82 40.2919 1005.82 Q28.8336 1005.82 22.2451 999.612 Q15.6248 993.405 15.6248 982.615 Q15.6248 978.35 16.7706 974.594 Q17.8846 970.807 20.1444 967.497 Z" fill="#000000" fill-rule="nonzero" fill-opacity="1" /><path clip-path="url(#clip000)" d="M32.4621 944.007 Q32.4621 948.718 36.1542 951.455 Q39.8145 954.192 46.212 954.192 Q52.6095 954.192 56.3017 951.487 Q59.9619 948.75 59.9619 944.007 Q59.9619 939.328 56.2698 936.591 Q52.5777 933.854 46.212 933.854 Q39.8781 933.854 36.186 936.591 Q32.4621 939.328 32.4621 944.007 M27.4968 944.007 Q27.4968 936.368 32.4621 932.008 Q37.4273 927.647 46.212 927.647 Q54.9649 927.647 59.9619 932.008 Q64.9272 936.368 64.9272 944.007 Q64.9272 951.678 59.9619 956.038 Q54.9649 960.367 46.212 960.367 Q37.4273 960.367 32.4621 956.038 Q27.4968 951.678 27.4968 944.007 Z" fill="#000000" fill-rule="nonzero" fill-opacity="1" /><path clip-path="url(#clip000)" d="M42.4881 888.307 L64.0042 888.307 L64.0042 894.164 L42.679 894.164 Q37.6183 894.164 35.1038 896.137 Q32.5894 898.11 32.5894 902.057 Q32.5894 906.8 35.6131 909.537 Q38.6368 912.274 43.8567 912.274 L64.0042 912.274 L64.0042 918.162 L28.3562 918.162 L28.3562 912.274 L33.8944 912.274 Q30.6797 910.173 29.0883 907.341 Q27.4968 904.476 27.4968 900.752 Q27.4968 894.609 31.3163 891.458 Q35.1038 888.307 42.4881 888.307 Z" fill="#000000" fill-rule="nonzero" fill-opacity="1" /><path clip-path="url(#clip000)" d="M29.4065 853.901 L34.9447 853.901 Q33.6716 856.383 33.035 859.057 Q32.3984 861.73 32.3984 864.595 Q32.3984 868.955 33.7352 871.152 Q35.072 873.316 37.7456 873.316 Q39.7826 873.316 40.9603 871.756 Q42.1061 870.197 43.1565 865.486 L43.6021 863.481 Q44.9389 857.243 47.3897 854.633 Q49.8086 851.991 54.1691 851.991 Q59.1344 851.991 62.0308 855.938 Q64.9272 859.853 64.9272 866.727 Q64.9272 869.592 64.3543 872.711 Q63.8132 875.799 62.6992 879.236 L56.6518 879.236 Q58.3387 875.99 59.198 872.839 Q60.0256 869.688 60.0256 866.6 Q60.0256 862.462 58.6251 860.234 Q57.1929 858.006 54.6147 858.006 Q52.2276 858.006 50.9545 859.63 Q49.6813 861.221 48.5037 866.664 L48.0262 868.701 Q46.8804 874.144 44.5251 876.562 Q42.138 878.981 38.0002 878.981 Q32.9713 878.981 30.2341 875.417 Q27.4968 871.852 27.4968 865.295 Q27.4968 862.049 27.9743 859.184 Q28.4517 856.32 29.4065 853.901 Z" fill="#000000" fill-rule="nonzero" fill-opacity="1" /><path clip-path="url(#clip000)" d="M49.9359 843.27 L28.3562 843.27 L28.3562 837.413 L49.7131 837.413 Q54.7739 837.413 57.3202 835.44 Q59.8346 833.467 59.8346 829.52 Q59.8346 824.777 56.8109 822.04 Q53.7872 819.271 48.5673 819.271 L28.3562 819.271 L28.3562 813.415 L64.0042 813.415 L64.0042 819.271 L58.5296 819.271 Q61.7762 821.404 63.3676 824.236 Q64.9272 827.037 64.9272 830.761 Q64.9272 836.904 61.1078 840.087 Q57.2883 843.27 49.9359 843.27 M27.4968 828.533 L27.4968 828.533 Z" fill="#000000" fill-rule="nonzero" fill-opacity="1" /><path clip-path="url(#clip000)" d="M35.1993 773.597 Q31.2526 771.401 29.3747 768.345 Q27.4968 765.29 27.4968 761.152 Q27.4968 755.582 31.4117 752.559 Q35.2948 749.535 42.4881 749.535 L64.0042 749.535 L64.0042 755.423 L42.679 755.423 Q37.5546 755.423 35.072 757.237 Q32.5894 759.052 32.5894 762.775 Q32.5894 767.327 35.6131 769.969 Q38.6368 772.61 43.8567 772.61 L64.0042 772.61 L64.0042 778.499 L42.679 778.499 Q37.5228 778.499 35.072 780.313 Q32.5894 782.127 32.5894 785.915 Q32.5894 790.403 35.6449 793.044 Q38.6686 795.686 43.8567 795.686 L64.0042 795.686 L64.0042 801.574 L28.3562 801.574 L28.3562 795.686 L33.8944 795.686 Q30.616 793.681 29.0564 790.88 Q27.4968 788.079 27.4968 784.228 Q27.4968 780.345 29.4702 777.639 Q31.4436 774.902 35.1993 773.597 Z" fill="#000000" fill-rule="nonzero" fill-opacity="1" /><path clip-path="url(#clip000)" d="M58.657 732.188 L77.5631 732.188 L77.5631 738.077 L28.3562 738.077 L28.3562 732.188 L33.7671 732.188 Q30.5842 730.342 29.0564 727.541 Q27.4968 724.709 27.4968 720.794 Q27.4968 714.301 32.6531 710.258 Q37.8093 706.184 46.212 706.184 Q54.6147 706.184 59.771 710.258 Q64.9272 714.301 64.9272 720.794 Q64.9272 724.709 63.3994 727.541 Q61.8398 730.342 58.657 732.188 M46.212 712.264 Q39.7508 712.264 36.0905 714.937 Q32.3984 717.579 32.3984 722.226 Q32.3984 726.873 36.0905 729.546 Q39.7508 732.188 46.212 732.188 Q52.6732 732.188 56.3653 729.546 Q60.0256 726.873 60.0256 722.226 Q60.0256 717.579 56.3653 714.937 Q52.6732 712.264 46.212 712.264 Z" fill="#000000" fill-rule="nonzero" fill-opacity="1" /><path clip-path="url(#clip000)" d="M18.2347 690.684 L28.3562 690.684 L28.3562 678.621 L32.9077 678.621 L32.9077 690.684 L52.2594 690.684 Q56.6199 690.684 57.8613 689.506 Q59.1026 688.297 59.1026 684.636 L59.1026 678.621 L64.0042 678.621 L64.0042 684.636 Q64.0042 691.416 61.4897 693.994 Q58.9434 696.572 52.2594 696.572 L32.9077 696.572 L32.9077 700.869 L28.3562 700.869 L28.3562 696.572 L18.2347 696.572 L18.2347 690.684 Z" fill="#000000" fill-rule="nonzero" fill-opacity="1" /><path clip-path="url(#clip000)" d="M28.3562 670.918 L28.3562 665.062 L64.0042 665.062 L64.0042 670.918 L28.3562 670.918 M14.479 670.918 L14.479 665.062 L21.895 665.062 L21.895 670.918 L14.479 670.918 Z" fill="#000000" fill-rule="nonzero" fill-opacity="1" /><path clip-path="url(#clip000)" d="M32.4621 638.994 Q32.4621 643.705 36.1542 646.442 Q39.8145 649.179 46.212 649.179 Q52.6095 649.179 56.3017 646.474 Q59.9619 643.737 59.9619 638.994 Q59.9619 634.316 56.2698 631.578 Q52.5777 628.841 46.212 628.841 Q39.8781 628.841 36.186 631.578 Q32.4621 634.316 32.4621 638.994 M27.4968 638.994 Q27.4968 631.355 32.4621 626.995 Q37.4273 622.634 46.212 622.634 Q54.9649 622.634 59.9619 626.995 Q64.9272 631.355 64.9272 638.994 Q64.9272 646.665 59.9619 651.025 Q54.9649 655.354 46.212 655.354 Q37.4273 655.354 32.4621 651.025 Q27.4968 646.665 27.4968 638.994 Z" fill="#000000" fill-rule="nonzero" fill-opacity="1" /><path clip-path="url(#clip000)" d="M42.4881 583.294 L64.0042 583.294 L64.0042 589.151 L42.679 589.151 Q37.6183 589.151 35.1038 591.124 Q32.5894 593.098 32.5894 597.044 Q32.5894 601.787 35.6131 604.524 Q38.6368 607.261 43.8567 607.261 L64.0042 607.261 L64.0042 613.15 L28.3562 613.15 L28.3562 607.261 L33.8944 607.261 Q30.6797 605.161 29.0883 602.328 Q27.4968 599.463 27.4968 595.739 Q27.4968 589.596 31.3163 586.445 Q35.1038 583.294 42.4881 583.294 Z" fill="#000000" fill-rule="nonzero" fill-opacity="1" /><path clip-path="url(#clip000)" d="M29.7248 525.239 L35.1993 525.239 Q33.8307 527.722 33.1623 530.236 Q32.4621 532.719 32.4621 535.265 Q32.4621 540.962 36.0905 544.113 Q39.6872 547.264 46.212 547.264 Q52.7369 547.264 56.3653 544.113 Q59.9619 540.962 59.9619 535.265 Q59.9619 532.719 59.2935 530.236 Q58.5933 527.722 57.2247 525.239 L62.6355 525.239 Q63.7814 527.69 64.3543 530.332 Q64.9272 532.942 64.9272 535.902 Q64.9272 543.954 59.8664 548.697 Q54.8057 553.439 46.212 553.439 Q37.491 553.439 32.4939 548.665 Q27.4968 543.859 27.4968 535.52 Q27.4968 532.814 28.0697 530.236 Q28.6108 527.658 29.7248 525.239 Z" fill="#000000" fill-rule="nonzero" fill-opacity="1" /><path clip-path="url(#clip000)" d="M74.8259 487.968 L79.3773 487.968 L79.3773 521.833 L74.8259 521.833 L74.8259 487.968 Z" fill="#000000" fill-rule="nonzero" fill-opacity="1" /><path clip-path="url(#clip000)" d="M18.2347 476.669 L28.3562 476.669 L28.3562 464.606 L32.9077 464.606 L32.9077 476.669 L52.2594 476.669 Q56.6199 476.669 57.8613 475.491 Q59.1026 474.282 59.1026 470.621 L59.1026 464.606 L64.0042 464.606 L64.0042 470.621 Q64.0042 477.401 61.4897 479.979 Q58.9434 482.557 52.2594 482.557 L32.9077 482.557 L32.9077 486.854 L28.3562 486.854 L28.3562 482.557 L18.2347 482.557 L18.2347 476.669 Z" fill="#000000" fill-rule="nonzero" fill-opacity="1" /><polyline clip-path="url(#clip002)" style="stroke:#009af9; stroke-linecap:round; stroke-linejoin:round; stroke-width:4; stroke-opacity:1; fill:none" points="279.759,86.1857 289.822,119.053 299.885,151.088 309.948,182.312 320.011,212.746 330.074,242.409 340.137,271.32 350.2,299.5 360.263,326.966 370.327,353.737 380.39,379.83 390.453,405.262 400.516,430.05 410.579,454.211 420.642,477.76 430.705,500.712 440.768,523.084 450.831,544.889 460.894,566.141 470.957,586.856 481.021,607.046 491.084,626.725 501.147,645.906 511.21,664.601 521.273,682.822 531.336,700.583 541.399,717.893 551.462,734.765 561.525,751.21 571.588,767.239 581.652,782.862 591.715,798.089 601.778,812.931 611.841,827.397 621.904,841.496 631.967,855.239 642.03,868.633 652.093,881.689 662.156,894.413 672.219,906.816 682.282,918.905 692.346,930.687 702.409,942.171 712.472,953.365 722.535,964.275 732.598,974.908 742.661,985.273 752.724,995.375 762.787,1005.22 772.85,1014.82 782.913,1024.17 792.976,1033.29 803.04,1042.18 813.103,1050.84 823.166,1059.28 833.229,1067.51 843.292,1075.53 853.355,1083.34 863.418,1090.96 873.481,1098.39 883.544,1105.63 893.607,1112.68 903.67,1119.56 913.734,1126.26 923.797,1132.79 933.86,1139.16 943.923,1145.36 953.986,1151.41 964.049,1157.31 974.112,1163.05 984.175,1168.65 994.238,1174.11 1004.3,1179.43 1014.36,1184.62 1024.43,1189.67 1034.49,1194.6 1044.55,1199.4 1054.62,1204.08 1064.68,1208.64 1074.74,1213.09 1084.81,1217.42 1094.87,1221.65 1104.93,1225.76 1115,1229.78 1125.06,1233.69 1135.12,1237.5 1145.18,1241.21 1155.25,1244.84 1165.31,1248.37 1175.37,1251.81 1185.44,1255.16 1195.5,1258.43 1205.56,1261.61 1215.63,1264.72 1225.69,1267.74 1235.75,1270.69 1245.82,1273.57 1255.88,1276.37 1265.94,1279.1 1276,1281.76 1286.07,1284.36 1296.13,1286.89 1306.19,1289.35 1316.26,1291.76 1326.32,1294.1 1336.38,1296.38 1346.45,1298.6 1356.51,1300.77 1366.57,1302.89 1376.64,1304.95 1386.7,1306.95 1396.76,1308.91 1406.83,1310.82 1416.89,1312.68 1426.95,1314.49 1437.01,1316.26 1447.08,1317.98 1457.14,1319.65 1467.2,1321.29 1477.27,1322.88 1487.33,1324.44 1497.39,1325.95 1507.46,1327.43 1517.52,1328.87 1527.58,1330.27 1537.65,1331.63 1547.71,1332.97 1557.77,1334.26 1567.83,1335.53 1577.9,1336.76 1587.96,1337.97 1598.02,1339.14 1608.09,1340.28 1618.15,1341.39 1628.21,1342.48 1638.28,1343.53 1648.34,1344.57 1658.4,1345.57 1668.47,1346.55 1678.53,1347.5 1688.59,1348.43 1698.65,1349.34 1708.72,1350.22 1718.78,1351.08 1728.84,1351.92 1738.91,1352.74 1748.97,1353.54 1759.03,1354.32 1769.1,1355.07 1779.16,1355.81 1789.22,1356.53 1799.29,1357.23 1809.35,1357.92 1819.41,1358.58 1829.48,1359.23 1839.54,1359.87 1849.6,1360.48 1859.66,1361.09 1869.73,1361.67 1879.79,1362.24 1889.85,1362.8 1899.92,1363.34 1909.98,1363.87 1920.04,1364.39 1930.11,1364.89 1940.17,1365.38 1950.23,1365.86 1960.3,1366.32 1970.36,1366.78 1980.42,1367.22 1990.48,1367.65 2000.55,1368.07 2010.61,1368.48 2020.67,1368.88 2030.74,1369.27 2040.8,1369.65 2050.86,1370.02 2060.93,1370.38 2070.99,1370.73 2081.05,1371.07 2091.12,1371.4 2101.18,1371.73 2111.24,1372.04 2121.3,1372.35 2131.37,1372.65 2141.43,1372.95 2151.49,1373.23 2161.56,1373.51 2171.62,1373.78 2181.68,1374.05 2191.75,1374.31 2201.81,1374.56 2211.87,1374.8 2221.94,1375.04 2232,1375.27 2242.06,1375.5 2252.12,1375.72 2262.19,1375.94 2272.25,1376.15 2282.31,1376.35 2292.38,1384.24 "/>
</svg>