<?xml version="1.0" encoding="utf-8"?>
<svg xmlns="http://www.w3.org/2000/svg" xmlns:xlink="http://www.w3.org/1999/xlink" width="800" height="400" viewBox="0 0 3200 1600">
<defs>
  <clipPath id="clip360">
    <rect x="0" y="0" width="3200" height="1600"/>
  </clipPath>
</defs>
<path clip-path="url(#clip360)" d="M0 1600 L3200 1600 L3200 0 L0 0  Z" fill="#ffffff" fill-rule="evenodd" fill-opacity="1"/>
<defs>
  <clipPath id="clip361">
    <rect x="640" y="0" width="2241" height="1600"/>
  </clipPath>
</defs>
<path clip-path="url(#clip360)" d="M162.515 1495.09 L1560.29 1495.09 L1560.29 47.2441 L162.515 47.2441  Z" fill="#ffffff" fill-rule="evenodd" fill-opacity="1"/>
<defs>
  <clipPath id="clip362">
    <rect x="162" y="47" width="1399" height="1449"/>
  </clipPath>
</defs>
<polyline clip-path="url(#clip362)" style="stroke:#000000; stroke-linecap:round; stroke-linejoin:round; stroke-width:2; stroke-opacity:0.1; fill:none" points="188.888,1495.09 188.888,47.2441 "/>
<polyline clip-path="url(#clip362)" style="stroke:#000000; stroke-linecap:round; stroke-linejoin:round; stroke-width:2; stroke-opacity:0.1; fill:none" points="518.552,1495.09 518.552,47.2441 "/>
<polyline clip-path="url(#clip362)" style="stroke:#000000; stroke-linecap:round; stroke-linejoin:round; stroke-width:2; stroke-opacity:0.1; fill:none" points="848.216,1495.09 848.216,47.2441 "/>
<polyline clip-path="url(#clip362)" style="stroke:#000000; stroke-linecap:round; stroke-linejoin:round; stroke-width:2; stroke-opacity:0.1; fill:none" points="1177.88,1495.09 1177.88,47.2441 "/>
<polyline clip-path="url(#clip362)" style="stroke:#000000; stroke-linecap:round; stroke-linejoin:round; stroke-width:2; stroke-opacity:0.1; fill:none" points="1507.54,1495.09 1507.54,47.2441 "/>
<polyline clip-path="url(#clip360)" style="stroke:#000000; stroke-linecap:round; stroke-linejoin:round; stroke-width:4; stroke-opacity:1; fill:none" points="162.515,1495.09 1560.29,1495.09 "/>
<polyline clip-path="url(#clip360)" style="stroke:#000000; stroke-linecap:round; stroke-linejoin:round; stroke-width:4; stroke-opacity:1; fill:none" points="188.888,1495.09 188.888,1476.19 "/>
<polyline clip-path="url(#clip360)" style="stroke:#000000; stroke-linecap:round; stroke-linejoin:round; stroke-width:4; stroke-opacity:1; fill:none" points="518.552,1495.09 518.552,1476.19 "/>
<polyline clip-path="url(#clip360)" style="stroke:#000000; stroke-linecap:round; stroke-linejoin:round; stroke-width:4; stroke-opacity:1; fill:none" points="848.216,1495.09 848.216,1476.19 "/>
<polyline clip-path="url(#clip360)" style="stroke:#000000; stroke-linecap:round; stroke-linejoin:round; stroke-width:4; stroke-opacity:1; fill:none" points="1177.88,1495.09 1177.88,1476.19 "/>
<polyline clip-path="url(#clip360)" style="stroke:#000000; stroke-linecap:round; stroke-linejoin:round; stroke-width:4; stroke-opacity:1; fill:none" points="1507.54,1495.09 1507.54,1476.19 "/>
<path clip-path="url(#clip360)" d="M188.888 1532.41 Q185.277 1532.41 183.448 1535.97 Q181.643 1539.51 181.643 1546.64 Q181.643 1553.75 183.448 1557.31 Q185.277 1560.86 188.888 1560.86 Q192.522 1560.86 194.328 1557.31 Q196.157 1553.75 196.157 1546.64 Q196.157 1539.51 194.328 1535.97 Q192.522 1532.41 188.888 1532.41 M188.888 1528.7 Q194.698 1528.7 197.754 1533.31 Q200.832 1537.89 200.832 1546.64 Q200.832 1555.37 197.754 1559.98 Q194.698 1564.56 188.888 1564.56 Q183.078 1564.56 179.999 1559.98 Q176.944 1555.37 176.944 1546.64 Q176.944 1537.89 179.999 1533.31 Q183.078 1528.7 188.888 1528.7 Z" fill="#000000" fill-rule="nonzero" fill-opacity="1" /><path clip-path="url(#clip360)" d="M497.823 1559.95 L514.142 1559.95 L514.142 1563.89 L492.198 1563.89 L492.198 1559.95 Q494.86 1557.2 499.443 1552.57 Q504.05 1547.92 505.23 1546.57 Q507.476 1544.05 508.355 1542.31 Q509.258 1540.55 509.258 1538.86 Q509.258 1536.11 507.314 1534.37 Q505.392 1532.64 502.291 1532.64 Q500.092 1532.64 497.638 1533.4 Q495.207 1534.17 492.43 1535.72 L492.43 1530.99 Q495.254 1529.86 497.707 1529.28 Q500.161 1528.7 502.198 1528.7 Q507.568 1528.7 510.763 1531.39 Q513.957 1534.07 513.957 1538.56 Q513.957 1540.69 513.147 1542.61 Q512.36 1544.51 510.254 1547.11 Q509.675 1547.78 506.573 1550.99 Q503.471 1554.19 497.823 1559.95 Z" fill="#000000" fill-rule="nonzero" fill-opacity="1" /><path clip-path="url(#clip360)" d="M524.003 1529.33 L542.36 1529.33 L542.36 1533.26 L528.286 1533.26 L528.286 1541.74 Q529.304 1541.39 530.323 1541.23 Q531.341 1541.04 532.36 1541.04 Q538.147 1541.04 541.527 1544.21 Q544.906 1547.38 544.906 1552.8 Q544.906 1558.38 541.434 1561.48 Q537.962 1564.56 531.642 1564.56 Q529.466 1564.56 527.198 1564.19 Q524.953 1563.82 522.545 1563.08 L522.545 1558.38 Q524.628 1559.51 526.851 1560.07 Q529.073 1560.62 531.55 1560.62 Q535.554 1560.62 537.892 1558.52 Q540.23 1556.41 540.23 1552.8 Q540.23 1549.19 537.892 1547.08 Q535.554 1544.98 531.55 1544.98 Q529.675 1544.98 527.8 1545.39 Q525.948 1545.81 524.003 1546.69 L524.003 1529.33 Z" fill="#000000" fill-rule="nonzero" fill-opacity="1" /><path clip-path="url(#clip360)" d="M822.915 1529.33 L841.272 1529.33 L841.272 1533.26 L827.198 1533.26 L827.198 1541.74 Q828.216 1541.39 829.235 1541.23 Q830.253 1541.04 831.272 1541.04 Q837.059 1541.04 840.438 1544.21 Q843.818 1547.38 843.818 1552.8 Q843.818 1558.38 840.346 1561.48 Q836.874 1564.56 830.554 1564.56 Q828.378 1564.56 826.11 1564.19 Q823.864 1563.82 821.457 1563.08 L821.457 1558.38 Q823.54 1559.51 825.763 1560.07 Q827.985 1560.62 830.462 1560.62 Q834.466 1560.62 836.804 1558.52 Q839.142 1556.41 839.142 1552.8 Q839.142 1549.19 836.804 1547.08 Q834.466 1544.98 830.462 1544.98 Q828.587 1544.98 826.712 1545.39 Q824.86 1545.81 822.915 1546.69 L822.915 1529.33 Z" fill="#000000" fill-rule="nonzero" fill-opacity="1" /><path clip-path="url(#clip360)" d="M863.031 1532.41 Q859.42 1532.41 857.591 1535.97 Q855.786 1539.51 855.786 1546.64 Q855.786 1553.75 857.591 1557.31 Q859.42 1560.86 863.031 1560.86 Q866.665 1560.86 868.471 1557.31 Q870.299 1553.75 870.299 1546.64 Q870.299 1539.51 868.471 1535.97 Q866.665 1532.41 863.031 1532.41 M863.031 1528.7 Q868.841 1528.7 871.897 1533.31 Q874.975 1537.89 874.975 1546.64 Q874.975 1555.37 871.897 1559.98 Q868.841 1564.56 863.031 1564.56 Q857.221 1564.56 854.142 1559.98 Q851.087 1555.37 851.087 1546.64 Q851.087 1537.89 854.142 1533.31 Q857.221 1528.7 863.031 1528.7 Z" fill="#000000" fill-rule="nonzero" fill-opacity="1" /><path clip-path="url(#clip360)" d="M1151.73 1529.33 L1173.96 1529.33 L1173.96 1531.32 L1161.41 1563.89 L1156.53 1563.89 L1168.33 1533.26 L1151.73 1533.26 L1151.73 1529.33 Z" fill="#000000" fill-rule="nonzero" fill-opacity="1" /><path clip-path="url(#clip360)" d="M1183.12 1529.33 L1201.48 1529.33 L1201.48 1533.26 L1187.41 1533.26 L1187.41 1541.74 Q1188.42 1541.39 1189.44 1541.23 Q1190.46 1541.04 1191.48 1541.04 Q1197.27 1541.04 1200.65 1544.21 Q1204.03 1547.38 1204.03 1552.8 Q1204.03 1558.38 1200.55 1561.48 Q1197.08 1564.56 1190.76 1564.56 Q1188.59 1564.56 1186.32 1564.19 Q1184.07 1563.82 1181.66 1563.08 L1181.66 1558.38 Q1183.75 1559.51 1185.97 1560.07 Q1188.19 1560.62 1190.67 1560.62 Q1194.67 1560.62 1197.01 1558.52 Q1199.35 1556.41 1199.35 1552.8 Q1199.35 1549.19 1197.01 1547.08 Q1194.67 1544.98 1190.67 1544.98 Q1188.79 1544.98 1186.92 1545.39 Q1185.07 1545.81 1183.12 1546.69 L1183.12 1529.33 Z" fill="#000000" fill-rule="nonzero" fill-opacity="1" /><path clip-path="url(#clip360)" d="M1467.15 1559.95 L1474.79 1559.95 L1474.79 1533.59 L1466.48 1535.25 L1466.48 1530.99 L1474.74 1529.33 L1479.42 1529.33 L1479.42 1559.95 L1487.06 1559.95 L1487.06 1563.89 L1467.15 1563.89 L1467.15 1559.95 Z" fill="#000000" fill-rule="nonzero" fill-opacity="1" /><path clip-path="url(#clip360)" d="M1506.5 1532.41 Q1502.89 1532.41 1501.06 1535.97 Q1499.26 1539.51 1499.26 1546.64 Q1499.26 1553.75 1501.06 1557.31 Q1502.89 1560.86 1506.5 1560.86 Q1510.14 1560.86 1511.94 1557.31 Q1513.77 1553.75 1513.77 1546.64 Q1513.77 1539.51 1511.94 1535.97 Q1510.14 1532.41 1506.5 1532.41 M1506.5 1528.7 Q1512.31 1528.7 1515.37 1533.31 Q1518.45 1537.89 1518.45 1546.64 Q1518.45 1555.37 1515.37 1559.98 Q1512.31 1564.56 1506.5 1564.56 Q1500.69 1564.56 1497.61 1559.98 Q1494.56 1555.37 1494.56 1546.64 Q1494.56 1537.89 1497.61 1533.31 Q1500.69 1528.7 1506.5 1528.7 Z" fill="#000000" fill-rule="nonzero" fill-opacity="1" /><path clip-path="url(#clip360)" d="M1536.66 1532.41 Q1533.05 1532.41 1531.22 1535.97 Q1529.42 1539.51 1529.42 1546.64 Q1529.42 1553.75 1531.22 1557.31 Q1533.05 1560.86 1536.66 1560.86 Q1540.3 1560.86 1542.1 1557.31 Q1543.93 1553.75 1543.93 1546.64 Q1543.93 1539.51 1542.1 1535.97 Q1540.3 1532.41 1536.66 1532.41 M1536.66 1528.7 Q1542.47 1528.7 1545.53 1533.31 Q1548.61 1537.89 1548.61 1546.64 Q1548.61 1555.37 1545.53 1559.98 Q1542.47 1564.56 1536.66 1564.56 Q1530.85 1564.56 1527.78 1559.98 Q1524.72 1555.37 1524.72 1546.64 Q1524.72 1537.89 1527.78 1533.31 Q1530.85 1528.7 1536.66 1528.7 Z" fill="#000000" fill-rule="nonzero" fill-opacity="1" /><polyline clip-path="url(#clip362)" style="stroke:#000000; stroke-linecap:round; stroke-linejoin:round; stroke-width:2; stroke-opacity:0.1; fill:none" points="162.515,1471.73 1560.29,1471.73 "/>
<polyline clip-path="url(#clip362)" style="stroke:#000000; stroke-linecap:round; stroke-linejoin:round; stroke-width:2; stroke-opacity:0.1; fill:none" points="162.515,1256.14 1560.29,1256.14 "/>
<polyline clip-path="url(#clip362)" style="stroke:#000000; stroke-linecap:round; stroke-linejoin:round; stroke-width:2; stroke-opacity:0.1; fill:none" points="162.515,1040.56 1560.29,1040.56 "/>
<polyline clip-path="url(#clip362)" style="stroke:#000000; stroke-linecap:round; stroke-linejoin:round; stroke-width:2; stroke-opacity:0.1; fill:none" points="162.515,824.968 1560.29,824.968 "/>
<polyline clip-path="url(#clip362)" style="stroke:#000000; stroke-linecap:round; stroke-linejoin:round; stroke-width:2; stroke-opacity:0.1; fill:none" points="162.515,609.379 1560.29,609.379 "/>
<polyline clip-path="url(#clip362)" style="stroke:#000000; stroke-linecap:round; stroke-linejoin:round; stroke-width:2; stroke-opacity:0.1; fill:none" points="162.515,393.791 1560.29,393.791 "/>
<polyline clip-path="url(#clip362)" style="stroke:#000000; stroke-linecap:round; stroke-linejoin:round; stroke-width:2; stroke-opacity:0.1; fill:none" points="162.515,178.202 1560.29,178.202 "/>
<polyline clip-path="url(#clip360)" style="stroke:#000000; stroke-linecap:round; stroke-linejoin:round; stroke-width:4; stroke-opacity:1; fill:none" points="162.515,1495.09 162.515,47.2441 "/>
<polyline clip-path="url(#clip360)" style="stroke:#000000; stroke-linecap:round; stroke-linejoin:round; stroke-width:4; stroke-opacity:1; fill:none" points="162.515,1471.73 181.413,1471.73 "/>
<polyline clip-path="url(#clip360)" style="stroke:#000000; stroke-linecap:round; stroke-linejoin:round; stroke-width:4; stroke-opacity:1; fill:none" points="162.515,1256.14 181.413,1256.14 "/>
<polyline clip-path="url(#clip360)" style="stroke:#000000; stroke-linecap:round; stroke-linejoin:round; stroke-width:4; stroke-opacity:1; fill:none" points="162.515,1040.56 181.413,1040.56 "/>
<polyline clip-path="url(#clip360)" style="stroke:#000000; stroke-linecap:round; stroke-linejoin:round; stroke-width:4; stroke-opacity:1; fill:none" points="162.515,824.968 181.413,824.968 "/>
<polyline clip-path="url(#clip360)" style="stroke:#000000; stroke-linecap:round; stroke-linejoin:round; stroke-width:4; stroke-opacity:1; fill:none" points="162.515,609.379 181.413,609.379 "/>
<polyline clip-path="url(#clip360)" style="stroke:#000000; stroke-linecap:round; stroke-linejoin:round; stroke-width:4; stroke-opacity:1; fill:none" points="162.515,393.791 181.413,393.791 "/>
<polyline clip-path="url(#clip360)" style="stroke:#000000; stroke-linecap:round; stroke-linejoin:round; stroke-width:4; stroke-opacity:1; fill:none" points="162.515,178.202 181.413,178.202 "/>
<path clip-path="url(#clip360)" d="M48.1495 1485.08 L55.7884 1485.08 L55.7884 1458.71 L47.4782 1460.38 L47.4782 1456.12 L55.7421 1454.45 L60.418 1454.45 L60.418 1485.08 L68.0568 1485.08 L68.0568 1489.01 L48.1495 1489.01 L48.1495 1485.08 Z" fill="#000000" fill-rule="nonzero" fill-opacity="1" /><path clip-path="url(#clip360)" d="M77.5012 1483.13 L82.3855 1483.13 L82.3855 1489.01 L77.5012 1489.01 L77.5012 1483.13 Z" fill="#000000" fill-rule="nonzero" fill-opacity="1" /><path clip-path="url(#clip360)" d="M102.571 1457.53 Q98.9594 1457.53 97.1307 1461.1 Q95.3252 1464.64 95.3252 1471.77 Q95.3252 1478.87 97.1307 1482.44 Q98.9594 1485.98 102.571 1485.98 Q106.205 1485.98 108.01 1482.44 Q109.839 1478.87 109.839 1471.77 Q109.839 1464.64 108.01 1461.1 Q106.205 1457.53 102.571 1457.53 M102.571 1453.83 Q108.381 1453.83 111.436 1458.43 Q114.515 1463.02 114.515 1471.77 Q114.515 1480.49 111.436 1485.1 Q108.381 1489.68 102.571 1489.68 Q96.7604 1489.68 93.6817 1485.1 Q90.6262 1480.49 90.6262 1471.77 Q90.6262 1463.02 93.6817 1458.43 Q96.7604 1453.83 102.571 1453.83 Z" fill="#000000" fill-rule="nonzero" fill-opacity="1" /><path clip-path="url(#clip360)" d="M49.3764 1269.49 L57.0152 1269.49 L57.0152 1243.12 L48.7051 1244.79 L48.7051 1240.53 L56.9689 1238.86 L61.6448 1238.86 L61.6448 1269.49 L69.2837 1269.49 L69.2837 1273.42 L49.3764 1273.42 L49.3764 1269.49 Z" fill="#000000" fill-rule="nonzero" fill-opacity="1" /><path clip-path="url(#clip360)" d="M78.7281 1267.54 L83.6123 1267.54 L83.6123 1273.42 L78.7281 1273.42 L78.7281 1267.54 Z" fill="#000000" fill-rule="nonzero" fill-opacity="1" /><path clip-path="url(#clip360)" d="M94.6076 1269.49 L102.246 1269.49 L102.246 1243.12 L93.9363 1244.79 L93.9363 1240.53 L102.2 1238.86 L106.876 1238.86 L106.876 1269.49 L114.515 1269.49 L114.515 1273.42 L94.6076 1273.42 L94.6076 1269.49 Z" fill="#000000" fill-rule="nonzero" fill-opacity="1" /><path clip-path="url(#clip360)" d="M49.7467 1053.9 L57.3856 1053.9 L57.3856 1027.54 L49.0754 1029.2 L49.0754 1024.94 L57.3393 1023.28 L62.0152 1023.28 L62.0152 1053.9 L69.654 1053.9 L69.654 1057.84 L49.7467 1057.84 L49.7467 1053.9 Z" fill="#000000" fill-rule="nonzero" fill-opacity="1" /><path clip-path="url(#clip360)" d="M79.0984 1051.96 L83.9827 1051.96 L83.9827 1057.84 L79.0984 1057.84 L79.0984 1051.96 Z" fill="#000000" fill-rule="nonzero" fill-opacity="1" /><path clip-path="url(#clip360)" d="M98.1956 1053.9 L114.515 1053.9 L114.515 1057.84 L92.5706 1057.84 L92.5706 1053.9 Q95.2326 1051.15 99.8159 1046.52 Q104.422 1041.86 105.603 1040.52 Q107.848 1038 108.728 1036.26 Q109.631 1034.5 109.631 1032.81 Q109.631 1030.06 107.686 1028.32 Q105.765 1026.59 102.663 1026.59 Q100.464 1026.59 98.0104 1027.35 Q95.5798 1028.11 92.8021 1029.66 L92.8021 1024.94 Q95.6261 1023.81 98.0798 1023.23 Q100.534 1022.65 102.571 1022.65 Q107.941 1022.65 111.135 1025.34 Q114.33 1028.02 114.33 1032.51 Q114.33 1034.64 113.52 1036.56 Q112.733 1038.46 110.626 1041.05 Q110.047 1041.73 106.946 1044.94 Q103.844 1048.14 98.1956 1053.9 Z" fill="#000000" fill-rule="nonzero" fill-opacity="1" /><path clip-path="url(#clip360)" d="M48.7977 838.312 L56.4365 838.312 L56.4365 811.947 L48.1264 813.613 L48.1264 809.354 L56.3902 807.688 L61.0661 807.688 L61.0661 838.312 L68.705 838.312 L68.705 842.248 L48.7977 842.248 L48.7977 838.312 Z" fill="#000000" fill-rule="nonzero" fill-opacity="1" /><path clip-path="url(#clip360)" d="M78.1494 836.368 L83.0336 836.368 L83.0336 842.248 L78.1494 842.248 L78.1494 836.368 Z" fill="#000000" fill-rule="nonzero" fill-opacity="1" /><path clip-path="url(#clip360)" d="M107.385 823.613 Q110.742 824.331 112.617 826.6 Q114.515 828.868 114.515 832.201 Q114.515 837.317 110.996 840.118 Q107.478 842.919 100.996 842.919 Q98.8206 842.919 96.5057 842.479 Q94.2141 842.062 91.7604 841.206 L91.7604 836.692 Q93.7048 837.826 96.0196 838.405 Q98.3344 838.984 100.858 838.984 Q105.256 838.984 107.547 837.248 Q109.862 835.512 109.862 832.201 Q109.862 829.146 107.709 827.433 Q105.58 825.697 101.76 825.697 L97.7326 825.697 L97.7326 821.854 L101.946 821.854 Q105.395 821.854 107.223 820.488 Q109.052 819.1 109.052 816.507 Q109.052 813.845 107.154 812.433 Q105.279 810.998 101.76 810.998 Q99.8391 810.998 97.64 811.414 Q95.4409 811.831 92.8021 812.711 L92.8021 808.544 Q95.4641 807.803 97.7789 807.433 Q100.117 807.063 102.177 807.063 Q107.501 807.063 110.603 809.493 Q113.705 811.901 113.705 816.021 Q113.705 818.891 112.061 820.882 Q110.418 822.85 107.385 823.613 Z" fill="#000000" fill-rule="nonzero" fill-opacity="1" /><path clip-path="url(#clip360)" d="M47.6634 622.724 L55.3023 622.724 L55.3023 596.358 L46.9921 598.025 L46.9921 593.766 L55.256 592.099 L59.9319 592.099 L59.9319 622.724 L67.5707 622.724 L67.5707 626.659 L47.6634 626.659 L47.6634 622.724 Z" fill="#000000" fill-rule="nonzero" fill-opacity="1" /><path clip-path="url(#clip360)" d="M77.0151 620.78 L81.8993 620.78 L81.8993 626.659 L77.0151 626.659 L77.0151 620.78 Z" fill="#000000" fill-rule="nonzero" fill-opacity="1" /><path clip-path="url(#clip360)" d="M104.932 596.173 L93.1261 614.622 L104.932 614.622 L104.932 596.173 M103.705 592.099 L109.584 592.099 L109.584 614.622 L114.515 614.622 L114.515 618.511 L109.584 618.511 L109.584 626.659 L104.932 626.659 L104.932 618.511 L89.3299 618.511 L89.3299 613.997 L103.705 592.099 Z" fill="#000000" fill-rule="nonzero" fill-opacity="1" /><path clip-path="url(#clip360)" d="M49.1449 407.135 L56.7837 407.135 L56.7837 380.77 L48.4736 382.437 L48.4736 378.177 L56.7374 376.511 L61.4133 376.511 L61.4133 407.135 L69.0522 407.135 L69.0522 411.071 L49.1449 411.071 L49.1449 407.135 Z" fill="#000000" fill-rule="nonzero" fill-opacity="1" /><path clip-path="url(#clip360)" d="M78.4966 405.191 L83.3808 405.191 L83.3808 411.071 L78.4966 411.071 L78.4966 405.191 Z" fill="#000000" fill-rule="nonzero" fill-opacity="1" /><path clip-path="url(#clip360)" d="M93.6122 376.511 L111.969 376.511 L111.969 380.446 L97.8946 380.446 L97.8946 388.918 Q98.9131 388.571 99.9317 388.409 Q100.95 388.224 101.969 388.224 Q107.756 388.224 111.135 391.395 Q114.515 394.566 114.515 399.983 Q114.515 405.561 111.043 408.663 Q107.571 411.742 101.251 411.742 Q99.0752 411.742 96.8067 411.372 Q94.5613 411.001 92.1539 410.26 L92.1539 405.561 Q94.2372 406.696 96.4595 407.251 Q98.6817 407.807 101.159 407.807 Q105.163 407.807 107.501 405.7 Q109.839 403.594 109.839 399.983 Q109.839 396.372 107.501 394.265 Q105.163 392.159 101.159 392.159 Q99.2835 392.159 97.4085 392.575 Q95.5567 392.992 93.6122 393.872 L93.6122 376.511 Z" fill="#000000" fill-rule="nonzero" fill-opacity="1" /><path clip-path="url(#clip360)" d="M47.9875 191.547 L55.6263 191.547 L55.6263 165.181 L47.3162 166.848 L47.3162 162.589 L55.58 160.922 L60.2559 160.922 L60.2559 191.547 L67.8948 191.547 L67.8948 195.482 L47.9875 195.482 L47.9875 191.547 Z" fill="#000000" fill-rule="nonzero" fill-opacity="1" /><path clip-path="url(#clip360)" d="M77.3392 189.603 L82.2234 189.603 L82.2234 195.482 L77.3392 195.482 L77.3392 189.603 Z" fill="#000000" fill-rule="nonzero" fill-opacity="1" /><path clip-path="url(#clip360)" d="M102.987 176.339 Q99.8391 176.339 97.9872 178.492 Q96.1585 180.644 96.1585 184.394 Q96.1585 188.121 97.9872 190.297 Q99.8391 192.45 102.987 192.45 Q106.135 192.45 107.964 190.297 Q109.816 188.121 109.816 184.394 Q109.816 180.644 107.964 178.492 Q106.135 176.339 102.987 176.339 M112.27 161.686 L112.27 165.945 Q110.51 165.112 108.705 164.672 Q106.922 164.232 105.163 164.232 Q100.534 164.232 98.0798 167.357 Q95.6493 170.482 95.3021 176.802 Q96.6678 174.788 98.728 173.723 Q100.788 172.635 103.265 172.635 Q108.473 172.635 111.483 175.806 Q114.515 178.954 114.515 184.394 Q114.515 189.718 111.367 192.936 Q108.219 196.153 102.987 196.153 Q96.9919 196.153 93.8206 191.57 Q90.6493 186.964 90.6493 178.237 Q90.6493 170.042 94.5382 165.181 Q98.427 160.297 104.978 160.297 Q106.737 160.297 108.52 160.644 Q110.325 160.992 112.27 161.686 Z" fill="#000000" fill-rule="nonzero" fill-opacity="1" /><polyline clip-path="url(#clip362)" style="stroke:#009af9; stroke-linecap:round; stroke-linejoin:round; stroke-width:4; stroke-opacity:1; fill:none" points="202.075,1454.11 215.261,1443.49 228.448,1432.81 241.634,1422.08 254.821,1411.3 268.007,1400.47 281.194,1389.58 294.381,1378.64 307.567,1367.65 320.754,1356.6 333.94,1345.5 347.127,1334.35 360.313,1323.14 373.5,1311.87 386.686,1300.55 399.873,1289.18 413.06,1277.75 426.246,1266.26 439.433,1254.72 452.619,1243.12 465.806,1231.46 478.992,1219.75 492.179,1207.98 505.366,1196.15 518.552,1184.27 531.739,1172.33 544.925,1160.32 558.112,1148.26 571.298,1136.15 584.485,1123.97 597.671,1111.73 610.858,1099.43 624.045,1087.07 637.231,1074.65 650.418,1062.18 663.604,1049.64 676.791,1037.03 689.977,1024.37 703.164,1011.65 716.351,998.86 729.537,986.01 742.724,973.098 755.91,960.123 769.097,947.084 782.283,933.981 795.47,920.814 808.656,907.583 821.843,894.288 835.03,880.927 848.216,867.501 861.403,854.01 874.589,840.452 887.776,826.828 900.962,813.138 914.149,799.38 927.336,785.556 940.522,771.664 953.709,757.704 966.895,743.675 980.082,729.578 993.268,715.413 1006.45,701.178 1019.64,686.873 1032.83,672.499 1046.01,658.054 1059.2,643.538 1072.39,628.952 1085.57,614.294 1098.76,599.565 1111.95,584.764 1125.13,569.89 1138.32,554.944 1151.51,539.925 1164.69,524.832 1177.88,509.665 1191.07,494.424 1204.25,479.109 1217.44,463.719 1230.63,448.254 1243.81,432.713 1257,417.096 1270.19,401.403 1283.37,385.633 1296.56,369.786 1309.75,353.861 1322.93,337.859 1336.12,321.779 1349.31,305.62 1362.49,289.381 1375.68,273.064 1388.87,256.667 1402.05,240.189 1415.24,223.631 1428.42,206.993 1441.61,190.272 1454.8,173.47 1467.98,156.586 1481.17,139.62 1494.36,122.57 1507.54,105.437 1520.73,88.2208 "/>
<path clip-path="url(#clip360)" d="M209.107 199.186 L389.788 199.186 L389.788 95.5056 L209.107 95.5056  Z" fill="#ffffff" fill-rule="evenodd" fill-opacity="1"/>
<polyline clip-path="url(#clip360)" style="stroke:#000000; stroke-linecap:round; stroke-linejoin:round; stroke-width:4; stroke-opacity:1; fill:none" points="209.107,199.186 389.788,199.186 389.788,95.5056 209.107,95.5056 209.107,199.186 "/>
<polyline clip-path="url(#clip360)" style="stroke:#009af9; stroke-linecap:round; stroke-linejoin:round; stroke-width:4; stroke-opacity:1; fill:none" points="224.638,147.346 317.823,147.346 "/>
<path clip-path="url(#clip360)" d="M353.863 139.695 L353.863 143.677 Q352.058 142.681 350.229 142.195 Q348.424 141.686 346.572 141.686 Q342.428 141.686 340.137 144.325 Q337.845 146.94 337.845 151.686 Q337.845 156.431 340.137 159.07 Q342.428 161.686 346.572 161.686 Q348.424 161.686 350.229 161.2 Q352.058 160.69 353.863 159.695 L353.863 163.63 Q352.081 164.464 350.16 164.88 Q348.261 165.297 346.109 165.297 Q340.252 165.297 336.803 161.616 Q333.354 157.936 333.354 151.686 Q333.354 145.343 336.826 141.709 Q340.322 138.075 346.386 138.075 Q348.354 138.075 350.229 138.491 Q352.104 138.885 353.863 139.695 Z" fill="#000000" fill-rule="nonzero" fill-opacity="1" /><path clip-path="url(#clip360)" d="M365.484 131.339 L365.484 138.7 L374.257 138.7 L374.257 142.01 L365.484 142.01 L365.484 156.084 Q365.484 159.255 366.34 160.158 Q367.22 161.061 369.882 161.061 L374.257 161.061 L374.257 164.626 L369.882 164.626 Q364.951 164.626 363.076 162.797 Q361.201 160.945 361.201 156.084 L361.201 142.01 L358.076 142.01 L358.076 138.7 L361.201 138.7 L361.201 131.339 L365.484 131.339 Z" fill="#000000" fill-rule="nonzero" fill-opacity="1" /><path clip-path="url(#clip360)" d="M1754.98 1495.09 L3152.76 1495.09 L3152.76 47.2441 L1754.98 47.2441  Z" fill="#ffffff" fill-rule="evenodd" fill-opacity="1"/>
<defs>
  <clipPath id="clip363">
    <rect x="1754" y="47" width="1399" height="1449"/>
  </clipPath>
</defs>
<polyline clip-path="url(#clip363)" style="stroke:#000000; stroke-linecap:round; stroke-linejoin:round; stroke-width:2; stroke-opacity:0.1; fill:none" points="1781.35,1495.09 1781.35,47.2441 "/>
<polyline clip-path="url(#clip363)" style="stroke:#000000; stroke-linecap:round; stroke-linejoin:round; stroke-width:2; stroke-opacity:0.1; fill:none" points="2111.02,1495.09 2111.02,47.2441 "/>
<polyline clip-path="url(#clip363)" style="stroke:#000000; stroke-linecap:round; stroke-linejoin:round; stroke-width:2; stroke-opacity:0.1; fill:none" points="2440.68,1495.09 2440.68,47.2441 "/>
<polyline clip-path="url(#clip363)" style="stroke:#000000; stroke-linecap:round; stroke-linejoin:round; stroke-width:2; stroke-opacity:0.1; fill:none" points="2770.35,1495.09 2770.35,47.2441 "/>
<polyline clip-path="url(#clip363)" style="stroke:#000000; stroke-linecap:round; stroke-linejoin:round; stroke-width:2; stroke-opacity:0.1; fill:none" points="3100.01,1495.09 3100.01,47.2441 "/>
<polyline clip-path="url(#clip360)" style="stroke:#000000; stroke-linecap:round; stroke-linejoin:round; stroke-width:4; stroke-opacity:1; fill:none" points="1754.98,1495.09 3152.76,1495.09 "/>
<polyline clip-path="url(#clip360)" style="stroke:#000000; stroke-linecap:round; stroke-linejoin:round; stroke-width:4; stroke-opacity:1; fill:none" points="1781.35,1495.09 1781.35,1476.19 "/>
<polyline clip-path="url(#clip360)" style="stroke:#000000; stroke-linecap:round; stroke-linejoin:round; stroke-width:4; stroke-opacity:1; fill:none" points="2111.02,1495.09 2111.02,1476.19 "/>
<polyline clip-path="url(#clip360)" style="stroke:#000000; stroke-linecap:round; stroke-linejoin:round; stroke-width:4; stroke-opacity:1; fill:none" points="2440.68,1495.09 2440.68,1476.19 "/>
<polyline clip-path="url(#clip360)" style="stroke:#000000; stroke-linecap:round; stroke-linejoin:round; stroke-width:4; stroke-opacity:1; fill:none" points="2770.35,1495.09 2770.35,1476.19 "/>
<polyline clip-path="url(#clip360)" style="stroke:#000000; stroke-linecap:round; stroke-linejoin:round; stroke-width:4; stroke-opacity:1; fill:none" points="3100.01,1495.09 3100.01,1476.19 "/>
<path clip-path="url(#clip360)" d="M1781.35 1532.41 Q1777.74 1532.41 1775.91 1535.97 Q1774.11 1539.51 1774.11 1546.64 Q1774.11 1553.75 1775.91 1557.31 Q1777.74 1560.86 1781.35 1560.86 Q1784.99 1560.86 1786.79 1557.31 Q1788.62 1553.75 1788.62 1546.64 Q1788.62 1539.51 1786.79 1535.97 Q1784.99 1532.41 1781.35 1532.41 M1781.35 1528.7 Q1787.16 1528.7 1790.22 1533.31 Q1793.3 1537.89 1793.3 1546.64 Q1793.3 1555.37 1790.22 1559.98 Q1787.16 1564.56 1781.35 1564.56 Q1775.54 1564.56 1772.46 1559.98 Q1769.41 1555.37 1769.41 1546.64 Q1769.41 1537.89 1772.46 1533.31 Q1775.54 1528.7 1781.35 1528.7 Z" fill="#000000" fill-rule="nonzero" fill-opacity="1" /><path clip-path="url(#clip360)" d="M2090.29 1559.95 L2106.61 1559.95 L2106.61 1563.89 L2084.66 1563.89 L2084.66 1559.95 Q2087.33 1557.2 2091.91 1552.57 Q2096.52 1547.92 2097.7 1546.57 Q2099.94 1544.05 2100.82 1542.31 Q2101.72 1540.55 2101.72 1538.86 Q2101.72 1536.11 2099.78 1534.37 Q2097.86 1532.64 2094.76 1532.64 Q2092.56 1532.64 2090.1 1533.4 Q2087.67 1534.17 2084.89 1535.72 L2084.89 1530.99 Q2087.72 1529.86 2090.17 1529.28 Q2092.63 1528.7 2094.66 1528.7 Q2100.03 1528.7 2103.23 1531.39 Q2106.42 1534.07 2106.42 1538.56 Q2106.42 1540.69 2105.61 1542.61 Q2104.83 1544.51 2102.72 1547.11 Q2102.14 1547.78 2099.04 1550.99 Q2095.94 1554.19 2090.29 1559.95 Z" fill="#000000" fill-rule="nonzero" fill-opacity="1" /><path clip-path="url(#clip360)" d="M2116.47 1529.33 L2134.83 1529.33 L2134.83 1533.26 L2120.75 1533.26 L2120.75 1541.74 Q2121.77 1541.39 2122.79 1541.23 Q2123.81 1541.04 2124.83 1541.04 Q2130.61 1541.04 2133.99 1544.21 Q2137.37 1547.38 2137.37 1552.8 Q2137.37 1558.38 2133.9 1561.48 Q2130.43 1564.56 2124.11 1564.56 Q2121.93 1564.56 2119.66 1564.19 Q2117.42 1563.82 2115.01 1563.08 L2115.01 1558.38 Q2117.09 1559.51 2119.32 1560.07 Q2121.54 1560.62 2124.02 1560.62 Q2128.02 1560.62 2130.36 1558.52 Q2132.7 1556.41 2132.7 1552.8 Q2132.7 1549.19 2130.36 1547.08 Q2128.02 1544.98 2124.02 1544.98 Q2122.14 1544.98 2120.27 1545.39 Q2118.41 1545.81 2116.47 1546.69 L2116.47 1529.33 Z" fill="#000000" fill-rule="nonzero" fill-opacity="1" /><path clip-path="url(#clip360)" d="M2415.38 1529.33 L2433.74 1529.33 L2433.74 1533.26 L2419.66 1533.26 L2419.66 1541.74 Q2420.68 1541.39 2421.7 1541.23 Q2422.72 1541.04 2423.74 1541.04 Q2429.52 1541.04 2432.9 1544.21 Q2436.28 1547.38 2436.28 1552.8 Q2436.28 1558.38 2432.81 1561.48 Q2429.34 1564.56 2423.02 1564.56 Q2420.84 1564.56 2418.58 1564.19 Q2416.33 1563.82 2413.92 1563.08 L2413.92 1558.38 Q2416.01 1559.51 2418.23 1560.07 Q2420.45 1560.62 2422.93 1560.62 Q2426.93 1560.62 2429.27 1558.52 Q2431.61 1556.41 2431.61 1552.8 Q2431.61 1549.19 2429.27 1547.08 Q2426.93 1544.98 2422.93 1544.98 Q2421.05 1544.98 2419.18 1545.39 Q2417.33 1545.81 2415.38 1546.69 L2415.38 1529.33 Z" fill="#000000" fill-rule="nonzero" fill-opacity="1" /><path clip-path="url(#clip360)" d="M2455.5 1532.41 Q2451.89 1532.41 2450.06 1535.97 Q2448.25 1539.51 2448.25 1546.64 Q2448.25 1553.75 2450.06 1557.31 Q2451.89 1560.86 2455.5 1560.86 Q2459.13 1560.86 2460.94 1557.31 Q2462.76 1553.75 2462.76 1546.64 Q2462.76 1539.51 2460.94 1535.97 Q2459.13 1532.41 2455.5 1532.41 M2455.5 1528.7 Q2461.31 1528.7 2464.36 1533.31 Q2467.44 1537.89 2467.44 1546.64 Q2467.44 1555.37 2464.36 1559.98 Q2461.31 1564.56 2455.5 1564.56 Q2449.69 1564.56 2446.61 1559.98 Q2443.55 1555.37 2443.55 1546.64 Q2443.55 1537.89 2446.61 1533.31 Q2449.69 1528.7 2455.5 1528.7 Z" fill="#000000" fill-rule="nonzero" fill-opacity="1" /><path clip-path="url(#clip360)" d="M2744.2 1529.33 L2766.42 1529.33 L2766.42 1531.32 L2753.88 1563.89 L2748.99 1563.89 L2760.8 1533.26 L2744.2 1533.26 L2744.2 1529.33 Z" fill="#000000" fill-rule="nonzero" fill-opacity="1" /><path clip-path="url(#clip360)" d="M2775.59 1529.33 L2793.94 1529.33 L2793.94 1533.26 L2779.87 1533.26 L2779.87 1541.74 Q2780.89 1541.39 2781.91 1541.23 Q2782.93 1541.04 2783.95 1541.04 Q2789.73 1541.04 2793.11 1544.21 Q2796.49 1547.38 2796.49 1552.8 Q2796.49 1558.38 2793.02 1561.48 Q2789.55 1564.56 2783.23 1564.56 Q2781.05 1564.56 2778.78 1564.19 Q2776.54 1563.82 2774.13 1563.08 L2774.13 1558.38 Q2776.21 1559.51 2778.44 1560.07 Q2780.66 1560.62 2783.13 1560.62 Q2787.14 1560.62 2789.48 1558.52 Q2791.82 1556.41 2791.82 1552.8 Q2791.82 1549.19 2789.48 1547.08 Q2787.14 1544.98 2783.13 1544.98 Q2781.26 1544.98 2779.38 1545.39 Q2777.53 1545.81 2775.59 1546.69 L2775.59 1529.33 Z" fill="#000000" fill-rule="nonzero" fill-opacity="1" /><path clip-path="url(#clip360)" d="M3059.62 1559.95 L3067.26 1559.95 L3067.26 1533.59 L3058.95 1535.25 L3058.95 1530.99 L3067.21 1529.33 L3071.88 1529.33 L3071.88 1559.95 L3079.52 1559.95 L3079.52 1563.89 L3059.62 1563.89 L3059.62 1559.95 Z" fill="#000000" fill-rule="nonzero" fill-opacity="1" /><path clip-path="url(#clip360)" d="M3098.97 1532.41 Q3095.36 1532.41 3093.53 1535.97 Q3091.72 1539.51 3091.72 1546.64 Q3091.72 1553.75 3093.53 1557.31 Q3095.36 1560.86 3098.97 1560.86 Q3102.6 1560.86 3104.41 1557.31 Q3106.24 1553.75 3106.24 1546.64 Q3106.24 1539.51 3104.41 1535.97 Q3102.6 1532.41 3098.97 1532.41 M3098.97 1528.7 Q3104.78 1528.7 3107.83 1533.31 Q3110.91 1537.89 3110.91 1546.64 Q3110.91 1555.37 3107.83 1559.98 Q3104.78 1564.56 3098.97 1564.56 Q3093.16 1564.56 3090.08 1559.98 Q3087.02 1555.37 3087.02 1546.64 Q3087.02 1537.89 3090.08 1533.31 Q3093.16 1528.7 3098.97 1528.7 Z" fill="#000000" fill-rule="nonzero" fill-opacity="1" /><path clip-path="url(#clip360)" d="M3129.13 1532.41 Q3125.52 1532.41 3123.69 1535.97 Q3121.88 1539.51 3121.88 1546.64 Q3121.88 1553.75 3123.69 1557.31 Q3125.52 1560.86 3129.13 1560.86 Q3132.76 1560.86 3134.57 1557.31 Q3136.4 1553.75 3136.4 1546.64 Q3136.4 1539.51 3134.57 1535.97 Q3132.76 1532.41 3129.13 1532.41 M3129.13 1528.7 Q3134.94 1528.7 3138 1533.31 Q3141.07 1537.89 3141.07 1546.64 Q3141.07 1555.37 3138 1559.98 Q3134.94 1564.56 3129.13 1564.56 Q3123.32 1564.56 3120.24 1559.98 Q3117.19 1555.37 3117.19 1546.64 Q3117.19 1537.89 3120.24 1533.31 Q3123.32 1528.7 3129.13 1528.7 Z" fill="#000000" fill-rule="nonzero" fill-opacity="1" /><polyline clip-path="url(#clip363)" style="stroke:#000000; stroke-linecap:round; stroke-linejoin:round; stroke-width:2; stroke-opacity:0.1; fill:none" points="1754.98,1454.11 3152.76,1454.11 "/>
<polyline clip-path="url(#clip363)" style="stroke:#000000; stroke-linecap:round; stroke-linejoin:round; stroke-width:2; stroke-opacity:0.1; fill:none" points="1754.98,1082.92 3152.76,1082.92 "/>
<polyline clip-path="url(#clip363)" style="stroke:#000000; stroke-linecap:round; stroke-linejoin:round; stroke-width:2; stroke-opacity:0.1; fill:none" points="1754.98,711.728 3152.76,711.728 "/>
<polyline clip-path="url(#clip363)" style="stroke:#000000; stroke-linecap:round; stroke-linejoin:round; stroke-width:2; stroke-opacity:0.1; fill:none" points="1754.98,340.536 3152.76,340.536 "/>
<polyline clip-path="url(#clip360)" style="stroke:#000000; stroke-linecap:round; stroke-linejoin:round; stroke-width:4; stroke-opacity:1; fill:none" points="1754.98,1495.09 1754.98,47.2441 "/>
<polyline clip-path="url(#clip360)" style="stroke:#000000; stroke-linecap:round; stroke-linejoin:round; stroke-width:4; stroke-opacity:1; fill:none" points="1754.98,1454.11 1773.88,1454.11 "/>
<polyline clip-path="url(#clip360)" style="stroke:#000000; stroke-linecap:round; stroke-linejoin:round; stroke-width:4; stroke-opacity:1; fill:none" points="1754.98,1082.92 1773.88,1082.92 "/>
<polyline clip-path="url(#clip360)" style="stroke:#000000; stroke-linecap:round; stroke-linejoin:round; stroke-width:4; stroke-opacity:1; fill:none" points="1754.98,711.728 1773.88,711.728 "/>
<polyline clip-path="url(#clip360)" style="stroke:#000000; stroke-linecap:round; stroke-linejoin:round; stroke-width:4; stroke-opacity:1; fill:none" points="1754.98,340.536 1773.88,340.536 "/>
<path clip-path="url(#clip360)" d="M1655.68 1467.46 L1663.32 1467.46 L1663.32 1441.09 L1655.01 1442.76 L1655.01 1438.5 L1663.28 1436.83 L1667.95 1436.83 L1667.95 1467.46 L1675.59 1467.46 L1675.59 1471.39 L1655.68 1471.39 L1655.68 1467.46 Z" fill="#000000" fill-rule="nonzero" fill-opacity="1" /><path clip-path="url(#clip360)" d="M1695.04 1439.91 Q1691.42 1439.91 1689.6 1443.47 Q1687.79 1447.02 1687.79 1454.15 Q1687.79 1461.25 1689.6 1464.82 Q1691.42 1468.36 1695.04 1468.36 Q1698.67 1468.36 1700.48 1464.82 Q1702.3 1461.25 1702.3 1454.15 Q1702.3 1447.02 1700.48 1443.47 Q1698.67 1439.91 1695.04 1439.91 M1695.04 1436.21 Q1700.85 1436.21 1703.9 1440.81 Q1706.98 1445.4 1706.98 1454.15 Q1706.98 1462.87 1703.9 1467.48 Q1700.85 1472.06 1695.04 1472.06 Q1689.23 1472.06 1686.15 1467.48 Q1683.09 1462.87 1683.09 1454.15 Q1683.09 1445.4 1686.15 1440.81 Q1689.23 1436.21 1695.04 1436.21 Z" fill="#000000" fill-rule="nonzero" fill-opacity="1" /><path clip-path="url(#clip360)" d="M1657.28 1096.26 L1664.92 1096.26 L1664.92 1069.9 L1656.61 1071.57 L1656.61 1067.31 L1664.87 1065.64 L1669.55 1065.64 L1669.55 1096.26 L1677.19 1096.26 L1677.19 1100.2 L1657.28 1100.2 L1657.28 1096.26 Z" fill="#000000" fill-rule="nonzero" fill-opacity="1" /><path clip-path="url(#clip360)" d="M1690.66 1096.26 L1706.98 1096.26 L1706.98 1100.2 L1685.04 1100.2 L1685.04 1096.26 Q1687.7 1093.51 1692.28 1088.88 Q1696.89 1084.23 1698.07 1082.88 Q1700.31 1080.36 1701.19 1078.63 Q1702.1 1076.87 1702.1 1075.18 Q1702.1 1072.42 1700.15 1070.69 Q1698.23 1068.95 1695.13 1068.95 Q1692.93 1068.95 1690.48 1069.71 Q1688.05 1070.48 1685.27 1072.03 L1685.27 1067.31 Q1688.09 1066.17 1690.55 1065.59 Q1693 1065.01 1695.04 1065.01 Q1700.41 1065.01 1703.6 1067.7 Q1706.8 1070.38 1706.8 1074.88 Q1706.8 1077.01 1705.98 1078.93 Q1705.2 1080.82 1703.09 1083.42 Q1702.51 1084.09 1699.41 1087.31 Q1696.31 1090.5 1690.66 1096.26 Z" fill="#000000" fill-rule="nonzero" fill-opacity="1" /><path clip-path="url(#clip360)" d="M1655.2 725.073 L1662.84 725.073 L1662.84 698.707 L1654.53 700.374 L1654.53 696.115 L1662.79 694.448 L1667.47 694.448 L1667.47 725.073 L1675.11 725.073 L1675.11 729.008 L1655.2 729.008 L1655.2 725.073 Z" fill="#000000" fill-rule="nonzero" fill-opacity="1" /><path clip-path="url(#clip360)" d="M1697.4 698.522 L1685.59 716.971 L1697.4 716.971 L1697.4 698.522 M1696.17 694.448 L1702.05 694.448 L1702.05 716.971 L1706.98 716.971 L1706.98 720.86 L1702.05 720.86 L1702.05 729.008 L1697.4 729.008 L1697.4 720.86 L1681.8 720.86 L1681.8 716.346 L1696.17 694.448 Z" fill="#000000" fill-rule="nonzero" fill-opacity="1" /><path clip-path="url(#clip360)" d="M1655.52 353.881 L1663.16 353.881 L1663.16 327.516 L1654.85 329.182 L1654.85 324.923 L1663.11 323.256 L1667.79 323.256 L1667.79 353.881 L1675.43 353.881 L1675.43 357.816 L1655.52 357.816 L1655.52 353.881 Z" fill="#000000" fill-rule="nonzero" fill-opacity="1" /><path clip-path="url(#clip360)" d="M1695.45 338.673 Q1692.3 338.673 1690.45 340.826 Q1688.62 342.979 1688.62 346.729 Q1688.62 350.455 1690.45 352.631 Q1692.3 354.784 1695.45 354.784 Q1698.6 354.784 1700.43 352.631 Q1702.28 350.455 1702.28 346.729 Q1702.28 342.979 1700.43 340.826 Q1698.6 338.673 1695.45 338.673 M1704.73 324.02 L1704.73 328.28 Q1702.98 327.446 1701.17 327.006 Q1699.39 326.567 1697.63 326.567 Q1693 326.567 1690.55 329.692 Q1688.11 332.817 1687.77 339.136 Q1689.13 337.122 1691.19 336.057 Q1693.25 334.969 1695.73 334.969 Q1700.94 334.969 1703.95 338.141 Q1706.98 341.289 1706.98 346.729 Q1706.98 352.053 1703.83 355.27 Q1700.68 358.488 1695.45 358.488 Q1689.46 358.488 1686.29 353.904 Q1683.11 349.298 1683.11 340.571 Q1683.11 332.377 1687 327.516 Q1690.89 322.631 1697.44 322.631 Q1699.2 322.631 1700.98 322.979 Q1702.79 323.326 1704.73 324.02 Z" fill="#000000" fill-rule="nonzero" fill-opacity="1" /><polyline clip-path="url(#clip363)" style="stroke:#009af9; stroke-linecap:round; stroke-linejoin:round; stroke-width:4; stroke-opacity:1; fill:none" points="1794.54,1454.11 1807.73,1418.51 1820.91,1383.11 1834.1,1347.92 1847.29,1312.95 1860.47,1278.21 1873.66,1243.71 1886.85,1209.46 1900.03,1175.46 1913.22,1141.73 1926.41,1108.27 1939.59,1075.1 1952.78,1042.23 1965.97,1009.66 1979.15,977.418 1992.34,945.502 2005.52,913.926 2018.71,882.703 2031.9,851.845 2045.08,821.363 2058.27,791.269 2071.46,761.578 2084.64,732.3 2097.83,703.451 2111.02,675.042 2124.2,647.089 2137.39,619.605 2150.58,592.604 2163.76,566.101 2176.95,540.112 2190.14,514.651 2203.32,489.735 2216.51,465.379 2229.7,441.6 2242.88,418.414 2256.07,395.839 2269.26,373.892 2282.44,352.591 2295.63,331.954 2308.82,311.999 2322,292.746 2335.19,274.215 2348.38,256.424 2361.56,239.395 2374.75,223.147 2387.94,207.703 2401.12,193.083 2414.31,179.31 2427.49,166.406 2440.68,154.394 2453.87,143.297 2467.05,133.141 2480.24,123.948 2493.43,115.744 2506.61,108.554 2519.8,102.406 2532.99,97.324 2546.17,93.3367 2559.36,90.4714 2572.55,88.7565 2585.73,88.2208 2598.92,88.8939 2612.11,90.806 2625.29,93.9877 2638.48,98.4706 2651.67,104.287 2664.85,111.469 2678.04,120.05 2691.23,130.065 2704.41,141.548 2717.6,154.535 2730.79,169.062 2743.97,185.166 2757.16,202.886 2770.35,222.259 2783.53,243.325 2796.72,266.125 2809.91,290.699 2823.09,317.089 2836.28,345.339 2849.46,375.492 2862.65,407.592 2875.84,441.685 2889.02,477.817 2902.21,516.037 2915.4,556.391 2928.58,598.931 2941.77,643.705 2954.96,690.766 2968.14,740.166 2981.33,791.959 2994.52,846.2 3007.7,902.943 3020.89,962.248 3034.08,1024.17 3047.26,1088.77 3060.45,1156.11 3073.64,1226.25 3086.82,1299.25 3100.01,1375.18 3113.2,1454.11 "/>
<path clip-path="url(#clip360)" d="M1801.57 199.186 L2015.17 199.186 L2015.17 95.5056 L1801.57 95.5056  Z" fill="#ffffff" fill-rule="evenodd" fill-opacity="1"/>
<polyline clip-path="url(#clip360)" style="stroke:#000000; stroke-linecap:round; stroke-linejoin:round; stroke-width:4; stroke-opacity:1; fill:none" points="1801.57,199.186 2015.17,199.186 2015.17,95.5056 1801.57,95.5056 1801.57,199.186 "/>
<polyline clip-path="url(#clip360)" style="stroke:#009af9; stroke-linecap:round; stroke-linejoin:round; stroke-width:4; stroke-opacity:1; fill:none" points="1817.1,147.346 1910.29,147.346 "/>
<path clip-path="url(#clip360)" d="M1939.22 151.593 Q1934.06 151.593 1932.07 152.774 Q1930.08 153.954 1930.08 156.802 Q1930.08 159.07 1931.56 160.413 Q1933.06 161.732 1935.63 161.732 Q1939.18 161.732 1941.31 159.232 Q1943.46 156.709 1943.46 152.542 L1943.46 151.593 L1939.22 151.593 M1947.72 149.834 L1947.72 164.626 L1943.46 164.626 L1943.46 160.69 Q1942 163.051 1939.82 164.186 Q1937.65 165.297 1934.5 165.297 Q1930.52 165.297 1928.16 163.075 Q1925.82 160.829 1925.82 157.079 Q1925.82 152.704 1928.74 150.482 Q1931.68 148.26 1937.49 148.26 L1943.46 148.26 L1943.46 147.843 Q1943.46 144.903 1941.51 143.306 Q1939.59 141.686 1936.1 141.686 Q1933.87 141.686 1931.77 142.218 Q1929.66 142.751 1927.72 143.815 L1927.72 139.88 Q1930.06 138.978 1932.25 138.538 Q1934.45 138.075 1936.54 138.075 Q1942.16 138.075 1944.94 140.991 Q1947.72 143.908 1947.72 149.834 Z" fill="#000000" fill-rule="nonzero" fill-opacity="1" /><path clip-path="url(#clip360)" d="M1957.9 160.69 L1965.54 160.69 L1965.54 134.325 L1957.23 135.991 L1957.23 131.732 L1965.5 130.066 L1970.17 130.066 L1970.17 160.69 L1977.81 160.69 L1977.81 164.626 L1957.9 164.626 L1957.9 160.69 Z" fill="#000000" fill-rule="nonzero" fill-opacity="1" /><path clip-path="url(#clip360)" d="M1990.87 131.339 L1990.87 138.7 L1999.64 138.7 L1999.64 142.01 L1990.87 142.01 L1990.87 156.084 Q1990.87 159.255 1991.72 160.158 Q1992.6 161.061 1995.26 161.061 L1999.64 161.061 L1999.64 164.626 L1995.26 164.626 Q1990.33 164.626 1988.46 162.797 Q1986.58 160.945 1986.58 156.084 L1986.58 142.01 L1983.46 142.01 L1983.46 138.7 L1986.58 138.7 L1986.58 131.339 L1990.87 131.339 Z" fill="#000000" fill-rule="nonzero" fill-opacity="1" /></svg>