<?xml version="1.0" encoding="utf-8"?>
<svg xmlns="http://www.w3.org/2000/svg" xmlns:xlink="http://www.w3.org/1999/xlink" width="600" height="400" viewBox="0 0 2400 1600">
<defs>
  <clipPath id="clip910">
    <rect x="0" y="0" width="2400" height="1600"/>
  </clipPath>
</defs>
<path clip-path="url(#clip910)" d="M0 1600 L2400 1600 L2400 0 L0 0  Z" fill="#ffffff" fill-rule="evenodd" fill-opacity="1"/>
<defs>
  <clipPath id="clip911">
    <rect x="480" y="0" width="1681" height="1600"/>
  </clipPath>
</defs>
<path clip-path="url(#clip910)" d="M302.458 1423.18 L2352.76 1423.18 L2352.76 47.2441 L302.458 47.2441  Z" fill="#ffffff" fill-rule="evenodd" fill-opacity="1"/>
<defs>
  <clipPath id="clip912">
    <rect x="302" y="47" width="2051" height="1377"/>
  </clipPath>
</defs>
<polyline clip-path="url(#clip912)" style="stroke:#000000; stroke-linecap:round; stroke-linejoin:round; stroke-width:2; stroke-opacity:0.1; fill:none" points="360.486,1423.18 360.486,47.2441 "/>
<polyline clip-path="url(#clip912)" style="stroke:#000000; stroke-linecap:round; stroke-linejoin:round; stroke-width:2; stroke-opacity:0.1; fill:none" points="844.046,1423.18 844.046,47.2441 "/>
<polyline clip-path="url(#clip912)" style="stroke:#000000; stroke-linecap:round; stroke-linejoin:round; stroke-width:2; stroke-opacity:0.1; fill:none" points="1327.61,1423.18 1327.61,47.2441 "/>
<polyline clip-path="url(#clip912)" style="stroke:#000000; stroke-linecap:round; stroke-linejoin:round; stroke-width:2; stroke-opacity:0.1; fill:none" points="1811.17,1423.18 1811.17,47.2441 "/>
<polyline clip-path="url(#clip912)" style="stroke:#000000; stroke-linecap:round; stroke-linejoin:round; stroke-width:2; stroke-opacity:0.1; fill:none" points="2294.73,1423.18 2294.73,47.2441 "/>
<polyline clip-path="url(#clip910)" style="stroke:#000000; stroke-linecap:round; stroke-linejoin:round; stroke-width:4; stroke-opacity:1; fill:none" points="302.458,1423.18 2352.76,1423.18 "/>
<polyline clip-path="url(#clip910)" style="stroke:#000000; stroke-linecap:round; stroke-linejoin:round; stroke-width:4; stroke-opacity:1; fill:none" points="360.486,1423.18 360.486,1404.28 "/>
<polyline clip-path="url(#clip910)" style="stroke:#000000; stroke-linecap:round; stroke-linejoin:round; stroke-width:4; stroke-opacity:1; fill:none" points="844.046,1423.18 844.046,1404.28 "/>
<polyline clip-path="url(#clip910)" style="stroke:#000000; stroke-linecap:round; stroke-linejoin:round; stroke-width:4; stroke-opacity:1; fill:none" points="1327.61,1423.18 1327.61,1404.28 "/>
<polyline clip-path="url(#clip910)" style="stroke:#000000; stroke-linecap:round; stroke-linejoin:round; stroke-width:4; stroke-opacity:1; fill:none" points="1811.17,1423.18 1811.17,1404.28 "/>
<polyline clip-path="url(#clip910)" style="stroke:#000000; stroke-linecap:round; stroke-linejoin:round; stroke-width:4; stroke-opacity:1; fill:none" points="2294.73,1423.18 2294.73,1404.28 "/>
<path clip-path="url(#clip910)" d="M360.486 1454.1 Q356.875 1454.1 355.046 1457.66 Q353.24 1461.2 353.24 1468.33 Q353.24 1475.44 355.046 1479.01 Q356.875 1482.55 360.486 1482.55 Q364.12 1482.55 365.925 1479.01 Q367.754 1475.44 367.754 1468.33 Q367.754 1461.2 365.925 1457.66 Q364.12 1454.1 360.486 1454.1 M360.486 1450.39 Q366.296 1450.39 369.351 1455 Q372.43 1459.58 372.43 1468.33 Q372.43 1477.06 369.351 1481.67 Q366.296 1486.25 360.486 1486.25 Q354.676 1486.25 351.597 1481.67 Q348.541 1477.06 348.541 1468.33 Q348.541 1459.58 351.597 1455 Q354.676 1450.39 360.486 1450.39 Z" fill="#000000" fill-rule="nonzero" fill-opacity="1" /><path clip-path="url(#clip910)" d="M823.317 1481.64 L839.637 1481.64 L839.637 1485.58 L817.692 1485.58 L817.692 1481.64 Q820.354 1478.89 824.938 1474.26 Q829.544 1469.61 830.725 1468.27 Q832.97 1465.74 833.85 1464.01 Q834.753 1462.25 834.753 1460.56 Q834.753 1457.8 832.808 1456.07 Q830.887 1454.33 827.785 1454.33 Q825.586 1454.33 823.132 1455.09 Q820.702 1455.86 817.924 1457.41 L817.924 1452.69 Q820.748 1451.55 823.202 1450.97 Q825.655 1450.39 827.692 1450.39 Q833.063 1450.39 836.257 1453.08 Q839.452 1455.77 839.452 1460.26 Q839.452 1462.39 838.641 1464.31 Q837.854 1466.2 835.748 1468.8 Q835.169 1469.47 832.067 1472.69 Q828.965 1475.88 823.317 1481.64 Z" fill="#000000" fill-rule="nonzero" fill-opacity="1" /><path clip-path="url(#clip910)" d="M849.498 1451.02 L867.854 1451.02 L867.854 1454.96 L853.78 1454.96 L853.78 1463.43 Q854.799 1463.08 855.817 1462.92 Q856.836 1462.73 857.854 1462.73 Q863.641 1462.73 867.021 1465.9 Q870.4 1469.08 870.4 1474.49 Q870.4 1480.07 866.928 1483.17 Q863.456 1486.25 857.137 1486.25 Q854.961 1486.25 852.692 1485.88 Q850.447 1485.51 848.039 1484.77 L848.039 1480.07 Q850.123 1481.2 852.345 1481.76 Q854.567 1482.32 857.044 1482.32 Q861.049 1482.32 863.387 1480.21 Q865.725 1478.1 865.725 1474.49 Q865.725 1470.88 863.387 1468.77 Q861.049 1466.67 857.044 1466.67 Q855.169 1466.67 853.294 1467.08 Q851.442 1467.5 849.498 1468.38 L849.498 1451.02 Z" fill="#000000" fill-rule="nonzero" fill-opacity="1" /><path clip-path="url(#clip910)" d="M1302.31 1451.02 L1320.66 1451.02 L1320.66 1454.96 L1306.59 1454.96 L1306.59 1463.43 Q1307.61 1463.08 1308.63 1462.92 Q1309.64 1462.73 1310.66 1462.73 Q1316.45 1462.73 1319.83 1465.9 Q1323.21 1469.08 1323.21 1474.49 Q1323.21 1480.07 1319.74 1483.17 Q1316.26 1486.25 1309.95 1486.25 Q1307.77 1486.25 1305.5 1485.88 Q1303.26 1485.51 1300.85 1484.77 L1300.85 1480.07 Q1302.93 1481.2 1305.15 1481.76 Q1307.38 1482.32 1309.85 1482.32 Q1313.86 1482.32 1316.2 1480.21 Q1318.53 1478.1 1318.53 1474.49 Q1318.53 1470.88 1316.2 1468.77 Q1313.86 1466.67 1309.85 1466.67 Q1307.98 1466.67 1306.1 1467.08 Q1304.25 1467.5 1302.31 1468.38 L1302.31 1451.02 Z" fill="#000000" fill-rule="nonzero" fill-opacity="1" /><path clip-path="url(#clip910)" d="M1342.42 1454.1 Q1338.81 1454.1 1336.98 1457.66 Q1335.18 1461.2 1335.18 1468.33 Q1335.18 1475.44 1336.98 1479.01 Q1338.81 1482.55 1342.42 1482.55 Q1346.06 1482.55 1347.86 1479.01 Q1349.69 1475.44 1349.69 1468.33 Q1349.69 1461.2 1347.86 1457.66 Q1346.06 1454.1 1342.42 1454.1 M1342.42 1450.39 Q1348.23 1450.39 1351.29 1455 Q1354.37 1459.58 1354.37 1468.33 Q1354.37 1477.06 1351.29 1481.67 Q1348.23 1486.25 1342.42 1486.25 Q1336.61 1486.25 1333.53 1481.67 Q1330.48 1477.06 1330.48 1468.33 Q1330.48 1459.58 1333.53 1455 Q1336.61 1450.39 1342.42 1450.39 Z" fill="#000000" fill-rule="nonzero" fill-opacity="1" /><path clip-path="url(#clip910)" d="M1785.02 1451.02 L1807.24 1451.02 L1807.24 1453.01 L1794.7 1485.58 L1789.81 1485.58 L1801.62 1454.96 L1785.02 1454.96 L1785.02 1451.02 Z" fill="#000000" fill-rule="nonzero" fill-opacity="1" /><path clip-path="url(#clip910)" d="M1816.41 1451.02 L1834.77 1451.02 L1834.77 1454.96 L1820.69 1454.96 L1820.69 1463.43 Q1821.71 1463.08 1822.73 1462.92 Q1823.75 1462.73 1824.77 1462.73 Q1830.55 1462.73 1833.93 1465.9 Q1837.31 1469.08 1837.31 1474.49 Q1837.31 1480.07 1833.84 1483.17 Q1830.37 1486.25 1824.05 1486.25 Q1821.87 1486.25 1819.61 1485.88 Q1817.36 1485.51 1814.95 1484.77 L1814.95 1480.07 Q1817.04 1481.2 1819.26 1481.76 Q1821.48 1482.32 1823.96 1482.32 Q1827.96 1482.32 1830.3 1480.21 Q1832.64 1478.1 1832.64 1474.49 Q1832.64 1470.88 1830.3 1468.77 Q1827.96 1466.67 1823.96 1466.67 Q1822.08 1466.67 1820.21 1467.08 Q1818.36 1467.5 1816.41 1468.38 L1816.41 1451.02 Z" fill="#000000" fill-rule="nonzero" fill-opacity="1" /><path clip-path="url(#clip910)" d="M2254.34 1481.64 L2261.97 1481.64 L2261.97 1455.28 L2253.66 1456.95 L2253.66 1452.69 L2261.93 1451.02 L2266.6 1451.02 L2266.6 1481.64 L2274.24 1481.64 L2274.24 1485.58 L2254.34 1485.58 L2254.34 1481.64 Z" fill="#000000" fill-rule="nonzero" fill-opacity="1" /><path clip-path="url(#clip910)" d="M2293.69 1454.1 Q2290.08 1454.1 2288.25 1457.66 Q2286.44 1461.2 2286.44 1468.33 Q2286.44 1475.44 2288.25 1479.01 Q2290.08 1482.55 2293.69 1482.55 Q2297.32 1482.55 2299.13 1479.01 Q2300.96 1475.44 2300.96 1468.33 Q2300.96 1461.2 2299.13 1457.66 Q2297.32 1454.1 2293.69 1454.1 M2293.69 1450.39 Q2299.5 1450.39 2302.55 1455 Q2305.63 1459.58 2305.63 1468.33 Q2305.63 1477.06 2302.55 1481.67 Q2299.5 1486.25 2293.69 1486.25 Q2287.88 1486.25 2284.8 1481.67 Q2281.74 1477.06 2281.74 1468.33 Q2281.74 1459.58 2284.8 1455 Q2287.88 1450.39 2293.69 1450.39 Z" fill="#000000" fill-rule="nonzero" fill-opacity="1" /><path clip-path="url(#clip910)" d="M2323.85 1454.1 Q2320.24 1454.1 2318.41 1457.66 Q2316.6 1461.2 2316.6 1468.33 Q2316.6 1475.44 2318.41 1479.01 Q2320.24 1482.55 2323.85 1482.55 Q2327.48 1482.55 2329.29 1479.01 Q2331.12 1475.44 2331.12 1468.33 Q2331.12 1461.2 2329.29 1457.66 Q2327.48 1454.1 2323.85 1454.1 M2323.85 1450.39 Q2329.66 1450.39 2332.71 1455 Q2335.79 1459.58 2335.79 1468.33 Q2335.79 1477.06 2332.71 1481.67 Q2329.66 1486.25 2323.85 1486.25 Q2318.04 1486.25 2314.96 1481.67 Q2311.9 1477.06 2311.9 1468.33 Q2311.9 1459.58 2314.96 1455 Q2318.04 1450.39 2323.85 1450.39 Z" fill="#000000" fill-rule="nonzero" fill-opacity="1" /><path clip-path="url(#clip910)" d="M1330.98 1550.12 Q1323.88 1550.12 1321.15 1551.75 Q1318.41 1553.37 1318.41 1557.29 Q1318.41 1560.4 1320.45 1562.25 Q1322.51 1564.07 1326.05 1564.07 Q1330.92 1564.07 1333.85 1560.63 Q1336.81 1557.16 1336.81 1551.43 L1336.81 1550.12 L1330.98 1550.12 M1342.66 1547.71 L1342.66 1568.04 L1336.81 1568.04 L1336.81 1562.63 Q1334.8 1565.88 1331.81 1567.44 Q1328.82 1568.97 1324.49 1568.97 Q1319.01 1568.97 1315.77 1565.91 Q1312.55 1562.82 1312.55 1557.67 Q1312.55 1551.65 1316.56 1548.6 Q1320.6 1545.54 1328.59 1545.54 L1336.81 1545.54 L1336.81 1544.97 Q1336.81 1540.93 1334.13 1538.73 Q1331.49 1536.5 1326.68 1536.5 Q1323.63 1536.5 1320.73 1537.23 Q1317.84 1537.97 1315.16 1539.43 L1315.16 1534.02 Q1318.38 1532.78 1321.4 1532.17 Q1324.42 1531.54 1327.29 1531.54 Q1335.02 1531.54 1338.84 1535.55 Q1342.66 1539.56 1342.66 1547.71 Z" fill="#000000" fill-rule="nonzero" fill-opacity="1" /><polyline clip-path="url(#clip912)" style="stroke:#000000; stroke-linecap:round; stroke-linejoin:round; stroke-width:2; stroke-opacity:0.1; fill:none" points="302.458,1266.34 2352.76,1266.34 "/>
<polyline clip-path="url(#clip912)" style="stroke:#000000; stroke-linecap:round; stroke-linejoin:round; stroke-width:2; stroke-opacity:0.1; fill:none" points="302.458,971.303 2352.76,971.303 "/>
<polyline clip-path="url(#clip912)" style="stroke:#000000; stroke-linecap:round; stroke-linejoin:round; stroke-width:2; stroke-opacity:0.1; fill:none" points="302.458,676.264 2352.76,676.264 "/>
<polyline clip-path="url(#clip912)" style="stroke:#000000; stroke-linecap:round; stroke-linejoin:round; stroke-width:2; stroke-opacity:0.1; fill:none" points="302.458,381.225 2352.76,381.225 "/>
<polyline clip-path="url(#clip912)" style="stroke:#000000; stroke-linecap:round; stroke-linejoin:round; stroke-width:2; stroke-opacity:0.1; fill:none" points="302.458,86.1857 2352.76,86.1857 "/>
<polyline clip-path="url(#clip910)" style="stroke:#000000; stroke-linecap:round; stroke-linejoin:round; stroke-width:4; stroke-opacity:1; fill:none" points="302.458,1423.18 302.458,47.2441 "/>
<polyline clip-path="url(#clip910)" style="stroke:#000000; stroke-linecap:round; stroke-linejoin:round; stroke-width:4; stroke-opacity:1; fill:none" points="302.458,1266.34 321.356,1266.34 "/>
<polyline clip-path="url(#clip910)" style="stroke:#000000; stroke-linecap:round; stroke-linejoin:round; stroke-width:4; stroke-opacity:1; fill:none" points="302.458,971.303 321.356,971.303 "/>
<polyline clip-path="url(#clip910)" style="stroke:#000000; stroke-linecap:round; stroke-linejoin:round; stroke-width:4; stroke-opacity:1; fill:none" points="302.458,676.264 321.356,676.264 "/>
<polyline clip-path="url(#clip910)" style="stroke:#000000; stroke-linecap:round; stroke-linejoin:round; stroke-width:4; stroke-opacity:1; fill:none" points="302.458,381.225 321.356,381.225 "/>
<polyline clip-path="url(#clip910)" style="stroke:#000000; stroke-linecap:round; stroke-linejoin:round; stroke-width:4; stroke-opacity:1; fill:none" points="302.458,86.1857 321.356,86.1857 "/>
<path clip-path="url(#clip910)" d="M114.26 1266.79 L143.936 1266.79 L143.936 1270.73 L114.26 1270.73 L114.26 1266.79 Z" fill="#000000" fill-rule="nonzero" fill-opacity="1" /><path clip-path="url(#clip910)" d="M158.056 1279.69 L174.376 1279.69 L174.376 1283.62 L152.431 1283.62 L152.431 1279.69 Q155.093 1276.93 159.677 1272.3 Q164.283 1267.65 165.464 1266.31 Q167.709 1263.78 168.589 1262.05 Q169.491 1260.29 169.491 1258.6 Q169.491 1255.84 167.547 1254.11 Q165.626 1252.37 162.524 1252.37 Q160.325 1252.37 157.871 1253.14 Q155.44 1253.9 152.663 1255.45 L152.663 1250.73 Q155.487 1249.59 157.94 1249.02 Q160.394 1248.44 162.431 1248.44 Q167.802 1248.44 170.996 1251.12 Q174.19 1253.81 174.19 1258.3 Q174.19 1260.43 173.38 1262.35 Q172.593 1264.25 170.487 1266.84 Q169.908 1267.51 166.806 1270.73 Q163.704 1273.92 158.056 1279.69 Z" fill="#000000" fill-rule="nonzero" fill-opacity="1" /><path clip-path="url(#clip910)" d="M194.19 1252.14 Q190.579 1252.14 188.75 1255.71 Q186.945 1259.25 186.945 1266.38 Q186.945 1273.48 188.75 1277.05 Q190.579 1280.59 194.19 1280.59 Q197.825 1280.59 199.63 1277.05 Q201.459 1273.48 201.459 1266.38 Q201.459 1259.25 199.63 1255.71 Q197.825 1252.14 194.19 1252.14 M194.19 1248.44 Q200 1248.44 203.056 1253.04 Q206.135 1257.63 206.135 1266.38 Q206.135 1275.1 203.056 1279.71 Q200 1284.29 194.19 1284.29 Q188.38 1284.29 185.301 1279.71 Q182.246 1275.1 182.246 1266.38 Q182.246 1257.63 185.301 1253.04 Q188.38 1248.44 194.19 1248.44 Z" fill="#000000" fill-rule="nonzero" fill-opacity="1" /><path clip-path="url(#clip910)" d="M224.352 1252.14 Q220.741 1252.14 218.912 1255.71 Q217.107 1259.25 217.107 1266.38 Q217.107 1273.48 218.912 1277.05 Q220.741 1280.59 224.352 1280.59 Q227.986 1280.59 229.792 1277.05 Q231.621 1273.48 231.621 1266.38 Q231.621 1259.25 229.792 1255.71 Q227.986 1252.14 224.352 1252.14 M224.352 1248.44 Q230.162 1248.44 233.218 1253.04 Q236.297 1257.63 236.297 1266.38 Q236.297 1275.1 233.218 1279.71 Q230.162 1284.29 224.352 1284.29 Q218.542 1284.29 215.463 1279.71 Q212.408 1275.1 212.408 1266.38 Q212.408 1257.63 215.463 1253.04 Q218.542 1248.44 224.352 1248.44 Z" fill="#000000" fill-rule="nonzero" fill-opacity="1" /><path clip-path="url(#clip910)" d="M254.514 1252.14 Q250.903 1252.14 249.074 1255.71 Q247.269 1259.25 247.269 1266.38 Q247.269 1273.48 249.074 1277.05 Q250.903 1280.59 254.514 1280.59 Q258.148 1280.59 259.954 1277.05 Q261.783 1273.48 261.783 1266.38 Q261.783 1259.25 259.954 1255.71 Q258.148 1252.14 254.514 1252.14 M254.514 1248.44 Q260.324 1248.44 263.38 1253.04 Q266.458 1257.63 266.458 1266.38 Q266.458 1275.1 263.38 1279.71 Q260.324 1284.29 254.514 1284.29 Q248.704 1284.29 245.625 1279.71 Q242.57 1275.1 242.57 1266.38 Q242.57 1257.63 245.625 1253.04 Q248.704 1248.44 254.514 1248.44 Z" fill="#000000" fill-rule="nonzero" fill-opacity="1" /><path clip-path="url(#clip910)" d="M114.26 971.754 L143.936 971.754 L143.936 975.689 L114.26 975.689 L114.26 971.754 Z" fill="#000000" fill-rule="nonzero" fill-opacity="1" /><path clip-path="url(#clip910)" d="M154.839 984.648 L162.477 984.648 L162.477 958.282 L154.167 959.949 L154.167 955.689 L162.431 954.023 L167.107 954.023 L167.107 984.648 L174.746 984.648 L174.746 988.583 L154.839 988.583 L154.839 984.648 Z" fill="#000000" fill-rule="nonzero" fill-opacity="1" /><path clip-path="url(#clip910)" d="M184.237 954.023 L202.593 954.023 L202.593 957.958 L188.519 957.958 L188.519 966.43 Q189.538 966.083 190.556 965.921 Q191.575 965.736 192.593 965.736 Q198.38 965.736 201.76 968.907 Q205.139 972.078 205.139 977.495 Q205.139 983.074 201.667 986.175 Q198.195 989.254 191.875 989.254 Q189.7 989.254 187.431 988.884 Q185.186 988.513 182.778 987.773 L182.778 983.074 Q184.862 984.208 187.084 984.763 Q189.306 985.319 191.783 985.319 Q195.787 985.319 198.125 983.212 Q200.463 981.106 200.463 977.495 Q200.463 973.884 198.125 971.777 Q195.787 969.671 191.783 969.671 Q189.908 969.671 188.033 970.088 Q186.181 970.504 184.237 971.384 L184.237 954.023 Z" fill="#000000" fill-rule="nonzero" fill-opacity="1" /><path clip-path="url(#clip910)" d="M224.352 957.101 Q220.741 957.101 218.912 960.666 Q217.107 964.208 217.107 971.337 Q217.107 978.444 218.912 982.009 Q220.741 985.55 224.352 985.55 Q227.986 985.55 229.792 982.009 Q231.621 978.444 231.621 971.337 Q231.621 964.208 229.792 960.666 Q227.986 957.101 224.352 957.101 M224.352 953.398 Q230.162 953.398 233.218 958.004 Q236.297 962.588 236.297 971.337 Q236.297 980.064 233.218 984.671 Q230.162 989.254 224.352 989.254 Q218.542 989.254 215.463 984.671 Q212.408 980.064 212.408 971.337 Q212.408 962.588 215.463 958.004 Q218.542 953.398 224.352 953.398 Z" fill="#000000" fill-rule="nonzero" fill-opacity="1" /><path clip-path="url(#clip910)" d="M254.514 957.101 Q250.903 957.101 249.074 960.666 Q247.269 964.208 247.269 971.337 Q247.269 978.444 249.074 982.009 Q250.903 985.55 254.514 985.55 Q258.148 985.55 259.954 982.009 Q261.783 978.444 261.783 971.337 Q261.783 964.208 259.954 960.666 Q258.148 957.101 254.514 957.101 M254.514 953.398 Q260.324 953.398 263.38 958.004 Q266.458 962.588 266.458 971.337 Q266.458 980.064 263.38 984.671 Q260.324 989.254 254.514 989.254 Q248.704 989.254 245.625 984.671 Q242.57 980.064 242.57 971.337 Q242.57 962.588 245.625 958.004 Q248.704 953.398 254.514 953.398 Z" fill="#000000" fill-rule="nonzero" fill-opacity="1" /><path clip-path="url(#clip910)" d="M114.26 676.715 L143.936 676.715 L143.936 680.65 L114.26 680.65 L114.26 676.715 Z" fill="#000000" fill-rule="nonzero" fill-opacity="1" /><path clip-path="url(#clip910)" d="M154.839 689.609 L162.477 689.609 L162.477 663.243 L154.167 664.91 L154.167 660.65 L162.431 658.984 L167.107 658.984 L167.107 689.609 L174.746 689.609 L174.746 693.544 L154.839 693.544 L154.839 689.609 Z" fill="#000000" fill-rule="nonzero" fill-opacity="1" /><path clip-path="url(#clip910)" d="M194.19 662.062 Q190.579 662.062 188.75 665.627 Q186.945 669.169 186.945 676.298 Q186.945 683.405 188.75 686.97 Q190.579 690.511 194.19 690.511 Q197.825 690.511 199.63 686.97 Q201.459 683.405 201.459 676.298 Q201.459 669.169 199.63 665.627 Q197.825 662.062 194.19 662.062 M194.19 658.359 Q200 658.359 203.056 662.965 Q206.135 667.549 206.135 676.298 Q206.135 685.025 203.056 689.632 Q200 694.215 194.19 694.215 Q188.38 694.215 185.301 689.632 Q182.246 685.025 182.246 676.298 Q182.246 667.549 185.301 662.965 Q188.38 658.359 194.19 658.359 Z" fill="#000000" fill-rule="nonzero" fill-opacity="1" /><path clip-path="url(#clip910)" d="M224.352 662.062 Q220.741 662.062 218.912 665.627 Q217.107 669.169 217.107 676.298 Q217.107 683.405 218.912 686.97 Q220.741 690.511 224.352 690.511 Q227.986 690.511 229.792 686.97 Q231.621 683.405 231.621 676.298 Q231.621 669.169 229.792 665.627 Q227.986 662.062 224.352 662.062 M224.352 658.359 Q230.162 658.359 233.218 662.965 Q236.297 667.549 236.297 676.298 Q236.297 685.025 233.218 689.632 Q230.162 694.215 224.352 694.215 Q218.542 694.215 215.463 689.632 Q212.408 685.025 212.408 676.298 Q212.408 667.549 215.463 662.965 Q218.542 658.359 224.352 658.359 Z" fill="#000000" fill-rule="nonzero" fill-opacity="1" /><path clip-path="url(#clip910)" d="M254.514 662.062 Q250.903 662.062 249.074 665.627 Q247.269 669.169 247.269 676.298 Q247.269 683.405 249.074 686.97 Q250.903 690.511 254.514 690.511 Q258.148 690.511 259.954 686.97 Q261.783 683.405 261.783 676.298 Q261.783 669.169 259.954 665.627 Q258.148 662.062 254.514 662.062 M254.514 658.359 Q260.324 658.359 263.38 662.965 Q266.458 667.549 266.458 676.298 Q266.458 685.025 263.38 689.632 Q260.324 694.215 254.514 694.215 Q248.704 694.215 245.625 689.632 Q242.57 685.025 242.57 676.298 Q242.57 667.549 245.625 662.965 Q248.704 658.359 254.514 658.359 Z" fill="#000000" fill-rule="nonzero" fill-opacity="1" /><path clip-path="url(#clip910)" d="M144.422 381.676 L174.098 381.676 L174.098 385.611 L144.422 385.611 L144.422 381.676 Z" fill="#000000" fill-rule="nonzero" fill-opacity="1" /><path clip-path="url(#clip910)" d="M184.237 363.945 L202.593 363.945 L202.593 367.88 L188.519 367.88 L188.519 376.352 Q189.538 376.005 190.556 375.843 Q191.575 375.658 192.593 375.658 Q198.38 375.658 201.76 378.829 Q205.139 382 205.139 387.417 Q205.139 392.995 201.667 396.097 Q198.195 399.176 191.875 399.176 Q189.7 399.176 187.431 398.806 Q185.186 398.435 182.778 397.695 L182.778 392.995 Q184.862 394.13 187.084 394.685 Q189.306 395.241 191.783 395.241 Q195.787 395.241 198.125 393.134 Q200.463 391.028 200.463 387.417 Q200.463 383.806 198.125 381.699 Q195.787 379.593 191.783 379.593 Q189.908 379.593 188.033 380.009 Q186.181 380.426 184.237 381.306 L184.237 363.945 Z" fill="#000000" fill-rule="nonzero" fill-opacity="1" /><path clip-path="url(#clip910)" d="M224.352 367.023 Q220.741 367.023 218.912 370.588 Q217.107 374.13 217.107 381.259 Q217.107 388.366 218.912 391.931 Q220.741 395.472 224.352 395.472 Q227.986 395.472 229.792 391.931 Q231.621 388.366 231.621 381.259 Q231.621 374.13 229.792 370.588 Q227.986 367.023 224.352 367.023 M224.352 363.32 Q230.162 363.32 233.218 367.926 Q236.297 372.509 236.297 381.259 Q236.297 389.986 233.218 394.593 Q230.162 399.176 224.352 399.176 Q218.542 399.176 215.463 394.593 Q212.408 389.986 212.408 381.259 Q212.408 372.509 215.463 367.926 Q218.542 363.32 224.352 363.32 Z" fill="#000000" fill-rule="nonzero" fill-opacity="1" /><path clip-path="url(#clip910)" d="M254.514 367.023 Q250.903 367.023 249.074 370.588 Q247.269 374.13 247.269 381.259 Q247.269 388.366 249.074 391.931 Q250.903 395.472 254.514 395.472 Q258.148 395.472 259.954 391.931 Q261.783 388.366 261.783 381.259 Q261.783 374.13 259.954 370.588 Q258.148 367.023 254.514 367.023 M254.514 363.32 Q260.324 363.32 263.38 367.926 Q266.458 372.509 266.458 381.259 Q266.458 389.986 263.38 394.593 Q260.324 399.176 254.514 399.176 Q248.704 399.176 245.625 394.593 Q242.57 389.986 242.57 381.259 Q242.57 372.509 245.625 367.926 Q248.704 363.32 254.514 363.32 Z" fill="#000000" fill-rule="nonzero" fill-opacity="1" /><path clip-path="url(#clip910)" d="M254.514 71.9844 Q250.903 71.9844 249.074 75.5492 Q247.269 79.0908 247.269 86.2204 Q247.269 93.3268 249.074 96.8916 Q250.903 100.433 254.514 100.433 Q258.148 100.433 259.954 96.8916 Q261.783 93.3268 261.783 86.2204 Q261.783 79.0908 259.954 75.5492 Q258.148 71.9844 254.514 71.9844 M254.514 68.2807 Q260.324 68.2807 263.38 72.8871 Q266.458 77.4704 266.458 86.2204 Q266.458 94.9472 263.38 99.5537 Q260.324 104.137 254.514 104.137 Q248.704 104.137 245.625 99.5537 Q242.57 94.9472 242.57 86.2204 Q242.57 77.4704 245.625 72.8871 Q248.704 68.2807 254.514 68.2807 Z" fill="#000000" fill-rule="nonzero" fill-opacity="1" /><path clip-path="url(#clip910)" d="M28.3562 796.132 L28.3562 789.925 L58.275 778.785 L28.3562 767.645 L28.3562 761.439 L64.0042 774.807 L64.0042 782.764 L28.3562 796.132 Z" fill="#000000" fill-rule="nonzero" fill-opacity="1" /><path clip-path="url(#clip910)" d="M14.5426 739.286 Q21.8632 743.551 29.0246 745.62 Q36.186 747.689 43.5384 747.689 Q50.8908 747.689 58.1159 745.62 Q65.3091 743.519 72.5979 739.286 L72.5979 744.379 Q65.1182 749.153 57.8931 751.54 Q50.668 753.895 43.5384 753.895 Q36.4406 753.895 29.2474 751.54 Q22.0542 749.185 14.5426 744.379 L14.5426 739.286 Z" fill="#000000" fill-rule="nonzero" fill-opacity="1" /><path clip-path="url(#clip910)" d="M46.0847 711.723 Q46.0847 718.82 47.7079 721.558 Q49.3312 724.295 53.2461 724.295 Q56.3653 724.295 58.2114 722.258 Q60.0256 720.189 60.0256 716.656 Q60.0256 711.786 56.5881 708.858 Q53.1188 705.898 47.3897 705.898 L46.0847 705.898 L46.0847 711.723 M43.6657 700.041 L64.0042 700.041 L64.0042 705.898 L58.5933 705.898 Q61.8398 707.903 63.3994 710.895 Q64.9272 713.887 64.9272 718.216 Q64.9272 723.69 61.8716 726.937 Q58.7843 730.151 53.6281 730.151 Q47.6125 730.151 44.5569 726.141 Q41.5014 722.099 41.5014 714.11 L41.5014 705.898 L40.9285 705.898 Q36.8862 705.898 34.6901 708.571 Q32.4621 711.213 32.4621 716.019 Q32.4621 719.075 33.1941 721.971 Q33.9262 724.868 35.3903 727.541 L29.9795 727.541 Q28.7381 724.327 28.1334 721.303 Q27.4968 718.279 27.4968 715.415 Q27.4968 707.68 31.5072 703.861 Q35.5176 700.041 43.6657 700.041 Z" fill="#000000" fill-rule="nonzero" fill-opacity="1" /><path clip-path="url(#clip910)" d="M14.5426 688.901 L14.5426 683.809 Q22.0542 679.035 29.2474 676.679 Q36.4406 674.292 43.5384 674.292 Q50.668 674.292 57.8931 676.679 Q65.1182 679.035 72.5979 683.809 L72.5979 688.901 Q65.3091 684.668 58.1159 682.599 Q50.8908 680.499 43.5384 680.499 Q36.186 680.499 29.0246 682.599 Q21.8632 684.668 14.5426 688.901 Z" fill="#000000" fill-rule="nonzero" fill-opacity="1" /><polyline clip-path="url(#clip912)" style="stroke:#0000ff; stroke-linecap:round; stroke-linejoin:round; stroke-width:4; stroke-opacity:1; fill:none" points="360.486,1384.24 362.422,1325.23 364.358,1269.17 366.294,1215.92 368.23,1165.33 370.167,1117.26 372.103,1071.61 374.039,1028.23 375.975,987.022 377.911,947.875 379.847,910.686 381.784,875.356 383.72,841.792 385.656,809.906 387.592,779.615 389.528,750.839 391.465,723.501 393.401,697.53 395.337,672.858 397.273,649.419 399.209,627.152 401.145,605.999 403.082,585.903 405.018,566.812 406.954,548.676 408.89,531.446 410.826,515.078 412.763,499.528 414.699,484.756 416.635,470.722 418.571,457.39 420.507,444.725 422.443,432.693 424.38,421.262 426.316,410.403 428.252,400.087 430.188,390.287 432.124,380.977 434.061,372.132 435.997,363.73 437.933,355.748 439.869,348.164 441.805,340.96 443.741,334.116 445.678,327.615 447.614,321.438 449.55,315.57 451.486,309.996 453.422,304.7 455.358,299.67 457.295,294.89 459.231,290.35 461.167,286.037 463.103,281.939 465.039,278.046 466.976,274.348 468.912,270.835 470.848,267.497 472.784,264.326 474.72,261.314 476.656,258.367 478.593,255.505 480.529,252.705 482.465,249.987 484.401,247.327 486.337,244.744 488.274,242.217 490.21,239.764 492.146,237.363 494.082,235.032 496.018,232.752 497.954,230.537 499.891,228.371 501.827,226.267 503.763,224.209 505.699,222.211 507.635,220.255 509.571,218.357 511.508,216.499 513.444,214.696 515.38,212.931 517.316,211.218 519.252,209.541 521.189,207.913 523.125,206.321 525.061,204.774 526.997,203.261 528.933,201.792 530.869,200.355 532.806,198.96 534.742,197.594 536.678,196.268 538.614,194.971 540.55,193.712 542.487,192.479 544.423,191.283 546.359,190.112 548.295,188.975 550.231,187.863 552.167,186.783 554.104,185.727 556.04,184.701 557.976,183.697 559.912,182.715 561.848,181.74 563.785,180.786 565.721,179.853 567.657,178.927 569.593,178.021 571.529,177.135 573.465,176.255 575.402,175.395 577.338,174.552 579.274,173.717 581.21,172.899 583.146,172.099 585.082,171.305 587.019,170.528 588.955,169.768 590.891,169.014 592.827,168.276 594.763,167.554 596.7,166.838 598.636,166.137 600.572,165.451 602.508,164.77 604.444,164.104 606.38,163.452 608.317,162.806 610.253,162.173 612.189,161.554 614.125,160.94 616.061,160.339 617.998,159.75 619.934,159.167 621.87,158.596 623.806,158.037 625.742,157.483 627.678,156.94 629.615,156.41 631.551,155.883 633.487,155.368 635.423,154.863 637.359,154.363 639.295,153.872 641.232,153.382 643.168,152.903 645.104,152.428 647.04,151.961 648.976,151.496 650.913,151.041 652.849,150.589 654.785,150.146 656.721,149.704 658.657,149.272 660.593,148.843 662.53,148.422 664.466,148.002 666.402,147.591 668.338,147.184 670.274,146.784 672.211,146.385 674.147,145.995 676.083,145.608 678.019,145.228 679.955,144.849 681.891,144.478 683.828,144.11 685.764,143.749 687.7,143.389 689.636,143.037 691.572,142.688 693.509,142.345 695.445,142.003 697.381,141.668 699.317,141.336 701.253,141.011 703.189,140.686 705.126,140.368 707.062,140.053 708.998,139.743 710.934,139.434 712.87,139.132 714.806,138.833 716.743,138.538 718.679,138.244 720.615,137.951 722.551,137.664 724.487,137.38 726.424,137.1 728.36,136.82 730.296,136.542 732.232,136.269 734.168,135.999 736.104,135.733 738.041,135.467 739.977,135.203 741.913,134.944 743.849,134.687 745.785,134.434 747.722,134.182 749.658,133.931 751.594,133.685 753.53,133.441 755.466,133.201 757.402,132.961 759.339,132.723 761.275,132.489 763.211,132.257 765.147,132.029 767.083,131.802 769.019,131.575 770.956,131.353 772.892,131.133 774.828,130.916 776.764,130.7 778.7,130.484 780.637,130.273 782.573,130.064 784.509,129.858 786.445,129.653 788.381,129.448 790.317,129.248 792.254,129.049 794.19,128.853 796.126,128.657 798.062,128.462 799.998,128.268 801.935,128.077 803.871,127.889 805.807,127.702 807.743,127.516 809.679,127.331 811.615,127.146 813.552,126.965 815.488,126.786 817.424,126.609 819.36,126.432 821.296,126.256 823.233,126.081 825.169,125.909 827.105,125.738 829.041,125.57 830.977,125.402 832.913,125.235 834.85,125.068 836.786,124.905 838.722,124.743 840.658,124.583 842.594,124.424 844.53,124.265 846.467,124.107 848.403,123.952 850.339,123.798 852.275,123.646 854.211,123.495 856.148,123.344 858.084,123.193 860.02,123.046 861.956,122.9 863.892,122.755 865.828,122.612 867.765,122.468 869.701,122.325 871.637,122.185 873.573,122.045 875.509,121.906 877.446,121.769 879.382,121.632 881.318,121.496 883.254,121.36 885.19,121.227 887.126,121.094 889.063,120.962 890.999,120.832 892.935,120.702 894.871,120.573 896.807,120.444 898.743,120.317 900.68,120.191 902.616,120.066 904.552,119.942 906.488,119.818 908.424,119.696 910.361,119.573 912.297,119.453 914.233,119.333 916.169,119.214 918.105,119.096 920.041,118.979 921.978,118.862 923.914,118.746 925.85,118.631 927.786,118.517 929.722,118.404 931.659,118.293 933.595,118.181 935.531,118.07 937.467,117.96 939.403,117.851 941.339,117.743 943.276,117.636 945.212,117.529 947.148,117.424 949.084,117.318 951.02,117.213 952.957,117.108 954.893,117.005 956.829,116.902 958.765,116.8 960.701,116.699 962.637,116.599 964.574,116.499 966.51,116.399 968.446,116.299 970.382,116.201 972.318,116.103 974.254,116.006 976.191,115.91 978.127,115.815 980.063,115.72 981.999,115.625 983.935,115.53 985.872,115.437 987.808,115.344 989.744,115.252 991.68,115.161 993.616,115.07 995.552,114.98 997.489,114.89 999.425,114.8 1001.36,114.711 1003.3,114.623 1005.23,114.536 1007.17,114.449 1009.11,114.363 1011.04,114.277 1012.98,114.191 1014.91,114.106 1016.85,114.022 1018.79,113.938 1020.72,113.855 1022.66,113.773 1024.6,113.691 1026.53,113.609 1028.47,113.527 1030.4,113.446 1032.34,113.365 1034.28,113.285 1036.21,113.205 1038.15,113.126 1040.08,113.048 1042.02,112.971 1043.96,112.893 1045.89,112.815 1047.83,112.738 1049.77,112.661 1051.7,112.585 1053.64,112.509 1055.57,112.434 1057.51,112.36 1059.45,112.286 1061.38,112.213 1063.32,112.139 1065.25,112.065 1067.19,111.992 1069.13,111.92 1071.06,111.848 1073,111.777 1074.94,111.706 1076.87,111.636 1078.81,111.566 1080.74,111.496 1082.68,111.426 1084.62,111.357 1086.55,111.288 1088.49,111.22 1090.43,111.152 1092.36,111.085 1094.3,111.019 1096.23,110.952 1098.17,110.886 1100.11,110.819 1102.04,110.753 1103.98,110.688 1105.91,110.623 1107.85,110.558 1109.79,110.493 1111.72,110.43 1113.66,110.367 1115.6,110.303 1117.53,110.24 1119.47,110.177 1121.4,110.114 1123.34,110.052 1125.28,109.99 1127.21,109.929 1129.15,109.868 1131.08,109.807 1133.02,109.747 1134.96,109.687 1136.89,109.627 1138.83,109.567 1140.77,109.507 1142.7,109.448 1144.64,109.389 1146.57,109.331 1148.51,109.273 1150.45,109.216 1152.38,109.158 1154.32,109.101 1156.26,109.044 1158.19,108.987 1160.13,108.931 1162.06,108.875 1164,108.819 1165.94,108.763 1167.87,108.708 1169.81,108.654 1171.74,108.599 1173.68,108.545 1175.62,108.491 1177.55,108.437 1179.49,108.383 1181.43,108.329 1183.36,108.276 1185.3,108.223 1187.23,108.17 1189.17,108.118 1191.11,108.066 1193.04,108.014 1194.98,107.963 1196.92,107.912 1198.85,107.86 1200.79,107.809 1202.72,107.758 1204.66,107.707 1206.6,107.657 1208.53,107.607 1210.47,107.557 1212.4,107.508 1214.34,107.459 1216.28,107.41 1218.21,107.361 1220.15,107.312 1222.09,107.264 1224.02,107.215 1225.96,107.167 1227.89,107.119 1229.83,107.072 1231.77,107.024 1233.7,106.978 1235.64,106.931 1237.57,106.885 1239.51,106.838 1241.45,106.792 1243.38,106.746 1245.32,106.7 1247.26,106.654 1249.19,106.609 1251.13,106.563 1253.06,106.518 1255,106.474 1256.94,106.429 1258.87,106.385 1260.81,106.341 1262.75,106.297 1264.68,106.253 1266.62,106.209 1268.55,106.165 1270.49,106.122 1272.43,106.079 1274.36,106.036 1276.3,105.993 1278.23,105.951 1280.17,105.908 1282.11,105.866 1284.04,105.824 1285.98,105.783 1287.92,105.741 1289.85,105.699 1291.79,105.658 1293.72,105.616 1295.66,105.575 1297.6,105.534 1299.53,105.494 1301.47,105.454 1303.4,105.414 1305.34,105.374 1307.28,105.334 1309.21,105.294 1311.15,105.254 1313.09,105.215 1315.02,105.175 1316.96,105.136 1318.89,105.097 1320.83,105.058 1322.77,105.02 1324.7,104.981 1326.64,104.943 1328.58,104.905 1330.51,104.868 1332.45,104.83 1334.38,104.792 1336.32,104.754 1338.26,104.717 1340.19,104.679 1342.13,104.642 1344.06,104.605 1346,104.568 1347.94,104.531 1349.87,104.495 1351.81,104.459 1353.75,104.423 1355.68,104.387 1357.62,104.351 1359.55,104.315 1361.49,104.279 1363.43,104.243 1365.36,104.208 1367.3,104.173 1369.24,104.137 1371.17,104.102 1373.11,104.068 1375.04,104.033 1376.98,103.999 1378.92,103.965 1380.85,103.93 1382.79,103.896 1384.72,103.862 1386.66,103.828 1388.6,103.794 1390.53,103.76 1392.47,103.727 1394.41,103.693 1396.34,103.66 1398.28,103.627 1400.21,103.594 1402.15,103.562 1404.09,103.529 1406.02,103.497 1407.96,103.464 1409.89,103.432 1411.83,103.399 1413.77,103.367 1415.7,103.335 1417.64,103.303 1419.58,103.271 1421.51,103.239 1423.45,103.207 1425.38,103.176 1427.32,103.145 1429.26,103.114 1431.19,103.083 1433.13,103.052 1435.07,103.021 1437,102.99 1438.94,102.96 1440.87,102.929 1442.81,102.898 1444.75,102.868 1446.68,102.837 1448.62,102.807 1450.55,102.777 1452.49,102.748 1454.43,102.718 1456.36,102.688 1458.3,102.659 1460.24,102.63 1462.17,102.601 1464.11,102.571 1466.04,102.542 1467.98,102.513 1469.92,102.484 1471.85,102.455 1473.79,102.426 1475.72,102.397 1477.66,102.369 1479.6,102.341 1481.53,102.312 1483.47,102.284 1485.41,102.256 1487.34,102.228 1489.28,102.201 1491.21,102.173 1493.15,102.145 1495.09,102.117 1497.02,102.09 1498.96,102.062 1500.9,102.034 1502.83,102.007 1504.77,101.98 1506.7,101.953 1508.64,101.926 1510.58,101.899 1512.51,101.872 1514.45,101.846 1516.38,101.819 1518.32,101.793 1520.26,101.766 1522.19,101.74 1524.13,101.714 1526.07,101.687 1528,101.661 1529.94,101.635 1531.87,101.609 1533.81,101.583 1535.75,101.557 1537.68,101.532 1539.62,101.506 1541.55,101.481 1543.49,101.456 1545.43,101.431 1547.36,101.405 1549.3,101.38 1551.24,101.355 1553.17,101.33 1555.11,101.305 1557.04,101.28 1558.98,101.255 1560.92,101.231 1562.85,101.206 1564.79,101.182 1566.73,101.157 1568.66,101.133 1570.6,101.109 1572.53,101.085 1574.47,101.061 1576.41,101.037 1578.34,101.013 1580.28,100.989 1582.21,100.965 1584.15,100.941 1586.09,100.918 1588.02,100.894 1589.96,100.87 1591.9,100.847 1593.83,100.824 1595.77,100.8 1597.7,100.777 1599.64,100.754 1601.58,100.731 1603.51,100.708 1605.45,100.685 1607.39,100.663 1609.32,100.64 1611.26,100.617 1613.19,100.595 1615.13,100.572 1617.07,100.55 1619,100.527 1620.94,100.505 1622.87,100.482 1624.81,100.46 1626.75,100.438 1628.68,100.416 1630.62,100.394 1632.56,100.372 1634.49,100.35 1636.43,100.329 1638.36,100.307 1640.3,100.286 1642.24,100.264 1644.17,100.243 1646.11,100.221 1648.04,100.2 1649.98,100.178 1651.92,100.157 1653.85,100.135 1655.79,100.114 1657.73,100.093 1659.66,100.072 1661.6,100.051 1663.53,100.03 1665.47,100.01 1667.41,99.989 1669.34,99.9684 1671.28,99.9478 1673.22,99.9273 1675.15,99.9069 1677.09,99.8864 1679.02,99.866 1680.96,99.8456 1682.9,99.8252 1684.83,99.8049 1686.77,99.7846 1688.7,99.7645 1690.64,99.7445 1692.58,99.7245 1694.51,99.7046 1696.45,99.6848 1698.39,99.6652 1700.32,99.6456 1702.26,99.626 1704.19,99.6065 1706.13,99.587 1708.07,99.5676 1710,99.5482 1711.94,99.5288 1713.87,99.5094 1715.81,99.49 1717.75,99.4707 1719.68,99.4514 1721.62,99.4322 1723.56,99.4131 1725.49,99.3941 1727.43,99.3751 1729.36,99.3561 1731.3,99.3374 1733.24,99.3187 1735.17,99.3001 1737.11,99.2815 1739.05,99.2629 1740.98,99.2444 1742.92,99.226 1744.85,99.2075 1746.79,99.1891 1748.73,99.1707 1750.66,99.1523 1752.6,99.1339 1754.53,99.1156 1756.47,99.0974 1758.41,99.0792 1760.34,99.0611 1762.28,99.0431 1764.22,99.0251 1766.15,99.0073 1768.09,98.9895 1770.02,98.9718 1771.96,98.9542 1773.9,98.9366 1775.83,98.919 1777.77,98.9014 1779.7,98.8839 1781.64,98.8664 1783.58,98.8489 1785.51,98.8314 1787.45,98.814 1789.39,98.7966 1791.32,98.7793 1793.26,98.762 1795.19,98.7448 1797.13,98.7276 1799.07,98.7105 1801,98.6934 1802.94,98.6765 1804.88,98.6596 1806.81,98.6428 1808.75,98.626 1810.68,98.6093 1812.62,98.5926 1814.56,98.5759 1816.49,98.5593 1818.43,98.5426 1820.36,98.526 1822.3,98.5094 1824.24,98.4928 1826.17,98.4763 1828.11,98.4598 1830.05,98.4434 1831.98,98.4271 1833.92,98.4108 1835.85,98.3945 1837.79,98.3783 1839.73,98.3622 1841.66,98.3462 1843.6,98.3302 1845.54,98.3143 1847.47,98.2984 1849.41,98.2825 1851.34,98.2667 1853.28,98.2508 1855.22,98.235 1857.15,98.2193 1859.09,98.2035 1861.02,98.1877 1862.96,98.172 1864.9,98.1564 1866.83,98.1408 1868.77,98.1253 1870.71,98.1097 1872.64,98.0943 1874.58,98.0788 1876.51,98.0634 1878.45,98.0481 1880.39,98.0329 1882.32,98.0177 1884.26,98.0026 1886.19,97.9875 1888.13,97.9724 1890.07,97.9573 1892,97.9423 1893.94,97.9273 1895.88,97.9123 1897.81,97.8973 1899.75,97.8824 1901.68,97.8675 1903.62,97.8526 1905.56,97.8378 1907.49,97.823 1909.43,97.8083 1911.37,97.7936 1913.3,97.7789 1915.24,97.7642 1917.17,97.7497 1919.11,97.7353 1921.05,97.7209 1922.98,97.7065 1924.92,97.6921 1926.85,97.6778 1928.79,97.6635 1930.73,97.6492 1932.66,97.635 1934.6,97.6207 1936.54,97.6065 1938.47,97.5923 1940.41,97.5781 1942.34,97.564 1944.28,97.5499 1946.22,97.5359 1948.15,97.5219 1950.09,97.5079 1952.02,97.4939 1953.96,97.4799 1955.9,97.466 1957.83,97.4522 1959.77,97.4385 1961.71,97.4248 1963.64,97.4111 1965.58,97.3975 1967.51,97.3839 1969.45,97.3703 1971.39,97.3568 1973.32,97.3432 1975.26,97.3297 1977.2,97.3162 1979.13,97.3027 1981.07,97.2892 1983,97.2758 1984.94,97.2624 1986.88,97.2491 1988.81,97.2358 1990.75,97.2225 1992.68,97.2092 1994.62,97.1959 1996.56,97.1827 1998.49,97.1696 2000.43,97.1566 2002.37,97.1436 2004.3,97.1306 2006.24,97.1176 2008.17,97.1047 2010.11,97.0918 2012.05,97.0789 2013.98,97.0661 2015.92,97.0532 2017.86,97.0403 2019.79,97.0275 2021.73,97.0147 2023.66,97.002 2025.6,96.9892 2027.54,96.9765 2029.47,96.9639 2031.41,96.9512 2033.34,96.9386 2035.28,96.926 2037.22,96.9134 2039.15,96.9008 2041.09,96.8884 2043.03,96.876 2044.96,96.8636 2046.9,96.8513 2048.83,96.839 2050.77,96.8267 2052.71,96.8144 2054.64,96.8022 2056.58,96.79 2058.51,96.7778 2060.45,96.7656 2062.39,96.7534 2064.32,96.7412 2066.26,96.7291 2068.2,96.717 2070.13,96.7049 2072.07,96.6929 2074,96.6809 2075.94,96.6689 2077.88,96.6569 2079.81,96.6449 2081.75,96.633 2083.69,96.6212 2085.62,96.6094 2087.56,96.5977 2089.49,96.586 2091.43,96.5743 2093.37,96.5626 2095.3,96.5509 2097.24,96.5393 2099.17,96.5277 2101.11,96.5161 2103.05,96.5045 2104.98,96.4929 2106.92,96.4813 2108.86,96.4698 2110.79,96.4582 2112.73,96.4467 2114.66,96.4353 2116.6,96.4238 2118.54,96.4124 2120.47,96.401 2122.41,96.3896 2124.34,96.3783 2126.28,96.3669 2128.22,96.3557 2130.15,96.3445 2132.09,96.3334 2134.03,96.3222 2135.96,96.3111 2137.9,96.3 2139.83,96.289 2141.77,96.2779 2143.71,96.2669 2145.64,96.2559 2147.58,96.2448 2149.52,96.2338 2151.45,96.2228 2153.39,96.2118 2155.32,96.2009 2157.26,96.19 2159.2,96.1791 2161.13,96.1682 2163.07,96.1574 2165,96.1465 2166.94,96.1357 2168.88,96.1249 2170.81,96.1142 2172.75,96.1035 2174.69,96.0928 2176.62,96.0822 2178.56,96.0716 2180.49,96.061 2182.43,96.0505 2184.37,96.04 2186.3,96.0294 2188.24,96.0189 2190.17,96.0084 2192.11,95.998 2194.05,95.9875 2195.98,95.977 2197.92,95.9666 2199.86,95.9562 2201.79,95.9458 2203.73,95.9354 2205.66,95.925 2207.6,95.9147 2209.54,95.9044 2211.47,95.8941 2213.41,95.8839 2215.35,95.8736 2217.28,95.8634 2219.22,95.8532 2221.15,95.8431 2223.09,95.833 2225.03,95.8229 2226.96,95.8129 2228.9,95.8029 2230.83,95.7929 2232.77,95.7829 2234.71,95.7729 2236.64,95.7629 2238.58,95.753 2240.52,95.743 2242.45,95.7331 2244.39,95.7231 2246.32,95.7133 2248.26,95.7034 2250.2,95.6935 2252.13,95.6837 2254.07,95.6739 2256.01,95.6641 2257.94,95.6543 2259.88,95.6445 2261.81,95.6347 2263.75,95.625 2265.69,95.6153 2267.62,95.6056 2269.56,95.596 2271.49,95.5864 2273.43,95.5769 2275.37,95.5673 2277.3,95.5578 2279.24,95.5483 2281.18,95.5388 2283.11,95.5293 2285.05,95.5199 2286.98,95.5104 2288.92,95.5009 2290.86,95.4915 2292.79,95.4821 2294.73,95.4727 "/>
<polyline clip-path="url(#clip912)" style="stroke:#ff0000; stroke-linecap:round; stroke-linejoin:round; stroke-width:4; stroke-opacity:1; fill:none" points="360.486,1006.56 362.422,923.572 364.358,854.314 366.294,795.638 368.23,745.29 370.167,701.614 372.103,663.367 374.039,629.596 375.975,599.558 377.911,572.667 379.847,548.453 381.784,526.535 383.72,506.602 385.656,488.395 387.592,471.699 389.528,456.335 391.465,442.148 393.401,429.008 395.337,416.804 397.273,405.439 399.209,394.83 401.145,384.902 403.082,375.594 405.018,366.848 406.954,358.615 408.89,350.852 410.826,343.518 412.763,336.581 414.699,330.007 416.635,323.77 418.571,317.844 420.507,312.206 422.443,306.836 424.38,301.715 426.316,296.827 428.252,292.156 430.188,287.687 432.124,283.408 434.061,279.307 435.997,275.373 437.933,271.596 439.869,267.967 441.805,264.477 443.741,261.119 445.678,257.885 447.614,254.768 449.55,251.763 451.486,248.863 453.422,246.062 455.358,243.357 457.295,240.741 459.231,238.211 461.167,235.763 463.103,233.392 465.039,231.095 466.976,228.869 468.912,226.71 470.848,224.615 472.784,222.582 474.72,220.608 476.656,218.69 478.593,216.826 480.529,215.014 482.465,213.252 484.401,211.537 486.337,209.867 488.274,208.242 490.21,206.659 492.146,205.116 494.082,203.612 496.018,202.146 497.954,200.716 499.891,199.321 501.827,197.959 503.763,196.63 505.699,195.332 507.635,194.064 509.571,192.826 511.508,191.615 513.444,190.432 515.38,189.275 517.316,188.143 519.252,187.036 521.189,185.952 523.125,184.892 525.061,183.854 526.997,182.838 528.933,181.842 530.869,180.867 532.806,179.911 534.742,178.975 536.678,178.057 538.614,177.157 540.55,176.275 542.487,175.409 544.423,174.56 546.359,173.727 548.295,172.91 550.231,172.108 552.167,171.32 554.104,170.547 556.04,169.787 557.976,169.041 559.912,168.309 561.848,167.589 563.785,166.882 565.721,166.187 567.657,165.503 569.593,164.832 571.529,164.171 573.465,163.522 575.402,162.883 577.338,162.255 579.274,161.637 581.21,161.029 583.146,160.431 585.082,159.842 587.019,159.262 588.955,158.692 590.891,158.13 592.827,157.577 594.763,157.032 596.7,156.496 598.636,155.968 600.572,155.447 602.508,154.935 604.444,154.43 606.38,153.932 608.317,153.441 610.253,152.958 612.189,152.481 614.125,152.011 616.061,151.548 617.998,151.091 619.934,150.641 621.87,150.196 623.806,149.758 625.742,149.326 627.678,148.9 629.615,148.479 631.551,148.064 633.487,147.654 635.423,147.25 637.359,146.851 639.295,146.458 641.232,146.069 643.168,145.685 645.104,145.307 647.04,144.933 648.976,144.563 650.913,144.199 652.849,143.839 654.785,143.483 656.721,143.132 658.657,142.785 660.593,142.442 662.53,142.103 664.466,141.768 666.402,141.438 668.338,141.111 670.274,140.788 672.211,140.469 674.147,140.154 676.083,139.842 678.019,139.534 679.955,139.229 681.891,138.928 683.828,138.63 685.764,138.335 687.7,138.044 689.636,137.756 691.572,137.471 693.509,137.19 695.445,136.911 697.381,136.636 699.317,136.363 701.253,136.093 703.189,135.827 705.126,135.563 707.062,135.302 708.998,135.043 710.934,134.788 712.87,134.535 714.806,134.284 716.743,134.036 718.679,133.791 720.615,133.548 722.551,133.308 724.487,133.07 726.424,132.835 728.36,132.601 730.296,132.371 732.232,132.142 734.168,131.916 736.104,131.692 738.041,131.47 739.977,131.25 741.913,131.033 743.849,130.817 745.785,130.604 747.722,130.392 749.658,130.183 751.594,129.975 753.53,129.77 755.466,129.566 757.402,129.365 759.339,129.165 761.275,128.967 763.211,128.771 765.147,128.576 767.083,128.384 769.019,128.193 770.956,128.004 772.892,127.816 774.828,127.63 776.764,127.446 778.7,127.264 780.637,127.083 782.573,126.904 784.509,126.726 786.445,126.55 788.381,126.375 790.317,126.202 792.254,126.03 794.19,125.86 796.126,125.691 798.062,125.524 799.998,125.358 801.935,125.193 803.871,125.03 805.807,124.868 807.743,124.708 809.679,124.549 811.615,124.391 813.552,124.235 815.488,124.079 817.424,123.925 819.36,123.773 821.296,123.621 823.233,123.471 825.169,123.322 827.105,123.174 829.041,123.027 830.977,122.881 832.913,122.737 834.85,122.594 836.786,122.452 838.722,122.311 840.658,122.171 842.594,122.032 844.53,121.894 846.467,121.757 848.403,121.621 850.339,121.487 852.275,121.353 854.211,121.22 856.148,121.089 858.084,120.958 860.02,120.828 861.956,120.7 863.892,120.572 865.828,120.445 867.765,120.319 869.701,120.194 871.637,120.07 873.573,119.947 875.509,119.825 877.446,119.703 879.382,119.583 881.318,119.463 883.254,119.344 885.19,119.226 887.126,119.109 889.063,118.993 890.999,118.877 892.935,118.763 894.871,118.649 896.807,118.536 898.743,118.423 900.68,118.312 902.616,118.201 904.552,118.091 906.488,117.982 908.424,117.873 910.361,117.766 912.297,117.659 914.233,117.552 916.169,117.447 918.105,117.342 920.041,117.238 921.978,117.134 923.914,117.031 925.85,116.929 927.786,116.828 929.722,116.727 931.659,116.627 933.595,116.528 935.531,116.429 937.467,116.331 939.403,116.233 941.339,116.136 943.276,116.04 945.212,115.944 947.148,115.849 949.084,115.755 951.02,115.661 952.957,115.568 954.893,115.475 956.829,115.383 958.765,115.291 960.701,115.2 962.637,115.11 964.574,115.02 966.51,114.931 968.446,114.842 970.382,114.754 972.318,114.667 974.254,114.58 976.191,114.493 978.127,114.407 980.063,114.321 981.999,114.237 983.935,114.152 985.872,114.068 987.808,113.985 989.744,113.902 991.68,113.819 993.616,113.737 995.552,113.656 997.489,113.575 999.425,113.494 1001.36,113.414 1003.3,113.335 1005.23,113.255 1007.17,113.177 1009.11,113.099 1011.04,113.021 1012.98,112.943 1014.91,112.867 1016.85,112.79 1018.79,112.714 1020.72,112.639 1022.66,112.563 1024.6,112.489 1026.53,112.414 1028.47,112.341 1030.4,112.267 1032.34,112.194 1034.28,112.121 1036.21,112.049 1038.15,111.977 1040.08,111.906 1042.02,111.835 1043.96,111.764 1045.89,111.694 1047.83,111.624 1049.77,111.555 1051.7,111.486 1053.64,111.417 1055.57,111.349 1057.51,111.281 1059.45,111.213 1061.38,111.146 1063.32,111.079 1065.25,111.012 1067.19,110.946 1069.13,110.88 1071.06,110.815 1073,110.75 1074.94,110.685 1076.87,110.62 1078.81,110.556 1080.74,110.492 1082.68,110.429 1084.62,110.366 1086.55,110.303 1088.49,110.241 1090.43,110.178 1092.36,110.117 1094.3,110.055 1096.23,109.994 1098.17,109.933 1100.11,109.872 1102.04,109.812 1103.98,109.752 1105.91,109.693 1107.85,109.633 1109.79,109.574 1111.72,109.515 1113.66,109.457 1115.6,109.399 1117.53,109.341 1119.47,109.283 1121.4,109.226 1123.34,109.169 1125.28,109.112 1127.21,109.056 1129.15,109 1131.08,108.944 1133.02,108.888 1134.96,108.833 1136.89,108.778 1138.83,108.723 1140.77,108.668 1142.7,108.614 1144.64,108.56 1146.57,108.506 1148.51,108.453 1150.45,108.399 1152.38,108.346 1154.32,108.294 1156.26,108.241 1158.19,108.189 1160.13,108.137 1162.06,108.085 1164,108.034 1165.94,107.982 1167.87,107.931 1169.81,107.881 1171.74,107.83 1173.68,107.78 1175.62,107.73 1177.55,107.68 1179.49,107.63 1181.43,107.581 1183.36,107.531 1185.3,107.483 1187.23,107.434 1189.17,107.385 1191.11,107.337 1193.04,107.289 1194.98,107.241 1196.92,107.194 1198.85,107.146 1200.79,107.099 1202.72,107.052 1204.66,107.005 1206.6,106.959 1208.53,106.912 1210.47,106.866 1212.4,106.82 1214.34,106.774 1216.28,106.729 1218.21,106.683 1220.15,106.638 1222.09,106.593 1224.02,106.549 1225.96,106.504 1227.89,106.46 1229.83,106.416 1231.77,106.372 1233.7,106.328 1235.64,106.284 1237.57,106.241 1239.51,106.198 1241.45,106.155 1243.38,106.112 1245.32,106.069 1247.26,106.027 1249.19,105.984 1251.13,105.942 1253.06,105.9 1255,105.859 1256.94,105.817 1258.87,105.776 1260.81,105.734 1262.75,105.693 1264.68,105.652 1266.62,105.612 1268.55,105.571 1270.49,105.531 1272.43,105.49 1274.36,105.45 1276.3,105.411 1278.23,105.371 1280.17,105.331 1282.11,105.292 1284.04,105.253 1285.98,105.214 1287.92,105.175 1289.85,105.136 1291.79,105.097 1293.72,105.059 1295.66,105.021 1297.6,104.983 1299.53,104.945 1301.47,104.907 1303.4,104.869 1305.34,104.832 1307.28,104.794 1309.21,104.757 1311.15,104.72 1313.09,104.683 1315.02,104.646 1316.96,104.61 1318.89,104.573 1320.83,104.537 1322.77,104.501 1324.7,104.465 1326.64,104.429 1328.58,104.393 1330.51,104.357 1332.45,104.322 1334.38,104.287 1336.32,104.251 1338.26,104.216 1340.19,104.181 1342.13,104.146 1344.06,104.112 1346,104.077 1347.94,104.043 1349.87,104.009 1351.81,103.974 1353.75,103.94 1355.68,103.907 1357.62,103.873 1359.55,103.839 1361.49,103.806 1363.43,103.772 1365.36,103.739 1367.3,103.706 1369.24,103.673 1371.17,103.64 1373.11,103.607 1375.04,103.575 1376.98,103.542 1378.92,103.51 1380.85,103.478 1382.79,103.446 1384.72,103.414 1386.66,103.382 1388.6,103.35 1390.53,103.318 1392.47,103.287 1394.41,103.255 1396.34,103.224 1398.28,103.193 1400.21,103.162 1402.15,103.131 1404.09,103.1 1406.02,103.069 1407.96,103.038 1409.89,103.008 1411.83,102.977 1413.77,102.947 1415.7,102.917 1417.64,102.887 1419.58,102.857 1421.51,102.827 1423.45,102.797 1425.38,102.768 1427.32,102.738 1429.26,102.709 1431.19,102.679 1433.13,102.65 1435.07,102.621 1437,102.592 1438.94,102.563 1440.87,102.534 1442.81,102.505 1444.75,102.477 1446.68,102.448 1448.62,102.42 1450.55,102.391 1452.49,102.363 1454.43,102.335 1456.36,102.307 1458.3,102.279 1460.24,102.251 1462.17,102.224 1464.11,102.196 1466.04,102.168 1467.98,102.141 1469.92,102.114 1471.85,102.086 1473.79,102.059 1475.72,102.032 1477.66,102.005 1479.6,101.978 1481.53,101.951 1483.47,101.925 1485.41,101.898 1487.34,101.871 1489.28,101.845 1491.21,101.819 1493.15,101.792 1495.09,101.766 1497.02,101.74 1498.96,101.714 1500.9,101.688 1502.83,101.662 1504.77,101.637 1506.7,101.611 1508.64,101.585 1510.58,101.56 1512.51,101.534 1514.45,101.509 1516.38,101.484 1518.32,101.459 1520.26,101.434 1522.19,101.409 1524.13,101.384 1526.07,101.359 1528,101.334 1529.94,101.309 1531.87,101.285 1533.81,101.26 1535.75,101.236 1537.68,101.212 1539.62,101.187 1541.55,101.163 1543.49,101.139 1545.43,101.115 1547.36,101.091 1549.3,101.067 1551.24,101.043 1553.17,101.02 1555.11,100.996 1557.04,100.972 1558.98,100.949 1560.92,100.925 1562.85,100.902 1564.79,100.879 1566.73,100.856 1568.66,100.832 1570.6,100.809 1572.53,100.786 1574.47,100.763 1576.41,100.741 1578.34,100.718 1580.28,100.695 1582.21,100.673 1584.15,100.65 1586.09,100.627 1588.02,100.605 1589.96,100.583 1591.9,100.56 1593.83,100.538 1595.77,100.516 1597.7,100.494 1599.64,100.472 1601.58,100.45 1603.51,100.428 1605.45,100.406 1607.39,100.385 1609.32,100.363 1611.26,100.341 1613.19,100.32 1615.13,100.298 1617.07,100.277 1619,100.256 1620.94,100.234 1622.87,100.213 1624.81,100.192 1626.75,100.171 1628.68,100.15 1630.62,100.129 1632.56,100.108 1634.49,100.087 1636.43,100.066 1638.36,100.046 1640.3,100.025 1642.24,100.004 1644.17,99.9838 1646.11,99.9633 1648.04,99.9429 1649.98,99.9225 1651.92,99.9023 1653.85,99.882 1655.79,99.8619 1657.73,99.8418 1659.66,99.8217 1661.6,99.8017 1663.53,99.7818 1665.47,99.7619 1667.41,99.7421 1669.34,99.7223 1671.28,99.7026 1673.22,99.683 1675.15,99.6634 1677.09,99.6439 1679.02,99.6244 1680.96,99.605 1682.9,99.5856 1684.83,99.5663 1686.77,99.5471 1688.7,99.5279 1690.64,99.5087 1692.58,99.4896 1694.51,99.4706 1696.45,99.4516 1698.39,99.4327 1700.32,99.4138 1702.26,99.395 1704.19,99.3763 1706.13,99.3576 1708.07,99.3389 1710,99.3203 1711.94,99.3017 1713.87,99.2833 1715.81,99.2648 1717.75,99.2464 1719.68,99.2281 1721.62,99.2098 1723.56,99.1915 1725.49,99.1734 1727.43,99.1552 1729.36,99.1371 1731.3,99.1191 1733.24,99.1011 1735.17,99.0832 1737.11,99.0653 1739.05,99.0475 1740.98,99.0297 1742.92,99.0119 1744.85,98.9942 1746.79,98.9766 1748.73,98.959 1750.66,98.9415 1752.6,98.924 1754.53,98.9065 1756.47,98.8891 1758.41,98.8718 1760.34,98.8545 1762.28,98.8372 1764.22,98.82 1766.15,98.8028 1768.09,98.7857 1770.02,98.7686 1771.96,98.7516 1773.9,98.7346 1775.83,98.7177 1777.77,98.7008 1779.7,98.684 1781.64,98.6672 1783.58,98.6504 1785.51,98.6337 1787.45,98.6171 1789.39,98.6004 1791.32,98.5839 1793.26,98.5673 1795.19,98.5509 1797.13,98.5344 1799.07,98.518 1801,98.5017 1802.94,98.4853 1804.88,98.4691 1806.81,98.4529 1808.75,98.4367 1810.68,98.4205 1812.62,98.4044 1814.56,98.3884 1816.49,98.3724 1818.43,98.3564 1820.36,98.3405 1822.3,98.3246 1824.24,98.3087 1826.17,98.2929 1828.11,98.2772 1830.05,98.2615 1831.98,98.2458 1833.92,98.2301 1835.85,98.2145 1837.79,98.199 1839.73,98.1835 1841.66,98.168 1843.6,98.1525 1845.54,98.1371 1847.47,98.1218 1849.41,98.1065 1851.34,98.0912 1853.28,98.0759 1855.22,98.0607 1857.15,98.0456 1859.09,98.0304 1861.02,98.0154 1862.96,98.0003 1864.9,97.9853 1866.83,97.9703 1868.77,97.9554 1870.71,97.9405 1872.64,97.9256 1874.58,97.9108 1876.51,97.896 1878.45,97.8813 1880.39,97.8666 1882.32,97.8519 1884.26,97.8373 1886.19,97.8227 1888.13,97.8081 1890.07,97.7936 1892,97.7791 1893.94,97.7646 1895.88,97.7502 1897.81,97.7358 1899.75,97.7215 1901.68,97.7072 1903.62,97.6929 1905.56,97.6787 1907.49,97.6644 1909.43,97.6503 1911.37,97.6361 1913.3,97.622 1915.24,97.608 1917.17,97.5939 1919.11,97.58 1921.05,97.566 1922.98,97.5521 1924.92,97.5382 1926.85,97.5243 1928.79,97.5105 1930.73,97.4967 1932.66,97.4829 1934.6,97.4692 1936.54,97.4555 1938.47,97.4419 1940.41,97.4282 1942.34,97.4146 1944.28,97.4011 1946.22,97.3875 1948.15,97.3741 1950.09,97.3606 1952.02,97.3472 1953.96,97.3338 1955.9,97.3204 1957.83,97.3071 1959.77,97.2938 1961.71,97.2805 1963.64,97.2673 1965.58,97.254 1967.51,97.2409 1969.45,97.2277 1971.39,97.2146 1973.32,97.2015 1975.26,97.1885 1977.2,97.1755 1979.13,97.1625 1981.07,97.1495 1983,97.1366 1984.94,97.1237 1986.88,97.1108 1988.81,97.098 1990.75,97.0852 1992.68,97.0724 1994.62,97.0597 1996.56,97.0469 1998.49,97.0343 2000.43,97.0216 2002.37,97.009 2004.3,96.9964 2006.24,96.9838 2008.17,96.9713 2010.11,96.9588 2012.05,96.9463 2013.98,96.9338 2015.92,96.9214 2017.86,96.909 2019.79,96.8966 2021.73,96.8843 2023.66,96.872 2025.6,96.8597 2027.54,96.8474 2029.47,96.8352 2031.41,96.823 2033.34,96.8109 2035.28,96.7987 2037.22,96.7866 2039.15,96.7745 2041.09,96.7625 2043.03,96.7504 2044.96,96.7384 2046.9,96.7264 2048.83,96.7145 2050.77,96.7026 2052.71,96.6907 2054.64,96.6788 2056.58,96.667 2058.51,96.6551 2060.45,96.6434 2062.39,96.6316 2064.32,96.6199 2066.26,96.6081 2068.2,96.5965 2070.13,96.5848 2072.07,96.5732 2074,96.5616 2075.94,96.55 2077.88,96.5384 2079.81,96.5269 2081.75,96.5154 2083.69,96.5039 2085.62,96.4925 2087.56,96.4811 2089.49,96.4697 2091.43,96.4583 2093.37,96.4469 2095.3,96.4356 2097.24,96.4243 2099.17,96.413 2101.11,96.4018 2103.05,96.3906 2104.98,96.3794 2106.92,96.3682 2108.86,96.357 2110.79,96.3459 2112.73,96.3348 2114.66,96.3237 2116.6,96.3127 2118.54,96.3016 2120.47,96.2906 2122.41,96.2796 2124.34,96.2687 2126.28,96.2578 2128.22,96.2468 2130.15,96.236 2132.09,96.2251 2134.03,96.2142 2135.96,96.2034 2137.9,96.1926 2139.83,96.1819 2141.77,96.1711 2143.71,96.1604 2145.64,96.1497 2147.58,96.139 2149.52,96.1284 2151.45,96.1177 2153.39,96.1071 2155.32,96.0965 2157.26,96.086 2159.2,96.0754 2161.13,96.0649 2163.07,96.0544 2165,96.0439 2166.94,96.0335 2168.88,96.023 2170.81,96.0126 2172.75,96.0022 2174.69,95.9919 2176.62,95.9815 2178.56,95.9712 2180.49,95.9609 2182.43,95.9506 2184.37,95.9404 2186.3,95.9302 2188.24,95.9199 2190.17,95.9097 2192.11,95.8996 2194.05,95.8894 2195.98,95.8793 2197.92,95.8692 2199.86,95.8591 2201.79,95.849 2203.73,95.839 2205.66,95.829 2207.6,95.819 2209.54,95.809 2211.47,95.799 2213.41,95.7891 2215.35,95.7792 2217.28,95.7693 2219.22,95.7594 2221.15,95.7495 2223.09,95.7397 2225.03,95.7299 2226.96,95.7201 2228.9,95.7103 2230.83,95.7005 2232.77,95.6908 2234.71,95.6811 2236.64,95.6714 2238.58,95.6617 2240.52,95.652 2242.45,95.6424 2244.39,95.6328 2246.32,95.6232 2248.26,95.6136 2250.2,95.604 2252.13,95.5945 2254.07,95.585 2256.01,95.5755 2257.94,95.566 2259.88,95.5565 2261.81,95.5471 2263.75,95.5377 2265.69,95.5283 2267.62,95.5189 2269.56,95.5095 2271.49,95.5001 2273.43,95.4908 2275.37,95.4815 2277.3,95.4722 2279.24,95.4629 2281.18,95.4537 2283.11,95.4444 2285.05,95.4352 2286.98,95.426 2288.92,95.4168 2290.86,95.4077 2292.79,95.3985 2294.73,95.3894 "/>
<polyline clip-path="url(#clip912)" style="stroke:#008000; stroke-linecap:round; stroke-linejoin:round; stroke-width:4; stroke-opacity:1; fill:none" points="360.486,86.1857 362.422,86.1857 364.358,86.1857 366.294,86.1857 368.23,86.1857 370.167,86.1857 372.103,86.1857 374.039,86.1857 375.975,86.1857 377.911,86.1857 379.847,86.1857 381.784,86.1857 383.72,86.1857 385.656,86.1857 387.592,86.1857 389.528,86.1857 391.465,86.1857 393.401,86.1857 395.337,86.1857 397.273,86.1857 399.209,86.1857 401.145,86.1857 403.082,86.1857 405.018,86.1857 406.954,86.1857 408.89,86.1857 410.826,86.1857 412.763,86.1857 414.699,86.1857 416.635,86.1857 418.571,86.1857 420.507,86.1857 422.443,86.1857 424.38,86.1857 426.316,86.1857 428.252,86.1857 430.188,86.1857 432.124,86.1857 434.061,86.1857 435.997,86.1857 437.933,86.1857 439.869,86.1857 441.805,86.1857 443.741,86.1857 445.678,86.1857 447.614,86.1857 449.55,86.1857 451.486,86.1857 453.422,86.1857 455.358,86.1857 457.295,86.1857 459.231,86.1857 461.167,86.1857 463.103,86.1857 465.039,86.1857 466.976,86.1857 468.912,86.1857 470.848,86.1857 472.784,86.1857 474.72,86.1857 476.656,86.1857 478.593,86.1857 480.529,86.1857 482.465,86.1857 484.401,86.1857 486.337,86.1857 488.274,86.1857 490.21,86.1857 492.146,86.1857 494.082,86.1857 496.018,86.1857 497.954,86.1857 499.891,86.1857 501.827,86.1857 503.763,86.1857 505.699,86.1857 507.635,86.1857 509.571,86.1857 511.508,86.1857 513.444,86.1857 515.38,86.1857 517.316,86.1857 519.252,86.1857 521.189,86.1857 523.125,86.1857 525.061,86.1857 526.997,86.1857 528.933,86.1857 530.869,86.1857 532.806,86.1857 534.742,86.1857 536.678,86.1857 538.614,86.1857 540.55,86.1857 542.487,86.1857 544.423,86.1857 546.359,86.1857 548.295,86.1857 550.231,86.1857 552.167,86.1857 554.104,86.1857 556.04,86.1857 557.976,86.1857 559.912,86.1857 561.848,86.1857 563.785,86.1857 565.721,86.1857 567.657,86.1857 569.593,86.1857 571.529,86.1857 573.465,86.1857 575.402,86.1857 577.338,86.1857 579.274,86.1857 581.21,86.1857 583.146,86.1857 585.082,86.1857 587.019,86.1857 588.955,86.1857 590.891,86.1857 592.827,86.1857 594.763,86.1857 596.7,86.1857 598.636,86.1857 600.572,86.1857 602.508,86.1857 604.444,86.1857 606.38,86.1857 608.317,86.1857 610.253,86.1857 612.189,86.1857 614.125,86.1857 616.061,86.1857 617.998,86.1857 619.934,86.1857 621.87,86.1857 623.806,86.1857 625.742,86.1857 627.678,86.1857 629.615,86.1857 631.551,86.1857 633.487,86.1857 635.423,86.1857 637.359,86.1857 639.295,86.1857 641.232,86.1857 643.168,86.1857 645.104,86.1857 647.04,86.1857 648.976,86.1857 650.913,86.1857 652.849,86.1857 654.785,86.1857 656.721,86.1857 658.657,86.1857 660.593,86.1857 662.53,86.1857 664.466,86.1857 666.402,86.1857 668.338,86.1857 670.274,86.1857 672.211,86.1857 674.147,86.1857 676.083,86.1857 678.019,86.1857 679.955,86.1857 681.891,86.1857 683.828,86.1857 685.764,86.1857 687.7,86.1857 689.636,86.1857 691.572,86.1857 693.509,86.1857 695.445,86.1857 697.381,86.1857 699.317,86.1857 701.253,86.1857 703.189,86.1857 705.126,86.1857 707.062,86.1857 708.998,86.1857 710.934,86.1857 712.87,86.1857 714.806,86.1857 716.743,86.1857 718.679,86.1857 720.615,86.1857 722.551,86.1857 724.487,86.1857 726.424,86.1857 728.36,86.1857 730.296,86.1857 732.232,86.1857 734.168,86.1857 736.104,86.1857 738.041,86.1857 739.977,86.1857 741.913,86.1857 743.849,86.1857 745.785,86.1857 747.722,86.1857 749.658,86.1857 751.594,86.1857 753.53,86.1857 755.466,86.1857 757.402,86.1857 759.339,86.1857 761.275,86.1857 763.211,86.1857 765.147,86.1857 767.083,86.1857 769.019,86.1857 770.956,86.1857 772.892,86.1857 774.828,86.1857 776.764,86.1857 778.7,86.1857 780.637,86.1857 782.573,86.1857 784.509,86.1857 786.445,86.1857 788.381,86.1857 790.317,86.1857 792.254,86.1857 794.19,86.1857 796.126,86.1857 798.062,86.1857 799.998,86.1857 801.935,86.1857 803.871,86.1857 805.807,86.1857 807.743,86.1857 809.679,86.1857 811.615,86.1857 813.552,86.1857 815.488,86.1857 817.424,86.1857 819.36,86.1857 821.296,86.1857 823.233,86.1857 825.169,86.1857 827.105,86.1857 829.041,86.1857 830.977,86.1857 832.913,86.1857 834.85,86.1857 836.786,86.1857 838.722,86.1857 840.658,86.1857 842.594,86.1857 844.53,86.1857 846.467,86.1857 848.403,86.1857 850.339,86.1857 852.275,86.1857 854.211,86.1857 856.148,86.1857 858.084,86.1857 860.02,86.1857 861.956,86.1857 863.892,86.1857 865.828,86.1857 867.765,86.1857 869.701,86.1857 871.637,86.1857 873.573,86.1857 875.509,86.1857 877.446,86.1857 879.382,86.1857 881.318,86.1857 883.254,86.1857 885.19,86.1857 887.126,86.1857 889.063,86.1857 890.999,86.1857 892.935,86.1857 894.871,86.1857 896.807,86.1857 898.743,86.1857 900.68,86.1857 902.616,86.1857 904.552,86.1857 906.488,86.1857 908.424,86.1857 910.361,86.1857 912.297,86.1857 914.233,86.1857 916.169,86.1857 918.105,86.1857 920.041,86.1857 921.978,86.1857 923.914,86.1857 925.85,86.1857 927.786,86.1857 929.722,86.1857 931.659,86.1857 933.595,86.1857 935.531,86.1857 937.467,86.1857 939.403,86.1857 941.339,86.1857 943.276,86.1857 945.212,86.1857 947.148,86.1857 949.084,86.1857 951.02,86.1857 952.957,86.1857 954.893,86.1857 956.829,86.1857 958.765,86.1857 960.701,86.1857 962.637,86.1857 964.574,86.1857 966.51,86.1857 968.446,86.1857 970.382,86.1857 972.318,86.1857 974.254,86.1857 976.191,86.1857 978.127,86.1857 980.063,86.1857 981.999,86.1857 983.935,86.1857 985.872,86.1857 987.808,86.1857 989.744,86.1857 991.68,86.1857 993.616,86.1857 995.552,86.1857 997.489,86.1857 999.425,86.1857 1001.36,86.1857 1003.3,86.1857 1005.23,86.1857 1007.17,86.1857 1009.11,86.1857 1011.04,86.1857 1012.98,86.1857 1014.91,86.1857 1016.85,86.1857 1018.79,86.1857 1020.72,86.1857 1022.66,86.1857 1024.6,86.1857 1026.53,86.1857 1028.47,86.1857 1030.4,86.1857 1032.34,86.1857 1034.28,86.1857 1036.21,86.1857 1038.15,86.1857 1040.08,86.1857 1042.02,86.1857 1043.96,86.1857 1045.89,86.1857 1047.83,86.1857 1049.77,86.1857 1051.7,86.1857 1053.64,86.1857 1055.57,86.1857 1057.51,86.1857 1059.45,86.1857 1061.38,86.1857 1063.32,86.1857 1065.25,86.1857 1067.19,86.1857 1069.13,86.1857 1071.06,86.1857 1073,86.1857 1074.94,86.1857 1076.87,86.1857 1078.81,86.1857 1080.74,86.1857 1082.68,86.1857 1084.62,86.1857 1086.55,86.1857 1088.49,86.1857 1090.43,86.1857 1092.36,86.1857 1094.3,86.1857 1096.23,86.1857 1098.17,86.1857 1100.11,86.1857 1102.04,86.1857 1103.98,86.1857 1105.91,86.1857 1107.85,86.1857 1109.79,86.1857 1111.72,86.1857 1113.66,86.1857 1115.6,86.1857 1117.53,86.1857 1119.47,86.1857 1121.4,86.1857 1123.34,86.1857 1125.28,86.1857 1127.21,86.1857 1129.15,86.1857 1131.08,86.1857 1133.02,86.1857 1134.96,86.1857 1136.89,86.1857 1138.83,86.1857 1140.77,86.1857 1142.7,86.1857 1144.64,86.1857 1146.57,86.1857 1148.51,86.1857 1150.45,86.1857 1152.38,86.1857 1154.32,86.1857 1156.26,86.1857 1158.19,86.1857 1160.13,86.1857 1162.06,86.1857 1164,86.1857 1165.94,86.1857 1167.87,86.1857 1169.81,86.1857 1171.74,86.1857 1173.68,86.1857 1175.62,86.1857 1177.55,86.1857 1179.49,86.1857 1181.43,86.1857 1183.36,86.1857 1185.3,86.1857 1187.23,86.1857 1189.17,86.1857 1191.11,86.1857 1193.04,86.1857 1194.98,86.1857 1196.92,86.1857 1198.85,86.1857 1200.79,86.1857 1202.72,86.1857 1204.66,86.1857 1206.6,86.1857 1208.53,86.1857 1210.47,86.1857 1212.4,86.1857 1214.34,86.1857 1216.28,86.1857 1218.21,86.1857 1220.15,86.1857 1222.09,86.1857 1224.02,86.1857 1225.96,86.1857 1227.89,86.1857 1229.83,86.1857 1231.77,86.1857 1233.7,86.1857 1235.64,86.1857 1237.57,86.1857 1239.51,86.1857 1241.45,86.1857 1243.38,86.1857 1245.32,86.1857 1247.26,86.1857 1249.19,86.1857 1251.13,86.1857 1253.06,86.1857 1255,86.1857 1256.94,86.1857 1258.87,86.1857 1260.81,86.1857 1262.75,86.1857 1264.68,86.1857 1266.62,86.1857 1268.55,86.1857 1270.49,86.1857 1272.43,86.1857 1274.36,86.1857 1276.3,86.1857 1278.23,86.1857 1280.17,86.1857 1282.11,86.1857 1284.04,86.1857 1285.98,86.1857 1287.92,86.1857 1289.85,86.1857 1291.79,86.1857 1293.72,86.1857 1295.66,86.1857 1297.6,86.1857 1299.53,86.1857 1301.47,86.1857 1303.4,86.1857 1305.34,86.1857 1307.28,86.1857 1309.21,86.1857 1311.15,86.1857 1313.09,86.1857 1315.02,86.1857 1316.96,86.1857 1318.89,86.1857 1320.83,86.1857 1322.77,86.1857 1324.7,86.1857 1326.64,86.1857 1328.58,86.1857 1330.51,86.1857 1332.45,86.1857 1334.38,86.1857 1336.32,86.1857 1338.26,86.1857 1340.19,86.1857 1342.13,86.1857 1344.06,86.1857 1346,86.1857 1347.94,86.1857 1349.87,86.1857 1351.81,86.1857 1353.75,86.1857 1355.68,86.1857 1357.62,86.1857 1359.55,86.1857 1361.49,86.1857 1363.43,86.1857 1365.36,86.1857 1367.3,86.1857 1369.24,86.1857 1371.17,86.1857 1373.11,86.1857 1375.04,86.1857 1376.98,86.1857 1378.92,86.1857 1380.85,86.1857 1382.79,86.1857 1384.72,86.1857 1386.66,86.1857 1388.6,86.1857 1390.53,86.1857 1392.47,86.1857 1394.41,86.1857 1396.34,86.1857 1398.28,86.1857 1400.21,86.1857 1402.15,86.1857 1404.09,86.1857 1406.02,86.1857 1407.96,86.1857 1409.89,86.1857 1411.83,86.1857 1413.77,86.1857 1415.7,86.1857 1417.64,86.1857 1419.58,86.1857 1421.51,86.1857 1423.45,86.1857 1425.38,86.1857 1427.32,86.1857 1429.26,86.1857 1431.19,86.1857 1433.13,86.1857 1435.07,86.1857 1437,86.1857 1438.94,86.1857 1440.87,86.1857 1442.81,86.1857 1444.75,86.1857 1446.68,86.1857 1448.62,86.1857 1450.55,86.1857 1452.49,86.1857 1454.43,86.1857 1456.36,86.1857 1458.3,86.1857 1460.24,86.1857 1462.17,86.1857 1464.11,86.1857 1466.04,86.1857 1467.98,86.1857 1469.92,86.1857 1471.85,86.1857 1473.79,86.1857 1475.72,86.1857 1477.66,86.1857 1479.6,86.1857 1481.53,86.1857 1483.47,86.1857 1485.41,86.1857 1487.34,86.1857 1489.28,86.1857 1491.21,86.1857 1493.15,86.1857 1495.09,86.1857 1497.02,86.1857 1498.96,86.1857 1500.9,86.1857 1502.83,86.1857 1504.77,86.1857 1506.7,86.1857 1508.64,86.1857 1510.58,86.1857 1512.51,86.1857 1514.45,86.1857 1516.38,86.1857 1518.32,86.1857 1520.26,86.1857 1522.19,86.1857 1524.13,86.1857 1526.07,86.1857 1528,86.1857 1529.94,86.1857 1531.87,86.1857 1533.81,86.1857 1535.75,86.1857 1537.68,86.1857 1539.62,86.1857 1541.55,86.1857 1543.49,86.1857 1545.43,86.1857 1547.36,86.1857 1549.3,86.1857 1551.24,86.1857 1553.17,86.1857 1555.11,86.1857 1557.04,86.1857 1558.98,86.1857 1560.92,86.1857 1562.85,86.1857 1564.79,86.1857 1566.73,86.1857 1568.66,86.1857 1570.6,86.1857 1572.53,86.1857 1574.47,86.1857 1576.41,86.1857 1578.34,86.1857 1580.28,86.1857 1582.21,86.1857 1584.15,86.1857 1586.09,86.1857 1588.02,86.1857 1589.96,86.1857 1591.9,86.1857 1593.83,86.1857 1595.77,86.1857 1597.7,86.1857 1599.64,86.1857 1601.58,86.1857 1603.51,86.1857 1605.45,86.1857 1607.39,86.1857 1609.32,86.1857 1611.26,86.1857 1613.19,86.1857 1615.13,86.1857 1617.07,86.1857 1619,86.1857 1620.94,86.1857 1622.87,86.1857 1624.81,86.1857 1626.75,86.1857 1628.68,86.1857 1630.62,86.1857 1632.56,86.1857 1634.49,86.1857 1636.43,86.1857 1638.36,86.1857 1640.3,86.1857 1642.24,86.1857 1644.17,86.1857 1646.11,86.1857 1648.04,86.1857 1649.98,86.1857 1651.92,86.1857 1653.85,86.1857 1655.79,86.1857 1657.73,86.1857 1659.66,86.1857 1661.6,86.1857 1663.53,86.1857 1665.47,86.1857 1667.41,86.1857 1669.34,86.1857 1671.28,86.1857 1673.22,86.1857 1675.15,86.1857 1677.09,86.1857 1679.02,86.1857 1680.96,86.1857 1682.9,86.1857 1684.83,86.1857 1686.77,86.1857 1688.7,86.1857 1690.64,86.1857 1692.58,86.1857 1694.51,86.1857 1696.45,86.1857 1698.39,86.1857 1700.32,86.1857 1702.26,86.1857 1704.19,86.1857 1706.13,86.1857 1708.07,86.1857 1710,86.1857 1711.94,86.1857 1713.87,86.1857 1715.81,86.1857 1717.75,86.1857 1719.68,86.1857 1721.62,86.1857 1723.56,86.1857 1725.49,86.1857 1727.43,86.1857 1729.36,86.1857 1731.3,86.1857 1733.24,86.1857 1735.17,86.1857 1737.11,86.1857 1739.05,86.1857 1740.98,86.1857 1742.92,86.1857 1744.85,86.1857 1746.79,86.1857 1748.73,86.1857 1750.66,86.1857 1752.6,86.1857 1754.53,86.1857 1756.47,86.1857 1758.41,86.1857 1760.34,86.1857 1762.28,86.1857 1764.22,86.1857 1766.15,86.1857 1768.09,86.1857 1770.02,86.1857 1771.96,86.1857 1773.9,86.1857 1775.83,86.1857 1777.77,86.1857 1779.7,86.1857 1781.64,86.1857 1783.58,86.1857 1785.51,86.1857 1787.45,86.1857 1789.39,86.1857 1791.32,86.1857 1793.26,86.1857 1795.19,86.1857 1797.13,86.1857 1799.07,86.1857 1801,86.1857 1802.94,86.1857 1804.88,86.1857 1806.81,86.1857 1808.75,86.1857 1810.68,86.1857 1812.62,86.1857 1814.56,86.1857 1816.49,86.1857 1818.43,86.1857 1820.36,86.1857 1822.3,86.1857 1824.24,86.1857 1826.17,86.1857 1828.11,86.1857 1830.05,86.1857 1831.98,86.1857 1833.92,86.1857 1835.85,86.1857 1837.79,86.1857 1839.73,86.1857 1841.66,86.1857 1843.6,86.1857 1845.54,86.1857 1847.47,86.1857 1849.41,86.1857 1851.34,86.1857 1853.28,86.1857 1855.22,86.1857 1857.15,86.1857 1859.09,86.1857 1861.02,86.1857 1862.96,86.1857 1864.9,86.1857 1866.83,86.1857 1868.77,86.1857 1870.71,86.1857 1872.64,86.1857 1874.58,86.1857 1876.51,86.1857 1878.45,86.1857 1880.39,86.1857 1882.32,86.1857 1884.26,86.1857 1886.19,86.1857 1888.13,86.1857 1890.07,86.1857 1892,86.1857 1893.94,86.1857 1895.88,86.1857 1897.81,86.1857 1899.75,86.1857 1901.68,86.1857 1903.62,86.1857 1905.56,86.1857 1907.49,86.1857 1909.43,86.1857 1911.37,86.1857 1913.3,86.1857 1915.24,86.1857 1917.17,86.1857 1919.11,86.1857 1921.05,86.1857 1922.98,86.1857 1924.92,86.1857 1926.85,86.1857 1928.79,86.1857 1930.73,86.1857 1932.66,86.1857 1934.6,86.1857 1936.54,86.1857 1938.47,86.1857 1940.41,86.1857 1942.34,86.1857 1944.28,86.1857 1946.22,86.1857 1948.15,86.1857 1950.09,86.1857 1952.02,86.1857 1953.96,86.1857 1955.9,86.1857 1957.83,86.1857 1959.77,86.1857 1961.71,86.1857 1963.64,86.1857 1965.58,86.1857 1967.51,86.1857 1969.45,86.1857 1971.39,86.1857 1973.32,86.1857 1975.26,86.1857 1977.2,86.1857 1979.13,86.1857 1981.07,86.1857 1983,86.1857 1984.94,86.1857 1986.88,86.1857 1988.81,86.1857 1990.75,86.1857 1992.68,86.1857 1994.62,86.1857 1996.56,86.1857 1998.49,86.1857 2000.43,86.1857 2002.37,86.1857 2004.3,86.1857 2006.24,86.1857 2008.17,86.1857 2010.11,86.1857 2012.05,86.1857 2013.98,86.1857 2015.92,86.1857 2017.86,86.1857 2019.79,86.1857 2021.73,86.1857 2023.66,86.1857 2025.6,86.1857 2027.54,86.1857 2029.47,86.1857 2031.41,86.1857 2033.34,86.1857 2035.28,86.1857 2037.22,86.1857 2039.15,86.1857 2041.09,86.1857 2043.03,86.1857 2044.96,86.1857 2046.9,86.1857 2048.83,86.1857 2050.77,86.1857 2052.71,86.1857 2054.64,86.1857 2056.58,86.1857 2058.51,86.1857 2060.45,86.1857 2062.39,86.1857 2064.32,86.1857 2066.26,86.1857 2068.2,86.1857 2070.13,86.1857 2072.07,86.1857 2074,86.1857 2075.94,86.1857 2077.88,86.1857 2079.81,86.1857 2081.75,86.1857 2083.69,86.1857 2085.62,86.1857 2087.56,86.1857 2089.49,86.1857 2091.43,86.1857 2093.37,86.1857 2095.3,86.1857 2097.24,86.1857 2099.17,86.1857 2101.11,86.1857 2103.05,86.1857 2104.98,86.1857 2106.92,86.1857 2108.86,86.1857 2110.79,86.1857 2112.73,86.1857 2114.66,86.1857 2116.6,86.1857 2118.54,86.1857 2120.47,86.1857 2122.41,86.1857 2124.34,86.1857 2126.28,86.1857 2128.22,86.1857 2130.15,86.1857 2132.09,86.1857 2134.03,86.1857 2135.96,86.1857 2137.9,86.1857 2139.83,86.1857 2141.77,86.1857 2143.71,86.1857 2145.64,86.1857 2147.58,86.1857 2149.52,86.1857 2151.45,86.1857 2153.39,86.1857 2155.32,86.1857 2157.26,86.1857 2159.2,86.1857 2161.13,86.1857 2163.07,86.1857 2165,86.1857 2166.94,86.1857 2168.88,86.1857 2170.81,86.1857 2172.75,86.1857 2174.69,86.1857 2176.62,86.1857 2178.56,86.1857 2180.49,86.1857 2182.43,86.1857 2184.37,86.1857 2186.3,86.1857 2188.24,86.1857 2190.17,86.1857 2192.11,86.1857 2194.05,86.1857 2195.98,86.1857 2197.92,86.1857 2199.86,86.1857 2201.79,86.1857 2203.73,86.1857 2205.66,86.1857 2207.6,86.1857 2209.54,86.1857 2211.47,86.1857 2213.41,86.1857 2215.35,86.1857 2217.28,86.1857 2219.22,86.1857 2221.15,86.1857 2223.09,86.1857 2225.03,86.1857 2226.96,86.1857 2228.9,86.1857 2230.83,86.1857 2232.77,86.1857 2234.71,86.1857 2236.64,86.1857 2238.58,86.1857 2240.52,86.1857 2242.45,86.1857 2244.39,86.1857 2246.32,86.1857 2248.26,86.1857 2250.2,86.1857 2252.13,86.1857 2254.07,86.1857 2256.01,86.1857 2257.94,86.1857 2259.88,86.1857 2261.81,86.1857 2263.75,86.1857 2265.69,86.1857 2267.62,86.1857 2269.56,86.1857 2271.49,86.1857 2273.43,86.1857 2275.37,86.1857 2277.3,86.1857 2279.24,86.1857 2281.18,86.1857 2283.11,86.1857 2285.05,86.1857 2286.98,86.1857 2288.92,86.1857 2290.86,86.1857 2292.79,86.1857 2294.73,86.1857 "/>
<path clip-path="url(#clip910)" d="M1752.44 1377.32 L2284.41 1377.32 L2284.41 1169.96 L1752.44 1169.96  Z" fill="#ffffff" fill-rule="evenodd" fill-opacity="1"/>
<polyline clip-path="url(#clip910)" style="stroke:#000000; stroke-linecap:round; stroke-linejoin:round; stroke-width:4; stroke-opacity:1; fill:none" points="1752.44,1377.32 2284.41,1377.32 2284.41,1169.96 1752.44,1169.96 1752.44,1377.32 "/>
<polyline clip-path="url(#clip910)" style="stroke:#0000ff; stroke-linecap:round; stroke-linejoin:round; stroke-width:4; stroke-opacity:1; fill:none" points="1775.22,1221.8 1911.91,1221.8 "/>
<path clip-path="url(#clip910)" d="M1950.71 1207.69 Q1945.61 1207.69 1942.61 1211.48 Q1939.62 1215.28 1939.62 1221.83 Q1939.62 1228.36 1942.61 1232.15 Q1945.61 1235.95 1950.71 1235.95 Q1955.8 1235.95 1958.76 1232.15 Q1961.75 1228.36 1961.75 1221.83 Q1961.75 1215.28 1958.76 1211.48 Q1955.8 1207.69 1950.71 1207.69 M1950.71 1203.89 Q1957.98 1203.89 1962.33 1208.77 Q1966.68 1213.64 1966.68 1221.83 Q1966.68 1230 1962.33 1234.89 Q1957.98 1239.75 1950.71 1239.75 Q1943.42 1239.75 1939.04 1234.89 Q1934.69 1230.02 1934.69 1221.83 Q1934.69 1213.64 1939.04 1208.77 Q1943.42 1203.89 1950.71 1203.89 Z" fill="#000000" fill-rule="nonzero" fill-opacity="1" /><path clip-path="url(#clip910)" d="M1977.93 1235.19 L1977.93 1248.94 L1973.65 1248.94 L1973.65 1213.15 L1977.93 1213.15 L1977.93 1217.08 Q1979.27 1214.77 1981.31 1213.66 Q1983.37 1212.52 1986.22 1212.52 Q1990.94 1212.52 1993.88 1216.27 Q1996.84 1220.02 1996.84 1226.14 Q1996.84 1232.25 1993.88 1236 Q1990.94 1239.75 1986.22 1239.75 Q1983.37 1239.75 1981.31 1238.64 Q1979.27 1237.5 1977.93 1235.19 M1992.42 1226.14 Q1992.42 1221.44 1990.48 1218.77 Q1988.55 1216.09 1985.17 1216.09 Q1981.8 1216.09 1979.85 1218.77 Q1977.93 1221.44 1977.93 1226.14 Q1977.93 1230.83 1979.85 1233.52 Q1981.8 1236.18 1985.17 1236.18 Q1988.55 1236.18 1990.48 1233.52 Q1992.42 1230.83 1992.42 1226.14 Z" fill="#000000" fill-rule="nonzero" fill-opacity="1" /><path clip-path="url(#clip910)" d="M2008.11 1205.79 L2008.11 1213.15 L2016.89 1213.15 L2016.89 1216.46 L2008.11 1216.46 L2008.11 1230.53 Q2008.11 1233.7 2008.97 1234.61 Q2009.85 1235.51 2012.51 1235.51 L2016.89 1235.51 L2016.89 1239.08 L2012.51 1239.08 Q2007.58 1239.08 2005.71 1237.25 Q2003.83 1235.39 2003.83 1230.53 L2003.83 1216.46 L2000.71 1216.46 L2000.71 1213.15 L2003.83 1213.15 L2003.83 1205.79 L2008.11 1205.79 Z" fill="#000000" fill-rule="nonzero" fill-opacity="1" /><path clip-path="url(#clip910)" d="M2022.49 1213.15 L2026.75 1213.15 L2026.75 1239.08 L2022.49 1239.08 L2022.49 1213.15 M2022.49 1203.06 L2026.75 1203.06 L2026.75 1208.45 L2022.49 1208.45 L2022.49 1203.06 Z" fill="#000000" fill-rule="nonzero" fill-opacity="1" /><path clip-path="url(#clip910)" d="M2055.85 1218.13 Q2057.44 1215.26 2059.67 1213.89 Q2061.89 1212.52 2064.9 1212.52 Q2068.95 1212.52 2071.15 1215.37 Q2073.35 1218.2 2073.35 1223.43 L2073.35 1239.08 L2069.06 1239.08 L2069.06 1223.57 Q2069.06 1219.84 2067.74 1218.03 Q2066.42 1216.23 2063.72 1216.23 Q2060.41 1216.23 2058.48 1218.43 Q2056.56 1220.63 2056.56 1224.42 L2056.56 1239.08 L2052.28 1239.08 L2052.28 1223.57 Q2052.28 1219.82 2050.96 1218.03 Q2049.64 1216.23 2046.89 1216.23 Q2043.62 1216.23 2041.7 1218.45 Q2039.78 1220.65 2039.78 1224.42 L2039.78 1239.08 L2035.5 1239.08 L2035.5 1213.15 L2039.78 1213.15 L2039.78 1217.18 Q2041.24 1214.79 2043.28 1213.66 Q2045.31 1212.52 2048.11 1212.52 Q2050.94 1212.52 2052.91 1213.96 Q2054.9 1215.39 2055.85 1218.13 Z" fill="#000000" fill-rule="nonzero" fill-opacity="1" /><path clip-path="url(#clip910)" d="M2093.62 1226.04 Q2088.46 1226.04 2086.47 1227.22 Q2084.48 1228.4 2084.48 1231.25 Q2084.48 1233.52 2085.96 1234.86 Q2087.47 1236.18 2090.04 1236.18 Q2093.58 1236.18 2095.71 1233.68 Q2097.86 1231.16 2097.86 1226.99 L2097.86 1226.04 L2093.62 1226.04 M2102.12 1224.28 L2102.12 1239.08 L2097.86 1239.08 L2097.86 1235.14 Q2096.4 1237.5 2094.23 1238.64 Q2092.05 1239.75 2088.9 1239.75 Q2084.92 1239.75 2082.56 1237.52 Q2080.22 1235.28 2080.22 1231.53 Q2080.22 1227.15 2083.14 1224.93 Q2086.08 1222.71 2091.89 1222.71 L2097.86 1222.71 L2097.86 1222.29 Q2097.86 1219.35 2095.91 1217.76 Q2093.99 1216.14 2090.5 1216.14 Q2088.28 1216.14 2086.17 1216.67 Q2084.06 1217.2 2082.12 1218.27 L2082.12 1214.33 Q2084.46 1213.43 2086.66 1212.99 Q2088.85 1212.52 2090.94 1212.52 Q2096.56 1212.52 2099.34 1215.44 Q2102.12 1218.36 2102.12 1224.28 Z" fill="#000000" fill-rule="nonzero" fill-opacity="1" /><path clip-path="url(#clip910)" d="M2110.89 1203.06 L2115.15 1203.06 L2115.15 1239.08 L2110.89 1239.08 L2110.89 1203.06 Z" fill="#000000" fill-rule="nonzero" fill-opacity="1" /><path clip-path="url(#clip910)" d="M2136.08 1213.15 L2140.59 1213.15 L2148.69 1234.91 L2156.79 1213.15 L2161.31 1213.15 L2151.59 1239.08 L2145.8 1239.08 L2136.08 1213.15 Z" fill="#000000" fill-rule="nonzero" fill-opacity="1" /><path clip-path="url(#clip910)" d="M2178.97 1226.04 Q2173.81 1226.04 2171.82 1227.22 Q2169.83 1228.4 2169.83 1231.25 Q2169.83 1233.52 2171.31 1234.86 Q2172.81 1236.18 2175.38 1236.18 Q2178.92 1236.18 2181.05 1233.68 Q2183.21 1231.16 2183.21 1226.99 L2183.21 1226.04 L2178.97 1226.04 M2187.47 1224.28 L2187.47 1239.08 L2183.21 1239.08 L2183.21 1235.14 Q2181.75 1237.5 2179.57 1238.64 Q2177.4 1239.75 2174.25 1239.75 Q2170.27 1239.75 2167.91 1237.52 Q2165.57 1235.28 2165.57 1231.53 Q2165.57 1227.15 2168.48 1224.93 Q2171.42 1222.71 2177.23 1222.71 L2183.21 1222.71 L2183.21 1222.29 Q2183.21 1219.35 2181.26 1217.76 Q2179.34 1216.14 2175.84 1216.14 Q2173.62 1216.14 2171.52 1216.67 Q2169.41 1217.2 2167.47 1218.27 L2167.47 1214.33 Q2169.8 1213.43 2172 1212.99 Q2174.2 1212.52 2176.28 1212.52 Q2181.91 1212.52 2184.69 1215.44 Q2187.47 1218.36 2187.47 1224.28 Z" fill="#000000" fill-rule="nonzero" fill-opacity="1" /><path clip-path="url(#clip910)" d="M2196.24 1203.06 L2200.5 1203.06 L2200.5 1239.08 L2196.24 1239.08 L2196.24 1203.06 Z" fill="#000000" fill-rule="nonzero" fill-opacity="1" /><path clip-path="url(#clip910)" d="M2208.97 1228.84 L2208.97 1213.15 L2213.23 1213.15 L2213.23 1228.68 Q2213.23 1232.36 2214.66 1234.21 Q2216.1 1236.04 2218.97 1236.04 Q2222.42 1236.04 2224.41 1233.84 Q2226.42 1231.64 2226.42 1227.85 L2226.42 1213.15 L2230.68 1213.15 L2230.68 1239.08 L2226.42 1239.08 L2226.42 1235.09 Q2224.87 1237.45 2222.81 1238.61 Q2220.78 1239.75 2218.07 1239.75 Q2213.6 1239.75 2211.28 1236.97 Q2208.97 1234.19 2208.97 1228.84 M2219.69 1212.52 L2219.69 1212.52 Z" fill="#000000" fill-rule="nonzero" fill-opacity="1" /><path clip-path="url(#clip910)" d="M2261.63 1225.05 L2261.63 1227.13 L2242.05 1227.13 Q2242.33 1231.53 2244.69 1233.84 Q2247.07 1236.14 2251.31 1236.14 Q2253.76 1236.14 2256.05 1235.53 Q2258.37 1234.93 2260.64 1233.73 L2260.64 1237.76 Q2258.34 1238.73 2255.94 1239.24 Q2253.53 1239.75 2251.05 1239.75 Q2244.85 1239.75 2241.22 1236.14 Q2237.6 1232.52 2237.6 1226.37 Q2237.6 1220 2241.03 1216.27 Q2244.48 1212.52 2250.31 1212.52 Q2255.54 1212.52 2258.58 1215.9 Q2261.63 1219.26 2261.63 1225.05 M2257.37 1223.8 Q2257.33 1220.3 2255.4 1218.22 Q2253.51 1216.14 2250.36 1216.14 Q2246.79 1216.14 2244.64 1218.15 Q2242.51 1220.16 2242.19 1223.82 L2257.37 1223.8 Z" fill="#000000" fill-rule="nonzero" fill-opacity="1" /><polyline clip-path="url(#clip910)" style="stroke:#ff0000; stroke-linecap:round; stroke-linejoin:round; stroke-width:4; stroke-opacity:1; fill:none" points="1775.22,1273.64 1911.91,1273.64 "/>
<path clip-path="url(#clip910)" d="M1950.52 1260.96 L1944.18 1278.16 L1956.89 1278.16 L1950.52 1260.96 M1947.88 1256.36 L1953.18 1256.36 L1966.36 1290.92 L1961.49 1290.92 L1958.35 1282.05 L1942.77 1282.05 L1939.62 1290.92 L1934.69 1290.92 L1947.88 1256.36 Z" fill="#000000" fill-rule="nonzero" fill-opacity="1" /><path clip-path="url(#clip910)" d="M1992.77 1275.27 L1992.77 1290.92 L1988.51 1290.92 L1988.51 1275.41 Q1988.51 1271.73 1987.07 1269.9 Q1985.64 1268.07 1982.77 1268.07 Q1979.32 1268.07 1977.33 1270.27 Q1975.34 1272.47 1975.34 1276.26 L1975.34 1290.92 L1971.05 1290.92 L1971.05 1264.99 L1975.34 1264.99 L1975.34 1269.02 Q1976.86 1266.68 1978.92 1265.52 Q1981.01 1264.36 1983.72 1264.36 Q1988.18 1264.36 1990.48 1267.14 Q1992.77 1269.9 1992.77 1275.27 Z" fill="#000000" fill-rule="nonzero" fill-opacity="1" /><path clip-path="url(#clip910)" d="M2013.04 1277.88 Q2007.88 1277.88 2005.89 1279.06 Q2003.9 1280.24 2003.9 1283.09 Q2003.9 1285.36 2005.38 1286.7 Q2006.89 1288.02 2009.46 1288.02 Q2013 1288.02 2015.13 1285.52 Q2017.28 1283 2017.28 1278.83 L2017.28 1277.88 L2013.04 1277.88 M2021.54 1276.12 L2021.54 1290.92 L2017.28 1290.92 L2017.28 1286.98 Q2015.82 1289.34 2013.65 1290.48 Q2011.47 1291.59 2008.32 1291.59 Q2004.34 1291.59 2001.98 1289.36 Q1999.64 1287.12 1999.64 1283.37 Q1999.64 1278.99 2002.56 1276.77 Q2005.5 1274.55 2011.31 1274.55 L2017.28 1274.55 L2017.28 1274.13 Q2017.28 1271.19 2015.34 1269.6 Q2013.42 1267.98 2009.92 1267.98 Q2007.7 1267.98 2005.59 1268.51 Q2003.48 1269.04 2001.54 1270.11 L2001.54 1266.17 Q2003.88 1265.27 2006.08 1264.83 Q2008.28 1264.36 2010.36 1264.36 Q2015.98 1264.36 2018.76 1267.28 Q2021.54 1270.2 2021.54 1276.12 Z" fill="#000000" fill-rule="nonzero" fill-opacity="1" /><path clip-path="url(#clip910)" d="M2030.31 1254.9 L2034.57 1254.9 L2034.57 1290.92 L2030.31 1290.92 L2030.31 1254.9 Z" fill="#000000" fill-rule="nonzero" fill-opacity="1" /><path clip-path="url(#clip910)" d="M2054.27 1293.32 Q2052.47 1297.95 2050.75 1299.36 Q2049.04 1300.78 2046.17 1300.78 L2042.77 1300.78 L2042.77 1297.21 L2045.27 1297.21 Q2047.03 1297.21 2048 1296.38 Q2048.97 1295.54 2050.15 1292.44 L2050.92 1290.5 L2040.43 1264.99 L2044.94 1264.99 L2053.04 1285.27 L2061.15 1264.99 L2065.66 1264.99 L2054.27 1293.32 Z" fill="#000000" fill-rule="nonzero" fill-opacity="1" /><path clip-path="url(#clip910)" d="M2075.75 1257.63 L2075.75 1264.99 L2084.53 1264.99 L2084.53 1268.3 L2075.75 1268.3 L2075.75 1282.37 Q2075.75 1285.54 2076.61 1286.45 Q2077.49 1287.35 2080.15 1287.35 L2084.53 1287.35 L2084.53 1290.92 L2080.15 1290.92 Q2075.22 1290.92 2073.35 1289.09 Q2071.47 1287.23 2071.47 1282.37 L2071.47 1268.3 L2068.35 1268.3 L2068.35 1264.99 L2071.47 1264.99 L2071.47 1257.63 L2075.75 1257.63 Z" fill="#000000" fill-rule="nonzero" fill-opacity="1" /><path clip-path="url(#clip910)" d="M2090.13 1264.99 L2094.39 1264.99 L2094.39 1290.92 L2090.13 1290.92 L2090.13 1264.99 M2090.13 1254.9 L2094.39 1254.9 L2094.39 1260.29 L2090.13 1260.29 L2090.13 1254.9 Z" fill="#000000" fill-rule="nonzero" fill-opacity="1" /><path clip-path="url(#clip910)" d="M2121.96 1265.98 L2121.96 1269.97 Q2120.15 1268.97 2118.32 1268.48 Q2116.52 1267.98 2114.66 1267.98 Q2110.52 1267.98 2108.23 1270.61 Q2105.94 1273.23 2105.94 1277.98 Q2105.94 1282.72 2108.23 1285.36 Q2110.52 1287.98 2114.66 1287.98 Q2116.52 1287.98 2118.32 1287.49 Q2120.15 1286.98 2121.96 1285.98 L2121.96 1289.92 Q2120.17 1290.75 2118.25 1291.17 Q2116.35 1291.59 2114.2 1291.59 Q2108.35 1291.59 2104.9 1287.91 Q2101.45 1284.23 2101.45 1277.98 Q2101.45 1271.63 2104.92 1268 Q2108.41 1264.36 2114.48 1264.36 Q2116.45 1264.36 2118.32 1264.78 Q2120.2 1265.17 2121.96 1265.98 Z" fill="#000000" fill-rule="nonzero" fill-opacity="1" /><path clip-path="url(#clip910)" d="M2141.15 1277.88 Q2135.98 1277.88 2133.99 1279.06 Q2132 1280.24 2132 1283.09 Q2132 1285.36 2133.48 1286.7 Q2134.99 1288.02 2137.56 1288.02 Q2141.1 1288.02 2143.23 1285.52 Q2145.38 1283 2145.38 1278.83 L2145.38 1277.88 L2141.15 1277.88 M2149.64 1276.12 L2149.64 1290.92 L2145.38 1290.92 L2145.38 1286.98 Q2143.92 1289.34 2141.75 1290.48 Q2139.57 1291.59 2136.42 1291.59 Q2132.44 1291.59 2130.08 1289.36 Q2127.74 1287.12 2127.74 1283.37 Q2127.74 1278.99 2130.66 1276.77 Q2133.6 1274.55 2139.41 1274.55 L2145.38 1274.55 L2145.38 1274.13 Q2145.38 1271.19 2143.44 1269.6 Q2141.52 1267.98 2138.02 1267.98 Q2135.8 1267.98 2133.69 1268.51 Q2131.59 1269.04 2129.64 1270.11 L2129.64 1266.17 Q2131.98 1265.27 2134.18 1264.83 Q2136.38 1264.36 2138.46 1264.36 Q2144.09 1264.36 2146.86 1267.28 Q2149.64 1270.2 2149.64 1276.12 Z" fill="#000000" fill-rule="nonzero" fill-opacity="1" /><path clip-path="url(#clip910)" d="M2158.41 1254.9 L2162.67 1254.9 L2162.67 1290.92 L2158.41 1290.92 L2158.41 1254.9 Z" fill="#000000" fill-rule="nonzero" fill-opacity="1" /><polyline clip-path="url(#clip910)" style="stroke:#008000; stroke-linecap:round; stroke-linejoin:round; stroke-width:4; stroke-opacity:1; fill:none" points="1775.22,1325.48 1911.91,1325.48 "/>
<path clip-path="url(#clip910)" d="M1934.69 1308.2 L1939.36 1308.2 L1939.36 1342.76 L1934.69 1342.76 L1934.69 1308.2 Z" fill="#000000" fill-rule="nonzero" fill-opacity="1" /><path clip-path="url(#clip910)" d="M1970.04 1327.11 L1970.04 1342.76 L1965.78 1342.76 L1965.78 1327.25 Q1965.78 1323.57 1964.34 1321.74 Q1962.91 1319.91 1960.04 1319.91 Q1956.59 1319.91 1954.6 1322.11 Q1952.61 1324.31 1952.61 1328.1 L1952.61 1342.76 L1948.32 1342.76 L1948.32 1316.83 L1952.61 1316.83 L1952.61 1320.86 Q1954.13 1318.52 1956.19 1317.36 Q1958.28 1316.2 1960.99 1316.2 Q1965.45 1316.2 1967.74 1318.98 Q1970.04 1321.74 1970.04 1327.11 Z" fill="#000000" fill-rule="nonzero" fill-opacity="1" /><path clip-path="url(#clip910)" d="M1978.53 1316.83 L1982.79 1316.83 L1982.79 1342.76 L1978.53 1342.76 L1978.53 1316.83 M1978.53 1306.74 L1982.79 1306.74 L1982.79 1312.13 L1978.53 1312.13 L1978.53 1306.74 Z" fill="#000000" fill-rule="nonzero" fill-opacity="1" /><path clip-path="url(#clip910)" d="M1995.92 1309.47 L1995.92 1316.83 L2004.69 1316.83 L2004.69 1320.14 L1995.92 1320.14 L1995.92 1334.21 Q1995.92 1337.38 1996.77 1338.29 Q1997.65 1339.19 2000.31 1339.19 L2004.69 1339.19 L2004.69 1342.76 L2000.31 1342.76 Q1995.38 1342.76 1993.51 1340.93 Q1991.63 1339.07 1991.63 1334.21 L1991.63 1320.14 L1988.51 1320.14 L1988.51 1316.83 L1991.63 1316.83 L1991.63 1309.47 L1995.92 1309.47 Z" fill="#000000" fill-rule="nonzero" fill-opacity="1" /><path clip-path="url(#clip910)" d="M2010.29 1316.83 L2014.55 1316.83 L2014.55 1342.76 L2010.29 1342.76 L2010.29 1316.83 M2010.29 1306.74 L2014.55 1306.74 L2014.55 1312.13 L2010.29 1312.13 L2010.29 1306.74 Z" fill="#000000" fill-rule="nonzero" fill-opacity="1" /><path clip-path="url(#clip910)" d="M2035.24 1329.72 Q2030.08 1329.72 2028.09 1330.9 Q2026.1 1332.08 2026.1 1334.93 Q2026.1 1337.2 2027.58 1338.54 Q2029.09 1339.86 2031.66 1339.86 Q2035.2 1339.86 2037.33 1337.36 Q2039.48 1334.84 2039.48 1330.67 L2039.48 1329.72 L2035.24 1329.72 M2043.74 1327.96 L2043.74 1342.76 L2039.48 1342.76 L2039.48 1338.82 Q2038.02 1341.18 2035.85 1342.32 Q2033.67 1343.43 2030.52 1343.43 Q2026.54 1343.43 2024.18 1341.2 Q2021.84 1338.96 2021.84 1335.21 Q2021.84 1330.83 2024.76 1328.61 Q2027.7 1326.39 2033.51 1326.39 L2039.48 1326.39 L2039.48 1325.97 Q2039.48 1323.03 2037.54 1321.44 Q2035.61 1319.82 2032.12 1319.82 Q2029.9 1319.82 2027.79 1320.35 Q2025.68 1320.88 2023.74 1321.95 L2023.74 1318.01 Q2026.08 1317.11 2028.28 1316.67 Q2030.48 1316.2 2032.56 1316.2 Q2038.18 1316.2 2040.96 1319.12 Q2043.74 1322.04 2043.74 1327.96 Z" fill="#000000" fill-rule="nonzero" fill-opacity="1" /><path clip-path="url(#clip910)" d="M2052.51 1306.74 L2056.77 1306.74 L2056.77 1342.76 L2052.51 1342.76 L2052.51 1306.74 Z" fill="#000000" fill-rule="nonzero" fill-opacity="1" /><path clip-path="url(#clip910)" d="M2077.7 1316.83 L2082.21 1316.83 L2090.31 1338.59 L2098.41 1316.83 L2102.93 1316.83 L2093.21 1342.76 L2087.42 1342.76 L2077.7 1316.83 Z" fill="#000000" fill-rule="nonzero" fill-opacity="1" /><path clip-path="url(#clip910)" d="M2120.59 1329.72 Q2115.43 1329.72 2113.44 1330.9 Q2111.45 1332.08 2111.45 1334.93 Q2111.45 1337.2 2112.93 1338.54 Q2114.43 1339.86 2117 1339.86 Q2120.54 1339.86 2122.67 1337.36 Q2124.83 1334.84 2124.83 1330.67 L2124.83 1329.72 L2120.59 1329.72 M2129.09 1327.96 L2129.09 1342.76 L2124.83 1342.76 L2124.83 1338.82 Q2123.37 1341.18 2121.19 1342.32 Q2119.02 1343.43 2115.87 1343.43 Q2111.89 1343.43 2109.53 1341.2 Q2107.19 1338.96 2107.19 1335.21 Q2107.19 1330.83 2110.1 1328.61 Q2113.04 1326.39 2118.85 1326.39 L2124.83 1326.39 L2124.83 1325.97 Q2124.83 1323.03 2122.88 1321.44 Q2120.96 1319.82 2117.47 1319.82 Q2115.24 1319.82 2113.14 1320.35 Q2111.03 1320.88 2109.09 1321.95 L2109.09 1318.01 Q2111.42 1317.11 2113.62 1316.67 Q2115.82 1316.2 2117.91 1316.2 Q2123.53 1316.2 2126.31 1319.12 Q2129.09 1322.04 2129.09 1327.96 Z" fill="#000000" fill-rule="nonzero" fill-opacity="1" /><path clip-path="url(#clip910)" d="M2137.86 1306.74 L2142.12 1306.74 L2142.12 1342.76 L2137.86 1342.76 L2137.86 1306.74 Z" fill="#000000" fill-rule="nonzero" fill-opacity="1" /><path clip-path="url(#clip910)" d="M2150.59 1332.52 L2150.59 1316.83 L2154.85 1316.83 L2154.85 1332.36 Q2154.85 1336.04 2156.28 1337.89 Q2157.72 1339.72 2160.59 1339.72 Q2164.04 1339.72 2166.03 1337.52 Q2168.04 1335.32 2168.04 1331.53 L2168.04 1316.83 L2172.3 1316.83 L2172.3 1342.76 L2168.04 1342.76 L2168.04 1338.77 Q2166.49 1341.13 2164.43 1342.29 Q2162.4 1343.43 2159.69 1343.43 Q2155.22 1343.43 2152.91 1340.65 Q2150.59 1337.87 2150.59 1332.52 M2161.31 1316.2 L2161.31 1316.2 Z" fill="#000000" fill-rule="nonzero" fill-opacity="1" /><path clip-path="url(#clip910)" d="M2203.25 1328.73 L2203.25 1330.81 L2183.67 1330.81 Q2183.95 1335.21 2186.31 1337.52 Q2188.69 1339.82 2192.93 1339.82 Q2195.38 1339.82 2197.67 1339.21 Q2199.99 1338.61 2202.26 1337.41 L2202.26 1341.44 Q2199.97 1342.41 2197.56 1342.92 Q2195.15 1343.43 2192.67 1343.43 Q2186.47 1343.43 2182.84 1339.82 Q2179.22 1336.2 2179.22 1330.05 Q2179.22 1323.68 2182.65 1319.95 Q2186.1 1316.2 2191.93 1316.2 Q2197.16 1316.2 2200.2 1319.58 Q2203.25 1322.94 2203.25 1328.73 M2198.99 1327.48 Q2198.95 1323.98 2197.03 1321.9 Q2195.13 1319.82 2191.98 1319.82 Q2188.41 1319.82 2186.26 1321.83 Q2184.13 1323.84 2183.81 1327.5 L2198.99 1327.48 Z" fill="#000000" fill-rule="nonzero" fill-opacity="1" /></svg>