<?xml version="1.0" encoding="utf-8"?>
<svg xmlns="http://www.w3.org/2000/svg" xmlns:xlink="http://www.w3.org/1999/xlink" width="800" height="400" viewBox="0 0 3200 1600">
<defs>
  <clipPath id="clip820">
    <rect x="0" y="0" width="3200" height="1600"/>
  </clipPath>
</defs>
<path clip-path="url(#clip820)" d="M0 1600 L3200 1600 L3200 0 L0 0  Z" fill="#ffffff" fill-rule="evenodd" fill-opacity="1"/>
<defs>
  <clipPath id="clip821">
    <rect x="640" y="0" width="2241" height="1600"/>
  </clipPath>
</defs>
<path clip-path="url(#clip820)" d="M163.927 1495.09 L1538.62 1495.09 L1538.62 47.2441 L163.927 47.2441  Z" fill="#ffffff" fill-rule="evenodd" fill-opacity="1"/>
<defs>
  <clipPath id="clip822">
    <rect x="163" y="47" width="1376" height="1449"/>
  </clipPath>
</defs>
<polyline clip-path="url(#clip822)" style="stroke:#000000; stroke-linecap:round; stroke-linejoin:round; stroke-width:2; stroke-opacity:0.1; fill:none" points="375.751,1495.09 375.751,47.2441 "/>
<polyline clip-path="url(#clip822)" style="stroke:#000000; stroke-linecap:round; stroke-linejoin:round; stroke-width:2; stroke-opacity:0.1; fill:none" points="635.128,1495.09 635.128,47.2441 "/>
<polyline clip-path="url(#clip822)" style="stroke:#000000; stroke-linecap:round; stroke-linejoin:round; stroke-width:2; stroke-opacity:0.1; fill:none" points="894.505,1495.09 894.505,47.2441 "/>
<polyline clip-path="url(#clip822)" style="stroke:#000000; stroke-linecap:round; stroke-linejoin:round; stroke-width:2; stroke-opacity:0.1; fill:none" points="1153.88,1495.09 1153.88,47.2441 "/>
<polyline clip-path="url(#clip822)" style="stroke:#000000; stroke-linecap:round; stroke-linejoin:round; stroke-width:2; stroke-opacity:0.1; fill:none" points="1413.26,1495.09 1413.26,47.2441 "/>
<polyline clip-path="url(#clip820)" style="stroke:#000000; stroke-linecap:round; stroke-linejoin:round; stroke-width:4; stroke-opacity:1; fill:none" points="163.927,1495.09 1538.62,1495.09 "/>
<polyline clip-path="url(#clip820)" style="stroke:#000000; stroke-linecap:round; stroke-linejoin:round; stroke-width:4; stroke-opacity:1; fill:none" points="375.751,1495.09 375.751,1476.19 "/>
<polyline clip-path="url(#clip820)" style="stroke:#000000; stroke-linecap:round; stroke-linejoin:round; stroke-width:4; stroke-opacity:1; fill:none" points="635.128,1495.09 635.128,1476.19 "/>
<polyline clip-path="url(#clip820)" style="stroke:#000000; stroke-linecap:round; stroke-linejoin:round; stroke-width:4; stroke-opacity:1; fill:none" points="894.505,1495.09 894.505,1476.19 "/>
<polyline clip-path="url(#clip820)" style="stroke:#000000; stroke-linecap:round; stroke-linejoin:round; stroke-width:4; stroke-opacity:1; fill:none" points="1153.88,1495.09 1153.88,1476.19 "/>
<polyline clip-path="url(#clip820)" style="stroke:#000000; stroke-linecap:round; stroke-linejoin:round; stroke-width:4; stroke-opacity:1; fill:none" points="1413.26,1495.09 1413.26,1476.19 "/>
<path clip-path="url(#clip820)" d="M379.999 1545.25 Q383.355 1545.97 385.23 1548.24 Q387.129 1550.51 387.129 1553.84 Q387.129 1558.96 383.61 1561.76 Q380.092 1564.56 373.61 1564.56 Q371.434 1564.56 369.119 1564.12 Q366.828 1563.7 364.374 1562.85 L364.374 1558.33 Q366.319 1559.47 368.633 1560.05 Q370.948 1560.62 373.471 1560.62 Q377.869 1560.62 380.161 1558.89 Q382.476 1557.15 382.476 1553.84 Q382.476 1550.79 380.323 1549.07 Q378.193 1547.34 374.374 1547.34 L370.346 1547.34 L370.346 1543.49 L374.559 1543.49 Q378.008 1543.49 379.837 1542.13 Q381.666 1540.74 381.666 1538.15 Q381.666 1535.49 379.768 1534.07 Q377.893 1532.64 374.374 1532.64 Q372.453 1532.64 370.254 1533.05 Q368.055 1533.47 365.416 1534.35 L365.416 1530.18 Q368.078 1529.44 370.393 1529.07 Q372.731 1528.7 374.791 1528.7 Q380.115 1528.7 383.217 1531.13 Q386.318 1533.54 386.318 1537.66 Q386.318 1540.53 384.675 1542.52 Q383.031 1544.49 379.999 1545.25 Z" fill="#000000" fill-rule="nonzero" fill-opacity="1" /><path clip-path="url(#clip820)" d="M635.533 1544.74 Q632.385 1544.74 630.533 1546.9 Q628.705 1549.05 628.705 1552.8 Q628.705 1556.53 630.533 1558.7 Q632.385 1560.86 635.533 1560.86 Q638.681 1560.86 640.51 1558.7 Q642.362 1556.53 642.362 1552.8 Q642.362 1549.05 640.51 1546.9 Q638.681 1544.74 635.533 1544.74 M644.816 1530.09 L644.816 1534.35 Q643.056 1533.52 641.251 1533.08 Q639.468 1532.64 637.709 1532.64 Q633.08 1532.64 630.626 1535.76 Q628.195 1538.89 627.848 1545.21 Q629.214 1543.19 631.274 1542.13 Q633.334 1541.04 635.811 1541.04 Q641.019 1541.04 644.029 1544.21 Q647.061 1547.36 647.061 1552.8 Q647.061 1558.12 643.913 1561.34 Q640.765 1564.56 635.533 1564.56 Q629.538 1564.56 626.367 1559.98 Q623.195 1555.37 623.195 1546.64 Q623.195 1538.45 627.084 1533.59 Q630.973 1528.7 637.524 1528.7 Q639.283 1528.7 641.066 1529.05 Q642.871 1529.4 644.816 1530.09 Z" fill="#000000" fill-rule="nonzero" fill-opacity="1" /><path clip-path="url(#clip820)" d="M884.806 1563.17 L884.806 1558.91 Q886.565 1559.74 888.371 1560.18 Q890.176 1560.62 891.912 1560.62 Q896.542 1560.62 898.973 1557.52 Q901.426 1554.4 901.773 1548.05 Q900.431 1550.05 898.371 1551.11 Q896.311 1552.17 893.811 1552.17 Q888.625 1552.17 885.593 1549.05 Q882.584 1545.9 882.584 1540.46 Q882.584 1535.14 885.732 1531.92 Q888.88 1528.7 894.111 1528.7 Q900.107 1528.7 903.255 1533.31 Q906.426 1537.89 906.426 1546.64 Q906.426 1554.81 902.537 1559.7 Q898.672 1564.56 892.121 1564.56 Q890.361 1564.56 888.556 1564.21 Q886.75 1563.86 884.806 1563.17 M894.111 1548.52 Q897.26 1548.52 899.088 1546.36 Q900.94 1544.21 900.94 1540.46 Q900.94 1536.74 899.088 1534.58 Q897.26 1532.41 894.111 1532.41 Q890.963 1532.41 889.111 1534.58 Q887.283 1536.74 887.283 1540.46 Q887.283 1544.21 889.111 1546.36 Q890.963 1548.52 894.111 1548.52 Z" fill="#000000" fill-rule="nonzero" fill-opacity="1" /><path clip-path="url(#clip820)" d="M1129.37 1559.95 L1137.01 1559.95 L1137.01 1533.59 L1128.7 1535.25 L1128.7 1530.99 L1136.96 1529.33 L1141.64 1529.33 L1141.64 1559.95 L1149.28 1559.95 L1149.28 1563.89 L1129.37 1563.89 L1129.37 1559.95 Z" fill="#000000" fill-rule="nonzero" fill-opacity="1" /><path clip-path="url(#clip820)" d="M1162.75 1559.95 L1179.07 1559.95 L1179.07 1563.89 L1157.12 1563.89 L1157.12 1559.95 Q1159.78 1557.2 1164.37 1552.57 Q1168.97 1547.92 1170.15 1546.57 Q1172.4 1544.05 1173.28 1542.31 Q1174.18 1540.55 1174.18 1538.86 Q1174.18 1536.11 1172.24 1534.37 Q1170.32 1532.64 1167.22 1532.64 Q1165.02 1532.64 1162.56 1533.4 Q1160.13 1534.17 1157.35 1535.72 L1157.35 1530.99 Q1160.18 1529.86 1162.63 1529.28 Q1165.09 1528.7 1167.12 1528.7 Q1172.49 1528.7 1175.69 1531.39 Q1178.88 1534.07 1178.88 1538.56 Q1178.88 1540.69 1178.07 1542.61 Q1177.28 1544.51 1175.18 1547.11 Q1174.6 1547.78 1171.5 1550.99 Q1168.4 1554.19 1162.75 1559.95 Z" fill="#000000" fill-rule="nonzero" fill-opacity="1" /><path clip-path="url(#clip820)" d="M1388.44 1559.95 L1396.08 1559.95 L1396.08 1533.59 L1387.77 1535.25 L1387.77 1530.99 L1396.04 1529.33 L1400.71 1529.33 L1400.71 1559.95 L1408.35 1559.95 L1408.35 1563.89 L1388.44 1563.89 L1388.44 1559.95 Z" fill="#000000" fill-rule="nonzero" fill-opacity="1" /><path clip-path="url(#clip820)" d="M1417.84 1529.33 L1436.2 1529.33 L1436.2 1533.26 L1422.12 1533.26 L1422.12 1541.74 Q1423.14 1541.39 1424.16 1541.23 Q1425.18 1541.04 1426.2 1541.04 Q1431.99 1541.04 1435.36 1544.21 Q1438.74 1547.38 1438.74 1552.8 Q1438.74 1558.38 1435.27 1561.48 Q1431.8 1564.56 1425.48 1564.56 Q1423.3 1564.56 1421.04 1564.19 Q1418.79 1563.82 1416.38 1563.08 L1416.38 1558.38 Q1418.47 1559.51 1420.69 1560.07 Q1422.91 1560.62 1425.39 1560.62 Q1429.39 1560.62 1431.73 1558.52 Q1434.07 1556.41 1434.07 1552.8 Q1434.07 1549.19 1431.73 1547.08 Q1429.39 1544.98 1425.39 1544.98 Q1423.51 1544.98 1421.64 1545.39 Q1419.79 1545.81 1417.84 1546.69 L1417.84 1529.33 Z" fill="#000000" fill-rule="nonzero" fill-opacity="1" /><polyline clip-path="url(#clip822)" style="stroke:#000000; stroke-linecap:round; stroke-linejoin:round; stroke-width:2; stroke-opacity:0.1; fill:none" points="163.927,1166.1 1538.62,1166.1 "/>
<polyline clip-path="url(#clip822)" style="stroke:#000000; stroke-linecap:round; stroke-linejoin:round; stroke-width:2; stroke-opacity:0.1; fill:none" points="163.927,802.882 1538.62,802.882 "/>
<polyline clip-path="url(#clip822)" style="stroke:#000000; stroke-linecap:round; stroke-linejoin:round; stroke-width:2; stroke-opacity:0.1; fill:none" points="163.927,439.661 1538.62,439.661 "/>
<polyline clip-path="url(#clip822)" style="stroke:#000000; stroke-linecap:round; stroke-linejoin:round; stroke-width:2; stroke-opacity:0.1; fill:none" points="163.927,76.4392 1538.62,76.4392 "/>
<polyline clip-path="url(#clip820)" style="stroke:#000000; stroke-linecap:round; stroke-linejoin:round; stroke-width:4; stroke-opacity:1; fill:none" points="163.927,1495.09 163.927,47.2441 "/>
<polyline clip-path="url(#clip820)" style="stroke:#000000; stroke-linecap:round; stroke-linejoin:round; stroke-width:4; stroke-opacity:1; fill:none" points="163.927,1166.1 182.825,1166.1 "/>
<polyline clip-path="url(#clip820)" style="stroke:#000000; stroke-linecap:round; stroke-linejoin:round; stroke-width:4; stroke-opacity:1; fill:none" points="163.927,802.882 182.825,802.882 "/>
<polyline clip-path="url(#clip820)" style="stroke:#000000; stroke-linecap:round; stroke-linejoin:round; stroke-width:4; stroke-opacity:1; fill:none" points="163.927,439.661 182.825,439.661 "/>
<polyline clip-path="url(#clip820)" style="stroke:#000000; stroke-linecap:round; stroke-linejoin:round; stroke-width:4; stroke-opacity:1; fill:none" points="163.927,76.4392 182.825,76.4392 "/>
<path clip-path="url(#clip820)" d="M58.9365 1151.9 Q55.3254 1151.9 53.4967 1155.47 Q51.6912 1159.01 51.6912 1166.14 Q51.6912 1173.24 53.4967 1176.81 Q55.3254 1180.35 58.9365 1180.35 Q62.5707 1180.35 64.3763 1176.81 Q66.205 1173.24 66.205 1166.14 Q66.205 1159.01 64.3763 1155.47 Q62.5707 1151.9 58.9365 1151.9 M58.9365 1148.2 Q64.7467 1148.2 67.8022 1152.81 Q70.8809 1157.39 70.8809 1166.14 Q70.8809 1174.87 67.8022 1179.47 Q64.7467 1184.05 58.9365 1184.05 Q53.1264 1184.05 50.0477 1179.47 Q46.9921 1174.87 46.9921 1166.14 Q46.9921 1157.39 50.0477 1152.81 Q53.1264 1148.2 58.9365 1148.2 Z" fill="#000000" fill-rule="nonzero" fill-opacity="1" /><path clip-path="url(#clip820)" d="M79.0984 1177.5 L83.9827 1177.5 L83.9827 1183.38 L79.0984 1183.38 L79.0984 1177.5 Z" fill="#000000" fill-rule="nonzero" fill-opacity="1" /><path clip-path="url(#clip820)" d="M94.3067 1182.67 L94.3067 1178.41 Q96.0659 1179.24 97.8715 1179.68 Q99.677 1180.12 101.413 1180.12 Q106.043 1180.12 108.473 1177.02 Q110.927 1173.89 111.274 1167.55 Q109.932 1169.54 107.871 1170.61 Q105.811 1171.67 103.311 1171.67 Q98.1261 1171.67 95.0937 1168.55 Q92.0845 1165.4 92.0845 1159.96 Q92.0845 1154.63 95.2326 1151.42 Q98.3807 1148.2 103.612 1148.2 Q109.608 1148.2 112.756 1152.81 Q115.927 1157.39 115.927 1166.14 Q115.927 1174.31 112.038 1179.19 Q108.172 1184.05 101.621 1184.05 Q99.8622 1184.05 98.0567 1183.71 Q96.2511 1183.36 94.3067 1182.67 M103.612 1168.01 Q106.76 1168.01 108.589 1165.86 Q110.441 1163.71 110.441 1159.96 Q110.441 1156.23 108.589 1154.08 Q106.76 1151.9 103.612 1151.9 Q100.464 1151.9 98.6122 1154.08 Q96.7835 1156.23 96.7835 1159.96 Q96.7835 1163.71 98.6122 1165.86 Q100.464 1168.01 103.612 1168.01 Z" fill="#000000" fill-rule="nonzero" fill-opacity="1" /><path clip-path="url(#clip820)" d="M49.5616 816.227 L57.2004 816.227 L57.2004 789.861 L48.8903 791.528 L48.8903 787.269 L57.1541 785.602 L61.83 785.602 L61.83 816.227 L69.4689 816.227 L69.4689 820.162 L49.5616 820.162 L49.5616 816.227 Z" fill="#000000" fill-rule="nonzero" fill-opacity="1" /><path clip-path="url(#clip820)" d="M78.9133 814.283 L83.7975 814.283 L83.7975 820.162 L78.9133 820.162 L78.9133 814.283 Z" fill="#000000" fill-rule="nonzero" fill-opacity="1" /><path clip-path="url(#clip820)" d="M103.983 788.681 Q100.371 788.681 98.5428 792.246 Q96.7372 795.787 96.7372 802.917 Q96.7372 810.023 98.5428 813.588 Q100.371 817.13 103.983 817.13 Q107.617 817.13 109.422 813.588 Q111.251 810.023 111.251 802.917 Q111.251 795.787 109.422 792.246 Q107.617 788.681 103.983 788.681 M103.983 784.977 Q109.793 784.977 112.848 789.584 Q115.927 794.167 115.927 802.917 Q115.927 811.644 112.848 816.25 Q109.793 820.833 103.983 820.833 Q98.1724 820.833 95.0937 816.25 Q92.0382 811.644 92.0382 802.917 Q92.0382 794.167 95.0937 789.584 Q98.1724 784.977 103.983 784.977 Z" fill="#000000" fill-rule="nonzero" fill-opacity="1" /><path clip-path="url(#clip820)" d="M50.7884 453.005 L58.4272 453.005 L58.4272 426.64 L50.1171 428.307 L50.1171 424.047 L58.381 422.381 L63.0569 422.381 L63.0569 453.005 L70.6957 453.005 L70.6957 456.941 L50.7884 456.941 L50.7884 453.005 Z" fill="#000000" fill-rule="nonzero" fill-opacity="1" /><path clip-path="url(#clip820)" d="M80.1401 451.061 L85.0243 451.061 L85.0243 456.941 L80.1401 456.941 L80.1401 451.061 Z" fill="#000000" fill-rule="nonzero" fill-opacity="1" /><path clip-path="url(#clip820)" d="M96.0196 453.005 L103.658 453.005 L103.658 426.64 L95.3483 428.307 L95.3483 424.047 L103.612 422.381 L108.288 422.381 L108.288 453.005 L115.927 453.005 L115.927 456.941 L96.0196 456.941 L96.0196 453.005 Z" fill="#000000" fill-rule="nonzero" fill-opacity="1" /><path clip-path="url(#clip820)" d="M51.1588 89.7841 L58.7976 89.7841 L58.7976 63.4185 L50.4875 65.0851 L50.4875 60.8259 L58.7513 59.1592 L63.4272 59.1592 L63.4272 89.7841 L71.0661 89.7841 L71.0661 93.7192 L51.1588 93.7192 L51.1588 89.7841 Z" fill="#000000" fill-rule="nonzero" fill-opacity="1" /><path clip-path="url(#clip820)" d="M80.5105 87.8396 L85.3947 87.8396 L85.3947 93.7192 L80.5105 93.7192 L80.5105 87.8396 Z" fill="#000000" fill-rule="nonzero" fill-opacity="1" /><path clip-path="url(#clip820)" d="M99.6076 89.7841 L115.927 89.7841 L115.927 93.7192 L93.9826 93.7192 L93.9826 89.7841 Q96.6446 87.0294 101.228 82.3998 Q105.834 77.7471 107.015 76.4045 Q109.26 73.8814 110.14 72.1453 Q111.043 70.386 111.043 68.6962 Q111.043 65.9416 109.098 64.2055 Q107.177 62.4694 104.075 62.4694 Q101.876 62.4694 99.4224 63.2333 Q96.9919 63.9972 94.2141 65.5481 L94.2141 60.8259 Q97.0382 59.6916 99.4918 59.1129 Q101.946 58.5342 103.983 58.5342 Q109.353 58.5342 112.547 61.2194 Q115.742 63.9046 115.742 68.3953 Q115.742 70.5249 114.932 72.4462 Q114.145 74.3443 112.038 76.9369 Q111.459 77.6082 108.358 80.8258 Q105.256 84.0202 99.6076 89.7841 Z" fill="#000000" fill-rule="nonzero" fill-opacity="1" /><polyline clip-path="url(#clip822)" style="stroke:#009af9; stroke-linecap:round; stroke-linejoin:round; stroke-width:4; stroke-opacity:1; fill:none" points="202.833,88.2208 289.292,196.168 375.751,301.435 462.21,404.088 548.669,504.191 635.128,601.809 721.587,697.002 808.046,789.831 894.505,880.356 980.964,968.632 1067.42,1054.72 1153.88,1138.66 1240.34,1220.52 1326.8,1300.35 1413.26,1378.2 1499.72,1454.11 "/>
<path clip-path="url(#clip820)" d="M1314.43 199.186 L1492.8 199.186 L1492.8 95.5056 L1314.43 95.5056  Z" fill="#ffffff" fill-rule="evenodd" fill-opacity="1"/>
<polyline clip-path="url(#clip820)" style="stroke:#000000; stroke-linecap:round; stroke-linejoin:round; stroke-width:4; stroke-opacity:1; fill:none" points="1314.43,199.186 1492.8,199.186 1492.8,95.5056 1314.43,95.5056 1314.43,199.186 "/>
<polyline clip-path="url(#clip820)" style="stroke:#009af9; stroke-linecap:round; stroke-linejoin:round; stroke-width:4; stroke-opacity:1; fill:none" points="1329.7,147.346 1421.35,147.346 "/>
<path clip-path="url(#clip820)" d="M1457.13 139.695 L1457.13 143.677 Q1455.33 142.681 1453.5 142.195 Q1451.69 141.686 1449.84 141.686 Q1445.7 141.686 1443.41 144.325 Q1441.11 146.94 1441.11 151.686 Q1441.11 156.431 1443.41 159.07 Q1445.7 161.686 1449.84 161.686 Q1451.69 161.686 1453.5 161.2 Q1455.33 160.69 1457.13 159.695 L1457.13 163.63 Q1455.35 164.464 1453.43 164.88 Q1451.53 165.297 1449.38 165.297 Q1443.52 165.297 1440.07 161.616 Q1436.62 157.936 1436.62 151.686 Q1436.62 145.343 1440.1 141.709 Q1443.59 138.075 1449.66 138.075 Q1451.62 138.075 1453.5 138.491 Q1455.37 138.885 1457.13 139.695 Z" fill="#000000" fill-rule="nonzero" fill-opacity="1" /><path clip-path="url(#clip820)" d="M1468.75 131.339 L1468.75 138.7 L1477.53 138.7 L1477.53 142.01 L1468.75 142.01 L1468.75 156.084 Q1468.75 159.255 1469.61 160.158 Q1470.49 161.061 1473.15 161.061 L1477.53 161.061 L1477.53 164.626 L1473.15 164.626 Q1468.22 164.626 1466.35 162.797 Q1464.47 160.945 1464.47 156.084 L1464.47 142.01 L1461.35 142.01 L1461.35 138.7 L1464.47 138.7 L1464.47 131.339 L1468.75 131.339 Z" fill="#000000" fill-rule="nonzero" fill-opacity="1" /><path clip-path="url(#clip820)" d="M1778.06 1495.09 L3152.76 1495.09 L3152.76 47.2441 L1778.06 47.2441  Z" fill="#ffffff" fill-rule="evenodd" fill-opacity="1"/>
<defs>
  <clipPath id="clip823">
    <rect x="1778" y="47" width="1376" height="1449"/>
  </clipPath>
</defs>
<polyline clip-path="url(#clip823)" style="stroke:#000000; stroke-linecap:round; stroke-linejoin:round; stroke-width:2; stroke-opacity:0.1; fill:none" points="1989.88,1495.09 1989.88,47.2441 "/>
<polyline clip-path="url(#clip823)" style="stroke:#000000; stroke-linecap:round; stroke-linejoin:round; stroke-width:2; stroke-opacity:0.1; fill:none" points="2249.26,1495.09 2249.26,47.2441 "/>
<polyline clip-path="url(#clip823)" style="stroke:#000000; stroke-linecap:round; stroke-linejoin:round; stroke-width:2; stroke-opacity:0.1; fill:none" points="2508.64,1495.09 2508.64,47.2441 "/>
<polyline clip-path="url(#clip823)" style="stroke:#000000; stroke-linecap:round; stroke-linejoin:round; stroke-width:2; stroke-opacity:0.1; fill:none" points="2768.01,1495.09 2768.01,47.2441 "/>
<polyline clip-path="url(#clip823)" style="stroke:#000000; stroke-linecap:round; stroke-linejoin:round; stroke-width:2; stroke-opacity:0.1; fill:none" points="3027.39,1495.09 3027.39,47.2441 "/>
<polyline clip-path="url(#clip820)" style="stroke:#000000; stroke-linecap:round; stroke-linejoin:round; stroke-width:4; stroke-opacity:1; fill:none" points="1778.06,1495.09 3152.76,1495.09 "/>
<polyline clip-path="url(#clip820)" style="stroke:#000000; stroke-linecap:round; stroke-linejoin:round; stroke-width:4; stroke-opacity:1; fill:none" points="1989.88,1495.09 1989.88,1476.19 "/>
<polyline clip-path="url(#clip820)" style="stroke:#000000; stroke-linecap:round; stroke-linejoin:round; stroke-width:4; stroke-opacity:1; fill:none" points="2249.26,1495.09 2249.26,1476.19 "/>
<polyline clip-path="url(#clip820)" style="stroke:#000000; stroke-linecap:round; stroke-linejoin:round; stroke-width:4; stroke-opacity:1; fill:none" points="2508.64,1495.09 2508.64,1476.19 "/>
<polyline clip-path="url(#clip820)" style="stroke:#000000; stroke-linecap:round; stroke-linejoin:round; stroke-width:4; stroke-opacity:1; fill:none" points="2768.01,1495.09 2768.01,1476.19 "/>
<polyline clip-path="url(#clip820)" style="stroke:#000000; stroke-linecap:round; stroke-linejoin:round; stroke-width:4; stroke-opacity:1; fill:none" points="3027.39,1495.09 3027.39,1476.19 "/>
<path clip-path="url(#clip820)" d="M1994.13 1545.25 Q1997.49 1545.97 1999.36 1548.24 Q2001.26 1550.51 2001.26 1553.84 Q2001.26 1558.96 1997.74 1561.76 Q1994.22 1564.56 1987.74 1564.56 Q1985.57 1564.56 1983.25 1564.12 Q1980.96 1563.7 1978.51 1562.85 L1978.51 1558.33 Q1980.45 1559.47 1982.77 1560.05 Q1985.08 1560.62 1987.6 1560.62 Q1992 1560.62 1994.29 1558.89 Q1996.61 1557.15 1996.61 1553.84 Q1996.61 1550.79 1994.45 1549.07 Q1992.33 1547.34 1988.51 1547.34 L1984.48 1547.34 L1984.48 1543.49 L1988.69 1543.49 Q1992.14 1543.49 1993.97 1542.13 Q1995.8 1540.74 1995.8 1538.15 Q1995.8 1535.49 1993.9 1534.07 Q1992.02 1532.64 1988.51 1532.64 Q1986.58 1532.64 1984.39 1533.05 Q1982.19 1533.47 1979.55 1534.35 L1979.55 1530.18 Q1982.21 1529.44 1984.52 1529.07 Q1986.86 1528.7 1988.92 1528.7 Q1994.25 1528.7 1997.35 1531.13 Q2000.45 1533.54 2000.45 1537.66 Q2000.45 1540.53 1998.81 1542.52 Q1997.16 1544.49 1994.13 1545.25 Z" fill="#000000" fill-rule="nonzero" fill-opacity="1" /><path clip-path="url(#clip820)" d="M2249.67 1544.74 Q2246.52 1544.74 2244.67 1546.9 Q2242.84 1549.05 2242.84 1552.8 Q2242.84 1556.53 2244.67 1558.7 Q2246.52 1560.86 2249.67 1560.86 Q2252.81 1560.86 2254.64 1558.7 Q2256.49 1556.53 2256.49 1552.8 Q2256.49 1549.05 2254.64 1546.9 Q2252.81 1544.74 2249.67 1544.74 M2258.95 1530.09 L2258.95 1534.35 Q2257.19 1533.52 2255.38 1533.08 Q2253.6 1532.64 2251.84 1532.64 Q2247.21 1532.64 2244.76 1535.76 Q2242.33 1538.89 2241.98 1545.21 Q2243.35 1543.19 2245.41 1542.13 Q2247.47 1541.04 2249.94 1541.04 Q2255.15 1541.04 2258.16 1544.21 Q2261.19 1547.36 2261.19 1552.8 Q2261.19 1558.12 2258.04 1561.34 Q2254.9 1564.56 2249.67 1564.56 Q2243.67 1564.56 2240.5 1559.98 Q2237.33 1555.37 2237.33 1546.64 Q2237.33 1538.45 2241.22 1533.59 Q2245.1 1528.7 2251.66 1528.7 Q2253.42 1528.7 2255.2 1529.05 Q2257 1529.4 2258.95 1530.09 Z" fill="#000000" fill-rule="nonzero" fill-opacity="1" /><path clip-path="url(#clip820)" d="M2498.94 1563.17 L2498.94 1558.91 Q2500.7 1559.74 2502.5 1560.18 Q2504.31 1560.62 2506.04 1560.62 Q2510.67 1560.62 2513.1 1557.52 Q2515.56 1554.4 2515.91 1548.05 Q2514.56 1550.05 2512.5 1551.11 Q2510.44 1552.17 2507.94 1552.17 Q2502.76 1552.17 2499.72 1549.05 Q2496.72 1545.9 2496.72 1540.46 Q2496.72 1535.14 2499.86 1531.92 Q2503.01 1528.7 2508.24 1528.7 Q2514.24 1528.7 2517.39 1533.31 Q2520.56 1537.89 2520.56 1546.64 Q2520.56 1554.81 2516.67 1559.7 Q2512.8 1564.56 2506.25 1564.56 Q2504.49 1564.56 2502.69 1564.21 Q2500.88 1563.86 2498.94 1563.17 M2508.24 1548.52 Q2511.39 1548.52 2513.22 1546.36 Q2515.07 1544.21 2515.07 1540.46 Q2515.07 1536.74 2513.22 1534.58 Q2511.39 1532.41 2508.24 1532.41 Q2505.1 1532.41 2503.24 1534.58 Q2501.41 1536.74 2501.41 1540.46 Q2501.41 1544.21 2503.24 1546.36 Q2505.1 1548.52 2508.24 1548.52 Z" fill="#000000" fill-rule="nonzero" fill-opacity="1" /><path clip-path="url(#clip820)" d="M2743.5 1559.95 L2751.14 1559.95 L2751.14 1533.59 L2742.83 1535.25 L2742.83 1530.99 L2751.09 1529.33 L2755.77 1529.33 L2755.77 1559.95 L2763.41 1559.95 L2763.41 1563.89 L2743.5 1563.89 L2743.5 1559.95 Z" fill="#000000" fill-rule="nonzero" fill-opacity="1" /><path clip-path="url(#clip820)" d="M2776.88 1559.95 L2793.2 1559.95 L2793.2 1563.89 L2771.25 1563.89 L2771.25 1559.95 Q2773.92 1557.2 2778.5 1552.57 Q2783.11 1547.92 2784.29 1546.57 Q2786.53 1544.05 2787.41 1542.31 Q2788.31 1540.55 2788.31 1538.86 Q2788.31 1536.11 2786.37 1534.37 Q2784.45 1532.64 2781.35 1532.64 Q2779.15 1532.64 2776.69 1533.4 Q2774.26 1534.17 2771.49 1535.72 L2771.49 1530.99 Q2774.31 1529.86 2776.76 1529.28 Q2779.22 1528.7 2781.25 1528.7 Q2786.62 1528.7 2789.82 1531.39 Q2793.01 1534.07 2793.01 1538.56 Q2793.01 1540.69 2792.2 1542.61 Q2791.42 1544.51 2789.31 1547.11 Q2788.73 1547.78 2785.63 1550.99 Q2782.53 1554.19 2776.88 1559.95 Z" fill="#000000" fill-rule="nonzero" fill-opacity="1" /><path clip-path="url(#clip820)" d="M3002.58 1559.95 L3010.21 1559.95 L3010.21 1533.59 L3001.9 1535.25 L3001.9 1530.99 L3010.17 1529.33 L3014.84 1529.33 L3014.84 1559.95 L3022.48 1559.95 L3022.48 1563.89 L3002.58 1563.89 L3002.58 1559.95 Z" fill="#000000" fill-rule="nonzero" fill-opacity="1" /><path clip-path="url(#clip820)" d="M3031.97 1529.33 L3050.33 1529.33 L3050.33 1533.26 L3036.26 1533.26 L3036.26 1541.74 Q3037.27 1541.39 3038.29 1541.23 Q3039.31 1541.04 3040.33 1541.04 Q3046.12 1541.04 3049.5 1544.21 Q3052.88 1547.38 3052.88 1552.8 Q3052.88 1558.38 3049.4 1561.48 Q3045.93 1564.56 3039.61 1564.56 Q3037.44 1564.56 3035.17 1564.19 Q3032.92 1563.82 3030.52 1563.08 L3030.52 1558.38 Q3032.6 1559.51 3034.82 1560.07 Q3037.04 1560.62 3039.52 1560.62 Q3043.52 1560.62 3045.86 1558.52 Q3048.2 1556.41 3048.2 1552.8 Q3048.2 1549.19 3045.86 1547.08 Q3043.52 1544.98 3039.52 1544.98 Q3037.65 1544.98 3035.77 1545.39 Q3033.92 1545.81 3031.97 1546.69 L3031.97 1529.33 Z" fill="#000000" fill-rule="nonzero" fill-opacity="1" /><polyline clip-path="url(#clip823)" style="stroke:#000000; stroke-linecap:round; stroke-linejoin:round; stroke-width:2; stroke-opacity:0.1; fill:none" points="1778.06,1240.39 3152.76,1240.39 "/>
<polyline clip-path="url(#clip823)" style="stroke:#000000; stroke-linecap:round; stroke-linejoin:round; stroke-width:2; stroke-opacity:0.1; fill:none" points="1778.06,856.341 3152.76,856.341 "/>
<polyline clip-path="url(#clip823)" style="stroke:#000000; stroke-linecap:round; stroke-linejoin:round; stroke-width:2; stroke-opacity:0.1; fill:none" points="1778.06,472.291 3152.76,472.291 "/>
<polyline clip-path="url(#clip823)" style="stroke:#000000; stroke-linecap:round; stroke-linejoin:round; stroke-width:2; stroke-opacity:0.1; fill:none" points="1778.06,88.2407 3152.76,88.2407 "/>
<polyline clip-path="url(#clip820)" style="stroke:#000000; stroke-linecap:round; stroke-linejoin:round; stroke-width:4; stroke-opacity:1; fill:none" points="1778.06,1495.09 1778.06,47.2441 "/>
<polyline clip-path="url(#clip820)" style="stroke:#000000; stroke-linecap:round; stroke-linejoin:round; stroke-width:4; stroke-opacity:1; fill:none" points="1778.06,1240.39 1796.96,1240.39 "/>
<polyline clip-path="url(#clip820)" style="stroke:#000000; stroke-linecap:round; stroke-linejoin:round; stroke-width:4; stroke-opacity:1; fill:none" points="1778.06,856.341 1796.96,856.341 "/>
<polyline clip-path="url(#clip820)" style="stroke:#000000; stroke-linecap:round; stroke-linejoin:round; stroke-width:4; stroke-opacity:1; fill:none" points="1778.06,472.291 1796.96,472.291 "/>
<polyline clip-path="url(#clip820)" style="stroke:#000000; stroke-linecap:round; stroke-linejoin:round; stroke-width:4; stroke-opacity:1; fill:none" points="1778.06,88.2407 1796.96,88.2407 "/>
<path clip-path="url(#clip820)" d="M1662.54 1256.95 L1662.54 1252.69 Q1664.3 1253.53 1666.1 1253.97 Q1667.91 1254.41 1669.64 1254.41 Q1674.27 1254.41 1676.7 1251.31 Q1679.16 1248.18 1679.5 1241.84 Q1678.16 1243.83 1676.1 1244.89 Q1674.04 1245.96 1671.54 1245.96 Q1666.36 1245.96 1663.32 1242.83 Q1660.31 1239.69 1660.31 1234.25 Q1660.31 1228.92 1663.46 1225.7 Q1666.61 1222.49 1671.84 1222.49 Q1677.84 1222.49 1680.98 1227.09 Q1684.16 1231.68 1684.16 1240.43 Q1684.16 1248.6 1680.27 1253.48 Q1676.4 1258.34 1669.85 1258.34 Q1668.09 1258.34 1666.29 1258 Q1664.48 1257.65 1662.54 1256.95 M1671.84 1242.3 Q1674.99 1242.3 1676.82 1240.15 Q1678.67 1238 1678.67 1234.25 Q1678.67 1230.52 1676.82 1228.37 Q1674.99 1226.19 1671.84 1226.19 Q1668.69 1226.19 1666.84 1228.37 Q1665.01 1230.52 1665.01 1234.25 Q1665.01 1238 1666.84 1240.15 Q1668.69 1242.3 1671.84 1242.3 Z" fill="#000000" fill-rule="nonzero" fill-opacity="1" /><path clip-path="url(#clip820)" d="M1692.56 1251.79 L1697.44 1251.79 L1697.44 1257.67 L1692.56 1257.67 L1692.56 1251.79 Z" fill="#000000" fill-rule="nonzero" fill-opacity="1" /><path clip-path="url(#clip820)" d="M1720.48 1227.19 L1708.67 1245.63 L1720.48 1245.63 L1720.48 1227.19 M1719.25 1223.11 L1725.13 1223.11 L1725.13 1245.63 L1730.06 1245.63 L1730.06 1249.52 L1725.13 1249.52 L1725.13 1257.67 L1720.48 1257.67 L1720.48 1249.52 L1704.87 1249.52 L1704.87 1245.01 L1719.25 1223.11 Z" fill="#000000" fill-rule="nonzero" fill-opacity="1" /><path clip-path="url(#clip820)" d="M1662.86 872.904 L1662.86 868.645 Q1664.62 869.478 1666.42 869.918 Q1668.23 870.358 1669.97 870.358 Q1674.6 870.358 1677.03 867.256 Q1679.48 864.131 1679.83 857.788 Q1678.49 859.779 1676.42 860.844 Q1674.36 861.908 1671.86 861.908 Q1666.68 861.908 1663.65 858.784 Q1660.64 855.635 1660.64 850.196 Q1660.64 844.872 1663.79 841.654 Q1666.93 838.436 1672.17 838.436 Q1678.16 838.436 1681.31 843.043 Q1684.48 847.626 1684.48 856.376 Q1684.48 864.547 1680.59 869.432 Q1676.73 874.293 1670.17 874.293 Q1668.42 874.293 1666.61 873.945 Q1664.8 873.598 1662.86 872.904 M1672.17 858.251 Q1675.31 858.251 1677.14 856.098 Q1678.99 853.946 1678.99 850.196 Q1678.99 846.469 1677.14 844.316 Q1675.31 842.14 1672.17 842.14 Q1669.02 842.14 1667.17 844.316 Q1665.34 846.469 1665.34 850.196 Q1665.34 853.946 1667.17 856.098 Q1669.02 858.251 1672.17 858.251 Z" fill="#000000" fill-rule="nonzero" fill-opacity="1" /><path clip-path="url(#clip820)" d="M1692.88 867.742 L1697.77 867.742 L1697.77 873.621 L1692.88 873.621 L1692.88 867.742 Z" fill="#000000" fill-rule="nonzero" fill-opacity="1" /><path clip-path="url(#clip820)" d="M1718.53 854.478 Q1715.38 854.478 1713.53 856.631 Q1711.7 858.784 1711.7 862.533 Q1711.7 866.26 1713.53 868.436 Q1715.38 870.589 1718.53 870.589 Q1721.68 870.589 1723.51 868.436 Q1725.36 866.26 1725.36 862.533 Q1725.36 858.784 1723.51 856.631 Q1721.68 854.478 1718.53 854.478 M1727.81 839.825 L1727.81 844.085 Q1726.05 843.251 1724.25 842.811 Q1722.47 842.372 1720.71 842.372 Q1716.08 842.372 1713.62 845.497 Q1711.19 848.622 1710.85 854.941 Q1712.21 852.927 1714.27 851.862 Q1716.33 850.774 1718.81 850.774 Q1724.02 850.774 1727.03 853.946 Q1730.06 857.094 1730.06 862.533 Q1730.06 867.858 1726.91 871.075 Q1723.76 874.293 1718.53 874.293 Q1712.54 874.293 1709.36 869.709 Q1706.19 865.103 1706.19 856.376 Q1706.19 848.182 1710.08 843.321 Q1713.97 838.436 1720.52 838.436 Q1722.28 838.436 1724.06 838.784 Q1725.87 839.131 1727.81 839.825 Z" fill="#000000" fill-rule="nonzero" fill-opacity="1" /><path clip-path="url(#clip820)" d="M1663.11 488.853 L1663.11 484.594 Q1664.87 485.428 1666.68 485.867 Q1668.49 486.307 1670.22 486.307 Q1674.85 486.307 1677.28 483.205 Q1679.74 480.08 1680.08 473.738 Q1678.74 475.729 1676.68 476.793 Q1674.62 477.858 1672.12 477.858 Q1666.93 477.858 1663.9 474.733 Q1660.89 471.585 1660.89 466.145 Q1660.89 460.821 1664.04 457.604 Q1667.19 454.386 1672.42 454.386 Q1678.42 454.386 1681.56 458.992 Q1684.73 463.576 1684.73 472.326 Q1684.73 480.497 1680.85 485.381 Q1676.98 490.242 1670.43 490.242 Q1668.67 490.242 1666.86 489.895 Q1665.06 489.548 1663.11 488.853 M1672.42 474.201 Q1675.57 474.201 1677.4 472.048 Q1679.25 469.895 1679.25 466.145 Q1679.25 462.418 1677.4 460.266 Q1675.57 458.09 1672.42 458.09 Q1669.27 458.09 1667.42 460.266 Q1665.59 462.418 1665.59 466.145 Q1665.59 469.895 1667.42 472.048 Q1669.27 474.201 1672.42 474.201 Z" fill="#000000" fill-rule="nonzero" fill-opacity="1" /><path clip-path="url(#clip820)" d="M1693.14 483.691 L1698.02 483.691 L1698.02 489.571 L1693.14 489.571 L1693.14 483.691 Z" fill="#000000" fill-rule="nonzero" fill-opacity="1" /><path clip-path="url(#clip820)" d="M1718.21 473.159 Q1714.87 473.159 1712.95 474.941 Q1711.05 476.724 1711.05 479.849 Q1711.05 482.974 1712.95 484.756 Q1714.87 486.539 1718.21 486.539 Q1721.54 486.539 1723.46 484.756 Q1725.38 482.951 1725.38 479.849 Q1725.38 476.724 1723.46 474.941 Q1721.56 473.159 1718.21 473.159 M1713.53 471.168 Q1710.52 470.428 1708.83 468.367 Q1707.17 466.307 1707.17 463.344 Q1707.17 459.201 1710.11 456.793 Q1713.07 454.386 1718.21 454.386 Q1723.37 454.386 1726.31 456.793 Q1729.25 459.201 1729.25 463.344 Q1729.25 466.307 1727.56 468.367 Q1725.89 470.428 1722.91 471.168 Q1726.29 471.955 1728.16 474.247 Q1730.06 476.539 1730.06 479.849 Q1730.06 484.872 1726.98 487.557 Q1723.92 490.242 1718.21 490.242 Q1712.49 490.242 1709.41 487.557 Q1706.36 484.872 1706.36 479.849 Q1706.36 476.539 1708.25 474.247 Q1710.15 471.955 1713.53 471.168 M1711.82 463.784 Q1711.82 466.469 1713.48 467.974 Q1715.17 469.479 1718.21 469.479 Q1721.22 469.479 1722.91 467.974 Q1724.62 466.469 1724.62 463.784 Q1724.62 461.099 1722.91 459.594 Q1721.22 458.09 1718.21 458.09 Q1715.17 458.09 1713.48 459.594 Q1711.82 461.099 1711.82 463.784 Z" fill="#000000" fill-rule="nonzero" fill-opacity="1" /><path clip-path="url(#clip820)" d="M1633.53 101.586 L1641.17 101.586 L1641.17 75.2199 L1632.86 76.8866 L1632.86 72.6273 L1641.12 70.9607 L1645.8 70.9607 L1645.8 101.586 L1653.44 101.586 L1653.44 105.521 L1633.53 105.521 L1633.53 101.586 Z" fill="#000000" fill-rule="nonzero" fill-opacity="1" /><path clip-path="url(#clip820)" d="M1672.88 74.0394 Q1669.27 74.0394 1667.44 77.6042 Q1665.64 81.1458 1665.64 88.2754 Q1665.64 95.3818 1667.44 98.9466 Q1669.27 102.488 1672.88 102.488 Q1676.52 102.488 1678.32 98.9466 Q1680.15 95.3818 1680.15 88.2754 Q1680.15 81.1458 1678.32 77.6042 Q1676.52 74.0394 1672.88 74.0394 M1672.88 70.3357 Q1678.69 70.3357 1681.75 74.9421 Q1684.83 79.5254 1684.83 88.2754 Q1684.83 97.0022 1681.75 101.609 Q1678.69 106.192 1672.88 106.192 Q1667.07 106.192 1663.99 101.609 Q1660.94 97.0022 1660.94 88.2754 Q1660.94 79.5254 1663.99 74.9421 Q1667.07 70.3357 1672.88 70.3357 Z" fill="#000000" fill-rule="nonzero" fill-opacity="1" /><path clip-path="url(#clip820)" d="M1693.05 99.6411 L1697.93 99.6411 L1697.93 105.521 L1693.05 105.521 L1693.05 99.6411 Z" fill="#000000" fill-rule="nonzero" fill-opacity="1" /><path clip-path="url(#clip820)" d="M1718.11 74.0394 Q1714.5 74.0394 1712.67 77.6042 Q1710.87 81.1458 1710.87 88.2754 Q1710.87 95.3818 1712.67 98.9466 Q1714.5 102.488 1718.11 102.488 Q1721.75 102.488 1723.55 98.9466 Q1725.38 95.3818 1725.38 88.2754 Q1725.38 81.1458 1723.55 77.6042 Q1721.75 74.0394 1718.11 74.0394 M1718.11 70.3357 Q1723.92 70.3357 1726.98 74.9421 Q1730.06 79.5254 1730.06 88.2754 Q1730.06 97.0022 1726.98 101.609 Q1723.92 106.192 1718.11 106.192 Q1712.3 106.192 1709.23 101.609 Q1706.17 97.0022 1706.17 88.2754 Q1706.17 79.5254 1709.23 74.9421 Q1712.3 70.3357 1718.11 70.3357 Z" fill="#000000" fill-rule="nonzero" fill-opacity="1" /><polyline clip-path="url(#clip823)" style="stroke:#009af9; stroke-linecap:round; stroke-linejoin:round; stroke-width:4; stroke-opacity:1; fill:none" points="1816.97,88.2407 1903.42,446.86 1989.88,748.769 2076.34,995.328 2162.8,1187.86 2249.26,1327.67 2335.72,1416.01 2422.18,1454.11 2508.64,1443.17 2595.1,1384.37 2681.55,1278.83 2768.01,1127.69 2854.47,932.005 2940.93,692.851 3027.39,411.254 3113.85,88.2208 "/>
<path clip-path="url(#clip820)" d="M2895.64 1446.83 L3106.93 1446.83 L3106.93 1343.15 L2895.64 1343.15  Z" fill="#ffffff" fill-rule="evenodd" fill-opacity="1"/>
<polyline clip-path="url(#clip820)" style="stroke:#000000; stroke-linecap:round; stroke-linejoin:round; stroke-width:4; stroke-opacity:1; fill:none" points="2895.64,1446.83 3106.93,1446.83 3106.93,1343.15 2895.64,1343.15 2895.64,1446.83 "/>
<polyline clip-path="url(#clip820)" style="stroke:#009af9; stroke-linecap:round; stroke-linejoin:round; stroke-width:4; stroke-opacity:1; fill:none" points="2910.92,1394.99 3002.56,1394.99 "/>
<path clip-path="url(#clip820)" d="M3031.24 1399.23 Q3026.08 1399.23 3024.09 1400.41 Q3022.1 1401.6 3022.1 1404.44 Q3022.1 1406.71 3023.58 1408.05 Q3025.08 1409.37 3027.65 1409.37 Q3031.2 1409.37 3033.33 1406.87 Q3035.48 1404.35 3035.48 1400.18 L3035.48 1399.23 L3031.24 1399.23 M3039.74 1397.47 L3039.74 1412.27 L3035.48 1412.27 L3035.48 1408.33 Q3034.02 1410.69 3031.84 1411.83 Q3029.67 1412.94 3026.52 1412.94 Q3022.54 1412.94 3020.18 1410.72 Q3017.84 1408.47 3017.84 1404.72 Q3017.84 1400.35 3020.76 1398.12 Q3023.7 1395.9 3029.51 1395.9 L3035.48 1395.9 L3035.48 1395.48 Q3035.48 1392.54 3033.53 1390.95 Q3031.61 1389.33 3028.12 1389.33 Q3025.89 1389.33 3023.79 1389.86 Q3021.68 1390.39 3019.74 1391.46 L3019.74 1387.52 Q3022.08 1386.62 3024.27 1386.18 Q3026.47 1385.72 3028.56 1385.72 Q3034.18 1385.72 3036.96 1388.63 Q3039.74 1391.55 3039.74 1397.47 Z" fill="#000000" fill-rule="nonzero" fill-opacity="1" /><path clip-path="url(#clip820)" d="M3049.92 1408.33 L3057.56 1408.33 L3057.56 1381.97 L3049.25 1383.63 L3049.25 1379.37 L3057.51 1377.71 L3062.19 1377.71 L3062.19 1408.33 L3069.83 1408.33 L3069.83 1412.27 L3049.92 1412.27 L3049.92 1408.33 Z" fill="#000000" fill-rule="nonzero" fill-opacity="1" /><path clip-path="url(#clip820)" d="M3082.89 1378.98 L3082.89 1386.34 L3091.66 1386.34 L3091.66 1389.65 L3082.89 1389.65 L3082.89 1403.72 Q3082.89 1406.9 3083.74 1407.8 Q3084.62 1408.7 3087.28 1408.7 L3091.66 1408.7 L3091.66 1412.27 L3087.28 1412.27 Q3082.35 1412.27 3080.48 1410.44 Q3078.6 1408.59 3078.6 1403.72 L3078.6 1389.65 L3075.48 1389.65 L3075.48 1386.34 L3078.6 1386.34 L3078.6 1378.98 L3082.89 1378.98 Z" fill="#000000" fill-rule="nonzero" fill-opacity="1" /></svg>