<?xml version="1.0" encoding="utf-8"?>
<svg xmlns="http://www.w3.org/2000/svg" xmlns:xlink="http://www.w3.org/1999/xlink" width="800" height="400" viewBox="0 0 3200 1600">
<defs>
  <clipPath id="clip230">
    <rect x="0" y="0" width="3200" height="1600"/>
  </clipPath>
</defs>
<path clip-path="url(#clip230)" d="M0 1600 L3200 1600 L3200 0 L0 0  Z" fill="#ffffff" fill-rule="evenodd" fill-opacity="1"/>
<defs>
  <clipPath id="clip231">
    <rect x="640" y="0" width="2241" height="1600"/>
  </clipPath>
</defs>
<path clip-path="url(#clip230)" d="M228.509 1443.7 L1515.06 1443.7 L1515.06 47.2441 L228.509 47.2441  Z" fill="#ffffff" fill-rule="evenodd" fill-opacity="1"/>
<defs>
  <clipPath id="clip232">
    <rect x="228" y="47" width="1288" height="1397"/>
  </clipPath>
</defs>
<polyline clip-path="url(#clip232)" style="stroke:#000000; stroke-linecap:round; stroke-linejoin:round; stroke-width:2; stroke-opacity:0.1; fill:none" points="507.666,1443.7 507.666,47.2441 "/>
<polyline clip-path="url(#clip232)" style="stroke:#000000; stroke-linecap:round; stroke-linejoin:round; stroke-width:2; stroke-opacity:0.1; fill:none" points="811.098,1443.7 811.098,47.2441 "/>
<polyline clip-path="url(#clip232)" style="stroke:#000000; stroke-linecap:round; stroke-linejoin:round; stroke-width:2; stroke-opacity:0.1; fill:none" points="1114.53,1443.7 1114.53,47.2441 "/>
<polyline clip-path="url(#clip232)" style="stroke:#000000; stroke-linecap:round; stroke-linejoin:round; stroke-width:2; stroke-opacity:0.1; fill:none" points="1417.96,1443.7 1417.96,47.2441 "/>
<polyline clip-path="url(#clip230)" style="stroke:#000000; stroke-linecap:round; stroke-linejoin:round; stroke-width:4; stroke-opacity:1; fill:none" points="228.509,1443.7 1515.06,1443.7 "/>
<polyline clip-path="url(#clip230)" style="stroke:#000000; stroke-linecap:round; stroke-linejoin:round; stroke-width:4; stroke-opacity:1; fill:none" points="507.666,1443.7 507.666,1424.8 "/>
<polyline clip-path="url(#clip230)" style="stroke:#000000; stroke-linecap:round; stroke-linejoin:round; stroke-width:4; stroke-opacity:1; fill:none" points="811.098,1443.7 811.098,1424.8 "/>
<polyline clip-path="url(#clip230)" style="stroke:#000000; stroke-linecap:round; stroke-linejoin:round; stroke-width:4; stroke-opacity:1; fill:none" points="1114.53,1443.7 1114.53,1424.8 "/>
<polyline clip-path="url(#clip230)" style="stroke:#000000; stroke-linecap:round; stroke-linejoin:round; stroke-width:4; stroke-opacity:1; fill:none" points="1417.96,1443.7 1417.96,1424.8 "/>
<path clip-path="url(#clip230)" d="M497.944 1477.94 L516.301 1477.94 L516.301 1481.88 L502.227 1481.88 L502.227 1490.35 Q503.245 1490 504.264 1489.84 Q505.282 1489.65 506.301 1489.65 Q512.088 1489.65 515.467 1492.82 Q518.847 1496 518.847 1501.41 Q518.847 1506.99 515.375 1510.09 Q511.903 1513.17 505.583 1513.17 Q503.407 1513.17 501.139 1512.8 Q498.893 1512.43 496.486 1511.69 L496.486 1506.99 Q498.569 1508.12 500.791 1508.68 Q503.014 1509.24 505.491 1509.24 Q509.495 1509.24 511.833 1507.13 Q514.171 1505.02 514.171 1501.41 Q514.171 1497.8 511.833 1495.69 Q509.495 1493.59 505.491 1493.59 Q503.616 1493.59 501.741 1494 Q499.889 1494.42 497.944 1495.3 L497.944 1477.94 Z" fill="#000000" fill-rule="nonzero" fill-opacity="1" /><path clip-path="url(#clip230)" d="M785.786 1508.56 L793.425 1508.56 L793.425 1482.2 L785.114 1483.87 L785.114 1479.61 L793.378 1477.94 L798.054 1477.94 L798.054 1508.56 L805.693 1508.56 L805.693 1512.5 L785.786 1512.5 L785.786 1508.56 Z" fill="#000000" fill-rule="nonzero" fill-opacity="1" /><path clip-path="url(#clip230)" d="M825.137 1481.02 Q821.526 1481.02 819.698 1484.58 Q817.892 1488.12 817.892 1495.25 Q817.892 1502.36 819.698 1505.93 Q821.526 1509.47 825.137 1509.47 Q828.772 1509.47 830.577 1505.93 Q832.406 1502.36 832.406 1495.25 Q832.406 1488.12 830.577 1484.58 Q828.772 1481.02 825.137 1481.02 M825.137 1477.31 Q830.947 1477.31 834.003 1481.92 Q837.082 1486.5 837.082 1495.25 Q837.082 1503.98 834.003 1508.59 Q830.947 1513.17 825.137 1513.17 Q819.327 1513.17 816.248 1508.59 Q813.193 1503.98 813.193 1495.25 Q813.193 1486.5 816.248 1481.92 Q819.327 1477.31 825.137 1477.31 Z" fill="#000000" fill-rule="nonzero" fill-opacity="1" /><path clip-path="url(#clip230)" d="M1089.71 1508.56 L1097.35 1508.56 L1097.35 1482.2 L1089.04 1483.87 L1089.04 1479.61 L1097.31 1477.94 L1101.98 1477.94 L1101.98 1508.56 L1109.62 1508.56 L1109.62 1512.5 L1089.71 1512.5 L1089.71 1508.56 Z" fill="#000000" fill-rule="nonzero" fill-opacity="1" /><path clip-path="url(#clip230)" d="M1119.11 1477.94 L1137.47 1477.94 L1137.47 1481.88 L1123.4 1481.88 L1123.4 1490.35 Q1124.41 1490 1125.43 1489.84 Q1126.45 1489.65 1127.47 1489.65 Q1133.26 1489.65 1136.64 1492.82 Q1140.02 1496 1140.02 1501.41 Q1140.02 1506.99 1136.54 1510.09 Q1133.07 1513.17 1126.75 1513.17 Q1124.58 1513.17 1122.31 1512.8 Q1120.06 1512.43 1117.65 1511.69 L1117.65 1506.99 Q1119.74 1508.12 1121.96 1508.68 Q1124.18 1509.24 1126.66 1509.24 Q1130.66 1509.24 1133 1507.13 Q1135.34 1505.02 1135.34 1501.41 Q1135.34 1497.8 1133 1495.69 Q1130.66 1493.59 1126.66 1493.59 Q1124.78 1493.59 1122.91 1494 Q1121.06 1494.42 1119.11 1495.3 L1119.11 1477.94 Z" fill="#000000" fill-rule="nonzero" fill-opacity="1" /><path clip-path="url(#clip230)" d="M1396.73 1508.56 L1413.05 1508.56 L1413.05 1512.5 L1391.11 1512.5 L1391.11 1508.56 Q1393.77 1505.81 1398.35 1501.18 Q1402.96 1496.53 1404.14 1495.19 Q1406.39 1492.66 1407.27 1490.93 Q1408.17 1489.17 1408.17 1487.48 Q1408.17 1484.72 1406.23 1482.99 Q1404.3 1481.25 1401.2 1481.25 Q1399 1481.25 1396.55 1482.01 Q1394.12 1482.78 1391.34 1484.33 L1391.34 1479.61 Q1394.17 1478.47 1396.62 1477.89 Q1399.07 1477.31 1401.11 1477.31 Q1406.48 1477.31 1409.67 1480 Q1412.87 1482.69 1412.87 1487.18 Q1412.87 1489.31 1412.06 1491.23 Q1411.27 1493.12 1409.16 1495.72 Q1408.59 1496.39 1405.48 1499.61 Q1402.38 1502.8 1396.73 1508.56 Z" fill="#000000" fill-rule="nonzero" fill-opacity="1" /><path clip-path="url(#clip230)" d="M1432.87 1481.02 Q1429.26 1481.02 1427.43 1484.58 Q1425.62 1488.12 1425.62 1495.25 Q1425.62 1502.36 1427.43 1505.93 Q1429.26 1509.47 1432.87 1509.47 Q1436.5 1509.47 1438.31 1505.93 Q1440.14 1502.36 1440.14 1495.25 Q1440.14 1488.12 1438.31 1484.58 Q1436.5 1481.02 1432.87 1481.02 M1432.87 1477.31 Q1438.68 1477.31 1441.73 1481.92 Q1444.81 1486.5 1444.81 1495.25 Q1444.81 1503.98 1441.73 1508.59 Q1438.68 1513.17 1432.87 1513.17 Q1427.06 1513.17 1423.98 1508.59 Q1420.92 1503.98 1420.92 1495.25 Q1420.92 1486.5 1423.98 1481.92 Q1427.06 1477.31 1432.87 1477.31 Z" fill="#000000" fill-rule="nonzero" fill-opacity="1" /><path clip-path="url(#clip230)" d="M810.944 1554.79 L810.944 1564.92 L823.007 1564.92 L823.007 1569.47 L810.944 1569.47 L810.944 1588.82 Q810.944 1593.18 812.122 1594.42 Q813.331 1595.66 816.992 1595.66 L823.007 1595.66 L823.007 1600.56 L816.992 1600.56 Q810.212 1600.56 807.634 1598.05 Q805.056 1595.5 805.056 1588.82 L805.056 1569.47 L800.759 1569.47 L800.759 1564.92 L805.056 1564.92 L805.056 1554.79 L810.944 1554.79 Z" fill="#000000" fill-rule="nonzero" fill-opacity="1" /><path clip-path="url(#clip230)" d="M830.71 1564.92 L836.566 1564.92 L836.566 1600.56 L830.71 1600.56 L830.71 1564.92 M830.71 1551.04 L836.566 1551.04 L836.566 1558.45 L830.71 1558.45 L830.71 1551.04 Z" fill="#000000" fill-rule="nonzero" fill-opacity="1" /><path clip-path="url(#clip230)" d="M876.575 1571.76 Q878.771 1567.81 881.826 1565.93 Q884.882 1564.06 889.019 1564.06 Q894.589 1564.06 897.613 1567.97 Q900.637 1571.85 900.637 1579.05 L900.637 1600.56 L894.749 1600.56 L894.749 1579.24 Q894.749 1574.11 892.934 1571.63 Q891.12 1569.15 887.396 1569.15 Q882.845 1569.15 880.203 1572.17 Q877.561 1575.2 877.561 1580.42 L877.561 1600.56 L871.673 1600.56 L871.673 1579.24 Q871.673 1574.08 869.859 1571.63 Q868.044 1569.15 864.257 1569.15 Q859.769 1569.15 857.127 1572.2 Q854.486 1575.23 854.486 1580.42 L854.486 1600.56 L848.597 1600.56 L848.597 1564.92 L854.486 1564.92 L854.486 1570.45 Q856.491 1567.18 859.292 1565.62 Q862.093 1564.06 865.944 1564.06 Q869.827 1564.06 872.532 1566.03 Q875.27 1568 876.575 1571.76 Z" fill="#000000" fill-rule="nonzero" fill-opacity="1" /><path clip-path="url(#clip230)" d="M942.81 1581.28 L942.81 1584.14 L915.883 1584.14 Q916.265 1590.19 919.511 1593.37 Q922.79 1596.52 928.614 1596.52 Q931.988 1596.52 935.139 1595.69 Q938.322 1594.87 941.441 1593.21 L941.441 1598.75 Q938.29 1600.09 934.98 1600.79 Q931.67 1601.49 928.264 1601.49 Q919.734 1601.49 914.737 1596.52 Q909.772 1591.56 909.772 1583.09 Q909.772 1574.34 914.482 1569.21 Q919.225 1564.06 927.246 1564.06 Q934.439 1564.06 938.608 1568.7 Q942.81 1573.32 942.81 1581.28 M936.953 1579.56 Q936.89 1574.75 934.248 1571.89 Q931.638 1569.02 927.309 1569.02 Q922.408 1569.02 919.448 1571.79 Q916.519 1574.56 916.074 1579.59 L936.953 1579.56 Z" fill="#000000" fill-rule="nonzero" fill-opacity="1" /><polyline clip-path="url(#clip232)" style="stroke:#000000; stroke-linecap:round; stroke-linejoin:round; stroke-width:2; stroke-opacity:0.1; fill:none" points="228.509,1404.18 1515.06,1404.18 "/>
<polyline clip-path="url(#clip232)" style="stroke:#000000; stroke-linecap:round; stroke-linejoin:round; stroke-width:2; stroke-opacity:0.1; fill:none" points="228.509,965.04 1515.06,965.04 "/>
<polyline clip-path="url(#clip232)" style="stroke:#000000; stroke-linecap:round; stroke-linejoin:round; stroke-width:2; stroke-opacity:0.1; fill:none" points="228.509,525.903 1515.06,525.903 "/>
<polyline clip-path="url(#clip232)" style="stroke:#000000; stroke-linecap:round; stroke-linejoin:round; stroke-width:2; stroke-opacity:0.1; fill:none" points="228.509,86.7664 1515.06,86.7664 "/>
<polyline clip-path="url(#clip230)" style="stroke:#000000; stroke-linecap:round; stroke-linejoin:round; stroke-width:4; stroke-opacity:1; fill:none" points="228.509,1443.7 228.509,47.2441 "/>
<polyline clip-path="url(#clip230)" style="stroke:#000000; stroke-linecap:round; stroke-linejoin:round; stroke-width:4; stroke-opacity:1; fill:none" points="228.509,1404.18 247.407,1404.18 "/>
<polyline clip-path="url(#clip230)" style="stroke:#000000; stroke-linecap:round; stroke-linejoin:round; stroke-width:4; stroke-opacity:1; fill:none" points="228.509,965.04 247.407,965.04 "/>
<polyline clip-path="url(#clip230)" style="stroke:#000000; stroke-linecap:round; stroke-linejoin:round; stroke-width:4; stroke-opacity:1; fill:none" points="228.509,525.903 247.407,525.903 "/>
<polyline clip-path="url(#clip230)" style="stroke:#000000; stroke-linecap:round; stroke-linejoin:round; stroke-width:4; stroke-opacity:1; fill:none" points="228.509,86.7664 247.407,86.7664 "/>
<path clip-path="url(#clip230)" d="M168.565 1389.98 Q164.954 1389.98 163.125 1393.54 Q161.32 1397.08 161.32 1404.21 Q161.32 1411.32 163.125 1414.88 Q164.954 1418.43 168.565 1418.43 Q172.199 1418.43 174.005 1414.88 Q175.833 1411.32 175.833 1404.21 Q175.833 1397.08 174.005 1393.54 Q172.199 1389.98 168.565 1389.98 M168.565 1386.27 Q174.375 1386.27 177.431 1390.88 Q180.509 1395.46 180.509 1404.21 Q180.509 1412.94 177.431 1417.55 Q174.375 1422.13 168.565 1422.13 Q162.755 1422.13 159.676 1417.55 Q156.621 1412.94 156.621 1404.21 Q156.621 1395.46 159.676 1390.88 Q162.755 1386.27 168.565 1386.27 Z" fill="#000000" fill-rule="nonzero" fill-opacity="1" /><path clip-path="url(#clip230)" d="M128.449 947.76 L146.806 947.76 L146.806 951.696 L132.732 951.696 L132.732 960.168 Q133.75 959.821 134.769 959.659 Q135.787 959.473 136.806 959.473 Q142.593 959.473 145.972 962.645 Q149.352 965.816 149.352 971.233 Q149.352 976.811 145.88 979.913 Q142.408 982.992 136.088 982.992 Q133.912 982.992 131.644 982.621 Q129.399 982.251 126.991 981.51 L126.991 976.811 Q129.074 977.946 131.297 978.501 Q133.519 979.057 135.996 979.057 Q140 979.057 142.338 976.95 Q144.676 974.844 144.676 971.233 Q144.676 967.621 142.338 965.515 Q140 963.409 135.996 963.409 Q134.121 963.409 132.246 963.825 Q130.394 964.242 128.449 965.122 L128.449 947.76 Z" fill="#000000" fill-rule="nonzero" fill-opacity="1" /><path clip-path="url(#clip230)" d="M168.565 950.839 Q164.954 950.839 163.125 954.404 Q161.32 957.946 161.32 965.075 Q161.32 972.182 163.125 975.746 Q164.954 979.288 168.565 979.288 Q172.199 979.288 174.005 975.746 Q175.833 972.182 175.833 965.075 Q175.833 957.946 174.005 954.404 Q172.199 950.839 168.565 950.839 M168.565 947.135 Q174.375 947.135 177.431 951.742 Q180.509 956.325 180.509 965.075 Q180.509 973.802 177.431 978.408 Q174.375 982.992 168.565 982.992 Q162.755 982.992 159.676 978.408 Q156.621 973.802 156.621 965.075 Q156.621 956.325 159.676 951.742 Q162.755 947.135 168.565 947.135 Z" fill="#000000" fill-rule="nonzero" fill-opacity="1" /><path clip-path="url(#clip230)" d="M99.0515 539.248 L106.69 539.248 L106.69 512.883 L98.3802 514.549 L98.3802 510.29 L106.644 508.623 L111.32 508.623 L111.32 539.248 L118.959 539.248 L118.959 543.183 L99.0515 543.183 L99.0515 539.248 Z" fill="#000000" fill-rule="nonzero" fill-opacity="1" /><path clip-path="url(#clip230)" d="M138.403 511.702 Q134.792 511.702 132.963 515.267 Q131.158 518.809 131.158 525.938 Q131.158 533.045 132.963 536.609 Q134.792 540.151 138.403 540.151 Q142.037 540.151 143.843 536.609 Q145.672 533.045 145.672 525.938 Q145.672 518.809 143.843 515.267 Q142.037 511.702 138.403 511.702 M138.403 507.998 Q144.213 507.998 147.269 512.605 Q150.347 517.188 150.347 525.938 Q150.347 534.665 147.269 539.271 Q144.213 543.855 138.403 543.855 Q132.593 543.855 129.514 539.271 Q126.459 534.665 126.459 525.938 Q126.459 517.188 129.514 512.605 Q132.593 507.998 138.403 507.998 Z" fill="#000000" fill-rule="nonzero" fill-opacity="1" /><path clip-path="url(#clip230)" d="M168.565 511.702 Q164.954 511.702 163.125 515.267 Q161.32 518.809 161.32 525.938 Q161.32 533.045 163.125 536.609 Q164.954 540.151 168.565 540.151 Q172.199 540.151 174.005 536.609 Q175.833 533.045 175.833 525.938 Q175.833 518.809 174.005 515.267 Q172.199 511.702 168.565 511.702 M168.565 507.998 Q174.375 507.998 177.431 512.605 Q180.509 517.188 180.509 525.938 Q180.509 534.665 177.431 539.271 Q174.375 543.855 168.565 543.855 Q162.755 543.855 159.676 539.271 Q156.621 534.665 156.621 525.938 Q156.621 517.188 159.676 512.605 Q162.755 507.998 168.565 507.998 Z" fill="#000000" fill-rule="nonzero" fill-opacity="1" /><path clip-path="url(#clip230)" d="M99.0515 100.111 L106.69 100.111 L106.69 73.7457 L98.3802 75.4123 L98.3802 71.1531 L106.644 69.4864 L111.32 69.4864 L111.32 100.111 L118.959 100.111 L118.959 104.046 L99.0515 104.046 L99.0515 100.111 Z" fill="#000000" fill-rule="nonzero" fill-opacity="1" /><path clip-path="url(#clip230)" d="M128.449 69.4864 L146.806 69.4864 L146.806 73.4216 L132.732 73.4216 L132.732 81.8938 Q133.75 81.5465 134.769 81.3845 Q135.787 81.1993 136.806 81.1993 Q142.593 81.1993 145.972 84.3706 Q149.352 87.5419 149.352 92.9585 Q149.352 98.5372 145.88 101.639 Q142.408 104.718 136.088 104.718 Q133.912 104.718 131.644 104.347 Q129.399 103.977 126.991 103.236 L126.991 98.5372 Q129.074 99.6715 131.297 100.227 Q133.519 100.783 135.996 100.783 Q140 100.783 142.338 98.6761 Q144.676 96.5696 144.676 92.9585 Q144.676 89.3474 142.338 87.241 Q140 85.1345 135.996 85.1345 Q134.121 85.1345 132.246 85.5512 Q130.394 85.9678 128.449 86.8474 L128.449 69.4864 Z" fill="#000000" fill-rule="nonzero" fill-opacity="1" /><path clip-path="url(#clip230)" d="M168.565 72.5651 Q164.954 72.5651 163.125 76.1299 Q161.32 79.6716 161.32 86.8011 Q161.32 93.9076 163.125 97.4724 Q164.954 101.014 168.565 101.014 Q172.199 101.014 174.005 97.4724 Q175.833 93.9076 175.833 86.8011 Q175.833 79.6716 174.005 76.1299 Q172.199 72.5651 168.565 72.5651 M168.565 68.8614 Q174.375 68.8614 177.431 73.4679 Q180.509 78.0512 180.509 86.8011 Q180.509 95.528 177.431 100.134 Q174.375 104.718 168.565 104.718 Q162.755 104.718 159.676 100.134 Q156.621 95.528 156.621 86.8011 Q156.621 78.0512 159.676 73.4679 Q162.755 68.8614 168.565 68.8614 Z" fill="#000000" fill-rule="nonzero" fill-opacity="1" /><path clip-path="url(#clip230)" d="M-9.83624 838.475 L-3.56602 838.475 Q-5.31659 842.135 -6.17596 845.382 Q-7.03533 848.628 -7.03533 851.652 Q-7.03533 856.904 -4.99831 859.768 Q-2.96128 862.601 0.794486 862.601 Q3.94551 862.601 5.56877 860.723 Q7.16019 858.813 8.14688 853.53 L8.94259 849.647 Q10.3112 842.454 13.7805 839.048 Q17.218 835.61 23.0108 835.61 Q29.9176 835.61 33.4824 840.257 Q37.0472 844.872 37.0472 853.816 Q37.0472 857.19 36.2833 861.01 Q35.5194 864.797 34.0235 868.871 L27.4031 868.871 Q29.5993 864.956 30.7133 861.201 Q31.8273 857.445 31.8273 853.816 Q31.8273 848.31 29.663 845.318 Q27.4986 842.326 23.4882 842.326 Q19.9871 842.326 18.0137 844.491 Q16.0404 846.623 15.0537 851.525 L14.2898 855.44 Q12.8575 862.633 9.80196 865.847 Q6.74642 869.062 1.30374 869.062 Q-4.99831 869.062 -8.62676 864.638 Q-12.2552 860.182 -12.2552 852.384 Q-12.2552 849.042 -11.6505 845.573 Q-11.0457 842.103 -9.83624 838.475 Z" fill="#000000" fill-rule="nonzero" fill-opacity="1" /><path clip-path="url(#clip230)" d="M18.2047 809.638 Q18.2047 816.736 19.8279 819.473 Q21.4512 822.211 25.3661 822.211 Q28.4853 822.211 30.3314 820.174 Q32.1456 818.105 32.1456 814.572 Q32.1456 809.702 28.7081 806.774 Q25.2388 803.814 19.5097 803.814 L18.2047 803.814 L18.2047 809.638 M15.7857 797.957 L36.1242 797.957 L36.1242 803.814 L30.7133 803.814 Q33.9598 805.819 35.5194 808.811 Q37.0472 811.803 37.0472 816.131 Q37.0472 821.606 33.9916 824.852 Q30.9043 828.067 25.7481 828.067 Q19.7325 828.067 16.6769 824.057 Q13.6214 820.014 13.6214 812.025 L13.6214 803.814 L13.0485 803.814 Q9.00625 803.814 6.81008 806.487 Q4.58208 809.129 4.58208 813.935 Q4.58208 816.991 5.31414 819.887 Q6.04619 822.783 7.51031 825.457 L2.09946 825.457 Q0.858143 822.242 0.253401 819.219 Q-0.38317 816.195 -0.38317 813.33 Q-0.38317 805.596 3.62723 801.777 Q7.63762 797.957 15.7857 797.957 Z" fill="#000000" fill-rule="nonzero" fill-opacity="1" /><path clip-path="url(#clip230)" d="M0.4762 790.096 L0.4762 783.889 L30.395 772.749 L0.4762 761.609 L0.4762 755.402 L36.1242 768.77 L36.1242 776.728 L0.4762 790.096 Z" fill="#000000" fill-rule="nonzero" fill-opacity="1" /><path clip-path="url(#clip230)" d="M0.4762 747.318 L0.4762 741.462 L36.1242 741.462 L36.1242 747.318 L0.4762 747.318 M-13.401 747.318 L-13.401 741.462 L-5.98499 741.462 L-5.98499 747.318 L-13.401 747.318 Z" fill="#000000" fill-rule="nonzero" fill-opacity="1" /><path clip-path="url(#clip230)" d="M14.6081 699.575 L36.1242 699.575 L36.1242 705.432 L14.799 705.432 Q9.7383 705.432 7.22385 707.405 Q4.7094 709.378 4.7094 713.325 Q4.7094 718.068 7.73311 720.805 Q10.7568 723.542 15.9767 723.542 L36.1242 723.542 L36.1242 729.43 L0.4762 729.43 L0.4762 723.542 L6.01437 723.542 Q2.79968 721.441 1.20826 718.609 Q-0.38317 715.744 -0.38317 712.02 Q-0.38317 705.877 3.43625 702.726 Q7.22385 699.575 14.6081 699.575 Z" fill="#000000" fill-rule="nonzero" fill-opacity="1" /><path clip-path="url(#clip230)" d="M17.8864 664.437 Q11.5207 664.437 8.01956 667.078 Q4.51842 669.688 4.51842 674.431 Q4.51842 679.141 8.01956 681.783 Q11.5207 684.393 17.8864 684.393 Q24.2203 684.393 27.7214 681.783 Q31.2226 679.141 31.2226 674.431 Q31.2226 669.688 27.7214 667.078 Q24.2203 664.437 17.8864 664.437 M31.7 658.58 Q40.803 658.58 45.2271 662.622 Q49.6831 666.665 49.6831 675.004 Q49.6831 678.091 49.2057 680.828 Q48.7601 683.565 47.8052 686.144 L42.1079 686.144 Q43.5084 683.565 44.1768 681.051 Q44.8452 678.537 44.8452 675.927 Q44.8452 670.166 41.8215 667.301 Q38.8296 664.437 32.7503 664.437 L29.8539 664.437 Q33.005 666.251 34.5646 669.083 Q36.1242 671.916 36.1242 675.863 Q36.1242 682.42 31.1271 686.43 Q26.13 690.44 17.8864 690.44 Q9.61099 690.44 4.61391 686.43 Q-0.38317 682.42 -0.38317 675.863 Q-0.38317 671.916 1.17643 669.083 Q2.73603 666.251 5.88705 664.437 L0.4762 664.437 L0.4762 658.58 L31.7 658.58 Z" fill="#000000" fill-rule="nonzero" fill-opacity="1" /><path clip-path="url(#clip230)" d="M1.52654 623.791 L7.06471 623.791 Q5.79157 626.274 5.15499 628.948 Q4.51842 631.621 4.51842 634.486 Q4.51842 638.846 5.85522 641.043 Q7.19202 643.207 9.86562 643.207 Q11.9026 643.207 13.0803 641.647 Q14.2261 640.088 15.2765 635.377 L15.7221 633.372 Q17.0589 627.133 19.5097 624.524 Q21.9286 621.882 26.2891 621.882 Q31.2544 621.882 34.1508 625.829 Q37.0472 629.743 37.0472 636.618 Q37.0472 639.483 36.4743 642.602 Q35.9332 645.69 34.8192 649.127 L28.7718 649.127 Q30.4587 645.88 31.318 642.729 Q32.1456 639.578 32.1456 636.491 Q32.1456 632.353 30.7451 630.125 Q29.3129 627.897 26.7347 627.897 Q24.3476 627.897 23.0745 629.521 Q21.8013 631.112 20.6237 636.555 L20.1462 638.592 Q19.0004 644.034 16.6451 646.453 Q14.258 648.872 10.1202 648.872 Q5.09134 648.872 2.35408 645.308 Q-0.38317 641.743 -0.38317 635.186 Q-0.38317 631.94 0.0942579 629.075 Q0.571686 626.21 1.52654 623.791 Z" fill="#000000" fill-rule="nonzero" fill-opacity="1" /><polyline clip-path="url(#clip232)" style="stroke:#009af9; stroke-linecap:round; stroke-linejoin:round; stroke-width:4; stroke-opacity:1; fill:none" points="264.921,86.7664 325.607,137.422 386.294,189.354 446.98,242.548 507.666,297.1 568.353,353.051 629.039,410.423 689.725,469.318 750.412,529.785 811.098,591.923 871.784,655.74 932.471,721.325 993.157,788.77 1053.84,858.121 1114.53,929.422 1175.22,1002.84 1235.9,1078.44 1296.59,1156.28 1357.27,1236.46 1417.96,1319.06 1478.65,1404.18 "/>
<polyline clip-path="url(#clip232)" style="stroke:#e26f46; stroke-linecap:round; stroke-linejoin:round; stroke-width:4; stroke-opacity:1; fill:none" points="264.921,86.7664 325.607,137.188 386.294,188.87 446.98,241.857 507.666,296.205 568.353,351.972 629.039,409.218 689.725,468.006 750.412,528.4 811.098,590.467 871.784,654.276 932.471,719.899 993.157,787.407 1053.84,856.877 1114.53,928.382 1175.22,1002 1235.9,1077.8 1296.59,1155.85 1357.27,1236.23 1417.96,1318.99 1478.65,1404.18 "/>
<polyline clip-path="url(#clip232)" style="stroke:#3da44d; stroke-linecap:round; stroke-linejoin:round; stroke-width:4; stroke-opacity:1; fill:none" points="264.921,86.7664 325.607,137.394 386.294,189.276 446.98,242.463 507.666,297.003 568.353,352.951 629.039,410.361 689.725,469.291 750.412,529.8 811.098,591.949 871.784,655.803 932.471,721.428 993.157,788.895 1053.84,858.274 1114.53,929.641 1175.22,1003.07 1235.9,1078.65 1296.59,1156.46 1357.27,1236.59 1417.96,1319.13 1478.65,1404.18 "/>
<polyline clip-path="url(#clip232)" style="stroke:#c271d2; stroke-linecap:round; stroke-linejoin:round; stroke-width:4; stroke-opacity:1; fill:none" points="264.921,86.7664 325.607,137.428 386.294,189.33 446.98,242.524 507.666,297.061 568.353,352.996 629.039,410.384 689.725,469.286 750.412,529.763 811.098,591.877 871.784,655.695 932.471,721.285 993.157,788.72 1053.84,858.074 1114.53,929.424 1175.22,1002.85 1235.9,1078.44 1296.59,1156.27 1357.27,1236.44 1417.96,1319.04 1478.65,1404.18 "/>
<path clip-path="url(#clip230)" d="M1274.14 352.993 L1472.17 352.993 L1472.17 93.7926 L1274.14 93.7926  Z" fill="#ffffff" fill-rule="evenodd" fill-opacity="1"/>
<polyline clip-path="url(#clip230)" style="stroke:#000000; stroke-linecap:round; stroke-linejoin:round; stroke-width:4; stroke-opacity:1; fill:none" points="1274.14,352.993 1472.17,352.993 1472.17,93.7926 1274.14,93.7926 1274.14,352.993 "/>
<polyline clip-path="url(#clip230)" style="stroke:#009af9; stroke-linecap:round; stroke-linejoin:round; stroke-width:4; stroke-opacity:1; fill:none" points="1288.44,145.633 1374.21,145.633 "/>
<path clip-path="url(#clip230)" d="M1408.85 141.964 Q1410.45 139.093 1412.67 137.728 Q1414.89 136.362 1417.9 136.362 Q1421.95 136.362 1424.15 139.209 Q1426.35 142.033 1426.35 147.265 L1426.35 162.913 L1422.07 162.913 L1422.07 147.403 Q1422.07 143.677 1420.75 141.871 Q1419.43 140.066 1416.72 140.066 Q1413.41 140.066 1411.49 142.265 Q1409.57 144.464 1409.57 148.26 L1409.57 162.913 L1405.29 162.913 L1405.29 147.403 Q1405.29 143.653 1403.97 141.871 Q1402.65 140.066 1399.89 140.066 Q1396.63 140.066 1394.71 142.288 Q1392.79 144.487 1392.79 148.26 L1392.79 162.913 L1388.5 162.913 L1388.5 136.987 L1392.79 136.987 L1392.79 141.015 Q1394.25 138.63 1396.28 137.496 Q1398.32 136.362 1401.12 136.362 Q1403.94 136.362 1405.91 137.797 Q1407.9 139.232 1408.85 141.964 Z" fill="#000000" fill-rule="nonzero" fill-opacity="1" /><path clip-path="url(#clip230)" d="M1436.26 158.977 L1443.9 158.977 L1443.9 132.612 L1435.59 134.279 L1435.59 130.019 L1443.85 128.353 L1448.53 128.353 L1448.53 158.977 L1456.17 158.977 L1456.17 162.913 L1436.26 162.913 L1436.26 158.977 Z" fill="#000000" fill-rule="nonzero" fill-opacity="1" /><polyline clip-path="url(#clip230)" style="stroke:#e26f46; stroke-linecap:round; stroke-linejoin:round; stroke-width:4; stroke-opacity:1; fill:none" points="1288.44,197.473 1374.21,197.473 "/>
<path clip-path="url(#clip230)" d="M1408.85 193.804 Q1410.45 190.933 1412.67 189.568 Q1414.89 188.202 1417.9 188.202 Q1421.95 188.202 1424.15 191.049 Q1426.35 193.873 1426.35 199.105 L1426.35 214.753 L1422.07 214.753 L1422.07 199.243 Q1422.07 195.517 1420.75 193.711 Q1419.43 191.906 1416.72 191.906 Q1413.41 191.906 1411.49 194.105 Q1409.57 196.304 1409.57 200.1 L1409.57 214.753 L1405.29 214.753 L1405.29 199.243 Q1405.29 195.493 1403.97 193.711 Q1402.65 191.906 1399.89 191.906 Q1396.63 191.906 1394.71 194.128 Q1392.79 196.327 1392.79 200.1 L1392.79 214.753 L1388.5 214.753 L1388.5 188.827 L1392.79 188.827 L1392.79 192.855 Q1394.25 190.47 1396.28 189.336 Q1398.32 188.202 1401.12 188.202 Q1403.94 188.202 1405.91 189.637 Q1407.9 191.072 1408.85 193.804 Z" fill="#000000" fill-rule="nonzero" fill-opacity="1" /><path clip-path="url(#clip230)" d="M1439.48 210.817 L1455.8 210.817 L1455.8 214.753 L1433.85 214.753 L1433.85 210.817 Q1436.51 208.063 1441.1 203.433 Q1445.7 198.78 1446.88 197.438 Q1449.13 194.915 1450.01 193.179 Q1450.91 191.419 1450.91 189.73 Q1450.91 186.975 1448.97 185.239 Q1447.05 183.503 1443.94 183.503 Q1441.75 183.503 1439.29 184.267 Q1436.86 185.031 1434.08 186.581 L1434.08 181.859 Q1436.91 180.725 1439.36 180.146 Q1441.81 179.568 1443.85 179.568 Q1449.22 179.568 1452.42 182.253 Q1455.61 184.938 1455.61 189.429 Q1455.61 191.558 1454.8 193.48 Q1454.01 195.378 1451.91 197.97 Q1451.33 198.642 1448.23 201.859 Q1445.12 205.054 1439.48 210.817 Z" fill="#000000" fill-rule="nonzero" fill-opacity="1" /><polyline clip-path="url(#clip230)" style="stroke:#3da44d; stroke-linecap:round; stroke-linejoin:round; stroke-width:4; stroke-opacity:1; fill:none" points="1288.44,249.313 1374.21,249.313 "/>
<path clip-path="url(#clip230)" d="M1408.85 245.644 Q1410.45 242.773 1412.67 241.408 Q1414.89 240.042 1417.9 240.042 Q1421.95 240.042 1424.15 242.889 Q1426.35 245.713 1426.35 250.945 L1426.35 266.593 L1422.07 266.593 L1422.07 251.083 Q1422.07 247.357 1420.75 245.551 Q1419.43 243.746 1416.72 243.746 Q1413.41 243.746 1411.49 245.945 Q1409.57 248.144 1409.57 251.94 L1409.57 266.593 L1405.29 266.593 L1405.29 251.083 Q1405.29 247.333 1403.97 245.551 Q1402.65 243.746 1399.89 243.746 Q1396.63 243.746 1394.71 245.968 Q1392.79 248.167 1392.79 251.94 L1392.79 266.593 L1388.5 266.593 L1388.5 240.667 L1392.79 240.667 L1392.79 244.695 Q1394.25 242.31 1396.28 241.176 Q1398.32 240.042 1401.12 240.042 Q1403.94 240.042 1405.91 241.477 Q1407.9 242.912 1408.85 245.644 Z" fill="#000000" fill-rule="nonzero" fill-opacity="1" /><path clip-path="url(#clip230)" d="M1449.62 247.958 Q1452.97 248.676 1454.85 250.945 Q1456.75 253.213 1456.75 256.546 Q1456.75 261.662 1453.23 264.463 Q1449.71 267.264 1443.23 267.264 Q1441.05 267.264 1438.74 266.824 Q1436.44 266.407 1433.99 265.551 L1433.99 261.037 Q1435.94 262.171 1438.25 262.75 Q1440.56 263.329 1443.09 263.329 Q1447.49 263.329 1449.78 261.593 Q1452.09 259.857 1452.09 256.546 Q1452.09 253.491 1449.94 251.778 Q1447.81 250.042 1443.99 250.042 L1439.96 250.042 L1439.96 246.199 L1444.18 246.199 Q1447.62 246.199 1449.45 244.833 Q1451.28 243.445 1451.28 240.852 Q1451.28 238.19 1449.38 236.778 Q1447.51 235.343 1443.99 235.343 Q1442.07 235.343 1439.87 235.759 Q1437.67 236.176 1435.03 237.056 L1435.03 232.889 Q1437.69 232.148 1440.01 231.778 Q1442.35 231.408 1444.41 231.408 Q1449.73 231.408 1452.83 233.838 Q1455.93 236.246 1455.93 240.366 Q1455.93 243.236 1454.29 245.227 Q1452.65 247.195 1449.62 247.958 Z" fill="#000000" fill-rule="nonzero" fill-opacity="1" /><polyline clip-path="url(#clip230)" style="stroke:#c271d2; stroke-linecap:round; stroke-linejoin:round; stroke-width:4; stroke-opacity:1; fill:none" points="1288.44,301.153 1374.21,301.153 "/>
<path clip-path="url(#clip230)" d="M1408.85 297.484 Q1410.45 294.613 1412.67 293.248 Q1414.89 291.882 1417.9 291.882 Q1421.95 291.882 1424.15 294.729 Q1426.35 297.553 1426.35 302.785 L1426.35 318.433 L1422.07 318.433 L1422.07 302.923 Q1422.07 299.197 1420.75 297.391 Q1419.43 295.586 1416.72 295.586 Q1413.41 295.586 1411.49 297.785 Q1409.57 299.984 1409.57 303.78 L1409.57 318.433 L1405.29 318.433 L1405.29 302.923 Q1405.29 299.173 1403.97 297.391 Q1402.65 295.586 1399.89 295.586 Q1396.63 295.586 1394.71 297.808 Q1392.79 300.007 1392.79 303.78 L1392.79 318.433 L1388.5 318.433 L1388.5 292.507 L1392.79 292.507 L1392.79 296.535 Q1394.25 294.15 1396.28 293.016 Q1398.32 291.882 1401.12 291.882 Q1403.94 291.882 1405.91 293.317 Q1407.9 294.752 1408.85 297.484 Z" fill="#000000" fill-rule="nonzero" fill-opacity="1" /><path clip-path="url(#clip230)" d="M1448.3 287.947 L1436.49 306.396 L1448.3 306.396 L1448.3 287.947 M1447.07 283.873 L1452.95 283.873 L1452.95 306.396 L1457.88 306.396 L1457.88 310.285 L1452.95 310.285 L1452.95 318.433 L1448.3 318.433 L1448.3 310.285 L1432.69 310.285 L1432.69 305.771 L1447.07 283.873 Z" fill="#000000" fill-rule="nonzero" fill-opacity="1" /><path clip-path="url(#clip230)" d="M1866.21 1443.7 L3152.76 1443.7 L3152.76 47.2441 L1866.21 47.2441  Z" fill="#ffffff" fill-rule="evenodd" fill-opacity="1"/>
<defs>
  <clipPath id="clip233">
    <rect x="1866" y="47" width="1288" height="1397"/>
  </clipPath>
</defs>
<polyline clip-path="url(#clip233)" style="stroke:#000000; stroke-linecap:round; stroke-linejoin:round; stroke-width:2; stroke-opacity:0.1; fill:none" points="2158.14,1443.7 2158.14,47.2441 "/>
<polyline clip-path="url(#clip233)" style="stroke:#000000; stroke-linecap:round; stroke-linejoin:round; stroke-width:2; stroke-opacity:0.1; fill:none" points="2477.54,1443.7 2477.54,47.2441 "/>
<polyline clip-path="url(#clip233)" style="stroke:#000000; stroke-linecap:round; stroke-linejoin:round; stroke-width:2; stroke-opacity:0.1; fill:none" points="2796.94,1443.7 2796.94,47.2441 "/>
<polyline clip-path="url(#clip233)" style="stroke:#000000; stroke-linecap:round; stroke-linejoin:round; stroke-width:2; stroke-opacity:0.1; fill:none" points="3116.34,1443.7 3116.34,47.2441 "/>
<polyline clip-path="url(#clip230)" style="stroke:#000000; stroke-linecap:round; stroke-linejoin:round; stroke-width:4; stroke-opacity:1; fill:none" points="1866.21,1443.7 3152.76,1443.7 "/>
<polyline clip-path="url(#clip230)" style="stroke:#000000; stroke-linecap:round; stroke-linejoin:round; stroke-width:4; stroke-opacity:1; fill:none" points="2158.14,1443.7 2158.14,1424.8 "/>
<polyline clip-path="url(#clip230)" style="stroke:#000000; stroke-linecap:round; stroke-linejoin:round; stroke-width:4; stroke-opacity:1; fill:none" points="2477.54,1443.7 2477.54,1424.8 "/>
<polyline clip-path="url(#clip230)" style="stroke:#000000; stroke-linecap:round; stroke-linejoin:round; stroke-width:4; stroke-opacity:1; fill:none" points="2796.94,1443.7 2796.94,1424.8 "/>
<polyline clip-path="url(#clip230)" style="stroke:#000000; stroke-linecap:round; stroke-linejoin:round; stroke-width:4; stroke-opacity:1; fill:none" points="3116.34,1443.7 3116.34,1424.8 "/>
<path clip-path="url(#clip230)" d="M2148.42 1477.94 L2166.77 1477.94 L2166.77 1481.88 L2152.7 1481.88 L2152.7 1490.35 Q2153.72 1490 2154.74 1489.84 Q2155.75 1489.65 2156.77 1489.65 Q2162.56 1489.65 2165.94 1492.82 Q2169.32 1496 2169.32 1501.41 Q2169.32 1506.99 2165.85 1510.09 Q2162.38 1513.17 2156.06 1513.17 Q2153.88 1513.17 2151.61 1512.8 Q2149.37 1512.43 2146.96 1511.69 L2146.96 1506.99 Q2149.04 1508.12 2151.26 1508.68 Q2153.49 1509.24 2155.96 1509.24 Q2159.97 1509.24 2162.31 1507.13 Q2164.64 1505.02 2164.64 1501.41 Q2164.64 1497.8 2162.31 1495.69 Q2159.97 1493.59 2155.96 1493.59 Q2154.09 1493.59 2152.21 1494 Q2150.36 1494.42 2148.42 1495.3 L2148.42 1477.94 Z" fill="#000000" fill-rule="nonzero" fill-opacity="1" /><path clip-path="url(#clip230)" d="M2452.23 1508.56 L2459.87 1508.56 L2459.87 1482.2 L2451.56 1483.87 L2451.56 1479.61 L2459.82 1477.94 L2464.5 1477.94 L2464.5 1508.56 L2472.14 1508.56 L2472.14 1512.5 L2452.23 1512.5 L2452.23 1508.56 Z" fill="#000000" fill-rule="nonzero" fill-opacity="1" /><path clip-path="url(#clip230)" d="M2491.58 1481.02 Q2487.97 1481.02 2486.14 1484.58 Q2484.33 1488.12 2484.33 1495.25 Q2484.33 1502.36 2486.14 1505.93 Q2487.97 1509.47 2491.58 1509.47 Q2495.21 1509.47 2497.02 1505.93 Q2498.85 1502.36 2498.85 1495.25 Q2498.85 1488.12 2497.02 1484.58 Q2495.21 1481.02 2491.58 1481.02 M2491.58 1477.31 Q2497.39 1477.31 2500.45 1481.92 Q2503.52 1486.5 2503.52 1495.25 Q2503.52 1503.98 2500.45 1508.59 Q2497.39 1513.17 2491.58 1513.17 Q2485.77 1513.17 2482.69 1508.59 Q2479.64 1503.98 2479.64 1495.25 Q2479.64 1486.5 2482.69 1481.92 Q2485.77 1477.31 2491.58 1477.31 Z" fill="#000000" fill-rule="nonzero" fill-opacity="1" /><path clip-path="url(#clip230)" d="M2772.13 1508.56 L2779.77 1508.56 L2779.77 1482.2 L2771.46 1483.87 L2771.46 1479.61 L2779.72 1477.94 L2784.4 1477.94 L2784.4 1508.56 L2792.04 1508.56 L2792.04 1512.5 L2772.13 1512.5 L2772.13 1508.56 Z" fill="#000000" fill-rule="nonzero" fill-opacity="1" /><path clip-path="url(#clip230)" d="M2801.53 1477.94 L2819.88 1477.94 L2819.88 1481.88 L2805.81 1481.88 L2805.81 1490.35 Q2806.83 1490 2807.85 1489.84 Q2808.86 1489.65 2809.88 1489.65 Q2815.67 1489.65 2819.05 1492.82 Q2822.43 1496 2822.43 1501.41 Q2822.43 1506.99 2818.96 1510.09 Q2815.48 1513.17 2809.16 1513.17 Q2806.99 1513.17 2804.72 1512.8 Q2802.47 1512.43 2800.07 1511.69 L2800.07 1506.99 Q2802.15 1508.12 2804.37 1508.68 Q2806.6 1509.24 2809.07 1509.24 Q2813.08 1509.24 2815.41 1507.13 Q2817.75 1505.02 2817.75 1501.41 Q2817.75 1497.8 2815.41 1495.69 Q2813.08 1493.59 2809.07 1493.59 Q2807.2 1493.59 2805.32 1494 Q2803.47 1494.42 2801.53 1495.3 L2801.53 1477.94 Z" fill="#000000" fill-rule="nonzero" fill-opacity="1" /><path clip-path="url(#clip230)" d="M3095.12 1508.56 L3111.44 1508.56 L3111.44 1512.5 L3089.49 1512.5 L3089.49 1508.56 Q3092.15 1505.81 3096.74 1501.18 Q3101.34 1496.53 3102.52 1495.19 Q3104.77 1492.66 3105.65 1490.93 Q3106.55 1489.17 3106.55 1487.48 Q3106.55 1484.72 3104.61 1482.99 Q3102.69 1481.25 3099.58 1481.25 Q3097.39 1481.25 3094.93 1482.01 Q3092.5 1482.78 3089.72 1484.33 L3089.72 1479.61 Q3092.55 1478.47 3095 1477.89 Q3097.46 1477.31 3099.49 1477.31 Q3104.86 1477.31 3108.06 1480 Q3111.25 1482.69 3111.25 1487.18 Q3111.25 1489.31 3110.44 1491.23 Q3109.65 1493.12 3107.55 1495.72 Q3106.97 1496.39 3103.87 1499.61 Q3100.77 1502.8 3095.12 1508.56 Z" fill="#000000" fill-rule="nonzero" fill-opacity="1" /><path clip-path="url(#clip230)" d="M3131.25 1481.02 Q3127.64 1481.02 3125.81 1484.58 Q3124.01 1488.12 3124.01 1495.25 Q3124.01 1502.36 3125.81 1505.93 Q3127.64 1509.47 3131.25 1509.47 Q3134.89 1509.47 3136.69 1505.93 Q3138.52 1502.36 3138.52 1495.25 Q3138.52 1488.12 3136.69 1484.58 Q3134.89 1481.02 3131.25 1481.02 M3131.25 1477.31 Q3137.06 1477.31 3140.12 1481.92 Q3143.2 1486.5 3143.2 1495.25 Q3143.2 1503.98 3140.12 1508.59 Q3137.06 1513.17 3131.25 1513.17 Q3125.44 1513.17 3122.36 1508.59 Q3119.31 1503.98 3119.31 1495.25 Q3119.31 1486.5 3122.36 1481.92 Q3125.44 1477.31 3131.25 1477.31 Z" fill="#000000" fill-rule="nonzero" fill-opacity="1" /><path clip-path="url(#clip230)" d="M2448.64 1554.79 L2448.64 1564.92 L2460.7 1564.92 L2460.7 1569.47 L2448.64 1569.47 L2448.64 1588.82 Q2448.64 1593.18 2449.82 1594.42 Q2451.03 1595.66 2454.69 1595.66 L2460.7 1595.66 L2460.7 1600.56 L2454.69 1600.56 Q2447.91 1600.56 2445.33 1598.05 Q2442.75 1595.5 2442.75 1588.82 L2442.75 1569.47 L2438.46 1569.47 L2438.46 1564.92 L2442.75 1564.92 L2442.75 1554.79 L2448.64 1554.79 Z" fill="#000000" fill-rule="nonzero" fill-opacity="1" /><path clip-path="url(#clip230)" d="M2468.41 1564.92 L2474.26 1564.92 L2474.26 1600.56 L2468.41 1600.56 L2468.41 1564.92 M2468.41 1551.04 L2474.26 1551.04 L2474.26 1558.45 L2468.41 1558.45 L2468.41 1551.04 Z" fill="#000000" fill-rule="nonzero" fill-opacity="1" /><path clip-path="url(#clip230)" d="M2514.27 1571.76 Q2516.47 1567.81 2519.52 1565.93 Q2522.58 1564.06 2526.72 1564.06 Q2532.29 1564.06 2535.31 1567.97 Q2538.33 1571.85 2538.33 1579.05 L2538.33 1600.56 L2532.45 1600.56 L2532.45 1579.24 Q2532.45 1574.11 2530.63 1571.63 Q2528.82 1569.15 2525.09 1569.15 Q2520.54 1569.15 2517.9 1572.17 Q2515.26 1575.2 2515.26 1580.42 L2515.26 1600.56 L2509.37 1600.56 L2509.37 1579.24 Q2509.37 1574.08 2507.56 1571.63 Q2505.74 1569.15 2501.95 1569.15 Q2497.47 1569.15 2494.82 1572.2 Q2492.18 1575.23 2492.18 1580.42 L2492.18 1600.56 L2486.29 1600.56 L2486.29 1564.92 L2492.18 1564.92 L2492.18 1570.45 Q2494.19 1567.18 2496.99 1565.62 Q2499.79 1564.06 2503.64 1564.06 Q2507.52 1564.06 2510.23 1566.03 Q2512.97 1568 2514.27 1571.76 Z" fill="#000000" fill-rule="nonzero" fill-opacity="1" /><path clip-path="url(#clip230)" d="M2580.51 1581.28 L2580.51 1584.14 L2553.58 1584.14 Q2553.96 1590.19 2557.21 1593.37 Q2560.49 1596.52 2566.31 1596.52 Q2569.68 1596.52 2572.84 1595.69 Q2576.02 1594.87 2579.14 1593.21 L2579.14 1598.75 Q2575.99 1600.09 2572.68 1600.79 Q2569.37 1601.49 2565.96 1601.49 Q2557.43 1601.49 2552.43 1596.52 Q2547.47 1591.56 2547.47 1583.09 Q2547.47 1574.34 2552.18 1569.21 Q2556.92 1564.06 2564.94 1564.06 Q2572.14 1564.06 2576.3 1568.7 Q2580.51 1573.32 2580.51 1581.28 M2574.65 1579.56 Q2574.59 1574.75 2571.94 1571.89 Q2569.33 1569.02 2565.01 1569.02 Q2560.1 1569.02 2557.14 1571.79 Q2554.22 1574.56 2553.77 1579.59 L2574.65 1579.56 Z" fill="#000000" fill-rule="nonzero" fill-opacity="1" /><polyline clip-path="url(#clip233)" style="stroke:#000000; stroke-linecap:round; stroke-linejoin:round; stroke-width:2; stroke-opacity:0.1; fill:none" points="1866.21,1264.8 3152.76,1264.8 "/>
<polyline clip-path="url(#clip233)" style="stroke:#000000; stroke-linecap:round; stroke-linejoin:round; stroke-width:2; stroke-opacity:0.1; fill:none" points="1866.21,1070.83 3152.76,1070.83 "/>
<polyline clip-path="url(#clip233)" style="stroke:#000000; stroke-linecap:round; stroke-linejoin:round; stroke-width:2; stroke-opacity:0.1; fill:none" points="1866.21,876.859 3152.76,876.859 "/>
<polyline clip-path="url(#clip233)" style="stroke:#000000; stroke-linecap:round; stroke-linejoin:round; stroke-width:2; stroke-opacity:0.1; fill:none" points="1866.21,682.888 3152.76,682.888 "/>
<polyline clip-path="url(#clip233)" style="stroke:#000000; stroke-linecap:round; stroke-linejoin:round; stroke-width:2; stroke-opacity:0.1; fill:none" points="1866.21,488.916 3152.76,488.916 "/>
<polyline clip-path="url(#clip233)" style="stroke:#000000; stroke-linecap:round; stroke-linejoin:round; stroke-width:2; stroke-opacity:0.1; fill:none" points="1866.21,294.945 3152.76,294.945 "/>
<polyline clip-path="url(#clip233)" style="stroke:#000000; stroke-linecap:round; stroke-linejoin:round; stroke-width:2; stroke-opacity:0.1; fill:none" points="1866.21,100.974 3152.76,100.974 "/>
<polyline clip-path="url(#clip230)" style="stroke:#000000; stroke-linecap:round; stroke-linejoin:round; stroke-width:4; stroke-opacity:1; fill:none" points="1866.21,1443.7 1866.21,47.2441 "/>
<polyline clip-path="url(#clip230)" style="stroke:#000000; stroke-linecap:round; stroke-linejoin:round; stroke-width:4; stroke-opacity:1; fill:none" points="1866.21,1264.8 1885.1,1264.8 "/>
<polyline clip-path="url(#clip230)" style="stroke:#000000; stroke-linecap:round; stroke-linejoin:round; stroke-width:4; stroke-opacity:1; fill:none" points="1866.21,1070.83 1885.1,1070.83 "/>
<polyline clip-path="url(#clip230)" style="stroke:#000000; stroke-linecap:round; stroke-linejoin:round; stroke-width:4; stroke-opacity:1; fill:none" points="1866.21,876.859 1885.1,876.859 "/>
<polyline clip-path="url(#clip230)" style="stroke:#000000; stroke-linecap:round; stroke-linejoin:round; stroke-width:4; stroke-opacity:1; fill:none" points="1866.21,682.888 1885.1,682.888 "/>
<polyline clip-path="url(#clip230)" style="stroke:#000000; stroke-linecap:round; stroke-linejoin:round; stroke-width:4; stroke-opacity:1; fill:none" points="1866.21,488.916 1885.1,488.916 "/>
<polyline clip-path="url(#clip230)" style="stroke:#000000; stroke-linecap:round; stroke-linejoin:round; stroke-width:4; stroke-opacity:1; fill:none" points="1866.21,294.945 1885.1,294.945 "/>
<polyline clip-path="url(#clip230)" style="stroke:#000000; stroke-linecap:round; stroke-linejoin:round; stroke-width:4; stroke-opacity:1; fill:none" points="1866.21,100.974 1885.1,100.974 "/>
<path clip-path="url(#clip230)" d="M1662.35 1278.15 L1669.99 1278.15 L1669.99 1251.78 L1661.68 1253.45 L1661.68 1249.19 L1669.94 1247.52 L1674.62 1247.52 L1674.62 1278.15 L1682.26 1278.15 L1682.26 1282.08 L1662.35 1282.08 L1662.35 1278.15 Z" fill="#000000" fill-rule="nonzero" fill-opacity="1" /><path clip-path="url(#clip230)" d="M1692.51 1278.15 L1700.15 1278.15 L1700.15 1251.78 L1691.84 1253.45 L1691.84 1249.19 L1700.1 1247.52 L1704.78 1247.52 L1704.78 1278.15 L1712.42 1278.15 L1712.42 1282.08 L1692.51 1282.08 L1692.51 1278.15 Z" fill="#000000" fill-rule="nonzero" fill-opacity="1" /><path clip-path="url(#clip230)" d="M1731.86 1250.6 Q1728.25 1250.6 1726.42 1254.16 Q1724.62 1257.71 1724.62 1264.84 Q1724.62 1271.94 1726.42 1275.51 Q1728.25 1279.05 1731.86 1279.05 Q1735.5 1279.05 1737.3 1275.51 Q1739.13 1271.94 1739.13 1264.84 Q1739.13 1257.71 1737.3 1254.16 Q1735.5 1250.6 1731.86 1250.6 M1731.86 1246.9 Q1737.67 1246.9 1740.73 1251.5 Q1743.81 1256.09 1743.81 1264.84 Q1743.81 1273.56 1740.73 1278.17 Q1737.67 1282.75 1731.86 1282.75 Q1726.05 1282.75 1722.97 1278.17 Q1719.92 1273.56 1719.92 1264.84 Q1719.92 1256.09 1722.97 1251.5 Q1726.05 1246.9 1731.86 1246.9 Z" fill="#000000" fill-rule="nonzero" fill-opacity="1" /><path clip-path="url(#clip230)" d="M1752.03 1276.2 L1756.91 1276.2 L1756.91 1282.08 L1752.03 1282.08 L1752.03 1276.2 Z" fill="#000000" fill-rule="nonzero" fill-opacity="1" /><path clip-path="url(#clip230)" d="M1771.12 1278.15 L1787.44 1278.15 L1787.44 1282.08 L1765.5 1282.08 L1765.5 1278.15 Q1768.16 1275.39 1772.74 1270.76 Q1777.35 1266.11 1778.53 1264.77 Q1780.78 1262.24 1781.66 1260.51 Q1782.56 1258.75 1782.56 1257.06 Q1782.56 1254.3 1780.61 1252.57 Q1778.69 1250.83 1775.59 1250.83 Q1773.39 1250.83 1770.94 1251.6 Q1768.51 1252.36 1765.73 1253.91 L1765.73 1249.19 Q1768.55 1248.05 1771.01 1247.47 Q1773.46 1246.9 1775.5 1246.9 Q1780.87 1246.9 1784.06 1249.58 Q1787.26 1252.27 1787.26 1256.76 Q1787.26 1258.89 1786.45 1260.81 Q1785.66 1262.71 1783.55 1265.3 Q1782.97 1265.97 1779.87 1269.19 Q1776.77 1272.38 1771.12 1278.15 Z" fill="#000000" fill-rule="nonzero" fill-opacity="1" /><path clip-path="url(#clip230)" d="M1797.3 1247.52 L1815.66 1247.52 L1815.66 1251.46 L1801.59 1251.46 L1801.59 1259.93 Q1802.6 1259.58 1803.62 1259.42 Q1804.64 1259.23 1805.66 1259.23 Q1811.45 1259.23 1814.83 1262.41 Q1818.21 1265.58 1818.21 1270.99 Q1818.21 1276.57 1814.73 1279.67 Q1811.26 1282.75 1804.94 1282.75 Q1802.77 1282.75 1800.5 1282.38 Q1798.25 1282.01 1795.84 1281.27 L1795.84 1276.57 Q1797.93 1277.71 1800.15 1278.26 Q1802.37 1278.82 1804.85 1278.82 Q1808.85 1278.82 1811.19 1276.71 Q1813.53 1274.6 1813.53 1270.99 Q1813.53 1267.38 1811.19 1265.28 Q1808.85 1263.17 1804.85 1263.17 Q1802.97 1263.17 1801.1 1263.59 Q1799.25 1264 1797.3 1264.88 L1797.3 1247.52 Z" fill="#000000" fill-rule="nonzero" fill-opacity="1" /><path clip-path="url(#clip230)" d="M1661.35 1084.17 L1668.99 1084.17 L1668.99 1057.81 L1660.68 1059.48 L1660.68 1055.22 L1668.95 1053.55 L1673.62 1053.55 L1673.62 1084.17 L1681.26 1084.17 L1681.26 1088.11 L1661.35 1088.11 L1661.35 1084.17 Z" fill="#000000" fill-rule="nonzero" fill-opacity="1" /><path clip-path="url(#clip230)" d="M1691.52 1084.17 L1699.16 1084.17 L1699.16 1057.81 L1690.85 1059.48 L1690.85 1055.22 L1699.11 1053.55 L1703.79 1053.55 L1703.79 1084.17 L1711.42 1084.17 L1711.42 1088.11 L1691.52 1088.11 L1691.52 1084.17 Z" fill="#000000" fill-rule="nonzero" fill-opacity="1" /><path clip-path="url(#clip230)" d="M1730.87 1056.63 Q1727.26 1056.63 1725.43 1060.19 Q1723.62 1063.74 1723.62 1070.86 Q1723.62 1077.97 1725.43 1081.54 Q1727.26 1085.08 1730.87 1085.08 Q1734.5 1085.08 1736.31 1081.54 Q1738.14 1077.97 1738.14 1070.86 Q1738.14 1063.74 1736.31 1060.19 Q1734.5 1056.63 1730.87 1056.63 M1730.87 1052.92 Q1736.68 1052.92 1739.73 1057.53 Q1742.81 1062.11 1742.81 1070.86 Q1742.81 1079.59 1739.73 1084.2 Q1736.68 1088.78 1730.87 1088.78 Q1725.06 1088.78 1721.98 1084.2 Q1718.92 1079.59 1718.92 1070.86 Q1718.92 1062.11 1721.98 1057.53 Q1725.06 1052.92 1730.87 1052.92 Z" fill="#000000" fill-rule="nonzero" fill-opacity="1" /><path clip-path="url(#clip230)" d="M1751.03 1082.23 L1755.91 1082.23 L1755.91 1088.11 L1751.03 1088.11 L1751.03 1082.23 Z" fill="#000000" fill-rule="nonzero" fill-opacity="1" /><path clip-path="url(#clip230)" d="M1766.15 1053.55 L1784.5 1053.55 L1784.5 1057.49 L1770.43 1057.49 L1770.43 1065.96 Q1771.45 1065.61 1772.47 1065.45 Q1773.48 1065.26 1774.5 1065.26 Q1780.29 1065.26 1783.67 1068.43 Q1787.05 1071.61 1787.05 1077.02 Q1787.05 1082.6 1783.58 1085.7 Q1780.1 1088.78 1773.78 1088.78 Q1771.61 1088.78 1769.34 1088.41 Q1767.1 1088.04 1764.69 1087.3 L1764.69 1082.6 Q1766.77 1083.74 1768.99 1084.29 Q1771.22 1084.85 1773.69 1084.85 Q1777.7 1084.85 1780.03 1082.74 Q1782.37 1080.63 1782.37 1077.02 Q1782.37 1073.41 1780.03 1071.3 Q1777.7 1069.2 1773.69 1069.2 Q1771.82 1069.2 1769.94 1069.61 Q1768.09 1070.03 1766.15 1070.91 L1766.15 1053.55 Z" fill="#000000" fill-rule="nonzero" fill-opacity="1" /><path clip-path="url(#clip230)" d="M1806.26 1056.63 Q1802.65 1056.63 1800.82 1060.19 Q1799.02 1063.74 1799.02 1070.86 Q1799.02 1077.97 1800.82 1081.54 Q1802.65 1085.08 1806.26 1085.08 Q1809.9 1085.08 1811.7 1081.54 Q1813.53 1077.97 1813.53 1070.86 Q1813.53 1063.74 1811.7 1060.19 Q1809.9 1056.63 1806.26 1056.63 M1806.26 1052.92 Q1812.07 1052.92 1815.13 1057.53 Q1818.21 1062.11 1818.21 1070.86 Q1818.21 1079.59 1815.13 1084.2 Q1812.07 1088.78 1806.26 1088.78 Q1800.45 1088.78 1797.37 1084.2 Q1794.32 1079.59 1794.32 1070.86 Q1794.32 1062.11 1797.37 1057.53 Q1800.45 1052.92 1806.26 1052.92 Z" fill="#000000" fill-rule="nonzero" fill-opacity="1" /><path clip-path="url(#clip230)" d="M1662.35 890.204 L1669.99 890.204 L1669.99 863.838 L1661.68 865.505 L1661.68 861.245 L1669.94 859.579 L1674.62 859.579 L1674.62 890.204 L1682.26 890.204 L1682.26 894.139 L1662.35 894.139 L1662.35 890.204 Z" fill="#000000" fill-rule="nonzero" fill-opacity="1" /><path clip-path="url(#clip230)" d="M1692.51 890.204 L1700.15 890.204 L1700.15 863.838 L1691.84 865.505 L1691.84 861.245 L1700.1 859.579 L1704.78 859.579 L1704.78 890.204 L1712.42 890.204 L1712.42 894.139 L1692.51 894.139 L1692.51 890.204 Z" fill="#000000" fill-rule="nonzero" fill-opacity="1" /><path clip-path="url(#clip230)" d="M1731.86 862.657 Q1728.25 862.657 1726.42 866.222 Q1724.62 869.764 1724.62 876.893 Q1724.62 884 1726.42 887.565 Q1728.25 891.106 1731.86 891.106 Q1735.5 891.106 1737.3 887.565 Q1739.13 884 1739.13 876.893 Q1739.13 869.764 1737.3 866.222 Q1735.5 862.657 1731.86 862.657 M1731.86 858.954 Q1737.67 858.954 1740.73 863.56 Q1743.81 868.144 1743.81 876.893 Q1743.81 885.62 1740.73 890.227 Q1737.67 894.81 1731.86 894.81 Q1726.05 894.81 1722.97 890.227 Q1719.92 885.62 1719.92 876.893 Q1719.92 868.144 1722.97 863.56 Q1726.05 858.954 1731.86 858.954 Z" fill="#000000" fill-rule="nonzero" fill-opacity="1" /><path clip-path="url(#clip230)" d="M1752.03 888.259 L1756.91 888.259 L1756.91 894.139 L1752.03 894.139 L1752.03 888.259 Z" fill="#000000" fill-rule="nonzero" fill-opacity="1" /><path clip-path="url(#clip230)" d="M1765.91 859.579 L1788.14 859.579 L1788.14 861.569 L1775.59 894.139 L1770.71 894.139 L1782.51 863.514 L1765.91 863.514 L1765.91 859.579 Z" fill="#000000" fill-rule="nonzero" fill-opacity="1" /><path clip-path="url(#clip230)" d="M1797.3 859.579 L1815.66 859.579 L1815.66 863.514 L1801.59 863.514 L1801.59 871.986 Q1802.6 871.639 1803.62 871.477 Q1804.64 871.292 1805.66 871.292 Q1811.45 871.292 1814.83 874.463 Q1818.21 877.634 1818.21 883.051 Q1818.21 888.63 1814.73 891.731 Q1811.26 894.81 1804.94 894.81 Q1802.77 894.81 1800.5 894.44 Q1798.25 894.069 1795.84 893.329 L1795.84 888.63 Q1797.93 889.764 1800.15 890.319 Q1802.37 890.875 1804.85 890.875 Q1808.85 890.875 1811.19 888.768 Q1813.53 886.662 1813.53 883.051 Q1813.53 879.44 1811.19 877.333 Q1808.85 875.227 1804.85 875.227 Q1802.97 875.227 1801.1 875.643 Q1799.25 876.06 1797.3 876.94 L1797.3 859.579 Z" fill="#000000" fill-rule="nonzero" fill-opacity="1" /><path clip-path="url(#clip230)" d="M1661.35 696.232 L1668.99 696.232 L1668.99 669.867 L1660.68 671.533 L1660.68 667.274 L1668.95 665.608 L1673.62 665.608 L1673.62 696.232 L1681.26 696.232 L1681.26 700.168 L1661.35 700.168 L1661.35 696.232 Z" fill="#000000" fill-rule="nonzero" fill-opacity="1" /><path clip-path="url(#clip230)" d="M1691.52 696.232 L1699.16 696.232 L1699.16 669.867 L1690.85 671.533 L1690.85 667.274 L1699.11 665.608 L1703.79 665.608 L1703.79 696.232 L1711.42 696.232 L1711.42 700.168 L1691.52 700.168 L1691.52 696.232 Z" fill="#000000" fill-rule="nonzero" fill-opacity="1" /><path clip-path="url(#clip230)" d="M1721.68 696.232 L1729.32 696.232 L1729.32 669.867 L1721.01 671.533 L1721.01 667.274 L1729.27 665.608 L1733.95 665.608 L1733.95 696.232 L1741.59 696.232 L1741.59 700.168 L1721.68 700.168 L1721.68 696.232 Z" fill="#000000" fill-rule="nonzero" fill-opacity="1" /><path clip-path="url(#clip230)" d="M1751.03 694.288 L1755.91 694.288 L1755.91 700.168 L1751.03 700.168 L1751.03 694.288 Z" fill="#000000" fill-rule="nonzero" fill-opacity="1" /><path clip-path="url(#clip230)" d="M1776.1 668.686 Q1772.49 668.686 1770.66 672.251 Q1768.85 675.793 1768.85 682.922 Q1768.85 690.029 1770.66 693.593 Q1772.49 697.135 1776.1 697.135 Q1779.73 697.135 1781.54 693.593 Q1783.37 690.029 1783.37 682.922 Q1783.37 675.793 1781.54 672.251 Q1779.73 668.686 1776.1 668.686 M1776.1 664.983 Q1781.91 664.983 1784.97 669.589 Q1788.04 674.172 1788.04 682.922 Q1788.04 691.649 1784.97 696.256 Q1781.91 700.839 1776.1 700.839 Q1770.29 700.839 1767.21 696.256 Q1764.16 691.649 1764.16 682.922 Q1764.16 674.172 1767.21 669.589 Q1770.29 664.983 1776.1 664.983 Z" fill="#000000" fill-rule="nonzero" fill-opacity="1" /><path clip-path="url(#clip230)" d="M1806.26 668.686 Q1802.65 668.686 1800.82 672.251 Q1799.02 675.793 1799.02 682.922 Q1799.02 690.029 1800.82 693.593 Q1802.65 697.135 1806.26 697.135 Q1809.9 697.135 1811.7 693.593 Q1813.53 690.029 1813.53 682.922 Q1813.53 675.793 1811.7 672.251 Q1809.9 668.686 1806.26 668.686 M1806.26 664.983 Q1812.07 664.983 1815.13 669.589 Q1818.21 674.172 1818.21 682.922 Q1818.21 691.649 1815.13 696.256 Q1812.07 700.839 1806.26 700.839 Q1800.45 700.839 1797.37 696.256 Q1794.32 691.649 1794.32 682.922 Q1794.32 674.172 1797.37 669.589 Q1800.45 664.983 1806.26 664.983 Z" fill="#000000" fill-rule="nonzero" fill-opacity="1" /><path clip-path="url(#clip230)" d="M1662.35 502.261 L1669.99 502.261 L1669.99 475.896 L1661.68 477.562 L1661.68 473.303 L1669.94 471.636 L1674.62 471.636 L1674.62 502.261 L1682.26 502.261 L1682.26 506.196 L1662.35 506.196 L1662.35 502.261 Z" fill="#000000" fill-rule="nonzero" fill-opacity="1" /><path clip-path="url(#clip230)" d="M1692.51 502.261 L1700.15 502.261 L1700.15 475.896 L1691.84 477.562 L1691.84 473.303 L1700.1 471.636 L1704.78 471.636 L1704.78 502.261 L1712.42 502.261 L1712.42 506.196 L1692.51 506.196 L1692.51 502.261 Z" fill="#000000" fill-rule="nonzero" fill-opacity="1" /><path clip-path="url(#clip230)" d="M1722.67 502.261 L1730.31 502.261 L1730.31 475.896 L1722 477.562 L1722 473.303 L1730.27 471.636 L1734.94 471.636 L1734.94 502.261 L1742.58 502.261 L1742.58 506.196 L1722.67 506.196 L1722.67 502.261 Z" fill="#000000" fill-rule="nonzero" fill-opacity="1" /><path clip-path="url(#clip230)" d="M1752.03 500.317 L1756.91 500.317 L1756.91 506.196 L1752.03 506.196 L1752.03 500.317 Z" fill="#000000" fill-rule="nonzero" fill-opacity="1" /><path clip-path="url(#clip230)" d="M1771.12 502.261 L1787.44 502.261 L1787.44 506.196 L1765.5 506.196 L1765.5 502.261 Q1768.16 499.507 1772.74 494.877 Q1777.35 490.224 1778.53 488.882 Q1780.78 486.358 1781.66 484.622 Q1782.56 482.863 1782.56 481.173 Q1782.56 478.419 1780.61 476.683 Q1778.69 474.946 1775.59 474.946 Q1773.39 474.946 1770.94 475.71 Q1768.51 476.474 1765.73 478.025 L1765.73 473.303 Q1768.55 472.169 1771.01 471.59 Q1773.46 471.011 1775.5 471.011 Q1780.87 471.011 1784.06 473.696 Q1787.26 476.382 1787.26 480.872 Q1787.26 483.002 1786.45 484.923 Q1785.66 486.821 1783.55 489.414 Q1782.97 490.085 1779.87 493.303 Q1776.77 496.497 1771.12 502.261 Z" fill="#000000" fill-rule="nonzero" fill-opacity="1" /><path clip-path="url(#clip230)" d="M1797.3 471.636 L1815.66 471.636 L1815.66 475.571 L1801.59 475.571 L1801.59 484.044 Q1802.6 483.696 1803.62 483.534 Q1804.64 483.349 1805.66 483.349 Q1811.45 483.349 1814.83 486.52 Q1818.21 489.692 1818.21 495.108 Q1818.21 500.687 1814.73 503.789 Q1811.26 506.868 1804.94 506.868 Q1802.77 506.868 1800.5 506.497 Q1798.25 506.127 1795.84 505.386 L1795.84 500.687 Q1797.93 501.821 1800.15 502.377 Q1802.37 502.932 1804.85 502.932 Q1808.85 502.932 1811.19 500.826 Q1813.53 498.719 1813.53 495.108 Q1813.53 491.497 1811.19 489.391 Q1808.85 487.284 1804.85 487.284 Q1802.97 487.284 1801.1 487.701 Q1799.25 488.118 1797.3 488.997 L1797.3 471.636 Z" fill="#000000" fill-rule="nonzero" fill-opacity="1" /><path clip-path="url(#clip230)" d="M1661.35 308.29 L1668.99 308.29 L1668.99 281.924 L1660.68 283.591 L1660.68 279.332 L1668.95 277.665 L1673.62 277.665 L1673.62 308.29 L1681.26 308.29 L1681.26 312.225 L1661.35 312.225 L1661.35 308.29 Z" fill="#000000" fill-rule="nonzero" fill-opacity="1" /><path clip-path="url(#clip230)" d="M1691.52 308.29 L1699.16 308.29 L1699.16 281.924 L1690.85 283.591 L1690.85 279.332 L1699.11 277.665 L1703.79 277.665 L1703.79 308.29 L1711.42 308.29 L1711.42 312.225 L1691.52 312.225 L1691.52 308.29 Z" fill="#000000" fill-rule="nonzero" fill-opacity="1" /><path clip-path="url(#clip230)" d="M1721.68 308.29 L1729.32 308.29 L1729.32 281.924 L1721.01 283.591 L1721.01 279.332 L1729.27 277.665 L1733.95 277.665 L1733.95 308.29 L1741.59 308.29 L1741.59 312.225 L1721.68 312.225 L1721.68 308.29 Z" fill="#000000" fill-rule="nonzero" fill-opacity="1" /><path clip-path="url(#clip230)" d="M1751.03 306.345 L1755.91 306.345 L1755.91 312.225 L1751.03 312.225 L1751.03 306.345 Z" fill="#000000" fill-rule="nonzero" fill-opacity="1" /><path clip-path="url(#clip230)" d="M1766.15 277.665 L1784.5 277.665 L1784.5 281.6 L1770.43 281.6 L1770.43 290.072 Q1771.45 289.725 1772.47 289.563 Q1773.48 289.378 1774.5 289.378 Q1780.29 289.378 1783.67 292.549 Q1787.05 295.721 1787.05 301.137 Q1787.05 306.716 1783.58 309.818 Q1780.1 312.896 1773.78 312.896 Q1771.61 312.896 1769.34 312.526 Q1767.1 312.156 1764.69 311.415 L1764.69 306.716 Q1766.77 307.85 1768.99 308.406 Q1771.22 308.961 1773.69 308.961 Q1777.7 308.961 1780.03 306.855 Q1782.37 304.748 1782.37 301.137 Q1782.37 297.526 1780.03 295.42 Q1777.7 293.313 1773.69 293.313 Q1771.82 293.313 1769.94 293.73 Q1768.09 294.146 1766.15 295.026 L1766.15 277.665 Z" fill="#000000" fill-rule="nonzero" fill-opacity="1" /><path clip-path="url(#clip230)" d="M1806.26 280.744 Q1802.65 280.744 1800.82 284.309 Q1799.02 287.85 1799.02 294.98 Q1799.02 302.086 1800.82 305.651 Q1802.65 309.193 1806.26 309.193 Q1809.9 309.193 1811.7 305.651 Q1813.53 302.086 1813.53 294.98 Q1813.53 287.85 1811.7 284.309 Q1809.9 280.744 1806.26 280.744 M1806.26 277.04 Q1812.07 277.04 1815.13 281.647 Q1818.21 286.23 1818.21 294.98 Q1818.21 303.707 1815.13 308.313 Q1812.07 312.896 1806.26 312.896 Q1800.45 312.896 1797.37 308.313 Q1794.32 303.707 1794.32 294.98 Q1794.32 286.23 1797.37 281.647 Q1800.45 277.04 1806.26 277.04 Z" fill="#000000" fill-rule="nonzero" fill-opacity="1" /><path clip-path="url(#clip230)" d="M1662.35 114.319 L1669.99 114.319 L1669.99 87.9531 L1661.68 89.6197 L1661.68 85.3605 L1669.94 83.6939 L1674.62 83.6939 L1674.62 114.319 L1682.26 114.319 L1682.26 118.254 L1662.35 118.254 L1662.35 114.319 Z" fill="#000000" fill-rule="nonzero" fill-opacity="1" /><path clip-path="url(#clip230)" d="M1692.51 114.319 L1700.15 114.319 L1700.15 87.9531 L1691.84 89.6197 L1691.84 85.3605 L1700.1 83.6939 L1704.78 83.6939 L1704.78 114.319 L1712.42 114.319 L1712.42 118.254 L1692.51 118.254 L1692.51 114.319 Z" fill="#000000" fill-rule="nonzero" fill-opacity="1" /><path clip-path="url(#clip230)" d="M1722.67 114.319 L1730.31 114.319 L1730.31 87.9531 L1722 89.6197 L1722 85.3605 L1730.27 83.6939 L1734.94 83.6939 L1734.94 114.319 L1742.58 114.319 L1742.58 118.254 L1722.67 118.254 L1722.67 114.319 Z" fill="#000000" fill-rule="nonzero" fill-opacity="1" /><path clip-path="url(#clip230)" d="M1752.03 112.374 L1756.91 112.374 L1756.91 118.254 L1752.03 118.254 L1752.03 112.374 Z" fill="#000000" fill-rule="nonzero" fill-opacity="1" /><path clip-path="url(#clip230)" d="M1765.91 83.6939 L1788.14 83.6939 L1788.14 85.6846 L1775.59 118.254 L1770.71 118.254 L1782.51 87.629 L1765.91 87.629 L1765.91 83.6939 Z" fill="#000000" fill-rule="nonzero" fill-opacity="1" /><path clip-path="url(#clip230)" d="M1797.3 83.6939 L1815.66 83.6939 L1815.66 87.629 L1801.59 87.629 L1801.59 96.1012 Q1802.6 95.754 1803.62 95.5919 Q1804.64 95.4068 1805.66 95.4068 Q1811.45 95.4068 1814.83 98.578 Q1818.21 101.749 1818.21 107.166 Q1818.21 112.745 1814.73 115.846 Q1811.26 118.925 1804.94 118.925 Q1802.77 118.925 1800.5 118.555 Q1798.25 118.184 1795.84 117.444 L1795.84 112.745 Q1797.93 113.879 1800.15 114.434 Q1802.37 114.99 1804.85 114.99 Q1808.85 114.99 1811.19 112.884 Q1813.53 110.777 1813.53 107.166 Q1813.53 103.555 1811.19 101.448 Q1808.85 99.3419 1804.85 99.3419 Q1802.97 99.3419 1801.1 99.7586 Q1799.25 100.175 1797.3 101.055 L1797.3 83.6939 Z" fill="#000000" fill-rule="nonzero" fill-opacity="1" /><path clip-path="url(#clip230)" d="M1554.57 918.412 L1561.35 918.412 Q1558.32 921.659 1556.83 925.351 Q1555.33 929.011 1555.33 933.149 Q1555.33 941.297 1560.33 945.626 Q1565.29 949.954 1574.72 949.954 Q1584.1 949.954 1589.1 945.626 Q1594.07 941.297 1594.07 933.149 Q1594.07 929.011 1592.57 925.351 Q1591.08 921.659 1588.05 918.412 L1594.77 918.412 Q1597.06 921.786 1598.2 925.574 Q1599.35 929.329 1599.35 933.531 Q1599.35 944.321 1592.76 950.527 Q1586.14 956.734 1574.72 956.734 Q1563.26 956.734 1556.67 950.527 Q1550.05 944.321 1550.05 933.531 Q1550.05 929.266 1551.19 925.51 Q1552.31 921.722 1554.57 918.412 Z" fill="#000000" fill-rule="nonzero" fill-opacity="1" /><path clip-path="url(#clip230)" d="M1566.89 894.923 Q1566.89 899.633 1570.58 902.371 Q1574.24 905.108 1580.64 905.108 Q1587.03 905.108 1590.73 902.403 Q1594.39 899.665 1594.39 894.923 Q1594.39 890.244 1590.69 887.507 Q1587 884.77 1580.64 884.77 Q1574.3 884.77 1570.61 887.507 Q1566.89 890.244 1566.89 894.923 M1561.92 894.923 Q1561.92 887.284 1566.89 882.923 Q1571.85 878.563 1580.64 878.563 Q1589.39 878.563 1594.39 882.923 Q1599.35 887.284 1599.35 894.923 Q1599.35 902.594 1594.39 906.954 Q1589.39 911.283 1580.64 911.283 Q1571.85 911.283 1566.89 906.954 Q1561.92 902.594 1561.92 894.923 Z" fill="#000000" fill-rule="nonzero" fill-opacity="1" /><path clip-path="url(#clip230)" d="M1576.91 839.223 L1598.43 839.223 L1598.43 845.079 L1577.1 845.079 Q1572.04 845.079 1569.53 847.053 Q1567.01 849.026 1567.01 852.973 Q1567.01 857.715 1570.04 860.453 Q1573.06 863.19 1578.28 863.19 L1598.43 863.19 L1598.43 869.078 L1562.78 869.078 L1562.78 863.19 L1568.32 863.19 Q1565.1 861.089 1563.51 858.256 Q1561.92 855.392 1561.92 851.668 Q1561.92 845.525 1565.74 842.374 Q1569.53 839.223 1576.91 839.223 Z" fill="#000000" fill-rule="nonzero" fill-opacity="1" /><path clip-path="url(#clip230)" d="M1563.83 804.816 L1569.37 804.816 Q1568.1 807.299 1567.46 809.972 Q1566.82 812.646 1566.82 815.511 Q1566.82 819.871 1568.16 822.067 Q1569.5 824.232 1572.17 824.232 Q1574.21 824.232 1575.38 822.672 Q1576.53 821.112 1577.58 816.402 L1578.03 814.397 Q1579.36 808.158 1581.81 805.548 Q1584.23 802.907 1588.59 802.907 Q1593.56 802.907 1596.45 806.853 Q1599.35 810.768 1599.35 817.643 Q1599.35 820.508 1598.78 823.627 Q1598.24 826.714 1597.12 830.152 L1591.08 830.152 Q1592.76 826.905 1593.62 823.754 Q1594.45 820.603 1594.45 817.516 Q1594.45 813.378 1593.05 811.15 Q1591.62 808.922 1589.04 808.922 Q1586.65 808.922 1585.38 810.545 Q1584.1 812.137 1582.93 817.58 L1582.45 819.617 Q1581.3 825.059 1578.95 827.478 Q1576.56 829.897 1572.42 829.897 Q1567.39 829.897 1564.66 826.332 Q1561.92 822.768 1561.92 816.211 Q1561.92 812.964 1562.4 810.1 Q1562.88 807.235 1563.83 804.816 Z" fill="#000000" fill-rule="nonzero" fill-opacity="1" /><path clip-path="url(#clip230)" d="M1584.36 794.186 L1562.78 794.186 L1562.78 788.329 L1584.14 788.329 Q1589.2 788.329 1591.74 786.356 Q1594.26 784.382 1594.26 780.436 Q1594.26 775.693 1591.23 772.956 Q1588.21 770.187 1582.99 770.187 L1562.78 770.187 L1562.78 764.33 L1598.43 764.33 L1598.43 770.187 L1592.95 770.187 Q1596.2 772.319 1597.79 775.152 Q1599.35 777.953 1599.35 781.677 Q1599.35 787.82 1595.53 791.003 Q1591.71 794.186 1584.36 794.186 M1561.92 779.449 L1561.92 779.449 Z" fill="#000000" fill-rule="nonzero" fill-opacity="1" /><path clip-path="url(#clip230)" d="M1569.62 724.513 Q1565.68 722.317 1563.8 719.261 Q1561.92 716.206 1561.92 712.068 Q1561.92 706.498 1565.84 703.474 Q1569.72 700.451 1576.91 700.451 L1598.43 700.451 L1598.43 706.339 L1577.1 706.339 Q1571.98 706.339 1569.5 708.153 Q1567.01 709.967 1567.01 713.691 Q1567.01 718.243 1570.04 720.884 Q1573.06 723.526 1578.28 723.526 L1598.43 723.526 L1598.43 729.414 L1577.1 729.414 Q1571.95 729.414 1569.5 731.229 Q1567.01 733.043 1567.01 736.831 Q1567.01 741.318 1570.07 743.96 Q1573.09 746.602 1578.28 746.602 L1598.43 746.602 L1598.43 752.49 L1562.78 752.49 L1562.78 746.602 L1568.32 746.602 Q1565.04 744.597 1563.48 741.796 Q1561.92 738.995 1561.92 735.144 Q1561.92 731.261 1563.89 728.555 Q1565.87 725.818 1569.62 724.513 Z" fill="#000000" fill-rule="nonzero" fill-opacity="1" /><path clip-path="url(#clip230)" d="M1593.08 683.104 L1611.99 683.104 L1611.99 688.992 L1562.78 688.992 L1562.78 683.104 L1568.19 683.104 Q1565.01 681.258 1563.48 678.457 Q1561.92 675.624 1561.92 671.709 Q1561.92 665.216 1567.08 661.174 Q1572.23 657.1 1580.64 657.1 Q1589.04 657.1 1594.19 661.174 Q1599.35 665.216 1599.35 671.709 Q1599.35 675.624 1597.82 678.457 Q1596.26 681.258 1593.08 683.104 M1580.64 663.179 Q1574.17 663.179 1570.51 665.853 Q1566.82 668.495 1566.82 673.142 Q1566.82 677.789 1570.51 680.462 Q1574.17 683.104 1580.64 683.104 Q1587.1 683.104 1590.79 680.462 Q1594.45 677.789 1594.45 673.142 Q1594.45 668.495 1590.79 665.853 Q1587.1 663.179 1580.64 663.179 Z" fill="#000000" fill-rule="nonzero" fill-opacity="1" /><path clip-path="url(#clip230)" d="M1552.66 641.6 L1562.78 641.6 L1562.78 629.537 L1567.33 629.537 L1567.33 641.6 L1586.68 641.6 Q1591.04 641.6 1592.28 640.422 Q1593.53 639.212 1593.53 635.552 L1593.53 629.537 L1598.43 629.537 L1598.43 635.552 Q1598.43 642.332 1595.91 644.91 Q1593.37 647.488 1586.68 647.488 L1567.33 647.488 L1567.33 651.785 L1562.78 651.785 L1562.78 647.488 L1552.66 647.488 L1552.66 641.6 Z" fill="#000000" fill-rule="nonzero" fill-opacity="1" /><path clip-path="url(#clip230)" d="M1562.78 621.834 L1562.78 615.978 L1598.43 615.978 L1598.43 621.834 L1562.78 621.834 M1548.9 621.834 L1548.9 615.978 L1556.32 615.978 L1556.32 621.834 L1548.9 621.834 Z" fill="#000000" fill-rule="nonzero" fill-opacity="1" /><path clip-path="url(#clip230)" d="M1566.89 589.91 Q1566.89 594.621 1570.58 597.358 Q1574.24 600.095 1580.64 600.095 Q1587.03 600.095 1590.73 597.39 Q1594.39 594.652 1594.39 589.91 Q1594.39 585.231 1590.69 582.494 Q1587 579.757 1580.64 579.757 Q1574.3 579.757 1570.61 582.494 Q1566.89 585.231 1566.89 589.91 M1561.92 589.91 Q1561.92 582.271 1566.89 577.911 Q1571.85 573.55 1580.64 573.55 Q1589.39 573.55 1594.39 577.911 Q1599.35 582.271 1599.35 589.91 Q1599.35 597.581 1594.39 601.941 Q1589.39 606.27 1580.64 606.27 Q1571.85 606.27 1566.89 601.941 Q1561.92 597.581 1561.92 589.91 Z" fill="#000000" fill-rule="nonzero" fill-opacity="1" /><path clip-path="url(#clip230)" d="M1576.91 534.21 L1598.43 534.21 L1598.43 540.067 L1577.1 540.067 Q1572.04 540.067 1569.53 542.04 Q1567.01 544.013 1567.01 547.96 Q1567.01 552.702 1570.04 555.44 Q1573.06 558.177 1578.28 558.177 L1598.43 558.177 L1598.43 564.065 L1562.78 564.065 L1562.78 558.177 L1568.32 558.177 Q1565.1 556.076 1563.51 553.244 Q1561.92 550.379 1561.92 546.655 Q1561.92 540.512 1565.74 537.361 Q1569.53 534.21 1576.91 534.21 Z" fill="#000000" fill-rule="nonzero" fill-opacity="1" /><polyline clip-path="url(#clip233)" style="stroke:#009af9; stroke-linecap:round; stroke-linejoin:round; stroke-width:4; stroke-opacity:1; fill:none" points="1902.62,87.3293 1966.5,153.533 2030.38,225.505 2094.26,293.549 2158.14,362.736 2222.02,434.96 2285.9,503.111 2349.78,572.369 2413.66,638.389 2477.54,709.634 2541.42,778.998 2605.3,846.383 2669.18,916.402 2733.06,989.115 2796.94,1053.88 2860.82,1121.11 2924.7,1189.72 2988.58,1258.45 3052.46,1327.82 3116.34,1397.63 "/>
<polyline clip-path="url(#clip233)" style="stroke:#e26f46; stroke-linecap:round; stroke-linejoin:round; stroke-width:4; stroke-opacity:1; fill:none" points="1902.62,107.937 1966.5,174.87 2030.38,242.088 2094.26,309.114 2158.14,375.838 2222.02,442.241 2285.9,508.341 2349.78,574.172 2413.66,639.772 2477.54,705.187 2541.42,770.48 2605.3,835.741 2669.18,901.099 2733.06,966.748 2796.94,1032.97 2860.82,1100.14 2924.7,1168.77 2988.58,1239.51 3052.46,1313.15 3116.34,1390.61 "/>
<polyline clip-path="url(#clip233)" style="stroke:#3da44d; stroke-linecap:round; stroke-linejoin:round; stroke-width:4; stroke-opacity:1; fill:none" points="1902.62,89.7627 1966.5,157.821 2030.38,225.989 2094.26,294.271 2158.14,362.669 2222.02,431.184 2285.9,499.821 2349.78,568.58 2413.66,637.464 2477.54,706.476 2541.42,775.619 2605.3,844.894 2669.18,914.304 2733.06,983.852 2796.94,1053.54 2860.82,1123.37 2924.7,1193.35 2988.58,1263.47 3052.46,1333.75 3116.34,1404.18 "/>
<polyline clip-path="url(#clip233)" style="stroke:#c271d2; stroke-linecap:round; stroke-linejoin:round; stroke-width:4; stroke-opacity:1; fill:none" points="1902.62,86.7664 1966.5,156.17 2030.38,225.517 2094.26,294.81 2158.14,364.046 2222.02,433.228 2285.9,502.354 2349.78,571.424 2413.66,640.44 2477.54,709.4 2541.42,778.305 2605.3,847.155 2669.18,915.949 2733.06,984.689 2796.94,1053.37 2860.82,1122 2924.7,1190.58 2988.58,1259.1 3052.46,1327.58 3116.34,1395.97 "/>
</svg>