<?xml version="1.0" encoding="utf-8"?>
<svg xmlns="http://www.w3.org/2000/svg" xmlns:xlink="http://www.w3.org/1999/xlink" width="800" height="400" viewBox="0 0 3200 1600">
<defs>
  <clipPath id="clip900">
    <rect x="0" y="0" width="3200" height="1600"/>
  </clipPath>
</defs>
<path clip-path="url(#clip900)" d="M0 1600 L3200 1600 L3200 0 L0 0  Z" fill="#ffffff" fill-rule="evenodd" fill-opacity="1"/>
<defs>
  <clipPath id="clip901">
    <rect x="640" y="0" width="2241" height="1600"/>
  </clipPath>
</defs>
<path clip-path="url(#clip900)" d="M163.927 1495.09 L1538.62 1495.09 L1538.62 47.2441 L163.927 47.2441  Z" fill="#ffffff" fill-rule="evenodd" fill-opacity="1"/>
<defs>
  <clipPath id="clip902">
    <rect x="163" y="47" width="1376" height="1449"/>
  </clipPath>
</defs>
<polyline clip-path="url(#clip902)" style="stroke:#000000; stroke-linecap:round; stroke-linejoin:round; stroke-width:2; stroke-opacity:0.1; fill:none" points="189.865,1495.09 189.865,47.2441 "/>
<polyline clip-path="url(#clip902)" style="stroke:#000000; stroke-linecap:round; stroke-linejoin:round; stroke-width:2; stroke-opacity:0.1; fill:none" points="514.086,1495.09 514.086,47.2441 "/>
<polyline clip-path="url(#clip902)" style="stroke:#000000; stroke-linecap:round; stroke-linejoin:round; stroke-width:2; stroke-opacity:0.1; fill:none" points="838.307,1495.09 838.307,47.2441 "/>
<polyline clip-path="url(#clip902)" style="stroke:#000000; stroke-linecap:round; stroke-linejoin:round; stroke-width:2; stroke-opacity:0.1; fill:none" points="1162.53,1495.09 1162.53,47.2441 "/>
<polyline clip-path="url(#clip902)" style="stroke:#000000; stroke-linecap:round; stroke-linejoin:round; stroke-width:2; stroke-opacity:0.1; fill:none" points="1486.75,1495.09 1486.75,47.2441 "/>
<polyline clip-path="url(#clip900)" style="stroke:#000000; stroke-linecap:round; stroke-linejoin:round; stroke-width:4; stroke-opacity:1; fill:none" points="163.927,1495.09 1538.62,1495.09 "/>
<polyline clip-path="url(#clip900)" style="stroke:#000000; stroke-linecap:round; stroke-linejoin:round; stroke-width:4; stroke-opacity:1; fill:none" points="189.865,1495.09 189.865,1476.19 "/>
<polyline clip-path="url(#clip900)" style="stroke:#000000; stroke-linecap:round; stroke-linejoin:round; stroke-width:4; stroke-opacity:1; fill:none" points="514.086,1495.09 514.086,1476.19 "/>
<polyline clip-path="url(#clip900)" style="stroke:#000000; stroke-linecap:round; stroke-linejoin:round; stroke-width:4; stroke-opacity:1; fill:none" points="838.307,1495.09 838.307,1476.19 "/>
<polyline clip-path="url(#clip900)" style="stroke:#000000; stroke-linecap:round; stroke-linejoin:round; stroke-width:4; stroke-opacity:1; fill:none" points="1162.53,1495.09 1162.53,1476.19 "/>
<polyline clip-path="url(#clip900)" style="stroke:#000000; stroke-linecap:round; stroke-linejoin:round; stroke-width:4; stroke-opacity:1; fill:none" points="1486.75,1495.09 1486.75,1476.19 "/>
<path clip-path="url(#clip900)" d="M189.865 1532.41 Q186.254 1532.41 184.425 1535.97 Q182.619 1539.51 182.619 1546.64 Q182.619 1553.75 184.425 1557.31 Q186.254 1560.86 189.865 1560.86 Q193.499 1560.86 195.304 1557.31 Q197.133 1553.75 197.133 1546.64 Q197.133 1539.51 195.304 1535.97 Q193.499 1532.41 189.865 1532.41 M189.865 1528.7 Q195.675 1528.7 198.73 1533.31 Q201.809 1537.89 201.809 1546.64 Q201.809 1555.37 198.73 1559.98 Q195.675 1564.56 189.865 1564.56 Q184.054 1564.56 180.976 1559.98 Q177.92 1555.37 177.92 1546.64 Q177.92 1537.89 180.976 1533.31 Q184.054 1528.7 189.865 1528.7 Z" fill="#000000" fill-rule="nonzero" fill-opacity="1" /><path clip-path="url(#clip900)" d="M493.357 1559.95 L509.676 1559.95 L509.676 1563.89 L487.732 1563.89 L487.732 1559.95 Q490.394 1557.2 494.977 1552.57 Q499.583 1547.92 500.764 1546.57 Q503.009 1544.05 503.889 1542.31 Q504.792 1540.55 504.792 1538.86 Q504.792 1536.11 502.847 1534.37 Q500.926 1532.64 497.824 1532.64 Q495.625 1532.64 493.171 1533.4 Q490.741 1534.17 487.963 1535.72 L487.963 1530.99 Q490.787 1529.86 493.241 1529.28 Q495.695 1528.7 497.732 1528.7 Q503.102 1528.7 506.296 1531.39 Q509.491 1534.07 509.491 1538.56 Q509.491 1540.69 508.681 1542.61 Q507.894 1544.51 505.787 1547.11 Q505.208 1547.78 502.107 1550.99 Q499.005 1554.19 493.357 1559.95 Z" fill="#000000" fill-rule="nonzero" fill-opacity="1" /><path clip-path="url(#clip900)" d="M519.537 1529.33 L537.893 1529.33 L537.893 1533.26 L523.819 1533.26 L523.819 1541.74 Q524.838 1541.39 525.856 1541.23 Q526.875 1541.04 527.893 1541.04 Q533.68 1541.04 537.06 1544.21 Q540.44 1547.38 540.44 1552.8 Q540.44 1558.38 536.967 1561.48 Q533.495 1564.56 527.176 1564.56 Q525 1564.56 522.731 1564.19 Q520.486 1563.82 518.079 1563.08 L518.079 1558.38 Q520.162 1559.51 522.384 1560.07 Q524.606 1560.62 527.083 1560.62 Q531.088 1560.62 533.426 1558.52 Q535.764 1556.41 535.764 1552.8 Q535.764 1549.19 533.426 1547.08 Q531.088 1544.98 527.083 1544.98 Q525.208 1544.98 523.333 1545.39 Q521.481 1545.81 519.537 1546.69 L519.537 1529.33 Z" fill="#000000" fill-rule="nonzero" fill-opacity="1" /><path clip-path="url(#clip900)" d="M813.006 1529.33 L831.362 1529.33 L831.362 1533.26 L817.288 1533.26 L817.288 1541.74 Q818.307 1541.39 819.325 1541.23 Q820.344 1541.04 821.362 1541.04 Q827.149 1541.04 830.529 1544.21 Q833.909 1547.38 833.909 1552.8 Q833.909 1558.38 830.436 1561.48 Q826.964 1564.56 820.645 1564.56 Q818.469 1564.56 816.2 1564.19 Q813.955 1563.82 811.548 1563.08 L811.548 1558.38 Q813.631 1559.51 815.853 1560.07 Q818.075 1560.62 820.552 1560.62 Q824.557 1560.62 826.895 1558.52 Q829.233 1556.41 829.233 1552.8 Q829.233 1549.19 826.895 1547.08 Q824.557 1544.98 820.552 1544.98 Q818.677 1544.98 816.802 1545.39 Q814.95 1545.81 813.006 1546.69 L813.006 1529.33 Z" fill="#000000" fill-rule="nonzero" fill-opacity="1" /><path clip-path="url(#clip900)" d="M853.121 1532.41 Q849.51 1532.41 847.682 1535.97 Q845.876 1539.51 845.876 1546.64 Q845.876 1553.75 847.682 1557.31 Q849.51 1560.86 853.121 1560.86 Q856.756 1560.86 858.561 1557.31 Q860.39 1553.75 860.39 1546.64 Q860.39 1539.51 858.561 1535.97 Q856.756 1532.41 853.121 1532.41 M853.121 1528.7 Q858.932 1528.7 861.987 1533.31 Q865.066 1537.89 865.066 1546.64 Q865.066 1555.37 861.987 1559.98 Q858.932 1564.56 853.121 1564.56 Q847.311 1564.56 844.233 1559.98 Q841.177 1555.37 841.177 1546.64 Q841.177 1537.89 844.233 1533.31 Q847.311 1528.7 853.121 1528.7 Z" fill="#000000" fill-rule="nonzero" fill-opacity="1" /><path clip-path="url(#clip900)" d="M1136.38 1529.33 L1158.6 1529.33 L1158.6 1531.32 L1146.06 1563.89 L1141.17 1563.89 L1152.98 1533.26 L1136.38 1533.26 L1136.38 1529.33 Z" fill="#000000" fill-rule="nonzero" fill-opacity="1" /><path clip-path="url(#clip900)" d="M1167.77 1529.33 L1186.13 1529.33 L1186.13 1533.26 L1172.05 1533.26 L1172.05 1541.74 Q1173.07 1541.39 1174.09 1541.23 Q1175.11 1541.04 1176.13 1541.04 Q1181.91 1541.04 1185.29 1544.21 Q1188.67 1547.38 1188.67 1552.8 Q1188.67 1558.38 1185.2 1561.48 Q1181.73 1564.56 1175.41 1564.56 Q1173.23 1564.56 1170.97 1564.19 Q1168.72 1563.82 1166.31 1563.08 L1166.31 1558.38 Q1168.4 1559.51 1170.62 1560.07 Q1172.84 1560.62 1175.32 1560.62 Q1179.32 1560.62 1181.66 1558.52 Q1184 1556.41 1184 1552.8 Q1184 1549.19 1181.66 1547.08 Q1179.32 1544.98 1175.32 1544.98 Q1173.44 1544.98 1171.57 1545.39 Q1169.72 1545.81 1167.77 1546.69 L1167.77 1529.33 Z" fill="#000000" fill-rule="nonzero" fill-opacity="1" /><path clip-path="url(#clip900)" d="M1446.36 1559.95 L1453.99 1559.95 L1453.99 1533.59 L1445.68 1535.25 L1445.68 1530.99 L1453.95 1529.33 L1458.62 1529.33 L1458.62 1559.95 L1466.26 1559.95 L1466.26 1563.89 L1446.36 1563.89 L1446.36 1559.95 Z" fill="#000000" fill-rule="nonzero" fill-opacity="1" /><path clip-path="url(#clip900)" d="M1485.71 1532.41 Q1482.1 1532.41 1480.27 1535.97 Q1478.46 1539.51 1478.46 1546.64 Q1478.46 1553.75 1480.27 1557.31 Q1482.1 1560.86 1485.71 1560.86 Q1489.34 1560.86 1491.15 1557.31 Q1492.98 1553.75 1492.98 1546.64 Q1492.98 1539.51 1491.15 1535.97 Q1489.34 1532.41 1485.71 1532.41 M1485.71 1528.7 Q1491.52 1528.7 1494.57 1533.31 Q1497.65 1537.89 1497.65 1546.64 Q1497.65 1555.37 1494.57 1559.98 Q1491.52 1564.56 1485.71 1564.56 Q1479.9 1564.56 1476.82 1559.98 Q1473.76 1555.37 1473.76 1546.64 Q1473.76 1537.89 1476.82 1533.31 Q1479.9 1528.7 1485.71 1528.7 Z" fill="#000000" fill-rule="nonzero" fill-opacity="1" /><path clip-path="url(#clip900)" d="M1515.87 1532.41 Q1512.26 1532.41 1510.43 1535.97 Q1508.62 1539.51 1508.62 1546.64 Q1508.62 1553.75 1510.43 1557.31 Q1512.26 1560.86 1515.87 1560.86 Q1519.5 1560.86 1521.31 1557.31 Q1523.14 1553.75 1523.14 1546.64 Q1523.14 1539.51 1521.31 1535.97 Q1519.5 1532.41 1515.87 1532.41 M1515.87 1528.7 Q1521.68 1528.7 1524.73 1533.31 Q1527.81 1537.89 1527.81 1546.64 Q1527.81 1555.37 1524.73 1559.98 Q1521.68 1564.56 1515.87 1564.56 Q1510.06 1564.56 1506.98 1559.98 Q1503.92 1555.37 1503.92 1546.64 Q1503.92 1537.89 1506.98 1533.31 Q1510.06 1528.7 1515.87 1528.7 Z" fill="#000000" fill-rule="nonzero" fill-opacity="1" /><polyline clip-path="url(#clip902)" style="stroke:#000000; stroke-linecap:round; stroke-linejoin:round; stroke-width:2; stroke-opacity:0.1; fill:none" points="163.927,1354.95 1538.62,1354.95 "/>
<polyline clip-path="url(#clip902)" style="stroke:#000000; stroke-linecap:round; stroke-linejoin:round; stroke-width:2; stroke-opacity:0.1; fill:none" points="163.927,1128.27 1538.62,1128.27 "/>
<polyline clip-path="url(#clip902)" style="stroke:#000000; stroke-linecap:round; stroke-linejoin:round; stroke-width:2; stroke-opacity:0.1; fill:none" points="163.927,901.601 1538.62,901.601 "/>
<polyline clip-path="url(#clip902)" style="stroke:#000000; stroke-linecap:round; stroke-linejoin:round; stroke-width:2; stroke-opacity:0.1; fill:none" points="163.927,674.929 1538.62,674.929 "/>
<polyline clip-path="url(#clip902)" style="stroke:#000000; stroke-linecap:round; stroke-linejoin:round; stroke-width:2; stroke-opacity:0.1; fill:none" points="163.927,448.256 1538.62,448.256 "/>
<polyline clip-path="url(#clip902)" style="stroke:#000000; stroke-linecap:round; stroke-linejoin:round; stroke-width:2; stroke-opacity:0.1; fill:none" points="163.927,221.584 1538.62,221.584 "/>
<polyline clip-path="url(#clip900)" style="stroke:#000000; stroke-linecap:round; stroke-linejoin:round; stroke-width:4; stroke-opacity:1; fill:none" points="163.927,1495.09 163.927,47.2441 "/>
<polyline clip-path="url(#clip900)" style="stroke:#000000; stroke-linecap:round; stroke-linejoin:round; stroke-width:4; stroke-opacity:1; fill:none" points="163.927,1354.95 182.825,1354.95 "/>
<polyline clip-path="url(#clip900)" style="stroke:#000000; stroke-linecap:round; stroke-linejoin:round; stroke-width:4; stroke-opacity:1; fill:none" points="163.927,1128.27 182.825,1128.27 "/>
<polyline clip-path="url(#clip900)" style="stroke:#000000; stroke-linecap:round; stroke-linejoin:round; stroke-width:4; stroke-opacity:1; fill:none" points="163.927,901.601 182.825,901.601 "/>
<polyline clip-path="url(#clip900)" style="stroke:#000000; stroke-linecap:round; stroke-linejoin:round; stroke-width:4; stroke-opacity:1; fill:none" points="163.927,674.929 182.825,674.929 "/>
<polyline clip-path="url(#clip900)" style="stroke:#000000; stroke-linecap:round; stroke-linejoin:round; stroke-width:4; stroke-opacity:1; fill:none" points="163.927,448.256 182.825,448.256 "/>
<polyline clip-path="url(#clip900)" style="stroke:#000000; stroke-linecap:round; stroke-linejoin:round; stroke-width:4; stroke-opacity:1; fill:none" points="163.927,221.584 182.825,221.584 "/>
<path clip-path="url(#clip900)" d="M58.9365 1340.74 Q55.3254 1340.74 53.4967 1344.31 Q51.6912 1347.85 51.6912 1354.98 Q51.6912 1362.09 53.4967 1365.65 Q55.3254 1369.19 58.9365 1369.19 Q62.5707 1369.19 64.3763 1365.65 Q66.205 1362.09 66.205 1354.98 Q66.205 1347.85 64.3763 1344.31 Q62.5707 1340.74 58.9365 1340.74 M58.9365 1337.04 Q64.7467 1337.04 67.8022 1341.65 Q70.8809 1346.23 70.8809 1354.98 Q70.8809 1363.71 67.8022 1368.31 Q64.7467 1372.9 58.9365 1372.9 Q53.1264 1372.9 50.0477 1368.31 Q46.9921 1363.71 46.9921 1354.98 Q46.9921 1346.23 50.0477 1341.65 Q53.1264 1337.04 58.9365 1337.04 Z" fill="#000000" fill-rule="nonzero" fill-opacity="1" /><path clip-path="url(#clip900)" d="M79.0984 1366.35 L83.9827 1366.35 L83.9827 1372.23 L79.0984 1372.23 L79.0984 1366.35 Z" fill="#000000" fill-rule="nonzero" fill-opacity="1" /><path clip-path="url(#clip900)" d="M94.3067 1371.51 L94.3067 1367.25 Q96.0659 1368.08 97.8715 1368.52 Q99.677 1368.96 101.413 1368.96 Q106.043 1368.96 108.473 1365.86 Q110.927 1362.74 111.274 1356.39 Q109.932 1358.38 107.871 1359.45 Q105.811 1360.51 103.311 1360.51 Q98.1261 1360.51 95.0937 1357.39 Q92.0845 1354.24 92.0845 1348.8 Q92.0845 1343.48 95.2326 1340.26 Q98.3807 1337.04 103.612 1337.04 Q109.608 1337.04 112.756 1341.65 Q115.927 1346.23 115.927 1354.98 Q115.927 1363.15 112.038 1368.04 Q108.172 1372.9 101.621 1372.9 Q99.8622 1372.9 98.0567 1372.55 Q96.2511 1372.2 94.3067 1371.51 M103.612 1356.86 Q106.76 1356.86 108.589 1354.7 Q110.441 1352.55 110.441 1348.8 Q110.441 1345.07 108.589 1342.92 Q106.76 1340.74 103.612 1340.74 Q100.464 1340.74 98.6122 1342.92 Q96.7835 1345.07 96.7835 1348.8 Q96.7835 1352.55 98.6122 1354.7 Q100.464 1356.86 103.612 1356.86 Z" fill="#000000" fill-rule="nonzero" fill-opacity="1" /><path clip-path="url(#clip900)" d="M49.5616 1141.62 L57.2004 1141.62 L57.2004 1115.25 L48.8903 1116.92 L48.8903 1112.66 L57.1541 1110.99 L61.83 1110.99 L61.83 1141.62 L69.4689 1141.62 L69.4689 1145.55 L49.5616 1145.55 L49.5616 1141.62 Z" fill="#000000" fill-rule="nonzero" fill-opacity="1" /><path clip-path="url(#clip900)" d="M78.9133 1139.67 L83.7975 1139.67 L83.7975 1145.55 L78.9133 1145.55 L78.9133 1139.67 Z" fill="#000000" fill-rule="nonzero" fill-opacity="1" /><path clip-path="url(#clip900)" d="M103.983 1114.07 Q100.371 1114.07 98.5428 1117.64 Q96.7372 1121.18 96.7372 1128.31 Q96.7372 1135.41 98.5428 1138.98 Q100.371 1142.52 103.983 1142.52 Q107.617 1142.52 109.422 1138.98 Q111.251 1135.41 111.251 1128.31 Q111.251 1121.18 109.422 1117.64 Q107.617 1114.07 103.983 1114.07 M103.983 1110.37 Q109.793 1110.37 112.848 1114.97 Q115.927 1119.56 115.927 1128.31 Q115.927 1137.03 112.848 1141.64 Q109.793 1146.22 103.983 1146.22 Q98.1724 1146.22 95.0937 1141.64 Q92.0382 1137.03 92.0382 1128.31 Q92.0382 1119.56 95.0937 1114.97 Q98.1724 1110.37 103.983 1110.37 Z" fill="#000000" fill-rule="nonzero" fill-opacity="1" /><path clip-path="url(#clip900)" d="M50.7884 914.946 L58.4272 914.946 L58.4272 888.58 L50.1171 890.247 L50.1171 885.988 L58.381 884.321 L63.0569 884.321 L63.0569 914.946 L70.6957 914.946 L70.6957 918.881 L50.7884 918.881 L50.7884 914.946 Z" fill="#000000" fill-rule="nonzero" fill-opacity="1" /><path clip-path="url(#clip900)" d="M80.1401 913.001 L85.0243 913.001 L85.0243 918.881 L80.1401 918.881 L80.1401 913.001 Z" fill="#000000" fill-rule="nonzero" fill-opacity="1" /><path clip-path="url(#clip900)" d="M96.0196 914.946 L103.658 914.946 L103.658 888.58 L95.3483 890.247 L95.3483 885.988 L103.612 884.321 L108.288 884.321 L108.288 914.946 L115.927 914.946 L115.927 918.881 L96.0196 918.881 L96.0196 914.946 Z" fill="#000000" fill-rule="nonzero" fill-opacity="1" /><path clip-path="url(#clip900)" d="M51.1588 688.273 L58.7976 688.273 L58.7976 661.908 L50.4875 663.574 L50.4875 659.315 L58.7513 657.649 L63.4272 657.649 L63.4272 688.273 L71.0661 688.273 L71.0661 692.209 L51.1588 692.209 L51.1588 688.273 Z" fill="#000000" fill-rule="nonzero" fill-opacity="1" /><path clip-path="url(#clip900)" d="M80.5105 686.329 L85.3947 686.329 L85.3947 692.209 L80.5105 692.209 L80.5105 686.329 Z" fill="#000000" fill-rule="nonzero" fill-opacity="1" /><path clip-path="url(#clip900)" d="M99.6076 688.273 L115.927 688.273 L115.927 692.209 L93.9826 692.209 L93.9826 688.273 Q96.6446 685.519 101.228 680.889 Q105.834 676.236 107.015 674.894 Q109.26 672.371 110.14 670.635 Q111.043 668.875 111.043 667.186 Q111.043 664.431 109.098 662.695 Q107.177 660.959 104.075 660.959 Q101.876 660.959 99.4224 661.723 Q96.9919 662.486 94.2141 664.037 L94.2141 659.315 Q97.0382 658.181 99.4918 657.602 Q101.946 657.024 103.983 657.024 Q109.353 657.024 112.547 659.709 Q115.742 662.394 115.742 666.885 Q115.742 669.014 114.932 670.935 Q114.145 672.834 112.038 675.426 Q111.459 676.097 108.358 679.315 Q105.256 682.509 99.6076 688.273 Z" fill="#000000" fill-rule="nonzero" fill-opacity="1" /><path clip-path="url(#clip900)" d="M50.2097 461.601 L57.8485 461.601 L57.8485 435.235 L49.5384 436.902 L49.5384 432.643 L57.8023 430.976 L62.4782 430.976 L62.4782 461.601 L70.117 461.601 L70.117 465.536 L50.2097 465.536 L50.2097 461.601 Z" fill="#000000" fill-rule="nonzero" fill-opacity="1" /><path clip-path="url(#clip900)" d="M79.5614 459.656 L84.4456 459.656 L84.4456 465.536 L79.5614 465.536 L79.5614 459.656 Z" fill="#000000" fill-rule="nonzero" fill-opacity="1" /><path clip-path="url(#clip900)" d="M108.797 446.902 Q112.154 447.619 114.029 449.888 Q115.927 452.156 115.927 455.49 Q115.927 460.606 112.408 463.406 Q108.89 466.207 102.408 466.207 Q100.233 466.207 97.9178 465.768 Q95.6261 465.351 93.1724 464.494 L93.1724 459.981 Q95.1169 461.115 97.4317 461.693 Q99.7465 462.272 102.27 462.272 Q106.668 462.272 108.959 460.536 Q111.274 458.8 111.274 455.49 Q111.274 452.434 109.121 450.721 Q106.992 448.985 103.172 448.985 L99.1446 448.985 L99.1446 445.143 L103.358 445.143 Q106.807 445.143 108.635 443.777 Q110.464 442.388 110.464 439.795 Q110.464 437.133 108.566 435.721 Q106.691 434.286 103.172 434.286 Q101.251 434.286 99.052 434.703 Q96.853 435.12 94.2141 435.999 L94.2141 431.833 Q96.8761 431.092 99.1909 430.721 Q101.529 430.351 103.589 430.351 Q108.913 430.351 112.015 432.782 Q115.117 435.189 115.117 439.309 Q115.117 442.18 113.473 444.17 Q111.83 446.138 108.797 446.902 Z" fill="#000000" fill-rule="nonzero" fill-opacity="1" /><path clip-path="url(#clip900)" d="M49.0754 234.928 L56.7143 234.928 L56.7143 208.563 L48.4042 210.229 L48.4042 205.97 L56.668 204.304 L61.3439 204.304 L61.3439 234.928 L68.9827 234.928 L68.9827 238.864 L49.0754 238.864 L49.0754 234.928 Z" fill="#000000" fill-rule="nonzero" fill-opacity="1" /><path clip-path="url(#clip900)" d="M78.4271 232.984 L83.3114 232.984 L83.3114 238.864 L78.4271 238.864 L78.4271 232.984 Z" fill="#000000" fill-rule="nonzero" fill-opacity="1" /><path clip-path="url(#clip900)" d="M106.344 208.378 L94.5382 226.827 L106.344 226.827 L106.344 208.378 M105.117 204.304 L110.996 204.304 L110.996 226.827 L115.927 226.827 L115.927 230.715 L110.996 230.715 L110.996 238.864 L106.344 238.864 L106.344 230.715 L90.7419 230.715 L90.7419 226.202 L105.117 204.304 Z" fill="#000000" fill-rule="nonzero" fill-opacity="1" /><polyline clip-path="url(#clip902)" style="stroke:#009af9; stroke-linecap:round; stroke-linejoin:round; stroke-width:4; stroke-opacity:1; fill:none" points="202.833,88.2208 215.802,105.793 228.771,123.273 241.74,140.659 254.709,157.953 267.678,175.155 280.647,192.266 293.615,209.285 306.584,226.215 319.553,243.054 332.522,259.804 345.491,276.464 358.46,293.037 371.428,309.521 384.397,325.918 397.366,342.227 410.335,358.45 423.304,374.586 436.273,390.637 449.241,406.603 462.21,422.483 475.179,438.28 488.148,453.992 501.117,469.621 514.086,485.167 527.054,500.63 540.023,516.011 552.992,531.31 565.961,546.528 578.93,561.665 591.899,576.722 604.868,591.699 617.836,606.596 630.805,621.414 643.774,636.153 656.743,650.814 669.712,665.397 682.681,679.902 695.649,694.33 708.618,708.682 721.587,722.957 734.556,737.157 747.525,751.281 760.494,765.33 773.462,779.304 786.431,793.205 799.4,807.031 812.369,820.784 825.338,834.463 838.307,848.07 851.275,861.605 864.244,875.068 877.213,888.459 890.182,901.779 903.151,915.028 916.12,928.207 929.089,941.316 942.057,954.355 955.026,967.325 967.995,980.226 980.964,993.058 993.933,1005.82 1006.9,1018.52 1019.87,1031.15 1032.84,1043.71 1045.81,1056.2 1058.78,1068.63 1071.75,1081 1084.71,1093.29 1097.68,1105.52 1110.65,1117.69 1123.62,1129.79 1136.59,1141.83 1149.56,1153.8 1162.53,1165.71 1175.5,1177.56 1188.47,1189.34 1201.43,1201.07 1214.4,1212.72 1227.37,1224.32 1240.34,1235.86 1253.31,1247.33 1266.28,1258.74 1279.25,1270.1 1292.22,1281.39 1305.18,1292.62 1318.15,1303.79 1331.12,1314.9 1344.09,1325.96 1357.06,1336.95 1370.03,1347.89 1383,1358.77 1395.97,1369.59 1408.94,1380.35 1421.9,1391.06 1434.87,1401.71 1447.84,1412.3 1460.81,1422.84 1473.78,1433.32 1486.75,1443.74 1499.72,1454.11 "/>
<path clip-path="url(#clip900)" d="M1314.43 199.186 L1492.8 199.186 L1492.8 95.5056 L1314.43 95.5056  Z" fill="#ffffff" fill-rule="evenodd" fill-opacity="1"/>
<polyline clip-path="url(#clip900)" style="stroke:#000000; stroke-linecap:round; stroke-linejoin:round; stroke-width:4; stroke-opacity:1; fill:none" points="1314.43,199.186 1492.8,199.186 1492.8,95.5056 1314.43,95.5056 1314.43,199.186 "/>
<polyline clip-path="url(#clip900)" style="stroke:#009af9; stroke-linecap:round; stroke-linejoin:round; stroke-width:4; stroke-opacity:1; fill:none" points="1329.7,147.346 1421.35,147.346 "/>
<path clip-path="url(#clip900)" d="M1457.13 139.695 L1457.13 143.677 Q1455.33 142.681 1453.5 142.195 Q1451.69 141.686 1449.84 141.686 Q1445.7 141.686 1443.41 144.325 Q1441.11 146.94 1441.11 151.686 Q1441.11 156.431 1443.41 159.07 Q1445.7 161.686 1449.84 161.686 Q1451.69 161.686 1453.5 161.2 Q1455.33 160.69 1457.13 159.695 L1457.13 163.63 Q1455.35 164.464 1453.43 164.88 Q1451.53 165.297 1449.38 165.297 Q1443.52 165.297 1440.07 161.616 Q1436.62 157.936 1436.62 151.686 Q1436.62 145.343 1440.1 141.709 Q1443.59 138.075 1449.66 138.075 Q1451.62 138.075 1453.5 138.491 Q1455.37 138.885 1457.13 139.695 Z" fill="#000000" fill-rule="nonzero" fill-opacity="1" /><path clip-path="url(#clip900)" d="M1468.75 131.339 L1468.75 138.7 L1477.53 138.7 L1477.53 142.01 L1468.75 142.01 L1468.75 156.084 Q1468.75 159.255 1469.61 160.158 Q1470.49 161.061 1473.15 161.061 L1477.53 161.061 L1477.53 164.626 L1473.15 164.626 Q1468.22 164.626 1466.35 162.797 Q1464.47 160.945 1464.47 156.084 L1464.47 142.01 L1461.35 142.01 L1461.35 138.7 L1464.47 138.7 L1464.47 131.339 L1468.75 131.339 Z" fill="#000000" fill-rule="nonzero" fill-opacity="1" /><path clip-path="url(#clip900)" d="M1778.06 1495.09 L3152.76 1495.09 L3152.76 47.2441 L1778.06 47.2441  Z" fill="#ffffff" fill-rule="evenodd" fill-opacity="1"/>
<defs>
  <clipPath id="clip903">
    <rect x="1778" y="47" width="1376" height="1449"/>
  </clipPath>
</defs>
<polyline clip-path="url(#clip903)" style="stroke:#000000; stroke-linecap:round; stroke-linejoin:round; stroke-width:2; stroke-opacity:0.1; fill:none" points="1804,1495.09 1804,47.2441 "/>
<polyline clip-path="url(#clip903)" style="stroke:#000000; stroke-linecap:round; stroke-linejoin:round; stroke-width:2; stroke-opacity:0.1; fill:none" points="2128.22,1495.09 2128.22,47.2441 "/>
<polyline clip-path="url(#clip903)" style="stroke:#000000; stroke-linecap:round; stroke-linejoin:round; stroke-width:2; stroke-opacity:0.1; fill:none" points="2452.44,1495.09 2452.44,47.2441 "/>
<polyline clip-path="url(#clip903)" style="stroke:#000000; stroke-linecap:round; stroke-linejoin:round; stroke-width:2; stroke-opacity:0.1; fill:none" points="2776.66,1495.09 2776.66,47.2441 "/>
<polyline clip-path="url(#clip903)" style="stroke:#000000; stroke-linecap:round; stroke-linejoin:round; stroke-width:2; stroke-opacity:0.1; fill:none" points="3100.88,1495.09 3100.88,47.2441 "/>
<polyline clip-path="url(#clip900)" style="stroke:#000000; stroke-linecap:round; stroke-linejoin:round; stroke-width:4; stroke-opacity:1; fill:none" points="1778.06,1495.09 3152.76,1495.09 "/>
<polyline clip-path="url(#clip900)" style="stroke:#000000; stroke-linecap:round; stroke-linejoin:round; stroke-width:4; stroke-opacity:1; fill:none" points="1804,1495.09 1804,1476.19 "/>
<polyline clip-path="url(#clip900)" style="stroke:#000000; stroke-linecap:round; stroke-linejoin:round; stroke-width:4; stroke-opacity:1; fill:none" points="2128.22,1495.09 2128.22,1476.19 "/>
<polyline clip-path="url(#clip900)" style="stroke:#000000; stroke-linecap:round; stroke-linejoin:round; stroke-width:4; stroke-opacity:1; fill:none" points="2452.44,1495.09 2452.44,1476.19 "/>
<polyline clip-path="url(#clip900)" style="stroke:#000000; stroke-linecap:round; stroke-linejoin:round; stroke-width:4; stroke-opacity:1; fill:none" points="2776.66,1495.09 2776.66,1476.19 "/>
<polyline clip-path="url(#clip900)" style="stroke:#000000; stroke-linecap:round; stroke-linejoin:round; stroke-width:4; stroke-opacity:1; fill:none" points="3100.88,1495.09 3100.88,1476.19 "/>
<path clip-path="url(#clip900)" d="M1804 1532.41 Q1800.39 1532.41 1798.56 1535.97 Q1796.75 1539.51 1796.75 1546.64 Q1796.75 1553.75 1798.56 1557.31 Q1800.39 1560.86 1804 1560.86 Q1807.63 1560.86 1809.44 1557.31 Q1811.26 1553.75 1811.26 1546.64 Q1811.26 1539.51 1809.44 1535.97 Q1807.63 1532.41 1804 1532.41 M1804 1528.7 Q1809.81 1528.7 1812.86 1533.31 Q1815.94 1537.89 1815.94 1546.64 Q1815.94 1555.37 1812.86 1559.98 Q1809.81 1564.56 1804 1564.56 Q1798.19 1564.56 1795.11 1559.98 Q1792.05 1555.37 1792.05 1546.64 Q1792.05 1537.89 1795.11 1533.31 Q1798.19 1528.7 1804 1528.7 Z" fill="#000000" fill-rule="nonzero" fill-opacity="1" /><path clip-path="url(#clip900)" d="M2107.49 1559.95 L2123.81 1559.95 L2123.81 1563.89 L2101.86 1563.89 L2101.86 1559.95 Q2104.53 1557.2 2109.11 1552.57 Q2113.72 1547.92 2114.9 1546.57 Q2117.14 1544.05 2118.02 1542.31 Q2118.92 1540.55 2118.92 1538.86 Q2118.92 1536.11 2116.98 1534.37 Q2115.06 1532.64 2111.96 1532.64 Q2109.76 1532.64 2107.3 1533.4 Q2104.87 1534.17 2102.09 1535.72 L2102.09 1530.99 Q2104.92 1529.86 2107.37 1529.28 Q2109.83 1528.7 2111.86 1528.7 Q2117.23 1528.7 2120.43 1531.39 Q2123.62 1534.07 2123.62 1538.56 Q2123.62 1540.69 2122.81 1542.61 Q2122.03 1544.51 2119.92 1547.11 Q2119.34 1547.78 2116.24 1550.99 Q2113.14 1554.19 2107.49 1559.95 Z" fill="#000000" fill-rule="nonzero" fill-opacity="1" /><path clip-path="url(#clip900)" d="M2133.67 1529.33 L2152.03 1529.33 L2152.03 1533.26 L2137.95 1533.26 L2137.95 1541.74 Q2138.97 1541.39 2139.99 1541.23 Q2141.01 1541.04 2142.03 1541.04 Q2147.81 1541.04 2151.19 1544.21 Q2154.57 1547.38 2154.57 1552.8 Q2154.57 1558.38 2151.1 1561.48 Q2147.63 1564.56 2141.31 1564.56 Q2139.13 1564.56 2136.86 1564.19 Q2134.62 1563.82 2132.21 1563.08 L2132.21 1558.38 Q2134.29 1559.51 2136.52 1560.07 Q2138.74 1560.62 2141.22 1560.62 Q2145.22 1560.62 2147.56 1558.52 Q2149.9 1556.41 2149.9 1552.8 Q2149.9 1549.19 2147.56 1547.08 Q2145.22 1544.98 2141.22 1544.98 Q2139.34 1544.98 2137.47 1545.39 Q2135.61 1545.81 2133.67 1546.69 L2133.67 1529.33 Z" fill="#000000" fill-rule="nonzero" fill-opacity="1" /><path clip-path="url(#clip900)" d="M2427.14 1529.33 L2445.49 1529.33 L2445.49 1533.26 L2431.42 1533.26 L2431.42 1541.74 Q2432.44 1541.39 2433.46 1541.23 Q2434.48 1541.04 2435.49 1541.04 Q2441.28 1541.04 2444.66 1544.21 Q2448.04 1547.38 2448.04 1552.8 Q2448.04 1558.38 2444.57 1561.48 Q2441.1 1564.56 2434.78 1564.56 Q2432.6 1564.56 2430.33 1564.19 Q2428.09 1563.82 2425.68 1563.08 L2425.68 1558.38 Q2427.76 1559.51 2429.98 1560.07 Q2432.21 1560.62 2434.68 1560.62 Q2438.69 1560.62 2441.03 1558.52 Q2443.36 1556.41 2443.36 1552.8 Q2443.36 1549.19 2441.03 1547.08 Q2438.69 1544.98 2434.68 1544.98 Q2432.81 1544.98 2430.93 1545.39 Q2429.08 1545.81 2427.14 1546.69 L2427.14 1529.33 Z" fill="#000000" fill-rule="nonzero" fill-opacity="1" /><path clip-path="url(#clip900)" d="M2467.25 1532.41 Q2463.64 1532.41 2461.81 1535.97 Q2460.01 1539.51 2460.01 1546.64 Q2460.01 1553.75 2461.81 1557.31 Q2463.64 1560.86 2467.25 1560.86 Q2470.89 1560.86 2472.69 1557.31 Q2474.52 1553.75 2474.52 1546.64 Q2474.52 1539.51 2472.69 1535.97 Q2470.89 1532.41 2467.25 1532.41 M2467.25 1528.7 Q2473.06 1528.7 2476.12 1533.31 Q2479.2 1537.89 2479.2 1546.64 Q2479.2 1555.37 2476.12 1559.98 Q2473.06 1564.56 2467.25 1564.56 Q2461.44 1564.56 2458.36 1559.98 Q2455.31 1555.37 2455.31 1546.64 Q2455.31 1537.89 2458.36 1533.31 Q2461.44 1528.7 2467.25 1528.7 Z" fill="#000000" fill-rule="nonzero" fill-opacity="1" /><path clip-path="url(#clip900)" d="M2750.51 1529.33 L2772.74 1529.33 L2772.74 1531.32 L2760.19 1563.89 L2755.31 1563.89 L2767.11 1533.26 L2750.51 1533.26 L2750.51 1529.33 Z" fill="#000000" fill-rule="nonzero" fill-opacity="1" /><path clip-path="url(#clip900)" d="M2781.9 1529.33 L2800.26 1529.33 L2800.26 1533.26 L2786.18 1533.26 L2786.18 1541.74 Q2787.2 1541.39 2788.22 1541.23 Q2789.24 1541.04 2790.26 1541.04 Q2796.05 1541.04 2799.43 1544.21 Q2802.81 1547.38 2802.81 1552.8 Q2802.81 1558.38 2799.33 1561.48 Q2795.86 1564.56 2789.54 1564.56 Q2787.37 1564.56 2785.1 1564.19 Q2782.85 1563.82 2780.44 1563.08 L2780.44 1558.38 Q2782.53 1559.51 2784.75 1560.07 Q2786.97 1560.62 2789.45 1560.62 Q2793.45 1560.62 2795.79 1558.52 Q2798.13 1556.41 2798.13 1552.8 Q2798.13 1549.19 2795.79 1547.08 Q2793.45 1544.98 2789.45 1544.98 Q2787.57 1544.98 2785.7 1545.39 Q2783.85 1545.81 2781.9 1546.69 L2781.9 1529.33 Z" fill="#000000" fill-rule="nonzero" fill-opacity="1" /><path clip-path="url(#clip900)" d="M3060.49 1559.95 L3068.13 1559.95 L3068.13 1533.59 L3059.82 1535.25 L3059.82 1530.99 L3068.08 1529.33 L3072.76 1529.33 L3072.76 1559.95 L3080.39 1559.95 L3080.39 1563.89 L3060.49 1563.89 L3060.49 1559.95 Z" fill="#000000" fill-rule="nonzero" fill-opacity="1" /><path clip-path="url(#clip900)" d="M3099.84 1532.41 Q3096.23 1532.41 3094.4 1535.97 Q3092.59 1539.51 3092.59 1546.64 Q3092.59 1553.75 3094.4 1557.31 Q3096.23 1560.86 3099.84 1560.86 Q3103.47 1560.86 3105.28 1557.31 Q3107.11 1553.75 3107.11 1546.64 Q3107.11 1539.51 3105.28 1535.97 Q3103.47 1532.41 3099.84 1532.41 M3099.84 1528.7 Q3105.65 1528.7 3108.7 1533.31 Q3111.78 1537.89 3111.78 1546.64 Q3111.78 1555.37 3108.7 1559.98 Q3105.65 1564.56 3099.84 1564.56 Q3094.03 1564.56 3090.95 1559.98 Q3087.89 1555.37 3087.89 1546.64 Q3087.89 1537.89 3090.95 1533.31 Q3094.03 1528.7 3099.84 1528.7 Z" fill="#000000" fill-rule="nonzero" fill-opacity="1" /><path clip-path="url(#clip900)" d="M3130 1532.41 Q3126.39 1532.41 3124.56 1535.97 Q3122.76 1539.51 3122.76 1546.64 Q3122.76 1553.75 3124.56 1557.31 Q3126.39 1560.86 3130 1560.86 Q3133.63 1560.86 3135.44 1557.31 Q3137.27 1553.75 3137.27 1546.64 Q3137.27 1539.51 3135.44 1535.97 Q3133.63 1532.41 3130 1532.41 M3130 1528.7 Q3135.81 1528.7 3138.87 1533.31 Q3141.95 1537.89 3141.95 1546.64 Q3141.95 1555.37 3138.87 1559.98 Q3135.81 1564.56 3130 1564.56 Q3124.19 1564.56 3121.11 1559.98 Q3118.06 1555.37 3118.06 1546.64 Q3118.06 1537.89 3121.11 1533.31 Q3124.19 1528.7 3130 1528.7 Z" fill="#000000" fill-rule="nonzero" fill-opacity="1" /><polyline clip-path="url(#clip903)" style="stroke:#000000; stroke-linecap:round; stroke-linejoin:round; stroke-width:2; stroke-opacity:0.1; fill:none" points="1778.06,1342.86 3152.76,1342.86 "/>
<polyline clip-path="url(#clip903)" style="stroke:#000000; stroke-linecap:round; stroke-linejoin:round; stroke-width:2; stroke-opacity:0.1; fill:none" points="1778.06,1029.2 3152.76,1029.2 "/>
<polyline clip-path="url(#clip903)" style="stroke:#000000; stroke-linecap:round; stroke-linejoin:round; stroke-width:2; stroke-opacity:0.1; fill:none" points="1778.06,715.542 3152.76,715.542 "/>
<polyline clip-path="url(#clip903)" style="stroke:#000000; stroke-linecap:round; stroke-linejoin:round; stroke-width:2; stroke-opacity:0.1; fill:none" points="1778.06,401.881 3152.76,401.881 "/>
<polyline clip-path="url(#clip903)" style="stroke:#000000; stroke-linecap:round; stroke-linejoin:round; stroke-width:2; stroke-opacity:0.1; fill:none" points="1778.06,88.2208 3152.76,88.2208 "/>
<polyline clip-path="url(#clip900)" style="stroke:#000000; stroke-linecap:round; stroke-linejoin:round; stroke-width:4; stroke-opacity:1; fill:none" points="1778.06,1495.09 1778.06,47.2441 "/>
<polyline clip-path="url(#clip900)" style="stroke:#000000; stroke-linecap:round; stroke-linejoin:round; stroke-width:4; stroke-opacity:1; fill:none" points="1778.06,1342.86 1796.96,1342.86 "/>
<polyline clip-path="url(#clip900)" style="stroke:#000000; stroke-linecap:round; stroke-linejoin:round; stroke-width:4; stroke-opacity:1; fill:none" points="1778.06,1029.2 1796.96,1029.2 "/>
<polyline clip-path="url(#clip900)" style="stroke:#000000; stroke-linecap:round; stroke-linejoin:round; stroke-width:4; stroke-opacity:1; fill:none" points="1778.06,715.542 1796.96,715.542 "/>
<polyline clip-path="url(#clip900)" style="stroke:#000000; stroke-linecap:round; stroke-linejoin:round; stroke-width:4; stroke-opacity:1; fill:none" points="1778.06,401.881 1796.96,401.881 "/>
<polyline clip-path="url(#clip900)" style="stroke:#000000; stroke-linecap:round; stroke-linejoin:round; stroke-width:4; stroke-opacity:1; fill:none" points="1778.06,88.2208 1796.96,88.2208 "/>
<path clip-path="url(#clip900)" d="M1672.88 1328.66 Q1669.27 1328.66 1667.44 1332.23 Q1665.64 1335.77 1665.64 1342.9 Q1665.64 1350 1667.44 1353.57 Q1669.27 1357.11 1672.88 1357.11 Q1676.52 1357.11 1678.32 1353.57 Q1680.15 1350 1680.15 1342.9 Q1680.15 1335.77 1678.32 1332.23 Q1676.52 1328.66 1672.88 1328.66 M1672.88 1324.96 Q1678.69 1324.96 1681.75 1329.56 Q1684.83 1334.15 1684.83 1342.9 Q1684.83 1351.62 1681.75 1356.23 Q1678.69 1360.81 1672.88 1360.81 Q1667.07 1360.81 1663.99 1356.23 Q1660.94 1351.62 1660.94 1342.9 Q1660.94 1334.15 1663.99 1329.56 Q1667.07 1324.96 1672.88 1324.96 Z" fill="#000000" fill-rule="nonzero" fill-opacity="1" /><path clip-path="url(#clip900)" d="M1693.05 1354.26 L1697.93 1354.26 L1697.93 1360.14 L1693.05 1360.14 L1693.05 1354.26 Z" fill="#000000" fill-rule="nonzero" fill-opacity="1" /><path clip-path="url(#clip900)" d="M1718.11 1328.66 Q1714.5 1328.66 1712.67 1332.23 Q1710.87 1335.77 1710.87 1342.9 Q1710.87 1350 1712.67 1353.57 Q1714.5 1357.11 1718.11 1357.11 Q1721.75 1357.11 1723.55 1353.57 Q1725.38 1350 1725.38 1342.9 Q1725.38 1335.77 1723.55 1332.23 Q1721.75 1328.66 1718.11 1328.66 M1718.11 1324.96 Q1723.92 1324.96 1726.98 1329.56 Q1730.06 1334.15 1730.06 1342.9 Q1730.06 1351.62 1726.98 1356.23 Q1723.92 1360.81 1718.11 1360.81 Q1712.3 1360.81 1709.23 1356.23 Q1706.17 1351.62 1706.17 1342.9 Q1706.17 1334.15 1709.23 1329.56 Q1712.3 1324.96 1718.11 1324.96 Z" fill="#000000" fill-rule="nonzero" fill-opacity="1" /><path clip-path="url(#clip900)" d="M1667.91 1042.55 L1684.23 1042.55 L1684.23 1046.48 L1662.28 1046.48 L1662.28 1042.55 Q1664.94 1039.79 1669.53 1035.16 Q1674.13 1030.51 1675.31 1029.17 Q1677.56 1026.64 1678.44 1024.91 Q1679.34 1023.15 1679.34 1021.46 Q1679.34 1018.71 1677.4 1016.97 Q1675.48 1015.23 1672.37 1015.23 Q1670.17 1015.23 1667.72 1016 Q1665.29 1016.76 1662.51 1018.31 L1662.51 1013.59 Q1665.34 1012.46 1667.79 1011.88 Q1670.24 1011.3 1672.28 1011.3 Q1677.65 1011.3 1680.85 1013.98 Q1684.04 1016.67 1684.04 1021.16 Q1684.04 1023.29 1683.23 1025.21 Q1682.44 1027.11 1680.34 1029.7 Q1679.76 1030.37 1676.66 1033.59 Q1673.55 1036.78 1667.91 1042.55 Z" fill="#000000" fill-rule="nonzero" fill-opacity="1" /><path clip-path="url(#clip900)" d="M1694.04 1040.6 L1698.92 1040.6 L1698.92 1046.48 L1694.04 1046.48 L1694.04 1040.6 Z" fill="#000000" fill-rule="nonzero" fill-opacity="1" /><path clip-path="url(#clip900)" d="M1709.16 1011.92 L1727.51 1011.92 L1727.51 1015.86 L1713.44 1015.86 L1713.44 1024.33 Q1714.46 1023.98 1715.48 1023.82 Q1716.49 1023.64 1717.51 1023.64 Q1723.3 1023.64 1726.68 1026.81 Q1730.06 1029.98 1730.06 1035.39 Q1730.06 1040.97 1726.59 1044.08 Q1723.11 1047.15 1716.79 1047.15 Q1714.62 1047.15 1712.35 1046.78 Q1710.11 1046.41 1707.7 1045.67 L1707.7 1040.97 Q1709.78 1042.11 1712 1042.66 Q1714.23 1043.22 1716.7 1043.22 Q1720.71 1043.22 1723.04 1041.11 Q1725.38 1039.01 1725.38 1035.39 Q1725.38 1031.78 1723.04 1029.68 Q1720.71 1027.57 1716.7 1027.57 Q1714.83 1027.57 1712.95 1027.99 Q1711.1 1028.4 1709.16 1029.28 L1709.16 1011.92 Z" fill="#000000" fill-rule="nonzero" fill-opacity="1" /><path clip-path="url(#clip900)" d="M1662.93 698.262 L1681.29 698.262 L1681.29 702.197 L1667.21 702.197 L1667.21 710.669 Q1668.23 710.322 1669.25 710.16 Q1670.27 709.975 1671.29 709.975 Q1677.07 709.975 1680.45 713.146 Q1683.83 716.318 1683.83 721.734 Q1683.83 727.313 1680.36 730.415 Q1676.89 733.493 1670.57 733.493 Q1668.39 733.493 1666.12 733.123 Q1663.88 732.753 1661.47 732.012 L1661.47 727.313 Q1663.55 728.447 1665.78 729.003 Q1668 729.558 1670.48 729.558 Q1674.48 729.558 1676.82 727.452 Q1679.16 725.345 1679.16 721.734 Q1679.16 718.123 1676.82 716.017 Q1674.48 713.91 1670.48 713.91 Q1668.6 713.91 1666.73 714.327 Q1664.87 714.744 1662.93 715.623 L1662.93 698.262 Z" fill="#000000" fill-rule="nonzero" fill-opacity="1" /><path clip-path="url(#clip900)" d="M1693.05 726.943 L1697.93 726.943 L1697.93 732.822 L1693.05 732.822 L1693.05 726.943 Z" fill="#000000" fill-rule="nonzero" fill-opacity="1" /><path clip-path="url(#clip900)" d="M1718.11 701.341 Q1714.5 701.341 1712.67 704.906 Q1710.87 708.447 1710.87 715.577 Q1710.87 722.683 1712.67 726.248 Q1714.5 729.79 1718.11 729.79 Q1721.75 729.79 1723.55 726.248 Q1725.38 722.683 1725.38 715.577 Q1725.38 708.447 1723.55 704.906 Q1721.75 701.341 1718.11 701.341 M1718.11 697.637 Q1723.92 697.637 1726.98 702.244 Q1730.06 706.827 1730.06 715.577 Q1730.06 724.304 1726.98 728.91 Q1723.92 733.493 1718.11 733.493 Q1712.3 733.493 1709.23 728.91 Q1706.17 724.304 1706.17 715.577 Q1706.17 706.827 1709.23 702.244 Q1712.3 697.637 1718.11 697.637 Z" fill="#000000" fill-rule="nonzero" fill-opacity="1" /><path clip-path="url(#clip900)" d="M1662.7 384.601 L1684.92 384.601 L1684.92 386.592 L1672.37 419.161 L1667.49 419.161 L1679.3 388.537 L1662.7 388.537 L1662.7 384.601 Z" fill="#000000" fill-rule="nonzero" fill-opacity="1" /><path clip-path="url(#clip900)" d="M1694.04 413.282 L1698.92 413.282 L1698.92 419.161 L1694.04 419.161 L1694.04 413.282 Z" fill="#000000" fill-rule="nonzero" fill-opacity="1" /><path clip-path="url(#clip900)" d="M1709.16 384.601 L1727.51 384.601 L1727.51 388.537 L1713.44 388.537 L1713.44 397.009 Q1714.46 396.662 1715.48 396.5 Q1716.49 396.314 1717.51 396.314 Q1723.3 396.314 1726.68 399.486 Q1730.06 402.657 1730.06 408.074 Q1730.06 413.652 1726.59 416.754 Q1723.11 419.833 1716.79 419.833 Q1714.62 419.833 1712.35 419.462 Q1710.11 419.092 1707.7 418.351 L1707.7 413.652 Q1709.78 414.786 1712 415.342 Q1714.23 415.898 1716.7 415.898 Q1720.71 415.898 1723.04 413.791 Q1725.38 411.685 1725.38 408.074 Q1725.38 404.462 1723.04 402.356 Q1720.71 400.25 1716.7 400.25 Q1714.83 400.25 1712.95 400.666 Q1711.1 401.083 1709.16 401.962 L1709.16 384.601 Z" fill="#000000" fill-rule="nonzero" fill-opacity="1" /><path clip-path="url(#clip900)" d="M1633.53 101.566 L1641.17 101.566 L1641.17 75.2 L1632.86 76.8667 L1632.86 72.6075 L1641.12 70.9408 L1645.8 70.9408 L1645.8 101.566 L1653.44 101.566 L1653.44 105.501 L1633.53 105.501 L1633.53 101.566 Z" fill="#000000" fill-rule="nonzero" fill-opacity="1" /><path clip-path="url(#clip900)" d="M1672.88 74.0195 Q1669.27 74.0195 1667.44 77.5843 Q1665.64 81.1259 1665.64 88.2555 Q1665.64 95.362 1667.44 98.9268 Q1669.27 102.468 1672.88 102.468 Q1676.52 102.468 1678.32 98.9268 Q1680.15 95.362 1680.15 88.2555 Q1680.15 81.1259 1678.32 77.5843 Q1676.52 74.0195 1672.88 74.0195 M1672.88 70.3158 Q1678.69 70.3158 1681.75 74.9223 Q1684.83 79.5056 1684.83 88.2555 Q1684.83 96.9823 1681.75 101.589 Q1678.69 106.172 1672.88 106.172 Q1667.07 106.172 1663.99 101.589 Q1660.94 96.9823 1660.94 88.2555 Q1660.94 79.5056 1663.99 74.9223 Q1667.07 70.3158 1672.88 70.3158 Z" fill="#000000" fill-rule="nonzero" fill-opacity="1" /><path clip-path="url(#clip900)" d="M1693.05 99.6212 L1697.93 99.6212 L1697.93 105.501 L1693.05 105.501 L1693.05 99.6212 Z" fill="#000000" fill-rule="nonzero" fill-opacity="1" /><path clip-path="url(#clip900)" d="M1718.11 74.0195 Q1714.5 74.0195 1712.67 77.5843 Q1710.87 81.1259 1710.87 88.2555 Q1710.87 95.362 1712.67 98.9268 Q1714.5 102.468 1718.11 102.468 Q1721.75 102.468 1723.55 98.9268 Q1725.38 95.362 1725.38 88.2555 Q1725.38 81.1259 1723.55 77.5843 Q1721.75 74.0195 1718.11 74.0195 M1718.11 70.3158 Q1723.92 70.3158 1726.98 74.9223 Q1730.06 79.5056 1730.06 88.2555 Q1730.06 96.9823 1726.98 101.589 Q1723.92 106.172 1718.11 106.172 Q1712.3 106.172 1709.23 101.589 Q1706.17 96.9823 1706.17 88.2555 Q1706.17 79.5056 1709.23 74.9223 Q1712.3 70.3158 1718.11 70.3158 Z" fill="#000000" fill-rule="nonzero" fill-opacity="1" /><polyline clip-path="url(#clip903)" style="stroke:#009af9; stroke-linecap:round; stroke-linejoin:round; stroke-width:4; stroke-opacity:1; fill:none" points="1816.97,88.2208 1829.93,120.695 1842.9,152.847 1855.87,184.674 1868.84,216.175 1881.81,247.349 1894.78,278.194 1907.75,308.709 1920.72,338.892 1933.68,368.742 1946.65,398.257 1959.62,427.435 1972.59,456.275 1985.56,484.774 1998.53,512.93 2011.5,540.742 2024.47,568.208 2037.44,595.325 2050.4,622.091 2063.37,648.504 2076.34,674.562 2089.31,700.262 2102.28,725.601 2115.25,750.578 2128.22,775.189 2141.19,799.431 2154.16,823.303 2167.12,846.801 2180.09,869.922 2193.06,892.663 2206.03,915.021 2219,936.993 2231.97,958.575 2244.94,979.764 2257.91,1000.56 2270.87,1020.95 2283.84,1040.94 2296.81,1060.52 2309.78,1079.69 2322.75,1098.45 2335.72,1116.78 2348.69,1134.7 2361.66,1152.18 2374.63,1169.23 2387.59,1185.85 2400.56,1202.03 2413.53,1217.76 2426.5,1233.04 2439.47,1247.86 2452.44,1262.22 2465.41,1276.12 2478.38,1289.54 2491.35,1302.49 2504.31,1314.96 2517.28,1326.94 2530.25,1338.42 2543.22,1349.41 2556.19,1359.88 2569.16,1369.85 2582.13,1379.3 2595.1,1388.22 2608.06,1396.61 2621.03,1404.47 2634,1411.77 2646.97,1418.53 2659.94,1424.72 2672.91,1430.35 2685.88,1435.4 2698.85,1439.87 2711.82,1443.74 2724.78,1447.02 2737.75,1449.69 2750.72,1451.74 2763.69,1453.17 2776.66,1453.96 2789.63,1454.11 2802.6,1453.61 2815.57,1452.44 2828.53,1450.61 2841.5,1448.09 2854.47,1444.87 2867.44,1440.96 2880.41,1436.33 2893.38,1430.98 2906.35,1424.89 2919.32,1418.06 2932.29,1410.46 2945.25,1402.1 2958.22,1392.96 2971.19,1383.02 2984.16,1372.27 2997.13,1360.7 3010.1,1348.3 3023.07,1335.05 3036.04,1320.94 3049.01,1305.96 3061.97,1290.09 3074.94,1273.31 3087.91,1255.61 3100.88,1236.98 3113.85,1217.41 "/>
<path clip-path="url(#clip900)" d="M2895.64 199.186 L3106.93 199.186 L3106.93 95.5056 L2895.64 95.5056  Z" fill="#ffffff" fill-rule="evenodd" fill-opacity="1"/>
<polyline clip-path="url(#clip900)" style="stroke:#000000; stroke-linecap:round; stroke-linejoin:round; stroke-width:4; stroke-opacity:1; fill:none" points="2895.64,199.186 3106.93,199.186 3106.93,95.5056 2895.64,95.5056 2895.64,199.186 "/>
<polyline clip-path="url(#clip900)" style="stroke:#009af9; stroke-linecap:round; stroke-linejoin:round; stroke-width:4; stroke-opacity:1; fill:none" points="2910.92,147.346 3002.56,147.346 "/>
<path clip-path="url(#clip900)" d="M3031.24 151.593 Q3026.08 151.593 3024.09 152.774 Q3022.1 153.954 3022.1 156.802 Q3022.1 159.07 3023.58 160.413 Q3025.08 161.732 3027.65 161.732 Q3031.2 161.732 3033.33 159.232 Q3035.48 156.709 3035.48 152.542 L3035.48 151.593 L3031.24 151.593 M3039.74 149.834 L3039.74 164.626 L3035.48 164.626 L3035.48 160.69 Q3034.02 163.051 3031.84 164.186 Q3029.67 165.297 3026.52 165.297 Q3022.54 165.297 3020.18 163.075 Q3017.84 160.829 3017.84 157.079 Q3017.84 152.704 3020.76 150.482 Q3023.7 148.26 3029.51 148.26 L3035.48 148.26 L3035.48 147.843 Q3035.48 144.903 3033.53 143.306 Q3031.61 141.686 3028.12 141.686 Q3025.89 141.686 3023.79 142.218 Q3021.68 142.751 3019.74 143.815 L3019.74 139.88 Q3022.08 138.978 3024.27 138.538 Q3026.47 138.075 3028.56 138.075 Q3034.18 138.075 3036.96 140.991 Q3039.74 143.908 3039.74 149.834 Z" fill="#000000" fill-rule="nonzero" fill-opacity="1" /><path clip-path="url(#clip900)" d="M3049.92 160.69 L3057.56 160.69 L3057.56 134.325 L3049.25 135.991 L3049.25 131.732 L3057.51 130.066 L3062.19 130.066 L3062.19 160.69 L3069.83 160.69 L3069.83 164.626 L3049.92 164.626 L3049.92 160.69 Z" fill="#000000" fill-rule="nonzero" fill-opacity="1" /><path clip-path="url(#clip900)" d="M3082.89 131.339 L3082.89 138.7 L3091.66 138.7 L3091.66 142.01 L3082.89 142.01 L3082.89 156.084 Q3082.89 159.255 3083.74 160.158 Q3084.62 161.061 3087.28 161.061 L3091.66 161.061 L3091.66 164.626 L3087.28 164.626 Q3082.35 164.626 3080.48 162.797 Q3078.6 160.945 3078.6 156.084 L3078.6 142.01 L3075.48 142.01 L3075.48 138.7 L3078.6 138.7 L3078.6 131.339 L3082.89 131.339 Z" fill="#000000" fill-rule="nonzero" fill-opacity="1" /></svg>