<?xml version="1.0" encoding="utf-8"?>
<svg xmlns="http://www.w3.org/2000/svg" xmlns:xlink="http://www.w3.org/1999/xlink" width="600" height="400" viewBox="0 0 2400 1600">
<defs>
  <clipPath id="clip000">
    <rect x="0" y="0" width="2400" height="1600"/>
  </clipPath>
</defs>
<path clip-path="url(#clip000)" d="M0 1600 L2400 1600 L2400 0 L0 0  Z" fill="#ffffff" fill-rule="evenodd" fill-opacity="1"/>
<defs>
  <clipPath id="clip001">
    <rect x="480" y="0" width="1681" height="1600"/>
  </clipPath>
</defs>
<path clip-path="url(#clip000)" d="M302.458 1423.18 L2352.76 1423.18 L2352.76 47.2441 L302.458 47.2441  Z" fill="#ffffff" fill-rule="evenodd" fill-opacity="1"/>
<defs>
  <clipPath id="clip002">
    <rect x="302" y="47" width="2051" height="1377"/>
  </clipPath>
</defs>
<polyline clip-path="url(#clip002)" style="stroke:#000000; stroke-linecap:round; stroke-linejoin:round; stroke-width:2; stroke-opacity:0.1; fill:none" points="359.712,1423.18 359.712,47.2441 "/>
<polyline clip-path="url(#clip002)" style="stroke:#000000; stroke-linecap:round; stroke-linejoin:round; stroke-width:2; stroke-opacity:0.1; fill:none" points="746.715,1423.18 746.715,47.2441 "/>
<polyline clip-path="url(#clip002)" style="stroke:#000000; stroke-linecap:round; stroke-linejoin:round; stroke-width:2; stroke-opacity:0.1; fill:none" points="1133.72,1423.18 1133.72,47.2441 "/>
<polyline clip-path="url(#clip002)" style="stroke:#000000; stroke-linecap:round; stroke-linejoin:round; stroke-width:2; stroke-opacity:0.1; fill:none" points="1520.72,1423.18 1520.72,47.2441 "/>
<polyline clip-path="url(#clip002)" style="stroke:#000000; stroke-linecap:round; stroke-linejoin:round; stroke-width:2; stroke-opacity:0.1; fill:none" points="1907.73,1423.18 1907.73,47.2441 "/>
<polyline clip-path="url(#clip002)" style="stroke:#000000; stroke-linecap:round; stroke-linejoin:round; stroke-width:2; stroke-opacity:0.1; fill:none" points="2294.73,1423.18 2294.73,47.2441 "/>
<polyline clip-path="url(#clip000)" style="stroke:#000000; stroke-linecap:round; stroke-linejoin:round; stroke-width:4; stroke-opacity:1; fill:none" points="302.458,1423.18 2352.76,1423.18 "/>
<polyline clip-path="url(#clip000)" style="stroke:#000000; stroke-linecap:round; stroke-linejoin:round; stroke-width:4; stroke-opacity:1; fill:none" points="359.712,1423.18 359.712,1404.28 "/>
<polyline clip-path="url(#clip000)" style="stroke:#000000; stroke-linecap:round; stroke-linejoin:round; stroke-width:4; stroke-opacity:1; fill:none" points="746.715,1423.18 746.715,1404.28 "/>
<polyline clip-path="url(#clip000)" style="stroke:#000000; stroke-linecap:round; stroke-linejoin:round; stroke-width:4; stroke-opacity:1; fill:none" points="1133.72,1423.18 1133.72,1404.28 "/>
<polyline clip-path="url(#clip000)" style="stroke:#000000; stroke-linecap:round; stroke-linejoin:round; stroke-width:4; stroke-opacity:1; fill:none" points="1520.72,1423.18 1520.72,1404.28 "/>
<polyline clip-path="url(#clip000)" style="stroke:#000000; stroke-linecap:round; stroke-linejoin:round; stroke-width:4; stroke-opacity:1; fill:none" points="1907.73,1423.18 1907.73,1404.28 "/>
<polyline clip-path="url(#clip000)" style="stroke:#000000; stroke-linecap:round; stroke-linejoin:round; stroke-width:4; stroke-opacity:1; fill:none" points="2294.73,1423.18 2294.73,1404.28 "/>
<path clip-path="url(#clip000)" d="M337.096 1454.1 Q333.485 1454.1 331.656 1457.66 Q329.851 1461.2 329.851 1468.33 Q329.851 1475.44 331.656 1479.01 Q333.485 1482.55 337.096 1482.55 Q340.73 1482.55 342.536 1479.01 Q344.365 1475.44 344.365 1468.33 Q344.365 1461.2 342.536 1457.66 Q340.73 1454.1 337.096 1454.1 M337.096 1450.39 Q342.906 1450.39 345.962 1455 Q349.04 1459.58 349.04 1468.33 Q349.04 1477.06 345.962 1481.67 Q342.906 1486.25 337.096 1486.25 Q331.286 1486.25 328.207 1481.67 Q325.152 1477.06 325.152 1468.33 Q325.152 1459.58 328.207 1455 Q331.286 1450.39 337.096 1450.39 Z" fill="#000000" fill-rule="nonzero" fill-opacity="1" /><path clip-path="url(#clip000)" d="M357.258 1479.7 L362.142 1479.7 L362.142 1485.58 L357.258 1485.58 L357.258 1479.7 Z" fill="#000000" fill-rule="nonzero" fill-opacity="1" /><path clip-path="url(#clip000)" d="M382.327 1454.1 Q378.716 1454.1 376.888 1457.66 Q375.082 1461.2 375.082 1468.33 Q375.082 1475.44 376.888 1479.01 Q378.716 1482.55 382.327 1482.55 Q385.962 1482.55 387.767 1479.01 Q389.596 1475.44 389.596 1468.33 Q389.596 1461.2 387.767 1457.66 Q385.962 1454.1 382.327 1454.1 M382.327 1450.39 Q388.137 1450.39 391.193 1455 Q394.272 1459.58 394.272 1468.33 Q394.272 1477.06 391.193 1481.67 Q388.137 1486.25 382.327 1486.25 Q376.517 1486.25 373.438 1481.67 Q370.383 1477.06 370.383 1468.33 Q370.383 1459.58 373.438 1455 Q376.517 1450.39 382.327 1450.39 Z" fill="#000000" fill-rule="nonzero" fill-opacity="1" /><path clip-path="url(#clip000)" d="M724.597 1454.1 Q720.986 1454.1 719.157 1457.66 Q717.352 1461.2 717.352 1468.33 Q717.352 1475.44 719.157 1479.01 Q720.986 1482.55 724.597 1482.55 Q728.231 1482.55 730.037 1479.01 Q731.866 1475.44 731.866 1468.33 Q731.866 1461.2 730.037 1457.66 Q728.231 1454.1 724.597 1454.1 M724.597 1450.39 Q730.407 1450.39 733.463 1455 Q736.542 1459.58 736.542 1468.33 Q736.542 1477.06 733.463 1481.67 Q730.407 1486.25 724.597 1486.25 Q718.787 1486.25 715.708 1481.67 Q712.653 1477.06 712.653 1468.33 Q712.653 1459.58 715.708 1455 Q718.787 1450.39 724.597 1450.39 Z" fill="#000000" fill-rule="nonzero" fill-opacity="1" /><path clip-path="url(#clip000)" d="M744.759 1479.7 L749.643 1479.7 L749.643 1485.58 L744.759 1485.58 L744.759 1479.7 Z" fill="#000000" fill-rule="nonzero" fill-opacity="1" /><path clip-path="url(#clip000)" d="M759.875 1451.02 L778.231 1451.02 L778.231 1454.96 L764.157 1454.96 L764.157 1463.43 Q765.176 1463.08 766.194 1462.92 Q767.213 1462.73 768.231 1462.73 Q774.018 1462.73 777.398 1465.9 Q780.777 1469.08 780.777 1474.49 Q780.777 1480.07 777.305 1483.17 Q773.833 1486.25 767.514 1486.25 Q765.338 1486.25 763.069 1485.88 Q760.824 1485.51 758.416 1484.77 L758.416 1480.07 Q760.5 1481.2 762.722 1481.76 Q764.944 1482.32 767.421 1482.32 Q771.426 1482.32 773.764 1480.21 Q776.101 1478.1 776.101 1474.49 Q776.101 1470.88 773.764 1468.77 Q771.426 1466.67 767.421 1466.67 Q765.546 1466.67 763.671 1467.08 Q761.819 1467.5 759.875 1468.38 L759.875 1451.02 Z" fill="#000000" fill-rule="nonzero" fill-opacity="1" /><path clip-path="url(#clip000)" d="M1100.87 1481.64 L1108.51 1481.64 L1108.51 1455.28 L1100.2 1456.95 L1100.2 1452.69 L1108.46 1451.02 L1113.14 1451.02 L1113.14 1481.64 L1120.78 1481.64 L1120.78 1485.58 L1100.87 1485.58 L1100.87 1481.64 Z" fill="#000000" fill-rule="nonzero" fill-opacity="1" /><path clip-path="url(#clip000)" d="M1130.22 1479.7 L1135.11 1479.7 L1135.11 1485.58 L1130.22 1485.58 L1130.22 1479.7 Z" fill="#000000" fill-rule="nonzero" fill-opacity="1" /><path clip-path="url(#clip000)" d="M1155.29 1454.1 Q1151.68 1454.1 1149.85 1457.66 Q1148.05 1461.2 1148.05 1468.33 Q1148.05 1475.44 1149.85 1479.01 Q1151.68 1482.55 1155.29 1482.55 Q1158.93 1482.55 1160.73 1479.01 Q1162.56 1475.44 1162.56 1468.33 Q1162.56 1461.2 1160.73 1457.66 Q1158.93 1454.1 1155.29 1454.1 M1155.29 1450.39 Q1161.1 1450.39 1164.16 1455 Q1167.24 1459.58 1167.24 1468.33 Q1167.24 1477.06 1164.16 1481.67 Q1161.1 1486.25 1155.29 1486.25 Q1149.48 1486.25 1146.4 1481.67 Q1143.35 1477.06 1143.35 1468.33 Q1143.35 1459.58 1146.4 1455 Q1149.48 1450.39 1155.29 1450.39 Z" fill="#000000" fill-rule="nonzero" fill-opacity="1" /><path clip-path="url(#clip000)" d="M1488.37 1481.64 L1496.01 1481.64 L1496.01 1455.28 L1487.7 1456.95 L1487.7 1452.69 L1495.97 1451.02 L1500.64 1451.02 L1500.64 1481.64 L1508.28 1481.64 L1508.28 1485.58 L1488.37 1485.58 L1488.37 1481.64 Z" fill="#000000" fill-rule="nonzero" fill-opacity="1" /><path clip-path="url(#clip000)" d="M1517.72 1479.7 L1522.61 1479.7 L1522.61 1485.58 L1517.72 1485.58 L1517.72 1479.7 Z" fill="#000000" fill-rule="nonzero" fill-opacity="1" /><path clip-path="url(#clip000)" d="M1532.84 1451.02 L1551.2 1451.02 L1551.2 1454.96 L1537.12 1454.96 L1537.12 1463.43 Q1538.14 1463.08 1539.16 1462.92 Q1540.18 1462.73 1541.2 1462.73 Q1546.98 1462.73 1550.36 1465.9 Q1553.74 1469.08 1553.74 1474.49 Q1553.74 1480.07 1550.27 1483.17 Q1546.8 1486.25 1540.48 1486.25 Q1538.3 1486.25 1536.03 1485.88 Q1533.79 1485.51 1531.38 1484.77 L1531.38 1480.07 Q1533.46 1481.2 1535.69 1481.76 Q1537.91 1482.32 1540.39 1482.32 Q1544.39 1482.32 1546.73 1480.21 Q1549.07 1478.1 1549.07 1474.49 Q1549.07 1470.88 1546.73 1468.77 Q1544.39 1466.67 1540.39 1466.67 Q1538.51 1466.67 1536.64 1467.08 Q1534.78 1467.5 1532.84 1468.38 L1532.84 1451.02 Z" fill="#000000" fill-rule="nonzero" fill-opacity="1" /><path clip-path="url(#clip000)" d="M1878.96 1481.64 L1895.28 1481.64 L1895.28 1485.58 L1873.34 1485.58 L1873.34 1481.64 Q1876 1478.89 1880.58 1474.26 Q1885.19 1469.61 1886.37 1468.27 Q1888.62 1465.74 1889.5 1464.01 Q1890.4 1462.25 1890.4 1460.56 Q1890.4 1457.8 1888.45 1456.07 Q1886.53 1454.33 1883.43 1454.33 Q1881.23 1454.33 1878.78 1455.09 Q1876.35 1455.86 1873.57 1457.41 L1873.57 1452.69 Q1876.39 1451.55 1878.85 1450.97 Q1881.3 1450.39 1883.34 1450.39 Q1888.71 1450.39 1891.9 1453.08 Q1895.1 1455.77 1895.1 1460.26 Q1895.1 1462.39 1894.29 1464.31 Q1893.5 1466.2 1891.39 1468.8 Q1890.82 1469.47 1887.71 1472.69 Q1884.61 1475.88 1878.96 1481.64 Z" fill="#000000" fill-rule="nonzero" fill-opacity="1" /><path clip-path="url(#clip000)" d="M1905.1 1479.7 L1909.98 1479.7 L1909.98 1485.58 L1905.1 1485.58 L1905.1 1479.7 Z" fill="#000000" fill-rule="nonzero" fill-opacity="1" /><path clip-path="url(#clip000)" d="M1930.17 1454.1 Q1926.56 1454.1 1924.73 1457.66 Q1922.92 1461.2 1922.92 1468.33 Q1922.92 1475.44 1924.73 1479.01 Q1926.56 1482.55 1930.17 1482.55 Q1933.8 1482.55 1935.61 1479.01 Q1937.44 1475.44 1937.44 1468.33 Q1937.44 1461.2 1935.61 1457.66 Q1933.8 1454.1 1930.17 1454.1 M1930.17 1450.39 Q1935.98 1450.39 1939.03 1455 Q1942.11 1459.58 1942.11 1468.33 Q1942.11 1477.06 1939.03 1481.67 Q1935.98 1486.25 1930.17 1486.25 Q1924.36 1486.25 1921.28 1481.67 Q1918.22 1477.06 1918.22 1468.33 Q1918.22 1459.58 1921.28 1455 Q1924.36 1450.39 1930.17 1450.39 Z" fill="#000000" fill-rule="nonzero" fill-opacity="1" /><path clip-path="url(#clip000)" d="M2266.46 1481.64 L2282.78 1481.64 L2282.78 1485.58 L2260.84 1485.58 L2260.84 1481.64 Q2263.5 1478.89 2268.09 1474.26 Q2272.69 1469.61 2273.87 1468.27 Q2276.12 1465.74 2277 1464.01 Q2277.9 1462.25 2277.9 1460.56 Q2277.9 1457.8 2275.96 1456.07 Q2274.03 1454.33 2270.93 1454.33 Q2268.73 1454.33 2266.28 1455.09 Q2263.85 1455.86 2261.07 1457.41 L2261.07 1452.69 Q2263.9 1451.55 2266.35 1450.97 Q2268.8 1450.39 2270.84 1450.39 Q2276.21 1450.39 2279.4 1453.08 Q2282.6 1455.77 2282.6 1460.26 Q2282.6 1462.39 2281.79 1464.31 Q2281 1466.2 2278.9 1468.8 Q2278.32 1469.47 2275.21 1472.69 Q2272.11 1475.88 2266.46 1481.64 Z" fill="#000000" fill-rule="nonzero" fill-opacity="1" /><path clip-path="url(#clip000)" d="M2292.6 1479.7 L2297.48 1479.7 L2297.48 1485.58 L2292.6 1485.58 L2292.6 1479.7 Z" fill="#000000" fill-rule="nonzero" fill-opacity="1" /><path clip-path="url(#clip000)" d="M2307.71 1451.02 L2326.07 1451.02 L2326.07 1454.96 L2312 1454.96 L2312 1463.43 Q2313.02 1463.08 2314.03 1462.92 Q2315.05 1462.73 2316.07 1462.73 Q2321.86 1462.73 2325.24 1465.9 Q2328.62 1469.08 2328.62 1474.49 Q2328.62 1480.07 2325.15 1483.17 Q2321.67 1486.25 2315.35 1486.25 Q2313.18 1486.25 2310.91 1485.88 Q2308.66 1485.51 2306.26 1484.77 L2306.26 1480.07 Q2308.34 1481.2 2310.56 1481.76 Q2312.78 1482.32 2315.26 1482.32 Q2319.27 1482.32 2321.6 1480.21 Q2323.94 1478.1 2323.94 1474.49 Q2323.94 1470.88 2321.6 1468.77 Q2319.27 1466.67 2315.26 1466.67 Q2313.39 1466.67 2311.51 1467.08 Q2309.66 1467.5 2307.71 1468.38 L2307.71 1451.02 Z" fill="#000000" fill-rule="nonzero" fill-opacity="1" /><path clip-path="url(#clip000)" d="M1330.98 1550.12 Q1323.88 1550.12 1321.15 1551.75 Q1318.41 1553.37 1318.41 1557.29 Q1318.41 1560.4 1320.45 1562.25 Q1322.51 1564.07 1326.05 1564.07 Q1330.92 1564.07 1333.85 1560.63 Q1336.81 1557.16 1336.81 1551.43 L1336.81 1550.12 L1330.98 1550.12 M1342.66 1547.71 L1342.66 1568.04 L1336.81 1568.04 L1336.81 1562.63 Q1334.8 1565.88 1331.81 1567.44 Q1328.82 1568.97 1324.49 1568.97 Q1319.01 1568.97 1315.77 1565.91 Q1312.55 1562.82 1312.55 1557.67 Q1312.55 1551.65 1316.56 1548.6 Q1320.6 1545.54 1328.59 1545.54 L1336.81 1545.54 L1336.81 1544.97 Q1336.81 1540.93 1334.13 1538.73 Q1331.49 1536.5 1326.68 1536.5 Q1323.63 1536.5 1320.73 1537.23 Q1317.84 1537.97 1315.16 1539.43 L1315.16 1534.02 Q1318.38 1532.78 1321.4 1532.17 Q1324.42 1531.54 1327.29 1531.54 Q1335.02 1531.54 1338.84 1535.55 Q1342.66 1539.56 1342.66 1547.71 Z" fill="#000000" fill-rule="nonzero" fill-opacity="1" /><polyline clip-path="url(#clip002)" style="stroke:#000000; stroke-linecap:round; stroke-linejoin:round; stroke-width:2; stroke-opacity:0.1; fill:none" points="302.458,1367.74 2352.76,1367.74 "/>
<polyline clip-path="url(#clip002)" style="stroke:#000000; stroke-linecap:round; stroke-linejoin:round; stroke-width:2; stroke-opacity:0.1; fill:none" points="302.458,1046.94 2352.76,1046.94 "/>
<polyline clip-path="url(#clip002)" style="stroke:#000000; stroke-linecap:round; stroke-linejoin:round; stroke-width:2; stroke-opacity:0.1; fill:none" points="302.458,726.15 2352.76,726.15 "/>
<polyline clip-path="url(#clip002)" style="stroke:#000000; stroke-linecap:round; stroke-linejoin:round; stroke-width:2; stroke-opacity:0.1; fill:none" points="302.458,405.356 2352.76,405.356 "/>
<polyline clip-path="url(#clip002)" style="stroke:#000000; stroke-linecap:round; stroke-linejoin:round; stroke-width:2; stroke-opacity:0.1; fill:none" points="302.458,84.5626 2352.76,84.5626 "/>
<polyline clip-path="url(#clip000)" style="stroke:#000000; stroke-linecap:round; stroke-linejoin:round; stroke-width:4; stroke-opacity:1; fill:none" points="302.458,1423.18 302.458,47.2441 "/>
<polyline clip-path="url(#clip000)" style="stroke:#000000; stroke-linecap:round; stroke-linejoin:round; stroke-width:4; stroke-opacity:1; fill:none" points="302.458,1367.74 321.356,1367.74 "/>
<polyline clip-path="url(#clip000)" style="stroke:#000000; stroke-linecap:round; stroke-linejoin:round; stroke-width:4; stroke-opacity:1; fill:none" points="302.458,1046.94 321.356,1046.94 "/>
<polyline clip-path="url(#clip000)" style="stroke:#000000; stroke-linecap:round; stroke-linejoin:round; stroke-width:4; stroke-opacity:1; fill:none" points="302.458,726.15 321.356,726.15 "/>
<polyline clip-path="url(#clip000)" style="stroke:#000000; stroke-linecap:round; stroke-linejoin:round; stroke-width:4; stroke-opacity:1; fill:none" points="302.458,405.356 321.356,405.356 "/>
<polyline clip-path="url(#clip000)" style="stroke:#000000; stroke-linecap:round; stroke-linejoin:round; stroke-width:4; stroke-opacity:1; fill:none" points="302.458,84.5626 321.356,84.5626 "/>
<path clip-path="url(#clip000)" d="M114.26 1368.19 L143.936 1368.19 L143.936 1372.12 L114.26 1372.12 L114.26 1368.19 Z" fill="#000000" fill-rule="nonzero" fill-opacity="1" /><path clip-path="url(#clip000)" d="M154.839 1381.08 L162.477 1381.08 L162.477 1354.72 L154.167 1356.38 L154.167 1352.12 L162.431 1350.46 L167.107 1350.46 L167.107 1381.08 L174.746 1381.08 L174.746 1385.02 L154.839 1385.02 L154.839 1381.08 Z" fill="#000000" fill-rule="nonzero" fill-opacity="1" /><path clip-path="url(#clip000)" d="M194.19 1353.54 Q190.579 1353.54 188.75 1357.1 Q186.945 1360.64 186.945 1367.77 Q186.945 1374.88 188.75 1378.44 Q190.579 1381.99 194.19 1381.99 Q197.825 1381.99 199.63 1378.44 Q201.459 1374.88 201.459 1367.77 Q201.459 1360.64 199.63 1357.1 Q197.825 1353.54 194.19 1353.54 M194.19 1349.83 Q200 1349.83 203.056 1354.44 Q206.135 1359.02 206.135 1367.77 Q206.135 1376.5 203.056 1381.11 Q200 1385.69 194.19 1385.69 Q188.38 1385.69 185.301 1381.11 Q182.246 1376.5 182.246 1367.77 Q182.246 1359.02 185.301 1354.44 Q188.38 1349.83 194.19 1349.83 Z" fill="#000000" fill-rule="nonzero" fill-opacity="1" /><path clip-path="url(#clip000)" d="M224.352 1353.54 Q220.741 1353.54 218.912 1357.1 Q217.107 1360.64 217.107 1367.77 Q217.107 1374.88 218.912 1378.44 Q220.741 1381.99 224.352 1381.99 Q227.986 1381.99 229.792 1378.44 Q231.621 1374.88 231.621 1367.77 Q231.621 1360.64 229.792 1357.1 Q227.986 1353.54 224.352 1353.54 M224.352 1349.83 Q230.162 1349.83 233.218 1354.44 Q236.297 1359.02 236.297 1367.77 Q236.297 1376.5 233.218 1381.11 Q230.162 1385.69 224.352 1385.69 Q218.542 1385.69 215.463 1381.11 Q212.408 1376.5 212.408 1367.77 Q212.408 1359.02 215.463 1354.44 Q218.542 1349.83 224.352 1349.83 Z" fill="#000000" fill-rule="nonzero" fill-opacity="1" /><path clip-path="url(#clip000)" d="M254.514 1353.54 Q250.903 1353.54 249.074 1357.1 Q247.269 1360.64 247.269 1367.77 Q247.269 1374.88 249.074 1378.44 Q250.903 1381.99 254.514 1381.99 Q258.148 1381.99 259.954 1378.44 Q261.783 1374.88 261.783 1367.77 Q261.783 1360.64 259.954 1357.1 Q258.148 1353.54 254.514 1353.54 M254.514 1349.83 Q260.324 1349.83 263.38 1354.44 Q266.458 1359.02 266.458 1367.77 Q266.458 1376.5 263.38 1381.11 Q260.324 1385.69 254.514 1385.69 Q248.704 1385.69 245.625 1381.11 Q242.57 1376.5 242.57 1367.77 Q242.57 1359.02 245.625 1354.44 Q248.704 1349.83 254.514 1349.83 Z" fill="#000000" fill-rule="nonzero" fill-opacity="1" /><path clip-path="url(#clip000)" d="M144.422 1047.4 L174.098 1047.4 L174.098 1051.33 L144.422 1051.33 L144.422 1047.4 Z" fill="#000000" fill-rule="nonzero" fill-opacity="1" /><path clip-path="url(#clip000)" d="M183.01 1029.66 L205.232 1029.66 L205.232 1031.65 L192.686 1064.22 L187.801 1064.22 L199.607 1033.6 L183.01 1033.6 L183.01 1029.66 Z" fill="#000000" fill-rule="nonzero" fill-opacity="1" /><path clip-path="url(#clip000)" d="M214.399 1029.66 L232.755 1029.66 L232.755 1033.6 L218.681 1033.6 L218.681 1042.07 Q219.699 1041.72 220.718 1041.56 Q221.736 1041.38 222.755 1041.38 Q228.542 1041.38 231.922 1044.55 Q235.301 1047.72 235.301 1053.14 Q235.301 1058.71 231.829 1061.82 Q228.357 1064.9 222.037 1064.9 Q219.861 1064.9 217.593 1064.53 Q215.348 1064.15 212.94 1063.41 L212.94 1058.71 Q215.024 1059.85 217.246 1060.4 Q219.468 1060.96 221.945 1060.96 Q225.949 1060.96 228.287 1058.85 Q230.625 1056.75 230.625 1053.14 Q230.625 1049.53 228.287 1047.42 Q225.949 1045.31 221.945 1045.31 Q220.07 1045.31 218.195 1045.73 Q216.343 1046.15 214.399 1047.03 L214.399 1029.66 Z" fill="#000000" fill-rule="nonzero" fill-opacity="1" /><path clip-path="url(#clip000)" d="M254.514 1032.74 Q250.903 1032.74 249.074 1036.31 Q247.269 1039.85 247.269 1046.98 Q247.269 1054.09 249.074 1057.65 Q250.903 1061.19 254.514 1061.19 Q258.148 1061.19 259.954 1057.65 Q261.783 1054.09 261.783 1046.98 Q261.783 1039.85 259.954 1036.31 Q258.148 1032.74 254.514 1032.74 M254.514 1029.04 Q260.324 1029.04 263.38 1033.65 Q266.458 1038.23 266.458 1046.98 Q266.458 1055.71 263.38 1060.31 Q260.324 1064.9 254.514 1064.9 Q248.704 1064.9 245.625 1060.31 Q242.57 1055.71 242.57 1046.98 Q242.57 1038.23 245.625 1033.65 Q248.704 1029.04 254.514 1029.04 Z" fill="#000000" fill-rule="nonzero" fill-opacity="1" /><path clip-path="url(#clip000)" d="M144.422 726.602 L174.098 726.602 L174.098 730.537 L144.422 730.537 L144.422 726.602 Z" fill="#000000" fill-rule="nonzero" fill-opacity="1" /><path clip-path="url(#clip000)" d="M184.237 708.87 L202.593 708.87 L202.593 712.805 L188.519 712.805 L188.519 721.278 Q189.538 720.93 190.556 720.768 Q191.575 720.583 192.593 720.583 Q198.38 720.583 201.76 723.754 Q205.139 726.926 205.139 732.342 Q205.139 737.921 201.667 741.023 Q198.195 744.102 191.875 744.102 Q189.7 744.102 187.431 743.731 Q185.186 743.361 182.778 742.62 L182.778 737.921 Q184.862 739.055 187.084 739.611 Q189.306 740.166 191.783 740.166 Q195.787 740.166 198.125 738.06 Q200.463 735.953 200.463 732.342 Q200.463 728.731 198.125 726.625 Q195.787 724.518 191.783 724.518 Q189.908 724.518 188.033 724.935 Q186.181 725.352 184.237 726.231 L184.237 708.87 Z" fill="#000000" fill-rule="nonzero" fill-opacity="1" /><path clip-path="url(#clip000)" d="M224.352 711.949 Q220.741 711.949 218.912 715.514 Q217.107 719.055 217.107 726.185 Q217.107 733.291 218.912 736.856 Q220.741 740.398 224.352 740.398 Q227.986 740.398 229.792 736.856 Q231.621 733.291 231.621 726.185 Q231.621 719.055 229.792 715.514 Q227.986 711.949 224.352 711.949 M224.352 708.245 Q230.162 708.245 233.218 712.852 Q236.297 717.435 236.297 726.185 Q236.297 734.912 233.218 739.518 Q230.162 744.102 224.352 744.102 Q218.542 744.102 215.463 739.518 Q212.408 734.912 212.408 726.185 Q212.408 717.435 215.463 712.852 Q218.542 708.245 224.352 708.245 Z" fill="#000000" fill-rule="nonzero" fill-opacity="1" /><path clip-path="url(#clip000)" d="M254.514 711.949 Q250.903 711.949 249.074 715.514 Q247.269 719.055 247.269 726.185 Q247.269 733.291 249.074 736.856 Q250.903 740.398 254.514 740.398 Q258.148 740.398 259.954 736.856 Q261.783 733.291 261.783 726.185 Q261.783 719.055 259.954 715.514 Q258.148 711.949 254.514 711.949 M254.514 708.245 Q260.324 708.245 263.38 712.852 Q266.458 717.435 266.458 726.185 Q266.458 734.912 263.38 739.518 Q260.324 744.102 254.514 744.102 Q248.704 744.102 245.625 739.518 Q242.57 734.912 242.57 726.185 Q242.57 717.435 245.625 712.852 Q248.704 708.245 254.514 708.245 Z" fill="#000000" fill-rule="nonzero" fill-opacity="1" /><path clip-path="url(#clip000)" d="M144.422 405.808 L174.098 405.808 L174.098 409.743 L144.422 409.743 L144.422 405.808 Z" fill="#000000" fill-rule="nonzero" fill-opacity="1" /><path clip-path="url(#clip000)" d="M188.218 418.701 L204.537 418.701 L204.537 422.636 L182.593 422.636 L182.593 418.701 Q185.255 415.947 189.838 411.317 Q194.445 406.664 195.625 405.322 Q197.871 402.799 198.75 401.062 Q199.653 399.303 199.653 397.613 Q199.653 394.859 197.709 393.123 Q195.787 391.387 192.686 391.387 Q190.487 391.387 188.033 392.15 Q185.602 392.914 182.825 394.465 L182.825 389.743 Q185.649 388.609 188.102 388.03 Q190.556 387.451 192.593 387.451 Q197.963 387.451 201.158 390.137 Q204.352 392.822 204.352 397.312 Q204.352 399.442 203.542 401.363 Q202.755 403.262 200.649 405.854 Q200.07 406.525 196.968 409.743 Q193.866 412.937 188.218 418.701 Z" fill="#000000" fill-rule="nonzero" fill-opacity="1" /><path clip-path="url(#clip000)" d="M214.399 388.076 L232.755 388.076 L232.755 392.012 L218.681 392.012 L218.681 400.484 Q219.699 400.137 220.718 399.975 Q221.736 399.789 222.755 399.789 Q228.542 399.789 231.922 402.961 Q235.301 406.132 235.301 411.549 Q235.301 417.127 231.829 420.229 Q228.357 423.308 222.037 423.308 Q219.861 423.308 217.593 422.937 Q215.348 422.567 212.94 421.826 L212.94 417.127 Q215.024 418.261 217.246 418.817 Q219.468 419.373 221.945 419.373 Q225.949 419.373 228.287 417.266 Q230.625 415.16 230.625 411.549 Q230.625 407.937 228.287 405.831 Q225.949 403.724 221.945 403.724 Q220.07 403.724 218.195 404.141 Q216.343 404.558 214.399 405.437 L214.399 388.076 Z" fill="#000000" fill-rule="nonzero" fill-opacity="1" /><path clip-path="url(#clip000)" d="M254.514 391.155 Q250.903 391.155 249.074 394.72 Q247.269 398.262 247.269 405.391 Q247.269 412.498 249.074 416.062 Q250.903 419.604 254.514 419.604 Q258.148 419.604 259.954 416.062 Q261.783 412.498 261.783 405.391 Q261.783 398.262 259.954 394.72 Q258.148 391.155 254.514 391.155 M254.514 387.451 Q260.324 387.451 263.38 392.058 Q266.458 396.641 266.458 405.391 Q266.458 414.118 263.38 418.724 Q260.324 423.308 254.514 423.308 Q248.704 423.308 245.625 418.724 Q242.57 414.118 242.57 405.391 Q242.57 396.641 245.625 392.058 Q248.704 387.451 254.514 387.451 Z" fill="#000000" fill-rule="nonzero" fill-opacity="1" /><path clip-path="url(#clip000)" d="M254.514 70.3613 Q250.903 70.3613 249.074 73.9261 Q247.269 77.4677 247.269 84.5973 Q247.269 91.7037 249.074 95.2685 Q250.903 98.8102 254.514 98.8102 Q258.148 98.8102 259.954 95.2685 Q261.783 91.7037 261.783 84.5973 Q261.783 77.4677 259.954 73.9261 Q258.148 70.3613 254.514 70.3613 M254.514 66.6576 Q260.324 66.6576 263.38 71.264 Q266.458 75.8473 266.458 84.5973 Q266.458 93.3241 263.38 97.9306 Q260.324 102.514 254.514 102.514 Q248.704 102.514 245.625 97.9306 Q242.57 93.3241 242.57 84.5973 Q242.57 75.8473 245.625 71.264 Q248.704 66.6576 254.514 66.6576 Z" fill="#000000" fill-rule="nonzero" fill-opacity="1" /><path clip-path="url(#clip000)" d="M28.3562 796.132 L28.3562 789.925 L58.275 778.785 L28.3562 767.645 L28.3562 761.439 L64.0042 774.807 L64.0042 782.764 L28.3562 796.132 Z" fill="#000000" fill-rule="nonzero" fill-opacity="1" /><path clip-path="url(#clip000)" d="M14.5426 739.286 Q21.8632 743.551 29.0246 745.62 Q36.186 747.689 43.5384 747.689 Q50.8908 747.689 58.1159 745.62 Q65.3091 743.519 72.5979 739.286 L72.5979 744.379 Q65.1182 749.153 57.8931 751.54 Q50.668 753.895 43.5384 753.895 Q36.4406 753.895 29.2474 751.54 Q22.0542 749.185 14.5426 744.379 L14.5426 739.286 Z" fill="#000000" fill-rule="nonzero" fill-opacity="1" /><path clip-path="url(#clip000)" d="M46.0847 711.723 Q46.0847 718.82 47.7079 721.558 Q49.3312 724.295 53.2461 724.295 Q56.3653 724.295 58.2114 722.258 Q60.0256 720.189 60.0256 716.656 Q60.0256 711.786 56.5881 708.858 Q53.1188 705.898 47.3897 705.898 L46.0847 705.898 L46.0847 711.723 M43.6657 700.041 L64.0042 700.041 L64.0042 705.898 L58.5933 705.898 Q61.8398 707.903 63.3994 710.895 Q64.9272 713.887 64.9272 718.216 Q64.9272 723.69 61.8716 726.937 Q58.7843 730.151 53.6281 730.151 Q47.6125 730.151 44.5569 726.141 Q41.5014 722.099 41.5014 714.11 L41.5014 705.898 L40.9285 705.898 Q36.8862 705.898 34.6901 708.571 Q32.4621 711.213 32.4621 716.019 Q32.4621 719.075 33.1941 721.971 Q33.9262 724.868 35.3903 727.541 L29.9795 727.541 Q28.7381 724.327 28.1334 721.303 Q27.4968 718.279 27.4968 715.415 Q27.4968 707.68 31.5072 703.861 Q35.5176 700.041 43.6657 700.041 Z" fill="#000000" fill-rule="nonzero" fill-opacity="1" /><path clip-path="url(#clip000)" d="M14.5426 688.901 L14.5426 683.809 Q22.0542 679.035 29.2474 676.679 Q36.4406 674.292 43.5384 674.292 Q50.668 674.292 57.8931 676.679 Q65.1182 679.035 72.5979 683.809 L72.5979 688.901 Q65.3091 684.668 58.1159 682.599 Q50.8908 680.499 43.5384 680.499 Q36.186 680.499 29.0246 682.599 Q21.8632 684.668 14.5426 688.901 Z" fill="#000000" fill-rule="nonzero" fill-opacity="1" /><polyline clip-path="url(#clip002)" style="stroke:#ff0000; stroke-linecap:round; stroke-linejoin:round; stroke-width:4; stroke-opacity:1; fill:none" points="360.486,165.718 376.74,101.865 392.994,96.9386 409.248,94.707 425.502,93.3651 441.756,92.4451 458.011,91.7639 474.265,91.2335 490.519,90.8053 506.773,90.4502 523.027,90.1495 539.281,89.8907 555.535,89.6647 571.79,89.4653 588.044,89.2876 604.298,89.1279 620.552,88.9834 636.806,88.8518 653.06,88.7312 669.314,88.6203 685.569,88.5178 701.823,88.4227 718.077,88.3342 734.331,88.2514 750.585,88.1739 766.839,88.1011 783.093,88.0325 799.348,87.9678 815.602,87.9065 831.856,87.8484 848.11,87.7933 864.364,87.7408 880.618,87.6909 896.872,87.6432 913.127,87.5976 929.381,87.554 945.635,87.5122 961.889,87.4721 978.143,87.4336 994.397,87.3966 1010.65,87.361 1026.91,87.3267 1043.16,87.2937 1059.41,87.2617 1075.67,87.2309 1091.92,87.2012 1108.18,87.1723 1124.43,87.1445 1140.68,87.1174 1156.94,87.0913 1173.19,87.0659 1189.45,87.0412 1205.7,87.0173 1221.96,86.9941 1238.21,86.9715 1254.46,86.9495 1270.72,86.9281 1286.97,86.9073 1303.23,86.887 1319.48,86.8672 1335.73,86.8479 1351.99,86.8292 1368.24,86.8108 1384.5,86.7929 1400.75,86.7754 1417,86.7584 1433.26,86.7417 1449.51,86.7254 1465.77,86.7094 1482.02,86.6938 1498.28,86.6785 1514.53,86.6636 1530.78,86.649 1547.04,86.6346 1563.29,86.6206 1579.55,86.6068 1595.8,86.5934 1612.05,86.5801 1628.31,86.5672 1644.56,86.5544 1660.82,86.542 1677.07,86.5297 1693.33,86.5177 1709.58,86.5059 1725.83,86.4943 1742.09,86.4829 1758.34,86.4717 1774.6,86.4607 1790.85,86.4499 1807.1,86.4393 1823.36,86.4288 1839.61,86.4185 1855.87,86.4084 1872.12,86.3985 1888.38,86.3887 1904.63,86.3791 1920.88,86.3696 1937.14,86.3603 1953.39,86.3511 1969.65,86.342 1985.9,86.3331 2002.15,86.3243 2018.41,86.3157 2034.66,86.3071 2050.92,86.2987 2067.17,86.2904 2083.42,86.2823 2099.68,86.2742 2115.93,86.2663 2132.19,86.2585 2148.44,86.2507 2164.7,86.2431 2180.95,86.2356 2197.2,86.2282 2213.46,86.2209 2229.71,86.2136 2245.97,86.2065 2262.22,86.1995 2278.47,86.1925 2294.73,86.1857 "/>
<polyline clip-path="url(#clip002)" style="stroke:#0000ff; stroke-linecap:round; stroke-linejoin:round; stroke-width:4; stroke-opacity:0.05; fill:none" points="360.486,246.546 376.74,151.801 392.994,118.882 409.248,113.267 425.502,108.966 441.756,106.569 458.011,104.526 474.265,103.12 490.519,101.868 506.773,100.916 523.027,100.05 539.281,99.3513 555.535,98.7057 571.79,98.1649 588.044,97.6602 604.298,97.2253 620.552,96.8168 636.806,96.4572 653.06,96.1178 669.314,95.814 685.569,95.5263 701.823,95.2652 718.077,95.0172 734.331,94.7896 750.585,94.573 766.839,94.3722 783.093,94.181 799.348,94.0022 815.602,93.8317 831.856,93.6712 848.11,93.5179 864.364,93.3727 880.618,93.2339 896.872,93.1017 913.127,92.9754 929.381,92.8544 945.635,92.7386 961.889,92.6273 978.143,92.5208 994.397,92.418 1010.65,92.3196 1026.91,92.2241 1043.16,92.1328 1059.41,92.044 1075.67,91.9589 1091.92,91.876 1108.18,91.7965 1124.43,91.7188 1140.68,91.6443 1156.94,91.5714 1173.19,91.5014 1189.45,91.4327 1205.7,91.3667 1221.96,91.3019 1238.21,91.2396 1254.46,91.1783 1270.72,91.1194 1286.97,91.0613 1303.23,91.0054 1319.48,90.9503 1335.73,90.8972 1351.99,90.8448 1368.24,90.7943 1384.5,90.7443 1400.75,90.6962 1417,90.6486 1433.26,90.6026 1449.51,90.5571 1465.77,90.5131 1482.02,90.4697 1498.28,90.4276 1514.53,90.3859 1530.78,90.3456 1547.04,90.3056 1563.29,90.2669 1579.55,90.2286 1595.8,90.1914 1612.05,90.1546 1628.31,90.1188 1644.56,90.0834 1660.82,90.0489 1677.07,90.0148 1693.33,89.9817 1709.58,89.9488 1725.83,89.9168 1742.09,89.8851 1758.34,89.8542 1774.6,89.8236 1790.85,89.7937 1807.1,89.7642 1823.36,89.7353 1839.61,89.7067 1855.87,89.6788 1872.12,89.6511 1888.38,89.6241 1904.63,89.5973 1920.88,89.5711 1937.14,89.5452 1953.39,89.5198 1969.65,89.4946 1985.9,89.4699 2002.15,89.4456 2018.41,89.4216 2034.66,89.398 2050.92,89.3747 2067.17,89.3517 2083.42,89.3291 2099.68,89.3068 2115.93,89.2848 2132.19,89.2631 2148.44,89.2416 2164.7,89.2205 2180.95,89.1997 2197.2,89.1792 2213.46,89.1588 2229.71,89.1389 2245.97,89.1191 2262.22,89.0996 2278.47,89.0803 2294.73,89.0613 "/>
<polyline clip-path="url(#clip002)" style="stroke:#0000ff; stroke-linecap:round; stroke-linejoin:round; stroke-width:4; stroke-opacity:0.1; fill:none" points="360.486,325.553 376.74,206.856 392.994,158.105 409.248,135.219 425.502,129.242 441.756,124.46 458.011,120.512 474.265,118.039 490.519,115.878 506.773,113.952 523.027,112.518 539.281,111.222 555.535,110.03 571.79,109.067 588.044,108.179 604.298,107.35 620.552,106.646 636.806,105.989 653.06,105.37 669.314,104.826 685.569,104.314 701.823,103.83 718.077,103.393 734.331,102.98 750.585,102.588 766.839,102.227 783.093,101.885 799.348,101.559 815.602,101.254 831.856,100.964 848.11,100.688 864.364,100.426 880.618,100.177 896.872,99.9383 913.127,99.7107 929.381,99.4928 945.635,99.2843 961.889,99.084 978.143,98.8916 994.397,98.7073 1010.65,98.5291 1026.91,98.3577 1043.16,98.1932 1059.41,98.0334 1075.67,97.8794 1091.92,97.7313 1108.18,97.587 1124.43,97.4476 1140.68,97.3134 1156.94,97.1822 1173.19,97.0553 1189.45,96.9329 1205.7,96.813 1221.96,96.6969 1238.21,96.5845 1254.46,96.4744 1270.72,96.3676 1286.97,96.264 1303.23,96.1625 1319.48,96.0637 1335.73,95.9678 1351.99,95.8738 1368.24,95.7822 1384.5,95.6931 1400.75,95.6057 1417,95.5204 1433.26,95.4372 1449.51,95.3558 1465.77,95.2761 1482.02,95.1983 1498.28,95.1221 1514.53,95.0475 1530.78,94.9744 1547.04,94.903 1563.29,94.8328 1579.55,94.7641 1595.8,94.6969 1612.05,94.6309 1628.31,94.5661 1644.56,94.5027 1660.82,94.4404 1677.07,94.3791 1693.33,94.3193 1709.58,94.2604 1725.83,94.2023 1742.09,94.1457 1758.34,94.0898 1774.6,94.0347 1790.85,93.981 1807.1,93.9279 1823.36,93.8755 1839.61,93.8245 1855.87,93.774 1872.12,93.7241 1888.38,93.6756 1904.63,93.6275 1920.88,93.5799 1937.14,93.5336 1953.39,93.4877 1969.65,93.4423 1985.9,93.3981 2002.15,93.3542 2018.41,93.3108 2034.66,93.2685 2050.92,93.2265 2067.17,93.185 2083.42,93.1444 2099.68,93.1043 2115.93,93.0644 2132.19,93.0256 2148.44,92.987 2164.7,92.9488 2180.95,92.9115 2197.2,92.8745 2213.46,92.8377 2229.71,92.8019 2245.97,92.7663 2262.22,92.731 2278.47,92.6965 2294.73,92.6623 "/>
<polyline clip-path="url(#clip002)" style="stroke:#0000ff; stroke-linecap:round; stroke-linejoin:round; stroke-width:4; stroke-opacity:0.15; fill:none" points="360.486,402.494 376.74,264.215 392.994,201.436 409.248,169.155 425.502,150.902 441.756,144.704 458.011,139.614 474.265,135.304 490.519,131.597 506.773,129.081 523.027,126.852 539.281,124.838 555.535,123.001 571.79,121.554 588.044,120.233 604.298,119.008 620.552,117.866 636.806,116.897 653.06,115.999 669.314,115.154 685.569,114.359 701.823,113.652 718.077,112.99 734.331,112.361 750.585,111.767 766.839,111.222 783.093,110.708 799.348,110.218 815.602,109.752 831.856,109.315 848.11,108.901 864.364,108.505 880.618,108.127 896.872,107.767 913.127,107.424 929.381,107.095 945.635,106.78 961.889,106.477 978.143,106.187 994.397,105.908 1010.65,105.64 1026.91,105.381 1043.16,105.131 1059.41,104.892 1075.67,104.66 1091.92,104.435 1108.18,104.217 1124.43,104.008 1140.68,103.805 1156.94,103.607 1173.19,103.415 1189.45,103.23 1205.7,103.05 1221.96,102.874 1238.21,102.704 1254.46,102.538 1270.72,102.377 1286.97,102.22 1303.23,102.067 1319.48,101.919 1335.73,101.774 1351.99,101.632 1368.24,101.493 1384.5,101.359 1400.75,101.227 1417,101.099 1433.26,100.973 1449.51,100.85 1465.77,100.73 1482.02,100.612 1498.28,100.497 1514.53,100.385 1530.78,100.274 1547.04,100.166 1563.29,100.061 1579.55,99.9571 1595.8,99.8553 1612.05,99.7559 1628.31,99.6583 1644.56,99.5624 1660.82,99.4682 1677.07,99.3762 1693.33,99.2857 1709.58,99.1967 1725.83,99.1091 1742.09,99.0235 1758.34,98.9393 1774.6,98.8564 1790.85,98.7748 1807.1,98.6949 1823.36,98.6163 1839.61,98.5388 1855.87,98.4625 1872.12,98.3878 1888.38,98.3141 1904.63,98.2415 1920.88,98.17 1937.14,98.0998 1953.39,98.0306 1969.65,97.9624 1985.9,97.8952 2002.15,97.8291 2018.41,97.764 2034.66,97.6997 2050.92,97.6364 2067.17,97.574 2083.42,97.5125 2099.68,97.4519 2115.93,97.3921 2132.19,97.3331 2148.44,97.2749 2164.7,97.2176 2180.95,97.161 2197.2,97.1051 2213.46,97.05 2229.71,96.9957 2245.97,96.942 2262.22,96.8889 2278.47,96.8365 2294.73,96.785 "/>
<polyline clip-path="url(#clip002)" style="stroke:#0000ff; stroke-linecap:round; stroke-linejoin:round; stroke-width:4; stroke-opacity:0.2; fill:none" points="360.486,477.254 376.74,322.53 392.994,247.103 409.248,206.103 425.502,181.6 441.756,165.958 458.011,159.616 474.265,154.315 490.519,149.75 506.773,145.76 523.027,142.238 539.281,139.697 555.535,137.427 571.79,135.356 588.044,133.449 604.298,131.688 620.552,130.234 636.806,128.9 653.06,127.656 669.314,126.485 685.569,125.389 701.823,124.417 718.077,123.514 734.331,122.661 750.585,121.85 766.839,121.085 783.093,120.379 799.348,119.714 815.602,119.082 831.856,118.479 848.11,117.905 864.364,117.363 880.618,116.848 896.872,116.356 913.127,115.885 929.381,115.433 945.635,115 961.889,114.586 978.143,114.189 994.397,113.807 1010.65,113.44 1026.91,113.085 1043.16,112.742 1059.41,112.412 1075.67,112.095 1091.92,111.788 1108.18,111.49 1124.43,111.201 1140.68,110.922 1156.94,110.653 1173.19,110.391 1189.45,110.136 1205.7,109.888 1221.96,109.648 1238.21,109.416 1254.46,109.189 1270.72,108.968 1286.97,108.752 1303.23,108.543 1319.48,108.339 1335.73,108.141 1351.99,107.947 1368.24,107.757 1384.5,107.572 1400.75,107.392 1417,107.216 1433.26,107.043 1449.51,106.875 1465.77,106.71 1482.02,106.549 1498.28,106.392 1514.53,106.237 1530.78,106.087 1547.04,105.939 1563.29,105.794 1579.55,105.652 1595.8,105.512 1612.05,105.376 1628.31,105.242 1644.56,105.111 1660.82,104.982 1677.07,104.856 1693.33,104.732 1709.58,104.61 1725.83,104.49 1742.09,104.373 1758.34,104.257 1774.6,104.144 1790.85,104.032 1807.1,103.923 1823.36,103.815 1839.61,103.709 1855.87,103.604 1872.12,103.502 1888.38,103.401 1904.63,103.301 1920.88,103.203 1937.14,103.107 1953.39,103.012 1969.65,102.919 1985.9,102.827 2002.15,102.736 2018.41,102.647 2034.66,102.559 2050.92,102.472 2067.17,102.387 2083.42,102.303 2099.68,102.22 2115.93,102.138 2132.19,102.057 2148.44,101.977 2164.7,101.899 2180.95,101.821 2197.2,101.745 2213.46,101.669 2229.71,101.595 2245.97,101.521 2262.22,101.448 2278.47,101.377 2294.73,101.306 "/>
<polyline clip-path="url(#clip002)" style="stroke:#0000ff; stroke-linecap:round; stroke-linejoin:round; stroke-width:4; stroke-opacity:0.25; fill:none" points="360.486,549.774 376.74,381.012 392.994,294.12 409.248,244.919 425.502,214.509 441.756,194.38 458.011,180.412 474.265,173.972 490.519,168.522 506.773,163.772 523.027,159.572 539.281,155.822 555.535,152.454 571.79,149.898 588.044,147.601 604.298,145.494 620.552,143.54 636.806,141.718 653.06,140.027 669.314,138.569 685.569,137.228 701.823,135.972 718.077,134.786 734.331,133.663 750.585,132.607 766.839,131.638 783.093,130.732 799.348,129.874 815.602,129.057 831.856,128.278 848.11,127.537 864.364,126.836 880.618,126.172 896.872,125.538 913.127,124.931 929.381,124.351 945.635,123.792 961.889,123.257 978.143,122.743 994.397,122.25 1010.65,121.777 1026.91,121.322 1043.16,120.882 1059.41,120.456 1075.67,120.044 1091.92,119.646 1108.18,119.264 1124.43,118.894 1140.68,118.535 1156.94,118.186 1173.19,117.847 1189.45,117.518 1205.7,117.2 1221.96,116.892 1238.21,116.592 1254.46,116.299 1270.72,116.013 1286.97,115.736 1303.23,115.466 1319.48,115.204 1335.73,114.948 1351.99,114.697 1368.24,114.453 1384.5,114.215 1400.75,113.982 1417,113.755 1433.26,113.533 1449.51,113.316 1465.77,113.104 1482.02,112.896 1498.28,112.693 1514.53,112.494 1530.78,112.3 1547.04,112.109 1563.29,111.923 1579.55,111.74 1595.8,111.56 1612.05,111.384 1628.31,111.212 1644.56,111.043 1660.82,110.877 1677.07,110.714 1693.33,110.554 1709.58,110.397 1725.83,110.242 1742.09,110.091 1758.34,109.942 1774.6,109.796 1790.85,109.653 1807.1,109.511 1823.36,109.372 1839.61,109.235 1855.87,109.101 1872.12,108.969 1888.38,108.839 1904.63,108.71 1920.88,108.584 1937.14,108.46 1953.39,108.338 1969.65,108.218 1985.9,108.099 2002.15,107.982 2018.41,107.867 2034.66,107.754 2050.92,107.642 2067.17,107.532 2083.42,107.423 2099.68,107.316 2115.93,107.211 2132.19,107.107 2148.44,107.004 2164.7,106.903 2180.95,106.803 2197.2,106.704 2213.46,106.607 2229.71,106.511 2245.97,106.416 2262.22,106.322 2278.47,106.23 2294.73,106.139 "/>
<polyline clip-path="url(#clip002)" style="stroke:#0000ff; stroke-linecap:round; stroke-linejoin:round; stroke-width:4; stroke-opacity:0.3; fill:none" points="360.486,620.036 376.74,439.152 392.994,341.841 409.248,284.919 425.502,248.848 441.756,224.444 458.011,207.083 474.265,194.287 490.519,187.779 506.773,182.222 523.027,177.336 539.281,172.977 555.535,169.051 571.79,165.492 588.044,162.26 604.298,159.696 620.552,157.382 636.806,155.25 653.06,153.265 669.314,151.404 685.569,149.657 701.823,148.029 718.077,146.573 734.331,145.228 750.585,143.965 766.839,142.77 783.093,141.632 799.348,140.553 815.602,139.529 831.856,138.568 848.11,137.663 864.364,136.803 880.618,135.982 896.872,135.197 913.127,134.445 929.381,133.723 945.635,133.032 961.889,132.371 978.143,131.737 994.397,131.129 1010.65,130.545 1026.91,129.982 1043.16,129.437 1059.41,128.911 1075.67,128.402 1091.92,127.91 1108.18,127.436 1124.43,126.979 1140.68,126.537 1156.94,126.106 1173.19,125.688 1189.45,125.281 1205.7,124.886 1221.96,124.504 1238.21,124.133 1254.46,123.773 1270.72,123.422 1286.97,123.079 1303.23,122.744 1319.48,122.419 1335.73,122.102 1351.99,121.793 1368.24,121.492 1384.5,121.198 1400.75,120.911 1417,120.63 1433.26,120.355 1449.51,120.087 1465.77,119.825 1482.02,119.568 1498.28,119.318 1514.53,119.072 1530.78,118.832 1547.04,118.596 1563.29,118.365 1579.55,118.139 1595.8,117.917 1612.05,117.7 1628.31,117.487 1644.56,117.278 1660.82,117.073 1677.07,116.872 1693.33,116.674 1709.58,116.48 1725.83,116.289 1742.09,116.102 1758.34,115.918 1774.6,115.738 1790.85,115.56 1807.1,115.385 1823.36,115.213 1839.61,115.044 1855.87,114.878 1872.12,114.715 1888.38,114.555 1904.63,114.396 1920.88,114.241 1937.14,114.087 1953.39,113.936 1969.65,113.787 1985.9,113.641 2002.15,113.497 2018.41,113.354 2034.66,113.214 2050.92,113.076 2067.17,112.94 2083.42,112.806 2099.68,112.674 2115.93,112.543 2132.19,112.415 2148.44,112.288 2164.7,112.163 2180.95,112.039 2197.2,111.917 2213.46,111.797 2229.71,111.678 2245.97,111.561 2262.22,111.446 2278.47,111.332 2294.73,111.219 "/>
<polyline clip-path="url(#clip002)" style="stroke:#0000ff; stroke-linecap:round; stroke-linejoin:round; stroke-width:4; stroke-opacity:0.35; fill:none" points="360.486,688.041 376.74,496.604 392.994,389.812 409.248,325.63 425.502,284.128 441.756,255.589 458.011,234.981 474.265,219.525 490.519,207.608 506.773,201.052 523.027,195.417 539.281,190.428 555.535,185.947 571.79,181.885 588.044,178.177 604.298,174.777 620.552,171.675 636.806,169.104 653.06,166.78 669.314,164.632 685.569,162.625 701.823,160.737 718.077,158.955 734.331,157.277 750.585,155.703 766.839,154.256 783.093,152.91 799.348,151.643 815.602,150.442 831.856,149.296 848.11,148.204 864.364,147.162 880.618,146.165 896.872,145.217 913.127,144.316 929.381,143.456 945.635,142.633 961.889,141.845 978.143,141.088 994.397,140.359 1010.65,139.655 1026.91,138.975 1043.16,138.32 1059.41,137.688 1075.67,137.08 1091.92,136.495 1108.18,135.93 1124.43,135.382 1140.68,134.85 1156.94,134.332 1173.19,133.83 1189.45,133.342 1205.7,132.869 1221.96,132.412 1238.21,131.968 1254.46,131.537 1270.72,131.116 1286.97,130.705 1303.23,130.304 1319.48,129.914 1335.73,129.533 1351.99,129.163 1368.24,128.803 1384.5,128.451 1400.75,128.107 1417,127.77 1433.26,127.442 1449.51,127.12 1465.77,126.805 1482.02,126.498 1498.28,126.197 1514.53,125.903 1530.78,125.615 1547.04,125.333 1563.29,125.057 1579.55,124.786 1595.8,124.52 1612.05,124.26 1628.31,124.004 1644.56,123.754 1660.82,123.508 1677.07,123.267 1693.33,123.03 1709.58,122.798 1725.83,122.57 1742.09,122.346 1758.34,122.125 1774.6,121.908 1790.85,121.695 1807.1,121.486 1823.36,121.281 1839.61,121.079 1855.87,120.88 1872.12,120.684 1888.38,120.491 1904.63,120.301 1920.88,120.115 1937.14,119.931 1953.39,119.75 1969.65,119.572 1985.9,119.397 2002.15,119.224 2018.41,119.053 2034.66,118.886 2050.92,118.72 2067.17,118.557 2083.42,118.396 2099.68,118.238 2115.93,118.082 2132.19,117.927 2148.44,117.776 2164.7,117.626 2180.95,117.478 2197.2,117.332 2213.46,117.188 2229.71,117.045 2245.97,116.905 2262.22,116.767 2278.47,116.63 2294.73,116.495 "/>
<polyline clip-path="url(#clip002)" style="stroke:#0000ff; stroke-linecap:round; stroke-linejoin:round; stroke-width:4; stroke-opacity:0.4; fill:none" points="360.486,753.808 376.74,553.125 392.994,437.697 409.248,366.702 425.502,320.001 441.756,287.457 458.011,263.692 474.265,245.678 490.519,231.619 506.773,220.396 523.027,213.806 539.281,208.114 555.535,203.048 571.79,198.473 588.044,194.303 604.298,190.478 620.552,186.952 636.806,183.691 653.06,180.708 669.314,178.139 685.569,175.808 701.823,173.648 718.077,171.626 734.331,169.72 750.585,167.915 766.839,166.204 783.093,164.588 799.348,163.059 815.602,161.628 831.856,160.285 848.11,159.017 864.364,157.812 880.618,156.661 896.872,155.561 913.127,154.509 929.381,153.498 945.635,152.527 961.889,151.594 978.143,150.7 994.397,149.844 1010.65,149.021 1026.91,148.23 1043.16,147.471 1059.41,146.738 1075.67,146.028 1091.92,145.34 1108.18,144.673 1124.43,144.026 1140.68,143.4 1156.94,142.793 1173.19,142.208 1189.45,141.642 1205.7,141.092 1221.96,140.558 1238.21,140.037 1254.46,139.53 1270.72,139.035 1286.97,138.553 1303.23,138.084 1319.48,137.627 1335.73,137.184 1351.99,136.751 1368.24,136.33 1384.5,135.918 1400.75,135.515 1417,135.121 1433.26,134.736 1449.51,134.359 1465.77,133.991 1482.02,133.631 1498.28,133.279 1514.53,132.935 1530.78,132.598 1547.04,132.268 1563.29,131.945 1579.55,131.628 1595.8,131.317 1612.05,131.012 1628.31,130.713 1644.56,130.42 1660.82,130.132 1677.07,129.85 1693.33,129.573 1709.58,129.301 1725.83,129.035 1742.09,128.772 1758.34,128.514 1774.6,128.261 1790.85,128.011 1807.1,127.766 1823.36,127.525 1839.61,127.289 1855.87,127.056 1872.12,126.827 1888.38,126.602 1904.63,126.38 1920.88,126.162 1937.14,125.947 1953.39,125.735 1969.65,125.526 1985.9,125.321 2002.15,125.119 2018.41,124.919 2034.66,124.723 2050.92,124.53 2067.17,124.339 2083.42,124.151 2099.68,123.965 2115.93,123.782 2132.19,123.602 2148.44,123.424 2164.7,123.249 2180.95,123.076 2197.2,122.905 2213.46,122.736 2229.71,122.57 2245.97,122.406 2262.22,122.244 2278.47,122.084 2294.73,121.926 "/>
<polyline clip-path="url(#clip002)" style="stroke:#0000ff; stroke-linecap:round; stroke-linejoin:round; stroke-width:4; stroke-opacity:0.45; fill:none" points="360.486,817.368 376.74,608.542 392.994,485.246 409.248,407.866 425.502,356.198 441.756,319.782 458.011,292.944 474.265,272.438 490.519,256.308 506.773,243.322 523.027,232.672 539.281,226.057 555.535,220.323 571.79,215.2 588.044,210.552 604.298,206.298 620.552,202.379 636.806,198.751 653.06,195.379 669.314,192.249 685.569,189.369 701.823,186.811 718.077,184.477 734.331,182.311 750.585,180.279 766.839,178.36 783.093,176.538 799.348,174.805 815.602,173.161 831.856,171.597 848.11,170.108 864.364,168.698 880.618,167.363 896.872,166.097 913.127,164.891 929.381,163.737 945.635,162.632 961.889,161.573 978.143,160.554 994.397,159.571 1010.65,158.623 1026.91,157.707 1043.16,156.824 1059.41,155.973 1075.67,155.152 1091.92,154.362 1108.18,153.601 1124.43,152.866 1140.68,152.153 1156.94,151.461 1173.19,150.789 1189.45,150.134 1205.7,149.497 1221.96,148.878 1238.21,148.276 1254.46,147.693 1270.72,147.126 1286.97,146.576 1303.23,146.041 1319.48,145.519 1335.73,145.009 1351.99,144.512 1368.24,144.025 1384.5,143.55 1400.75,143.085 1417,142.632 1433.26,142.19 1449.51,141.758 1465.77,141.336 1482.02,140.924 1498.28,140.52 1514.53,140.125 1530.78,139.738 1547.04,139.359 1563.29,138.987 1579.55,138.622 1595.8,138.265 1612.05,137.914 1628.31,137.571 1644.56,137.234 1660.82,136.903 1677.07,136.58 1693.33,136.262 1709.58,135.95 1725.83,135.643 1742.09,135.342 1758.34,135.045 1774.6,134.754 1790.85,134.467 1807.1,134.186 1823.36,133.909 1839.61,133.637 1855.87,133.37 1872.12,133.108 1888.38,132.849 1904.63,132.594 1920.88,132.343 1937.14,132.096 1953.39,131.853 1969.65,131.613 1985.9,131.377 2002.15,131.144 2018.41,130.916 2034.66,130.69 2050.92,130.468 2067.17,130.249 2083.42,130.033 2099.68,129.82 2115.93,129.61 2132.19,129.403 2148.44,129.198 2164.7,128.997 2180.95,128.798 2197.2,128.602 2213.46,128.408 2229.71,128.217 2245.97,128.028 2262.22,127.843 2278.47,127.659 2294.73,127.477 "/>
<polyline clip-path="url(#clip002)" style="stroke:#0000ff; stroke-linecap:round; stroke-linejoin:round; stroke-width:4; stroke-opacity:0.5; fill:none" points="360.486,878.757 376.74,662.732 392.994,532.263 409.248,448.91 425.502,392.51 441.756,352.358 458.011,322.533 474.265,299.593 490.519,281.443 506.773,266.745 523.027,254.616 539.281,244.457 555.535,237.825 571.79,232.06 588.044,226.892 604.298,222.189 620.552,217.869 636.806,213.875 653.06,210.164 669.314,206.703 685.569,203.468 701.823,200.46 718.077,197.668 734.331,195.133 750.585,192.802 766.839,190.631 783.093,188.593 799.348,186.664 815.602,184.831 831.856,183.084 848.11,181.419 864.364,179.832 880.618,178.314 896.872,176.862 913.127,175.475 929.381,174.153 945.635,172.893 961.889,171.687 978.143,170.532 994.397,169.425 1010.65,168.362 1026.91,167.337 1043.16,166.348 1059.41,165.391 1075.67,164.464 1091.92,163.565 1108.18,162.695 1124.43,161.852 1140.68,161.036 1156.94,160.249 1173.19,159.488 1189.45,158.751 1205.7,158.037 1221.96,157.343 1238.21,156.668 1254.46,156.009 1270.72,155.367 1286.97,154.741 1303.23,154.13 1319.48,153.535 1335.73,152.955 1351.99,152.391 1368.24,151.842 1384.5,151.306 1400.75,150.783 1417,150.273 1433.26,149.774 1449.51,149.285 1465.77,148.807 1482.02,148.339 1498.28,147.881 1514.53,147.433 1530.78,146.994 1547.04,146.564 1563.29,146.143 1579.55,145.73 1595.8,145.327 1612.05,144.931 1628.31,144.543 1644.56,144.163 1660.82,143.789 1677.07,143.423 1693.33,143.062 1709.58,142.709 1725.83,142.361 1742.09,142.019 1758.34,141.683 1774.6,141.353 1790.85,141.03 1807.1,140.712 1823.36,140.399 1839.61,140.092 1855.87,139.79 1872.12,139.492 1888.38,139.199 1904.63,138.911 1920.88,138.626 1937.14,138.347 1953.39,138.071 1969.65,137.8 1985.9,137.533 2002.15,137.27 2018.41,137.011 2034.66,136.756 2050.92,136.505 2067.17,136.257 2083.42,136.012 2099.68,135.772 2115.93,135.534 2132.19,135.299 2148.44,135.068 2164.7,134.84 2180.95,134.615 2197.2,134.393 2213.46,134.174 2229.71,133.957 2245.97,133.744 2262.22,133.534 2278.47,133.326 2294.73,133.121 "/>
<polyline clip-path="url(#clip002)" style="stroke:#0000ff; stroke-linecap:round; stroke-linejoin:round; stroke-width:4; stroke-opacity:0.55; fill:none" points="360.486,938.02 376.74,715.608 392.994,578.599 409.248,489.667 425.502,428.768 441.756,385.021 458.011,352.296 474.265,326.983 490.519,306.856 506.773,290.485 523.027,276.917 539.281,265.495 555.535,255.771 571.79,249.126 588.044,243.338 604.298,238.137 620.552,233.391 636.806,229.019 653.06,224.965 669.314,221.188 685.569,217.655 701.823,214.34 718.077,211.235 734.331,208.334 750.585,205.62 766.839,203.114 783.093,200.792 799.348,198.621 815.602,196.578 831.856,194.644 848.11,192.803 864.364,191.045 880.618,189.367 896.872,187.763 913.127,186.225 929.381,184.75 945.635,183.332 961.889,181.97 978.143,180.664 994.397,179.412 1010.65,178.211 1026.91,177.057 1043.16,175.948 1059.41,174.883 1075.67,173.855 1091.92,172.861 1108.18,171.899 1124.43,170.965 1140.68,170.058 1156.94,169.177 1173.19,168.321 1189.45,167.489 1205.7,166.681 1221.96,165.897 1238.21,165.138 1254.46,164.402 1270.72,163.687 1286.97,162.992 1303.23,162.315 1319.48,161.655 1335.73,161.01 1351.99,160.381 1368.24,159.765 1384.5,159.164 1400.75,158.576 1417,158.002 1433.26,157.442 1449.51,156.895 1465.77,156.36 1482.02,155.838 1498.28,155.327 1514.53,154.827 1530.78,154.338 1547.04,153.859 1563.29,153.389 1579.55,152.929 1595.8,152.478 1612.05,152.035 1628.31,151.6 1644.56,151.173 1660.82,150.755 1677.07,150.344 1693.33,149.941 1709.58,149.545 1725.83,149.157 1742.09,148.776 1758.34,148.403 1774.6,148.035 1790.85,147.674 1807.1,147.318 1823.36,146.969 1839.61,146.624 1855.87,146.286 1872.12,145.952 1888.38,145.624 1904.63,145.301 1920.88,144.984 1937.14,144.672 1953.39,144.364 1969.65,144.062 1985.9,143.764 2002.15,143.47 2018.41,143.181 2034.66,142.895 2050.92,142.614 2067.17,142.337 2083.42,142.063 2099.68,141.794 2115.93,141.528 2132.19,141.266 2148.44,141.007 2164.7,140.752 2180.95,140.501 2197.2,140.253 2213.46,140.008 2229.71,139.767 2245.97,139.528 2262.22,139.293 2278.47,139.061 2294.73,138.831 "/>
<polyline clip-path="url(#clip002)" style="stroke:#0000ff; stroke-linecap:round; stroke-linejoin:round; stroke-width:4; stroke-opacity:0.6; fill:none" points="360.486,995.204 376.74,767.111 392.994,624.137 409.248,530.002 425.502,464.835 441.756,417.634 458.011,382.102 474.265,354.477 490.519,332.419 506.773,314.411 523.027,299.434 539.281,286.784 555.535,275.958 571.79,266.632 588.044,259.978 604.298,254.173 620.552,248.947 636.806,244.168 653.06,239.756 669.314,235.654 685.569,231.823 701.823,228.231 718.077,224.853 734.331,221.672 750.585,218.685 766.839,215.878 783.093,213.235 799.348,210.766 815.602,208.458 831.856,206.292 848.11,204.248 864.364,202.309 880.618,200.463 896.872,198.698 913.127,197.01 929.381,195.394 945.635,193.843 961.889,192.35 978.143,190.913 994.397,189.528 1010.65,188.192 1026.91,186.904 1043.16,185.665 1059.41,184.47 1075.67,183.32 1091.92,182.212 1108.18,181.145 1124.43,180.116 1140.68,179.12 1156.94,178.154 1173.19,177.216 1189.45,176.304 1205.7,175.417 1221.96,174.553 1238.21,173.711 1254.46,172.891 1270.72,172.092 1286.97,171.315 1303.23,170.56 1319.48,169.826 1335.73,169.112 1351.99,168.417 1368.24,167.739 1384.5,167.078 1400.75,166.432 1417,165.8 1433.26,165.182 1449.51,164.578 1465.77,163.986 1482.02,163.407 1498.28,162.841 1514.53,162.285 1530.78,161.742 1547.04,161.21 1563.29,160.689 1579.55,160.179 1595.8,159.68 1612.05,159.19 1628.31,158.71 1644.56,158.24 1660.82,157.779 1677.07,157.326 1693.33,156.881 1709.58,156.444 1725.83,156.015 1742.09,155.593 1758.34,155.177 1774.6,154.769 1790.85,154.368 1807.1,153.974 1823.36,153.587 1839.61,153.206 1855.87,152.832 1872.12,152.464 1888.38,152.103 1904.63,151.747 1920.88,151.396 1937.14,151.051 1953.39,150.711 1969.65,150.376 1985.9,150.045 2002.15,149.72 2018.41,149.399 2034.66,149.083 2050.92,148.772 2067.17,148.465 2083.42,148.163 2099.68,147.865 2115.93,147.571 2132.19,147.281 2148.44,146.996 2164.7,146.714 2180.95,146.436 2197.2,146.162 2213.46,145.891 2229.71,145.624 2245.97,145.36 2262.22,145.099 2278.47,144.842 2294.73,144.588 "/>
<polyline clip-path="url(#clip002)" style="stroke:#0000ff; stroke-linecap:round; stroke-linejoin:round; stroke-width:4; stroke-opacity:0.65; fill:none" points="360.486,1050.36 376.74,817.202 392.994,668.788 409.248,569.805 425.502,500.597 441.756,450.088 458.011,411.843 474.265,381.972 490.519,358.029 506.773,338.418 523.027,322.062 539.281,308.209 555.535,296.323 571.79,286.012 588.044,277.059 604.298,270.398 620.552,264.58 636.806,259.336 653.06,254.532 669.314,250.088 685.569,245.949 701.823,242.075 718.077,238.435 734.331,235.005 750.585,231.764 766.839,228.708 783.093,225.827 799.348,223.104 815.602,220.527 831.856,218.097 848.11,215.81 864.364,213.653 880.618,211.611 896.872,209.671 913.127,207.821 929.381,206.051 945.635,204.357 961.889,202.733 978.143,201.171 994.397,199.667 1010.65,198.216 1026.91,196.815 1043.16,195.46 1059.41,194.15 1075.67,192.883 1091.92,191.657 1108.18,190.473 1124.43,189.329 1140.68,188.224 1156.94,187.159 1173.19,186.128 1189.45,185.13 1205.7,184.162 1221.96,183.222 1238.21,182.307 1254.46,181.416 1270.72,180.547 1286.97,179.7 1303.23,178.872 1319.48,178.065 1335.73,177.277 1351.99,176.509 1368.24,175.76 1384.5,175.03 1400.75,174.319 1417,173.624 1433.26,172.947 1449.51,172.285 1465.77,171.639 1482.02,171.006 1498.28,170.387 1514.53,169.781 1530.78,169.187 1547.04,168.605 1563.29,168.035 1579.55,167.476 1595.8,166.927 1612.05,166.389 1628.31,165.861 1644.56,165.343 1660.82,164.835 1677.07,164.337 1693.33,163.848 1709.58,163.369 1725.83,162.898 1742.09,162.436 1758.34,161.983 1774.6,161.537 1790.85,161.099 1807.1,160.669 1823.36,160.245 1839.61,159.827 1855.87,159.417 1872.12,159.012 1888.38,158.614 1904.63,158.222 1920.88,157.837 1937.14,157.457 1953.39,157.084 1969.65,156.717 1985.9,156.355 2002.15,155.999 2018.41,155.648 2034.66,155.303 2050.92,154.962 2067.17,154.626 2083.42,154.295 2099.68,153.968 2115.93,153.646 2132.19,153.328 2148.44,153.014 2164.7,152.705 2180.95,152.4 2197.2,152.098 2213.46,151.801 2229.71,151.508 2245.97,151.219 2262.22,150.933 2278.47,150.651 2294.73,150.373 "/>
<polyline clip-path="url(#clip002)" style="stroke:#0000ff; stroke-linecap:round; stroke-linejoin:round; stroke-width:4; stroke-opacity:0.7; fill:none" points="360.486,1103.54 376.74,865.858 392.994,712.483 409.248,608.989 425.502,535.961 441.756,482.289 458.011,441.428 474.265,409.377 490.519,383.598 506.773,362.422 523.027,344.715 539.281,329.684 555.535,316.76 571.79,305.523 588.044,295.663 604.298,287.066 620.552,280.403 636.806,274.576 653.06,269.317 669.314,264.494 685.569,260.026 701.823,255.858 718.077,251.949 734.331,248.271 750.585,244.797 766.839,241.509 783.093,238.398 799.348,235.456 815.602,232.669 831.856,230.022 848.11,227.506 864.364,225.119 880.618,222.858 896.872,220.714 913.127,218.678 929.381,216.74 945.635,214.888 961.889,213.116 978.143,211.416 994.397,209.786 1010.65,208.217 1026.91,206.705 1043.16,205.244 1059.41,203.831 1075.67,202.463 1091.92,201.138 1108.18,199.853 1124.43,198.607 1140.68,197.399 1156.94,196.227 1173.19,195.092 1189.45,193.993 1205.7,192.93 1221.96,191.901 1238.21,190.903 1254.46,189.934 1270.72,188.991 1286.97,188.074 1303.23,187.181 1319.48,186.309 1335.73,185.458 1351.99,184.627 1368.24,183.814 1384.5,183.02 1400.75,182.244 1417,181.486 1433.26,180.745 1449.51,180.021 1465.77,179.313 1482.02,178.621 1498.28,177.945 1514.53,177.284 1530.78,176.638 1547.04,176.005 1563.29,175.385 1579.55,174.778 1595.8,174.184 1612.05,173.6 1628.31,173.028 1644.56,172.467 1660.82,171.916 1677.07,171.374 1693.33,170.842 1709.58,170.319 1725.83,169.806 1742.09,169.301 1758.34,168.805 1774.6,168.318 1790.85,167.84 1807.1,167.37 1823.36,166.908 1839.61,166.455 1855.87,166.009 1872.12,165.57 1888.38,165.139 1904.63,164.714 1920.88,164.296 1937.14,163.884 1953.39,163.478 1969.65,163.078 1985.9,162.684 2002.15,162.295 2018.41,161.913 2034.66,161.536 2050.92,161.164 2067.17,160.798 2083.42,160.437 2099.68,160.081 2115.93,159.731 2132.19,159.385 2148.44,159.044 2164.7,158.708 2180.95,158.376 2197.2,158.049 2213.46,157.726 2229.71,157.408 2245.97,157.093 2262.22,156.782 2278.47,156.476 2294.73,156.172 "/>
<polyline clip-path="url(#clip002)" style="stroke:#0000ff; stroke-linecap:round; stroke-linejoin:round; stroke-width:4; stroke-opacity:0.75; fill:none" points="360.486,1154.8 376.74,913.068 392.994,755.169 409.248,647.482 425.502,570.85 441.756,514.16 458.011,470.782 474.265,436.62 490.519,409.055 506.773,386.351 523.027,367.324 539.281,351.139 555.535,337.198 571.79,325.056 588.044,314.381 604.298,304.929 620.552,296.661 636.806,290.008 653.06,284.175 669.314,278.906 685.569,274.068 701.823,269.581 718.077,265.389 734.331,261.454 750.585,257.744 766.839,254.236 783.093,250.91 799.348,247.754 815.602,244.763 831.856,241.922 848.11,239.219 864.364,236.644 880.618,234.186 896.872,231.842 913.127,229.61 929.381,227.484 945.635,225.458 961.889,223.524 978.143,221.674 994.397,219.9 1010.65,218.198 1026.91,216.564 1043.16,214.99 1059.41,213.471 1075.67,212.003 1091.92,210.582 1108.18,209.205 1124.43,207.868 1140.68,206.572 1156.94,205.312 1173.19,204.087 1189.45,202.897 1205.7,201.74 1221.96,200.616 1238.21,199.525 1254.46,198.467 1270.72,197.441 1286.97,196.444 1303.23,195.475 1319.48,194.532 1335.73,193.614 1351.99,192.719 1368.24,191.845 1384.5,190.992 1400.75,190.158 1417,189.342 1433.26,188.544 1449.51,187.764 1465.77,187 1482.02,186.252 1498.28,185.52 1514.53,184.803 1530.78,184.101 1547.04,183.414 1563.29,182.741 1579.55,182.082 1595.8,181.437 1612.05,180.804 1628.31,180.185 1644.56,179.577 1660.82,178.982 1677.07,178.398 1693.33,177.825 1709.58,177.262 1725.83,176.71 1742.09,176.166 1758.34,175.632 1774.6,175.107 1790.85,174.59 1807.1,174.082 1823.36,173.582 1839.61,173.089 1855.87,172.605 1872.12,172.129 1888.38,171.661 1904.63,171.2 1920.88,170.747 1937.14,170.302 1953.39,169.863 1969.65,169.432 1985.9,169.007 2002.15,168.588 2018.41,168.175 2034.66,167.769 2050.92,167.368 2067.17,166.972 2083.42,166.583 2099.68,166.198 2115.93,165.819 2132.19,165.445 2148.44,165.076 2164.7,164.712 2180.95,164.353 2197.2,163.998 2213.46,163.648 2229.71,163.303 2245.97,162.963 2262.22,162.627 2278.47,162.295 2294.73,161.968 "/>
<polyline clip-path="url(#clip002)" style="stroke:#0000ff; stroke-linecap:round; stroke-linejoin:round; stroke-width:4; stroke-opacity:0.8; fill:none" points="360.486,1204.2 376.74,958.834 392.994,796.808 409.248,685.228 425.502,605.201 441.756,545.635 458.011,499.839 474.265,463.638 490.519,434.339 506.773,410.147 523.027,389.83 539.281,372.517 555.535,357.578 571.79,344.549 588.044,333.078 604.298,322.896 620.552,313.824 636.806,305.853 653.06,299.226 669.314,293.392 685.569,288.115 701.823,283.266 718.077,278.765 734.331,274.555 750.585,270.599 766.839,266.864 783.093,263.328 799.348,259.971 815.602,256.779 831.856,253.747 848.11,250.862 864.364,248.113 880.618,245.488 896.872,242.978 913.127,240.576 929.381,238.277 945.635,236.077 961.889,233.973 978.143,231.961 994.397,230.034 1010.65,228.187 1026.91,226.414 1043.16,224.711 1059.41,223.074 1075.67,221.497 1091.92,219.974 1108.18,218.501 1124.43,217.073 1140.68,215.689 1156.94,214.345 1173.19,213.039 1189.45,211.769 1205.7,210.534 1221.96,209.331 1238.21,208.159 1254.46,207.018 1270.72,205.908 1286.97,204.827 1303.23,203.777 1319.48,202.755 1335.73,201.761 1351.99,200.794 1368.24,199.852 1384.5,198.933 1400.75,198.037 1417,197.163 1433.26,196.308 1449.51,195.472 1465.77,194.654 1482.02,193.854 1498.28,193.071 1514.53,192.303 1530.78,191.552 1547.04,190.815 1563.29,190.092 1579.55,189.384 1595.8,188.689 1612.05,188.007 1628.31,187.339 1644.56,186.684 1660.82,186.041 1677.07,185.41 1693.33,184.791 1709.58,184.185 1725.83,183.59 1742.09,183.005 1758.34,182.432 1774.6,181.869 1790.85,181.315 1807.1,180.771 1823.36,180.235 1839.61,179.709 1855.87,179.19 1872.12,178.68 1888.38,178.177 1904.63,177.682 1920.88,177.195 1937.14,176.714 1953.39,176.242 1969.65,175.776 1985.9,175.318 2002.15,174.866 2018.41,174.422 2034.66,173.984 2050.92,173.553 2067.17,173.128 2083.42,172.709 2099.68,172.296 2115.93,171.889 2132.19,171.488 2148.44,171.092 2164.7,170.702 2180.95,170.316 2197.2,169.936 2213.46,169.561 2229.71,169.191 2245.97,168.825 2262.22,168.463 2278.47,168.107 2294.73,167.754 "/>
<polyline clip-path="url(#clip002)" style="stroke:#0000ff; stroke-linecap:round; stroke-linejoin:round; stroke-width:4; stroke-opacity:0.85; fill:none" points="360.486,1251.79 376.74,1003.16 392.994,837.372 409.248,722.182 425.502,638.961 441.756,576.661 458.011,528.546 474.265,490.377 490.519,459.397 506.773,433.758 523.027,412.182 539.281,393.767 555.535,377.853 571.79,363.956 588.044,351.705 604.298,340.817 620.552,331.072 636.806,322.362 653.06,314.652 669.314,308.07 685.569,302.241 701.823,296.96 718.077,292.103 734.331,287.59 750.585,283.367 766.839,279.393 783.093,275.639 799.348,272.08 815.602,268.698 831.856,265.477 848.11,262.412 864.364,259.491 880.618,256.703 896.872,254.037 913.127,251.484 929.381,249.036 945.635,246.687 961.889,244.432 978.143,242.266 994.397,240.188 1010.65,238.193 1026.91,236.277 1043.16,234.437 1059.41,232.667 1075.67,230.965 1091.92,229.327 1108.18,227.748 1124.43,226.222 1140.68,224.745 1156.94,223.313 1173.19,221.924 1189.45,220.574 1205.7,219.262 1221.96,217.985 1238.21,216.741 1254.46,215.529 1270.72,214.347 1286.97,213.195 1303.23,212.07 1319.48,210.975 1335.73,209.906 1351.99,208.865 1368.24,207.851 1384.5,206.862 1400.75,205.898 1417,204.957 1433.26,204.04 1449.51,203.144 1465.77,202.269 1482.02,201.414 1498.28,200.577 1514.53,199.758 1530.78,198.956 1547.04,198.171 1563.29,197.401 1579.55,196.647 1595.8,195.907 1612.05,195.181 1628.31,194.468 1644.56,193.769 1660.82,193.082 1677.07,192.408 1693.33,191.745 1709.58,191.094 1725.83,190.455 1742.09,189.828 1758.34,189.211 1774.6,188.606 1790.85,188.012 1807.1,187.428 1823.36,186.855 1839.61,186.291 1855.87,185.738 1872.12,185.193 1888.38,184.657 1904.63,184.129 1920.88,183.61 1937.14,183.098 1953.39,182.594 1969.65,182.098 1985.9,181.609 2002.15,181.126 2018.41,180.651 2034.66,180.182 2050.92,179.72 2067.17,179.265 2083.42,178.816 2099.68,178.374 2115.93,177.937 2132.19,177.507 2148.44,177.083 2164.7,176.665 2180.95,176.253 2197.2,175.846 2213.46,175.444 2229.71,175.048 2245.97,174.657 2262.22,174.272 2278.47,173.891 2294.73,173.515 "/>
<polyline clip-path="url(#clip002)" style="stroke:#0000ff; stroke-linecap:round; stroke-linejoin:round; stroke-width:4; stroke-opacity:0.9; fill:none" points="360.486,1297.62 376.74,1046.07 392.994,876.845 409.248,758.309 425.502,672.087 441.756,607.191 458.011,556.857 474.265,516.793 490.519,484.186 506.773,457.14 523.027,434.34 539.281,414.848 555.535,397.982 571.79,383.234 588.044,370.219 604.298,358.641 620.552,348.267 636.806,338.921 653.06,330.55 669.314,323.07 685.569,316.549 701.823,310.734 718.077,305.452 734.331,300.59 750.585,296.068 766.839,291.835 783.093,287.848 799.348,284.078 815.602,280.502 831.856,277.099 848.11,273.855 864.364,270.763 880.618,267.813 896.872,264.992 913.127,262.292 929.381,259.703 945.635,257.217 961.889,254.828 978.143,252.53 994.397,250.318 1010.65,248.188 1026.91,246.137 1043.16,244.163 1059.41,242.262 1075.67,240.431 1091.92,238.667 1108.18,236.967 1124.43,235.33 1140.68,233.75 1156.94,232.223 1173.19,230.743 1189.45,229.309 1205.7,227.916 1221.96,226.562 1238.21,225.245 1254.46,223.962 1270.72,222.712 1286.97,221.494 1303.23,220.305 1319.48,219.144 1335.73,218.01 1351.99,216.904 1368.24,215.824 1384.5,214.769 1400.75,213.739 1417,212.733 1433.26,211.751 1449.51,210.792 1465.77,209.855 1482.02,208.94 1498.28,208.046 1514.53,207.172 1530.78,206.316 1547.04,205.479 1563.29,204.659 1579.55,203.856 1595.8,203.07 1612.05,202.299 1628.31,201.543 1644.56,200.801 1660.82,200.073 1677.07,199.358 1693.33,198.656 1709.58,197.966 1725.83,197.287 1742.09,196.62 1758.34,195.965 1774.6,195.32 1790.85,194.686 1807.1,194.063 1823.36,193.45 1839.61,192.847 1855.87,192.255 1872.12,191.673 1888.38,191.1 1904.63,190.537 1920.88,189.984 1937.14,189.439 1953.39,188.903 1969.65,188.375 1985.9,187.855 2002.15,187.343 2018.41,186.838 2034.66,186.341 2050.92,185.85 2067.17,185.367 2083.42,184.89 2099.68,184.42 2115.93,183.956 2132.19,183.499 2148.44,183.047 2164.7,182.602 2180.95,182.162 2197.2,181.728 2213.46,181.3 2229.71,180.878 2245.97,180.461 2262.22,180.049 2278.47,179.643 2294.73,179.242 "/>
<polyline clip-path="url(#clip002)" style="stroke:#0000ff; stroke-linecap:round; stroke-linejoin:round; stroke-width:4; stroke-opacity:0.95; fill:none" points="360.486,1341.75 376.74,1087.57 392.994,915.215 409.248,793.581 425.502,704.545 441.756,637.188 458.011,584.733 474.265,542.846 490.519,508.668 506.773,480.259 523.027,456.267 539.281,435.726 555.535,417.929 571.79,402.35 588.044,388.588 604.298,376.333 620.552,365.344 636.806,355.428 653.06,346.456 669.314,338.393 685.569,331.121 701.823,324.674 718.077,318.883 734.331,313.605 750.585,308.74 766.839,304.213 783.093,299.971 799.348,295.974 815.602,292.192 831.856,288.602 848.11,285.183 864.364,281.92 880.618,278.806 896.872,275.832 913.127,272.985 929.381,270.256 945.635,267.637 961.889,265.119 978.143,262.697 994.397,260.364 1010.65,258.115 1026.91,255.945 1043.16,253.851 1059.41,251.83 1075.67,249.878 1091.92,247.995 1108.18,246.177 1124.43,244.421 1140.68,242.727 1156.94,241.093 1173.19,239.513 1189.45,237.985 1205.7,236.505 1221.96,235.068 1238.21,233.673 1254.46,232.316 1270.72,230.996 1286.97,229.709 1303.23,228.455 1319.48,227.231 1335.73,226.036 1351.99,224.87 1368.24,223.73 1384.5,222.615 1400.75,221.527 1417,220.463 1433.26,219.422 1449.51,218.404 1465.77,217.409 1482.02,216.435 1498.28,215.483 1514.53,214.551 1530.78,213.64 1547.04,212.749 1563.29,211.876 1579.55,211.022 1595.8,210.185 1612.05,209.366 1628.31,208.562 1644.56,207.775 1660.82,207.004 1677.07,206.247 1693.33,205.503 1709.58,204.774 1725.83,204.057 1742.09,203.353 1758.34,202.661 1774.6,201.98 1790.85,201.31 1807.1,200.652 1823.36,200.004 1839.61,199.366 1855.87,198.738 1872.12,198.12 1888.38,197.511 1904.63,196.913 1920.88,196.323 1937.14,195.744 1953.39,195.173 1969.65,194.612 1985.9,194.059 2002.15,193.515 2018.41,192.979 2034.66,192.451 2050.92,191.931 2067.17,191.419 2083.42,190.914 2099.68,190.416 2115.93,189.925 2132.19,189.441 2148.44,188.963 2164.7,188.492 2180.95,188.027 2197.2,187.568 2213.46,187.116 2229.71,186.668 2245.97,186.227 2262.22,185.791 2278.47,185.36 2294.73,184.935 "/>
<polyline clip-path="url(#clip002)" style="stroke:#0000ff; stroke-linecap:round; stroke-linejoin:round; stroke-width:4; stroke-opacity:1; fill:none" points="360.486,1384.24 376.74,1127.68 392.994,952.48 409.248,827.98 425.502,736.306 441.756,666.62 458.011,612.142 474.265,568.505 490.519,532.81 506.773,503.081 523.027,477.932 539.281,456.369 555.535,437.665 571.79,421.274 588.044,406.781 604.298,393.866 620.552,382.274 636.806,371.807 653.06,362.303 669.314,353.688 685.569,345.899 701.823,338.818 718.077,332.455 734.331,326.697 750.585,321.43 766.839,316.566 783.093,312.035 799.348,307.787 815.602,303.782 831.856,299.991 848.11,296.389 864.364,292.958 880.618,289.681 896.872,286.549 913.127,283.554 929.381,280.686 945.635,277.934 961.889,275.29 978.143,272.746 994.397,270.295 1010.65,267.932 1026.91,265.652 1043.16,263.45 1059.41,261.322 1075.67,259.264 1091.92,257.274 1108.18,255.348 1124.43,253.484 1140.68,251.681 1156.94,249.937 1173.19,248.251 1189.45,246.621 1205.7,245.045 1221.96,243.518 1238.21,242.037 1254.46,240.6 1270.72,239.203 1286.97,237.844 1303.23,236.521 1319.48,235.232 1335.73,233.975 1351.99,232.747 1368.24,231.549 1384.5,230.377 1400.75,229.232 1417,228.112 1433.26,227.017 1449.51,225.946 1465.77,224.898 1482.02,223.872 1498.28,222.868 1514.53,221.884 1530.78,220.92 1547.04,219.976 1563.29,219.051 1579.55,218.146 1595.8,217.258 1612.05,216.389 1628.31,215.537 1644.56,214.702 1660.82,213.883 1677.07,213.08 1693.33,212.293 1709.58,211.521 1725.83,210.764 1742.09,210.02 1758.34,209.29 1774.6,208.572 1790.85,207.867 1807.1,207.173 1823.36,206.491 1839.61,205.819 1855.87,205.158 1872.12,204.508 1888.38,203.868 1904.63,203.237 1920.88,202.615 1937.14,202.003 1953.39,201.401 1969.65,200.807 1985.9,200.222 2002.15,199.646 2018.41,199.078 2034.66,198.519 2050.92,197.968 2067.17,197.425 2083.42,196.891 2099.68,196.363 2115.93,195.844 2132.19,195.332 2148.44,194.827 2164.7,194.329 2180.95,193.838 2197.2,193.353 2213.46,192.875 2229.71,192.404 2245.97,191.938 2262.22,191.479 2278.47,191.025 2294.73,190.577 "/>
<path clip-path="url(#clip000)" d="M1801.4 1377.32 L2284.41 1377.32 L2284.41 1273.64 L1801.4 1273.64  Z" fill="#ffffff" fill-rule="evenodd" fill-opacity="1"/>
<polyline clip-path="url(#clip000)" style="stroke:#000000; stroke-linecap:round; stroke-linejoin:round; stroke-width:4; stroke-opacity:1; fill:none" points="1801.4,1377.32 2284.41,1377.32 2284.41,1273.64 1801.4,1273.64 1801.4,1377.32 "/>
<polyline clip-path="url(#clip000)" style="stroke:#ff0000; stroke-linecap:round; stroke-linejoin:round; stroke-width:4; stroke-opacity:1; fill:none" points="1824.18,1325.48 1960.87,1325.48 "/>
<path clip-path="url(#clip000)" d="M1983.65 1308.2 L1988.32 1308.2 L1988.32 1342.76 L1983.65 1342.76 L1983.65 1308.2 Z" fill="#000000" fill-rule="nonzero" fill-opacity="1" /><path clip-path="url(#clip000)" d="M2018.99 1327.11 L2018.99 1342.76 L2014.73 1342.76 L2014.73 1327.25 Q2014.73 1323.57 2013.3 1321.74 Q2011.86 1319.91 2008.99 1319.91 Q2005.54 1319.91 2003.55 1322.11 Q2001.56 1324.31 2001.56 1328.1 L2001.56 1342.76 L1997.28 1342.76 L1997.28 1316.83 L2001.56 1316.83 L2001.56 1320.86 Q2003.09 1318.52 2005.15 1317.36 Q2007.23 1316.2 2009.94 1316.2 Q2014.41 1316.2 2016.7 1318.98 Q2018.99 1321.74 2018.99 1327.11 Z" fill="#000000" fill-rule="nonzero" fill-opacity="1" /><path clip-path="url(#clip000)" d="M2027.49 1316.83 L2031.75 1316.83 L2031.75 1342.76 L2027.49 1342.76 L2027.49 1316.83 M2027.49 1306.74 L2031.75 1306.74 L2031.75 1312.13 L2027.49 1312.13 L2027.49 1306.74 Z" fill="#000000" fill-rule="nonzero" fill-opacity="1" /><path clip-path="url(#clip000)" d="M2044.87 1309.47 L2044.87 1316.83 L2053.65 1316.83 L2053.65 1320.14 L2044.87 1320.14 L2044.87 1334.21 Q2044.87 1337.38 2045.73 1338.29 Q2046.61 1339.19 2049.27 1339.19 L2053.65 1339.19 L2053.65 1342.76 L2049.27 1342.76 Q2044.34 1342.76 2042.47 1340.93 Q2040.59 1339.07 2040.59 1334.21 L2040.59 1320.14 L2037.47 1320.14 L2037.47 1316.83 L2040.59 1316.83 L2040.59 1309.47 L2044.87 1309.47 Z" fill="#000000" fill-rule="nonzero" fill-opacity="1" /><path clip-path="url(#clip000)" d="M2059.25 1316.83 L2063.51 1316.83 L2063.51 1342.76 L2059.25 1342.76 L2059.25 1316.83 M2059.25 1306.74 L2063.51 1306.74 L2063.51 1312.13 L2059.25 1312.13 L2059.25 1306.74 Z" fill="#000000" fill-rule="nonzero" fill-opacity="1" /><path clip-path="url(#clip000)" d="M2084.2 1329.72 Q2079.04 1329.72 2077.05 1330.9 Q2075.06 1332.08 2075.06 1334.93 Q2075.06 1337.2 2076.54 1338.54 Q2078.04 1339.86 2080.61 1339.86 Q2084.16 1339.86 2086.29 1337.36 Q2088.44 1334.84 2088.44 1330.67 L2088.44 1329.72 L2084.2 1329.72 M2092.7 1327.96 L2092.7 1342.76 L2088.44 1342.76 L2088.44 1338.82 Q2086.98 1341.18 2084.8 1342.32 Q2082.63 1343.43 2079.48 1343.43 Q2075.5 1343.43 2073.14 1341.2 Q2070.8 1338.96 2070.8 1335.21 Q2070.8 1330.83 2073.72 1328.61 Q2076.66 1326.39 2082.47 1326.39 L2088.44 1326.39 L2088.44 1325.97 Q2088.44 1323.03 2086.49 1321.44 Q2084.57 1319.82 2081.08 1319.82 Q2078.85 1319.82 2076.75 1320.35 Q2074.64 1320.88 2072.7 1321.95 L2072.7 1318.01 Q2075.04 1317.11 2077.23 1316.67 Q2079.43 1316.2 2081.52 1316.2 Q2087.14 1316.2 2089.92 1319.12 Q2092.7 1322.04 2092.7 1327.96 Z" fill="#000000" fill-rule="nonzero" fill-opacity="1" /><path clip-path="url(#clip000)" d="M2101.47 1306.74 L2105.73 1306.74 L2105.73 1342.76 L2101.47 1342.76 L2101.47 1306.74 Z" fill="#000000" fill-rule="nonzero" fill-opacity="1" /><path clip-path="url(#clip000)" d="M2146.77 1329.49 Q2146.77 1324.86 2144.85 1322.32 Q2142.95 1319.77 2139.5 1319.77 Q2136.08 1319.77 2134.16 1322.32 Q2132.26 1324.86 2132.26 1329.49 Q2132.26 1334.1 2134.16 1336.64 Q2136.08 1339.19 2139.5 1339.19 Q2142.95 1339.19 2144.85 1336.64 Q2146.77 1334.1 2146.77 1329.49 M2151.03 1339.54 Q2151.03 1346.16 2148.09 1349.38 Q2145.15 1352.62 2139.09 1352.62 Q2136.84 1352.62 2134.85 1352.27 Q2132.86 1351.95 2130.98 1351.25 L2130.98 1347.11 Q2132.86 1348.13 2134.69 1348.61 Q2136.52 1349.1 2138.41 1349.1 Q2142.6 1349.1 2144.69 1346.9 Q2146.77 1344.72 2146.77 1340.3 L2146.77 1338.2 Q2145.45 1340.49 2143.39 1341.62 Q2141.33 1342.76 2138.46 1342.76 Q2133.69 1342.76 2130.78 1339.12 Q2127.86 1335.49 2127.86 1329.49 Q2127.86 1323.47 2130.78 1319.84 Q2133.69 1316.2 2138.46 1316.2 Q2141.33 1316.2 2143.39 1317.34 Q2145.45 1318.47 2146.77 1320.76 L2146.77 1316.83 L2151.03 1316.83 L2151.03 1339.54 Z" fill="#000000" fill-rule="nonzero" fill-opacity="1" /><path clip-path="url(#clip000)" d="M2159.36 1332.52 L2159.36 1316.83 L2163.62 1316.83 L2163.62 1332.36 Q2163.62 1336.04 2165.06 1337.89 Q2166.49 1339.72 2169.36 1339.72 Q2172.81 1339.72 2174.8 1337.52 Q2176.82 1335.32 2176.82 1331.53 L2176.82 1316.83 L2181.08 1316.83 L2181.08 1342.76 L2176.82 1342.76 L2176.82 1338.77 Q2175.27 1341.13 2173.21 1342.29 Q2171.17 1343.43 2168.46 1343.43 Q2163.99 1343.43 2161.68 1340.65 Q2159.36 1337.87 2159.36 1332.52 M2170.08 1316.2 L2170.08 1316.2 Z" fill="#000000" fill-rule="nonzero" fill-opacity="1" /><path clip-path="url(#clip000)" d="M2212.03 1328.73 L2212.03 1330.81 L2192.44 1330.81 Q2192.72 1335.21 2195.08 1337.52 Q2197.47 1339.82 2201.7 1339.82 Q2204.16 1339.82 2206.45 1339.21 Q2208.76 1338.61 2211.03 1337.41 L2211.03 1341.44 Q2208.74 1342.41 2206.33 1342.92 Q2203.92 1343.43 2201.45 1343.43 Q2195.24 1343.43 2191.61 1339.82 Q2188 1336.2 2188 1330.05 Q2188 1323.68 2191.42 1319.95 Q2194.87 1316.2 2200.71 1316.2 Q2205.94 1316.2 2208.97 1319.58 Q2212.03 1322.94 2212.03 1328.73 M2207.77 1327.48 Q2207.72 1323.98 2205.8 1321.9 Q2203.9 1319.82 2200.75 1319.82 Q2197.19 1319.82 2195.03 1321.83 Q2192.91 1323.84 2192.58 1327.5 L2207.77 1327.48 Z" fill="#000000" fill-rule="nonzero" fill-opacity="1" /><path clip-path="url(#clip000)" d="M2235.54 1317.59 L2235.54 1321.62 Q2233.74 1320.7 2231.79 1320.23 Q2229.85 1319.77 2227.77 1319.77 Q2224.59 1319.77 2223 1320.74 Q2221.42 1321.71 2221.42 1323.66 Q2221.42 1325.14 2222.56 1326 Q2223.69 1326.83 2227.12 1327.59 L2228.58 1327.92 Q2233.11 1328.89 2235.01 1330.67 Q2236.93 1332.43 2236.93 1335.6 Q2236.93 1339.21 2234.06 1341.32 Q2231.22 1343.43 2226.22 1343.43 Q2224.13 1343.43 2221.86 1343.01 Q2219.62 1342.62 2217.12 1341.81 L2217.12 1337.41 Q2219.48 1338.63 2221.77 1339.26 Q2224.06 1339.86 2226.31 1339.86 Q2229.32 1339.86 2230.94 1338.84 Q2232.56 1337.8 2232.56 1335.93 Q2232.56 1334.19 2231.38 1333.26 Q2230.22 1332.34 2226.26 1331.48 L2224.78 1331.14 Q2220.82 1330.3 2219.06 1328.59 Q2217.3 1326.85 2217.3 1323.84 Q2217.3 1320.19 2219.9 1318.2 Q2222.49 1316.2 2227.26 1316.2 Q2229.62 1316.2 2231.7 1316.55 Q2233.78 1316.9 2235.54 1317.59 Z" fill="#000000" fill-rule="nonzero" fill-opacity="1" /><path clip-path="url(#clip000)" d="M2260.24 1317.59 L2260.24 1321.62 Q2258.44 1320.7 2256.49 1320.23 Q2254.55 1319.77 2252.46 1319.77 Q2249.29 1319.77 2247.7 1320.74 Q2246.12 1321.71 2246.12 1323.66 Q2246.12 1325.14 2247.26 1326 Q2248.39 1326.83 2251.82 1327.59 L2253.28 1327.92 Q2257.81 1328.89 2259.71 1330.67 Q2261.63 1332.43 2261.63 1335.6 Q2261.63 1339.21 2258.76 1341.32 Q2255.91 1343.43 2250.91 1343.43 Q2248.83 1343.43 2246.56 1343.01 Q2244.32 1342.62 2241.82 1341.81 L2241.82 1337.41 Q2244.18 1338.63 2246.47 1339.26 Q2248.76 1339.86 2251.01 1339.86 Q2254.02 1339.86 2255.64 1338.84 Q2257.26 1337.8 2257.26 1335.93 Q2257.26 1334.19 2256.08 1333.26 Q2254.92 1332.34 2250.96 1331.48 L2249.48 1331.14 Q2245.52 1330.3 2243.76 1328.59 Q2242 1326.85 2242 1323.84 Q2242 1320.19 2244.59 1318.2 Q2247.19 1316.2 2251.96 1316.2 Q2254.32 1316.2 2256.4 1316.55 Q2258.48 1316.9 2260.24 1317.59 Z" fill="#000000" fill-rule="nonzero" fill-opacity="1" /></svg>