<?xml version="1.0" encoding="utf-8"?>
<svg xmlns="http://www.w3.org/2000/svg" xmlns:xlink="http://www.w3.org/1999/xlink" width="600" height="400" viewBox="0 0 2400 1600">
<defs>
  <clipPath id="clip060">
    <rect x="0" y="0" width="2400" height="1600"/>
  </clipPath>
</defs>
<path clip-path="url(#clip060)" d="M0 1600 L2400 1600 L2400 0 L0 0  Z" fill="#ffffff" fill-rule="evenodd" fill-opacity="1"/>
<defs>
  <clipPath id="clip061">
    <rect x="480" y="0" width="1681" height="1600"/>
  </clipPath>
</defs>
<path clip-path="url(#clip060)" d="M178.867 1486.45 L2352.76 1486.45 L2352.76 47.2441 L178.867 47.2441  Z" fill="#ffffff" fill-rule="evenodd" fill-opacity="1"/>
<defs>
  <clipPath id="clip062">
    <rect x="178" y="47" width="2175" height="1440"/>
  </clipPath>
</defs>
<polyline clip-path="url(#clip062)" style="stroke:#000000; stroke-linecap:round; stroke-linejoin:round; stroke-width:2; stroke-opacity:0.1; fill:none" points="240.392,1486.45 240.392,47.2441 "/>
<polyline clip-path="url(#clip062)" style="stroke:#000000; stroke-linecap:round; stroke-linejoin:round; stroke-width:2; stroke-opacity:0.1; fill:none" points="753.102,1486.45 753.102,47.2441 "/>
<polyline clip-path="url(#clip062)" style="stroke:#000000; stroke-linecap:round; stroke-linejoin:round; stroke-width:2; stroke-opacity:0.1; fill:none" points="1265.81,1486.45 1265.81,47.2441 "/>
<polyline clip-path="url(#clip062)" style="stroke:#000000; stroke-linecap:round; stroke-linejoin:round; stroke-width:2; stroke-opacity:0.1; fill:none" points="1778.52,1486.45 1778.52,47.2441 "/>
<polyline clip-path="url(#clip062)" style="stroke:#000000; stroke-linecap:round; stroke-linejoin:round; stroke-width:2; stroke-opacity:0.1; fill:none" points="2291.23,1486.45 2291.23,47.2441 "/>
<polyline clip-path="url(#clip060)" style="stroke:#000000; stroke-linecap:round; stroke-linejoin:round; stroke-width:4; stroke-opacity:1; fill:none" points="178.867,1486.45 2352.76,1486.45 "/>
<polyline clip-path="url(#clip060)" style="stroke:#000000; stroke-linecap:round; stroke-linejoin:round; stroke-width:4; stroke-opacity:1; fill:none" points="240.392,1486.45 240.392,1467.55 "/>
<polyline clip-path="url(#clip060)" style="stroke:#000000; stroke-linecap:round; stroke-linejoin:round; stroke-width:4; stroke-opacity:1; fill:none" points="753.102,1486.45 753.102,1467.55 "/>
<polyline clip-path="url(#clip060)" style="stroke:#000000; stroke-linecap:round; stroke-linejoin:round; stroke-width:4; stroke-opacity:1; fill:none" points="1265.81,1486.45 1265.81,1467.55 "/>
<polyline clip-path="url(#clip060)" style="stroke:#000000; stroke-linecap:round; stroke-linejoin:round; stroke-width:4; stroke-opacity:1; fill:none" points="1778.52,1486.45 1778.52,1467.55 "/>
<polyline clip-path="url(#clip060)" style="stroke:#000000; stroke-linecap:round; stroke-linejoin:round; stroke-width:4; stroke-opacity:1; fill:none" points="2291.23,1486.45 2291.23,1467.55 "/>
<path clip-path="url(#clip060)" d="M217.776 1517.37 Q214.165 1517.37 212.336 1520.93 Q210.531 1524.47 210.531 1531.6 Q210.531 1538.71 212.336 1542.27 Q214.165 1545.82 217.776 1545.82 Q221.41 1545.82 223.216 1542.27 Q225.045 1538.71 225.045 1531.6 Q225.045 1524.47 223.216 1520.93 Q221.41 1517.37 217.776 1517.37 M217.776 1513.66 Q223.586 1513.66 226.642 1518.27 Q229.721 1522.85 229.721 1531.6 Q229.721 1540.33 226.642 1544.94 Q223.586 1549.52 217.776 1549.52 Q211.966 1549.52 208.887 1544.94 Q205.832 1540.33 205.832 1531.6 Q205.832 1522.85 208.887 1518.27 Q211.966 1513.66 217.776 1513.66 Z" fill="#000000" fill-rule="nonzero" fill-opacity="1" /><path clip-path="url(#clip060)" d="M237.938 1542.97 L242.822 1542.97 L242.822 1548.85 L237.938 1548.85 L237.938 1542.97 Z" fill="#000000" fill-rule="nonzero" fill-opacity="1" /><path clip-path="url(#clip060)" d="M263.007 1517.37 Q259.396 1517.37 257.568 1520.93 Q255.762 1524.47 255.762 1531.6 Q255.762 1538.71 257.568 1542.27 Q259.396 1545.82 263.007 1545.82 Q266.642 1545.82 268.447 1542.27 Q270.276 1538.71 270.276 1531.6 Q270.276 1524.47 268.447 1520.93 Q266.642 1517.37 263.007 1517.37 M263.007 1513.66 Q268.818 1513.66 271.873 1518.27 Q274.952 1522.85 274.952 1531.6 Q274.952 1540.33 271.873 1544.94 Q268.818 1549.52 263.007 1549.52 Q257.197 1549.52 254.119 1544.94 Q251.063 1540.33 251.063 1531.6 Q251.063 1522.85 254.119 1518.27 Q257.197 1513.66 263.007 1513.66 Z" fill="#000000" fill-rule="nonzero" fill-opacity="1" /><path clip-path="url(#clip060)" d="M724.838 1544.91 L741.157 1544.91 L741.157 1548.85 L719.213 1548.85 L719.213 1544.91 Q721.875 1542.16 726.458 1537.53 Q731.065 1532.88 732.245 1531.53 Q734.491 1529.01 735.37 1527.27 Q736.273 1525.51 736.273 1523.82 Q736.273 1521.07 734.328 1519.33 Q732.407 1517.6 729.305 1517.6 Q727.106 1517.6 724.653 1518.36 Q722.222 1519.13 719.444 1520.68 L719.444 1515.95 Q722.268 1514.82 724.722 1514.24 Q727.176 1513.66 729.213 1513.66 Q734.583 1513.66 737.778 1516.35 Q740.972 1519.03 740.972 1523.52 Q740.972 1525.65 740.162 1527.57 Q739.375 1529.47 737.268 1532.07 Q736.69 1532.74 733.588 1535.95 Q730.486 1539.15 724.838 1544.91 Z" fill="#000000" fill-rule="nonzero" fill-opacity="1" /><path clip-path="url(#clip060)" d="M750.972 1542.97 L755.856 1542.97 L755.856 1548.85 L750.972 1548.85 L750.972 1542.97 Z" fill="#000000" fill-rule="nonzero" fill-opacity="1" /><path clip-path="url(#clip060)" d="M766.088 1514.29 L784.444 1514.29 L784.444 1518.22 L770.37 1518.22 L770.37 1526.7 Q771.388 1526.35 772.407 1526.19 Q773.426 1526 774.444 1526 Q780.231 1526 783.611 1529.17 Q786.99 1532.34 786.99 1537.76 Q786.99 1543.34 783.518 1546.44 Q780.046 1549.52 773.726 1549.52 Q771.551 1549.52 769.282 1549.15 Q767.037 1548.78 764.629 1548.04 L764.629 1543.34 Q766.713 1544.47 768.935 1545.03 Q771.157 1545.58 773.634 1545.58 Q777.638 1545.58 779.976 1543.48 Q782.314 1541.37 782.314 1537.76 Q782.314 1534.15 779.976 1532.04 Q777.638 1529.94 773.634 1529.94 Q771.759 1529.94 769.884 1530.35 Q768.032 1530.77 766.088 1531.65 L766.088 1514.29 Z" fill="#000000" fill-rule="nonzero" fill-opacity="1" /><path clip-path="url(#clip060)" d="M1232.98 1514.29 L1251.33 1514.29 L1251.33 1518.22 L1237.26 1518.22 L1237.26 1526.7 Q1238.28 1526.35 1239.3 1526.19 Q1240.31 1526 1241.33 1526 Q1247.12 1526 1250.5 1529.17 Q1253.88 1532.34 1253.88 1537.76 Q1253.88 1543.34 1250.41 1546.44 Q1246.93 1549.52 1240.61 1549.52 Q1238.44 1549.52 1236.17 1549.15 Q1233.92 1548.78 1231.52 1548.04 L1231.52 1543.34 Q1233.6 1544.47 1235.82 1545.03 Q1238.05 1545.58 1240.52 1545.58 Q1244.53 1545.58 1246.86 1543.48 Q1249.2 1541.37 1249.2 1537.76 Q1249.2 1534.15 1246.86 1532.04 Q1244.53 1529.94 1240.52 1529.94 Q1238.65 1529.94 1236.77 1530.35 Q1234.92 1530.77 1232.98 1531.65 L1232.98 1514.29 Z" fill="#000000" fill-rule="nonzero" fill-opacity="1" /><path clip-path="url(#clip060)" d="M1263.09 1542.97 L1267.98 1542.97 L1267.98 1548.85 L1263.09 1548.85 L1263.09 1542.97 Z" fill="#000000" fill-rule="nonzero" fill-opacity="1" /><path clip-path="url(#clip060)" d="M1288.16 1517.37 Q1284.55 1517.37 1282.72 1520.93 Q1280.92 1524.47 1280.92 1531.6 Q1280.92 1538.71 1282.72 1542.27 Q1284.55 1545.82 1288.16 1545.82 Q1291.79 1545.82 1293.6 1542.27 Q1295.43 1538.71 1295.43 1531.6 Q1295.43 1524.47 1293.6 1520.93 Q1291.79 1517.37 1288.16 1517.37 M1288.16 1513.66 Q1293.97 1513.66 1297.03 1518.27 Q1300.11 1522.85 1300.11 1531.6 Q1300.11 1540.33 1297.03 1544.94 Q1293.97 1549.52 1288.16 1549.52 Q1282.35 1549.52 1279.27 1544.94 Q1276.22 1540.33 1276.22 1531.6 Q1276.22 1522.85 1279.27 1518.27 Q1282.35 1513.66 1288.16 1513.66 Z" fill="#000000" fill-rule="nonzero" fill-opacity="1" /><path clip-path="url(#clip060)" d="M1744.84 1514.29 L1767.06 1514.29 L1767.06 1516.28 L1754.52 1548.85 L1749.63 1548.85 L1761.44 1518.22 L1744.84 1518.22 L1744.84 1514.29 Z" fill="#000000" fill-rule="nonzero" fill-opacity="1" /><path clip-path="url(#clip060)" d="M1776.18 1542.97 L1781.07 1542.97 L1781.07 1548.85 L1776.18 1548.85 L1776.18 1542.97 Z" fill="#000000" fill-rule="nonzero" fill-opacity="1" /><path clip-path="url(#clip060)" d="M1791.3 1514.29 L1809.66 1514.29 L1809.66 1518.22 L1795.58 1518.22 L1795.58 1526.7 Q1796.6 1526.35 1797.62 1526.19 Q1798.64 1526 1799.66 1526 Q1805.44 1526 1808.82 1529.17 Q1812.2 1532.34 1812.2 1537.76 Q1812.2 1543.34 1808.73 1546.44 Q1805.26 1549.52 1798.94 1549.52 Q1796.76 1549.52 1794.49 1549.15 Q1792.25 1548.78 1789.84 1548.04 L1789.84 1543.34 Q1791.92 1544.47 1794.15 1545.03 Q1796.37 1545.58 1798.84 1545.58 Q1802.85 1545.58 1805.19 1543.48 Q1807.53 1541.37 1807.53 1537.76 Q1807.53 1534.15 1805.19 1532.04 Q1802.85 1529.94 1798.84 1529.94 Q1796.97 1529.94 1795.09 1530.35 Q1793.24 1530.77 1791.3 1531.65 L1791.3 1514.29 Z" fill="#000000" fill-rule="nonzero" fill-opacity="1" /><path clip-path="url(#clip060)" d="M2243.3 1544.91 L2250.94 1544.91 L2250.94 1518.55 L2242.63 1520.21 L2242.63 1515.95 L2250.9 1514.29 L2255.57 1514.29 L2255.57 1544.91 L2263.21 1544.91 L2263.21 1548.85 L2243.3 1548.85 L2243.3 1544.91 Z" fill="#000000" fill-rule="nonzero" fill-opacity="1" /><path clip-path="url(#clip060)" d="M2282.65 1517.37 Q2279.04 1517.37 2277.21 1520.93 Q2275.41 1524.47 2275.41 1531.6 Q2275.41 1538.71 2277.21 1542.27 Q2279.04 1545.82 2282.65 1545.82 Q2286.29 1545.82 2288.09 1542.27 Q2289.92 1538.71 2289.92 1531.6 Q2289.92 1524.47 2288.09 1520.93 Q2286.29 1517.37 2282.65 1517.37 M2282.65 1513.66 Q2288.46 1513.66 2291.52 1518.27 Q2294.6 1522.85 2294.6 1531.6 Q2294.6 1540.33 2291.52 1544.94 Q2288.46 1549.52 2282.65 1549.52 Q2276.84 1549.52 2273.77 1544.94 Q2270.71 1540.33 2270.71 1531.6 Q2270.71 1522.85 2273.77 1518.27 Q2276.84 1513.66 2282.65 1513.66 Z" fill="#000000" fill-rule="nonzero" fill-opacity="1" /><path clip-path="url(#clip060)" d="M2302.82 1542.97 L2307.7 1542.97 L2307.7 1548.85 L2302.82 1548.85 L2302.82 1542.97 Z" fill="#000000" fill-rule="nonzero" fill-opacity="1" /><path clip-path="url(#clip060)" d="M2327.89 1517.37 Q2324.27 1517.37 2322.45 1520.93 Q2320.64 1524.47 2320.64 1531.6 Q2320.64 1538.71 2322.45 1542.27 Q2324.27 1545.82 2327.89 1545.82 Q2331.52 1545.82 2333.33 1542.27 Q2335.15 1538.71 2335.15 1531.6 Q2335.15 1524.47 2333.33 1520.93 Q2331.52 1517.37 2327.89 1517.37 M2327.89 1513.66 Q2333.7 1513.66 2336.75 1518.27 Q2339.83 1522.85 2339.83 1531.6 Q2339.83 1540.33 2336.75 1544.94 Q2333.7 1549.52 2327.89 1549.52 Q2322.08 1549.52 2319 1544.94 Q2315.94 1540.33 2315.94 1531.6 Q2315.94 1522.85 2319 1518.27 Q2322.08 1513.66 2327.89 1513.66 Z" fill="#000000" fill-rule="nonzero" fill-opacity="1" /><polyline clip-path="url(#clip062)" style="stroke:#000000; stroke-linecap:round; stroke-linejoin:round; stroke-width:2; stroke-opacity:0.1; fill:none" points="178.867,1454.08 2352.76,1454.08 "/>
<polyline clip-path="url(#clip062)" style="stroke:#000000; stroke-linecap:round; stroke-linejoin:round; stroke-width:2; stroke-opacity:0.1; fill:none" points="178.867,1035.66 2352.76,1035.66 "/>
<polyline clip-path="url(#clip062)" style="stroke:#000000; stroke-linecap:round; stroke-linejoin:round; stroke-width:2; stroke-opacity:0.1; fill:none" points="178.867,617.242 2352.76,617.242 "/>
<polyline clip-path="url(#clip062)" style="stroke:#000000; stroke-linecap:round; stroke-linejoin:round; stroke-width:2; stroke-opacity:0.1; fill:none" points="178.867,198.821 2352.76,198.821 "/>
<polyline clip-path="url(#clip060)" style="stroke:#000000; stroke-linecap:round; stroke-linejoin:round; stroke-width:4; stroke-opacity:1; fill:none" points="178.867,1486.45 178.867,47.2441 "/>
<polyline clip-path="url(#clip060)" style="stroke:#000000; stroke-linecap:round; stroke-linejoin:round; stroke-width:4; stroke-opacity:1; fill:none" points="178.867,1454.08 197.764,1454.08 "/>
<polyline clip-path="url(#clip060)" style="stroke:#000000; stroke-linecap:round; stroke-linejoin:round; stroke-width:4; stroke-opacity:1; fill:none" points="178.867,1035.66 197.764,1035.66 "/>
<polyline clip-path="url(#clip060)" style="stroke:#000000; stroke-linecap:round; stroke-linejoin:round; stroke-width:4; stroke-opacity:1; fill:none" points="178.867,617.242 197.764,617.242 "/>
<polyline clip-path="url(#clip060)" style="stroke:#000000; stroke-linecap:round; stroke-linejoin:round; stroke-width:4; stroke-opacity:1; fill:none" points="178.867,198.821 197.764,198.821 "/>
<path clip-path="url(#clip060)" d="M50.9921 1454.54 L80.6679 1454.54 L80.6679 1458.47 L50.9921 1458.47 L50.9921 1454.54 Z" fill="#000000" fill-rule="nonzero" fill-opacity="1" /><path clip-path="url(#clip060)" d="M91.5706 1467.43 L99.2095 1467.43 L99.2095 1441.06 L90.8993 1442.73 L90.8993 1438.47 L99.1632 1436.8 L103.839 1436.8 L103.839 1467.43 L111.478 1467.43 L111.478 1471.36 L91.5706 1471.36 L91.5706 1467.43 Z" fill="#000000" fill-rule="nonzero" fill-opacity="1" /><path clip-path="url(#clip060)" d="M130.922 1439.88 Q127.311 1439.88 125.482 1443.45 Q123.677 1446.99 123.677 1454.12 Q123.677 1461.23 125.482 1464.79 Q127.311 1468.33 130.922 1468.33 Q134.556 1468.33 136.362 1464.79 Q138.191 1461.23 138.191 1454.12 Q138.191 1446.99 136.362 1443.45 Q134.556 1439.88 130.922 1439.88 M130.922 1436.18 Q136.732 1436.18 139.788 1440.79 Q142.867 1445.37 142.867 1454.12 Q142.867 1462.85 139.788 1467.45 Q136.732 1472.04 130.922 1472.04 Q125.112 1472.04 122.033 1467.45 Q118.978 1462.85 118.978 1454.12 Q118.978 1445.37 122.033 1440.79 Q125.112 1436.18 130.922 1436.18 Z" fill="#000000" fill-rule="nonzero" fill-opacity="1" /><path clip-path="url(#clip060)" d="M82.1494 1036.11 L111.825 1036.11 L111.825 1040.05 L82.1494 1040.05 L82.1494 1036.11 Z" fill="#000000" fill-rule="nonzero" fill-opacity="1" /><path clip-path="url(#clip060)" d="M121.964 1018.38 L140.32 1018.38 L140.32 1022.32 L126.246 1022.32 L126.246 1030.79 Q127.265 1030.44 128.283 1030.28 Q129.302 1030.1 130.32 1030.1 Q136.107 1030.1 139.487 1033.27 Q142.867 1036.44 142.867 1041.86 Q142.867 1047.43 139.394 1050.54 Q135.922 1053.61 129.603 1053.61 Q127.427 1053.61 125.158 1053.24 Q122.913 1052.87 120.506 1052.13 L120.506 1047.43 Q122.589 1048.57 124.811 1049.12 Q127.033 1049.68 129.51 1049.68 Q133.515 1049.68 135.853 1047.57 Q138.191 1045.47 138.191 1041.86 Q138.191 1038.24 135.853 1036.14 Q133.515 1034.03 129.51 1034.03 Q127.635 1034.03 125.76 1034.45 Q123.908 1034.86 121.964 1035.74 L121.964 1018.38 Z" fill="#000000" fill-rule="nonzero" fill-opacity="1" /><path clip-path="url(#clip060)" d="M130.922 603.041 Q127.311 603.041 125.482 606.605 Q123.677 610.147 123.677 617.277 Q123.677 624.383 125.482 627.948 Q127.311 631.489 130.922 631.489 Q134.556 631.489 136.362 627.948 Q138.191 624.383 138.191 617.277 Q138.191 610.147 136.362 606.605 Q134.556 603.041 130.922 603.041 M130.922 599.337 Q136.732 599.337 139.788 603.943 Q142.867 608.527 142.867 617.277 Q142.867 626.003 139.788 630.61 Q136.732 635.193 130.922 635.193 Q125.112 635.193 122.033 630.61 Q118.978 626.003 118.978 617.277 Q118.978 608.527 122.033 603.943 Q125.112 599.337 130.922 599.337 Z" fill="#000000" fill-rule="nonzero" fill-opacity="1" /><path clip-path="url(#clip060)" d="M121.964 181.541 L140.32 181.541 L140.32 185.476 L126.246 185.476 L126.246 193.948 Q127.265 193.601 128.283 193.439 Q129.302 193.254 130.32 193.254 Q136.107 193.254 139.487 196.425 Q142.867 199.596 142.867 205.013 Q142.867 210.591 139.394 213.693 Q135.922 216.772 129.603 216.772 Q127.427 216.772 125.158 216.402 Q122.913 216.031 120.506 215.29 L120.506 210.591 Q122.589 211.726 124.811 212.281 Q127.033 212.837 129.51 212.837 Q133.515 212.837 135.853 210.73 Q138.191 208.624 138.191 205.013 Q138.191 201.402 135.853 199.295 Q133.515 197.189 129.51 197.189 Q127.635 197.189 125.76 197.605 Q123.908 198.022 121.964 198.902 L121.964 181.541 Z" fill="#000000" fill-rule="nonzero" fill-opacity="1" /><polyline clip-path="url(#clip062)" style="stroke:#009af9; stroke-linecap:round; stroke-linejoin:round; stroke-width:4; stroke-opacity:1; fill:none" points="240.392,617.242 261.107,564.049 281.823,542.015 302.538,525.109 323.254,510.855 343.97,498.298 364.685,486.946 385.401,476.506 406.116,466.789 426.832,457.662 447.547,449.03 468.263,440.82 488.978,432.975 509.694,425.451 530.409,418.211 551.125,411.225 571.841,404.469 592.556,397.921 613.272,391.562 633.987,385.378 654.703,379.355 675.418,373.48 696.134,367.744 716.849,362.136 737.565,356.649 758.28,351.276 778.996,346.009 799.712,340.842 820.427,335.77 841.143,330.788 861.858,325.891 882.574,321.075 903.289,316.336 924.005,311.67 944.72,307.075 965.436,302.547 986.151,298.083 1006.87,293.68 1027.58,289.337 1048.3,285.05 1069.01,280.819 1089.73,276.639 1110.44,272.511 1131.16,268.431 1151.88,264.398 1172.59,260.411 1193.31,256.468 1214.02,252.568 1234.74,248.709 1255.45,244.889 1276.17,241.109 1296.88,237.366 1317.6,233.66 1338.32,229.99 1359.03,226.353 1379.75,222.751 1400.46,219.18 1421.18,215.642 1441.89,212.135 1462.61,208.657 1483.32,205.209 1504.04,201.79 1524.76,198.398 1545.47,195.034 1566.19,191.696 1586.9,188.385 1607.62,185.098 1628.33,181.837 1649.05,178.6 1669.76,175.386 1690.48,172.196 1711.2,169.028 1731.91,165.883 1752.63,162.759 1773.34,159.657 1794.06,156.575 1814.77,153.514 1835.49,150.473 1856.2,147.452 1876.92,144.45 1897.64,141.467 1918.35,138.503 1939.07,135.557 1959.78,132.629 1980.5,129.718 2001.21,126.825 2021.93,123.948 2042.64,121.089 2063.36,118.245 2084.08,115.418 2104.79,112.607 2125.51,109.811 2146.22,107.031 2166.94,104.265 2187.65,101.515 2208.37,98.7788 2229.08,96.0571 2249.8,93.3497 2270.52,90.6561 2291.23,87.9763 "/>
<polyline clip-path="url(#clip062)" style="stroke:#e26f46; stroke-linecap:round; stroke-linejoin:round; stroke-width:4; stroke-opacity:1; fill:none" points="261.107,809.091 281.823,751.085 302.538,717.154 323.254,693.08 343.97,674.406 364.685,659.149 385.401,646.249 406.116,635.074 426.832,625.218 447.547,616.401 468.263,608.425 488.978,601.143 509.694,594.445 530.409,588.243 551.125,582.47 571.841,577.069 592.556,571.996 613.272,567.212 633.987,562.688 654.703,558.395 675.418,554.312 696.134,550.419 716.849,546.699 737.565,543.138 758.28,539.722 778.996,536.44 799.712,533.281 820.427,530.238 841.143,527.301 861.858,524.464 882.574,521.72 903.289,519.063 924.005,516.488 944.72,513.99 965.436,511.564 986.151,509.207 1006.87,506.914 1027.58,504.682 1048.3,502.508 1069.01,500.39 1089.73,498.323 1110.44,496.307 1131.16,494.338 1151.88,492.414 1172.59,490.533 1193.31,488.694 1214.02,486.894 1234.74,485.132 1255.45,483.407 1276.17,481.716 1296.88,480.059 1317.6,478.434 1338.32,476.84 1359.03,475.276 1379.75,473.74 1400.46,472.232 1421.18,470.751 1441.89,469.296 1462.61,467.865 1483.32,466.459 1504.04,465.076 1524.76,463.715 1545.47,462.376 1566.19,461.058 1586.9,459.76 1607.62,458.483 1628.33,457.224 1649.05,455.985 1669.76,454.763 1690.48,453.559 1711.2,452.372 1731.91,451.201 1752.63,450.047 1773.34,448.908 1794.06,447.785 1814.77,446.677 1835.49,445.583 1856.2,444.503 1876.92,443.437 1897.64,442.384 1918.35,441.345 1939.07,440.318 1959.78,439.304 1980.5,438.301 2001.21,437.311 2021.93,436.332 2042.64,435.365 2063.36,434.408 2084.08,433.463 2104.79,432.528 2125.51,431.603 2146.22,430.688 2166.94,429.784 2187.65,428.889 2208.37,428.003 2229.08,427.127 2249.8,426.26 2270.52,425.401 2291.23,424.552 "/>
<polyline clip-path="url(#clip062)" style="stroke:#3da44d; stroke-linecap:round; stroke-linejoin:round; stroke-width:4; stroke-opacity:1; fill:none" points="261.107,1445.72 281.823,1031.48 302.538,893.4 323.254,824.36 343.97,782.937 364.685,755.321 385.401,735.595 406.116,720.801 426.832,709.294 447.547,700.089 468.263,692.558 488.978,686.281 509.694,680.971 530.409,676.419 551.125,672.473 571.841,669.021 592.556,665.976 613.272,663.268 633.987,660.846 654.703,658.666 675.418,656.693 696.134,654.9 716.849,653.262 737.565,651.762 758.28,650.381 778.996,649.106 799.712,647.926 820.427,646.83 841.143,645.81 861.858,644.858 882.574,643.967 903.289,643.132 924.005,642.347 944.72,641.609 965.436,640.912 986.151,640.255 1006.87,639.633 1027.58,639.044 1048.3,638.485 1069.01,637.954 1089.73,637.448 1110.44,636.967 1131.16,636.509 1151.88,636.071 1172.59,635.652 1193.31,635.252 1214.02,634.869 1234.74,634.502 1255.45,634.149 1276.17,633.811 1296.88,633.486 1317.6,633.174 1338.32,632.873 1359.03,632.584 1379.75,632.305 1400.46,632.036 1421.18,631.776 1441.89,631.526 1462.61,631.284 1483.32,631.05 1504.04,630.823 1524.76,630.604 1545.47,630.392 1566.19,630.187 1586.9,629.988 1607.62,629.794 1628.33,629.607 1649.05,629.425 1669.76,629.249 1690.48,629.077 1711.2,628.91 1731.91,628.748 1752.63,628.591 1773.34,628.437 1794.06,628.288 1814.77,628.143 1835.49,628.001 1856.2,627.863 1876.92,627.729 1897.64,627.598 1918.35,627.47 1939.07,627.345 1959.78,627.223 1980.5,627.105 2001.21,626.989 2021.93,626.875 2042.64,626.765 2063.36,626.656 2084.08,626.551 2104.79,626.447 2125.51,626.346 2146.22,626.247 2166.94,626.15 2187.65,626.055 2208.37,625.963 2229.08,625.872 2249.8,625.783 2270.52,625.696 2291.23,625.61 "/>
<path clip-path="url(#clip060)" d="M1994.13 1438.47 L2280.29 1438.47 L2280.29 1231.11 L1994.13 1231.11  Z" fill="#ffffff" fill-rule="evenodd" fill-opacity="1"/>
<polyline clip-path="url(#clip060)" style="stroke:#000000; stroke-linecap:round; stroke-linejoin:round; stroke-width:4; stroke-opacity:1; fill:none" points="1994.13,1438.47 2280.29,1438.47 2280.29,1231.11 1994.13,1231.11 1994.13,1438.47 "/>
<polyline clip-path="url(#clip060)" style="stroke:#009af9; stroke-linecap:round; stroke-linejoin:round; stroke-width:4; stroke-opacity:1; fill:none" points="2018.29,1282.95 2163.21,1282.95 "/>
<path clip-path="url(#clip060)" d="M2199.31 1268.75 Q2195.7 1268.75 2193.87 1272.32 Q2192.06 1275.86 2192.06 1282.99 Q2192.06 1290.1 2193.87 1293.66 Q2195.7 1297.2 2199.31 1297.2 Q2202.94 1297.2 2204.75 1293.66 Q2206.58 1290.1 2206.58 1282.99 Q2206.58 1275.86 2204.75 1272.32 Q2202.94 1268.75 2199.31 1268.75 M2199.31 1265.05 Q2205.12 1265.05 2208.18 1269.66 Q2211.25 1274.24 2211.25 1282.99 Q2211.25 1291.72 2208.18 1296.32 Q2205.12 1300.91 2199.31 1300.91 Q2193.5 1300.91 2190.42 1296.32 Q2187.37 1291.72 2187.37 1282.99 Q2187.37 1274.24 2190.42 1269.66 Q2193.5 1265.05 2199.31 1265.05 Z" fill="#000000" fill-rule="nonzero" fill-opacity="1" /><path clip-path="url(#clip060)" d="M2219.47 1294.35 L2224.36 1294.35 L2224.36 1300.23 L2219.47 1300.23 L2219.47 1294.35 Z" fill="#000000" fill-rule="nonzero" fill-opacity="1" /><path clip-path="url(#clip060)" d="M2234.59 1265.67 L2252.94 1265.67 L2252.94 1269.61 L2238.87 1269.61 L2238.87 1278.08 Q2239.89 1277.73 2240.91 1277.57 Q2241.93 1277.39 2242.94 1277.39 Q2248.73 1277.39 2252.11 1280.56 Q2255.49 1283.73 2255.49 1289.15 Q2255.49 1294.73 2252.02 1297.83 Q2248.55 1300.91 2242.23 1300.91 Q2240.05 1300.91 2237.78 1300.54 Q2235.54 1300.16 2233.13 1299.42 L2233.13 1294.73 Q2235.21 1295.86 2237.44 1296.41 Q2239.66 1296.97 2242.13 1296.97 Q2246.14 1296.97 2248.48 1294.86 Q2250.81 1292.76 2250.81 1289.15 Q2250.81 1285.54 2248.48 1283.43 Q2246.14 1281.32 2242.13 1281.32 Q2240.26 1281.32 2238.38 1281.74 Q2236.53 1282.16 2234.59 1283.04 L2234.59 1265.67 Z" fill="#000000" fill-rule="nonzero" fill-opacity="1" /><polyline clip-path="url(#clip060)" style="stroke:#e26f46; stroke-linecap:round; stroke-linejoin:round; stroke-width:4; stroke-opacity:1; fill:none" points="2018.29,1334.79 2163.21,1334.79 "/>
<path clip-path="url(#clip060)" d="M2188.04 1348.14 L2195.68 1348.14 L2195.68 1321.77 L2187.37 1323.44 L2187.37 1319.18 L2195.63 1317.51 L2200.31 1317.51 L2200.31 1348.14 L2207.94 1348.14 L2207.94 1352.07 L2188.04 1352.07 L2188.04 1348.14 Z" fill="#000000" fill-rule="nonzero" fill-opacity="1" /><polyline clip-path="url(#clip060)" style="stroke:#3da44d; stroke-linecap:round; stroke-linejoin:round; stroke-width:4; stroke-opacity:1; fill:none" points="2018.29,1386.63 2163.21,1386.63 "/>
<path clip-path="url(#clip060)" d="M2192.99 1399.98 L2209.31 1399.98 L2209.31 1403.91 L2187.37 1403.91 L2187.37 1399.98 Q2190.03 1397.22 2194.61 1392.6 Q2199.22 1387.94 2200.4 1386.6 Q2202.64 1384.08 2203.52 1382.34 Q2204.43 1380.58 2204.43 1378.89 Q2204.43 1376.14 2202.48 1374.4 Q2200.56 1372.66 2197.46 1372.66 Q2195.26 1372.66 2192.81 1373.43 Q2190.38 1374.19 2187.6 1375.74 L2187.6 1371.02 Q2190.42 1369.89 2192.88 1369.31 Q2195.33 1368.73 2197.37 1368.73 Q2202.74 1368.73 2205.93 1371.41 Q2209.12 1374.1 2209.12 1378.59 Q2209.12 1380.72 2208.31 1382.64 Q2207.53 1384.54 2205.42 1387.13 Q2204.84 1387.8 2201.74 1391.02 Q2198.64 1394.22 2192.99 1399.98 Z" fill="#000000" fill-rule="nonzero" fill-opacity="1" /><path clip-path="url(#clip060)" d="M2219.12 1398.03 L2224.01 1398.03 L2224.01 1403.91 L2219.12 1403.91 L2219.12 1398.03 Z" fill="#000000" fill-rule="nonzero" fill-opacity="1" /><path clip-path="url(#clip060)" d="M2244.19 1372.43 Q2240.58 1372.43 2238.75 1376 Q2236.95 1379.54 2236.95 1386.67 Q2236.95 1393.78 2238.75 1397.34 Q2240.58 1400.88 2244.19 1400.88 Q2247.83 1400.88 2249.63 1397.34 Q2251.46 1393.78 2251.46 1386.67 Q2251.46 1379.54 2249.63 1376 Q2247.83 1372.43 2244.19 1372.43 M2244.19 1368.73 Q2250 1368.73 2253.06 1373.34 Q2256.14 1377.92 2256.14 1386.67 Q2256.14 1395.4 2253.06 1400 Q2250 1404.59 2244.19 1404.59 Q2238.38 1404.59 2235.31 1400 Q2232.25 1395.4 2232.25 1386.67 Q2232.25 1377.92 2235.31 1373.34 Q2238.38 1368.73 2244.19 1368.73 Z" fill="#000000" fill-rule="nonzero" fill-opacity="1" /></svg>