<?xml version="1.0" encoding="utf-8"?>
<svg xmlns="http://www.w3.org/2000/svg" xmlns:xlink="http://www.w3.org/1999/xlink" width="600" height="400" viewBox="0 0 2400 1600">
<defs>
  <clipPath id="clip330">
    <rect x="0" y="0" width="2400" height="1600"/>
  </clipPath>
</defs>
<path clip-path="url(#clip330)" d="M0 1600 L2400 1600 L2400 0 L0 0  Z" fill="#ffffff" fill-rule="evenodd" fill-opacity="1"/>
<defs>
  <clipPath id="clip331">
    <rect x="480" y="0" width="1681" height="1600"/>
  </clipPath>
</defs>
<path clip-path="url(#clip330)" d="M302.458 1423.18 L2352.76 1423.18 L2352.76 47.2441 L302.458 47.2441  Z" fill="#ffffff" fill-rule="evenodd" fill-opacity="1"/>
<defs>
  <clipPath id="clip332">
    <rect x="302" y="47" width="2051" height="1377"/>
  </clipPath>
</defs>
<polyline clip-path="url(#clip332)" style="stroke:#000000; stroke-linecap:round; stroke-linejoin:round; stroke-width:2; stroke-opacity:0.1; fill:none" points="359.712,1423.18 359.712,47.2441 "/>
<polyline clip-path="url(#clip332)" style="stroke:#000000; stroke-linecap:round; stroke-linejoin:round; stroke-width:2; stroke-opacity:0.1; fill:none" points="746.715,1423.18 746.715,47.2441 "/>
<polyline clip-path="url(#clip332)" style="stroke:#000000; stroke-linecap:round; stroke-linejoin:round; stroke-width:2; stroke-opacity:0.1; fill:none" points="1133.72,1423.18 1133.72,47.2441 "/>
<polyline clip-path="url(#clip332)" style="stroke:#000000; stroke-linecap:round; stroke-linejoin:round; stroke-width:2; stroke-opacity:0.1; fill:none" points="1520.72,1423.18 1520.72,47.2441 "/>
<polyline clip-path="url(#clip332)" style="stroke:#000000; stroke-linecap:round; stroke-linejoin:round; stroke-width:2; stroke-opacity:0.1; fill:none" points="1907.73,1423.18 1907.73,47.2441 "/>
<polyline clip-path="url(#clip332)" style="stroke:#000000; stroke-linecap:round; stroke-linejoin:round; stroke-width:2; stroke-opacity:0.1; fill:none" points="2294.73,1423.18 2294.73,47.2441 "/>
<polyline clip-path="url(#clip330)" style="stroke:#000000; stroke-linecap:round; stroke-linejoin:round; stroke-width:4; stroke-opacity:1; fill:none" points="302.458,1423.18 2352.76,1423.18 "/>
<polyline clip-path="url(#clip330)" style="stroke:#000000; stroke-linecap:round; stroke-linejoin:round; stroke-width:4; stroke-opacity:1; fill:none" points="359.712,1423.18 359.712,1404.28 "/>
<polyline clip-path="url(#clip330)" style="stroke:#000000; stroke-linecap:round; stroke-linejoin:round; stroke-width:4; stroke-opacity:1; fill:none" points="746.715,1423.18 746.715,1404.28 "/>
<polyline clip-path="url(#clip330)" style="stroke:#000000; stroke-linecap:round; stroke-linejoin:round; stroke-width:4; stroke-opacity:1; fill:none" points="1133.72,1423.18 1133.72,1404.28 "/>
<polyline clip-path="url(#clip330)" style="stroke:#000000; stroke-linecap:round; stroke-linejoin:round; stroke-width:4; stroke-opacity:1; fill:none" points="1520.72,1423.18 1520.72,1404.28 "/>
<polyline clip-path="url(#clip330)" style="stroke:#000000; stroke-linecap:round; stroke-linejoin:round; stroke-width:4; stroke-opacity:1; fill:none" points="1907.73,1423.18 1907.73,1404.28 "/>
<polyline clip-path="url(#clip330)" style="stroke:#000000; stroke-linecap:round; stroke-linejoin:round; stroke-width:4; stroke-opacity:1; fill:none" points="2294.73,1423.18 2294.73,1404.28 "/>
<path clip-path="url(#clip330)" d="M337.096 1454.1 Q333.485 1454.1 331.656 1457.66 Q329.851 1461.2 329.851 1468.33 Q329.851 1475.44 331.656 1479.01 Q333.485 1482.55 337.096 1482.55 Q340.73 1482.55 342.536 1479.01 Q344.365 1475.44 344.365 1468.33 Q344.365 1461.2 342.536 1457.66 Q340.73 1454.1 337.096 1454.1 M337.096 1450.39 Q342.906 1450.39 345.962 1455 Q349.04 1459.58 349.04 1468.33 Q349.04 1477.06 345.962 1481.67 Q342.906 1486.25 337.096 1486.25 Q331.286 1486.25 328.207 1481.67 Q325.152 1477.06 325.152 1468.33 Q325.152 1459.58 328.207 1455 Q331.286 1450.39 337.096 1450.39 Z" fill="#000000" fill-rule="nonzero" fill-opacity="1" /><path clip-path="url(#clip330)" d="M357.258 1479.7 L362.142 1479.7 L362.142 1485.58 L357.258 1485.58 L357.258 1479.7 Z" fill="#000000" fill-rule="nonzero" fill-opacity="1" /><path clip-path="url(#clip330)" d="M382.327 1454.1 Q378.716 1454.1 376.888 1457.66 Q375.082 1461.2 375.082 1468.33 Q375.082 1475.44 376.888 1479.01 Q378.716 1482.55 382.327 1482.55 Q385.962 1482.55 387.767 1479.01 Q389.596 1475.44 389.596 1468.33 Q389.596 1461.2 387.767 1457.66 Q385.962 1454.1 382.327 1454.1 M382.327 1450.39 Q388.137 1450.39 391.193 1455 Q394.272 1459.58 394.272 1468.33 Q394.272 1477.06 391.193 1481.67 Q388.137 1486.25 382.327 1486.25 Q376.517 1486.25 373.438 1481.67 Q370.383 1477.06 370.383 1468.33 Q370.383 1459.58 373.438 1455 Q376.517 1450.39 382.327 1450.39 Z" fill="#000000" fill-rule="nonzero" fill-opacity="1" /><path clip-path="url(#clip330)" d="M724.597 1454.1 Q720.986 1454.1 719.157 1457.66 Q717.352 1461.2 717.352 1468.33 Q717.352 1475.44 719.157 1479.01 Q720.986 1482.55 724.597 1482.55 Q728.231 1482.55 730.037 1479.01 Q731.866 1475.44 731.866 1468.33 Q731.866 1461.2 730.037 1457.66 Q728.231 1454.1 724.597 1454.1 M724.597 1450.39 Q730.407 1450.39 733.463 1455 Q736.542 1459.58 736.542 1468.33 Q736.542 1477.06 733.463 1481.67 Q730.407 1486.25 724.597 1486.25 Q718.787 1486.25 715.708 1481.67 Q712.653 1477.06 712.653 1468.33 Q712.653 1459.58 715.708 1455 Q718.787 1450.39 724.597 1450.39 Z" fill="#000000" fill-rule="nonzero" fill-opacity="1" /><path clip-path="url(#clip330)" d="M744.759 1479.7 L749.643 1479.7 L749.643 1485.58 L744.759 1485.58 L744.759 1479.7 Z" fill="#000000" fill-rule="nonzero" fill-opacity="1" /><path clip-path="url(#clip330)" d="M759.875 1451.02 L778.231 1451.02 L778.231 1454.96 L764.157 1454.96 L764.157 1463.43 Q765.176 1463.08 766.194 1462.92 Q767.213 1462.73 768.231 1462.73 Q774.018 1462.73 777.398 1465.9 Q780.777 1469.08 780.777 1474.49 Q780.777 1480.07 777.305 1483.17 Q773.833 1486.25 767.514 1486.25 Q765.338 1486.25 763.069 1485.88 Q760.824 1485.51 758.416 1484.77 L758.416 1480.07 Q760.5 1481.2 762.722 1481.76 Q764.944 1482.32 767.421 1482.32 Q771.426 1482.32 773.764 1480.21 Q776.101 1478.1 776.101 1474.49 Q776.101 1470.88 773.764 1468.77 Q771.426 1466.67 767.421 1466.67 Q765.546 1466.67 763.671 1467.08 Q761.819 1467.5 759.875 1468.38 L759.875 1451.02 Z" fill="#000000" fill-rule="nonzero" fill-opacity="1" /><path clip-path="url(#clip330)" d="M1100.87 1481.64 L1108.51 1481.64 L1108.51 1455.28 L1100.2 1456.95 L1100.2 1452.69 L1108.46 1451.02 L1113.14 1451.02 L1113.14 1481.64 L1120.78 1481.64 L1120.78 1485.58 L1100.87 1485.58 L1100.87 1481.64 Z" fill="#000000" fill-rule="nonzero" fill-opacity="1" /><path clip-path="url(#clip330)" d="M1130.22 1479.7 L1135.11 1479.7 L1135.11 1485.58 L1130.22 1485.58 L1130.22 1479.7 Z" fill="#000000" fill-rule="nonzero" fill-opacity="1" /><path clip-path="url(#clip330)" d="M1155.29 1454.1 Q1151.68 1454.1 1149.85 1457.66 Q1148.05 1461.2 1148.05 1468.33 Q1148.05 1475.44 1149.85 1479.01 Q1151.68 1482.55 1155.29 1482.55 Q1158.93 1482.55 1160.73 1479.01 Q1162.56 1475.44 1162.56 1468.33 Q1162.56 1461.2 1160.73 1457.66 Q1158.93 1454.1 1155.29 1454.1 M1155.29 1450.39 Q1161.1 1450.39 1164.16 1455 Q1167.24 1459.58 1167.24 1468.33 Q1167.24 1477.06 1164.16 1481.67 Q1161.1 1486.25 1155.29 1486.25 Q1149.48 1486.25 1146.4 1481.67 Q1143.35 1477.06 1143.35 1468.33 Q1143.35 1459.58 1146.4 1455 Q1149.48 1450.39 1155.29 1450.39 Z" fill="#000000" fill-rule="nonzero" fill-opacity="1" /><path clip-path="url(#clip330)" d="M1488.37 1481.64 L1496.01 1481.64 L1496.01 1455.28 L1487.7 1456.95 L1487.7 1452.69 L1495.97 1451.02 L1500.64 1451.02 L1500.64 1481.64 L1508.28 1481.64 L1508.28 1485.58 L1488.37 1485.58 L1488.37 1481.64 Z" fill="#000000" fill-rule="nonzero" fill-opacity="1" /><path clip-path="url(#clip330)" d="M1517.72 1479.7 L1522.61 1479.7 L1522.61 1485.58 L1517.72 1485.58 L1517.72 1479.7 Z" fill="#000000" fill-rule="nonzero" fill-opacity="1" /><path clip-path="url(#clip330)" d="M1532.84 1451.02 L1551.2 1451.02 L1551.2 1454.96 L1537.12 1454.96 L1537.12 1463.43 Q1538.14 1463.08 1539.16 1462.92 Q1540.18 1462.73 1541.2 1462.73 Q1546.98 1462.73 1550.36 1465.9 Q1553.74 1469.08 1553.74 1474.49 Q1553.74 1480.07 1550.27 1483.17 Q1546.8 1486.25 1540.48 1486.25 Q1538.3 1486.25 1536.03 1485.88 Q1533.79 1485.51 1531.38 1484.77 L1531.38 1480.07 Q1533.46 1481.2 1535.69 1481.76 Q1537.91 1482.32 1540.39 1482.32 Q1544.39 1482.32 1546.73 1480.21 Q1549.07 1478.1 1549.07 1474.49 Q1549.07 1470.88 1546.73 1468.77 Q1544.39 1466.67 1540.39 1466.67 Q1538.51 1466.67 1536.64 1467.08 Q1534.78 1467.5 1532.84 1468.38 L1532.84 1451.02 Z" fill="#000000" fill-rule="nonzero" fill-opacity="1" /><path clip-path="url(#clip330)" d="M1878.96 1481.64 L1895.28 1481.64 L1895.28 1485.58 L1873.34 1485.58 L1873.34 1481.64 Q1876 1478.89 1880.58 1474.26 Q1885.19 1469.61 1886.37 1468.27 Q1888.62 1465.74 1889.5 1464.01 Q1890.4 1462.25 1890.4 1460.56 Q1890.4 1457.8 1888.45 1456.07 Q1886.53 1454.33 1883.43 1454.33 Q1881.23 1454.33 1878.78 1455.09 Q1876.35 1455.86 1873.57 1457.41 L1873.57 1452.69 Q1876.39 1451.55 1878.85 1450.97 Q1881.3 1450.39 1883.34 1450.39 Q1888.71 1450.39 1891.9 1453.08 Q1895.1 1455.77 1895.1 1460.26 Q1895.1 1462.39 1894.29 1464.31 Q1893.5 1466.2 1891.39 1468.8 Q1890.82 1469.47 1887.71 1472.69 Q1884.61 1475.88 1878.96 1481.64 Z" fill="#000000" fill-rule="nonzero" fill-opacity="1" /><path clip-path="url(#clip330)" d="M1905.1 1479.7 L1909.98 1479.7 L1909.98 1485.58 L1905.1 1485.58 L1905.1 1479.7 Z" fill="#000000" fill-rule="nonzero" fill-opacity="1" /><path clip-path="url(#clip330)" d="M1930.17 1454.1 Q1926.56 1454.1 1924.73 1457.66 Q1922.92 1461.2 1922.92 1468.33 Q1922.92 1475.44 1924.73 1479.01 Q1926.56 1482.55 1930.17 1482.55 Q1933.8 1482.55 1935.61 1479.01 Q1937.44 1475.44 1937.44 1468.33 Q1937.44 1461.2 1935.61 1457.66 Q1933.8 1454.1 1930.17 1454.1 M1930.17 1450.39 Q1935.98 1450.39 1939.03 1455 Q1942.11 1459.58 1942.11 1468.33 Q1942.11 1477.06 1939.03 1481.67 Q1935.98 1486.25 1930.17 1486.25 Q1924.36 1486.25 1921.28 1481.67 Q1918.22 1477.06 1918.22 1468.33 Q1918.22 1459.58 1921.28 1455 Q1924.36 1450.39 1930.17 1450.39 Z" fill="#000000" fill-rule="nonzero" fill-opacity="1" /><path clip-path="url(#clip330)" d="M2266.46 1481.64 L2282.78 1481.64 L2282.78 1485.58 L2260.84 1485.58 L2260.84 1481.64 Q2263.5 1478.89 2268.09 1474.26 Q2272.69 1469.61 2273.87 1468.27 Q2276.12 1465.74 2277 1464.01 Q2277.9 1462.25 2277.9 1460.56 Q2277.9 1457.8 2275.96 1456.07 Q2274.03 1454.33 2270.93 1454.33 Q2268.73 1454.33 2266.28 1455.09 Q2263.85 1455.86 2261.07 1457.41 L2261.07 1452.69 Q2263.9 1451.55 2266.35 1450.97 Q2268.8 1450.39 2270.84 1450.39 Q2276.21 1450.39 2279.4 1453.08 Q2282.6 1455.77 2282.6 1460.26 Q2282.6 1462.39 2281.79 1464.31 Q2281 1466.2 2278.9 1468.8 Q2278.32 1469.47 2275.21 1472.69 Q2272.11 1475.88 2266.46 1481.64 Z" fill="#000000" fill-rule="nonzero" fill-opacity="1" /><path clip-path="url(#clip330)" d="M2292.6 1479.7 L2297.48 1479.7 L2297.48 1485.58 L2292.6 1485.58 L2292.6 1479.7 Z" fill="#000000" fill-rule="nonzero" fill-opacity="1" /><path clip-path="url(#clip330)" d="M2307.71 1451.02 L2326.07 1451.02 L2326.07 1454.96 L2312 1454.96 L2312 1463.43 Q2313.02 1463.08 2314.03 1462.92 Q2315.05 1462.73 2316.07 1462.73 Q2321.86 1462.73 2325.24 1465.9 Q2328.62 1469.08 2328.62 1474.49 Q2328.62 1480.07 2325.15 1483.17 Q2321.67 1486.25 2315.35 1486.25 Q2313.18 1486.25 2310.91 1485.88 Q2308.66 1485.51 2306.26 1484.77 L2306.26 1480.07 Q2308.34 1481.2 2310.56 1481.76 Q2312.78 1482.32 2315.26 1482.32 Q2319.27 1482.32 2321.6 1480.21 Q2323.94 1478.1 2323.94 1474.49 Q2323.94 1470.88 2321.6 1468.77 Q2319.27 1466.67 2315.26 1466.67 Q2313.39 1466.67 2311.51 1467.08 Q2309.66 1467.5 2307.71 1468.38 L2307.71 1451.02 Z" fill="#000000" fill-rule="nonzero" fill-opacity="1" /><path clip-path="url(#clip330)" d="M1330.98 1550.12 Q1323.88 1550.12 1321.15 1551.75 Q1318.41 1553.37 1318.41 1557.29 Q1318.41 1560.4 1320.45 1562.25 Q1322.51 1564.07 1326.05 1564.07 Q1330.92 1564.07 1333.85 1560.63 Q1336.81 1557.16 1336.81 1551.43 L1336.81 1550.12 L1330.98 1550.12 M1342.66 1547.71 L1342.66 1568.04 L1336.81 1568.04 L1336.81 1562.63 Q1334.8 1565.88 1331.81 1567.44 Q1328.82 1568.97 1324.49 1568.97 Q1319.01 1568.97 1315.77 1565.91 Q1312.55 1562.82 1312.55 1557.67 Q1312.55 1551.65 1316.56 1548.6 Q1320.6 1545.54 1328.59 1545.54 L1336.81 1545.54 L1336.81 1544.97 Q1336.81 1540.93 1334.13 1538.73 Q1331.49 1536.5 1326.68 1536.5 Q1323.63 1536.5 1320.73 1537.23 Q1317.84 1537.97 1315.16 1539.43 L1315.16 1534.02 Q1318.38 1532.78 1321.4 1532.17 Q1324.42 1531.54 1327.29 1531.54 Q1335.02 1531.54 1338.84 1535.55 Q1342.66 1539.56 1342.66 1547.71 Z" fill="#000000" fill-rule="nonzero" fill-opacity="1" /><polyline clip-path="url(#clip332)" style="stroke:#000000; stroke-linecap:round; stroke-linejoin:round; stroke-width:2; stroke-opacity:0.1; fill:none" points="302.458,1150.32 2352.76,1150.32 "/>
<polyline clip-path="url(#clip332)" style="stroke:#000000; stroke-linecap:round; stroke-linejoin:round; stroke-width:2; stroke-opacity:0.1; fill:none" points="302.458,795.311 2352.76,795.311 "/>
<polyline clip-path="url(#clip332)" style="stroke:#000000; stroke-linecap:round; stroke-linejoin:round; stroke-width:2; stroke-opacity:0.1; fill:none" points="302.458,440.299 2352.76,440.299 "/>
<polyline clip-path="url(#clip332)" style="stroke:#000000; stroke-linecap:round; stroke-linejoin:round; stroke-width:2; stroke-opacity:0.1; fill:none" points="302.458,85.2876 2352.76,85.2876 "/>
<polyline clip-path="url(#clip330)" style="stroke:#000000; stroke-linecap:round; stroke-linejoin:round; stroke-width:4; stroke-opacity:1; fill:none" points="302.458,1423.18 302.458,47.2441 "/>
<polyline clip-path="url(#clip330)" style="stroke:#000000; stroke-linecap:round; stroke-linejoin:round; stroke-width:4; stroke-opacity:1; fill:none" points="302.458,1150.32 321.356,1150.32 "/>
<polyline clip-path="url(#clip330)" style="stroke:#000000; stroke-linecap:round; stroke-linejoin:round; stroke-width:4; stroke-opacity:1; fill:none" points="302.458,795.311 321.356,795.311 "/>
<polyline clip-path="url(#clip330)" style="stroke:#000000; stroke-linecap:round; stroke-linejoin:round; stroke-width:4; stroke-opacity:1; fill:none" points="302.458,440.299 321.356,440.299 "/>
<polyline clip-path="url(#clip330)" style="stroke:#000000; stroke-linecap:round; stroke-linejoin:round; stroke-width:4; stroke-opacity:1; fill:none" points="302.458,85.2876 321.356,85.2876 "/>
<path clip-path="url(#clip330)" d="M114.26 1150.77 L143.936 1150.77 L143.936 1154.71 L114.26 1154.71 L114.26 1150.77 Z" fill="#000000" fill-rule="nonzero" fill-opacity="1" /><path clip-path="url(#clip330)" d="M154.839 1163.67 L162.477 1163.67 L162.477 1137.3 L154.167 1138.97 L154.167 1134.71 L162.431 1133.04 L167.107 1133.04 L167.107 1163.67 L174.746 1163.67 L174.746 1167.6 L154.839 1167.6 L154.839 1163.67 Z" fill="#000000" fill-rule="nonzero" fill-opacity="1" /><path clip-path="url(#clip330)" d="M184.237 1133.04 L202.593 1133.04 L202.593 1136.98 L188.519 1136.98 L188.519 1145.45 Q189.538 1145.1 190.556 1144.94 Q191.575 1144.76 192.593 1144.76 Q198.38 1144.76 201.76 1147.93 Q205.139 1151.1 205.139 1156.52 Q205.139 1162.09 201.667 1165.2 Q198.195 1168.27 191.875 1168.27 Q189.7 1168.27 187.431 1167.9 Q185.186 1167.53 182.778 1166.79 L182.778 1162.09 Q184.862 1163.23 187.084 1163.78 Q189.306 1164.34 191.783 1164.34 Q195.787 1164.34 198.125 1162.23 Q200.463 1160.13 200.463 1156.52 Q200.463 1152.9 198.125 1150.8 Q195.787 1148.69 191.783 1148.69 Q189.908 1148.69 188.033 1149.11 Q186.181 1149.52 184.237 1150.4 L184.237 1133.04 Z" fill="#000000" fill-rule="nonzero" fill-opacity="1" /><path clip-path="url(#clip330)" d="M224.352 1136.12 Q220.741 1136.12 218.912 1139.69 Q217.107 1143.23 217.107 1150.36 Q217.107 1157.46 218.912 1161.03 Q220.741 1164.57 224.352 1164.57 Q227.986 1164.57 229.792 1161.03 Q231.621 1157.46 231.621 1150.36 Q231.621 1143.23 229.792 1139.69 Q227.986 1136.12 224.352 1136.12 M224.352 1132.42 Q230.162 1132.42 233.218 1137.02 Q236.297 1141.61 236.297 1150.36 Q236.297 1159.08 233.218 1163.69 Q230.162 1168.27 224.352 1168.27 Q218.542 1168.27 215.463 1163.69 Q212.408 1159.08 212.408 1150.36 Q212.408 1141.61 215.463 1137.02 Q218.542 1132.42 224.352 1132.42 Z" fill="#000000" fill-rule="nonzero" fill-opacity="1" /><path clip-path="url(#clip330)" d="M254.514 1136.12 Q250.903 1136.12 249.074 1139.69 Q247.269 1143.23 247.269 1150.36 Q247.269 1157.46 249.074 1161.03 Q250.903 1164.57 254.514 1164.57 Q258.148 1164.57 259.954 1161.03 Q261.783 1157.46 261.783 1150.36 Q261.783 1143.23 259.954 1139.69 Q258.148 1136.12 254.514 1136.12 M254.514 1132.42 Q260.324 1132.42 263.38 1137.02 Q266.458 1141.61 266.458 1150.36 Q266.458 1159.08 263.38 1163.69 Q260.324 1168.27 254.514 1168.27 Q248.704 1168.27 245.625 1163.69 Q242.57 1159.08 242.57 1150.36 Q242.57 1141.61 245.625 1137.02 Q248.704 1132.42 254.514 1132.42 Z" fill="#000000" fill-rule="nonzero" fill-opacity="1" /><path clip-path="url(#clip330)" d="M114.26 795.763 L143.936 795.763 L143.936 799.698 L114.26 799.698 L114.26 795.763 Z" fill="#000000" fill-rule="nonzero" fill-opacity="1" /><path clip-path="url(#clip330)" d="M154.839 808.656 L162.477 808.656 L162.477 782.291 L154.167 783.957 L154.167 779.698 L162.431 778.031 L167.107 778.031 L167.107 808.656 L174.746 808.656 L174.746 812.591 L154.839 812.591 L154.839 808.656 Z" fill="#000000" fill-rule="nonzero" fill-opacity="1" /><path clip-path="url(#clip330)" d="M194.19 781.11 Q190.579 781.11 188.75 784.675 Q186.945 788.216 186.945 795.346 Q186.945 802.452 188.75 806.017 Q190.579 809.559 194.19 809.559 Q197.825 809.559 199.63 806.017 Q201.459 802.452 201.459 795.346 Q201.459 788.216 199.63 784.675 Q197.825 781.11 194.19 781.11 M194.19 777.406 Q200 777.406 203.056 782.013 Q206.135 786.596 206.135 795.346 Q206.135 804.073 203.056 808.679 Q200 813.263 194.19 813.263 Q188.38 813.263 185.301 808.679 Q182.246 804.073 182.246 795.346 Q182.246 786.596 185.301 782.013 Q188.38 777.406 194.19 777.406 Z" fill="#000000" fill-rule="nonzero" fill-opacity="1" /><path clip-path="url(#clip330)" d="M224.352 781.11 Q220.741 781.11 218.912 784.675 Q217.107 788.216 217.107 795.346 Q217.107 802.452 218.912 806.017 Q220.741 809.559 224.352 809.559 Q227.986 809.559 229.792 806.017 Q231.621 802.452 231.621 795.346 Q231.621 788.216 229.792 784.675 Q227.986 781.11 224.352 781.11 M224.352 777.406 Q230.162 777.406 233.218 782.013 Q236.297 786.596 236.297 795.346 Q236.297 804.073 233.218 808.679 Q230.162 813.263 224.352 813.263 Q218.542 813.263 215.463 808.679 Q212.408 804.073 212.408 795.346 Q212.408 786.596 215.463 782.013 Q218.542 777.406 224.352 777.406 Z" fill="#000000" fill-rule="nonzero" fill-opacity="1" /><path clip-path="url(#clip330)" d="M254.514 781.11 Q250.903 781.11 249.074 784.675 Q247.269 788.216 247.269 795.346 Q247.269 802.452 249.074 806.017 Q250.903 809.559 254.514 809.559 Q258.148 809.559 259.954 806.017 Q261.783 802.452 261.783 795.346 Q261.783 788.216 259.954 784.675 Q258.148 781.11 254.514 781.11 M254.514 777.406 Q260.324 777.406 263.38 782.013 Q266.458 786.596 266.458 795.346 Q266.458 804.073 263.38 808.679 Q260.324 813.263 254.514 813.263 Q248.704 813.263 245.625 808.679 Q242.57 804.073 242.57 795.346 Q242.57 786.596 245.625 782.013 Q248.704 777.406 254.514 777.406 Z" fill="#000000" fill-rule="nonzero" fill-opacity="1" /><path clip-path="url(#clip330)" d="M144.422 440.751 L174.098 440.751 L174.098 444.686 L144.422 444.686 L144.422 440.751 Z" fill="#000000" fill-rule="nonzero" fill-opacity="1" /><path clip-path="url(#clip330)" d="M184.237 423.019 L202.593 423.019 L202.593 426.955 L188.519 426.955 L188.519 435.427 Q189.538 435.08 190.556 434.918 Q191.575 434.732 192.593 434.732 Q198.38 434.732 201.76 437.904 Q205.139 441.075 205.139 446.492 Q205.139 452.07 201.667 455.172 Q198.195 458.251 191.875 458.251 Q189.7 458.251 187.431 457.88 Q185.186 457.51 182.778 456.769 L182.778 452.07 Q184.862 453.204 187.084 453.76 Q189.306 454.316 191.783 454.316 Q195.787 454.316 198.125 452.209 Q200.463 450.103 200.463 446.492 Q200.463 442.88 198.125 440.774 Q195.787 438.668 191.783 438.668 Q189.908 438.668 188.033 439.084 Q186.181 439.501 184.237 440.38 L184.237 423.019 Z" fill="#000000" fill-rule="nonzero" fill-opacity="1" /><path clip-path="url(#clip330)" d="M224.352 426.098 Q220.741 426.098 218.912 429.663 Q217.107 433.205 217.107 440.334 Q217.107 447.441 218.912 451.005 Q220.741 454.547 224.352 454.547 Q227.986 454.547 229.792 451.005 Q231.621 447.441 231.621 440.334 Q231.621 433.205 229.792 429.663 Q227.986 426.098 224.352 426.098 M224.352 422.394 Q230.162 422.394 233.218 427.001 Q236.297 431.584 236.297 440.334 Q236.297 449.061 233.218 453.667 Q230.162 458.251 224.352 458.251 Q218.542 458.251 215.463 453.667 Q212.408 449.061 212.408 440.334 Q212.408 431.584 215.463 427.001 Q218.542 422.394 224.352 422.394 Z" fill="#000000" fill-rule="nonzero" fill-opacity="1" /><path clip-path="url(#clip330)" d="M254.514 426.098 Q250.903 426.098 249.074 429.663 Q247.269 433.205 247.269 440.334 Q247.269 447.441 249.074 451.005 Q250.903 454.547 254.514 454.547 Q258.148 454.547 259.954 451.005 Q261.783 447.441 261.783 440.334 Q261.783 433.205 259.954 429.663 Q258.148 426.098 254.514 426.098 M254.514 422.394 Q260.324 422.394 263.38 427.001 Q266.458 431.584 266.458 440.334 Q266.458 449.061 263.38 453.667 Q260.324 458.251 254.514 458.251 Q248.704 458.251 245.625 453.667 Q242.57 449.061 242.57 440.334 Q242.57 431.584 245.625 427.001 Q248.704 422.394 254.514 422.394 Z" fill="#000000" fill-rule="nonzero" fill-opacity="1" /><path clip-path="url(#clip330)" d="M254.514 71.0862 Q250.903 71.0862 249.074 74.651 Q247.269 78.1927 247.269 85.3223 Q247.269 92.4287 249.074 95.9935 Q250.903 99.5352 254.514 99.5352 Q258.148 99.5352 259.954 95.9935 Q261.783 92.4287 261.783 85.3223 Q261.783 78.1927 259.954 74.651 Q258.148 71.0862 254.514 71.0862 M254.514 67.3826 Q260.324 67.3826 263.38 71.989 Q266.458 76.5723 266.458 85.3223 Q266.458 94.0491 263.38 98.6555 Q260.324 103.239 254.514 103.239 Q248.704 103.239 245.625 98.6555 Q242.57 94.0491 242.57 85.3223 Q242.57 76.5723 245.625 71.989 Q248.704 67.3826 254.514 67.3826 Z" fill="#000000" fill-rule="nonzero" fill-opacity="1" /><path clip-path="url(#clip330)" d="M28.3562 796.132 L28.3562 789.925 L58.275 778.785 L28.3562 767.645 L28.3562 761.439 L64.0042 774.807 L64.0042 782.764 L28.3562 796.132 Z" fill="#000000" fill-rule="nonzero" fill-opacity="1" /><path clip-path="url(#clip330)" d="M14.5426 739.286 Q21.8632 743.551 29.0246 745.62 Q36.186 747.689 43.5384 747.689 Q50.8908 747.689 58.1159 745.62 Q65.3091 743.519 72.5979 739.286 L72.5979 744.379 Q65.1182 749.153 57.8931 751.54 Q50.668 753.895 43.5384 753.895 Q36.4406 753.895 29.2474 751.54 Q22.0542 749.185 14.5426 744.379 L14.5426 739.286 Z" fill="#000000" fill-rule="nonzero" fill-opacity="1" /><path clip-path="url(#clip330)" d="M46.0847 711.723 Q46.0847 718.82 47.7079 721.558 Q49.3312 724.295 53.2461 724.295 Q56.3653 724.295 58.2114 722.258 Q60.0256 720.189 60.0256 716.656 Q60.0256 711.786 56.5881 708.858 Q53.1188 705.898 47.3897 705.898 L46.0847 705.898 L46.0847 711.723 M43.6657 700.041 L64.0042 700.041 L64.0042 705.898 L58.5933 705.898 Q61.8398 707.903 63.3994 710.895 Q64.9272 713.887 64.9272 718.216 Q64.9272 723.69 61.8716 726.937 Q58.7843 730.151 53.6281 730.151 Q47.6125 730.151 44.5569 726.141 Q41.5014 722.099 41.5014 714.11 L41.5014 705.898 L40.9285 705.898 Q36.8862 705.898 34.6901 708.571 Q32.4621 711.213 32.4621 716.019 Q32.4621 719.075 33.1941 721.971 Q33.9262 724.868 35.3903 727.541 L29.9795 727.541 Q28.7381 724.327 28.1334 721.303 Q27.4968 718.279 27.4968 715.415 Q27.4968 707.68 31.5072 703.861 Q35.5176 700.041 43.6657 700.041 Z" fill="#000000" fill-rule="nonzero" fill-opacity="1" /><path clip-path="url(#clip330)" d="M14.5426 688.901 L14.5426 683.809 Q22.0542 679.035 29.2474 676.679 Q36.4406 674.292 43.5384 674.292 Q50.668 674.292 57.8931 676.679 Q65.1182 679.035 72.5979 683.809 L72.5979 688.901 Q65.3091 684.668 58.1159 682.599 Q50.8908 680.499 43.5384 680.499 Q36.186 680.499 29.0246 682.599 Q21.8632 684.668 14.5426 688.901 Z" fill="#000000" fill-rule="nonzero" fill-opacity="1" /><polyline clip-path="url(#clip332)" style="stroke:#ff0000; stroke-linecap:round; stroke-linejoin:round; stroke-width:4; stroke-opacity:1; fill:none" points="360.486,130.193 376.74,94.8615 392.994,92.1356 409.248,90.9008 425.502,90.1583 441.756,89.6492 458.011,89.2723 474.265,88.9788 490.519,88.7419 506.773,88.5454 523.027,88.379 539.281,88.2358 555.535,88.1108 571.79,88.0004 588.044,87.9021 604.298,87.8137 620.552,87.7337 636.806,87.6609 653.06,87.5942 669.314,87.5328 685.569,87.4761 701.823,87.4235 718.077,87.3745 734.331,87.3287 750.585,87.2858 766.839,87.2455 783.093,87.2076 799.348,87.1718 815.602,87.1379 831.856,87.1057 848.11,87.0752 864.364,87.0462 880.618,87.0185 896.872,86.9922 913.127,86.9669 929.381,86.9428 945.635,86.9197 961.889,86.8975 978.143,86.8762 994.397,86.8557 1010.65,86.836 1026.91,86.8171 1043.16,86.7988 1059.41,86.7811 1075.67,86.7641 1091.92,86.7476 1108.18,86.7316 1124.43,86.7162 1140.68,86.7013 1156.94,86.6868 1173.19,86.6727 1189.45,86.6591 1205.7,86.6458 1221.96,86.633 1238.21,86.6205 1254.46,86.6083 1270.72,86.5965 1286.97,86.585 1303.23,86.5737 1319.48,86.5628 1335.73,86.5521 1351.99,86.5417 1368.24,86.5316 1384.5,86.5217 1400.75,86.512 1417,86.5026 1433.26,86.4933 1449.51,86.4843 1465.77,86.4755 1482.02,86.4668 1498.28,86.4584 1514.53,86.4501 1530.78,86.442 1547.04,86.4341 1563.29,86.4263 1579.55,86.4187 1595.8,86.4113 1612.05,86.4039 1628.31,86.3968 1644.56,86.3897 1660.82,86.3828 1677.07,86.376 1693.33,86.3694 1709.58,86.3629 1725.83,86.3564 1742.09,86.3501 1758.34,86.3439 1774.6,86.3379 1790.85,86.3319 1807.1,86.326 1823.36,86.3202 1839.61,86.3145 1855.87,86.3089 1872.12,86.3034 1888.38,86.298 1904.63,86.2927 1920.88,86.2874 1937.14,86.2823 1953.39,86.2772 1969.65,86.2722 1985.9,86.2672 2002.15,86.2624 2018.41,86.2576 2034.66,86.2529 2050.92,86.2482 2067.17,86.2436 2083.42,86.2391 2099.68,86.2347 2115.93,86.2303 2132.19,86.2259 2148.44,86.2217 2164.7,86.2175 2180.95,86.2133 2197.2,86.2092 2213.46,86.2051 2229.71,86.2012 2245.97,86.1972 2262.22,86.1933 2278.47,86.1895 2294.73,86.1857 "/>
<polyline clip-path="url(#clip332)" style="stroke:#0000ff; stroke-linecap:round; stroke-linejoin:round; stroke-width:4; stroke-opacity:1; fill:none" points="360.486,1384.24 376.74,1229.97 392.994,1117.01 409.248,1030.23 425.502,961.127 441.756,904.566 458.011,857.25 474.265,816.962 490.519,782.155 506.773,751.712 523.027,724.81 539.281,700.823 555.535,679.268 571.79,659.768 588.044,642.019 604.298,625.779 620.552,610.848 636.806,597.061 653.06,584.282 669.314,572.394 685.569,561.301 701.823,550.917 718.077,541.172 734.331,532.003 750.585,523.356 766.839,515.185 783.093,507.446 799.348,500.105 815.602,493.127 831.856,486.485 848.11,480.153 864.364,474.107 880.618,468.326 896.872,462.793 913.127,457.49 929.381,452.401 945.635,447.515 961.889,442.822 978.143,438.309 994.397,433.964 1010.65,429.777 1026.91,425.738 1043.16,421.838 1059.41,418.07 1075.67,414.426 1091.92,410.9 1108.18,407.485 1124.43,404.175 1140.68,400.965 1156.94,397.85 1173.19,394.825 1189.45,391.886 1205.7,389.03 1221.96,386.251 1238.21,383.547 1254.46,380.915 1270.72,378.351 1286.97,375.852 1303.23,373.415 1319.48,371.039 1335.73,368.72 1351.99,366.457 1368.24,364.246 1384.5,362.087 1400.75,359.977 1417,357.914 1433.26,355.896 1449.51,353.922 1465.77,351.991 1482.02,350.101 1498.28,348.249 1514.53,346.436 1530.78,344.66 1547.04,342.919 1563.29,341.214 1579.55,339.542 1595.8,337.902 1612.05,336.294 1628.31,334.717 1644.56,333.168 1660.82,331.649 1677.07,330.157 1693.33,328.692 1709.58,327.253 1725.83,325.839 1742.09,324.45 1758.34,323.084 1774.6,321.742 1790.85,320.422 1807.1,319.124 1823.36,317.847 1839.61,316.591 1855.87,315.355 1872.12,314.139 1888.38,312.941 1904.63,311.762 1920.88,310.602 1937.14,309.459 1953.39,308.333 1969.65,307.223 1985.9,306.131 2002.15,305.054 2018.41,303.992 2034.66,302.946 2050.92,301.915 2067.17,300.898 2083.42,299.895 2099.68,298.906 2115.93,297.93 2132.19,296.968 2148.44,296.019 2164.7,295.082 2180.95,294.158 2197.2,293.246 2213.46,292.346 2229.71,291.457 2245.97,290.58 2262.22,289.714 2278.47,288.859 2294.73,288.015 "/>
<path clip-path="url(#clip330)" d="M1752.44 1377.32 L2284.41 1377.32 L2284.41 1221.8 L1752.44 1221.8  Z" fill="#ffffff" fill-rule="evenodd" fill-opacity="1"/>
<polyline clip-path="url(#clip330)" style="stroke:#000000; stroke-linecap:round; stroke-linejoin:round; stroke-width:4; stroke-opacity:1; fill:none" points="1752.44,1377.32 2284.41,1377.32 2284.41,1221.8 1752.44,1221.8 1752.44,1377.32 "/>
<polyline clip-path="url(#clip330)" style="stroke:#ff0000; stroke-linecap:round; stroke-linejoin:round; stroke-width:4; stroke-opacity:1; fill:none" points="1775.22,1273.64 1911.91,1273.64 "/>
<path clip-path="url(#clip330)" d="M1934.69 1256.36 L1939.36 1256.36 L1939.36 1290.92 L1934.69 1290.92 L1934.69 1256.36 Z" fill="#000000" fill-rule="nonzero" fill-opacity="1" /><path clip-path="url(#clip330)" d="M1970.04 1275.27 L1970.04 1290.92 L1965.78 1290.92 L1965.78 1275.41 Q1965.78 1271.73 1964.34 1269.9 Q1962.91 1268.07 1960.04 1268.07 Q1956.59 1268.07 1954.6 1270.27 Q1952.61 1272.47 1952.61 1276.26 L1952.61 1290.92 L1948.32 1290.92 L1948.32 1264.99 L1952.61 1264.99 L1952.61 1269.02 Q1954.13 1266.68 1956.19 1265.52 Q1958.28 1264.36 1960.99 1264.36 Q1965.45 1264.36 1967.74 1267.14 Q1970.04 1269.9 1970.04 1275.27 Z" fill="#000000" fill-rule="nonzero" fill-opacity="1" /><path clip-path="url(#clip330)" d="M1978.53 1264.99 L1982.79 1264.99 L1982.79 1290.92 L1978.53 1290.92 L1978.53 1264.99 M1978.53 1254.9 L1982.79 1254.9 L1982.79 1260.29 L1978.53 1260.29 L1978.53 1254.9 Z" fill="#000000" fill-rule="nonzero" fill-opacity="1" /><path clip-path="url(#clip330)" d="M1995.92 1257.63 L1995.92 1264.99 L2004.69 1264.99 L2004.69 1268.3 L1995.92 1268.3 L1995.92 1282.37 Q1995.92 1285.54 1996.77 1286.45 Q1997.65 1287.35 2000.31 1287.35 L2004.69 1287.35 L2004.69 1290.92 L2000.31 1290.92 Q1995.38 1290.92 1993.51 1289.09 Q1991.63 1287.23 1991.63 1282.37 L1991.63 1268.3 L1988.51 1268.3 L1988.51 1264.99 L1991.63 1264.99 L1991.63 1257.63 L1995.92 1257.63 Z" fill="#000000" fill-rule="nonzero" fill-opacity="1" /><path clip-path="url(#clip330)" d="M2010.29 1264.99 L2014.55 1264.99 L2014.55 1290.92 L2010.29 1290.92 L2010.29 1264.99 M2010.29 1254.9 L2014.55 1254.9 L2014.55 1260.29 L2010.29 1260.29 L2010.29 1254.9 Z" fill="#000000" fill-rule="nonzero" fill-opacity="1" /><path clip-path="url(#clip330)" d="M2035.24 1277.88 Q2030.08 1277.88 2028.09 1279.06 Q2026.1 1280.24 2026.1 1283.09 Q2026.1 1285.36 2027.58 1286.7 Q2029.09 1288.02 2031.66 1288.02 Q2035.2 1288.02 2037.33 1285.52 Q2039.48 1283 2039.48 1278.83 L2039.48 1277.88 L2035.24 1277.88 M2043.74 1276.12 L2043.74 1290.92 L2039.48 1290.92 L2039.48 1286.98 Q2038.02 1289.34 2035.85 1290.48 Q2033.67 1291.59 2030.52 1291.59 Q2026.54 1291.59 2024.18 1289.36 Q2021.84 1287.12 2021.84 1283.37 Q2021.84 1278.99 2024.76 1276.77 Q2027.7 1274.55 2033.51 1274.55 L2039.48 1274.55 L2039.48 1274.13 Q2039.48 1271.19 2037.54 1269.6 Q2035.61 1267.98 2032.12 1267.98 Q2029.9 1267.98 2027.79 1268.51 Q2025.68 1269.04 2023.74 1270.11 L2023.74 1266.17 Q2026.08 1265.27 2028.28 1264.83 Q2030.48 1264.36 2032.56 1264.36 Q2038.18 1264.36 2040.96 1267.28 Q2043.74 1270.2 2043.74 1276.12 Z" fill="#000000" fill-rule="nonzero" fill-opacity="1" /><path clip-path="url(#clip330)" d="M2052.51 1254.9 L2056.77 1254.9 L2056.77 1290.92 L2052.51 1290.92 L2052.51 1254.9 Z" fill="#000000" fill-rule="nonzero" fill-opacity="1" /><path clip-path="url(#clip330)" d="M2097.81 1277.65 Q2097.81 1273.02 2095.89 1270.48 Q2093.99 1267.93 2090.54 1267.93 Q2087.12 1267.93 2085.2 1270.48 Q2083.3 1273.02 2083.3 1277.65 Q2083.3 1282.26 2085.2 1284.8 Q2087.12 1287.35 2090.54 1287.35 Q2093.99 1287.35 2095.89 1284.8 Q2097.81 1282.26 2097.81 1277.65 M2102.07 1287.7 Q2102.07 1294.32 2099.13 1297.54 Q2096.19 1300.78 2090.13 1300.78 Q2087.88 1300.78 2085.89 1300.43 Q2083.9 1300.11 2082.03 1299.41 L2082.03 1295.27 Q2083.9 1296.29 2085.73 1296.77 Q2087.56 1297.26 2089.46 1297.26 Q2093.65 1297.26 2095.73 1295.06 Q2097.81 1292.88 2097.81 1288.46 L2097.81 1286.36 Q2096.49 1288.65 2094.43 1289.78 Q2092.37 1290.92 2089.5 1290.92 Q2084.73 1290.92 2081.82 1287.28 Q2078.9 1283.65 2078.9 1277.65 Q2078.9 1271.63 2081.82 1268 Q2084.73 1264.36 2089.5 1264.36 Q2092.37 1264.36 2094.43 1265.5 Q2096.49 1266.63 2097.81 1268.92 L2097.81 1264.99 L2102.07 1264.99 L2102.07 1287.7 Z" fill="#000000" fill-rule="nonzero" fill-opacity="1" /><path clip-path="url(#clip330)" d="M2110.41 1280.68 L2110.41 1264.99 L2114.66 1264.99 L2114.66 1280.52 Q2114.66 1284.2 2116.1 1286.05 Q2117.54 1287.88 2120.41 1287.88 Q2123.85 1287.88 2125.85 1285.68 Q2127.86 1283.48 2127.86 1279.69 L2127.86 1264.99 L2132.12 1264.99 L2132.12 1290.92 L2127.86 1290.92 L2127.86 1286.93 Q2126.31 1289.29 2124.25 1290.45 Q2122.21 1291.59 2119.5 1291.59 Q2115.04 1291.59 2112.72 1288.81 Q2110.41 1286.03 2110.41 1280.68 M2121.12 1264.36 L2121.12 1264.36 Z" fill="#000000" fill-rule="nonzero" fill-opacity="1" /><path clip-path="url(#clip330)" d="M2163.07 1276.89 L2163.07 1278.97 L2143.48 1278.97 Q2143.76 1283.37 2146.12 1285.68 Q2148.51 1287.98 2152.74 1287.98 Q2155.2 1287.98 2157.49 1287.37 Q2159.8 1286.77 2162.07 1285.57 L2162.07 1289.6 Q2159.78 1290.57 2157.37 1291.08 Q2154.97 1291.59 2152.49 1291.59 Q2146.28 1291.59 2142.65 1287.98 Q2139.04 1284.36 2139.04 1278.21 Q2139.04 1271.84 2142.47 1268.11 Q2145.91 1264.36 2151.75 1264.36 Q2156.98 1264.36 2160.01 1267.74 Q2163.07 1271.1 2163.07 1276.89 M2158.81 1275.64 Q2158.76 1272.14 2156.84 1270.06 Q2154.94 1267.98 2151.79 1267.98 Q2148.23 1267.98 2146.08 1269.99 Q2143.95 1272 2143.62 1275.66 L2158.81 1275.64 Z" fill="#000000" fill-rule="nonzero" fill-opacity="1" /><path clip-path="url(#clip330)" d="M2186.59 1265.75 L2186.59 1269.78 Q2184.78 1268.86 2182.84 1268.39 Q2180.89 1267.93 2178.81 1267.93 Q2175.64 1267.93 2174.04 1268.9 Q2172.47 1269.87 2172.47 1271.82 Q2172.47 1273.3 2173.6 1274.16 Q2174.73 1274.99 2178.16 1275.75 L2179.62 1276.08 Q2184.16 1277.05 2186.05 1278.83 Q2187.97 1280.59 2187.97 1283.76 Q2187.97 1287.37 2185.1 1289.48 Q2182.26 1291.59 2177.26 1291.59 Q2175.17 1291.59 2172.91 1291.17 Q2170.66 1290.78 2168.16 1289.97 L2168.16 1285.57 Q2170.52 1286.79 2172.81 1287.42 Q2175.1 1288.02 2177.35 1288.02 Q2180.36 1288.02 2181.98 1287 Q2183.6 1285.96 2183.6 1284.09 Q2183.6 1282.35 2182.42 1281.42 Q2181.26 1280.5 2177.3 1279.64 L2175.82 1279.3 Q2171.86 1278.46 2170.1 1276.75 Q2168.35 1275.01 2168.35 1272 Q2168.35 1268.35 2170.94 1266.36 Q2173.53 1264.36 2178.3 1264.36 Q2180.66 1264.36 2182.74 1264.71 Q2184.83 1265.06 2186.59 1265.75 Z" fill="#000000" fill-rule="nonzero" fill-opacity="1" /><path clip-path="url(#clip330)" d="M2211.28 1265.75 L2211.28 1269.78 Q2209.48 1268.86 2207.53 1268.39 Q2205.59 1267.93 2203.51 1267.93 Q2200.34 1267.93 2198.74 1268.9 Q2197.16 1269.87 2197.16 1271.82 Q2197.16 1273.3 2198.3 1274.16 Q2199.43 1274.99 2202.86 1275.75 L2204.32 1276.08 Q2208.85 1277.05 2210.75 1278.83 Q2212.67 1280.59 2212.67 1283.76 Q2212.67 1287.37 2209.8 1289.48 Q2206.96 1291.59 2201.96 1291.59 Q2199.87 1291.59 2197.6 1291.17 Q2195.36 1290.78 2192.86 1289.97 L2192.86 1285.57 Q2195.22 1286.79 2197.51 1287.42 Q2199.8 1288.02 2202.05 1288.02 Q2205.06 1288.02 2206.68 1287 Q2208.3 1285.96 2208.3 1284.09 Q2208.3 1282.35 2207.12 1281.42 Q2205.96 1280.5 2202 1279.64 L2200.52 1279.3 Q2196.56 1278.46 2194.8 1276.75 Q2193.04 1275.01 2193.04 1272 Q2193.04 1268.35 2195.64 1266.36 Q2198.23 1264.36 2203 1264.36 Q2205.36 1264.36 2207.44 1264.71 Q2209.53 1265.06 2211.28 1265.75 Z" fill="#000000" fill-rule="nonzero" fill-opacity="1" /><polyline clip-path="url(#clip330)" style="stroke:#0000ff; stroke-linecap:round; stroke-linejoin:round; stroke-width:4; stroke-opacity:1; fill:none" points="1775.22,1325.48 1911.91,1325.48 "/>
<path clip-path="url(#clip330)" d="M1950.71 1311.37 Q1945.61 1311.37 1942.61 1315.16 Q1939.62 1318.96 1939.62 1325.51 Q1939.62 1332.04 1942.61 1335.83 Q1945.61 1339.63 1950.71 1339.63 Q1955.8 1339.63 1958.76 1335.83 Q1961.75 1332.04 1961.75 1325.51 Q1961.75 1318.96 1958.76 1315.16 Q1955.8 1311.37 1950.71 1311.37 M1950.71 1307.57 Q1957.98 1307.57 1962.33 1312.45 Q1966.68 1317.32 1966.68 1325.51 Q1966.68 1333.68 1962.33 1338.57 Q1957.98 1343.43 1950.71 1343.43 Q1943.42 1343.43 1939.04 1338.57 Q1934.69 1333.7 1934.69 1325.51 Q1934.69 1317.32 1939.04 1312.45 Q1943.42 1307.57 1950.71 1307.57 Z" fill="#000000" fill-rule="nonzero" fill-opacity="1" /><path clip-path="url(#clip330)" d="M1977.93 1338.87 L1977.93 1352.62 L1973.65 1352.62 L1973.65 1316.83 L1977.93 1316.83 L1977.93 1320.76 Q1979.27 1318.45 1981.31 1317.34 Q1983.37 1316.2 1986.22 1316.2 Q1990.94 1316.2 1993.88 1319.95 Q1996.84 1323.7 1996.84 1329.82 Q1996.84 1335.93 1993.88 1339.68 Q1990.94 1343.43 1986.22 1343.43 Q1983.37 1343.43 1981.31 1342.32 Q1979.27 1341.18 1977.93 1338.87 M1992.42 1329.82 Q1992.42 1325.12 1990.48 1322.45 Q1988.55 1319.77 1985.17 1319.77 Q1981.8 1319.77 1979.85 1322.45 Q1977.93 1325.12 1977.93 1329.82 Q1977.93 1334.51 1979.85 1337.2 Q1981.8 1339.86 1985.17 1339.86 Q1988.55 1339.86 1990.48 1337.2 Q1992.42 1334.51 1992.42 1329.82 Z" fill="#000000" fill-rule="nonzero" fill-opacity="1" /><path clip-path="url(#clip330)" d="M2008.11 1309.47 L2008.11 1316.83 L2016.89 1316.83 L2016.89 1320.14 L2008.11 1320.14 L2008.11 1334.21 Q2008.11 1337.38 2008.97 1338.29 Q2009.85 1339.19 2012.51 1339.19 L2016.89 1339.19 L2016.89 1342.76 L2012.51 1342.76 Q2007.58 1342.76 2005.71 1340.93 Q2003.83 1339.07 2003.83 1334.21 L2003.83 1320.14 L2000.71 1320.14 L2000.71 1316.83 L2003.83 1316.83 L2003.83 1309.47 L2008.11 1309.47 Z" fill="#000000" fill-rule="nonzero" fill-opacity="1" /><path clip-path="url(#clip330)" d="M2022.49 1316.83 L2026.75 1316.83 L2026.75 1342.76 L2022.49 1342.76 L2022.49 1316.83 M2022.49 1306.74 L2026.75 1306.74 L2026.75 1312.13 L2022.49 1312.13 L2022.49 1306.74 Z" fill="#000000" fill-rule="nonzero" fill-opacity="1" /><path clip-path="url(#clip330)" d="M2055.85 1321.81 Q2057.44 1318.94 2059.67 1317.57 Q2061.89 1316.2 2064.9 1316.2 Q2068.95 1316.2 2071.15 1319.05 Q2073.35 1321.88 2073.35 1327.11 L2073.35 1342.76 L2069.06 1342.76 L2069.06 1327.25 Q2069.06 1323.52 2067.74 1321.71 Q2066.42 1319.91 2063.72 1319.91 Q2060.41 1319.91 2058.48 1322.11 Q2056.56 1324.31 2056.56 1328.1 L2056.56 1342.76 L2052.28 1342.76 L2052.28 1327.25 Q2052.28 1323.5 2050.96 1321.71 Q2049.64 1319.91 2046.89 1319.91 Q2043.62 1319.91 2041.7 1322.13 Q2039.78 1324.33 2039.78 1328.1 L2039.78 1342.76 L2035.5 1342.76 L2035.5 1316.83 L2039.78 1316.83 L2039.78 1320.86 Q2041.24 1318.47 2043.28 1317.34 Q2045.31 1316.2 2048.11 1316.2 Q2050.94 1316.2 2052.91 1317.64 Q2054.9 1319.07 2055.85 1321.81 Z" fill="#000000" fill-rule="nonzero" fill-opacity="1" /><path clip-path="url(#clip330)" d="M2093.62 1329.72 Q2088.46 1329.72 2086.47 1330.9 Q2084.48 1332.08 2084.48 1334.93 Q2084.48 1337.2 2085.96 1338.54 Q2087.47 1339.86 2090.04 1339.86 Q2093.58 1339.86 2095.71 1337.36 Q2097.86 1334.84 2097.86 1330.67 L2097.86 1329.72 L2093.62 1329.72 M2102.12 1327.96 L2102.12 1342.76 L2097.86 1342.76 L2097.86 1338.82 Q2096.4 1341.18 2094.23 1342.32 Q2092.05 1343.43 2088.9 1343.43 Q2084.92 1343.43 2082.56 1341.2 Q2080.22 1338.96 2080.22 1335.21 Q2080.22 1330.83 2083.14 1328.61 Q2086.08 1326.39 2091.89 1326.39 L2097.86 1326.39 L2097.86 1325.97 Q2097.86 1323.03 2095.91 1321.44 Q2093.99 1319.82 2090.5 1319.82 Q2088.28 1319.82 2086.17 1320.35 Q2084.06 1320.88 2082.12 1321.95 L2082.12 1318.01 Q2084.46 1317.11 2086.66 1316.67 Q2088.85 1316.2 2090.94 1316.2 Q2096.56 1316.2 2099.34 1319.12 Q2102.12 1322.04 2102.12 1327.96 Z" fill="#000000" fill-rule="nonzero" fill-opacity="1" /><path clip-path="url(#clip330)" d="M2110.89 1306.74 L2115.15 1306.74 L2115.15 1342.76 L2110.89 1342.76 L2110.89 1306.74 Z" fill="#000000" fill-rule="nonzero" fill-opacity="1" /><path clip-path="url(#clip330)" d="M2136.08 1316.83 L2140.59 1316.83 L2148.69 1338.59 L2156.79 1316.83 L2161.31 1316.83 L2151.59 1342.76 L2145.8 1342.76 L2136.08 1316.83 Z" fill="#000000" fill-rule="nonzero" fill-opacity="1" /><path clip-path="url(#clip330)" d="M2178.97 1329.72 Q2173.81 1329.72 2171.82 1330.9 Q2169.83 1332.08 2169.83 1334.93 Q2169.83 1337.2 2171.31 1338.54 Q2172.81 1339.86 2175.38 1339.86 Q2178.92 1339.86 2181.05 1337.36 Q2183.21 1334.84 2183.21 1330.67 L2183.21 1329.72 L2178.97 1329.72 M2187.47 1327.96 L2187.47 1342.76 L2183.21 1342.76 L2183.21 1338.82 Q2181.75 1341.18 2179.57 1342.32 Q2177.4 1343.43 2174.25 1343.43 Q2170.27 1343.43 2167.91 1341.2 Q2165.57 1338.96 2165.57 1335.21 Q2165.57 1330.83 2168.48 1328.61 Q2171.42 1326.39 2177.23 1326.39 L2183.21 1326.39 L2183.21 1325.97 Q2183.21 1323.03 2181.26 1321.44 Q2179.34 1319.82 2175.84 1319.82 Q2173.62 1319.82 2171.52 1320.35 Q2169.41 1320.88 2167.47 1321.95 L2167.47 1318.01 Q2169.8 1317.11 2172 1316.67 Q2174.2 1316.2 2176.28 1316.2 Q2181.91 1316.2 2184.69 1319.12 Q2187.47 1322.04 2187.47 1327.96 Z" fill="#000000" fill-rule="nonzero" fill-opacity="1" /><path clip-path="url(#clip330)" d="M2196.24 1306.74 L2200.5 1306.74 L2200.5 1342.76 L2196.24 1342.76 L2196.24 1306.74 Z" fill="#000000" fill-rule="nonzero" fill-opacity="1" /><path clip-path="url(#clip330)" d="M2208.97 1332.52 L2208.97 1316.83 L2213.23 1316.83 L2213.23 1332.36 Q2213.23 1336.04 2214.66 1337.89 Q2216.1 1339.72 2218.97 1339.72 Q2222.42 1339.72 2224.41 1337.52 Q2226.42 1335.32 2226.42 1331.53 L2226.42 1316.83 L2230.68 1316.83 L2230.68 1342.76 L2226.42 1342.76 L2226.42 1338.77 Q2224.87 1341.13 2222.81 1342.29 Q2220.78 1343.43 2218.07 1343.43 Q2213.6 1343.43 2211.28 1340.65 Q2208.97 1337.87 2208.97 1332.52 M2219.69 1316.2 L2219.69 1316.2 Z" fill="#000000" fill-rule="nonzero" fill-opacity="1" /><path clip-path="url(#clip330)" d="M2261.63 1328.73 L2261.63 1330.81 L2242.05 1330.81 Q2242.33 1335.21 2244.69 1337.52 Q2247.07 1339.82 2251.31 1339.82 Q2253.76 1339.82 2256.05 1339.21 Q2258.37 1338.61 2260.64 1337.41 L2260.64 1341.44 Q2258.34 1342.41 2255.94 1342.92 Q2253.53 1343.43 2251.05 1343.43 Q2244.85 1343.43 2241.22 1339.82 Q2237.6 1336.2 2237.6 1330.05 Q2237.6 1323.68 2241.03 1319.95 Q2244.48 1316.2 2250.31 1316.2 Q2255.54 1316.2 2258.58 1319.58 Q2261.63 1322.94 2261.63 1328.73 M2257.37 1327.48 Q2257.33 1323.98 2255.4 1321.9 Q2253.51 1319.82 2250.36 1319.82 Q2246.79 1319.82 2244.64 1321.83 Q2242.51 1323.84 2242.19 1327.5 L2257.37 1327.48 Z" fill="#000000" fill-rule="nonzero" fill-opacity="1" /></svg>