<?xml version="1.0" encoding="utf-8"?>
<svg xmlns="http://www.w3.org/2000/svg" xmlns:xlink="http://www.w3.org/1999/xlink" width="800" height="400" viewBox="0 0 3200 1600">
<defs>
  <clipPath id="clip540">
    <rect x="0" y="0" width="3200" height="1600"/>
  </clipPath>
</defs>
<path clip-path="url(#clip540)" d="M0 1600 L3200 1600 L3200 0 L0 0  Z" fill="#ffffff" fill-rule="evenodd" fill-opacity="1"/>
<defs>
  <clipPath id="clip541">
    <rect x="640" y="0" width="2241" height="1600"/>
  </clipPath>
</defs>
<path clip-path="url(#clip540)" d="M432.294 1495.09 L1695.42 1495.09 L1695.42 47.2441 L432.294 47.2441  Z" fill="#ffffff" fill-rule="evenodd" fill-opacity="1"/>
<defs>
  <clipPath id="clip542">
    <rect x="432" y="47" width="1264" height="1449"/>
  </clipPath>
</defs>
<polyline clip-path="url(#clip542)" style="stroke:#000000; stroke-linecap:round; stroke-linejoin:round; stroke-width:2; stroke-opacity:0.1; fill:none" points="456.126,1495.09 456.126,47.2441 "/>
<polyline clip-path="url(#clip542)" style="stroke:#000000; stroke-linecap:round; stroke-linejoin:round; stroke-width:2; stroke-opacity:0.1; fill:none" points="754.034,1495.09 754.034,47.2441 "/>
<polyline clip-path="url(#clip542)" style="stroke:#000000; stroke-linecap:round; stroke-linejoin:round; stroke-width:2; stroke-opacity:0.1; fill:none" points="1051.94,1495.09 1051.94,47.2441 "/>
<polyline clip-path="url(#clip542)" style="stroke:#000000; stroke-linecap:round; stroke-linejoin:round; stroke-width:2; stroke-opacity:0.1; fill:none" points="1349.85,1495.09 1349.85,47.2441 "/>
<polyline clip-path="url(#clip542)" style="stroke:#000000; stroke-linecap:round; stroke-linejoin:round; stroke-width:2; stroke-opacity:0.1; fill:none" points="1647.76,1495.09 1647.76,47.2441 "/>
<polyline clip-path="url(#clip540)" style="stroke:#000000; stroke-linecap:round; stroke-linejoin:round; stroke-width:4; stroke-opacity:1; fill:none" points="432.294,1495.09 1695.42,1495.09 "/>
<polyline clip-path="url(#clip540)" style="stroke:#000000; stroke-linecap:round; stroke-linejoin:round; stroke-width:4; stroke-opacity:1; fill:none" points="456.126,1495.09 456.126,1476.19 "/>
<polyline clip-path="url(#clip540)" style="stroke:#000000; stroke-linecap:round; stroke-linejoin:round; stroke-width:4; stroke-opacity:1; fill:none" points="754.034,1495.09 754.034,1476.19 "/>
<polyline clip-path="url(#clip540)" style="stroke:#000000; stroke-linecap:round; stroke-linejoin:round; stroke-width:4; stroke-opacity:1; fill:none" points="1051.94,1495.09 1051.94,1476.19 "/>
<polyline clip-path="url(#clip540)" style="stroke:#000000; stroke-linecap:round; stroke-linejoin:round; stroke-width:4; stroke-opacity:1; fill:none" points="1349.85,1495.09 1349.85,1476.19 "/>
<polyline clip-path="url(#clip540)" style="stroke:#000000; stroke-linecap:round; stroke-linejoin:round; stroke-width:4; stroke-opacity:1; fill:none" points="1647.76,1495.09 1647.76,1476.19 "/>
<path clip-path="url(#clip540)" d="M456.126 1532.41 Q452.515 1532.41 450.686 1535.97 Q448.881 1539.51 448.881 1546.64 Q448.881 1553.75 450.686 1557.31 Q452.515 1560.86 456.126 1560.86 Q459.76 1560.86 461.566 1557.31 Q463.395 1553.75 463.395 1546.64 Q463.395 1539.51 461.566 1535.97 Q459.76 1532.41 456.126 1532.41 M456.126 1528.7 Q461.936 1528.7 464.992 1533.31 Q468.071 1537.89 468.071 1546.64 Q468.071 1555.37 464.992 1559.98 Q461.936 1564.56 456.126 1564.56 Q450.316 1564.56 447.237 1559.98 Q444.182 1555.37 444.182 1546.64 Q444.182 1537.89 447.237 1533.31 Q450.316 1528.7 456.126 1528.7 Z" fill="#000000" fill-rule="nonzero" fill-opacity="1" /><path clip-path="url(#clip540)" d="M733.305 1559.95 L749.624 1559.95 L749.624 1563.89 L727.68 1563.89 L727.68 1559.95 Q730.342 1557.2 734.925 1552.57 Q739.532 1547.92 740.712 1546.57 Q742.958 1544.05 743.837 1542.31 Q744.74 1540.55 744.74 1538.86 Q744.74 1536.11 742.796 1534.37 Q740.874 1532.64 737.773 1532.64 Q735.574 1532.64 733.12 1533.4 Q730.689 1534.17 727.912 1535.72 L727.912 1530.99 Q730.736 1529.86 733.189 1529.28 Q735.643 1528.7 737.68 1528.7 Q743.05 1528.7 746.245 1531.39 Q749.439 1534.07 749.439 1538.56 Q749.439 1540.69 748.629 1542.61 Q747.842 1544.51 745.736 1547.11 Q745.157 1547.78 742.055 1550.99 Q738.953 1554.19 733.305 1559.95 Z" fill="#000000" fill-rule="nonzero" fill-opacity="1" /><path clip-path="url(#clip540)" d="M759.485 1529.33 L777.842 1529.33 L777.842 1533.26 L763.768 1533.26 L763.768 1541.74 Q764.786 1541.39 765.805 1541.23 Q766.823 1541.04 767.842 1541.04 Q773.629 1541.04 777.008 1544.21 Q780.388 1547.38 780.388 1552.8 Q780.388 1558.38 776.916 1561.48 Q773.444 1564.56 767.124 1564.56 Q764.948 1564.56 762.68 1564.19 Q760.434 1563.82 758.027 1563.08 L758.027 1558.38 Q760.11 1559.51 762.333 1560.07 Q764.555 1560.62 767.032 1560.62 Q771.036 1560.62 773.374 1558.52 Q775.712 1556.41 775.712 1552.8 Q775.712 1549.19 773.374 1547.08 Q771.036 1544.98 767.032 1544.98 Q765.157 1544.98 763.282 1545.39 Q761.43 1545.81 759.485 1546.69 L759.485 1529.33 Z" fill="#000000" fill-rule="nonzero" fill-opacity="1" /><path clip-path="url(#clip540)" d="M1026.64 1529.33 L1045 1529.33 L1045 1533.26 L1030.92 1533.26 L1030.92 1541.74 Q1031.94 1541.39 1032.96 1541.23 Q1033.98 1541.04 1035 1541.04 Q1040.78 1541.04 1044.16 1544.21 Q1047.54 1547.38 1047.54 1552.8 Q1047.54 1558.38 1044.07 1561.48 Q1040.6 1564.56 1034.28 1564.56 Q1032.1 1564.56 1029.84 1564.19 Q1027.59 1563.82 1025.18 1563.08 L1025.18 1558.38 Q1027.27 1559.51 1029.49 1560.07 Q1031.71 1560.62 1034.19 1560.62 Q1038.19 1560.62 1040.53 1558.52 Q1042.87 1556.41 1042.87 1552.8 Q1042.87 1549.19 1040.53 1547.08 Q1038.19 1544.98 1034.19 1544.98 Q1032.31 1544.98 1030.44 1545.39 Q1028.59 1545.81 1026.64 1546.69 L1026.64 1529.33 Z" fill="#000000" fill-rule="nonzero" fill-opacity="1" /><path clip-path="url(#clip540)" d="M1066.76 1532.41 Q1063.15 1532.41 1061.32 1535.97 Q1059.51 1539.51 1059.51 1546.64 Q1059.51 1553.75 1061.32 1557.31 Q1063.15 1560.86 1066.76 1560.86 Q1070.39 1560.86 1072.2 1557.31 Q1074.03 1553.75 1074.03 1546.64 Q1074.03 1539.51 1072.2 1535.97 Q1070.39 1532.41 1066.76 1532.41 M1066.76 1528.7 Q1072.57 1528.7 1075.62 1533.31 Q1078.7 1537.89 1078.7 1546.64 Q1078.7 1555.37 1075.62 1559.98 Q1072.57 1564.56 1066.76 1564.56 Q1060.95 1564.56 1057.87 1559.98 Q1054.81 1555.37 1054.81 1546.64 Q1054.81 1537.89 1057.87 1533.31 Q1060.95 1528.7 1066.76 1528.7 Z" fill="#000000" fill-rule="nonzero" fill-opacity="1" /><path clip-path="url(#clip540)" d="M1323.7 1529.33 L1345.93 1529.33 L1345.93 1531.32 L1333.38 1563.89 L1328.5 1563.89 L1340.3 1533.26 L1323.7 1533.26 L1323.7 1529.33 Z" fill="#000000" fill-rule="nonzero" fill-opacity="1" /><path clip-path="url(#clip540)" d="M1355.09 1529.33 L1373.45 1529.33 L1373.45 1533.26 L1359.38 1533.26 L1359.38 1541.74 Q1360.39 1541.39 1361.41 1541.23 Q1362.43 1541.04 1363.45 1541.04 Q1369.24 1541.04 1372.62 1544.21 Q1376 1547.38 1376 1552.8 Q1376 1558.38 1372.52 1561.48 Q1369.05 1564.56 1362.73 1564.56 Q1360.56 1564.56 1358.29 1564.19 Q1356.04 1563.82 1353.63 1563.08 L1353.63 1558.38 Q1355.72 1559.51 1357.94 1560.07 Q1360.16 1560.62 1362.64 1560.62 Q1366.64 1560.62 1368.98 1558.52 Q1371.32 1556.41 1371.32 1552.8 Q1371.32 1549.19 1368.98 1547.08 Q1366.64 1544.98 1362.64 1544.98 Q1360.76 1544.98 1358.89 1545.39 Q1357.04 1545.81 1355.09 1546.69 L1355.09 1529.33 Z" fill="#000000" fill-rule="nonzero" fill-opacity="1" /><path clip-path="url(#clip540)" d="M1607.36 1559.95 L1615 1559.95 L1615 1533.59 L1606.69 1535.25 L1606.69 1530.99 L1614.96 1529.33 L1619.63 1529.33 L1619.63 1559.95 L1627.27 1559.95 L1627.27 1563.89 L1607.36 1563.89 L1607.36 1559.95 Z" fill="#000000" fill-rule="nonzero" fill-opacity="1" /><path clip-path="url(#clip540)" d="M1646.72 1532.41 Q1643.1 1532.41 1641.28 1535.97 Q1639.47 1539.51 1639.47 1546.64 Q1639.47 1553.75 1641.28 1557.31 Q1643.1 1560.86 1646.72 1560.86 Q1650.35 1560.86 1652.16 1557.31 Q1653.98 1553.75 1653.98 1546.64 Q1653.98 1539.51 1652.16 1535.97 Q1650.35 1532.41 1646.72 1532.41 M1646.72 1528.7 Q1652.53 1528.7 1655.58 1533.31 Q1658.66 1537.89 1658.66 1546.64 Q1658.66 1555.37 1655.58 1559.98 Q1652.53 1564.56 1646.72 1564.56 Q1640.91 1564.56 1637.83 1559.98 Q1634.77 1555.37 1634.77 1546.64 Q1634.77 1537.89 1637.83 1533.31 Q1640.91 1528.7 1646.72 1528.7 Z" fill="#000000" fill-rule="nonzero" fill-opacity="1" /><path clip-path="url(#clip540)" d="M1676.88 1532.41 Q1673.27 1532.41 1671.44 1535.97 Q1669.63 1539.51 1669.63 1546.64 Q1669.63 1553.75 1671.44 1557.31 Q1673.27 1560.86 1676.88 1560.86 Q1680.51 1560.86 1682.32 1557.31 Q1684.15 1553.75 1684.15 1546.64 Q1684.15 1539.51 1682.32 1535.97 Q1680.51 1532.41 1676.88 1532.41 M1676.88 1528.7 Q1682.69 1528.7 1685.74 1533.31 Q1688.82 1537.89 1688.82 1546.64 Q1688.82 1555.37 1685.74 1559.98 Q1682.69 1564.56 1676.88 1564.56 Q1671.07 1564.56 1667.99 1559.98 Q1664.93 1555.37 1664.93 1546.64 Q1664.93 1537.89 1667.99 1533.31 Q1671.07 1528.7 1676.88 1528.7 Z" fill="#000000" fill-rule="nonzero" fill-opacity="1" /><polyline clip-path="url(#clip542)" style="stroke:#000000; stroke-linecap:round; stroke-linejoin:round; stroke-width:2; stroke-opacity:0.1; fill:none" points="432.294,1376.22 1695.42,1376.22 "/>
<polyline clip-path="url(#clip542)" style="stroke:#000000; stroke-linecap:round; stroke-linejoin:round; stroke-width:2; stroke-opacity:0.1; fill:none" points="432.294,1139.39 1695.42,1139.39 "/>
<polyline clip-path="url(#clip542)" style="stroke:#000000; stroke-linecap:round; stroke-linejoin:round; stroke-width:2; stroke-opacity:0.1; fill:none" points="432.294,902.56 1695.42,902.56 "/>
<polyline clip-path="url(#clip542)" style="stroke:#000000; stroke-linecap:round; stroke-linejoin:round; stroke-width:2; stroke-opacity:0.1; fill:none" points="432.294,665.732 1695.42,665.732 "/>
<polyline clip-path="url(#clip542)" style="stroke:#000000; stroke-linecap:round; stroke-linejoin:round; stroke-width:2; stroke-opacity:0.1; fill:none" points="432.294,428.903 1695.42,428.903 "/>
<polyline clip-path="url(#clip542)" style="stroke:#000000; stroke-linecap:round; stroke-linejoin:round; stroke-width:2; stroke-opacity:0.1; fill:none" points="432.294,192.075 1695.42,192.075 "/>
<polyline clip-path="url(#clip540)" style="stroke:#000000; stroke-linecap:round; stroke-linejoin:round; stroke-width:4; stroke-opacity:1; fill:none" points="432.294,1495.09 432.294,47.2441 "/>
<polyline clip-path="url(#clip540)" style="stroke:#000000; stroke-linecap:round; stroke-linejoin:round; stroke-width:4; stroke-opacity:1; fill:none" points="432.294,1376.22 451.191,1376.22 "/>
<polyline clip-path="url(#clip540)" style="stroke:#000000; stroke-linecap:round; stroke-linejoin:round; stroke-width:4; stroke-opacity:1; fill:none" points="432.294,1139.39 451.191,1139.39 "/>
<polyline clip-path="url(#clip540)" style="stroke:#000000; stroke-linecap:round; stroke-linejoin:round; stroke-width:4; stroke-opacity:1; fill:none" points="432.294,902.56 451.191,902.56 "/>
<polyline clip-path="url(#clip540)" style="stroke:#000000; stroke-linecap:round; stroke-linejoin:round; stroke-width:4; stroke-opacity:1; fill:none" points="432.294,665.732 451.191,665.732 "/>
<polyline clip-path="url(#clip540)" style="stroke:#000000; stroke-linecap:round; stroke-linejoin:round; stroke-width:4; stroke-opacity:1; fill:none" points="432.294,428.903 451.191,428.903 "/>
<polyline clip-path="url(#clip540)" style="stroke:#000000; stroke-linecap:round; stroke-linejoin:round; stroke-width:4; stroke-opacity:1; fill:none" points="432.294,192.075 451.191,192.075 "/>
<path clip-path="url(#clip540)" d="M47.6634 1396.01 L55.3023 1396.01 L55.3023 1369.64 L46.9921 1371.31 L46.9921 1367.05 L55.256 1365.38 L59.9319 1365.38 L59.9319 1396.01 L67.5707 1396.01 L67.5707 1399.94 L47.6634 1399.94 L47.6634 1396.01 Z" fill="#000000" fill-rule="nonzero" fill-opacity="1" /><path clip-path="url(#clip540)" d="M77.0151 1394.06 L81.8993 1394.06 L81.8993 1399.94 L77.0151 1399.94 L77.0151 1394.06 Z" fill="#000000" fill-rule="nonzero" fill-opacity="1" /><path clip-path="url(#clip540)" d="M92.8947 1396.01 L100.534 1396.01 L100.534 1369.64 L92.2234 1371.31 L92.2234 1367.05 L100.487 1365.38 L105.163 1365.38 L105.163 1396.01 L112.802 1396.01 L112.802 1399.94 L92.8947 1399.94 L92.8947 1396.01 Z" fill="#000000" fill-rule="nonzero" fill-opacity="1" /><path clip-path="url(#clip540)" d="M122.293 1365.38 L140.649 1365.38 L140.649 1369.32 L126.575 1369.32 L126.575 1377.79 Q127.594 1377.44 128.612 1377.28 Q129.631 1377.1 130.649 1377.1 Q136.436 1377.1 139.816 1380.27 Q143.195 1383.44 143.195 1388.86 Q143.195 1394.43 139.723 1397.54 Q136.251 1400.62 129.931 1400.62 Q127.756 1400.62 125.487 1400.24 Q123.242 1399.87 120.834 1399.13 L120.834 1394.43 Q122.918 1395.57 125.14 1396.12 Q127.362 1396.68 129.839 1396.68 Q133.844 1396.68 136.181 1394.57 Q138.519 1392.47 138.519 1388.86 Q138.519 1385.25 136.181 1383.14 Q133.844 1381.03 129.839 1381.03 Q127.964 1381.03 126.089 1381.45 Q124.237 1381.87 122.293 1382.75 L122.293 1365.38 Z" fill="#000000" fill-rule="nonzero" fill-opacity="1" /><path clip-path="url(#clip540)" d="M166.575 1381.31 Q169.931 1382.03 171.806 1384.3 Q173.704 1386.56 173.704 1389.9 Q173.704 1395.01 170.186 1397.81 Q166.667 1400.62 160.186 1400.62 Q158.01 1400.62 155.695 1400.18 Q153.404 1399.76 150.95 1398.9 L150.95 1394.39 Q152.894 1395.52 155.209 1396.1 Q157.524 1396.68 160.047 1396.68 Q164.445 1396.68 166.737 1394.94 Q169.052 1393.21 169.052 1389.9 Q169.052 1386.84 166.899 1385.13 Q164.769 1383.39 160.95 1383.39 L156.922 1383.39 L156.922 1379.55 L161.135 1379.55 Q164.584 1379.55 166.413 1378.18 Q168.241 1376.8 168.241 1374.2 Q168.241 1371.54 166.343 1370.13 Q164.468 1368.69 160.95 1368.69 Q159.029 1368.69 156.83 1369.11 Q154.63 1369.53 151.992 1370.41 L151.992 1366.24 Q154.654 1365.5 156.968 1365.13 Q159.306 1364.76 161.367 1364.76 Q166.691 1364.76 169.792 1367.19 Q172.894 1369.6 172.894 1373.72 Q172.894 1376.59 171.251 1378.58 Q169.607 1380.55 166.575 1381.31 Z" fill="#000000" fill-rule="nonzero" fill-opacity="1" /><path clip-path="url(#clip540)" d="M195.417 1369.46 L183.612 1387.91 L195.417 1387.91 L195.417 1369.46 M194.19 1365.38 L200.07 1365.38 L200.07 1387.91 L205.001 1387.91 L205.001 1391.8 L200.07 1391.8 L200.07 1399.94 L195.417 1399.94 L195.417 1391.8 L179.815 1391.8 L179.815 1387.28 L194.19 1365.38 Z" fill="#000000" fill-rule="nonzero" fill-opacity="1" /><path clip-path="url(#clip540)" d="M223.311 1380.8 Q220.162 1380.8 218.311 1382.95 Q216.482 1385.11 216.482 1388.86 Q216.482 1392.58 218.311 1394.76 Q220.162 1396.91 223.311 1396.91 Q226.459 1396.91 228.287 1394.76 Q230.139 1392.58 230.139 1388.86 Q230.139 1385.11 228.287 1382.95 Q226.459 1380.8 223.311 1380.8 M232.593 1366.15 L232.593 1370.41 Q230.834 1369.57 229.028 1369.13 Q227.246 1368.69 225.487 1368.69 Q220.857 1368.69 218.403 1371.82 Q215.973 1374.94 215.625 1381.26 Q216.991 1379.25 219.051 1378.18 Q221.112 1377.1 223.588 1377.1 Q228.797 1377.1 231.806 1380.27 Q234.838 1383.42 234.838 1388.86 Q234.838 1394.18 231.69 1397.4 Q228.542 1400.62 223.311 1400.62 Q217.315 1400.62 214.144 1396.03 Q210.973 1391.43 210.973 1382.7 Q210.973 1374.5 214.862 1369.64 Q218.75 1364.76 225.301 1364.76 Q227.061 1364.76 228.843 1365.11 Q230.649 1365.45 232.593 1366.15 Z" fill="#000000" fill-rule="nonzero" fill-opacity="1" /><path clip-path="url(#clip540)" d="M252.894 1368.46 Q249.283 1368.46 247.454 1372.03 Q245.648 1375.57 245.648 1382.7 Q245.648 1389.81 247.454 1393.37 Q249.283 1396.91 252.894 1396.91 Q256.528 1396.91 258.334 1393.37 Q260.162 1389.81 260.162 1382.7 Q260.162 1375.57 258.334 1372.03 Q256.528 1368.46 252.894 1368.46 M252.894 1364.76 Q258.704 1364.76 261.759 1369.37 Q264.838 1373.95 264.838 1382.7 Q264.838 1391.43 261.759 1396.03 Q258.704 1400.62 252.894 1400.62 Q247.084 1400.62 244.005 1396.03 Q240.949 1391.43 240.949 1382.7 Q240.949 1373.95 244.005 1369.37 Q247.084 1364.76 252.894 1364.76 Z" fill="#000000" fill-rule="nonzero" fill-opacity="1" /><path clip-path="url(#clip540)" d="M301.227 1374.48 L290.648 1385.11 L301.227 1395.68 L298.472 1398.49 L287.847 1387.86 L277.222 1398.49 L274.491 1395.68 L285.046 1385.11 L274.491 1374.48 L277.222 1371.68 L287.847 1382.31 L298.472 1371.68 L301.227 1374.48 Z" fill="#000000" fill-rule="nonzero" fill-opacity="1" /><path clip-path="url(#clip540)" d="M313.588 1396.01 L321.227 1396.01 L321.227 1369.64 L312.917 1371.31 L312.917 1367.05 L321.18 1365.38 L325.856 1365.38 L325.856 1396.01 L333.495 1396.01 L333.495 1399.94 L313.588 1399.94 L313.588 1396.01 Z" fill="#000000" fill-rule="nonzero" fill-opacity="1" /><path clip-path="url(#clip540)" d="M352.94 1368.46 Q349.328 1368.46 347.5 1372.03 Q345.694 1375.57 345.694 1382.7 Q345.694 1389.81 347.5 1393.37 Q349.328 1396.91 352.94 1396.91 Q356.574 1396.91 358.379 1393.37 Q360.208 1389.81 360.208 1382.7 Q360.208 1375.57 358.379 1372.03 Q356.574 1368.46 352.94 1368.46 M352.94 1364.76 Q358.75 1364.76 361.805 1369.37 Q364.884 1373.95 364.884 1382.7 Q364.884 1391.43 361.805 1396.03 Q358.75 1400.62 352.94 1400.62 Q347.129 1400.62 344.051 1396.03 Q340.995 1391.43 340.995 1382.7 Q340.995 1373.95 344.051 1369.37 Q347.129 1364.76 352.94 1364.76 Z" fill="#000000" fill-rule="nonzero" fill-opacity="1" /><path clip-path="url(#clip540)" d="M374.589 1346.96 Q371.655 1346.96 370.169 1349.85 Q368.702 1352.73 368.702 1358.52 Q368.702 1364.3 370.169 1367.19 Q371.655 1370.07 374.589 1370.07 Q377.542 1370.07 379.009 1367.19 Q380.494 1364.3 380.494 1358.52 Q380.494 1352.73 379.009 1349.85 Q377.542 1346.96 374.589 1346.96 M374.589 1343.95 Q379.31 1343.95 381.792 1347.69 Q384.294 1351.41 384.294 1358.52 Q384.294 1365.61 381.792 1369.36 Q379.31 1373.08 374.589 1373.08 Q369.868 1373.08 367.367 1369.36 Q364.884 1365.61 364.884 1358.52 Q364.884 1351.41 367.367 1347.69 Q369.868 1343.95 374.589 1343.95 Z" fill="#000000" fill-rule="nonzero" fill-opacity="1" /><path clip-path="url(#clip540)" d="M47.6634 1159.18 L55.3023 1159.18 L55.3023 1132.82 L46.9921 1134.48 L46.9921 1130.22 L55.256 1128.56 L59.9319 1128.56 L59.9319 1159.18 L67.5707 1159.18 L67.5707 1163.12 L47.6634 1163.12 L47.6634 1159.18 Z" fill="#000000" fill-rule="nonzero" fill-opacity="1" /><path clip-path="url(#clip540)" d="M77.0151 1157.24 L81.8993 1157.24 L81.8993 1163.12 L77.0151 1163.12 L77.0151 1157.24 Z" fill="#000000" fill-rule="nonzero" fill-opacity="1" /><path clip-path="url(#clip540)" d="M92.8947 1159.18 L100.534 1159.18 L100.534 1132.82 L92.2234 1134.48 L92.2234 1130.22 L100.487 1128.56 L105.163 1128.56 L105.163 1159.18 L112.802 1159.18 L112.802 1163.12 L92.8947 1163.12 L92.8947 1159.18 Z" fill="#000000" fill-rule="nonzero" fill-opacity="1" /><path clip-path="url(#clip540)" d="M122.293 1128.56 L140.649 1128.56 L140.649 1132.49 L126.575 1132.49 L126.575 1140.96 Q127.594 1140.62 128.612 1140.45 Q129.631 1140.27 130.649 1140.27 Q136.436 1140.27 139.816 1143.44 Q143.195 1146.61 143.195 1152.03 Q143.195 1157.61 139.723 1160.71 Q136.251 1163.79 129.931 1163.79 Q127.756 1163.79 125.487 1163.42 Q123.242 1163.05 120.834 1162.31 L120.834 1157.61 Q122.918 1158.74 125.14 1159.3 Q127.362 1159.85 129.839 1159.85 Q133.844 1159.85 136.181 1157.75 Q138.519 1155.64 138.519 1152.03 Q138.519 1148.42 136.181 1146.31 Q133.844 1144.2 129.839 1144.2 Q127.964 1144.2 126.089 1144.62 Q124.237 1145.04 122.293 1145.92 L122.293 1128.56 Z" fill="#000000" fill-rule="nonzero" fill-opacity="1" /><path clip-path="url(#clip540)" d="M166.575 1144.48 Q169.931 1145.2 171.806 1147.47 Q173.704 1149.74 173.704 1153.07 Q173.704 1158.19 170.186 1160.99 Q166.667 1163.79 160.186 1163.79 Q158.01 1163.79 155.695 1163.35 Q153.404 1162.93 150.95 1162.07 L150.95 1157.56 Q152.894 1158.69 155.209 1159.27 Q157.524 1159.85 160.047 1159.85 Q164.445 1159.85 166.737 1158.12 Q169.052 1156.38 169.052 1153.07 Q169.052 1150.01 166.899 1148.3 Q164.769 1146.56 160.95 1146.56 L156.922 1146.56 L156.922 1142.72 L161.135 1142.72 Q164.584 1142.72 166.413 1141.36 Q168.241 1139.97 168.241 1137.38 Q168.241 1134.71 166.343 1133.3 Q164.468 1131.87 160.95 1131.87 Q159.029 1131.87 156.83 1132.28 Q154.63 1132.7 151.992 1133.58 L151.992 1129.41 Q154.654 1128.67 156.968 1128.3 Q159.306 1127.93 161.367 1127.93 Q166.691 1127.93 169.792 1130.36 Q172.894 1132.77 172.894 1136.89 Q172.894 1139.76 171.251 1141.75 Q169.607 1143.72 166.575 1144.48 Z" fill="#000000" fill-rule="nonzero" fill-opacity="1" /><path clip-path="url(#clip540)" d="M195.417 1132.63 L183.612 1151.08 L195.417 1151.08 L195.417 1132.63 M194.19 1128.56 L200.07 1128.56 L200.07 1151.08 L205.001 1151.08 L205.001 1154.97 L200.07 1154.97 L200.07 1163.12 L195.417 1163.12 L195.417 1154.97 L179.815 1154.97 L179.815 1150.45 L194.19 1128.56 Z" fill="#000000" fill-rule="nonzero" fill-opacity="1" /><path clip-path="url(#clip540)" d="M211.551 1128.56 L233.774 1128.56 L233.774 1130.55 L221.227 1163.12 L216.343 1163.12 L228.149 1132.49 L211.551 1132.49 L211.551 1128.56 Z" fill="#000000" fill-rule="nonzero" fill-opacity="1" /><path clip-path="url(#clip540)" d="M252.894 1131.63 Q249.283 1131.63 247.454 1135.2 Q245.648 1138.74 245.648 1145.87 Q245.648 1152.98 247.454 1156.54 Q249.283 1160.08 252.894 1160.08 Q256.528 1160.08 258.334 1156.54 Q260.162 1152.98 260.162 1145.87 Q260.162 1138.74 258.334 1135.2 Q256.528 1131.63 252.894 1131.63 M252.894 1127.93 Q258.704 1127.93 261.759 1132.54 Q264.838 1137.12 264.838 1145.87 Q264.838 1154.6 261.759 1159.2 Q258.704 1163.79 252.894 1163.79 Q247.084 1163.79 244.005 1159.2 Q240.949 1154.6 240.949 1145.87 Q240.949 1137.12 244.005 1132.54 Q247.084 1127.93 252.894 1127.93 Z" fill="#000000" fill-rule="nonzero" fill-opacity="1" /><path clip-path="url(#clip540)" d="M301.227 1137.65 L290.648 1148.28 L301.227 1158.86 L298.472 1161.66 L287.847 1151.03 L277.222 1161.66 L274.491 1158.86 L285.046 1148.28 L274.491 1137.65 L277.222 1134.85 L287.847 1145.48 L298.472 1134.85 L301.227 1137.65 Z" fill="#000000" fill-rule="nonzero" fill-opacity="1" /><path clip-path="url(#clip540)" d="M313.588 1159.18 L321.227 1159.18 L321.227 1132.82 L312.917 1134.48 L312.917 1130.22 L321.18 1128.56 L325.856 1128.56 L325.856 1159.18 L333.495 1159.18 L333.495 1163.12 L313.588 1163.12 L313.588 1159.18 Z" fill="#000000" fill-rule="nonzero" fill-opacity="1" /><path clip-path="url(#clip540)" d="M352.94 1131.63 Q349.328 1131.63 347.5 1135.2 Q345.694 1138.74 345.694 1145.87 Q345.694 1152.98 347.5 1156.54 Q349.328 1160.08 352.94 1160.08 Q356.574 1160.08 358.379 1156.54 Q360.208 1152.98 360.208 1145.87 Q360.208 1138.74 358.379 1135.2 Q356.574 1131.63 352.94 1131.63 M352.94 1127.93 Q358.75 1127.93 361.805 1132.54 Q364.884 1137.12 364.884 1145.87 Q364.884 1154.6 361.805 1159.2 Q358.75 1163.79 352.94 1163.79 Q347.129 1163.79 344.051 1159.2 Q340.995 1154.6 340.995 1145.87 Q340.995 1137.12 344.051 1132.54 Q347.129 1127.93 352.94 1127.93 Z" fill="#000000" fill-rule="nonzero" fill-opacity="1" /><path clip-path="url(#clip540)" d="M374.589 1110.13 Q371.655 1110.13 370.169 1113.02 Q368.702 1115.9 368.702 1121.69 Q368.702 1127.47 370.169 1130.36 Q371.655 1133.24 374.589 1133.24 Q377.542 1133.24 379.009 1130.36 Q380.494 1127.47 380.494 1121.69 Q380.494 1115.9 379.009 1113.02 Q377.542 1110.13 374.589 1110.13 M374.589 1107.12 Q379.31 1107.12 381.792 1110.86 Q384.294 1114.58 384.294 1121.69 Q384.294 1128.78 381.792 1132.53 Q379.31 1136.25 374.589 1136.25 Q369.868 1136.25 367.367 1132.53 Q364.884 1128.78 364.884 1121.69 Q364.884 1114.58 367.367 1110.86 Q369.868 1107.12 374.589 1107.12 Z" fill="#000000" fill-rule="nonzero" fill-opacity="1" /><path clip-path="url(#clip540)" d="M47.6634 922.352 L55.3023 922.352 L55.3023 895.987 L46.9921 897.653 L46.9921 893.394 L55.256 891.728 L59.9319 891.728 L59.9319 922.352 L67.5707 922.352 L67.5707 926.288 L47.6634 926.288 L47.6634 922.352 Z" fill="#000000" fill-rule="nonzero" fill-opacity="1" /><path clip-path="url(#clip540)" d="M77.0151 920.408 L81.8993 920.408 L81.8993 926.288 L77.0151 926.288 L77.0151 920.408 Z" fill="#000000" fill-rule="nonzero" fill-opacity="1" /><path clip-path="url(#clip540)" d="M92.8947 922.352 L100.534 922.352 L100.534 895.987 L92.2234 897.653 L92.2234 893.394 L100.487 891.728 L105.163 891.728 L105.163 922.352 L112.802 922.352 L112.802 926.288 L92.8947 926.288 L92.8947 922.352 Z" fill="#000000" fill-rule="nonzero" fill-opacity="1" /><path clip-path="url(#clip540)" d="M122.293 891.728 L140.649 891.728 L140.649 895.663 L126.575 895.663 L126.575 904.135 Q127.594 903.788 128.612 903.626 Q129.631 903.44 130.649 903.44 Q136.436 903.44 139.816 906.612 Q143.195 909.783 143.195 915.2 Q143.195 920.778 139.723 923.88 Q136.251 926.959 129.931 926.959 Q127.756 926.959 125.487 926.588 Q123.242 926.218 120.834 925.477 L120.834 920.778 Q122.918 921.913 125.14 922.468 Q127.362 923.024 129.839 923.024 Q133.844 923.024 136.181 920.917 Q138.519 918.811 138.519 915.2 Q138.519 911.589 136.181 909.482 Q133.844 907.376 129.839 907.376 Q127.964 907.376 126.089 907.792 Q124.237 908.209 122.293 909.089 L122.293 891.728 Z" fill="#000000" fill-rule="nonzero" fill-opacity="1" /><path clip-path="url(#clip540)" d="M166.575 907.653 Q169.931 908.371 171.806 910.639 Q173.704 912.908 173.704 916.241 Q173.704 921.357 170.186 924.158 Q166.667 926.959 160.186 926.959 Q158.01 926.959 155.695 926.519 Q153.404 926.102 150.95 925.246 L150.95 920.732 Q152.894 921.866 155.209 922.445 Q157.524 923.024 160.047 923.024 Q164.445 923.024 166.737 921.288 Q169.052 919.551 169.052 916.241 Q169.052 913.186 166.899 911.473 Q164.769 909.737 160.95 909.737 L156.922 909.737 L156.922 905.894 L161.135 905.894 Q164.584 905.894 166.413 904.528 Q168.241 903.14 168.241 900.547 Q168.241 897.885 166.343 896.473 Q164.468 895.038 160.95 895.038 Q159.029 895.038 156.83 895.454 Q154.63 895.871 151.992 896.751 L151.992 892.584 Q154.654 891.843 156.968 891.473 Q159.306 891.103 161.367 891.103 Q166.691 891.103 169.792 893.533 Q172.894 895.94 172.894 900.061 Q172.894 902.931 171.251 904.922 Q169.607 906.89 166.575 907.653 Z" fill="#000000" fill-rule="nonzero" fill-opacity="1" /><path clip-path="url(#clip540)" d="M195.417 895.802 L183.612 914.251 L195.417 914.251 L195.417 895.802 M194.19 891.728 L200.07 891.728 L200.07 914.251 L205.001 914.251 L205.001 918.139 L200.07 918.139 L200.07 926.288 L195.417 926.288 L195.417 918.139 L179.815 918.139 L179.815 913.626 L194.19 891.728 Z" fill="#000000" fill-rule="nonzero" fill-opacity="1" /><path clip-path="url(#clip540)" d="M222.732 909.876 Q219.399 909.876 217.477 911.658 Q215.579 913.44 215.579 916.565 Q215.579 919.69 217.477 921.473 Q219.399 923.255 222.732 923.255 Q226.065 923.255 227.987 921.473 Q229.908 919.667 229.908 916.565 Q229.908 913.44 227.987 911.658 Q226.088 909.876 222.732 909.876 M218.056 907.885 Q215.047 907.144 213.357 905.084 Q211.69 903.024 211.69 900.061 Q211.69 895.917 214.63 893.51 Q217.593 891.103 222.732 891.103 Q227.894 891.103 230.834 893.51 Q233.774 895.917 233.774 900.061 Q233.774 903.024 232.084 905.084 Q230.417 907.144 227.431 907.885 Q230.811 908.672 232.686 910.964 Q234.584 913.255 234.584 916.565 Q234.584 921.588 231.505 924.274 Q228.449 926.959 222.732 926.959 Q217.014 926.959 213.936 924.274 Q210.88 921.588 210.88 916.565 Q210.88 913.255 212.778 910.964 Q214.676 908.672 218.056 907.885 M216.343 900.501 Q216.343 903.186 218.01 904.69 Q219.7 906.195 222.732 906.195 Q225.741 906.195 227.431 904.69 Q229.144 903.186 229.144 900.501 Q229.144 897.815 227.431 896.311 Q225.741 894.806 222.732 894.806 Q219.7 894.806 218.01 896.311 Q216.343 897.815 216.343 900.501 Z" fill="#000000" fill-rule="nonzero" fill-opacity="1" /><path clip-path="url(#clip540)" d="M252.894 894.806 Q249.283 894.806 247.454 898.371 Q245.648 901.913 245.648 909.042 Q245.648 916.149 247.454 919.714 Q249.283 923.255 252.894 923.255 Q256.528 923.255 258.334 919.714 Q260.162 916.149 260.162 909.042 Q260.162 901.913 258.334 898.371 Q256.528 894.806 252.894 894.806 M252.894 891.103 Q258.704 891.103 261.759 895.709 Q264.838 900.292 264.838 909.042 Q264.838 917.769 261.759 922.376 Q258.704 926.959 252.894 926.959 Q247.084 926.959 244.005 922.376 Q240.949 917.769 240.949 909.042 Q240.949 900.292 244.005 895.709 Q247.084 891.103 252.894 891.103 Z" fill="#000000" fill-rule="nonzero" fill-opacity="1" /><path clip-path="url(#clip540)" d="M301.227 900.825 L290.648 911.45 L301.227 922.028 L298.472 924.829 L287.847 914.204 L277.222 924.829 L274.491 922.028 L285.046 911.45 L274.491 900.825 L277.222 898.024 L287.847 908.649 L298.472 898.024 L301.227 900.825 Z" fill="#000000" fill-rule="nonzero" fill-opacity="1" /><path clip-path="url(#clip540)" d="M313.588 922.352 L321.227 922.352 L321.227 895.987 L312.917 897.653 L312.917 893.394 L321.18 891.728 L325.856 891.728 L325.856 922.352 L333.495 922.352 L333.495 926.288 L313.588 926.288 L313.588 922.352 Z" fill="#000000" fill-rule="nonzero" fill-opacity="1" /><path clip-path="url(#clip540)" d="M352.94 894.806 Q349.328 894.806 347.5 898.371 Q345.694 901.913 345.694 909.042 Q345.694 916.149 347.5 919.714 Q349.328 923.255 352.94 923.255 Q356.574 923.255 358.379 919.714 Q360.208 916.149 360.208 909.042 Q360.208 901.913 358.379 898.371 Q356.574 894.806 352.94 894.806 M352.94 891.103 Q358.75 891.103 361.805 895.709 Q364.884 900.292 364.884 909.042 Q364.884 917.769 361.805 922.376 Q358.75 926.959 352.94 926.959 Q347.129 926.959 344.051 922.376 Q340.995 917.769 340.995 909.042 Q340.995 900.292 344.051 895.709 Q347.129 891.103 352.94 891.103 Z" fill="#000000" fill-rule="nonzero" fill-opacity="1" /><path clip-path="url(#clip540)" d="M374.589 873.299 Q371.655 873.299 370.169 876.195 Q368.702 879.073 368.702 884.865 Q368.702 890.639 370.169 893.536 Q371.655 896.413 374.589 896.413 Q377.542 896.413 379.009 893.536 Q380.494 890.639 380.494 884.865 Q380.494 879.073 379.009 876.195 Q377.542 873.299 374.589 873.299 M374.589 870.289 Q379.31 870.289 381.792 874.032 Q384.294 877.756 384.294 884.865 Q384.294 891.956 381.792 895.699 Q379.31 899.423 374.589 899.423 Q369.868 899.423 367.367 895.699 Q364.884 891.956 364.884 884.865 Q364.884 877.756 367.367 874.032 Q369.868 870.289 374.589 870.289 Z" fill="#000000" fill-rule="nonzero" fill-opacity="1" /><path clip-path="url(#clip540)" d="M47.6634 685.524 L55.3023 685.524 L55.3023 659.159 L46.9921 660.825 L46.9921 656.566 L55.256 654.899 L59.9319 654.899 L59.9319 685.524 L67.5707 685.524 L67.5707 689.459 L47.6634 689.459 L47.6634 685.524 Z" fill="#000000" fill-rule="nonzero" fill-opacity="1" /><path clip-path="url(#clip540)" d="M77.0151 683.58 L81.8993 683.58 L81.8993 689.459 L77.0151 689.459 L77.0151 683.58 Z" fill="#000000" fill-rule="nonzero" fill-opacity="1" /><path clip-path="url(#clip540)" d="M92.8947 685.524 L100.534 685.524 L100.534 659.159 L92.2234 660.825 L92.2234 656.566 L100.487 654.899 L105.163 654.899 L105.163 685.524 L112.802 685.524 L112.802 689.459 L92.8947 689.459 L92.8947 685.524 Z" fill="#000000" fill-rule="nonzero" fill-opacity="1" /><path clip-path="url(#clip540)" d="M122.293 654.899 L140.649 654.899 L140.649 658.834 L126.575 658.834 L126.575 667.307 Q127.594 666.959 128.612 666.797 Q129.631 666.612 130.649 666.612 Q136.436 666.612 139.816 669.784 Q143.195 672.955 143.195 678.371 Q143.195 683.95 139.723 687.052 Q136.251 690.131 129.931 690.131 Q127.756 690.131 125.487 689.76 Q123.242 689.39 120.834 688.649 L120.834 683.95 Q122.918 685.084 125.14 685.64 Q127.362 686.195 129.839 686.195 Q133.844 686.195 136.181 684.089 Q138.519 681.983 138.519 678.371 Q138.519 674.76 136.181 672.654 Q133.844 670.547 129.839 670.547 Q127.964 670.547 126.089 670.964 Q124.237 671.381 122.293 672.26 L122.293 654.899 Z" fill="#000000" fill-rule="nonzero" fill-opacity="1" /><path clip-path="url(#clip540)" d="M166.575 670.825 Q169.931 671.543 171.806 673.811 Q173.704 676.08 173.704 679.413 Q173.704 684.529 170.186 687.33 Q166.667 690.131 160.186 690.131 Q158.01 690.131 155.695 689.691 Q153.404 689.274 150.95 688.418 L150.95 683.904 Q152.894 685.038 155.209 685.617 Q157.524 686.195 160.047 686.195 Q164.445 686.195 166.737 684.459 Q169.052 682.723 169.052 679.413 Q169.052 676.358 166.899 674.645 Q164.769 672.908 160.95 672.908 L156.922 672.908 L156.922 669.066 L161.135 669.066 Q164.584 669.066 166.413 667.7 Q168.241 666.311 168.241 663.719 Q168.241 661.057 166.343 659.645 Q164.468 658.209 160.95 658.209 Q159.029 658.209 156.83 658.626 Q154.63 659.043 151.992 659.922 L151.992 655.756 Q154.654 655.015 156.968 654.645 Q159.306 654.274 161.367 654.274 Q166.691 654.274 169.792 656.705 Q172.894 659.112 172.894 663.233 Q172.894 666.103 171.251 668.094 Q169.607 670.061 166.575 670.825 Z" fill="#000000" fill-rule="nonzero" fill-opacity="1" /><path clip-path="url(#clip540)" d="M195.417 658.973 L183.612 677.422 L195.417 677.422 L195.417 658.973 M194.19 654.899 L200.07 654.899 L200.07 677.422 L205.001 677.422 L205.001 681.311 L200.07 681.311 L200.07 689.459 L195.417 689.459 L195.417 681.311 L179.815 681.311 L179.815 676.797 L194.19 654.899 Z" fill="#000000" fill-rule="nonzero" fill-opacity="1" /><path clip-path="url(#clip540)" d="M212.871 688.742 L212.871 684.482 Q214.63 685.316 216.436 685.756 Q218.241 686.195 219.977 686.195 Q224.607 686.195 227.037 683.094 Q229.491 679.969 229.838 673.626 Q228.496 675.617 226.436 676.682 Q224.375 677.746 221.875 677.746 Q216.69 677.746 213.658 674.621 Q210.649 671.473 210.649 666.034 Q210.649 660.709 213.797 657.492 Q216.945 654.274 222.176 654.274 Q228.172 654.274 231.32 658.881 Q234.491 663.464 234.491 672.214 Q234.491 680.385 230.602 685.27 Q226.737 690.131 220.186 690.131 Q218.426 690.131 216.621 689.783 Q214.815 689.436 212.871 688.742 M222.176 674.089 Q225.325 674.089 227.153 671.936 Q229.005 669.784 229.005 666.034 Q229.005 662.307 227.153 660.154 Q225.325 657.978 222.176 657.978 Q219.028 657.978 217.176 660.154 Q215.348 662.307 215.348 666.034 Q215.348 669.784 217.176 671.936 Q219.028 674.089 222.176 674.089 Z" fill="#000000" fill-rule="nonzero" fill-opacity="1" /><path clip-path="url(#clip540)" d="M252.894 657.978 Q249.283 657.978 247.454 661.543 Q245.648 665.084 245.648 672.214 Q245.648 679.32 247.454 682.885 Q249.283 686.427 252.894 686.427 Q256.528 686.427 258.334 682.885 Q260.162 679.32 260.162 672.214 Q260.162 665.084 258.334 661.543 Q256.528 657.978 252.894 657.978 M252.894 654.274 Q258.704 654.274 261.759 658.881 Q264.838 663.464 264.838 672.214 Q264.838 680.941 261.759 685.547 Q258.704 690.131 252.894 690.131 Q247.084 690.131 244.005 685.547 Q240.949 680.941 240.949 672.214 Q240.949 663.464 244.005 658.881 Q247.084 654.274 252.894 654.274 Z" fill="#000000" fill-rule="nonzero" fill-opacity="1" /><path clip-path="url(#clip540)" d="M301.227 663.996 L290.648 674.621 L301.227 685.2 L298.472 688.001 L287.847 677.376 L277.222 688.001 L274.491 685.2 L285.046 674.621 L274.491 663.996 L277.222 661.196 L287.847 671.821 L298.472 661.196 L301.227 663.996 Z" fill="#000000" fill-rule="nonzero" fill-opacity="1" /><path clip-path="url(#clip540)" d="M313.588 685.524 L321.227 685.524 L321.227 659.159 L312.917 660.825 L312.917 656.566 L321.18 654.899 L325.856 654.899 L325.856 685.524 L333.495 685.524 L333.495 689.459 L313.588 689.459 L313.588 685.524 Z" fill="#000000" fill-rule="nonzero" fill-opacity="1" /><path clip-path="url(#clip540)" d="M352.94 657.978 Q349.328 657.978 347.5 661.543 Q345.694 665.084 345.694 672.214 Q345.694 679.32 347.5 682.885 Q349.328 686.427 352.94 686.427 Q356.574 686.427 358.379 682.885 Q360.208 679.32 360.208 672.214 Q360.208 665.084 358.379 661.543 Q356.574 657.978 352.94 657.978 M352.94 654.274 Q358.75 654.274 361.805 658.881 Q364.884 663.464 364.884 672.214 Q364.884 680.941 361.805 685.547 Q358.75 690.131 352.94 690.131 Q347.129 690.131 344.051 685.547 Q340.995 680.941 340.995 672.214 Q340.995 663.464 344.051 658.881 Q347.129 654.274 352.94 654.274 Z" fill="#000000" fill-rule="nonzero" fill-opacity="1" /><path clip-path="url(#clip540)" d="M374.589 636.47 Q371.655 636.47 370.169 639.367 Q368.702 642.244 368.702 648.037 Q368.702 653.811 370.169 656.708 Q371.655 659.585 374.589 659.585 Q377.542 659.585 379.009 656.708 Q380.494 653.811 380.494 648.037 Q380.494 642.244 379.009 639.367 Q377.542 636.47 374.589 636.47 M374.589 633.461 Q379.31 633.461 381.792 637.204 Q384.294 640.928 384.294 648.037 Q384.294 655.128 381.792 658.87 Q379.31 662.594 374.589 662.594 Q369.868 662.594 367.367 658.87 Q364.884 655.128 364.884 648.037 Q364.884 640.928 367.367 637.204 Q369.868 633.461 374.589 633.461 Z" fill="#000000" fill-rule="nonzero" fill-opacity="1" /><path clip-path="url(#clip540)" d="M47.6634 448.696 L55.3023 448.696 L55.3023 422.33 L46.9921 423.997 L46.9921 419.738 L55.256 418.071 L59.9319 418.071 L59.9319 448.696 L67.5707 448.696 L67.5707 452.631 L47.6634 452.631 L47.6634 448.696 Z" fill="#000000" fill-rule="nonzero" fill-opacity="1" /><path clip-path="url(#clip540)" d="M77.0151 446.751 L81.8993 446.751 L81.8993 452.631 L77.0151 452.631 L77.0151 446.751 Z" fill="#000000" fill-rule="nonzero" fill-opacity="1" /><path clip-path="url(#clip540)" d="M92.8947 448.696 L100.534 448.696 L100.534 422.33 L92.2234 423.997 L92.2234 419.738 L100.487 418.071 L105.163 418.071 L105.163 448.696 L112.802 448.696 L112.802 452.631 L92.8947 452.631 L92.8947 448.696 Z" fill="#000000" fill-rule="nonzero" fill-opacity="1" /><path clip-path="url(#clip540)" d="M122.293 418.071 L140.649 418.071 L140.649 422.006 L126.575 422.006 L126.575 430.478 Q127.594 430.131 128.612 429.969 Q129.631 429.784 130.649 429.784 Q136.436 429.784 139.816 432.955 Q143.195 436.127 143.195 441.543 Q143.195 447.122 139.723 450.224 Q136.251 453.302 129.931 453.302 Q127.756 453.302 125.487 452.932 Q123.242 452.562 120.834 451.821 L120.834 447.122 Q122.918 448.256 125.14 448.812 Q127.362 449.367 129.839 449.367 Q133.844 449.367 136.181 447.261 Q138.519 445.154 138.519 441.543 Q138.519 437.932 136.181 435.826 Q133.844 433.719 129.839 433.719 Q127.964 433.719 126.089 434.136 Q124.237 434.552 122.293 435.432 L122.293 418.071 Z" fill="#000000" fill-rule="nonzero" fill-opacity="1" /><path clip-path="url(#clip540)" d="M166.575 433.997 Q169.931 434.715 171.806 436.983 Q173.704 439.252 173.704 442.585 Q173.704 447.701 170.186 450.501 Q166.667 453.302 160.186 453.302 Q158.01 453.302 155.695 452.863 Q153.404 452.446 150.95 451.589 L150.95 447.076 Q152.894 448.21 155.209 448.789 Q157.524 449.367 160.047 449.367 Q164.445 449.367 166.737 447.631 Q169.052 445.895 169.052 442.585 Q169.052 439.529 166.899 437.816 Q164.769 436.08 160.95 436.08 L156.922 436.08 L156.922 432.238 L161.135 432.238 Q164.584 432.238 166.413 430.872 Q168.241 429.483 168.241 426.89 Q168.241 424.228 166.343 422.816 Q164.468 421.381 160.95 421.381 Q159.029 421.381 156.83 421.798 Q154.63 422.215 151.992 423.094 L151.992 418.928 Q154.654 418.187 156.968 417.816 Q159.306 417.446 161.367 417.446 Q166.691 417.446 169.792 419.877 Q172.894 422.284 172.894 426.404 Q172.894 429.275 171.251 431.265 Q169.607 433.233 166.575 433.997 Z" fill="#000000" fill-rule="nonzero" fill-opacity="1" /><path clip-path="url(#clip540)" d="M182.616 418.071 L200.973 418.071 L200.973 422.006 L186.899 422.006 L186.899 430.478 Q187.917 430.131 188.936 429.969 Q189.954 429.784 190.973 429.784 Q196.76 429.784 200.139 432.955 Q203.519 436.127 203.519 441.543 Q203.519 447.122 200.047 450.224 Q196.575 453.302 190.255 453.302 Q188.079 453.302 185.811 452.932 Q183.565 452.562 181.158 451.821 L181.158 447.122 Q183.241 448.256 185.464 448.812 Q187.686 449.367 190.163 449.367 Q194.167 449.367 196.505 447.261 Q198.843 445.154 198.843 441.543 Q198.843 437.932 196.505 435.826 Q194.167 433.719 190.163 433.719 Q188.288 433.719 186.413 434.136 Q184.561 434.552 182.616 435.432 L182.616 418.071 Z" fill="#000000" fill-rule="nonzero" fill-opacity="1" /><path clip-path="url(#clip540)" d="M222.732 421.15 Q219.121 421.15 217.292 424.715 Q215.487 428.256 215.487 435.386 Q215.487 442.492 217.292 446.057 Q219.121 449.599 222.732 449.599 Q226.366 449.599 228.172 446.057 Q230 442.492 230 435.386 Q230 428.256 228.172 424.715 Q226.366 421.15 222.732 421.15 M222.732 417.446 Q228.542 417.446 231.598 422.053 Q234.676 426.636 234.676 435.386 Q234.676 444.113 231.598 448.719 Q228.542 453.302 222.732 453.302 Q216.922 453.302 213.843 448.719 Q210.788 444.113 210.788 435.386 Q210.788 426.636 213.843 422.053 Q216.922 417.446 222.732 417.446 Z" fill="#000000" fill-rule="nonzero" fill-opacity="1" /><path clip-path="url(#clip540)" d="M252.894 421.15 Q249.283 421.15 247.454 424.715 Q245.648 428.256 245.648 435.386 Q245.648 442.492 247.454 446.057 Q249.283 449.599 252.894 449.599 Q256.528 449.599 258.334 446.057 Q260.162 442.492 260.162 435.386 Q260.162 428.256 258.334 424.715 Q256.528 421.15 252.894 421.15 M252.894 417.446 Q258.704 417.446 261.759 422.053 Q264.838 426.636 264.838 435.386 Q264.838 444.113 261.759 448.719 Q258.704 453.302 252.894 453.302 Q247.084 453.302 244.005 448.719 Q240.949 444.113 240.949 435.386 Q240.949 426.636 244.005 422.053 Q247.084 417.446 252.894 417.446 Z" fill="#000000" fill-rule="nonzero" fill-opacity="1" /><path clip-path="url(#clip540)" d="M301.227 427.168 L290.648 437.793 L301.227 448.372 L298.472 451.173 L287.847 440.548 L277.222 451.173 L274.491 448.372 L285.046 437.793 L274.491 427.168 L277.222 424.367 L287.847 434.992 L298.472 424.367 L301.227 427.168 Z" fill="#000000" fill-rule="nonzero" fill-opacity="1" /><path clip-path="url(#clip540)" d="M313.588 448.696 L321.227 448.696 L321.227 422.33 L312.917 423.997 L312.917 419.738 L321.18 418.071 L325.856 418.071 L325.856 448.696 L333.495 448.696 L333.495 452.631 L313.588 452.631 L313.588 448.696 Z" fill="#000000" fill-rule="nonzero" fill-opacity="1" /><path clip-path="url(#clip540)" d="M352.94 421.15 Q349.328 421.15 347.5 424.715 Q345.694 428.256 345.694 435.386 Q345.694 442.492 347.5 446.057 Q349.328 449.599 352.94 449.599 Q356.574 449.599 358.379 446.057 Q360.208 442.492 360.208 435.386 Q360.208 428.256 358.379 424.715 Q356.574 421.15 352.94 421.15 M352.94 417.446 Q358.75 417.446 361.805 422.053 Q364.884 426.636 364.884 435.386 Q364.884 444.113 361.805 448.719 Q358.75 453.302 352.94 453.302 Q347.129 453.302 344.051 448.719 Q340.995 444.113 340.995 435.386 Q340.995 426.636 344.051 422.053 Q347.129 417.446 352.94 417.446 Z" fill="#000000" fill-rule="nonzero" fill-opacity="1" /><path clip-path="url(#clip540)" d="M374.589 399.642 Q371.655 399.642 370.169 402.539 Q368.702 405.416 368.702 411.209 Q368.702 416.983 370.169 419.879 Q371.655 422.757 374.589 422.757 Q377.542 422.757 379.009 419.879 Q380.494 416.983 380.494 411.209 Q380.494 405.416 379.009 402.539 Q377.542 399.642 374.589 399.642 M374.589 396.633 Q379.31 396.633 381.792 400.376 Q384.294 404.1 384.294 411.209 Q384.294 418.299 381.792 422.042 Q379.31 425.766 374.589 425.766 Q369.868 425.766 367.367 422.042 Q364.884 418.299 364.884 411.209 Q364.884 404.1 367.367 400.376 Q369.868 396.633 374.589 396.633 Z" fill="#000000" fill-rule="nonzero" fill-opacity="1" /><path clip-path="url(#clip540)" d="M47.6634 211.868 L55.3023 211.868 L55.3023 185.502 L46.9921 187.169 L46.9921 182.91 L55.256 181.243 L59.9319 181.243 L59.9319 211.868 L67.5707 211.868 L67.5707 215.803 L47.6634 215.803 L47.6634 211.868 Z" fill="#000000" fill-rule="nonzero" fill-opacity="1" /><path clip-path="url(#clip540)" d="M77.0151 209.923 L81.8993 209.923 L81.8993 215.803 L77.0151 215.803 L77.0151 209.923 Z" fill="#000000" fill-rule="nonzero" fill-opacity="1" /><path clip-path="url(#clip540)" d="M92.8947 211.868 L100.534 211.868 L100.534 185.502 L92.2234 187.169 L92.2234 182.91 L100.487 181.243 L105.163 181.243 L105.163 211.868 L112.802 211.868 L112.802 215.803 L92.8947 215.803 L92.8947 211.868 Z" fill="#000000" fill-rule="nonzero" fill-opacity="1" /><path clip-path="url(#clip540)" d="M122.293 181.243 L140.649 181.243 L140.649 185.178 L126.575 185.178 L126.575 193.65 Q127.594 193.303 128.612 193.141 Q129.631 192.956 130.649 192.956 Q136.436 192.956 139.816 196.127 Q143.195 199.298 143.195 204.715 Q143.195 210.294 139.723 213.395 Q136.251 216.474 129.931 216.474 Q127.756 216.474 125.487 216.104 Q123.242 215.733 120.834 214.993 L120.834 210.294 Q122.918 211.428 125.14 211.983 Q127.362 212.539 129.839 212.539 Q133.844 212.539 136.181 210.433 Q138.519 208.326 138.519 204.715 Q138.519 201.104 136.181 198.997 Q133.844 196.891 129.839 196.891 Q127.964 196.891 126.089 197.308 Q124.237 197.724 122.293 198.604 L122.293 181.243 Z" fill="#000000" fill-rule="nonzero" fill-opacity="1" /><path clip-path="url(#clip540)" d="M166.575 197.169 Q169.931 197.886 171.806 200.155 Q173.704 202.423 173.704 205.757 Q173.704 210.872 170.186 213.673 Q166.667 216.474 160.186 216.474 Q158.01 216.474 155.695 216.034 Q153.404 215.618 150.95 214.761 L150.95 210.247 Q152.894 211.382 155.209 211.96 Q157.524 212.539 160.047 212.539 Q164.445 212.539 166.737 210.803 Q169.052 209.067 169.052 205.757 Q169.052 202.701 166.899 200.988 Q164.769 199.252 160.95 199.252 L156.922 199.252 L156.922 195.409 L161.135 195.409 Q164.584 195.409 166.413 194.044 Q168.241 192.655 168.241 190.062 Q168.241 187.4 166.343 185.988 Q164.468 184.553 160.95 184.553 Q159.029 184.553 156.83 184.97 Q154.63 185.386 151.992 186.266 L151.992 182.099 Q154.654 181.359 156.968 180.988 Q159.306 180.618 161.367 180.618 Q166.691 180.618 169.792 183.048 Q172.894 185.456 172.894 189.576 Q172.894 192.447 171.251 194.437 Q169.607 196.405 166.575 197.169 Z" fill="#000000" fill-rule="nonzero" fill-opacity="1" /><path clip-path="url(#clip540)" d="M182.616 181.243 L200.973 181.243 L200.973 185.178 L186.899 185.178 L186.899 193.65 Q187.917 193.303 188.936 193.141 Q189.954 192.956 190.973 192.956 Q196.76 192.956 200.139 196.127 Q203.519 199.298 203.519 204.715 Q203.519 210.294 200.047 213.395 Q196.575 216.474 190.255 216.474 Q188.079 216.474 185.811 216.104 Q183.565 215.733 181.158 214.993 L181.158 210.294 Q183.241 211.428 185.464 211.983 Q187.686 212.539 190.163 212.539 Q194.167 212.539 196.505 210.433 Q198.843 208.326 198.843 204.715 Q198.843 201.104 196.505 198.997 Q194.167 196.891 190.163 196.891 Q188.288 196.891 186.413 197.308 Q184.561 197.724 182.616 198.604 L182.616 181.243 Z" fill="#000000" fill-rule="nonzero" fill-opacity="1" /><path clip-path="url(#clip540)" d="M213.542 211.868 L221.181 211.868 L221.181 185.502 L212.871 187.169 L212.871 182.91 L221.135 181.243 L225.811 181.243 L225.811 211.868 L233.449 211.868 L233.449 215.803 L213.542 215.803 L213.542 211.868 Z" fill="#000000" fill-rule="nonzero" fill-opacity="1" /><path clip-path="url(#clip540)" d="M252.894 184.322 Q249.283 184.322 247.454 187.886 Q245.648 191.428 245.648 198.558 Q245.648 205.664 247.454 209.229 Q249.283 212.77 252.894 212.77 Q256.528 212.77 258.334 209.229 Q260.162 205.664 260.162 198.558 Q260.162 191.428 258.334 187.886 Q256.528 184.322 252.894 184.322 M252.894 180.618 Q258.704 180.618 261.759 185.224 Q264.838 189.808 264.838 198.558 Q264.838 207.284 261.759 211.891 Q258.704 216.474 252.894 216.474 Q247.084 216.474 244.005 211.891 Q240.949 207.284 240.949 198.558 Q240.949 189.808 244.005 185.224 Q247.084 180.618 252.894 180.618 Z" fill="#000000" fill-rule="nonzero" fill-opacity="1" /><path clip-path="url(#clip540)" d="M301.227 190.34 L290.648 200.965 L301.227 211.544 L298.472 214.345 L287.847 203.72 L277.222 214.345 L274.491 211.544 L285.046 200.965 L274.491 190.34 L277.222 187.539 L287.847 198.164 L298.472 187.539 L301.227 190.34 Z" fill="#000000" fill-rule="nonzero" fill-opacity="1" /><path clip-path="url(#clip540)" d="M313.588 211.868 L321.227 211.868 L321.227 185.502 L312.917 187.169 L312.917 182.91 L321.18 181.243 L325.856 181.243 L325.856 211.868 L333.495 211.868 L333.495 215.803 L313.588 215.803 L313.588 211.868 Z" fill="#000000" fill-rule="nonzero" fill-opacity="1" /><path clip-path="url(#clip540)" d="M352.94 184.322 Q349.328 184.322 347.5 187.886 Q345.694 191.428 345.694 198.558 Q345.694 205.664 347.5 209.229 Q349.328 212.77 352.94 212.77 Q356.574 212.77 358.379 209.229 Q360.208 205.664 360.208 198.558 Q360.208 191.428 358.379 187.886 Q356.574 184.322 352.94 184.322 M352.94 180.618 Q358.75 180.618 361.805 185.224 Q364.884 189.808 364.884 198.558 Q364.884 207.284 361.805 211.891 Q358.75 216.474 352.94 216.474 Q347.129 216.474 344.051 211.891 Q340.995 207.284 340.995 198.558 Q340.995 189.808 344.051 185.224 Q347.129 180.618 352.94 180.618 Z" fill="#000000" fill-rule="nonzero" fill-opacity="1" /><path clip-path="url(#clip540)" d="M374.589 162.814 Q371.655 162.814 370.169 165.71 Q368.702 168.588 368.702 174.381 Q368.702 180.155 370.169 183.051 Q371.655 185.929 374.589 185.929 Q377.542 185.929 379.009 183.051 Q380.494 180.155 380.494 174.381 Q380.494 168.588 379.009 165.71 Q377.542 162.814 374.589 162.814 M374.589 159.805 Q379.31 159.805 381.792 163.547 Q384.294 167.271 384.294 174.381 Q384.294 181.471 381.792 185.214 Q379.31 188.938 374.589 188.938 Q369.868 188.938 367.367 185.214 Q364.884 181.471 364.884 174.381 Q364.884 167.271 367.367 163.547 Q369.868 159.805 374.589 159.805 Z" fill="#000000" fill-rule="nonzero" fill-opacity="1" /><polyline clip-path="url(#clip542)" style="stroke:#009af9; stroke-linecap:round; stroke-linejoin:round; stroke-width:4; stroke-opacity:1; fill:none" points="468.043,88.2208 479.959,101.88 491.875,115.539 503.791,129.199 515.708,142.858 527.624,156.517 539.54,170.176 551.457,183.835 563.373,197.495 575.289,211.154 587.206,224.813 599.122,238.472 611.038,252.131 622.955,265.79 634.871,279.45 646.787,293.109 658.704,306.768 670.62,320.427 682.536,334.086 694.452,347.745 706.369,361.404 718.285,375.063 730.201,388.723 742.118,402.382 754.034,416.041 765.95,429.7 777.867,443.359 789.783,457.018 801.699,470.677 813.616,484.336 825.532,497.995 837.448,511.654 849.365,525.313 861.281,538.972 873.197,552.631 885.114,566.29 897.03,579.949 908.946,593.608 920.862,607.267 932.779,620.926 944.695,634.585 956.611,648.244 968.528,661.903 980.444,675.562 992.36,689.221 1004.28,702.88 1016.19,716.539 1028.11,730.198 1040.03,743.857 1051.94,757.516 1063.86,771.175 1075.77,784.833 1087.69,798.492 1099.61,812.151 1111.52,825.81 1123.44,839.469 1135.36,853.128 1147.27,866.787 1159.19,880.446 1171.11,894.104 1183.02,907.763 1194.94,921.422 1206.85,935.081 1218.77,948.74 1230.69,962.399 1242.6,976.057 1254.52,989.716 1266.44,1003.37 1278.35,1017.03 1290.27,1030.69 1302.18,1044.35 1314.1,1058.01 1326.02,1071.67 1337.93,1085.33 1349.85,1098.99 1361.77,1112.64 1373.68,1126.3 1385.6,1139.96 1397.52,1153.62 1409.43,1167.28 1421.35,1180.94 1433.26,1194.6 1445.18,1208.26 1457.1,1221.91 1469.01,1235.57 1480.93,1249.23 1492.85,1262.89 1504.76,1276.55 1516.68,1290.21 1528.59,1303.87 1540.51,1317.53 1552.43,1331.18 1564.34,1344.84 1576.26,1358.5 1588.18,1372.16 1600.09,1385.82 1612.01,1399.48 1623.93,1413.14 1635.84,1426.79 1647.76,1440.45 1659.67,1454.11 "/>
<path clip-path="url(#clip540)" d="M1486.1 199.186 L1653.32 199.186 L1653.32 95.5056 L1486.1 95.5056  Z" fill="#ffffff" fill-rule="evenodd" fill-opacity="1"/>
<polyline clip-path="url(#clip540)" style="stroke:#000000; stroke-linecap:round; stroke-linejoin:round; stroke-width:4; stroke-opacity:1; fill:none" points="1486.1,199.186 1653.32,199.186 1653.32,95.5056 1486.1,95.5056 1486.1,199.186 "/>
<polyline clip-path="url(#clip540)" style="stroke:#009af9; stroke-linecap:round; stroke-linejoin:round; stroke-width:4; stroke-opacity:1; fill:none" points="1500.14,147.346 1584.35,147.346 "/>
<path clip-path="url(#clip540)" d="M1618.89 139.695 L1618.89 143.677 Q1617.08 142.681 1615.26 142.195 Q1613.45 141.686 1611.6 141.686 Q1607.46 141.686 1605.16 144.325 Q1602.87 146.94 1602.87 151.686 Q1602.87 156.431 1605.16 159.07 Q1607.46 161.686 1611.6 161.686 Q1613.45 161.686 1615.26 161.2 Q1617.08 160.69 1618.89 159.695 L1618.89 163.63 Q1617.11 164.464 1615.19 164.88 Q1613.29 165.297 1611.14 165.297 Q1605.28 165.297 1601.83 161.616 Q1598.38 157.936 1598.38 151.686 Q1598.38 145.343 1601.85 141.709 Q1605.35 138.075 1611.41 138.075 Q1613.38 138.075 1615.26 138.491 Q1617.13 138.885 1618.89 139.695 Z" fill="#000000" fill-rule="nonzero" fill-opacity="1" /><path clip-path="url(#clip540)" d="M1630.51 131.339 L1630.51 138.7 L1639.28 138.7 L1639.28 142.01 L1630.51 142.01 L1630.51 156.084 Q1630.51 159.255 1631.37 160.158 Q1632.25 161.061 1634.91 161.061 L1639.28 161.061 L1639.28 164.626 L1634.91 164.626 Q1629.98 164.626 1628.1 162.797 Q1626.23 160.945 1626.23 156.084 L1626.23 142.01 L1623.1 142.01 L1623.1 138.7 L1626.23 138.7 L1626.23 131.339 L1630.51 131.339 Z" fill="#000000" fill-rule="nonzero" fill-opacity="1" /><path clip-path="url(#clip540)" d="M1889.63 1495.09 L3152.76 1495.09 L3152.76 47.2441 L1889.63 47.2441  Z" fill="#ffffff" fill-rule="evenodd" fill-opacity="1"/>
<defs>
  <clipPath id="clip543">
    <rect x="1889" y="47" width="1264" height="1449"/>
  </clipPath>
</defs>
<polyline clip-path="url(#clip543)" style="stroke:#000000; stroke-linecap:round; stroke-linejoin:round; stroke-width:2; stroke-opacity:0.1; fill:none" points="1913.46,1495.09 1913.46,47.2441 "/>
<polyline clip-path="url(#clip543)" style="stroke:#000000; stroke-linecap:round; stroke-linejoin:round; stroke-width:2; stroke-opacity:0.1; fill:none" points="2211.37,1495.09 2211.37,47.2441 "/>
<polyline clip-path="url(#clip543)" style="stroke:#000000; stroke-linecap:round; stroke-linejoin:round; stroke-width:2; stroke-opacity:0.1; fill:none" points="2509.27,1495.09 2509.27,47.2441 "/>
<polyline clip-path="url(#clip543)" style="stroke:#000000; stroke-linecap:round; stroke-linejoin:round; stroke-width:2; stroke-opacity:0.1; fill:none" points="2807.18,1495.09 2807.18,47.2441 "/>
<polyline clip-path="url(#clip543)" style="stroke:#000000; stroke-linecap:round; stroke-linejoin:round; stroke-width:2; stroke-opacity:0.1; fill:none" points="3105.09,1495.09 3105.09,47.2441 "/>
<polyline clip-path="url(#clip540)" style="stroke:#000000; stroke-linecap:round; stroke-linejoin:round; stroke-width:4; stroke-opacity:1; fill:none" points="1889.63,1495.09 3152.76,1495.09 "/>
<polyline clip-path="url(#clip540)" style="stroke:#000000; stroke-linecap:round; stroke-linejoin:round; stroke-width:4; stroke-opacity:1; fill:none" points="1913.46,1495.09 1913.46,1476.19 "/>
<polyline clip-path="url(#clip540)" style="stroke:#000000; stroke-linecap:round; stroke-linejoin:round; stroke-width:4; stroke-opacity:1; fill:none" points="2211.37,1495.09 2211.37,1476.19 "/>
<polyline clip-path="url(#clip540)" style="stroke:#000000; stroke-linecap:round; stroke-linejoin:round; stroke-width:4; stroke-opacity:1; fill:none" points="2509.27,1495.09 2509.27,1476.19 "/>
<polyline clip-path="url(#clip540)" style="stroke:#000000; stroke-linecap:round; stroke-linejoin:round; stroke-width:4; stroke-opacity:1; fill:none" points="2807.18,1495.09 2807.18,1476.19 "/>
<polyline clip-path="url(#clip540)" style="stroke:#000000; stroke-linecap:round; stroke-linejoin:round; stroke-width:4; stroke-opacity:1; fill:none" points="3105.09,1495.09 3105.09,1476.19 "/>
<path clip-path="url(#clip540)" d="M1913.46 1532.41 Q1909.85 1532.41 1908.02 1535.97 Q1906.21 1539.51 1906.21 1546.64 Q1906.21 1553.75 1908.02 1557.31 Q1909.85 1560.86 1913.46 1560.86 Q1917.09 1560.86 1918.9 1557.31 Q1920.73 1553.75 1920.73 1546.64 Q1920.73 1539.51 1918.9 1535.97 Q1917.09 1532.41 1913.46 1532.41 M1913.46 1528.7 Q1919.27 1528.7 1922.32 1533.31 Q1925.4 1537.89 1925.4 1546.64 Q1925.4 1555.37 1922.32 1559.98 Q1919.27 1564.56 1913.46 1564.56 Q1907.65 1564.56 1904.57 1559.98 Q1901.51 1555.37 1901.51 1546.64 Q1901.51 1537.89 1904.57 1533.31 Q1907.65 1528.7 1913.46 1528.7 Z" fill="#000000" fill-rule="nonzero" fill-opacity="1" /><path clip-path="url(#clip540)" d="M2190.64 1559.95 L2206.96 1559.95 L2206.96 1563.89 L2185.01 1563.89 L2185.01 1559.95 Q2187.68 1557.2 2192.26 1552.57 Q2196.86 1547.92 2198.05 1546.57 Q2200.29 1544.05 2201.17 1542.31 Q2202.07 1540.55 2202.07 1538.86 Q2202.07 1536.11 2200.13 1534.37 Q2198.21 1532.64 2195.11 1532.64 Q2192.91 1532.64 2190.45 1533.4 Q2188.02 1534.17 2185.24 1535.72 L2185.24 1530.99 Q2188.07 1529.86 2190.52 1529.28 Q2192.98 1528.7 2195.01 1528.7 Q2200.38 1528.7 2203.58 1531.39 Q2206.77 1534.07 2206.77 1538.56 Q2206.77 1540.69 2205.96 1542.61 Q2205.17 1544.51 2203.07 1547.11 Q2202.49 1547.78 2199.39 1550.99 Q2196.29 1554.19 2190.64 1559.95 Z" fill="#000000" fill-rule="nonzero" fill-opacity="1" /><path clip-path="url(#clip540)" d="M2216.82 1529.33 L2235.17 1529.33 L2235.17 1533.26 L2221.1 1533.26 L2221.1 1541.74 Q2222.12 1541.39 2223.14 1541.23 Q2224.16 1541.04 2225.17 1541.04 Q2230.96 1541.04 2234.34 1544.21 Q2237.72 1547.38 2237.72 1552.8 Q2237.72 1558.38 2234.25 1561.48 Q2230.78 1564.56 2224.46 1564.56 Q2222.28 1564.56 2220.01 1564.19 Q2217.77 1563.82 2215.36 1563.08 L2215.36 1558.38 Q2217.44 1559.51 2219.67 1560.07 Q2221.89 1560.62 2224.36 1560.62 Q2228.37 1560.62 2230.71 1558.52 Q2233.05 1556.41 2233.05 1552.8 Q2233.05 1549.19 2230.71 1547.08 Q2228.37 1544.98 2224.36 1544.98 Q2222.49 1544.98 2220.61 1545.39 Q2218.76 1545.81 2216.82 1546.69 L2216.82 1529.33 Z" fill="#000000" fill-rule="nonzero" fill-opacity="1" /><path clip-path="url(#clip540)" d="M2483.97 1529.33 L2502.33 1529.33 L2502.33 1533.26 L2488.26 1533.26 L2488.26 1541.74 Q2489.27 1541.39 2490.29 1541.23 Q2491.31 1541.04 2492.33 1541.04 Q2498.12 1541.04 2501.5 1544.21 Q2504.88 1547.38 2504.88 1552.8 Q2504.88 1558.38 2501.4 1561.48 Q2497.93 1564.56 2491.61 1564.56 Q2489.44 1564.56 2487.17 1564.19 Q2484.92 1563.82 2482.52 1563.08 L2482.52 1558.38 Q2484.6 1559.51 2486.82 1560.07 Q2489.04 1560.62 2491.52 1560.62 Q2495.52 1560.62 2497.86 1558.52 Q2500.2 1556.41 2500.2 1552.8 Q2500.2 1549.19 2497.86 1547.08 Q2495.52 1544.98 2491.52 1544.98 Q2489.65 1544.98 2487.77 1545.39 Q2485.92 1545.81 2483.97 1546.69 L2483.97 1529.33 Z" fill="#000000" fill-rule="nonzero" fill-opacity="1" /><path clip-path="url(#clip540)" d="M2524.09 1532.41 Q2520.48 1532.41 2518.65 1535.97 Q2516.84 1539.51 2516.84 1546.64 Q2516.84 1553.75 2518.65 1557.31 Q2520.48 1560.86 2524.09 1560.86 Q2527.72 1560.86 2529.53 1557.31 Q2531.36 1553.75 2531.36 1546.64 Q2531.36 1539.51 2529.53 1535.97 Q2527.72 1532.41 2524.09 1532.41 M2524.09 1528.7 Q2529.9 1528.7 2532.96 1533.31 Q2536.03 1537.89 2536.03 1546.64 Q2536.03 1555.37 2532.96 1559.98 Q2529.9 1564.56 2524.09 1564.56 Q2518.28 1564.56 2515.2 1559.98 Q2512.15 1555.37 2512.15 1546.64 Q2512.15 1537.89 2515.2 1533.31 Q2518.28 1528.7 2524.09 1528.7 Z" fill="#000000" fill-rule="nonzero" fill-opacity="1" /><path clip-path="url(#clip540)" d="M2781.04 1529.33 L2803.26 1529.33 L2803.26 1531.32 L2790.71 1563.89 L2785.83 1563.89 L2797.63 1533.26 L2781.04 1533.26 L2781.04 1529.33 Z" fill="#000000" fill-rule="nonzero" fill-opacity="1" /><path clip-path="url(#clip540)" d="M2812.43 1529.33 L2830.78 1529.33 L2830.78 1533.26 L2816.71 1533.26 L2816.71 1541.74 Q2817.73 1541.39 2818.75 1541.23 Q2819.76 1541.04 2820.78 1541.04 Q2826.57 1541.04 2829.95 1544.21 Q2833.33 1547.38 2833.33 1552.8 Q2833.33 1558.38 2829.86 1561.48 Q2826.38 1564.56 2820.06 1564.56 Q2817.89 1564.56 2815.62 1564.19 Q2813.37 1563.82 2810.97 1563.08 L2810.97 1558.38 Q2813.05 1559.51 2815.27 1560.07 Q2817.5 1560.62 2819.97 1560.62 Q2823.98 1560.62 2826.31 1558.52 Q2828.65 1556.41 2828.65 1552.8 Q2828.65 1549.19 2826.31 1547.08 Q2823.98 1544.98 2819.97 1544.98 Q2818.1 1544.98 2816.22 1545.39 Q2814.37 1545.81 2812.43 1546.69 L2812.43 1529.33 Z" fill="#000000" fill-rule="nonzero" fill-opacity="1" /><path clip-path="url(#clip540)" d="M3064.7 1559.95 L3072.34 1559.95 L3072.34 1533.59 L3064.03 1535.25 L3064.03 1530.99 L3072.29 1529.33 L3076.97 1529.33 L3076.97 1559.95 L3084.6 1559.95 L3084.6 1563.89 L3064.7 1563.89 L3064.7 1559.95 Z" fill="#000000" fill-rule="nonzero" fill-opacity="1" /><path clip-path="url(#clip540)" d="M3104.05 1532.41 Q3100.44 1532.41 3098.61 1535.97 Q3096.8 1539.51 3096.8 1546.64 Q3096.8 1553.75 3098.61 1557.31 Q3100.44 1560.86 3104.05 1560.86 Q3107.68 1560.86 3109.49 1557.31 Q3111.32 1553.75 3111.32 1546.64 Q3111.32 1539.51 3109.49 1535.97 Q3107.68 1532.41 3104.05 1532.41 M3104.05 1528.7 Q3109.86 1528.7 3112.91 1533.31 Q3115.99 1537.89 3115.99 1546.64 Q3115.99 1555.37 3112.91 1559.98 Q3109.86 1564.56 3104.05 1564.56 Q3098.24 1564.56 3095.16 1559.98 Q3092.1 1555.37 3092.1 1546.64 Q3092.1 1537.89 3095.16 1533.31 Q3098.24 1528.7 3104.05 1528.7 Z" fill="#000000" fill-rule="nonzero" fill-opacity="1" /><path clip-path="url(#clip540)" d="M3134.21 1532.41 Q3130.6 1532.41 3128.77 1535.97 Q3126.97 1539.51 3126.97 1546.64 Q3126.97 1553.75 3128.77 1557.31 Q3130.6 1560.86 3134.21 1560.86 Q3137.85 1560.86 3139.65 1557.31 Q3141.48 1553.75 3141.48 1546.64 Q3141.48 1539.51 3139.65 1535.97 Q3137.85 1532.41 3134.21 1532.41 M3134.21 1528.7 Q3140.02 1528.7 3143.08 1533.31 Q3146.16 1537.89 3146.16 1546.64 Q3146.16 1555.37 3143.08 1559.98 Q3140.02 1564.56 3134.21 1564.56 Q3128.4 1564.56 3125.32 1559.98 Q3122.27 1555.37 3122.27 1546.64 Q3122.27 1537.89 3125.32 1533.31 Q3128.4 1528.7 3134.21 1528.7 Z" fill="#000000" fill-rule="nonzero" fill-opacity="1" /><polyline clip-path="url(#clip543)" style="stroke:#000000; stroke-linecap:round; stroke-linejoin:round; stroke-width:2; stroke-opacity:0.1; fill:none" points="1889.63,1302.35 3152.76,1302.35 "/>
<polyline clip-path="url(#clip543)" style="stroke:#000000; stroke-linecap:round; stroke-linejoin:round; stroke-width:2; stroke-opacity:0.1; fill:none" points="1889.63,998.821 3152.76,998.821 "/>
<polyline clip-path="url(#clip543)" style="stroke:#000000; stroke-linecap:round; stroke-linejoin:round; stroke-width:2; stroke-opacity:0.1; fill:none" points="1889.63,695.288 3152.76,695.288 "/>
<polyline clip-path="url(#clip543)" style="stroke:#000000; stroke-linecap:round; stroke-linejoin:round; stroke-width:2; stroke-opacity:0.1; fill:none" points="1889.63,391.754 3152.76,391.754 "/>
<polyline clip-path="url(#clip543)" style="stroke:#000000; stroke-linecap:round; stroke-linejoin:round; stroke-width:2; stroke-opacity:0.1; fill:none" points="1889.63,88.2208 3152.76,88.2208 "/>
<polyline clip-path="url(#clip540)" style="stroke:#000000; stroke-linecap:round; stroke-linejoin:round; stroke-width:4; stroke-opacity:1; fill:none" points="1889.63,1495.09 1889.63,47.2441 "/>
<polyline clip-path="url(#clip540)" style="stroke:#000000; stroke-linecap:round; stroke-linejoin:round; stroke-width:4; stroke-opacity:1; fill:none" points="1889.63,1302.35 1908.52,1302.35 "/>
<polyline clip-path="url(#clip540)" style="stroke:#000000; stroke-linecap:round; stroke-linejoin:round; stroke-width:4; stroke-opacity:1; fill:none" points="1889.63,998.821 1908.52,998.821 "/>
<polyline clip-path="url(#clip540)" style="stroke:#000000; stroke-linecap:round; stroke-linejoin:round; stroke-width:4; stroke-opacity:1; fill:none" points="1889.63,695.288 1908.52,695.288 "/>
<polyline clip-path="url(#clip540)" style="stroke:#000000; stroke-linecap:round; stroke-linejoin:round; stroke-width:4; stroke-opacity:1; fill:none" points="1889.63,391.754 1908.52,391.754 "/>
<polyline clip-path="url(#clip540)" style="stroke:#000000; stroke-linecap:round; stroke-linejoin:round; stroke-width:4; stroke-opacity:1; fill:none" points="1889.63,88.2208 1908.52,88.2208 "/>
<path clip-path="url(#clip540)" d="M1825.31 1315.7 L1841.63 1315.7 L1841.63 1319.63 L1819.68 1319.63 L1819.68 1315.7 Q1822.34 1312.95 1826.93 1308.32 Q1831.53 1303.66 1832.71 1302.32 Q1834.96 1299.8 1835.84 1298.06 Q1836.74 1296.3 1836.74 1294.61 Q1836.74 1291.86 1834.8 1290.12 Q1832.88 1288.39 1829.77 1288.39 Q1827.58 1288.39 1825.12 1289.15 Q1822.69 1289.91 1819.91 1291.46 L1819.91 1286.74 Q1822.74 1285.61 1825.19 1285.03 Q1827.65 1284.45 1829.68 1284.45 Q1835.05 1284.45 1838.25 1287.14 Q1841.44 1289.82 1841.44 1294.31 Q1841.44 1296.44 1840.63 1298.36 Q1839.84 1300.26 1837.74 1302.85 Q1837.16 1303.52 1834.06 1306.74 Q1830.96 1309.94 1825.31 1315.7 Z" fill="#000000" fill-rule="nonzero" fill-opacity="1" /><path clip-path="url(#clip540)" d="M1832.04 985.615 L1820.24 1004.06 L1832.04 1004.06 L1832.04 985.615 M1830.82 981.541 L1836.7 981.541 L1836.7 1004.06 L1841.63 1004.06 L1841.63 1007.95 L1836.7 1007.95 L1836.7 1016.1 L1832.04 1016.1 L1832.04 1007.95 L1816.44 1007.95 L1816.44 1003.44 L1830.82 981.541 Z" fill="#000000" fill-rule="nonzero" fill-opacity="1" /><path clip-path="url(#clip540)" d="M1830.1 693.424 Q1826.95 693.424 1825.1 695.577 Q1823.27 697.73 1823.27 701.48 Q1823.27 705.207 1825.1 707.383 Q1826.95 709.535 1830.1 709.535 Q1833.25 709.535 1835.08 707.383 Q1836.93 705.207 1836.93 701.48 Q1836.93 697.73 1835.08 695.577 Q1833.25 693.424 1830.1 693.424 M1839.38 678.772 L1839.38 683.031 Q1837.62 682.198 1835.82 681.758 Q1834.03 681.318 1832.27 681.318 Q1827.65 681.318 1825.19 684.443 Q1822.76 687.568 1822.41 693.887 Q1823.78 691.873 1825.84 690.809 Q1827.9 689.721 1830.38 689.721 Q1835.58 689.721 1838.59 692.892 Q1841.63 696.04 1841.63 701.48 Q1841.63 706.804 1838.48 710.022 Q1835.33 713.239 1830.1 713.239 Q1824.1 713.239 1820.93 708.656 Q1817.76 704.049 1817.76 695.323 Q1817.76 687.128 1821.65 682.267 Q1825.54 677.383 1832.09 677.383 Q1833.85 677.383 1835.63 677.73 Q1837.44 678.077 1839.38 678.772 Z" fill="#000000" fill-rule="nonzero" fill-opacity="1" /><path clip-path="url(#clip540)" d="M1829.77 392.622 Q1826.44 392.622 1824.52 394.405 Q1822.62 396.187 1822.62 399.312 Q1822.62 402.437 1824.52 404.22 Q1826.44 406.002 1829.77 406.002 Q1833.11 406.002 1835.03 404.22 Q1836.95 402.414 1836.95 399.312 Q1836.95 396.187 1835.03 394.405 Q1833.13 392.622 1829.77 392.622 M1825.1 390.632 Q1822.09 389.891 1820.4 387.831 Q1818.73 385.771 1818.73 382.808 Q1818.73 378.664 1821.67 376.257 Q1824.64 373.849 1829.77 373.849 Q1834.94 373.849 1837.88 376.257 Q1840.82 378.664 1840.82 382.808 Q1840.82 385.771 1839.13 387.831 Q1837.46 389.891 1834.47 390.632 Q1837.85 391.419 1839.73 393.71 Q1841.63 396.002 1841.63 399.312 Q1841.63 404.335 1838.55 407.02 Q1835.49 409.706 1829.77 409.706 Q1824.06 409.706 1820.98 407.02 Q1817.92 404.335 1817.92 399.312 Q1817.92 396.002 1819.82 393.71 Q1821.72 391.419 1825.1 390.632 M1823.39 383.247 Q1823.39 385.933 1825.05 387.437 Q1826.74 388.942 1829.77 388.942 Q1832.78 388.942 1834.47 387.437 Q1836.19 385.933 1836.19 383.247 Q1836.19 380.562 1834.47 379.058 Q1832.78 377.553 1829.77 377.553 Q1826.74 377.553 1825.05 379.058 Q1823.39 380.562 1823.39 383.247 Z" fill="#000000" fill-rule="nonzero" fill-opacity="1" /><path clip-path="url(#clip540)" d="M1790.33 101.566 L1797.97 101.566 L1797.97 75.2 L1789.66 76.8667 L1789.66 72.6075 L1797.92 70.9408 L1802.6 70.9408 L1802.6 101.566 L1810.24 101.566 L1810.24 105.501 L1790.33 105.501 L1790.33 101.566 Z" fill="#000000" fill-rule="nonzero" fill-opacity="1" /><path clip-path="url(#clip540)" d="M1829.68 74.0195 Q1826.07 74.0195 1824.24 77.5843 Q1822.44 81.1259 1822.44 88.2555 Q1822.44 95.362 1824.24 98.9268 Q1826.07 102.468 1829.68 102.468 Q1833.32 102.468 1835.12 98.9268 Q1836.95 95.362 1836.95 88.2555 Q1836.95 81.1259 1835.12 77.5843 Q1833.32 74.0195 1829.68 74.0195 M1829.68 70.3158 Q1835.49 70.3158 1838.55 74.9223 Q1841.63 79.5056 1841.63 88.2555 Q1841.63 96.9823 1838.55 101.589 Q1835.49 106.172 1829.68 106.172 Q1823.87 106.172 1820.79 101.589 Q1817.74 96.9823 1817.74 88.2555 Q1817.74 79.5056 1820.79 74.9223 Q1823.87 70.3158 1829.68 70.3158 Z" fill="#000000" fill-rule="nonzero" fill-opacity="1" /><polyline clip-path="url(#clip543)" style="stroke:#009af9; stroke-linecap:round; stroke-linejoin:round; stroke-width:4; stroke-opacity:1; fill:none" points="1925.38,88.2208 1937.29,96.1907 1949.21,104.241 1961.12,112.373 1973.04,120.586 1984.96,128.883 1996.87,137.263 2008.79,145.728 2020.71,154.278 2032.62,162.914 2044.54,171.638 2056.45,180.449 2068.37,189.35 2080.29,198.34 2092.2,207.421 2104.12,216.594 2116.04,225.859 2127.95,235.218 2139.87,244.671 2151.79,254.219 2163.7,263.864 2175.62,273.606 2187.53,283.447 2199.45,293.387 2211.37,303.427 2223.28,313.568 2235.2,323.812 2247.12,334.159 2259.03,344.611 2270.95,355.168 2282.86,365.831 2294.78,376.602 2306.7,387.482 2318.61,398.472 2330.53,409.572 2342.45,420.785 2354.36,432.111 2366.28,443.551 2378.2,455.106 2390.11,466.779 2402.03,478.569 2413.94,490.478 2425.86,502.507 2437.78,514.657 2449.69,526.93 2461.61,539.327 2473.53,551.85 2485.44,564.498 2497.36,577.274 2509.27,590.18 2521.19,603.215 2533.11,616.382 2545.02,629.682 2556.94,643.116 2568.86,656.686 2580.77,670.393 2592.69,684.238 2604.61,698.222 2616.52,712.348 2628.44,726.617 2640.35,741.029 2652.27,755.588 2664.19,770.293 2676.1,785.146 2688.02,800.149 2699.94,815.304 2711.85,830.612 2723.77,846.074 2735.68,861.693 2747.6,877.469 2759.52,893.404 2771.43,909.5 2783.35,925.759 2795.27,942.182 2807.18,958.77 2819.1,975.526 2831.02,992.451 2842.93,1009.55 2854.85,1026.82 2866.76,1044.26 2878.68,1061.88 2890.6,1079.67 2902.51,1097.65 2914.43,1115.81 2926.35,1134.15 2938.26,1152.68 2950.18,1171.39 2962.09,1190.29 2974.01,1209.39 2985.93,1228.67 2997.84,1248.15 3009.76,1267.83 3021.68,1287.71 3033.59,1307.78 3045.51,1328.06 3057.43,1348.55 3069.34,1369.24 3081.26,1390.14 3093.17,1411.25 3105.09,1432.57 3117.01,1454.11 "/>
<path clip-path="url(#clip540)" d="M2910.52 199.186 L3110.65 199.186 L3110.65 95.5056 L2910.52 95.5056  Z" fill="#ffffff" fill-rule="evenodd" fill-opacity="1"/>
<polyline clip-path="url(#clip540)" style="stroke:#000000; stroke-linecap:round; stroke-linejoin:round; stroke-width:4; stroke-opacity:1; fill:none" points="2910.52,199.186 3110.65,199.186 3110.65,95.5056 2910.52,95.5056 2910.52,199.186 "/>
<polyline clip-path="url(#clip540)" style="stroke:#009af9; stroke-linecap:round; stroke-linejoin:round; stroke-width:4; stroke-opacity:1; fill:none" points="2924.55,147.346 3008.76,147.346 "/>
<path clip-path="url(#clip540)" d="M3036.2 151.593 Q3031.04 151.593 3029.05 152.774 Q3027.06 153.954 3027.06 156.802 Q3027.06 159.07 3028.54 160.413 Q3030.04 161.732 3032.61 161.732 Q3036.15 161.732 3038.28 159.232 Q3040.44 156.709 3040.44 152.542 L3040.44 151.593 L3036.2 151.593 M3044.7 149.834 L3044.7 164.626 L3040.44 164.626 L3040.44 160.69 Q3038.98 163.051 3036.8 164.186 Q3034.63 165.297 3031.48 165.297 Q3027.5 165.297 3025.14 163.075 Q3022.8 160.829 3022.8 157.079 Q3022.8 152.704 3025.71 150.482 Q3028.65 148.26 3034.46 148.26 L3040.44 148.26 L3040.44 147.843 Q3040.44 144.903 3038.49 143.306 Q3036.57 141.686 3033.08 141.686 Q3030.85 141.686 3028.75 142.218 Q3026.64 142.751 3024.7 143.815 L3024.7 139.88 Q3027.03 138.978 3029.23 138.538 Q3031.43 138.075 3033.52 138.075 Q3039.14 138.075 3041.92 140.991 Q3044.7 143.908 3044.7 149.834 Z" fill="#000000" fill-rule="nonzero" fill-opacity="1" /><path clip-path="url(#clip540)" d="M3054.88 160.69 L3062.52 160.69 L3062.52 134.325 L3054.21 135.991 L3054.21 131.732 L3062.47 130.066 L3067.15 130.066 L3067.15 160.69 L3074.79 160.69 L3074.79 164.626 L3054.88 164.626 L3054.88 160.69 Z" fill="#000000" fill-rule="nonzero" fill-opacity="1" /><path clip-path="url(#clip540)" d="M3087.84 131.339 L3087.84 138.7 L3096.62 138.7 L3096.62 142.01 L3087.84 142.01 L3087.84 156.084 Q3087.84 159.255 3088.7 160.158 Q3089.58 161.061 3092.24 161.061 L3096.62 161.061 L3096.62 164.626 L3092.24 164.626 Q3087.31 164.626 3085.44 162.797 Q3083.56 160.945 3083.56 156.084 L3083.56 142.01 L3080.44 142.01 L3080.44 138.7 L3083.56 138.7 L3083.56 131.339 L3087.84 131.339 Z" fill="#000000" fill-rule="nonzero" fill-opacity="1" /></svg>