<?xml version="1.0" encoding="utf-8"?>
<svg xmlns="http://www.w3.org/2000/svg" xmlns:xlink="http://www.w3.org/1999/xlink" width="600" height="400" viewBox="0 0 2400 1600">
<defs>
  <clipPath id="clip790">
    <rect x="0" y="0" width="2400" height="1600"/>
  </clipPath>
</defs>
<path clip-path="url(#clip790)" d="M0 1600 L2400 1600 L2400 0 L0 0  Z" fill="#ffffff" fill-rule="evenodd" fill-opacity="1"/>
<defs>
  <clipPath id="clip791">
    <rect x="480" y="0" width="1681" height="1600"/>
  </clipPath>
</defs>
<path clip-path="url(#clip790)" d="M302.458 1423.18 L2352.76 1423.18 L2352.76 47.2441 L302.458 47.2441  Z" fill="#ffffff" fill-rule="evenodd" fill-opacity="1"/>
<defs>
  <clipPath id="clip792">
    <rect x="302" y="47" width="2051" height="1377"/>
  </clipPath>
</defs>
<polyline clip-path="url(#clip792)" style="stroke:#000000; stroke-linecap:round; stroke-linejoin:round; stroke-width:2; stroke-opacity:0.1; fill:none" points="343.313,1423.18 343.313,47.2441 "/>
<polyline clip-path="url(#clip792)" style="stroke:#000000; stroke-linecap:round; stroke-linejoin:round; stroke-width:2; stroke-opacity:0.1; fill:none" points="733.596,1423.18 733.596,47.2441 "/>
<polyline clip-path="url(#clip792)" style="stroke:#000000; stroke-linecap:round; stroke-linejoin:round; stroke-width:2; stroke-opacity:0.1; fill:none" points="1123.88,1423.18 1123.88,47.2441 "/>
<polyline clip-path="url(#clip792)" style="stroke:#000000; stroke-linecap:round; stroke-linejoin:round; stroke-width:2; stroke-opacity:0.1; fill:none" points="1514.16,1423.18 1514.16,47.2441 "/>
<polyline clip-path="url(#clip792)" style="stroke:#000000; stroke-linecap:round; stroke-linejoin:round; stroke-width:2; stroke-opacity:0.1; fill:none" points="1904.45,1423.18 1904.45,47.2441 "/>
<polyline clip-path="url(#clip792)" style="stroke:#000000; stroke-linecap:round; stroke-linejoin:round; stroke-width:2; stroke-opacity:0.1; fill:none" points="2294.73,1423.18 2294.73,47.2441 "/>
<polyline clip-path="url(#clip790)" style="stroke:#000000; stroke-linecap:round; stroke-linejoin:round; stroke-width:4; stroke-opacity:1; fill:none" points="302.458,1423.18 2352.76,1423.18 "/>
<polyline clip-path="url(#clip790)" style="stroke:#000000; stroke-linecap:round; stroke-linejoin:round; stroke-width:4; stroke-opacity:1; fill:none" points="343.313,1423.18 343.313,1404.28 "/>
<polyline clip-path="url(#clip790)" style="stroke:#000000; stroke-linecap:round; stroke-linejoin:round; stroke-width:4; stroke-opacity:1; fill:none" points="733.596,1423.18 733.596,1404.28 "/>
<polyline clip-path="url(#clip790)" style="stroke:#000000; stroke-linecap:round; stroke-linejoin:round; stroke-width:4; stroke-opacity:1; fill:none" points="1123.88,1423.18 1123.88,1404.28 "/>
<polyline clip-path="url(#clip790)" style="stroke:#000000; stroke-linecap:round; stroke-linejoin:round; stroke-width:4; stroke-opacity:1; fill:none" points="1514.16,1423.18 1514.16,1404.28 "/>
<polyline clip-path="url(#clip790)" style="stroke:#000000; stroke-linecap:round; stroke-linejoin:round; stroke-width:4; stroke-opacity:1; fill:none" points="1904.45,1423.18 1904.45,1404.28 "/>
<polyline clip-path="url(#clip790)" style="stroke:#000000; stroke-linecap:round; stroke-linejoin:round; stroke-width:4; stroke-opacity:1; fill:none" points="2294.73,1423.18 2294.73,1404.28 "/>
<path clip-path="url(#clip790)" d="M320.698 1454.1 Q317.087 1454.1 315.258 1457.66 Q313.452 1461.2 313.452 1468.33 Q313.452 1475.44 315.258 1479.01 Q317.087 1482.55 320.698 1482.55 Q324.332 1482.55 326.137 1479.01 Q327.966 1475.44 327.966 1468.33 Q327.966 1461.2 326.137 1457.66 Q324.332 1454.1 320.698 1454.1 M320.698 1450.39 Q326.508 1450.39 329.563 1455 Q332.642 1459.58 332.642 1468.33 Q332.642 1477.06 329.563 1481.67 Q326.508 1486.25 320.698 1486.25 Q314.887 1486.25 311.809 1481.67 Q308.753 1477.06 308.753 1468.33 Q308.753 1459.58 311.809 1455 Q314.887 1450.39 320.698 1450.39 Z" fill="#000000" fill-rule="nonzero" fill-opacity="1" /><path clip-path="url(#clip790)" d="M340.86 1479.7 L345.744 1479.7 L345.744 1485.58 L340.86 1485.58 L340.86 1479.7 Z" fill="#000000" fill-rule="nonzero" fill-opacity="1" /><path clip-path="url(#clip790)" d="M365.929 1454.1 Q362.318 1454.1 360.489 1457.66 Q358.684 1461.2 358.684 1468.33 Q358.684 1475.44 360.489 1479.01 Q362.318 1482.55 365.929 1482.55 Q369.563 1482.55 371.369 1479.01 Q373.197 1475.44 373.197 1468.33 Q373.197 1461.2 371.369 1457.66 Q369.563 1454.1 365.929 1454.1 M365.929 1450.39 Q371.739 1450.39 374.795 1455 Q377.873 1459.58 377.873 1468.33 Q377.873 1477.06 374.795 1481.67 Q371.739 1486.25 365.929 1486.25 Q360.119 1486.25 357.04 1481.67 Q353.984 1477.06 353.984 1468.33 Q353.984 1459.58 357.04 1455 Q360.119 1450.39 365.929 1450.39 Z" fill="#000000" fill-rule="nonzero" fill-opacity="1" /><path clip-path="url(#clip790)" d="M711.478 1454.1 Q707.867 1454.1 706.039 1457.66 Q704.233 1461.2 704.233 1468.33 Q704.233 1475.44 706.039 1479.01 Q707.867 1482.55 711.478 1482.55 Q715.113 1482.55 716.918 1479.01 Q718.747 1475.44 718.747 1468.33 Q718.747 1461.2 716.918 1457.66 Q715.113 1454.1 711.478 1454.1 M711.478 1450.39 Q717.289 1450.39 720.344 1455 Q723.423 1459.58 723.423 1468.33 Q723.423 1477.06 720.344 1481.67 Q717.289 1486.25 711.478 1486.25 Q705.668 1486.25 702.59 1481.67 Q699.534 1477.06 699.534 1468.33 Q699.534 1459.58 702.59 1455 Q705.668 1450.39 711.478 1450.39 Z" fill="#000000" fill-rule="nonzero" fill-opacity="1" /><path clip-path="url(#clip790)" d="M731.64 1479.7 L736.525 1479.7 L736.525 1485.58 L731.64 1485.58 L731.64 1479.7 Z" fill="#000000" fill-rule="nonzero" fill-opacity="1" /><path clip-path="url(#clip790)" d="M746.756 1451.02 L765.112 1451.02 L765.112 1454.96 L751.038 1454.96 L751.038 1463.43 Q752.057 1463.08 753.075 1462.92 Q754.094 1462.73 755.112 1462.73 Q760.899 1462.73 764.279 1465.9 Q767.659 1469.08 767.659 1474.49 Q767.659 1480.07 764.186 1483.17 Q760.714 1486.25 754.395 1486.25 Q752.219 1486.25 749.95 1485.88 Q747.705 1485.51 745.298 1484.77 L745.298 1480.07 Q747.381 1481.2 749.603 1481.76 Q751.825 1482.32 754.302 1482.32 Q758.307 1482.32 760.645 1480.21 Q762.983 1478.1 762.983 1474.49 Q762.983 1470.88 760.645 1468.77 Q758.307 1466.67 754.302 1466.67 Q752.427 1466.67 750.552 1467.08 Q748.7 1467.5 746.756 1468.38 L746.756 1451.02 Z" fill="#000000" fill-rule="nonzero" fill-opacity="1" /><path clip-path="url(#clip790)" d="M1091.03 1481.64 L1098.67 1481.64 L1098.67 1455.28 L1090.36 1456.95 L1090.36 1452.69 L1098.62 1451.02 L1103.3 1451.02 L1103.3 1481.64 L1110.94 1481.64 L1110.94 1485.58 L1091.03 1485.58 L1091.03 1481.64 Z" fill="#000000" fill-rule="nonzero" fill-opacity="1" /><path clip-path="url(#clip790)" d="M1120.38 1479.7 L1125.27 1479.7 L1125.27 1485.58 L1120.38 1485.58 L1120.38 1479.7 Z" fill="#000000" fill-rule="nonzero" fill-opacity="1" /><path clip-path="url(#clip790)" d="M1145.45 1454.1 Q1141.84 1454.1 1140.01 1457.66 Q1138.21 1461.2 1138.21 1468.33 Q1138.21 1475.44 1140.01 1479.01 Q1141.84 1482.55 1145.45 1482.55 Q1149.09 1482.55 1150.89 1479.01 Q1152.72 1475.44 1152.72 1468.33 Q1152.72 1461.2 1150.89 1457.66 Q1149.09 1454.1 1145.45 1454.1 M1145.45 1450.39 Q1151.26 1450.39 1154.32 1455 Q1157.4 1459.58 1157.4 1468.33 Q1157.4 1477.06 1154.32 1481.67 Q1151.26 1486.25 1145.45 1486.25 Q1139.64 1486.25 1136.56 1481.67 Q1133.51 1477.06 1133.51 1468.33 Q1133.51 1459.58 1136.56 1455 Q1139.64 1450.39 1145.45 1450.39 Z" fill="#000000" fill-rule="nonzero" fill-opacity="1" /><path clip-path="url(#clip790)" d="M1481.81 1481.64 L1489.45 1481.64 L1489.45 1455.28 L1481.14 1456.95 L1481.14 1452.69 L1489.41 1451.02 L1494.08 1451.02 L1494.08 1481.64 L1501.72 1481.64 L1501.72 1485.58 L1481.81 1485.58 L1481.81 1481.64 Z" fill="#000000" fill-rule="nonzero" fill-opacity="1" /><path clip-path="url(#clip790)" d="M1511.16 1479.7 L1516.05 1479.7 L1516.05 1485.58 L1511.16 1485.58 L1511.16 1479.7 Z" fill="#000000" fill-rule="nonzero" fill-opacity="1" /><path clip-path="url(#clip790)" d="M1526.28 1451.02 L1544.64 1451.02 L1544.64 1454.96 L1530.56 1454.96 L1530.56 1463.43 Q1531.58 1463.08 1532.6 1462.92 Q1533.62 1462.73 1534.64 1462.73 Q1540.42 1462.73 1543.8 1465.9 Q1547.18 1469.08 1547.18 1474.49 Q1547.18 1480.07 1543.71 1483.17 Q1540.24 1486.25 1533.92 1486.25 Q1531.74 1486.25 1529.47 1485.88 Q1527.23 1485.51 1524.82 1484.77 L1524.82 1480.07 Q1526.91 1481.2 1529.13 1481.76 Q1531.35 1482.32 1533.83 1482.32 Q1537.83 1482.32 1540.17 1480.21 Q1542.51 1478.1 1542.51 1474.49 Q1542.51 1470.88 1540.17 1468.77 Q1537.83 1466.67 1533.83 1466.67 Q1531.95 1466.67 1530.08 1467.08 Q1528.22 1467.5 1526.28 1468.38 L1526.28 1451.02 Z" fill="#000000" fill-rule="nonzero" fill-opacity="1" /><path clip-path="url(#clip790)" d="M1875.68 1481.64 L1892 1481.64 L1892 1485.58 L1870.06 1485.58 L1870.06 1481.64 Q1872.72 1478.89 1877.3 1474.26 Q1881.91 1469.61 1883.09 1468.27 Q1885.34 1465.74 1886.22 1464.01 Q1887.12 1462.25 1887.12 1460.56 Q1887.12 1457.8 1885.17 1456.07 Q1883.25 1454.33 1880.15 1454.33 Q1877.95 1454.33 1875.5 1455.09 Q1873.07 1455.86 1870.29 1457.41 L1870.29 1452.69 Q1873.11 1451.55 1875.57 1450.97 Q1878.02 1450.39 1880.06 1450.39 Q1885.43 1450.39 1888.62 1453.08 Q1891.82 1455.77 1891.82 1460.26 Q1891.82 1462.39 1891.01 1464.31 Q1890.22 1466.2 1888.11 1468.8 Q1887.54 1469.47 1884.43 1472.69 Q1881.33 1475.88 1875.68 1481.64 Z" fill="#000000" fill-rule="nonzero" fill-opacity="1" /><path clip-path="url(#clip790)" d="M1901.82 1479.7 L1906.7 1479.7 L1906.7 1485.58 L1901.82 1485.58 L1901.82 1479.7 Z" fill="#000000" fill-rule="nonzero" fill-opacity="1" /><path clip-path="url(#clip790)" d="M1926.89 1454.1 Q1923.28 1454.1 1921.45 1457.66 Q1919.64 1461.2 1919.64 1468.33 Q1919.64 1475.44 1921.45 1479.01 Q1923.28 1482.55 1926.89 1482.55 Q1930.52 1482.55 1932.33 1479.01 Q1934.16 1475.44 1934.16 1468.33 Q1934.16 1461.2 1932.33 1457.66 Q1930.52 1454.1 1926.89 1454.1 M1926.89 1450.39 Q1932.7 1450.39 1935.75 1455 Q1938.83 1459.58 1938.83 1468.33 Q1938.83 1477.06 1935.75 1481.67 Q1932.7 1486.25 1926.89 1486.25 Q1921.08 1486.25 1918 1481.67 Q1914.94 1477.06 1914.94 1468.33 Q1914.94 1459.58 1918 1455 Q1921.08 1450.39 1926.89 1450.39 Z" fill="#000000" fill-rule="nonzero" fill-opacity="1" /><path clip-path="url(#clip790)" d="M2266.46 1481.64 L2282.78 1481.64 L2282.78 1485.58 L2260.84 1485.58 L2260.84 1481.64 Q2263.5 1478.89 2268.09 1474.26 Q2272.69 1469.61 2273.87 1468.27 Q2276.12 1465.74 2277 1464.01 Q2277.9 1462.25 2277.9 1460.56 Q2277.9 1457.8 2275.96 1456.07 Q2274.03 1454.33 2270.93 1454.33 Q2268.73 1454.33 2266.28 1455.09 Q2263.85 1455.86 2261.07 1457.41 L2261.07 1452.69 Q2263.9 1451.55 2266.35 1450.97 Q2268.8 1450.39 2270.84 1450.39 Q2276.21 1450.39 2279.4 1453.08 Q2282.6 1455.77 2282.6 1460.26 Q2282.6 1462.39 2281.79 1464.31 Q2281 1466.2 2278.9 1468.8 Q2278.32 1469.47 2275.21 1472.69 Q2272.11 1475.88 2266.46 1481.64 Z" fill="#000000" fill-rule="nonzero" fill-opacity="1" /><path clip-path="url(#clip790)" d="M2292.6 1479.7 L2297.48 1479.7 L2297.48 1485.58 L2292.6 1485.58 L2292.6 1479.7 Z" fill="#000000" fill-rule="nonzero" fill-opacity="1" /><path clip-path="url(#clip790)" d="M2307.71 1451.02 L2326.07 1451.02 L2326.07 1454.96 L2312 1454.96 L2312 1463.43 Q2313.02 1463.08 2314.03 1462.92 Q2315.05 1462.73 2316.07 1462.73 Q2321.86 1462.73 2325.24 1465.9 Q2328.62 1469.08 2328.62 1474.49 Q2328.62 1480.07 2325.15 1483.17 Q2321.67 1486.25 2315.35 1486.25 Q2313.18 1486.25 2310.91 1485.88 Q2308.66 1485.51 2306.26 1484.77 L2306.26 1480.07 Q2308.34 1481.2 2310.56 1481.76 Q2312.78 1482.32 2315.26 1482.32 Q2319.27 1482.32 2321.6 1480.21 Q2323.94 1478.1 2323.94 1474.49 Q2323.94 1470.88 2321.6 1468.77 Q2319.27 1466.67 2315.26 1466.67 Q2313.39 1466.67 2311.51 1467.08 Q2309.66 1467.5 2307.71 1468.38 L2307.71 1451.02 Z" fill="#000000" fill-rule="nonzero" fill-opacity="1" /><path clip-path="url(#clip790)" d="M1330.98 1550.12 Q1323.88 1550.12 1321.15 1551.75 Q1318.41 1553.37 1318.41 1557.29 Q1318.41 1560.4 1320.45 1562.25 Q1322.51 1564.07 1326.05 1564.07 Q1330.92 1564.07 1333.85 1560.63 Q1336.81 1557.16 1336.81 1551.43 L1336.81 1550.12 L1330.98 1550.12 M1342.66 1547.71 L1342.66 1568.04 L1336.81 1568.04 L1336.81 1562.63 Q1334.8 1565.88 1331.81 1567.44 Q1328.82 1568.97 1324.49 1568.97 Q1319.01 1568.97 1315.77 1565.91 Q1312.55 1562.82 1312.55 1557.67 Q1312.55 1551.65 1316.56 1548.6 Q1320.6 1545.54 1328.59 1545.54 L1336.81 1545.54 L1336.81 1544.97 Q1336.81 1540.93 1334.13 1538.73 Q1331.49 1536.5 1326.68 1536.5 Q1323.63 1536.5 1320.73 1537.23 Q1317.84 1537.97 1315.16 1539.43 L1315.16 1534.02 Q1318.38 1532.78 1321.4 1532.17 Q1324.42 1531.54 1327.29 1531.54 Q1335.02 1531.54 1338.84 1535.55 Q1342.66 1539.56 1342.66 1547.71 Z" fill="#000000" fill-rule="nonzero" fill-opacity="1" /><polyline clip-path="url(#clip792)" style="stroke:#000000; stroke-linecap:round; stroke-linejoin:round; stroke-width:2; stroke-opacity:0.1; fill:none" points="302.458,1353.79 2352.76,1353.79 "/>
<polyline clip-path="url(#clip792)" style="stroke:#000000; stroke-linecap:round; stroke-linejoin:round; stroke-width:2; stroke-opacity:0.1; fill:none" points="302.458,1120.3 2352.76,1120.3 "/>
<polyline clip-path="url(#clip792)" style="stroke:#000000; stroke-linecap:round; stroke-linejoin:round; stroke-width:2; stroke-opacity:0.1; fill:none" points="302.458,886.812 2352.76,886.812 "/>
<polyline clip-path="url(#clip792)" style="stroke:#000000; stroke-linecap:round; stroke-linejoin:round; stroke-width:2; stroke-opacity:0.1; fill:none" points="302.458,653.323 2352.76,653.323 "/>
<polyline clip-path="url(#clip792)" style="stroke:#000000; stroke-linecap:round; stroke-linejoin:round; stroke-width:2; stroke-opacity:0.1; fill:none" points="302.458,419.833 2352.76,419.833 "/>
<polyline clip-path="url(#clip792)" style="stroke:#000000; stroke-linecap:round; stroke-linejoin:round; stroke-width:2; stroke-opacity:0.1; fill:none" points="302.458,186.343 2352.76,186.343 "/>
<polyline clip-path="url(#clip790)" style="stroke:#000000; stroke-linecap:round; stroke-linejoin:round; stroke-width:4; stroke-opacity:1; fill:none" points="302.458,1423.18 302.458,47.2441 "/>
<polyline clip-path="url(#clip790)" style="stroke:#000000; stroke-linecap:round; stroke-linejoin:round; stroke-width:4; stroke-opacity:1; fill:none" points="302.458,1353.79 321.356,1353.79 "/>
<polyline clip-path="url(#clip790)" style="stroke:#000000; stroke-linecap:round; stroke-linejoin:round; stroke-width:4; stroke-opacity:1; fill:none" points="302.458,1120.3 321.356,1120.3 "/>
<polyline clip-path="url(#clip790)" style="stroke:#000000; stroke-linecap:round; stroke-linejoin:round; stroke-width:4; stroke-opacity:1; fill:none" points="302.458,886.812 321.356,886.812 "/>
<polyline clip-path="url(#clip790)" style="stroke:#000000; stroke-linecap:round; stroke-linejoin:round; stroke-width:4; stroke-opacity:1; fill:none" points="302.458,653.323 321.356,653.323 "/>
<polyline clip-path="url(#clip790)" style="stroke:#000000; stroke-linecap:round; stroke-linejoin:round; stroke-width:4; stroke-opacity:1; fill:none" points="302.458,419.833 321.356,419.833 "/>
<polyline clip-path="url(#clip790)" style="stroke:#000000; stroke-linecap:round; stroke-linejoin:round; stroke-width:4; stroke-opacity:1; fill:none" points="302.458,186.343 321.356,186.343 "/>
<path clip-path="url(#clip790)" d="M114.26 1354.24 L143.936 1354.24 L143.936 1358.18 L114.26 1358.18 L114.26 1354.24 Z" fill="#000000" fill-rule="nonzero" fill-opacity="1" /><path clip-path="url(#clip790)" d="M168.195 1352.44 Q171.552 1353.16 173.427 1355.42 Q175.325 1357.69 175.325 1361.03 Q175.325 1366.14 171.806 1368.94 Q168.288 1371.74 161.806 1371.74 Q159.63 1371.74 157.315 1371.3 Q155.024 1370.89 152.57 1370.03 L152.57 1365.52 Q154.515 1366.65 156.829 1367.23 Q159.144 1367.81 161.667 1367.81 Q166.065 1367.81 168.357 1366.07 Q170.672 1364.34 170.672 1361.03 Q170.672 1357.97 168.519 1356.26 Q166.39 1354.52 162.57 1354.52 L158.542 1354.52 L158.542 1350.68 L162.755 1350.68 Q166.204 1350.68 168.033 1349.31 Q169.862 1347.92 169.862 1345.33 Q169.862 1342.67 167.964 1341.26 Q166.089 1339.82 162.57 1339.82 Q160.649 1339.82 158.45 1340.24 Q156.251 1340.66 153.612 1341.54 L153.612 1337.37 Q156.274 1336.63 158.589 1336.26 Q160.927 1335.89 162.987 1335.89 Q168.311 1335.89 171.413 1338.32 Q174.514 1340.73 174.514 1344.85 Q174.514 1347.72 172.871 1349.71 Q171.227 1351.67 168.195 1352.44 Z" fill="#000000" fill-rule="nonzero" fill-opacity="1" /><path clip-path="url(#clip790)" d="M194.19 1339.59 Q190.579 1339.59 188.75 1343.16 Q186.945 1346.7 186.945 1353.83 Q186.945 1360.93 188.75 1364.5 Q190.579 1368.04 194.19 1368.04 Q197.825 1368.04 199.63 1364.5 Q201.459 1360.93 201.459 1353.83 Q201.459 1346.7 199.63 1343.16 Q197.825 1339.59 194.19 1339.59 M194.19 1335.89 Q200 1335.89 203.056 1340.49 Q206.135 1345.08 206.135 1353.83 Q206.135 1362.55 203.056 1367.16 Q200 1371.74 194.19 1371.74 Q188.38 1371.74 185.301 1367.16 Q182.246 1362.55 182.246 1353.83 Q182.246 1345.08 185.301 1340.49 Q188.38 1335.89 194.19 1335.89 Z" fill="#000000" fill-rule="nonzero" fill-opacity="1" /><path clip-path="url(#clip790)" d="M224.352 1339.59 Q220.741 1339.59 218.912 1343.16 Q217.107 1346.7 217.107 1353.83 Q217.107 1360.93 218.912 1364.5 Q220.741 1368.04 224.352 1368.04 Q227.986 1368.04 229.792 1364.5 Q231.621 1360.93 231.621 1353.83 Q231.621 1346.7 229.792 1343.16 Q227.986 1339.59 224.352 1339.59 M224.352 1335.89 Q230.162 1335.89 233.218 1340.49 Q236.297 1345.08 236.297 1353.83 Q236.297 1362.55 233.218 1367.16 Q230.162 1371.74 224.352 1371.74 Q218.542 1371.74 215.463 1367.16 Q212.408 1362.55 212.408 1353.83 Q212.408 1345.08 215.463 1340.49 Q218.542 1335.89 224.352 1335.89 Z" fill="#000000" fill-rule="nonzero" fill-opacity="1" /><path clip-path="url(#clip790)" d="M254.514 1339.59 Q250.903 1339.59 249.074 1343.16 Q247.269 1346.7 247.269 1353.83 Q247.269 1360.93 249.074 1364.5 Q250.903 1368.04 254.514 1368.04 Q258.148 1368.04 259.954 1364.5 Q261.783 1360.93 261.783 1353.83 Q261.783 1346.7 259.954 1343.16 Q258.148 1339.59 254.514 1339.59 M254.514 1335.89 Q260.324 1335.89 263.38 1340.49 Q266.458 1345.08 266.458 1353.83 Q266.458 1362.55 263.38 1367.16 Q260.324 1371.74 254.514 1371.74 Q248.704 1371.74 245.625 1367.16 Q242.57 1362.55 242.57 1353.83 Q242.57 1345.08 245.625 1340.49 Q248.704 1335.89 254.514 1335.89 Z" fill="#000000" fill-rule="nonzero" fill-opacity="1" /><path clip-path="url(#clip790)" d="M114.26 1120.75 L143.936 1120.75 L143.936 1124.69 L114.26 1124.69 L114.26 1120.75 Z" fill="#000000" fill-rule="nonzero" fill-opacity="1" /><path clip-path="url(#clip790)" d="M158.056 1133.65 L174.376 1133.65 L174.376 1137.58 L152.431 1137.58 L152.431 1133.65 Q155.093 1130.89 159.677 1126.26 Q164.283 1121.61 165.464 1120.27 Q167.709 1117.74 168.589 1116.01 Q169.491 1114.25 169.491 1112.56 Q169.491 1109.8 167.547 1108.07 Q165.626 1106.33 162.524 1106.33 Q160.325 1106.33 157.871 1107.1 Q155.44 1107.86 152.663 1109.41 L152.663 1104.69 Q155.487 1103.55 157.94 1102.98 Q160.394 1102.4 162.431 1102.4 Q167.802 1102.4 170.996 1105.08 Q174.19 1107.77 174.19 1112.26 Q174.19 1114.39 173.38 1116.31 Q172.593 1118.21 170.487 1120.8 Q169.908 1121.47 166.806 1124.69 Q163.704 1127.88 158.056 1133.65 Z" fill="#000000" fill-rule="nonzero" fill-opacity="1" /><path clip-path="url(#clip790)" d="M184.237 1103.02 L202.593 1103.02 L202.593 1106.96 L188.519 1106.96 L188.519 1115.43 Q189.538 1115.08 190.556 1114.92 Q191.575 1114.74 192.593 1114.74 Q198.38 1114.74 201.76 1117.91 Q205.139 1121.08 205.139 1126.49 Q205.139 1132.07 201.667 1135.17 Q198.195 1138.25 191.875 1138.25 Q189.7 1138.25 187.431 1137.88 Q185.186 1137.51 182.778 1136.77 L182.778 1132.07 Q184.862 1133.21 187.084 1133.76 Q189.306 1134.32 191.783 1134.32 Q195.787 1134.32 198.125 1132.21 Q200.463 1130.11 200.463 1126.49 Q200.463 1122.88 198.125 1120.78 Q195.787 1118.67 191.783 1118.67 Q189.908 1118.67 188.033 1119.09 Q186.181 1119.5 184.237 1120.38 L184.237 1103.02 Z" fill="#000000" fill-rule="nonzero" fill-opacity="1" /><path clip-path="url(#clip790)" d="M224.352 1106.1 Q220.741 1106.1 218.912 1109.67 Q217.107 1113.21 217.107 1120.34 Q217.107 1127.44 218.912 1131.01 Q220.741 1134.55 224.352 1134.55 Q227.986 1134.55 229.792 1131.01 Q231.621 1127.44 231.621 1120.34 Q231.621 1113.21 229.792 1109.67 Q227.986 1106.1 224.352 1106.1 M224.352 1102.4 Q230.162 1102.4 233.218 1107 Q236.297 1111.59 236.297 1120.34 Q236.297 1129.06 233.218 1133.67 Q230.162 1138.25 224.352 1138.25 Q218.542 1138.25 215.463 1133.67 Q212.408 1129.06 212.408 1120.34 Q212.408 1111.59 215.463 1107 Q218.542 1102.4 224.352 1102.4 Z" fill="#000000" fill-rule="nonzero" fill-opacity="1" /><path clip-path="url(#clip790)" d="M254.514 1106.1 Q250.903 1106.1 249.074 1109.67 Q247.269 1113.21 247.269 1120.34 Q247.269 1127.44 249.074 1131.01 Q250.903 1134.55 254.514 1134.55 Q258.148 1134.55 259.954 1131.01 Q261.783 1127.44 261.783 1120.34 Q261.783 1113.21 259.954 1109.67 Q258.148 1106.1 254.514 1106.1 M254.514 1102.4 Q260.324 1102.4 263.38 1107 Q266.458 1111.59 266.458 1120.34 Q266.458 1129.06 263.38 1133.67 Q260.324 1138.25 254.514 1138.25 Q248.704 1138.25 245.625 1133.67 Q242.57 1129.06 242.57 1120.34 Q242.57 1111.59 245.625 1107 Q248.704 1102.4 254.514 1102.4 Z" fill="#000000" fill-rule="nonzero" fill-opacity="1" /><path clip-path="url(#clip790)" d="M114.26 887.264 L143.936 887.264 L143.936 891.199 L114.26 891.199 L114.26 887.264 Z" fill="#000000" fill-rule="nonzero" fill-opacity="1" /><path clip-path="url(#clip790)" d="M158.056 900.157 L174.376 900.157 L174.376 904.092 L152.431 904.092 L152.431 900.157 Q155.093 897.403 159.677 892.773 Q164.283 888.12 165.464 886.778 Q167.709 884.255 168.589 882.519 Q169.491 880.759 169.491 879.069 Q169.491 876.315 167.547 874.579 Q165.626 872.843 162.524 872.843 Q160.325 872.843 157.871 873.607 Q155.44 874.37 152.663 875.921 L152.663 871.199 Q155.487 870.065 157.94 869.486 Q160.394 868.907 162.431 868.907 Q167.802 868.907 170.996 871.593 Q174.19 874.278 174.19 878.769 Q174.19 880.898 173.38 882.819 Q172.593 884.718 170.487 887.31 Q169.908 887.981 166.806 891.199 Q163.704 894.393 158.056 900.157 Z" fill="#000000" fill-rule="nonzero" fill-opacity="1" /><path clip-path="url(#clip790)" d="M194.19 872.611 Q190.579 872.611 188.75 876.176 Q186.945 879.718 186.945 886.847 Q186.945 893.954 188.75 897.518 Q190.579 901.06 194.19 901.06 Q197.825 901.06 199.63 897.518 Q201.459 893.954 201.459 886.847 Q201.459 879.718 199.63 876.176 Q197.825 872.611 194.19 872.611 M194.19 868.907 Q200 868.907 203.056 873.514 Q206.135 878.097 206.135 886.847 Q206.135 895.574 203.056 900.18 Q200 904.764 194.19 904.764 Q188.38 904.764 185.301 900.18 Q182.246 895.574 182.246 886.847 Q182.246 878.097 185.301 873.514 Q188.38 868.907 194.19 868.907 Z" fill="#000000" fill-rule="nonzero" fill-opacity="1" /><path clip-path="url(#clip790)" d="M224.352 872.611 Q220.741 872.611 218.912 876.176 Q217.107 879.718 217.107 886.847 Q217.107 893.954 218.912 897.518 Q220.741 901.06 224.352 901.06 Q227.986 901.06 229.792 897.518 Q231.621 893.954 231.621 886.847 Q231.621 879.718 229.792 876.176 Q227.986 872.611 224.352 872.611 M224.352 868.907 Q230.162 868.907 233.218 873.514 Q236.297 878.097 236.297 886.847 Q236.297 895.574 233.218 900.18 Q230.162 904.764 224.352 904.764 Q218.542 904.764 215.463 900.18 Q212.408 895.574 212.408 886.847 Q212.408 878.097 215.463 873.514 Q218.542 868.907 224.352 868.907 Z" fill="#000000" fill-rule="nonzero" fill-opacity="1" /><path clip-path="url(#clip790)" d="M254.514 872.611 Q250.903 872.611 249.074 876.176 Q247.269 879.718 247.269 886.847 Q247.269 893.954 249.074 897.518 Q250.903 901.06 254.514 901.06 Q258.148 901.06 259.954 897.518 Q261.783 893.954 261.783 886.847 Q261.783 879.718 259.954 876.176 Q258.148 872.611 254.514 872.611 M254.514 868.907 Q260.324 868.907 263.38 873.514 Q266.458 878.097 266.458 886.847 Q266.458 895.574 263.38 900.18 Q260.324 904.764 254.514 904.764 Q248.704 904.764 245.625 900.18 Q242.57 895.574 242.57 886.847 Q242.57 878.097 245.625 873.514 Q248.704 868.907 254.514 868.907 Z" fill="#000000" fill-rule="nonzero" fill-opacity="1" /><path clip-path="url(#clip790)" d="M114.26 653.774 L143.936 653.774 L143.936 657.709 L114.26 657.709 L114.26 653.774 Z" fill="#000000" fill-rule="nonzero" fill-opacity="1" /><path clip-path="url(#clip790)" d="M154.839 666.667 L162.477 666.667 L162.477 640.302 L154.167 641.969 L154.167 637.709 L162.431 636.043 L167.107 636.043 L167.107 666.667 L174.746 666.667 L174.746 670.603 L154.839 670.603 L154.839 666.667 Z" fill="#000000" fill-rule="nonzero" fill-opacity="1" /><path clip-path="url(#clip790)" d="M184.237 636.043 L202.593 636.043 L202.593 639.978 L188.519 639.978 L188.519 648.45 Q189.538 648.103 190.556 647.941 Q191.575 647.756 192.593 647.756 Q198.38 647.756 201.76 650.927 Q205.139 654.098 205.139 659.515 Q205.139 665.093 201.667 668.195 Q198.195 671.274 191.875 671.274 Q189.7 671.274 187.431 670.904 Q185.186 670.533 182.778 669.792 L182.778 665.093 Q184.862 666.228 187.084 666.783 Q189.306 667.339 191.783 667.339 Q195.787 667.339 198.125 665.232 Q200.463 663.126 200.463 659.515 Q200.463 655.904 198.125 653.797 Q195.787 651.691 191.783 651.691 Q189.908 651.691 188.033 652.107 Q186.181 652.524 184.237 653.404 L184.237 636.043 Z" fill="#000000" fill-rule="nonzero" fill-opacity="1" /><path clip-path="url(#clip790)" d="M224.352 639.121 Q220.741 639.121 218.912 642.686 Q217.107 646.228 217.107 653.357 Q217.107 660.464 218.912 664.029 Q220.741 667.57 224.352 667.57 Q227.986 667.57 229.792 664.029 Q231.621 660.464 231.621 653.357 Q231.621 646.228 229.792 642.686 Q227.986 639.121 224.352 639.121 M224.352 635.418 Q230.162 635.418 233.218 640.024 Q236.297 644.607 236.297 653.357 Q236.297 662.084 233.218 666.691 Q230.162 671.274 224.352 671.274 Q218.542 671.274 215.463 666.691 Q212.408 662.084 212.408 653.357 Q212.408 644.607 215.463 640.024 Q218.542 635.418 224.352 635.418 Z" fill="#000000" fill-rule="nonzero" fill-opacity="1" /><path clip-path="url(#clip790)" d="M254.514 639.121 Q250.903 639.121 249.074 642.686 Q247.269 646.228 247.269 653.357 Q247.269 660.464 249.074 664.029 Q250.903 667.57 254.514 667.57 Q258.148 667.57 259.954 664.029 Q261.783 660.464 261.783 653.357 Q261.783 646.228 259.954 642.686 Q258.148 639.121 254.514 639.121 M254.514 635.418 Q260.324 635.418 263.38 640.024 Q266.458 644.607 266.458 653.357 Q266.458 662.084 263.38 666.691 Q260.324 671.274 254.514 671.274 Q248.704 671.274 245.625 666.691 Q242.57 662.084 242.57 653.357 Q242.57 644.607 245.625 640.024 Q248.704 635.418 254.514 635.418 Z" fill="#000000" fill-rule="nonzero" fill-opacity="1" /><path clip-path="url(#clip790)" d="M114.26 420.284 L143.936 420.284 L143.936 424.219 L114.26 424.219 L114.26 420.284 Z" fill="#000000" fill-rule="nonzero" fill-opacity="1" /><path clip-path="url(#clip790)" d="M154.839 433.178 L162.477 433.178 L162.477 406.812 L154.167 408.479 L154.167 404.219 L162.431 402.553 L167.107 402.553 L167.107 433.178 L174.746 433.178 L174.746 437.113 L154.839 437.113 L154.839 433.178 Z" fill="#000000" fill-rule="nonzero" fill-opacity="1" /><path clip-path="url(#clip790)" d="M194.19 405.631 Q190.579 405.631 188.75 409.196 Q186.945 412.738 186.945 419.867 Q186.945 426.974 188.75 430.539 Q190.579 434.08 194.19 434.08 Q197.825 434.08 199.63 430.539 Q201.459 426.974 201.459 419.867 Q201.459 412.738 199.63 409.196 Q197.825 405.631 194.19 405.631 M194.19 401.928 Q200 401.928 203.056 406.534 Q206.135 411.117 206.135 419.867 Q206.135 428.594 203.056 433.201 Q200 437.784 194.19 437.784 Q188.38 437.784 185.301 433.201 Q182.246 428.594 182.246 419.867 Q182.246 411.117 185.301 406.534 Q188.38 401.928 194.19 401.928 Z" fill="#000000" fill-rule="nonzero" fill-opacity="1" /><path clip-path="url(#clip790)" d="M224.352 405.631 Q220.741 405.631 218.912 409.196 Q217.107 412.738 217.107 419.867 Q217.107 426.974 218.912 430.539 Q220.741 434.08 224.352 434.08 Q227.986 434.08 229.792 430.539 Q231.621 426.974 231.621 419.867 Q231.621 412.738 229.792 409.196 Q227.986 405.631 224.352 405.631 M224.352 401.928 Q230.162 401.928 233.218 406.534 Q236.297 411.117 236.297 419.867 Q236.297 428.594 233.218 433.201 Q230.162 437.784 224.352 437.784 Q218.542 437.784 215.463 433.201 Q212.408 428.594 212.408 419.867 Q212.408 411.117 215.463 406.534 Q218.542 401.928 224.352 401.928 Z" fill="#000000" fill-rule="nonzero" fill-opacity="1" /><path clip-path="url(#clip790)" d="M254.514 405.631 Q250.903 405.631 249.074 409.196 Q247.269 412.738 247.269 419.867 Q247.269 426.974 249.074 430.539 Q250.903 434.08 254.514 434.08 Q258.148 434.08 259.954 430.539 Q261.783 426.974 261.783 419.867 Q261.783 412.738 259.954 409.196 Q258.148 405.631 254.514 405.631 M254.514 401.928 Q260.324 401.928 263.38 406.534 Q266.458 411.117 266.458 419.867 Q266.458 428.594 263.38 433.201 Q260.324 437.784 254.514 437.784 Q248.704 437.784 245.625 433.201 Q242.57 428.594 242.57 419.867 Q242.57 411.117 245.625 406.534 Q248.704 401.928 254.514 401.928 Z" fill="#000000" fill-rule="nonzero" fill-opacity="1" /><path clip-path="url(#clip790)" d="M144.422 186.794 L174.098 186.794 L174.098 190.729 L144.422 190.729 L144.422 186.794 Z" fill="#000000" fill-rule="nonzero" fill-opacity="1" /><path clip-path="url(#clip790)" d="M184.237 169.063 L202.593 169.063 L202.593 172.998 L188.519 172.998 L188.519 181.47 Q189.538 181.123 190.556 180.961 Q191.575 180.776 192.593 180.776 Q198.38 180.776 201.76 183.947 Q205.139 187.118 205.139 192.535 Q205.139 198.114 201.667 201.215 Q198.195 204.294 191.875 204.294 Q189.7 204.294 187.431 203.924 Q185.186 203.553 182.778 202.813 L182.778 198.114 Q184.862 199.248 187.084 199.803 Q189.306 200.359 191.783 200.359 Q195.787 200.359 198.125 198.253 Q200.463 196.146 200.463 192.535 Q200.463 188.924 198.125 186.817 Q195.787 184.711 191.783 184.711 Q189.908 184.711 188.033 185.128 Q186.181 185.544 184.237 186.424 L184.237 169.063 Z" fill="#000000" fill-rule="nonzero" fill-opacity="1" /><path clip-path="url(#clip790)" d="M224.352 172.142 Q220.741 172.142 218.912 175.706 Q217.107 179.248 217.107 186.378 Q217.107 193.484 218.912 197.049 Q220.741 200.59 224.352 200.59 Q227.986 200.59 229.792 197.049 Q231.621 193.484 231.621 186.378 Q231.621 179.248 229.792 175.706 Q227.986 172.142 224.352 172.142 M224.352 168.438 Q230.162 168.438 233.218 173.044 Q236.297 177.628 236.297 186.378 Q236.297 195.104 233.218 199.711 Q230.162 204.294 224.352 204.294 Q218.542 204.294 215.463 199.711 Q212.408 195.104 212.408 186.378 Q212.408 177.628 215.463 173.044 Q218.542 168.438 224.352 168.438 Z" fill="#000000" fill-rule="nonzero" fill-opacity="1" /><path clip-path="url(#clip790)" d="M254.514 172.142 Q250.903 172.142 249.074 175.706 Q247.269 179.248 247.269 186.378 Q247.269 193.484 249.074 197.049 Q250.903 200.59 254.514 200.59 Q258.148 200.59 259.954 197.049 Q261.783 193.484 261.783 186.378 Q261.783 179.248 259.954 175.706 Q258.148 172.142 254.514 172.142 M254.514 168.438 Q260.324 168.438 263.38 173.044 Q266.458 177.628 266.458 186.378 Q266.458 195.104 263.38 199.711 Q260.324 204.294 254.514 204.294 Q248.704 204.294 245.625 199.711 Q242.57 195.104 242.57 186.378 Q242.57 177.628 245.625 173.044 Q248.704 168.438 254.514 168.438 Z" fill="#000000" fill-rule="nonzero" fill-opacity="1" /><path clip-path="url(#clip790)" d="M28.3562 796.132 L28.3562 789.925 L58.275 778.785 L28.3562 767.645 L28.3562 761.439 L64.0042 774.807 L64.0042 782.764 L28.3562 796.132 Z" fill="#000000" fill-rule="nonzero" fill-opacity="1" /><path clip-path="url(#clip790)" d="M14.5426 739.286 Q21.8632 743.551 29.0246 745.62 Q36.186 747.689 43.5384 747.689 Q50.8908 747.689 58.1159 745.62 Q65.3091 743.519 72.5979 739.286 L72.5979 744.379 Q65.1182 749.153 57.8931 751.54 Q50.668 753.895 43.5384 753.895 Q36.4406 753.895 29.2474 751.54 Q22.0542 749.185 14.5426 744.379 L14.5426 739.286 Z" fill="#000000" fill-rule="nonzero" fill-opacity="1" /><path clip-path="url(#clip790)" d="M46.0847 711.723 Q46.0847 718.82 47.7079 721.558 Q49.3312 724.295 53.2461 724.295 Q56.3653 724.295 58.2114 722.258 Q60.0256 720.189 60.0256 716.656 Q60.0256 711.786 56.5881 708.858 Q53.1188 705.898 47.3897 705.898 L46.0847 705.898 L46.0847 711.723 M43.6657 700.041 L64.0042 700.041 L64.0042 705.898 L58.5933 705.898 Q61.8398 707.903 63.3994 710.895 Q64.9272 713.887 64.9272 718.216 Q64.9272 723.69 61.8716 726.937 Q58.7843 730.151 53.6281 730.151 Q47.6125 730.151 44.5569 726.141 Q41.5014 722.099 41.5014 714.11 L41.5014 705.898 L40.9285 705.898 Q36.8862 705.898 34.6901 708.571 Q32.4621 711.213 32.4621 716.019 Q32.4621 719.075 33.1941 721.971 Q33.9262 724.868 35.3903 727.541 L29.9795 727.541 Q28.7381 724.327 28.1334 721.303 Q27.4968 718.279 27.4968 715.415 Q27.4968 707.68 31.5072 703.861 Q35.5176 700.041 43.6657 700.041 Z" fill="#000000" fill-rule="nonzero" fill-opacity="1" /><path clip-path="url(#clip790)" d="M14.5426 688.901 L14.5426 683.809 Q22.0542 679.035 29.2474 676.679 Q36.4406 674.292 43.5384 674.292 Q50.668 674.292 57.8931 676.679 Q65.1182 679.035 72.5979 683.809 L72.5979 688.901 Q65.3091 684.668 58.1159 682.599 Q50.8908 680.499 43.5384 680.499 Q36.186 680.499 29.0246 682.599 Q21.8632 684.668 14.5426 688.901 Z" fill="#000000" fill-rule="nonzero" fill-opacity="1" /><polyline clip-path="url(#clip792)" style="stroke:#ff0000; stroke-linecap:round; stroke-linejoin:round; stroke-width:4; stroke-opacity:1; fill:none" points="360.486,1384.24 376.878,976.697 393.269,792.077 409.661,681.066 426.053,604.954 442.445,548.606 458.837,504.723 475.229,469.299 491.621,439.923 508.013,415.049 524.405,393.635 540.796,374.945 557.188,358.448 573.58,343.745 589.972,330.533 606.364,318.577 622.756,307.688 639.148,297.717 655.54,288.543 671.932,280.063 688.323,272.195 704.715,264.869 721.107,258.025 737.499,251.613 753.891,245.588 770.283,239.914 786.675,234.557 803.067,229.49 819.459,224.686 835.85,220.125 852.242,215.785 868.634,211.651 885.026,207.705 901.418,203.935 917.81,200.327 934.202,196.87 950.594,193.554 966.986,190.37 983.377,187.309 999.769,184.363 1016.16,181.526 1032.55,178.79 1048.95,176.15 1065.34,173.601 1081.73,171.137 1098.12,168.754 1114.51,166.447 1130.9,164.213 1147.3,162.047 1163.69,159.947 1180.08,157.908 1196.47,155.929 1212.86,154.005 1229.26,152.136 1245.65,150.317 1262.04,148.548 1278.43,146.825 1294.82,145.147 1311.22,143.512 1327.61,141.918 1344,140.363 1360.39,138.846 1376.78,137.365 1393.17,135.919 1409.57,134.506 1425.96,133.126 1442.35,131.776 1458.74,130.457 1475.13,129.166 1491.53,127.903 1507.92,126.666 1524.31,125.456 1540.7,124.27 1557.09,123.109 1573.49,121.971 1589.88,120.855 1606.27,119.762 1622.66,118.689 1639.05,117.637 1655.44,116.604 1671.84,115.591 1688.23,114.596 1704.62,113.619 1721.01,112.66 1737.4,111.718 1753.8,110.792 1770.19,109.882 1786.58,108.988 1802.97,108.109 1819.36,107.244 1835.76,106.394 1852.15,105.558 1868.54,104.735 1884.93,103.925 1901.32,103.128 1917.72,102.344 1934.11,101.572 1950.5,100.811 1966.89,100.063 1983.28,99.3251 1999.67,98.5985 2016.07,97.8826 2032.46,97.1772 2048.85,96.482 2065.24,95.7967 2081.63,95.1212 2098.03,94.4551 2114.42,93.7983 2130.81,93.1505 2147.2,92.5116 2163.59,91.8814 2179.99,91.2596 2196.38,90.6461 2212.77,90.0407 2229.16,89.4431 2245.55,88.8534 2261.94,88.2711 2278.34,87.6964 2294.73,87.1288 "/>
<polyline clip-path="url(#clip792)" style="stroke:#0000ff; stroke-linecap:round; stroke-linejoin:round; stroke-width:4; stroke-opacity:1; fill:none" points="360.486,705.706 376.878,631.415 393.269,574.338 409.661,528.889 426.053,491.689 442.445,460.57 458.837,434.072 475.229,411.18 491.621,391.158 508.013,373.464 524.405,357.688 540.796,343.512 557.188,330.686 573.58,319.013 589.972,308.332 606.364,298.512 622.756,289.445 639.148,281.04 655.54,273.221 671.932,265.925 688.323,259.096 704.715,252.686 721.107,246.656 737.499,240.969 753.891,235.595 770.283,230.505 786.675,225.676 803.067,221.087 819.459,216.719 835.85,212.554 852.242,208.578 868.634,204.776 885.026,201.137 901.418,197.649 917.81,194.302 934.202,191.089 950.594,188.002 966.986,185.034 983.377,182.176 999.769,179.422 1016.16,176.766 1032.55,174.201 1048.95,171.723 1065.34,169.326 1081.73,167.007 1098.12,164.761 1114.51,162.584 1130.9,160.473 1147.3,158.424 1163.69,156.435 1180.08,154.502 1196.47,152.623 1212.86,150.796 1229.26,149.017 1245.65,147.286 1262.04,145.599 1278.43,143.956 1294.82,142.353 1311.22,140.79 1327.61,139.265 1344,137.777 1360.39,136.323 1376.78,134.903 1393.17,133.515 1409.57,132.158 1425.96,130.831 1442.35,129.533 1458.74,128.263 1475.13,127.019 1491.53,125.802 1507.92,124.609 1524.31,123.441 1540.7,122.296 1557.09,121.175 1573.49,120.075 1589.88,118.997 1606.27,117.939 1622.66,116.901 1639.05,115.883 1655.44,114.884 1671.84,113.903 1688.23,112.939 1704.62,111.993 1721.01,111.063 1737.4,110.149 1753.8,109.251 1770.19,108.368 1786.58,107.5 1802.97,106.646 1819.36,105.806 1835.76,104.98 1852.15,104.167 1868.54,103.367 1884.93,102.58 1901.32,101.805 1917.72,101.041 1934.11,100.289 1950.5,99.5488 1966.89,98.8193 1983.28,98.1005 1999.67,97.3922 2016.07,96.6942 2032.46,96.0061 2048.85,95.3277 2065.24,94.6589 2081.63,93.9994 2098.03,93.3489 2114.42,92.7073 2130.81,92.0744 2147.2,91.45 2163.59,90.8341 2179.99,90.2263 2196.38,89.6264 2212.77,89.0344 2229.16,88.45 2245.55,87.8731 2261.94,87.3035 2278.34,86.7411 2294.73,86.1857 "/>
<path clip-path="url(#clip790)" d="M1760.7 1377.32 L2284.41 1377.32 L2284.41 1221.8 L1760.7 1221.8  Z" fill="#ffffff" fill-rule="evenodd" fill-opacity="1"/>
<polyline clip-path="url(#clip790)" style="stroke:#000000; stroke-linecap:round; stroke-linejoin:round; stroke-width:4; stroke-opacity:1; fill:none" points="1760.7,1377.32 2284.41,1377.32 2284.41,1221.8 1760.7,1221.8 1760.7,1377.32 "/>
<polyline clip-path="url(#clip790)" style="stroke:#ff0000; stroke-linecap:round; stroke-linejoin:round; stroke-width:4; stroke-opacity:1; fill:none" points="1783.49,1273.64 1920.17,1273.64 "/>
<path clip-path="url(#clip790)" d="M1956.36 1277.88 Q1951.19 1277.88 1949.2 1279.06 Q1947.21 1280.24 1947.21 1283.09 Q1947.21 1285.36 1948.69 1286.7 Q1950.2 1288.02 1952.77 1288.02 Q1956.31 1288.02 1958.44 1285.52 Q1960.59 1283 1960.59 1278.83 L1960.59 1277.88 L1956.36 1277.88 M1964.85 1276.12 L1964.85 1290.92 L1960.59 1290.92 L1960.59 1286.98 Q1959.13 1289.34 1956.96 1290.48 Q1954.78 1291.59 1951.63 1291.59 Q1947.65 1291.59 1945.29 1289.36 Q1942.95 1287.12 1942.95 1283.37 Q1942.95 1278.99 1945.87 1276.77 Q1948.81 1274.55 1954.62 1274.55 L1960.59 1274.55 L1960.59 1274.13 Q1960.59 1271.19 1958.65 1269.6 Q1956.73 1267.98 1953.23 1267.98 Q1951.01 1267.98 1948.9 1268.51 Q1946.8 1269.04 1944.85 1270.11 L1944.85 1266.17 Q1947.19 1265.27 1949.39 1264.83 Q1951.59 1264.36 1953.67 1264.36 Q1959.3 1264.36 1962.07 1267.28 Q1964.85 1270.2 1964.85 1276.12 Z" fill="#000000" fill-rule="nonzero" fill-opacity="1" /><path clip-path="url(#clip790)" d="M1995.17 1275.27 L1995.17 1290.92 L1990.92 1290.92 L1990.92 1275.41 Q1990.92 1271.73 1989.48 1269.9 Q1988.05 1268.07 1985.17 1268.07 Q1981.73 1268.07 1979.73 1270.27 Q1977.74 1272.47 1977.74 1276.26 L1977.74 1290.92 L1973.46 1290.92 L1973.46 1264.99 L1977.74 1264.99 L1977.74 1269.02 Q1979.27 1266.68 1981.33 1265.52 Q1983.42 1264.36 1986.12 1264.36 Q1990.59 1264.36 1992.88 1267.14 Q1995.17 1269.9 1995.17 1275.27 Z" fill="#000000" fill-rule="nonzero" fill-opacity="1" /><path clip-path="url(#clip790)" d="M2015.45 1277.88 Q2010.29 1277.88 2008.3 1279.06 Q2006.31 1280.24 2006.31 1283.09 Q2006.31 1285.36 2007.79 1286.7 Q2009.29 1288.02 2011.86 1288.02 Q2015.41 1288.02 2017.54 1285.52 Q2019.69 1283 2019.69 1278.83 L2019.69 1277.88 L2015.45 1277.88 M2023.95 1276.12 L2023.95 1290.92 L2019.69 1290.92 L2019.69 1286.98 Q2018.23 1289.34 2016.05 1290.48 Q2013.88 1291.59 2010.73 1291.59 Q2006.75 1291.59 2004.39 1289.36 Q2002.05 1287.12 2002.05 1283.37 Q2002.05 1278.99 2004.97 1276.77 Q2007.91 1274.55 2013.72 1274.55 L2019.69 1274.55 L2019.69 1274.13 Q2019.69 1271.19 2017.74 1269.6 Q2015.82 1267.98 2012.33 1267.98 Q2010.11 1267.98 2008 1268.51 Q2005.89 1269.04 2003.95 1270.11 L2003.95 1266.17 Q2006.29 1265.27 2008.48 1264.83 Q2010.68 1264.36 2012.77 1264.36 Q2018.39 1264.36 2021.17 1267.28 Q2023.95 1270.2 2023.95 1276.12 Z" fill="#000000" fill-rule="nonzero" fill-opacity="1" /><path clip-path="url(#clip790)" d="M2032.72 1254.9 L2036.98 1254.9 L2036.98 1290.92 L2032.72 1290.92 L2032.72 1254.9 Z" fill="#000000" fill-rule="nonzero" fill-opacity="1" /><path clip-path="url(#clip790)" d="M2056.68 1293.32 Q2054.87 1297.95 2053.16 1299.36 Q2051.45 1300.78 2048.58 1300.78 L2045.17 1300.78 L2045.17 1297.21 L2047.67 1297.21 Q2049.43 1297.21 2050.41 1296.38 Q2051.38 1295.54 2052.56 1292.44 L2053.32 1290.5 L2042.84 1264.99 L2047.35 1264.99 L2055.45 1285.27 L2063.55 1264.99 L2068.07 1264.99 L2056.68 1293.32 Z" fill="#000000" fill-rule="nonzero" fill-opacity="1" /><path clip-path="url(#clip790)" d="M2078.16 1257.63 L2078.16 1264.99 L2086.93 1264.99 L2086.93 1268.3 L2078.16 1268.3 L2078.16 1282.37 Q2078.16 1285.54 2079.02 1286.45 Q2079.9 1287.35 2082.56 1287.35 L2086.93 1287.35 L2086.93 1290.92 L2082.56 1290.92 Q2077.63 1290.92 2075.75 1289.09 Q2073.88 1287.23 2073.88 1282.37 L2073.88 1268.3 L2070.75 1268.3 L2070.75 1264.99 L2073.88 1264.99 L2073.88 1257.63 L2078.16 1257.63 Z" fill="#000000" fill-rule="nonzero" fill-opacity="1" /><path clip-path="url(#clip790)" d="M2092.54 1264.99 L2096.79 1264.99 L2096.79 1290.92 L2092.54 1290.92 L2092.54 1264.99 M2092.54 1254.9 L2096.79 1254.9 L2096.79 1260.29 L2092.54 1260.29 L2092.54 1254.9 Z" fill="#000000" fill-rule="nonzero" fill-opacity="1" /><path clip-path="url(#clip790)" d="M2124.36 1265.98 L2124.36 1269.97 Q2122.56 1268.97 2120.73 1268.48 Q2118.92 1267.98 2117.07 1267.98 Q2112.93 1267.98 2110.64 1270.61 Q2108.35 1273.23 2108.35 1277.98 Q2108.35 1282.72 2110.64 1285.36 Q2112.93 1287.98 2117.07 1287.98 Q2118.92 1287.98 2120.73 1287.49 Q2122.56 1286.98 2124.36 1285.98 L2124.36 1289.92 Q2122.58 1290.75 2120.66 1291.17 Q2118.76 1291.59 2116.61 1291.59 Q2110.75 1291.59 2107.3 1287.91 Q2103.85 1284.23 2103.85 1277.98 Q2103.85 1271.63 2107.33 1268 Q2110.82 1264.36 2116.89 1264.36 Q2118.85 1264.36 2120.73 1264.78 Q2122.6 1265.17 2124.36 1265.98 Z" fill="#000000" fill-rule="nonzero" fill-opacity="1" /><path clip-path="url(#clip790)" d="M2143.55 1277.88 Q2138.39 1277.88 2136.4 1279.06 Q2134.41 1280.24 2134.41 1283.09 Q2134.41 1285.36 2135.89 1286.7 Q2137.4 1288.02 2139.97 1288.02 Q2143.51 1288.02 2145.64 1285.52 Q2147.79 1283 2147.79 1278.83 L2147.79 1277.88 L2143.55 1277.88 M2152.05 1276.12 L2152.05 1290.92 L2147.79 1290.92 L2147.79 1286.98 Q2146.33 1289.34 2144.16 1290.48 Q2141.98 1291.59 2138.83 1291.59 Q2134.85 1291.59 2132.49 1289.36 Q2130.15 1287.12 2130.15 1283.37 Q2130.15 1278.99 2133.07 1276.77 Q2136.01 1274.55 2141.82 1274.55 L2147.79 1274.55 L2147.79 1274.13 Q2147.79 1271.19 2145.85 1269.6 Q2143.92 1267.98 2140.43 1267.98 Q2138.21 1267.98 2136.1 1268.51 Q2133.99 1269.04 2132.05 1270.11 L2132.05 1266.17 Q2134.39 1265.27 2136.59 1264.83 Q2138.79 1264.36 2140.87 1264.36 Q2146.49 1264.36 2149.27 1267.28 Q2152.05 1270.2 2152.05 1276.12 Z" fill="#000000" fill-rule="nonzero" fill-opacity="1" /><path clip-path="url(#clip790)" d="M2160.82 1254.9 L2165.08 1254.9 L2165.08 1290.92 L2160.82 1290.92 L2160.82 1254.9 Z" fill="#000000" fill-rule="nonzero" fill-opacity="1" /><polyline clip-path="url(#clip790)" style="stroke:#0000ff; stroke-linecap:round; stroke-linejoin:round; stroke-width:4; stroke-opacity:1; fill:none" points="1783.49,1325.48 1920.17,1325.48 "/>
<path clip-path="url(#clip790)" d="M1954.85 1319.82 Q1951.42 1319.82 1949.43 1322.5 Q1947.44 1325.16 1947.44 1329.82 Q1947.44 1334.47 1949.41 1337.15 Q1951.4 1339.82 1954.85 1339.82 Q1958.25 1339.82 1960.24 1337.13 Q1962.24 1334.45 1962.24 1329.82 Q1962.24 1325.21 1960.24 1322.52 Q1958.25 1319.82 1954.85 1319.82 M1954.85 1316.2 Q1960.41 1316.2 1963.58 1319.82 Q1966.75 1323.43 1966.75 1329.82 Q1966.75 1336.18 1963.58 1339.82 Q1960.41 1343.43 1954.85 1343.43 Q1949.27 1343.43 1946.1 1339.82 Q1942.95 1336.18 1942.95 1329.82 Q1942.95 1323.43 1946.1 1319.82 Q1949.27 1316.2 1954.85 1316.2 Z" fill="#000000" fill-rule="nonzero" fill-opacity="1" /><path clip-path="url(#clip790)" d="M1977.93 1338.87 L1977.93 1352.62 L1973.65 1352.62 L1973.65 1316.83 L1977.93 1316.83 L1977.93 1320.76 Q1979.27 1318.45 1981.31 1317.34 Q1983.37 1316.2 1986.22 1316.2 Q1990.94 1316.2 1993.88 1319.95 Q1996.84 1323.7 1996.84 1329.82 Q1996.84 1335.93 1993.88 1339.68 Q1990.94 1343.43 1986.22 1343.43 Q1983.37 1343.43 1981.31 1342.32 Q1979.27 1341.18 1977.93 1338.87 M1992.42 1329.82 Q1992.42 1325.12 1990.48 1322.45 Q1988.55 1319.77 1985.17 1319.77 Q1981.8 1319.77 1979.85 1322.45 Q1977.93 1325.12 1977.93 1329.82 Q1977.93 1334.51 1979.85 1337.2 Q1981.8 1339.86 1985.17 1339.86 Q1988.55 1339.86 1990.48 1337.2 Q1992.42 1334.51 1992.42 1329.82 Z" fill="#000000" fill-rule="nonzero" fill-opacity="1" /><path clip-path="url(#clip790)" d="M2008.11 1309.47 L2008.11 1316.83 L2016.89 1316.83 L2016.89 1320.14 L2008.11 1320.14 L2008.11 1334.21 Q2008.11 1337.38 2008.97 1338.29 Q2009.85 1339.19 2012.51 1339.19 L2016.89 1339.19 L2016.89 1342.76 L2012.51 1342.76 Q2007.58 1342.76 2005.71 1340.93 Q2003.83 1339.07 2003.83 1334.21 L2003.83 1320.14 L2000.71 1320.14 L2000.71 1316.83 L2003.83 1316.83 L2003.83 1309.47 L2008.11 1309.47 Z" fill="#000000" fill-rule="nonzero" fill-opacity="1" /><path clip-path="url(#clip790)" d="M2022.49 1316.83 L2026.75 1316.83 L2026.75 1342.76 L2022.49 1342.76 L2022.49 1316.83 M2022.49 1306.74 L2026.75 1306.74 L2026.75 1312.13 L2022.49 1312.13 L2022.49 1306.74 Z" fill="#000000" fill-rule="nonzero" fill-opacity="1" /><path clip-path="url(#clip790)" d="M2055.85 1321.81 Q2057.44 1318.94 2059.67 1317.57 Q2061.89 1316.2 2064.9 1316.2 Q2068.95 1316.2 2071.15 1319.05 Q2073.35 1321.88 2073.35 1327.11 L2073.35 1342.76 L2069.06 1342.76 L2069.06 1327.25 Q2069.06 1323.52 2067.74 1321.71 Q2066.42 1319.91 2063.72 1319.91 Q2060.41 1319.91 2058.48 1322.11 Q2056.56 1324.31 2056.56 1328.1 L2056.56 1342.76 L2052.28 1342.76 L2052.28 1327.25 Q2052.28 1323.5 2050.96 1321.71 Q2049.64 1319.91 2046.89 1319.91 Q2043.62 1319.91 2041.7 1322.13 Q2039.78 1324.33 2039.78 1328.1 L2039.78 1342.76 L2035.5 1342.76 L2035.5 1316.83 L2039.78 1316.83 L2039.78 1320.86 Q2041.24 1318.47 2043.28 1317.34 Q2045.31 1316.2 2048.11 1316.2 Q2050.94 1316.2 2052.91 1317.64 Q2054.9 1319.07 2055.85 1321.81 Z" fill="#000000" fill-rule="nonzero" fill-opacity="1" /><path clip-path="url(#clip790)" d="M2093.62 1329.72 Q2088.46 1329.72 2086.47 1330.9 Q2084.48 1332.08 2084.48 1334.93 Q2084.48 1337.2 2085.96 1338.54 Q2087.47 1339.86 2090.04 1339.86 Q2093.58 1339.86 2095.71 1337.36 Q2097.86 1334.84 2097.86 1330.67 L2097.86 1329.72 L2093.62 1329.72 M2102.12 1327.96 L2102.12 1342.76 L2097.86 1342.76 L2097.86 1338.82 Q2096.4 1341.18 2094.23 1342.32 Q2092.05 1343.43 2088.9 1343.43 Q2084.92 1343.43 2082.56 1341.2 Q2080.22 1338.96 2080.22 1335.21 Q2080.22 1330.83 2083.14 1328.61 Q2086.08 1326.39 2091.89 1326.39 L2097.86 1326.39 L2097.86 1325.97 Q2097.86 1323.03 2095.91 1321.44 Q2093.99 1319.82 2090.5 1319.82 Q2088.28 1319.82 2086.17 1320.35 Q2084.06 1320.88 2082.12 1321.95 L2082.12 1318.01 Q2084.46 1317.11 2086.66 1316.67 Q2088.85 1316.2 2090.94 1316.2 Q2096.56 1316.2 2099.34 1319.12 Q2102.12 1322.04 2102.12 1327.96 Z" fill="#000000" fill-rule="nonzero" fill-opacity="1" /><path clip-path="url(#clip790)" d="M2110.89 1306.74 L2115.15 1306.74 L2115.15 1342.76 L2110.89 1342.76 L2110.89 1306.74 Z" fill="#000000" fill-rule="nonzero" fill-opacity="1" /><path clip-path="url(#clip790)" d="M2136.08 1316.83 L2140.59 1316.83 L2148.69 1338.59 L2156.79 1316.83 L2161.31 1316.83 L2151.59 1342.76 L2145.8 1342.76 L2136.08 1316.83 Z" fill="#000000" fill-rule="nonzero" fill-opacity="1" /><path clip-path="url(#clip790)" d="M2178.97 1329.72 Q2173.81 1329.72 2171.82 1330.9 Q2169.83 1332.08 2169.83 1334.93 Q2169.83 1337.2 2171.31 1338.54 Q2172.81 1339.86 2175.38 1339.86 Q2178.92 1339.86 2181.05 1337.36 Q2183.21 1334.84 2183.21 1330.67 L2183.21 1329.72 L2178.97 1329.72 M2187.47 1327.96 L2187.47 1342.76 L2183.21 1342.76 L2183.21 1338.82 Q2181.75 1341.18 2179.57 1342.32 Q2177.4 1343.43 2174.25 1343.43 Q2170.27 1343.43 2167.91 1341.2 Q2165.57 1338.96 2165.57 1335.21 Q2165.57 1330.83 2168.48 1328.61 Q2171.42 1326.39 2177.23 1326.39 L2183.21 1326.39 L2183.21 1325.97 Q2183.21 1323.03 2181.26 1321.44 Q2179.34 1319.82 2175.84 1319.82 Q2173.62 1319.82 2171.52 1320.35 Q2169.41 1320.88 2167.47 1321.95 L2167.47 1318.01 Q2169.8 1317.11 2172 1316.67 Q2174.2 1316.2 2176.28 1316.2 Q2181.91 1316.2 2184.69 1319.12 Q2187.47 1322.04 2187.47 1327.96 Z" fill="#000000" fill-rule="nonzero" fill-opacity="1" /><path clip-path="url(#clip790)" d="M2196.24 1306.74 L2200.5 1306.74 L2200.5 1342.76 L2196.24 1342.76 L2196.24 1306.74 Z" fill="#000000" fill-rule="nonzero" fill-opacity="1" /><path clip-path="url(#clip790)" d="M2208.97 1332.52 L2208.97 1316.83 L2213.23 1316.83 L2213.23 1332.36 Q2213.23 1336.04 2214.66 1337.89 Q2216.1 1339.72 2218.97 1339.72 Q2222.42 1339.72 2224.41 1337.52 Q2226.42 1335.32 2226.42 1331.53 L2226.42 1316.83 L2230.68 1316.83 L2230.68 1342.76 L2226.42 1342.76 L2226.42 1338.77 Q2224.87 1341.13 2222.81 1342.29 Q2220.78 1343.43 2218.07 1343.43 Q2213.6 1343.43 2211.28 1340.65 Q2208.97 1337.87 2208.97 1332.52 M2219.69 1316.2 L2219.69 1316.2 Z" fill="#000000" fill-rule="nonzero" fill-opacity="1" /><path clip-path="url(#clip790)" d="M2261.63 1328.73 L2261.63 1330.81 L2242.05 1330.81 Q2242.33 1335.21 2244.69 1337.52 Q2247.07 1339.82 2251.31 1339.82 Q2253.76 1339.82 2256.05 1339.21 Q2258.37 1338.61 2260.64 1337.41 L2260.64 1341.44 Q2258.34 1342.41 2255.94 1342.92 Q2253.53 1343.43 2251.05 1343.43 Q2244.85 1343.43 2241.22 1339.82 Q2237.6 1336.2 2237.6 1330.05 Q2237.6 1323.68 2241.03 1319.95 Q2244.48 1316.2 2250.31 1316.2 Q2255.54 1316.2 2258.58 1319.58 Q2261.63 1322.94 2261.63 1328.73 M2257.37 1327.48 Q2257.33 1323.98 2255.4 1321.9 Q2253.51 1319.82 2250.36 1319.82 Q2246.79 1319.82 2244.64 1321.83 Q2242.51 1323.84 2242.19 1327.5 L2257.37 1327.48 Z" fill="#000000" fill-rule="nonzero" fill-opacity="1" /></svg>