<?xml version="1.0" encoding="utf-8"?>
<svg xmlns="http://www.w3.org/2000/svg" xmlns:xlink="http://www.w3.org/1999/xlink" width="800" height="400" viewBox="0 0 3200 1600">
<defs>
  <clipPath id="clip820">
    <rect x="0" y="0" width="3200" height="1600"/>
  </clipPath>
</defs>
<path clip-path="url(#clip820)" d="M0 1600 L3200 1600 L3200 0 L0 0  Z" fill="#ffffff" fill-rule="evenodd" fill-opacity="1"/>
<defs>
  <clipPath id="clip821">
    <rect x="640" y="0" width="2241" height="1600"/>
  </clipPath>
</defs>
<path clip-path="url(#clip820)" d="M222.515 1495.09 L1567.92 1495.09 L1567.92 47.2441 L222.515 47.2441  Z" fill="#ffffff" fill-rule="evenodd" fill-opacity="1"/>
<defs>
  <clipPath id="clip822">
    <rect x="222" y="47" width="1346" height="1449"/>
  </clipPath>
</defs>
<polyline clip-path="url(#clip822)" style="stroke:#000000; stroke-linecap:round; stroke-linejoin:round; stroke-width:2; stroke-opacity:0.1; fill:none" points="247.9,1495.09 247.9,47.2441 "/>
<polyline clip-path="url(#clip822)" style="stroke:#000000; stroke-linecap:round; stroke-linejoin:round; stroke-width:2; stroke-opacity:0.1; fill:none" points="565.212,1495.09 565.212,47.2441 "/>
<polyline clip-path="url(#clip822)" style="stroke:#000000; stroke-linecap:round; stroke-linejoin:round; stroke-width:2; stroke-opacity:0.1; fill:none" points="882.524,1495.09 882.524,47.2441 "/>
<polyline clip-path="url(#clip822)" style="stroke:#000000; stroke-linecap:round; stroke-linejoin:round; stroke-width:2; stroke-opacity:0.1; fill:none" points="1199.84,1495.09 1199.84,47.2441 "/>
<polyline clip-path="url(#clip822)" style="stroke:#000000; stroke-linecap:round; stroke-linejoin:round; stroke-width:2; stroke-opacity:0.1; fill:none" points="1517.15,1495.09 1517.15,47.2441 "/>
<polyline clip-path="url(#clip820)" style="stroke:#000000; stroke-linecap:round; stroke-linejoin:round; stroke-width:4; stroke-opacity:1; fill:none" points="222.515,1495.09 1567.92,1495.09 "/>
<polyline clip-path="url(#clip820)" style="stroke:#000000; stroke-linecap:round; stroke-linejoin:round; stroke-width:4; stroke-opacity:1; fill:none" points="247.9,1495.09 247.9,1476.19 "/>
<polyline clip-path="url(#clip820)" style="stroke:#000000; stroke-linecap:round; stroke-linejoin:round; stroke-width:4; stroke-opacity:1; fill:none" points="565.212,1495.09 565.212,1476.19 "/>
<polyline clip-path="url(#clip820)" style="stroke:#000000; stroke-linecap:round; stroke-linejoin:round; stroke-width:4; stroke-opacity:1; fill:none" points="882.524,1495.09 882.524,1476.19 "/>
<polyline clip-path="url(#clip820)" style="stroke:#000000; stroke-linecap:round; stroke-linejoin:round; stroke-width:4; stroke-opacity:1; fill:none" points="1199.84,1495.09 1199.84,1476.19 "/>
<polyline clip-path="url(#clip820)" style="stroke:#000000; stroke-linecap:round; stroke-linejoin:round; stroke-width:4; stroke-opacity:1; fill:none" points="1517.15,1495.09 1517.15,1476.19 "/>
<path clip-path="url(#clip820)" d="M247.9 1532.41 Q244.288 1532.41 242.46 1535.97 Q240.654 1539.51 240.654 1546.64 Q240.654 1553.75 242.46 1557.31 Q244.288 1560.86 247.9 1560.86 Q251.534 1560.86 253.339 1557.31 Q255.168 1553.75 255.168 1546.64 Q255.168 1539.51 253.339 1535.97 Q251.534 1532.41 247.9 1532.41 M247.9 1528.7 Q253.71 1528.7 256.765 1533.31 Q259.844 1537.89 259.844 1546.64 Q259.844 1555.37 256.765 1559.98 Q253.71 1564.56 247.9 1564.56 Q242.089 1564.56 239.011 1559.98 Q235.955 1555.37 235.955 1546.64 Q235.955 1537.89 239.011 1533.31 Q242.089 1528.7 247.9 1528.7 Z" fill="#000000" fill-rule="nonzero" fill-opacity="1" /><path clip-path="url(#clip820)" d="M544.483 1559.95 L560.802 1559.95 L560.802 1563.89 L538.858 1563.89 L538.858 1559.95 Q541.52 1557.2 546.103 1552.57 Q550.709 1547.92 551.89 1546.57 Q554.135 1544.05 555.015 1542.31 Q555.918 1540.55 555.918 1538.86 Q555.918 1536.11 553.973 1534.37 Q552.052 1532.64 548.95 1532.64 Q546.751 1532.64 544.297 1533.4 Q541.867 1534.17 539.089 1535.72 L539.089 1530.99 Q541.913 1529.86 544.367 1529.28 Q546.821 1528.7 548.858 1528.7 Q554.228 1528.7 557.422 1531.39 Q560.617 1534.07 560.617 1538.56 Q560.617 1540.69 559.807 1542.61 Q559.02 1544.51 556.913 1547.11 Q556.334 1547.78 553.233 1550.99 Q550.131 1554.19 544.483 1559.95 Z" fill="#000000" fill-rule="nonzero" fill-opacity="1" /><path clip-path="url(#clip820)" d="M570.663 1529.33 L589.019 1529.33 L589.019 1533.26 L574.945 1533.26 L574.945 1541.74 Q575.964 1541.39 576.982 1541.23 Q578.001 1541.04 579.019 1541.04 Q584.806 1541.04 588.186 1544.21 Q591.566 1547.38 591.566 1552.8 Q591.566 1558.38 588.093 1561.48 Q584.621 1564.56 578.302 1564.56 Q576.126 1564.56 573.857 1564.19 Q571.612 1563.82 569.205 1563.08 L569.205 1558.38 Q571.288 1559.51 573.51 1560.07 Q575.732 1560.62 578.209 1560.62 Q582.214 1560.62 584.552 1558.52 Q586.89 1556.41 586.89 1552.8 Q586.89 1549.19 584.552 1547.08 Q582.214 1544.98 578.209 1544.98 Q576.334 1544.98 574.459 1545.39 Q572.607 1545.81 570.663 1546.69 L570.663 1529.33 Z" fill="#000000" fill-rule="nonzero" fill-opacity="1" /><path clip-path="url(#clip820)" d="M857.223 1529.33 L875.579 1529.33 L875.579 1533.26 L861.505 1533.26 L861.505 1541.74 Q862.524 1541.39 863.542 1541.23 Q864.561 1541.04 865.579 1541.04 Q871.366 1541.04 874.746 1544.21 Q878.126 1547.38 878.126 1552.8 Q878.126 1558.38 874.653 1561.48 Q871.181 1564.56 864.862 1564.56 Q862.686 1564.56 860.417 1564.19 Q858.172 1563.82 855.765 1563.08 L855.765 1558.38 Q857.848 1559.51 860.07 1560.07 Q862.292 1560.62 864.769 1560.62 Q868.774 1560.62 871.112 1558.52 Q873.45 1556.41 873.45 1552.8 Q873.45 1549.19 871.112 1547.08 Q868.774 1544.98 864.769 1544.98 Q862.894 1544.98 861.019 1545.39 Q859.167 1545.81 857.223 1546.69 L857.223 1529.33 Z" fill="#000000" fill-rule="nonzero" fill-opacity="1" /><path clip-path="url(#clip820)" d="M897.338 1532.41 Q893.727 1532.41 891.899 1535.97 Q890.093 1539.51 890.093 1546.64 Q890.093 1553.75 891.899 1557.31 Q893.727 1560.86 897.338 1560.86 Q900.973 1560.86 902.778 1557.31 Q904.607 1553.75 904.607 1546.64 Q904.607 1539.51 902.778 1535.97 Q900.973 1532.41 897.338 1532.41 M897.338 1528.7 Q903.149 1528.7 906.204 1533.31 Q909.283 1537.89 909.283 1546.64 Q909.283 1555.37 906.204 1559.98 Q903.149 1564.56 897.338 1564.56 Q891.528 1564.56 888.45 1559.98 Q885.394 1555.37 885.394 1546.64 Q885.394 1537.89 888.45 1533.31 Q891.528 1528.7 897.338 1528.7 Z" fill="#000000" fill-rule="nonzero" fill-opacity="1" /><path clip-path="url(#clip820)" d="M1173.69 1529.33 L1195.91 1529.33 L1195.91 1531.32 L1183.37 1563.89 L1178.48 1563.89 L1190.29 1533.26 L1173.69 1533.26 L1173.69 1529.33 Z" fill="#000000" fill-rule="nonzero" fill-opacity="1" /><path clip-path="url(#clip820)" d="M1205.08 1529.33 L1223.44 1529.33 L1223.44 1533.26 L1209.36 1533.26 L1209.36 1541.74 Q1210.38 1541.39 1211.4 1541.23 Q1212.42 1541.04 1213.44 1541.04 Q1219.22 1541.04 1222.6 1544.21 Q1225.98 1547.38 1225.98 1552.8 Q1225.98 1558.38 1222.51 1561.48 Q1219.04 1564.56 1212.72 1564.56 Q1210.54 1564.56 1208.27 1564.19 Q1206.03 1563.82 1203.62 1563.08 L1203.62 1558.38 Q1205.7 1559.51 1207.93 1560.07 Q1210.15 1560.62 1212.63 1560.62 Q1216.63 1560.62 1218.97 1558.52 Q1221.31 1556.41 1221.31 1552.8 Q1221.31 1549.19 1218.97 1547.08 Q1216.63 1544.98 1212.63 1544.98 Q1210.75 1544.98 1208.88 1545.39 Q1207.02 1545.81 1205.08 1546.69 L1205.08 1529.33 Z" fill="#000000" fill-rule="nonzero" fill-opacity="1" /><path clip-path="url(#clip820)" d="M1476.75 1559.95 L1484.39 1559.95 L1484.39 1533.59 L1476.08 1535.25 L1476.08 1530.99 L1484.35 1529.33 L1489.02 1529.33 L1489.02 1559.95 L1496.66 1559.95 L1496.66 1563.89 L1476.75 1563.89 L1476.75 1559.95 Z" fill="#000000" fill-rule="nonzero" fill-opacity="1" /><path clip-path="url(#clip820)" d="M1516.11 1532.41 Q1512.5 1532.41 1510.67 1535.97 Q1508.86 1539.51 1508.86 1546.64 Q1508.86 1553.75 1510.67 1557.31 Q1512.5 1560.86 1516.11 1560.86 Q1519.74 1560.86 1521.55 1557.31 Q1523.37 1553.75 1523.37 1546.64 Q1523.37 1539.51 1521.55 1535.97 Q1519.74 1532.41 1516.11 1532.41 M1516.11 1528.7 Q1521.92 1528.7 1524.97 1533.31 Q1528.05 1537.89 1528.05 1546.64 Q1528.05 1555.37 1524.97 1559.98 Q1521.92 1564.56 1516.11 1564.56 Q1510.3 1564.56 1507.22 1559.98 Q1504.16 1555.37 1504.16 1546.64 Q1504.16 1537.89 1507.22 1533.31 Q1510.3 1528.7 1516.11 1528.7 Z" fill="#000000" fill-rule="nonzero" fill-opacity="1" /><path clip-path="url(#clip820)" d="M1546.27 1532.41 Q1542.66 1532.41 1540.83 1535.97 Q1539.02 1539.51 1539.02 1546.64 Q1539.02 1553.75 1540.83 1557.31 Q1542.66 1560.86 1546.27 1560.86 Q1549.9 1560.86 1551.71 1557.31 Q1553.54 1553.75 1553.54 1546.64 Q1553.54 1539.51 1551.71 1535.97 Q1549.9 1532.41 1546.27 1532.41 M1546.27 1528.7 Q1552.08 1528.7 1555.13 1533.31 Q1558.21 1537.89 1558.21 1546.64 Q1558.21 1555.37 1555.13 1559.98 Q1552.08 1564.56 1546.27 1564.56 Q1540.46 1564.56 1537.38 1559.98 Q1534.32 1555.37 1534.32 1546.64 Q1534.32 1537.89 1537.38 1533.31 Q1540.46 1528.7 1546.27 1528.7 Z" fill="#000000" fill-rule="nonzero" fill-opacity="1" /><polyline clip-path="url(#clip822)" style="stroke:#000000; stroke-linecap:round; stroke-linejoin:round; stroke-width:2; stroke-opacity:0.1; fill:none" points="222.515,1280.21 1567.92,1280.21 "/>
<polyline clip-path="url(#clip822)" style="stroke:#000000; stroke-linecap:round; stroke-linejoin:round; stroke-width:2; stroke-opacity:0.1; fill:none" points="222.515,1044.35 1567.92,1044.35 "/>
<polyline clip-path="url(#clip822)" style="stroke:#000000; stroke-linecap:round; stroke-linejoin:round; stroke-width:2; stroke-opacity:0.1; fill:none" points="222.515,808.489 1567.92,808.489 "/>
<polyline clip-path="url(#clip822)" style="stroke:#000000; stroke-linecap:round; stroke-linejoin:round; stroke-width:2; stroke-opacity:0.1; fill:none" points="222.515,572.628 1567.92,572.628 "/>
<polyline clip-path="url(#clip822)" style="stroke:#000000; stroke-linecap:round; stroke-linejoin:round; stroke-width:2; stroke-opacity:0.1; fill:none" points="222.515,336.766 1567.92,336.766 "/>
<polyline clip-path="url(#clip822)" style="stroke:#000000; stroke-linecap:round; stroke-linejoin:round; stroke-width:2; stroke-opacity:0.1; fill:none" points="222.515,100.905 1567.92,100.905 "/>
<polyline clip-path="url(#clip820)" style="stroke:#000000; stroke-linecap:round; stroke-linejoin:round; stroke-width:4; stroke-opacity:1; fill:none" points="222.515,1495.09 222.515,47.2441 "/>
<polyline clip-path="url(#clip820)" style="stroke:#000000; stroke-linecap:round; stroke-linejoin:round; stroke-width:4; stroke-opacity:1; fill:none" points="222.515,1280.21 241.412,1280.21 "/>
<polyline clip-path="url(#clip820)" style="stroke:#000000; stroke-linecap:round; stroke-linejoin:round; stroke-width:4; stroke-opacity:1; fill:none" points="222.515,1044.35 241.412,1044.35 "/>
<polyline clip-path="url(#clip820)" style="stroke:#000000; stroke-linecap:round; stroke-linejoin:round; stroke-width:4; stroke-opacity:1; fill:none" points="222.515,808.489 241.412,808.489 "/>
<polyline clip-path="url(#clip820)" style="stroke:#000000; stroke-linecap:round; stroke-linejoin:round; stroke-width:4; stroke-opacity:1; fill:none" points="222.515,572.628 241.412,572.628 "/>
<polyline clip-path="url(#clip820)" style="stroke:#000000; stroke-linecap:round; stroke-linejoin:round; stroke-width:4; stroke-opacity:1; fill:none" points="222.515,336.766 241.412,336.766 "/>
<polyline clip-path="url(#clip820)" style="stroke:#000000; stroke-linecap:round; stroke-linejoin:round; stroke-width:4; stroke-opacity:1; fill:none" points="222.515,100.905 241.412,100.905 "/>
<path clip-path="url(#clip820)" d="M47.6634 1293.56 L55.3023 1293.56 L55.3023 1267.19 L46.9921 1268.86 L46.9921 1264.6 L55.256 1262.93 L59.9319 1262.93 L59.9319 1293.56 L67.5707 1293.56 L67.5707 1297.49 L47.6634 1297.49 L47.6634 1293.56 Z" fill="#000000" fill-rule="nonzero" fill-opacity="1" /><path clip-path="url(#clip820)" d="M77.0151 1291.61 L81.8993 1291.61 L81.8993 1297.49 L77.0151 1297.49 L77.0151 1291.61 Z" fill="#000000" fill-rule="nonzero" fill-opacity="1" /><path clip-path="url(#clip820)" d="M92.8947 1293.56 L100.534 1293.56 L100.534 1267.19 L92.2234 1268.86 L92.2234 1264.6 L100.487 1262.93 L105.163 1262.93 L105.163 1293.56 L112.802 1293.56 L112.802 1297.49 L92.8947 1297.49 L92.8947 1293.56 Z" fill="#000000" fill-rule="nonzero" fill-opacity="1" /><path clip-path="url(#clip820)" d="M122.293 1262.93 L140.649 1262.93 L140.649 1266.87 L126.575 1266.87 L126.575 1275.34 Q127.594 1274.99 128.612 1274.83 Q129.631 1274.65 130.649 1274.65 Q136.436 1274.65 139.816 1277.82 Q143.195 1280.99 143.195 1286.4 Q143.195 1291.98 139.723 1295.08 Q136.251 1298.16 129.931 1298.16 Q127.756 1298.16 125.487 1297.79 Q123.242 1297.42 120.834 1296.68 L120.834 1291.98 Q122.918 1293.12 125.14 1293.67 Q127.362 1294.23 129.839 1294.23 Q133.844 1294.23 136.181 1292.12 Q138.519 1290.02 138.519 1286.4 Q138.519 1282.79 136.181 1280.69 Q133.844 1278.58 129.839 1278.58 Q127.964 1278.58 126.089 1279 Q124.237 1279.41 122.293 1280.29 L122.293 1262.93 Z" fill="#000000" fill-rule="nonzero" fill-opacity="1" /><path clip-path="url(#clip820)" d="M162.987 1278.35 Q159.839 1278.35 157.987 1280.5 Q156.158 1282.65 156.158 1286.4 Q156.158 1290.13 157.987 1292.31 Q159.839 1294.46 162.987 1294.46 Q166.135 1294.46 167.964 1292.31 Q169.816 1290.13 169.816 1286.4 Q169.816 1282.65 167.964 1280.5 Q166.135 1278.35 162.987 1278.35 M172.269 1263.7 L172.269 1267.96 Q170.51 1267.12 168.704 1266.68 Q166.922 1266.24 165.163 1266.24 Q160.533 1266.24 158.079 1269.37 Q155.649 1272.49 155.302 1278.81 Q156.667 1276.8 158.728 1275.73 Q160.788 1274.65 163.265 1274.65 Q168.473 1274.65 171.482 1277.82 Q174.515 1280.96 174.515 1286.4 Q174.515 1291.73 171.366 1294.95 Q168.218 1298.16 162.987 1298.16 Q156.992 1298.16 153.82 1293.58 Q150.649 1288.97 150.649 1280.25 Q150.649 1272.05 154.538 1267.19 Q158.427 1262.31 164.978 1262.31 Q166.737 1262.31 168.519 1262.65 Q170.325 1263 172.269 1263.7 Z" fill="#000000" fill-rule="nonzero" fill-opacity="1" /><path clip-path="url(#clip820)" d="M48.7282 1057.7 L56.3671 1057.7 L56.3671 1031.33 L48.0569 1033 L48.0569 1028.74 L56.3208 1027.07 L60.9967 1027.07 L60.9967 1057.7 L68.6355 1057.7 L68.6355 1061.63 L48.7282 1061.63 L48.7282 1057.7 Z" fill="#000000" fill-rule="nonzero" fill-opacity="1" /><path clip-path="url(#clip820)" d="M78.0799 1055.75 L82.9642 1055.75 L82.9642 1061.63 L78.0799 1061.63 L78.0799 1055.75 Z" fill="#000000" fill-rule="nonzero" fill-opacity="1" /><path clip-path="url(#clip820)" d="M93.9595 1057.7 L101.598 1057.7 L101.598 1031.33 L93.2882 1033 L93.2882 1028.74 L101.552 1027.07 L106.228 1027.07 L106.228 1057.7 L113.867 1057.7 L113.867 1061.63 L93.9595 1061.63 L93.9595 1057.7 Z" fill="#000000" fill-rule="nonzero" fill-opacity="1" /><path clip-path="url(#clip820)" d="M123.357 1027.07 L141.714 1027.07 L141.714 1031.01 L127.64 1031.01 L127.64 1039.48 Q128.658 1039.13 129.677 1038.97 Q130.695 1038.78 131.714 1038.78 Q137.501 1038.78 140.881 1041.95 Q144.26 1045.13 144.26 1050.54 Q144.26 1056.12 140.788 1059.22 Q137.316 1062.3 130.996 1062.3 Q128.82 1062.3 126.552 1061.93 Q124.307 1061.56 121.899 1060.82 L121.899 1056.12 Q123.982 1057.26 126.205 1057.81 Q128.427 1058.37 130.904 1058.37 Q134.908 1058.37 137.246 1056.26 Q139.584 1054.15 139.584 1050.54 Q139.584 1046.93 137.246 1044.83 Q134.908 1042.72 130.904 1042.72 Q129.029 1042.72 127.154 1043.14 Q125.302 1043.55 123.357 1044.43 L123.357 1027.07 Z" fill="#000000" fill-rule="nonzero" fill-opacity="1" /><path clip-path="url(#clip820)" d="M152.292 1027.07 L174.515 1027.07 L174.515 1029.06 L161.968 1061.63 L157.084 1061.63 L168.89 1031.01 L152.292 1031.01 L152.292 1027.07 Z" fill="#000000" fill-rule="nonzero" fill-opacity="1" /><path clip-path="url(#clip820)" d="M47.918 821.834 L55.5569 821.834 L55.5569 795.469 L47.2468 797.135 L47.2468 792.876 L55.5106 791.209 L60.1865 791.209 L60.1865 821.834 L67.8253 821.834 L67.8253 825.769 L47.918 825.769 L47.918 821.834 Z" fill="#000000" fill-rule="nonzero" fill-opacity="1" /><path clip-path="url(#clip820)" d="M77.2697 819.89 L82.154 819.89 L82.154 825.769 L77.2697 825.769 L77.2697 819.89 Z" fill="#000000" fill-rule="nonzero" fill-opacity="1" /><path clip-path="url(#clip820)" d="M93.1493 821.834 L100.788 821.834 L100.788 795.469 L92.478 797.135 L92.478 792.876 L100.742 791.209 L105.418 791.209 L105.418 821.834 L113.057 821.834 L113.057 825.769 L93.1493 825.769 L93.1493 821.834 Z" fill="#000000" fill-rule="nonzero" fill-opacity="1" /><path clip-path="url(#clip820)" d="M122.547 791.209 L140.904 791.209 L140.904 795.144 L126.83 795.144 L126.83 803.617 Q127.848 803.269 128.867 803.107 Q129.885 802.922 130.904 802.922 Q136.691 802.922 140.07 806.093 Q143.45 809.265 143.45 814.681 Q143.45 820.26 139.978 823.362 Q136.506 826.441 130.186 826.441 Q128.01 826.441 125.742 826.07 Q123.496 825.7 121.089 824.959 L121.089 820.26 Q123.172 821.394 125.394 821.95 Q127.617 822.505 130.094 822.505 Q134.098 822.505 136.436 820.399 Q138.774 818.292 138.774 814.681 Q138.774 811.07 136.436 808.964 Q134.098 806.857 130.094 806.857 Q128.219 806.857 126.344 807.274 Q124.492 807.691 122.547 808.57 L122.547 791.209 Z" fill="#000000" fill-rule="nonzero" fill-opacity="1" /><path clip-path="url(#clip820)" d="M162.663 809.357 Q159.329 809.357 157.408 811.14 Q155.51 812.922 155.51 816.047 Q155.51 819.172 157.408 820.954 Q159.329 822.737 162.663 822.737 Q165.996 822.737 167.917 820.954 Q169.839 819.149 169.839 816.047 Q169.839 812.922 167.917 811.14 Q166.019 809.357 162.663 809.357 M157.987 807.367 Q154.978 806.626 153.288 804.566 Q151.621 802.506 151.621 799.543 Q151.621 795.399 154.561 792.992 Q157.524 790.584 162.663 790.584 Q167.825 790.584 170.765 792.992 Q173.704 795.399 173.704 799.543 Q173.704 802.506 172.015 804.566 Q170.348 806.626 167.362 807.367 Q170.741 808.154 172.616 810.445 Q174.515 812.737 174.515 816.047 Q174.515 821.07 171.436 823.755 Q168.38 826.441 162.663 826.441 Q156.945 826.441 153.867 823.755 Q150.811 821.07 150.811 816.047 Q150.811 812.737 152.709 810.445 Q154.607 808.154 157.987 807.367 M156.274 799.982 Q156.274 802.668 157.941 804.172 Q159.63 805.677 162.663 805.677 Q165.672 805.677 167.362 804.172 Q169.075 802.668 169.075 799.982 Q169.075 797.297 167.362 795.793 Q165.672 794.288 162.663 794.288 Q159.63 794.288 157.941 795.793 Q156.274 797.297 156.274 799.982 Z" fill="#000000" fill-rule="nonzero" fill-opacity="1" /><path clip-path="url(#clip820)" d="M48.0106 585.973 L55.6495 585.973 L55.6495 559.607 L47.3393 561.274 L47.3393 557.014 L55.6032 555.348 L60.2791 555.348 L60.2791 585.973 L67.9179 585.973 L67.9179 589.908 L48.0106 589.908 L48.0106 585.973 Z" fill="#000000" fill-rule="nonzero" fill-opacity="1" /><path clip-path="url(#clip820)" d="M77.3623 584.028 L82.2466 584.028 L82.2466 589.908 L77.3623 589.908 L77.3623 584.028 Z" fill="#000000" fill-rule="nonzero" fill-opacity="1" /><path clip-path="url(#clip820)" d="M93.2419 585.973 L100.881 585.973 L100.881 559.607 L92.5706 561.274 L92.5706 557.014 L100.834 555.348 L105.51 555.348 L105.51 585.973 L113.149 585.973 L113.149 589.908 L93.2419 589.908 L93.2419 585.973 Z" fill="#000000" fill-rule="nonzero" fill-opacity="1" /><path clip-path="url(#clip820)" d="M122.64 555.348 L140.996 555.348 L140.996 559.283 L126.922 559.283 L126.922 567.755 Q127.941 567.408 128.959 567.246 Q129.978 567.061 130.996 567.061 Q136.783 567.061 140.163 570.232 Q143.543 573.403 143.543 578.82 Q143.543 584.399 140.07 587.5 Q136.598 590.579 130.279 590.579 Q128.103 590.579 125.834 590.209 Q123.589 589.838 121.182 589.098 L121.182 584.399 Q123.265 585.533 125.487 586.088 Q127.709 586.644 130.186 586.644 Q134.191 586.644 136.529 584.537 Q138.867 582.431 138.867 578.82 Q138.867 575.209 136.529 573.102 Q134.191 570.996 130.186 570.996 Q128.311 570.996 126.436 571.412 Q124.584 571.829 122.64 572.709 L122.64 555.348 Z" fill="#000000" fill-rule="nonzero" fill-opacity="1" /><path clip-path="url(#clip820)" d="M152.894 589.19 L152.894 584.931 Q154.654 585.764 156.459 586.204 Q158.265 586.644 160.001 586.644 Q164.63 586.644 167.061 583.542 Q169.515 580.417 169.862 574.074 Q168.519 576.065 166.459 577.13 Q164.399 578.195 161.899 578.195 Q156.714 578.195 153.681 575.07 Q150.672 571.922 150.672 566.482 Q150.672 561.158 153.82 557.94 Q156.968 554.723 162.2 554.723 Q168.195 554.723 171.343 559.329 Q174.515 563.913 174.515 572.662 Q174.515 580.834 170.626 585.718 Q166.76 590.579 160.209 590.579 Q158.45 590.579 156.644 590.232 Q154.839 589.885 152.894 589.19 M162.2 574.537 Q165.348 574.537 167.177 572.385 Q169.029 570.232 169.029 566.482 Q169.029 562.755 167.177 560.602 Q165.348 558.426 162.2 558.426 Q159.052 558.426 157.2 560.602 Q155.371 562.755 155.371 566.482 Q155.371 570.232 157.2 572.385 Q159.052 574.537 162.2 574.537 Z" fill="#000000" fill-rule="nonzero" fill-opacity="1" /><path clip-path="url(#clip820)" d="M47.8255 350.111 L55.4643 350.111 L55.4643 323.745 L47.1542 325.412 L47.1542 321.153 L55.418 319.486 L60.0939 319.486 L60.0939 350.111 L67.7328 350.111 L67.7328 354.046 L47.8255 354.046 L47.8255 350.111 Z" fill="#000000" fill-rule="nonzero" fill-opacity="1" /><path clip-path="url(#clip820)" d="M77.1771 348.167 L82.0614 348.167 L82.0614 354.046 L77.1771 354.046 L77.1771 348.167 Z" fill="#000000" fill-rule="nonzero" fill-opacity="1" /><path clip-path="url(#clip820)" d="M93.0567 350.111 L100.696 350.111 L100.696 323.745 L92.3854 325.412 L92.3854 321.153 L100.649 319.486 L105.325 319.486 L105.325 350.111 L112.964 350.111 L112.964 354.046 L93.0567 354.046 L93.0567 350.111 Z" fill="#000000" fill-rule="nonzero" fill-opacity="1" /><path clip-path="url(#clip820)" d="M132.987 334.903 Q129.839 334.903 127.987 337.056 Q126.158 339.208 126.158 342.958 Q126.158 346.685 127.987 348.861 Q129.839 351.014 132.987 351.014 Q136.135 351.014 137.964 348.861 Q139.816 346.685 139.816 342.958 Q139.816 339.208 137.964 337.056 Q136.135 334.903 132.987 334.903 M142.269 320.25 L142.269 324.509 Q140.51 323.676 138.705 323.236 Q136.922 322.796 135.163 322.796 Q130.533 322.796 128.08 325.921 Q125.649 329.046 125.302 335.366 Q126.668 333.352 128.728 332.287 Q130.788 331.199 133.265 331.199 Q138.473 331.199 141.482 334.37 Q144.515 337.519 144.515 342.958 Q144.515 348.282 141.367 351.5 Q138.218 354.717 132.987 354.717 Q126.992 354.717 123.82 350.134 Q120.649 345.528 120.649 336.801 Q120.649 328.607 124.538 323.745 Q128.427 318.861 134.978 318.861 Q136.737 318.861 138.519 319.208 Q140.325 319.556 142.269 320.25 Z" fill="#000000" fill-rule="nonzero" fill-opacity="1" /><path clip-path="url(#clip820)" d="M162.57 322.565 Q158.959 322.565 157.13 326.13 Q155.325 329.671 155.325 336.801 Q155.325 343.907 157.13 347.472 Q158.959 351.014 162.57 351.014 Q166.204 351.014 168.01 347.472 Q169.839 343.907 169.839 336.801 Q169.839 329.671 168.01 326.13 Q166.204 322.565 162.57 322.565 M162.57 318.861 Q168.38 318.861 171.436 323.468 Q174.515 328.051 174.515 336.801 Q174.515 345.528 171.436 350.134 Q168.38 354.717 162.57 354.717 Q156.76 354.717 153.681 350.134 Q150.626 345.528 150.626 336.801 Q150.626 328.051 153.681 323.468 Q156.76 318.861 162.57 318.861 Z" fill="#000000" fill-rule="nonzero" fill-opacity="1" /><path clip-path="url(#clip820)" d="M49.0523 114.25 L56.6911 114.25 L56.6911 87.8839 L48.381 89.5506 L48.381 85.2913 L56.6449 83.6247 L61.3208 83.6247 L61.3208 114.25 L68.9596 114.25 L68.9596 118.185 L49.0523 118.185 L49.0523 114.25 Z" fill="#000000" fill-rule="nonzero" fill-opacity="1" /><path clip-path="url(#clip820)" d="M78.404 112.305 L83.2882 112.305 L83.2882 118.185 L78.404 118.185 L78.404 112.305 Z" fill="#000000" fill-rule="nonzero" fill-opacity="1" /><path clip-path="url(#clip820)" d="M94.2835 114.25 L101.922 114.25 L101.922 87.8839 L93.6122 89.5506 L93.6122 85.2913 L101.876 83.6247 L106.552 83.6247 L106.552 114.25 L114.191 114.25 L114.191 118.185 L94.2835 118.185 L94.2835 114.25 Z" fill="#000000" fill-rule="nonzero" fill-opacity="1" /><path clip-path="url(#clip820)" d="M134.214 99.0413 Q131.066 99.0413 129.214 101.194 Q127.385 103.347 127.385 107.097 Q127.385 110.824 129.214 113 Q131.066 115.152 134.214 115.152 Q137.362 115.152 139.191 113 Q141.043 110.824 141.043 107.097 Q141.043 103.347 139.191 101.194 Q137.362 99.0413 134.214 99.0413 M143.496 84.3886 L143.496 88.6478 Q141.737 87.8145 139.931 87.3746 Q138.149 86.9348 136.39 86.9348 Q131.76 86.9348 129.306 90.0598 Q126.876 93.1848 126.529 99.5042 Q127.894 97.4903 129.955 96.4255 Q132.015 95.3376 134.492 95.3376 Q139.7 95.3376 142.709 98.5088 Q145.742 101.657 145.742 107.097 Q145.742 112.421 142.593 115.638 Q139.445 118.856 134.214 118.856 Q128.219 118.856 125.047 114.273 Q121.876 109.666 121.876 100.939 Q121.876 92.745 125.765 87.8839 Q129.654 82.9997 136.205 82.9997 Q137.964 82.9997 139.746 83.3469 Q141.552 83.6941 143.496 84.3886 Z" fill="#000000" fill-rule="nonzero" fill-opacity="1" /><path clip-path="url(#clip820)" d="M154.607 114.25 L162.246 114.25 L162.246 87.8839 L153.936 89.5506 L153.936 85.2913 L162.2 83.6247 L166.876 83.6247 L166.876 114.25 L174.515 114.25 L174.515 118.185 L154.607 118.185 L154.607 114.25 Z" fill="#000000" fill-rule="nonzero" fill-opacity="1" /><polyline clip-path="url(#clip822)" style="stroke:#009af9; stroke-linecap:round; stroke-linejoin:round; stroke-width:4; stroke-opacity:1; fill:none" points="260.592,88.2208 273.285,101.914 285.977,115.606 298.669,129.297 311.362,142.988 324.054,156.678 336.747,170.367 349.439,184.056 362.132,197.744 374.824,211.431 387.517,225.117 400.209,238.803 412.902,252.488 425.594,266.173 438.287,279.857 450.979,293.54 463.672,307.222 476.364,320.904 489.057,334.585 501.749,348.266 514.442,361.946 527.134,375.625 539.827,389.303 552.519,402.981 565.212,416.658 577.904,430.334 590.597,444.01 603.289,457.685 615.982,471.359 628.674,485.032 641.367,498.705 654.059,512.377 666.752,526.049 679.444,539.72 692.136,553.39 704.829,567.06 717.521,580.728 730.214,594.396 742.906,608.064 755.599,621.731 768.291,635.397 780.984,649.062 793.676,662.727 806.369,676.391 819.061,690.054 831.754,703.717 844.446,717.379 857.139,731.04 869.831,744.701 882.524,758.36 895.216,772.02 907.909,785.678 920.601,799.336 933.294,812.993 945.986,826.65 958.679,840.306 971.371,853.961 984.064,867.615 996.756,881.269 1009.45,894.922 1022.14,908.574 1034.83,922.226 1047.53,935.877 1060.22,949.528 1072.91,963.177 1085.6,976.826 1098.3,990.475 1110.99,1004.12 1123.68,1017.77 1136.37,1031.42 1149.07,1045.06 1161.76,1058.71 1174.45,1072.35 1187.14,1085.99 1199.84,1099.64 1212.53,1113.28 1225.22,1126.92 1237.91,1140.56 1250.61,1154.2 1263.3,1167.84 1275.99,1181.48 1288.68,1195.12 1301.38,1208.75 1314.07,1222.39 1326.76,1236.03 1339.45,1249.66 1352.15,1263.3 1364.84,1276.93 1377.53,1290.56 1390.22,1304.2 1402.92,1317.83 1415.61,1331.46 1428.3,1345.09 1440.99,1358.72 1453.69,1372.35 1466.38,1385.98 1479.07,1399.61 1491.76,1413.23 1504.46,1426.86 1517.15,1440.49 1529.84,1454.11 "/>
<path clip-path="url(#clip820)" d="M1347.63 199.186 L1523.07 199.186 L1523.07 95.5056 L1347.63 95.5056  Z" fill="#ffffff" fill-rule="evenodd" fill-opacity="1"/>
<polyline clip-path="url(#clip820)" style="stroke:#000000; stroke-linecap:round; stroke-linejoin:round; stroke-width:4; stroke-opacity:1; fill:none" points="1347.63,199.186 1523.07,199.186 1523.07,95.5056 1347.63,95.5056 1347.63,199.186 "/>
<polyline clip-path="url(#clip820)" style="stroke:#009af9; stroke-linecap:round; stroke-linejoin:round; stroke-width:4; stroke-opacity:1; fill:none" points="1362.58,147.346 1452.27,147.346 "/>
<path clip-path="url(#clip820)" d="M1487.73 139.695 L1487.73 143.677 Q1485.92 142.681 1484.09 142.195 Q1482.29 141.686 1480.44 141.686 Q1476.29 141.686 1474 144.325 Q1471.71 146.94 1471.71 151.686 Q1471.71 156.431 1474 159.07 Q1476.29 161.686 1480.44 161.686 Q1482.29 161.686 1484.09 161.2 Q1485.92 160.69 1487.73 159.695 L1487.73 163.63 Q1485.95 164.464 1484.03 164.88 Q1482.13 165.297 1479.97 165.297 Q1474.12 165.297 1470.67 161.616 Q1467.22 157.936 1467.22 151.686 Q1467.22 145.343 1470.69 141.709 Q1474.19 138.075 1480.25 138.075 Q1482.22 138.075 1484.09 138.491 Q1485.97 138.885 1487.73 139.695 Z" fill="#000000" fill-rule="nonzero" fill-opacity="1" /><path clip-path="url(#clip820)" d="M1499.35 131.339 L1499.35 138.7 L1508.12 138.7 L1508.12 142.01 L1499.35 142.01 L1499.35 156.084 Q1499.35 159.255 1500.21 160.158 Q1501.09 161.061 1503.75 161.061 L1508.12 161.061 L1508.12 164.626 L1503.75 164.626 Q1498.82 164.626 1496.94 162.797 Q1495.07 160.945 1495.07 156.084 L1495.07 142.01 L1491.94 142.01 L1491.94 138.7 L1495.07 138.7 L1495.07 131.339 L1499.35 131.339 Z" fill="#000000" fill-rule="nonzero" fill-opacity="1" /><path clip-path="url(#clip820)" d="M1807.35 1495.09 L3152.76 1495.09 L3152.76 47.2441 L1807.35 47.2441  Z" fill="#ffffff" fill-rule="evenodd" fill-opacity="1"/>
<defs>
  <clipPath id="clip823">
    <rect x="1807" y="47" width="1346" height="1449"/>
  </clipPath>
</defs>
<polyline clip-path="url(#clip823)" style="stroke:#000000; stroke-linecap:round; stroke-linejoin:round; stroke-width:2; stroke-opacity:0.1; fill:none" points="1832.74,1495.09 1832.74,47.2441 "/>
<polyline clip-path="url(#clip823)" style="stroke:#000000; stroke-linecap:round; stroke-linejoin:round; stroke-width:2; stroke-opacity:0.1; fill:none" points="2150.05,1495.09 2150.05,47.2441 "/>
<polyline clip-path="url(#clip823)" style="stroke:#000000; stroke-linecap:round; stroke-linejoin:round; stroke-width:2; stroke-opacity:0.1; fill:none" points="2467.36,1495.09 2467.36,47.2441 "/>
<polyline clip-path="url(#clip823)" style="stroke:#000000; stroke-linecap:round; stroke-linejoin:round; stroke-width:2; stroke-opacity:0.1; fill:none" points="2784.67,1495.09 2784.67,47.2441 "/>
<polyline clip-path="url(#clip823)" style="stroke:#000000; stroke-linecap:round; stroke-linejoin:round; stroke-width:2; stroke-opacity:0.1; fill:none" points="3101.99,1495.09 3101.99,47.2441 "/>
<polyline clip-path="url(#clip820)" style="stroke:#000000; stroke-linecap:round; stroke-linejoin:round; stroke-width:4; stroke-opacity:1; fill:none" points="1807.35,1495.09 3152.76,1495.09 "/>
<polyline clip-path="url(#clip820)" style="stroke:#000000; stroke-linecap:round; stroke-linejoin:round; stroke-width:4; stroke-opacity:1; fill:none" points="1832.74,1495.09 1832.74,1476.19 "/>
<polyline clip-path="url(#clip820)" style="stroke:#000000; stroke-linecap:round; stroke-linejoin:round; stroke-width:4; stroke-opacity:1; fill:none" points="2150.05,1495.09 2150.05,1476.19 "/>
<polyline clip-path="url(#clip820)" style="stroke:#000000; stroke-linecap:round; stroke-linejoin:round; stroke-width:4; stroke-opacity:1; fill:none" points="2467.36,1495.09 2467.36,1476.19 "/>
<polyline clip-path="url(#clip820)" style="stroke:#000000; stroke-linecap:round; stroke-linejoin:round; stroke-width:4; stroke-opacity:1; fill:none" points="2784.67,1495.09 2784.67,1476.19 "/>
<polyline clip-path="url(#clip820)" style="stroke:#000000; stroke-linecap:round; stroke-linejoin:round; stroke-width:4; stroke-opacity:1; fill:none" points="3101.99,1495.09 3101.99,1476.19 "/>
<path clip-path="url(#clip820)" d="M1832.74 1532.41 Q1829.13 1532.41 1827.3 1535.97 Q1825.49 1539.51 1825.49 1546.64 Q1825.49 1553.75 1827.3 1557.31 Q1829.13 1560.86 1832.74 1560.86 Q1836.37 1560.86 1838.18 1557.31 Q1840.01 1553.75 1840.01 1546.64 Q1840.01 1539.51 1838.18 1535.97 Q1836.37 1532.41 1832.74 1532.41 M1832.74 1528.7 Q1838.55 1528.7 1841.6 1533.31 Q1844.68 1537.89 1844.68 1546.64 Q1844.68 1555.37 1841.6 1559.98 Q1838.55 1564.56 1832.74 1564.56 Q1826.93 1564.56 1823.85 1559.98 Q1820.79 1555.37 1820.79 1546.64 Q1820.79 1537.89 1823.85 1533.31 Q1826.93 1528.7 1832.74 1528.7 Z" fill="#000000" fill-rule="nonzero" fill-opacity="1" /><path clip-path="url(#clip820)" d="M2129.32 1559.95 L2145.64 1559.95 L2145.64 1563.89 L2123.7 1563.89 L2123.7 1559.95 Q2126.36 1557.2 2130.94 1552.57 Q2135.55 1547.92 2136.73 1546.57 Q2138.97 1544.05 2139.85 1542.31 Q2140.76 1540.55 2140.76 1538.86 Q2140.76 1536.11 2138.81 1534.37 Q2136.89 1532.64 2133.79 1532.64 Q2131.59 1532.64 2129.14 1533.4 Q2126.7 1534.17 2123.93 1535.72 L2123.93 1530.99 Q2126.75 1529.86 2129.2 1529.28 Q2131.66 1528.7 2133.7 1528.7 Q2139.07 1528.7 2142.26 1531.39 Q2145.45 1534.07 2145.45 1538.56 Q2145.45 1540.69 2144.64 1542.61 Q2143.86 1544.51 2141.75 1547.11 Q2141.17 1547.78 2138.07 1550.99 Q2134.97 1554.19 2129.32 1559.95 Z" fill="#000000" fill-rule="nonzero" fill-opacity="1" /><path clip-path="url(#clip820)" d="M2155.5 1529.33 L2173.86 1529.33 L2173.86 1533.26 L2159.78 1533.26 L2159.78 1541.74 Q2160.8 1541.39 2161.82 1541.23 Q2162.84 1541.04 2163.86 1541.04 Q2169.64 1541.04 2173.02 1544.21 Q2176.4 1547.38 2176.4 1552.8 Q2176.4 1558.38 2172.93 1561.48 Q2169.46 1564.56 2163.14 1564.56 Q2160.96 1564.56 2158.7 1564.19 Q2156.45 1563.82 2154.04 1563.08 L2154.04 1558.38 Q2156.13 1559.51 2158.35 1560.07 Q2160.57 1560.62 2163.05 1560.62 Q2167.05 1560.62 2169.39 1558.52 Q2171.73 1556.41 2171.73 1552.8 Q2171.73 1549.19 2169.39 1547.08 Q2167.05 1544.98 2163.05 1544.98 Q2161.17 1544.98 2159.3 1545.39 Q2157.45 1545.81 2155.5 1546.69 L2155.5 1529.33 Z" fill="#000000" fill-rule="nonzero" fill-opacity="1" /><path clip-path="url(#clip820)" d="M2442.06 1529.33 L2460.42 1529.33 L2460.42 1533.26 L2446.34 1533.26 L2446.34 1541.74 Q2447.36 1541.39 2448.38 1541.23 Q2449.4 1541.04 2450.42 1541.04 Q2456.2 1541.04 2459.58 1544.21 Q2462.96 1547.38 2462.96 1552.8 Q2462.96 1558.38 2459.49 1561.48 Q2456.02 1564.56 2449.7 1564.56 Q2447.52 1564.56 2445.26 1564.19 Q2443.01 1563.82 2440.6 1563.08 L2440.6 1558.38 Q2442.69 1559.51 2444.91 1560.07 Q2447.13 1560.62 2449.61 1560.62 Q2453.61 1560.62 2455.95 1558.52 Q2458.29 1556.41 2458.29 1552.8 Q2458.29 1549.19 2455.95 1547.08 Q2453.61 1544.98 2449.61 1544.98 Q2447.73 1544.98 2445.86 1545.39 Q2444.01 1545.81 2442.06 1546.69 L2442.06 1529.33 Z" fill="#000000" fill-rule="nonzero" fill-opacity="1" /><path clip-path="url(#clip820)" d="M2482.18 1532.41 Q2478.57 1532.41 2476.74 1535.97 Q2474.93 1539.51 2474.93 1546.64 Q2474.93 1553.75 2476.74 1557.31 Q2478.57 1560.86 2482.18 1560.86 Q2485.81 1560.86 2487.62 1557.31 Q2489.45 1553.75 2489.45 1546.64 Q2489.45 1539.51 2487.62 1535.97 Q2485.81 1532.41 2482.18 1532.41 M2482.18 1528.7 Q2487.99 1528.7 2491.04 1533.31 Q2494.12 1537.89 2494.12 1546.64 Q2494.12 1555.37 2491.04 1559.98 Q2487.99 1564.56 2482.18 1564.56 Q2476.37 1564.56 2473.29 1559.98 Q2470.23 1555.37 2470.23 1546.64 Q2470.23 1537.89 2473.29 1533.31 Q2476.37 1528.7 2482.18 1528.7 Z" fill="#000000" fill-rule="nonzero" fill-opacity="1" /><path clip-path="url(#clip820)" d="M2758.53 1529.33 L2780.75 1529.33 L2780.75 1531.32 L2768.2 1563.89 L2763.32 1563.89 L2775.13 1533.26 L2758.53 1533.26 L2758.53 1529.33 Z" fill="#000000" fill-rule="nonzero" fill-opacity="1" /><path clip-path="url(#clip820)" d="M2789.92 1529.33 L2808.27 1529.33 L2808.27 1533.26 L2794.2 1533.26 L2794.2 1541.74 Q2795.22 1541.39 2796.24 1541.23 Q2797.25 1541.04 2798.27 1541.04 Q2804.06 1541.04 2807.44 1544.21 Q2810.82 1547.38 2810.82 1552.8 Q2810.82 1558.38 2807.35 1561.48 Q2803.88 1564.56 2797.56 1564.56 Q2795.38 1564.56 2793.11 1564.19 Q2790.87 1563.82 2788.46 1563.08 L2788.46 1558.38 Q2790.54 1559.51 2792.76 1560.07 Q2794.99 1560.62 2797.46 1560.62 Q2801.47 1560.62 2803.81 1558.52 Q2806.14 1556.41 2806.14 1552.8 Q2806.14 1549.19 2803.81 1547.08 Q2801.47 1544.98 2797.46 1544.98 Q2795.59 1544.98 2793.71 1545.39 Q2791.86 1545.81 2789.92 1546.69 L2789.92 1529.33 Z" fill="#000000" fill-rule="nonzero" fill-opacity="1" /><path clip-path="url(#clip820)" d="M3061.59 1559.95 L3069.23 1559.95 L3069.23 1533.59 L3060.92 1535.25 L3060.92 1530.99 L3069.19 1529.33 L3073.86 1529.33 L3073.86 1559.95 L3081.5 1559.95 L3081.5 1563.89 L3061.59 1563.89 L3061.59 1559.95 Z" fill="#000000" fill-rule="nonzero" fill-opacity="1" /><path clip-path="url(#clip820)" d="M3100.94 1532.41 Q3097.33 1532.41 3095.5 1535.97 Q3093.7 1539.51 3093.7 1546.64 Q3093.7 1553.75 3095.5 1557.31 Q3097.33 1560.86 3100.94 1560.86 Q3104.58 1560.86 3106.38 1557.31 Q3108.21 1553.75 3108.21 1546.64 Q3108.21 1539.51 3106.38 1535.97 Q3104.58 1532.41 3100.94 1532.41 M3100.94 1528.7 Q3106.75 1528.7 3109.81 1533.31 Q3112.89 1537.89 3112.89 1546.64 Q3112.89 1555.37 3109.81 1559.98 Q3106.75 1564.56 3100.94 1564.56 Q3095.13 1564.56 3092.06 1559.98 Q3089 1555.37 3089 1546.64 Q3089 1537.89 3092.06 1533.31 Q3095.13 1528.7 3100.94 1528.7 Z" fill="#000000" fill-rule="nonzero" fill-opacity="1" /><path clip-path="url(#clip820)" d="M3131.11 1532.41 Q3127.5 1532.41 3125.67 1535.97 Q3123.86 1539.51 3123.86 1546.64 Q3123.86 1553.75 3125.67 1557.31 Q3127.5 1560.86 3131.11 1560.86 Q3134.74 1560.86 3136.55 1557.31 Q3138.37 1553.75 3138.37 1546.64 Q3138.37 1539.51 3136.55 1535.97 Q3134.74 1532.41 3131.11 1532.41 M3131.11 1528.7 Q3136.92 1528.7 3139.97 1533.31 Q3143.05 1537.89 3143.05 1546.64 Q3143.05 1555.37 3139.97 1559.98 Q3136.92 1564.56 3131.11 1564.56 Q3125.3 1564.56 3122.22 1559.98 Q3119.16 1555.37 3119.16 1546.64 Q3119.16 1537.89 3122.22 1533.31 Q3125.3 1528.7 3131.11 1528.7 Z" fill="#000000" fill-rule="nonzero" fill-opacity="1" /><polyline clip-path="url(#clip823)" style="stroke:#000000; stroke-linecap:round; stroke-linejoin:round; stroke-width:2; stroke-opacity:0.1; fill:none" points="1807.35,1454.12 3152.76,1454.12 "/>
<polyline clip-path="url(#clip823)" style="stroke:#000000; stroke-linecap:round; stroke-linejoin:round; stroke-width:2; stroke-opacity:0.1; fill:none" points="1807.35,1112.64 3152.76,1112.64 "/>
<polyline clip-path="url(#clip823)" style="stroke:#000000; stroke-linecap:round; stroke-linejoin:round; stroke-width:2; stroke-opacity:0.1; fill:none" points="1807.35,771.168 3152.76,771.168 "/>
<polyline clip-path="url(#clip823)" style="stroke:#000000; stroke-linecap:round; stroke-linejoin:round; stroke-width:2; stroke-opacity:0.1; fill:none" points="1807.35,429.695 3152.76,429.695 "/>
<polyline clip-path="url(#clip823)" style="stroke:#000000; stroke-linecap:round; stroke-linejoin:round; stroke-width:2; stroke-opacity:0.1; fill:none" points="1807.35,88.2208 3152.76,88.2208 "/>
<polyline clip-path="url(#clip820)" style="stroke:#000000; stroke-linecap:round; stroke-linejoin:round; stroke-width:4; stroke-opacity:1; fill:none" points="1807.35,1495.09 1807.35,47.2441 "/>
<polyline clip-path="url(#clip820)" style="stroke:#000000; stroke-linecap:round; stroke-linejoin:round; stroke-width:4; stroke-opacity:1; fill:none" points="1807.35,1454.12 1826.25,1454.12 "/>
<polyline clip-path="url(#clip820)" style="stroke:#000000; stroke-linecap:round; stroke-linejoin:round; stroke-width:4; stroke-opacity:1; fill:none" points="1807.35,1112.64 1826.25,1112.64 "/>
<polyline clip-path="url(#clip820)" style="stroke:#000000; stroke-linecap:round; stroke-linejoin:round; stroke-width:4; stroke-opacity:1; fill:none" points="1807.35,771.168 1826.25,771.168 "/>
<polyline clip-path="url(#clip820)" style="stroke:#000000; stroke-linecap:round; stroke-linejoin:round; stroke-width:4; stroke-opacity:1; fill:none" points="1807.35,429.695 1826.25,429.695 "/>
<polyline clip-path="url(#clip820)" style="stroke:#000000; stroke-linecap:round; stroke-linejoin:round; stroke-width:4; stroke-opacity:1; fill:none" points="1807.35,88.2208 1826.25,88.2208 "/>
<path clip-path="url(#clip820)" d="M1702.18 1439.91 Q1698.57 1439.91 1696.74 1443.48 Q1694.93 1447.02 1694.93 1454.15 Q1694.93 1461.26 1696.74 1464.82 Q1698.57 1468.36 1702.18 1468.36 Q1705.81 1468.36 1707.62 1464.82 Q1709.45 1461.26 1709.45 1454.15 Q1709.45 1447.02 1707.62 1443.48 Q1705.81 1439.91 1702.18 1439.91 M1702.18 1436.21 Q1707.99 1436.21 1711.04 1440.82 Q1714.12 1445.4 1714.12 1454.15 Q1714.12 1462.88 1711.04 1467.48 Q1707.99 1472.07 1702.18 1472.07 Q1696.37 1472.07 1693.29 1467.48 Q1690.23 1462.88 1690.23 1454.15 Q1690.23 1445.4 1693.29 1440.82 Q1696.37 1436.21 1702.18 1436.21 Z" fill="#000000" fill-rule="nonzero" fill-opacity="1" /><path clip-path="url(#clip820)" d="M1722.34 1465.52 L1727.22 1465.52 L1727.22 1471.4 L1722.34 1471.4 L1722.34 1465.52 Z" fill="#000000" fill-rule="nonzero" fill-opacity="1" /><path clip-path="url(#clip820)" d="M1747.41 1439.91 Q1743.8 1439.91 1741.97 1443.48 Q1740.16 1447.02 1740.16 1454.15 Q1740.16 1461.26 1741.97 1464.82 Q1743.8 1468.36 1747.41 1468.36 Q1751.04 1468.36 1752.85 1464.82 Q1754.68 1461.26 1754.68 1454.15 Q1754.68 1447.02 1752.85 1443.48 Q1751.04 1439.91 1747.41 1439.91 M1747.41 1436.21 Q1753.22 1436.21 1756.27 1440.82 Q1759.35 1445.4 1759.35 1454.15 Q1759.35 1462.88 1756.27 1467.48 Q1753.22 1472.07 1747.41 1472.07 Q1741.6 1472.07 1738.52 1467.48 Q1735.46 1462.88 1735.46 1454.15 Q1735.46 1445.4 1738.52 1440.82 Q1741.6 1436.21 1747.41 1436.21 Z" fill="#000000" fill-rule="nonzero" fill-opacity="1" /><path clip-path="url(#clip820)" d="M1697.2 1125.99 L1713.52 1125.99 L1713.52 1129.92 L1691.58 1129.92 L1691.58 1125.99 Q1694.24 1123.23 1698.82 1118.6 Q1703.43 1113.95 1704.61 1112.61 Q1706.85 1110.08 1707.73 1108.35 Q1708.64 1106.59 1708.64 1104.9 Q1708.64 1102.14 1706.69 1100.41 Q1704.77 1098.67 1701.67 1098.67 Q1699.47 1098.67 1697.02 1099.44 Q1694.58 1100.2 1691.81 1101.75 L1691.81 1097.03 Q1694.63 1095.89 1697.08 1095.32 Q1699.54 1094.74 1701.58 1094.74 Q1706.95 1094.74 1710.14 1097.42 Q1713.33 1100.11 1713.33 1104.6 Q1713.33 1106.73 1712.52 1108.65 Q1711.74 1110.55 1709.63 1113.14 Q1709.05 1113.81 1705.95 1117.03 Q1702.85 1120.22 1697.2 1125.99 Z" fill="#000000" fill-rule="nonzero" fill-opacity="1" /><path clip-path="url(#clip820)" d="M1723.33 1124.04 L1728.22 1124.04 L1728.22 1129.92 L1723.33 1129.92 L1723.33 1124.04 Z" fill="#000000" fill-rule="nonzero" fill-opacity="1" /><path clip-path="url(#clip820)" d="M1738.45 1095.36 L1756.81 1095.36 L1756.81 1099.3 L1742.73 1099.3 L1742.73 1107.77 Q1743.75 1107.42 1744.77 1107.26 Q1745.79 1107.07 1746.81 1107.07 Q1752.59 1107.07 1755.97 1110.25 Q1759.35 1113.42 1759.35 1118.83 Q1759.35 1124.41 1755.88 1127.51 Q1752.41 1130.59 1746.09 1130.59 Q1743.91 1130.59 1741.64 1130.22 Q1739.4 1129.85 1736.99 1129.11 L1736.99 1124.41 Q1739.07 1125.55 1741.3 1126.1 Q1743.52 1126.66 1746 1126.66 Q1750 1126.66 1752.34 1124.55 Q1754.68 1122.45 1754.68 1118.83 Q1754.68 1115.22 1752.34 1113.12 Q1750 1111.01 1746 1111.01 Q1744.12 1111.01 1742.25 1111.43 Q1740.39 1111.84 1738.45 1112.72 L1738.45 1095.36 Z" fill="#000000" fill-rule="nonzero" fill-opacity="1" /><path clip-path="url(#clip820)" d="M1692.22 753.888 L1710.58 753.888 L1710.58 757.823 L1696.51 757.823 L1696.51 766.296 Q1697.52 765.948 1698.54 765.786 Q1699.56 765.601 1700.58 765.601 Q1706.37 765.601 1709.75 768.772 Q1713.13 771.944 1713.13 777.36 Q1713.13 782.939 1709.65 786.041 Q1706.18 789.12 1699.86 789.12 Q1697.69 789.12 1695.42 788.749 Q1693.17 788.379 1690.77 787.638 L1690.77 782.939 Q1692.85 784.073 1695.07 784.629 Q1697.29 785.184 1699.77 785.184 Q1703.77 785.184 1706.11 783.078 Q1708.45 780.971 1708.45 777.36 Q1708.45 773.749 1706.11 771.643 Q1703.77 769.536 1699.77 769.536 Q1697.89 769.536 1696.02 769.953 Q1694.17 770.37 1692.22 771.249 L1692.22 753.888 Z" fill="#000000" fill-rule="nonzero" fill-opacity="1" /><path clip-path="url(#clip820)" d="M1722.34 782.569 L1727.22 782.569 L1727.22 788.448 L1722.34 788.448 L1722.34 782.569 Z" fill="#000000" fill-rule="nonzero" fill-opacity="1" /><path clip-path="url(#clip820)" d="M1747.41 756.967 Q1743.8 756.967 1741.97 760.532 Q1740.16 764.073 1740.16 771.203 Q1740.16 778.309 1741.97 781.874 Q1743.8 785.416 1747.41 785.416 Q1751.04 785.416 1752.85 781.874 Q1754.68 778.309 1754.68 771.203 Q1754.68 764.073 1752.85 760.532 Q1751.04 756.967 1747.41 756.967 M1747.41 753.263 Q1753.22 753.263 1756.27 757.87 Q1759.35 762.453 1759.35 771.203 Q1759.35 779.93 1756.27 784.536 Q1753.22 789.12 1747.41 789.12 Q1741.6 789.12 1738.52 784.536 Q1735.46 779.93 1735.46 771.203 Q1735.46 762.453 1738.52 757.87 Q1741.6 753.263 1747.41 753.263 Z" fill="#000000" fill-rule="nonzero" fill-opacity="1" /><path clip-path="url(#clip820)" d="M1691.99 412.415 L1714.21 412.415 L1714.21 414.405 L1701.67 446.975 L1696.78 446.975 L1708.59 416.35 L1691.99 416.35 L1691.99 412.415 Z" fill="#000000" fill-rule="nonzero" fill-opacity="1" /><path clip-path="url(#clip820)" d="M1723.33 441.095 L1728.22 441.095 L1728.22 446.975 L1723.33 446.975 L1723.33 441.095 Z" fill="#000000" fill-rule="nonzero" fill-opacity="1" /><path clip-path="url(#clip820)" d="M1738.45 412.415 L1756.81 412.415 L1756.81 416.35 L1742.73 416.35 L1742.73 424.822 Q1743.75 424.475 1744.77 424.313 Q1745.79 424.127 1746.81 424.127 Q1752.59 424.127 1755.97 427.299 Q1759.35 430.47 1759.35 435.887 Q1759.35 441.465 1755.88 444.567 Q1752.41 447.646 1746.09 447.646 Q1743.91 447.646 1741.64 447.275 Q1739.4 446.905 1736.99 446.164 L1736.99 441.465 Q1739.07 442.6 1741.3 443.155 Q1743.52 443.711 1746 443.711 Q1750 443.711 1752.34 441.604 Q1754.68 439.498 1754.68 435.887 Q1754.68 432.276 1752.34 430.169 Q1750 428.063 1746 428.063 Q1744.12 428.063 1742.25 428.479 Q1740.39 428.896 1738.45 429.776 L1738.45 412.415 Z" fill="#000000" fill-rule="nonzero" fill-opacity="1" /><path clip-path="url(#clip820)" d="M1662.83 101.566 L1670.46 101.566 L1670.46 75.2 L1662.15 76.8667 L1662.15 72.6075 L1670.42 70.9408 L1675.09 70.9408 L1675.09 101.566 L1682.73 101.566 L1682.73 105.501 L1662.83 105.501 L1662.83 101.566 Z" fill="#000000" fill-rule="nonzero" fill-opacity="1" /><path clip-path="url(#clip820)" d="M1702.18 74.0195 Q1698.57 74.0195 1696.74 77.5843 Q1694.93 81.1259 1694.93 88.2555 Q1694.93 95.362 1696.74 98.9268 Q1698.57 102.468 1702.18 102.468 Q1705.81 102.468 1707.62 98.9268 Q1709.45 95.362 1709.45 88.2555 Q1709.45 81.1259 1707.62 77.5843 Q1705.81 74.0195 1702.18 74.0195 M1702.18 70.3158 Q1707.99 70.3158 1711.04 74.9223 Q1714.12 79.5056 1714.12 88.2555 Q1714.12 96.9823 1711.04 101.589 Q1707.99 106.172 1702.18 106.172 Q1696.37 106.172 1693.29 101.589 Q1690.23 96.9823 1690.23 88.2555 Q1690.23 79.5056 1693.29 74.9223 Q1696.37 70.3158 1702.18 70.3158 Z" fill="#000000" fill-rule="nonzero" fill-opacity="1" /><path clip-path="url(#clip820)" d="M1722.34 99.6212 L1727.22 99.6212 L1727.22 105.501 L1722.34 105.501 L1722.34 99.6212 Z" fill="#000000" fill-rule="nonzero" fill-opacity="1" /><path clip-path="url(#clip820)" d="M1747.41 74.0195 Q1743.8 74.0195 1741.97 77.5843 Q1740.16 81.1259 1740.16 88.2555 Q1740.16 95.362 1741.97 98.9268 Q1743.8 102.468 1747.41 102.468 Q1751.04 102.468 1752.85 98.9268 Q1754.68 95.362 1754.68 88.2555 Q1754.68 81.1259 1752.85 77.5843 Q1751.04 74.0195 1747.41 74.0195 M1747.41 70.3158 Q1753.22 70.3158 1756.27 74.9223 Q1759.35 79.5056 1759.35 88.2555 Q1759.35 96.9823 1756.27 101.589 Q1753.22 106.172 1747.41 106.172 Q1741.6 106.172 1738.52 101.589 Q1735.46 96.9823 1735.46 88.2555 Q1735.46 79.5056 1738.52 74.9223 Q1741.6 70.3158 1747.41 70.3158 Z" fill="#000000" fill-rule="nonzero" fill-opacity="1" /><polyline clip-path="url(#clip823)" style="stroke:#009af9; stroke-linecap:round; stroke-linejoin:round; stroke-width:4; stroke-opacity:1; fill:none" points="1845.43,88.2208 1858.12,96.5601 1870.82,104.975 1883.51,113.466 1896.2,122.034 1908.89,130.68 1921.58,139.404 1934.28,148.207 1946.97,157.091 1959.66,166.056 1972.35,175.102 1985.05,184.231 1997.74,193.443 2010.43,202.739 2023.12,212.121 2035.82,221.588 2048.51,231.142 2061.2,240.784 2073.89,250.514 2086.59,260.334 2099.28,270.243 2111.97,280.244 2124.66,290.338 2137.36,300.524 2150.05,310.804 2162.74,321.179 2175.43,331.649 2188.13,342.217 2200.82,352.882 2213.51,363.646 2226.2,374.51 2238.9,385.475 2251.59,396.541 2264.28,407.71 2276.97,418.982 2289.67,430.36 2302.36,441.843 2315.05,453.434 2327.74,465.132 2340.44,476.939 2353.13,488.857 2365.82,500.886 2378.51,513.027 2391.21,525.282 2403.9,537.651 2416.59,550.136 2429.28,562.738 2441.98,575.458 2454.67,588.297 2467.36,601.257 2480.05,614.339 2492.75,627.543 2505.44,640.872 2518.13,654.326 2530.82,667.907 2543.52,681.615 2556.21,695.453 2568.9,709.421 2581.59,723.521 2594.29,737.754 2606.98,752.122 2619.67,766.625 2632.36,781.265 2645.06,796.044 2657.75,810.963 2670.44,826.023 2683.13,841.226 2695.83,856.572 2708.52,872.065 2721.21,887.704 2733.9,903.492 2746.6,919.43 2759.29,935.519 2771.98,951.762 2784.67,968.159 2797.37,984.712 2810.06,1001.42 2822.75,1018.29 2835.44,1035.32 2848.14,1052.52 2860.83,1069.87 2873.52,1087.4 2886.21,1105.09 2898.91,1122.94 2911.6,1140.97 2924.29,1159.18 2936.98,1177.55 2949.68,1196.1 2962.37,1214.83 2975.06,1233.74 2987.75,1252.83 3000.45,1272.11 3013.14,1291.57 3025.83,1311.21 3038.52,1331.04 3051.22,1351.07 3063.91,1371.28 3076.6,1391.69 3089.29,1412.3 3101.99,1433.11 3114.68,1454.11 "/>
<path clip-path="url(#clip820)" d="M2899.55 199.186 L3107.91 199.186 L3107.91 95.5056 L2899.55 95.5056  Z" fill="#ffffff" fill-rule="evenodd" fill-opacity="1"/>
<polyline clip-path="url(#clip820)" style="stroke:#000000; stroke-linecap:round; stroke-linejoin:round; stroke-width:4; stroke-opacity:1; fill:none" points="2899.55,199.186 3107.91,199.186 3107.91,95.5056 2899.55,95.5056 2899.55,199.186 "/>
<polyline clip-path="url(#clip820)" style="stroke:#009af9; stroke-linecap:round; stroke-linejoin:round; stroke-width:4; stroke-opacity:1; fill:none" points="2914.5,147.346 3004.19,147.346 "/>
<path clip-path="url(#clip820)" d="M3032.54 151.593 Q3027.38 151.593 3025.39 152.774 Q3023.4 153.954 3023.4 156.802 Q3023.4 159.07 3024.88 160.413 Q3026.39 161.732 3028.96 161.732 Q3032.5 161.732 3034.63 159.232 Q3036.78 156.709 3036.78 152.542 L3036.78 151.593 L3032.54 151.593 M3041.04 149.834 L3041.04 164.626 L3036.78 164.626 L3036.78 160.69 Q3035.32 163.051 3033.15 164.186 Q3030.97 165.297 3027.82 165.297 Q3023.84 165.297 3021.48 163.075 Q3019.14 160.829 3019.14 157.079 Q3019.14 152.704 3022.06 150.482 Q3025 148.26 3030.81 148.26 L3036.78 148.26 L3036.78 147.843 Q3036.78 144.903 3034.84 143.306 Q3032.91 141.686 3029.42 141.686 Q3027.2 141.686 3025.09 142.218 Q3022.98 142.751 3021.04 143.815 L3021.04 139.88 Q3023.38 138.978 3025.58 138.538 Q3027.78 138.075 3029.86 138.075 Q3035.48 138.075 3038.26 140.991 Q3041.04 143.908 3041.04 149.834 Z" fill="#000000" fill-rule="nonzero" fill-opacity="1" /><path clip-path="url(#clip820)" d="M3051.22 160.69 L3058.86 160.69 L3058.86 134.325 L3050.55 135.991 L3050.55 131.732 L3058.82 130.066 L3063.49 130.066 L3063.49 160.69 L3071.13 160.69 L3071.13 164.626 L3051.22 164.626 L3051.22 160.69 Z" fill="#000000" fill-rule="nonzero" fill-opacity="1" /><path clip-path="url(#clip820)" d="M3084.19 131.339 L3084.19 138.7 L3092.96 138.7 L3092.96 142.01 L3084.19 142.01 L3084.19 156.084 Q3084.19 159.255 3085.04 160.158 Q3085.92 161.061 3088.59 161.061 L3092.96 161.061 L3092.96 164.626 L3088.59 164.626 Q3083.65 164.626 3081.78 162.797 Q3079.9 160.945 3079.9 156.084 L3079.9 142.01 L3076.78 142.01 L3076.78 138.7 L3079.9 138.7 L3079.9 131.339 L3084.19 131.339 Z" fill="#000000" fill-rule="nonzero" fill-opacity="1" /></svg>