<?xml version="1.0" encoding="utf-8"?>
<svg xmlns="http://www.w3.org/2000/svg" xmlns:xlink="http://www.w3.org/1999/xlink" width="800" height="400" viewBox="0 0 3200 1600">
<defs>
  <clipPath id="clip270">
    <rect x="0" y="0" width="3200" height="1600"/>
  </clipPath>
</defs>
<path clip-path="url(#clip270)" d="M0 1600 L3200 1600 L3200 0 L0 0  Z" fill="#ffffff" fill-rule="evenodd" fill-opacity="1"/>
<defs>
  <clipPath id="clip271">
    <rect x="640" y="0" width="2241" height="1600"/>
  </clipPath>
</defs>
<path clip-path="url(#clip270)" d="M432.294 1495.09 L1627.56 1495.09 L1627.56 47.2441 L432.294 47.2441  Z" fill="#ffffff" fill-rule="evenodd" fill-opacity="1"/>
<defs>
  <clipPath id="clip272">
    <rect x="432" y="47" width="1196" height="1449"/>
  </clipPath>
</defs>
<polyline clip-path="url(#clip272)" style="stroke:#000000; stroke-linecap:round; stroke-linejoin:round; stroke-width:2; stroke-opacity:0.1; fill:none" points="454.846,1495.09 454.846,47.2441 "/>
<polyline clip-path="url(#clip272)" style="stroke:#000000; stroke-linecap:round; stroke-linejoin:round; stroke-width:2; stroke-opacity:0.1; fill:none" points="736.749,1495.09 736.749,47.2441 "/>
<polyline clip-path="url(#clip272)" style="stroke:#000000; stroke-linecap:round; stroke-linejoin:round; stroke-width:2; stroke-opacity:0.1; fill:none" points="1018.65,1495.09 1018.65,47.2441 "/>
<polyline clip-path="url(#clip272)" style="stroke:#000000; stroke-linecap:round; stroke-linejoin:round; stroke-width:2; stroke-opacity:0.1; fill:none" points="1300.56,1495.09 1300.56,47.2441 "/>
<polyline clip-path="url(#clip272)" style="stroke:#000000; stroke-linecap:round; stroke-linejoin:round; stroke-width:2; stroke-opacity:0.1; fill:none" points="1582.46,1495.09 1582.46,47.2441 "/>
<polyline clip-path="url(#clip270)" style="stroke:#000000; stroke-linecap:round; stroke-linejoin:round; stroke-width:4; stroke-opacity:1; fill:none" points="432.294,1495.09 1627.56,1495.09 "/>
<polyline clip-path="url(#clip270)" style="stroke:#000000; stroke-linecap:round; stroke-linejoin:round; stroke-width:4; stroke-opacity:1; fill:none" points="454.846,1495.09 454.846,1476.19 "/>
<polyline clip-path="url(#clip270)" style="stroke:#000000; stroke-linecap:round; stroke-linejoin:round; stroke-width:4; stroke-opacity:1; fill:none" points="736.749,1495.09 736.749,1476.19 "/>
<polyline clip-path="url(#clip270)" style="stroke:#000000; stroke-linecap:round; stroke-linejoin:round; stroke-width:4; stroke-opacity:1; fill:none" points="1018.65,1495.09 1018.65,1476.19 "/>
<polyline clip-path="url(#clip270)" style="stroke:#000000; stroke-linecap:round; stroke-linejoin:round; stroke-width:4; stroke-opacity:1; fill:none" points="1300.56,1495.09 1300.56,1476.19 "/>
<polyline clip-path="url(#clip270)" style="stroke:#000000; stroke-linecap:round; stroke-linejoin:round; stroke-width:4; stroke-opacity:1; fill:none" points="1582.46,1495.09 1582.46,1476.19 "/>
<path clip-path="url(#clip270)" d="M454.846 1532.41 Q451.235 1532.41 449.406 1535.97 Q447.601 1539.51 447.601 1546.64 Q447.601 1553.75 449.406 1557.31 Q451.235 1560.86 454.846 1560.86 Q458.48 1560.86 460.286 1557.31 Q462.114 1553.75 462.114 1546.64 Q462.114 1539.51 460.286 1535.97 Q458.48 1532.41 454.846 1532.41 M454.846 1528.7 Q460.656 1528.7 463.712 1533.31 Q466.79 1537.89 466.79 1546.64 Q466.79 1555.37 463.712 1559.98 Q460.656 1564.56 454.846 1564.56 Q449.036 1564.56 445.957 1559.98 Q442.901 1555.37 442.901 1546.64 Q442.901 1537.89 445.957 1533.31 Q449.036 1528.7 454.846 1528.7 Z" fill="#000000" fill-rule="nonzero" fill-opacity="1" /><path clip-path="url(#clip270)" d="M716.02 1559.95 L732.34 1559.95 L732.34 1563.89 L710.395 1563.89 L710.395 1559.95 Q713.057 1557.2 717.641 1552.57 Q722.247 1547.92 723.428 1546.57 Q725.673 1544.05 726.553 1542.31 Q727.455 1540.55 727.455 1538.86 Q727.455 1536.11 725.511 1534.37 Q723.59 1532.64 720.488 1532.64 Q718.289 1532.64 715.835 1533.4 Q713.405 1534.17 710.627 1535.72 L710.627 1530.99 Q713.451 1529.86 715.905 1529.28 Q718.358 1528.7 720.395 1528.7 Q725.766 1528.7 728.96 1531.39 Q732.154 1534.07 732.154 1538.56 Q732.154 1540.69 731.344 1542.61 Q730.557 1544.51 728.451 1547.11 Q727.872 1547.78 724.77 1550.99 Q721.668 1554.19 716.02 1559.95 Z" fill="#000000" fill-rule="nonzero" fill-opacity="1" /><path clip-path="url(#clip270)" d="M742.201 1529.33 L760.557 1529.33 L760.557 1533.26 L746.483 1533.26 L746.483 1541.74 Q747.502 1541.39 748.52 1541.23 Q749.539 1541.04 750.557 1541.04 Q756.344 1541.04 759.724 1544.21 Q763.103 1547.38 763.103 1552.8 Q763.103 1558.38 759.631 1561.48 Q756.159 1564.56 749.84 1564.56 Q747.664 1564.56 745.395 1564.19 Q743.15 1563.82 740.742 1563.08 L740.742 1558.38 Q742.826 1559.51 745.048 1560.07 Q747.27 1560.62 749.747 1560.62 Q753.752 1560.62 756.09 1558.52 Q758.427 1556.41 758.427 1552.8 Q758.427 1549.19 756.09 1547.08 Q753.752 1544.98 749.747 1544.98 Q747.872 1544.98 745.997 1545.39 Q744.145 1545.81 742.201 1546.69 L742.201 1529.33 Z" fill="#000000" fill-rule="nonzero" fill-opacity="1" /><path clip-path="url(#clip270)" d="M993.352 1529.33 L1011.71 1529.33 L1011.71 1533.26 L997.634 1533.26 L997.634 1541.74 Q998.653 1541.39 999.672 1541.23 Q1000.69 1541.04 1001.71 1541.04 Q1007.5 1541.04 1010.88 1544.21 Q1014.25 1547.38 1014.25 1552.8 Q1014.25 1558.38 1010.78 1561.48 Q1007.31 1564.56 1000.99 1564.56 Q998.815 1564.56 996.547 1564.19 Q994.301 1563.82 991.894 1563.08 L991.894 1558.38 Q993.977 1559.51 996.199 1560.07 Q998.422 1560.62 1000.9 1560.62 Q1004.9 1560.62 1007.24 1558.52 Q1009.58 1556.41 1009.58 1552.8 Q1009.58 1549.19 1007.24 1547.08 Q1004.9 1544.98 1000.9 1544.98 Q999.023 1544.98 997.148 1545.39 Q995.297 1545.81 993.352 1546.69 L993.352 1529.33 Z" fill="#000000" fill-rule="nonzero" fill-opacity="1" /><path clip-path="url(#clip270)" d="M1033.47 1532.41 Q1029.86 1532.41 1028.03 1535.97 Q1026.22 1539.51 1026.22 1546.64 Q1026.22 1553.75 1028.03 1557.31 Q1029.86 1560.86 1033.47 1560.86 Q1037.1 1560.86 1038.91 1557.31 Q1040.74 1553.75 1040.74 1546.64 Q1040.74 1539.51 1038.91 1535.97 Q1037.1 1532.41 1033.47 1532.41 M1033.47 1528.7 Q1039.28 1528.7 1042.33 1533.31 Q1045.41 1537.89 1045.41 1546.64 Q1045.41 1555.37 1042.33 1559.98 Q1039.28 1564.56 1033.47 1564.56 Q1027.66 1564.56 1024.58 1559.98 Q1021.52 1555.37 1021.52 1546.64 Q1021.52 1537.89 1024.58 1533.31 Q1027.66 1528.7 1033.47 1528.7 Z" fill="#000000" fill-rule="nonzero" fill-opacity="1" /><path clip-path="url(#clip270)" d="M1274.41 1529.33 L1296.63 1529.33 L1296.63 1531.32 L1284.09 1563.89 L1279.2 1563.89 L1291.01 1533.26 L1274.41 1533.26 L1274.41 1529.33 Z" fill="#000000" fill-rule="nonzero" fill-opacity="1" /><path clip-path="url(#clip270)" d="M1305.8 1529.33 L1324.16 1529.33 L1324.16 1533.26 L1310.08 1533.26 L1310.08 1541.74 Q1311.1 1541.39 1312.12 1541.23 Q1313.14 1541.04 1314.16 1541.04 Q1319.94 1541.04 1323.32 1544.21 Q1326.7 1547.38 1326.7 1552.8 Q1326.7 1558.38 1323.23 1561.48 Q1319.76 1564.56 1313.44 1564.56 Q1311.26 1564.56 1308.99 1564.19 Q1306.75 1563.82 1304.34 1563.08 L1304.34 1558.38 Q1306.42 1559.51 1308.65 1560.07 Q1310.87 1560.62 1313.35 1560.62 Q1317.35 1560.62 1319.69 1558.52 Q1322.03 1556.41 1322.03 1552.8 Q1322.03 1549.19 1319.69 1547.08 Q1317.35 1544.98 1313.35 1544.98 Q1311.47 1544.98 1309.6 1545.39 Q1307.74 1545.81 1305.8 1546.69 L1305.8 1529.33 Z" fill="#000000" fill-rule="nonzero" fill-opacity="1" /><path clip-path="url(#clip270)" d="M1542.07 1559.95 L1549.71 1559.95 L1549.71 1533.59 L1541.4 1535.25 L1541.4 1530.99 L1549.66 1529.33 L1554.34 1529.33 L1554.34 1559.95 L1561.97 1559.95 L1561.97 1563.89 L1542.07 1563.89 L1542.07 1559.95 Z" fill="#000000" fill-rule="nonzero" fill-opacity="1" /><path clip-path="url(#clip270)" d="M1581.42 1532.41 Q1577.81 1532.41 1575.98 1535.97 Q1574.17 1539.51 1574.17 1546.64 Q1574.17 1553.75 1575.98 1557.31 Q1577.81 1560.86 1581.42 1560.86 Q1585.05 1560.86 1586.86 1557.31 Q1588.69 1553.75 1588.69 1546.64 Q1588.69 1539.51 1586.86 1535.97 Q1585.05 1532.41 1581.42 1532.41 M1581.42 1528.7 Q1587.23 1528.7 1590.28 1533.31 Q1593.36 1537.89 1593.36 1546.64 Q1593.36 1555.37 1590.28 1559.98 Q1587.23 1564.56 1581.42 1564.56 Q1575.61 1564.56 1572.53 1559.98 Q1569.47 1555.37 1569.47 1546.64 Q1569.47 1537.89 1572.53 1533.31 Q1575.61 1528.7 1581.42 1528.7 Z" fill="#000000" fill-rule="nonzero" fill-opacity="1" /><path clip-path="url(#clip270)" d="M1611.58 1532.41 Q1607.97 1532.41 1606.14 1535.97 Q1604.33 1539.51 1604.33 1546.64 Q1604.33 1553.75 1606.14 1557.31 Q1607.97 1560.86 1611.58 1560.86 Q1615.21 1560.86 1617.02 1557.31 Q1618.85 1553.75 1618.85 1546.64 Q1618.85 1539.51 1617.02 1535.97 Q1615.21 1532.41 1611.58 1532.41 M1611.58 1528.7 Q1617.39 1528.7 1620.45 1533.31 Q1623.52 1537.89 1623.52 1546.64 Q1623.52 1555.37 1620.45 1559.98 Q1617.39 1564.56 1611.58 1564.56 Q1605.77 1564.56 1602.69 1559.98 Q1599.64 1555.37 1599.64 1546.64 Q1599.64 1537.89 1602.69 1533.31 Q1605.77 1528.7 1611.58 1528.7 Z" fill="#000000" fill-rule="nonzero" fill-opacity="1" /><polyline clip-path="url(#clip272)" style="stroke:#000000; stroke-linecap:round; stroke-linejoin:round; stroke-width:2; stroke-opacity:0.1; fill:none" points="432.294,1402.23 1627.56,1402.23 "/>
<polyline clip-path="url(#clip272)" style="stroke:#000000; stroke-linecap:round; stroke-linejoin:round; stroke-width:2; stroke-opacity:0.1; fill:none" points="432.294,1154.11 1627.56,1154.11 "/>
<polyline clip-path="url(#clip272)" style="stroke:#000000; stroke-linecap:round; stroke-linejoin:round; stroke-width:2; stroke-opacity:0.1; fill:none" points="432.294,905.99 1627.56,905.99 "/>
<polyline clip-path="url(#clip272)" style="stroke:#000000; stroke-linecap:round; stroke-linejoin:round; stroke-width:2; stroke-opacity:0.1; fill:none" points="432.294,657.871 1627.56,657.871 "/>
<polyline clip-path="url(#clip272)" style="stroke:#000000; stroke-linecap:round; stroke-linejoin:round; stroke-width:2; stroke-opacity:0.1; fill:none" points="432.294,409.752 1627.56,409.752 "/>
<polyline clip-path="url(#clip272)" style="stroke:#000000; stroke-linecap:round; stroke-linejoin:round; stroke-width:2; stroke-opacity:0.1; fill:none" points="432.294,161.633 1627.56,161.633 "/>
<polyline clip-path="url(#clip270)" style="stroke:#000000; stroke-linecap:round; stroke-linejoin:round; stroke-width:4; stroke-opacity:1; fill:none" points="432.294,1495.09 432.294,47.2441 "/>
<polyline clip-path="url(#clip270)" style="stroke:#000000; stroke-linecap:round; stroke-linejoin:round; stroke-width:4; stroke-opacity:1; fill:none" points="432.294,1402.23 451.191,1402.23 "/>
<polyline clip-path="url(#clip270)" style="stroke:#000000; stroke-linecap:round; stroke-linejoin:round; stroke-width:4; stroke-opacity:1; fill:none" points="432.294,1154.11 451.191,1154.11 "/>
<polyline clip-path="url(#clip270)" style="stroke:#000000; stroke-linecap:round; stroke-linejoin:round; stroke-width:4; stroke-opacity:1; fill:none" points="432.294,905.99 451.191,905.99 "/>
<polyline clip-path="url(#clip270)" style="stroke:#000000; stroke-linecap:round; stroke-linejoin:round; stroke-width:4; stroke-opacity:1; fill:none" points="432.294,657.871 451.191,657.871 "/>
<polyline clip-path="url(#clip270)" style="stroke:#000000; stroke-linecap:round; stroke-linejoin:round; stroke-width:4; stroke-opacity:1; fill:none" points="432.294,409.752 451.191,409.752 "/>
<polyline clip-path="url(#clip270)" style="stroke:#000000; stroke-linecap:round; stroke-linejoin:round; stroke-width:4; stroke-opacity:1; fill:none" points="432.294,161.633 451.191,161.633 "/>
<path clip-path="url(#clip270)" d="M47.6634 1422.02 L55.3023 1422.02 L55.3023 1395.66 L46.9921 1397.32 L46.9921 1393.06 L55.256 1391.4 L59.9319 1391.4 L59.9319 1422.02 L67.5707 1422.02 L67.5707 1425.96 L47.6634 1425.96 L47.6634 1422.02 Z" fill="#000000" fill-rule="nonzero" fill-opacity="1" /><path clip-path="url(#clip270)" d="M77.0151 1420.08 L81.8993 1420.08 L81.8993 1425.96 L77.0151 1425.96 L77.0151 1420.08 Z" fill="#000000" fill-rule="nonzero" fill-opacity="1" /><path clip-path="url(#clip270)" d="M92.8947 1422.02 L100.534 1422.02 L100.534 1395.66 L92.2234 1397.32 L92.2234 1393.06 L100.487 1391.4 L105.163 1391.4 L105.163 1422.02 L112.802 1422.02 L112.802 1425.96 L92.8947 1425.96 L92.8947 1422.02 Z" fill="#000000" fill-rule="nonzero" fill-opacity="1" /><path clip-path="url(#clip270)" d="M132.246 1394.47 Q128.635 1394.47 126.807 1398.04 Q125.001 1401.58 125.001 1408.71 Q125.001 1415.82 126.807 1419.38 Q128.635 1422.92 132.246 1422.92 Q135.881 1422.92 137.686 1419.38 Q139.515 1415.82 139.515 1408.71 Q139.515 1401.58 137.686 1398.04 Q135.881 1394.47 132.246 1394.47 M132.246 1390.77 Q138.056 1390.77 141.112 1395.38 Q144.191 1399.96 144.191 1408.71 Q144.191 1417.44 141.112 1422.04 Q138.056 1426.63 132.246 1426.63 Q126.436 1426.63 123.357 1422.04 Q120.302 1417.44 120.302 1408.71 Q120.302 1399.96 123.357 1395.38 Q126.436 1390.77 132.246 1390.77 Z" fill="#000000" fill-rule="nonzero" fill-opacity="1" /><path clip-path="url(#clip270)" d="M162.408 1394.47 Q158.797 1394.47 156.968 1398.04 Q155.163 1401.58 155.163 1408.71 Q155.163 1415.82 156.968 1419.38 Q158.797 1422.92 162.408 1422.92 Q166.042 1422.92 167.848 1419.38 Q169.677 1415.82 169.677 1408.71 Q169.677 1401.58 167.848 1398.04 Q166.042 1394.47 162.408 1394.47 M162.408 1390.77 Q168.218 1390.77 171.274 1395.38 Q174.353 1399.96 174.353 1408.71 Q174.353 1417.44 171.274 1422.04 Q168.218 1426.63 162.408 1426.63 Q156.598 1426.63 153.519 1422.04 Q150.464 1417.44 150.464 1408.71 Q150.464 1399.96 153.519 1395.38 Q156.598 1390.77 162.408 1390.77 Z" fill="#000000" fill-rule="nonzero" fill-opacity="1" /><path clip-path="url(#clip270)" d="M182.709 1425.24 L182.709 1420.98 Q184.468 1421.81 186.274 1422.25 Q188.079 1422.69 189.815 1422.69 Q194.445 1422.69 196.876 1419.59 Q199.329 1416.47 199.676 1410.12 Q198.334 1412.11 196.274 1413.18 Q194.214 1414.24 191.714 1414.24 Q186.528 1414.24 183.496 1411.12 Q180.487 1407.97 180.487 1402.53 Q180.487 1397.21 183.635 1393.99 Q186.783 1390.77 192.014 1390.77 Q198.01 1390.77 201.158 1395.38 Q204.329 1399.96 204.329 1408.71 Q204.329 1416.88 200.44 1421.77 Q196.575 1426.63 190.024 1426.63 Q188.265 1426.63 186.459 1426.28 Q184.653 1425.93 182.709 1425.24 M192.014 1410.59 Q195.163 1410.59 196.991 1408.43 Q198.843 1406.28 198.843 1402.53 Q198.843 1398.8 196.991 1396.65 Q195.163 1394.47 192.014 1394.47 Q188.866 1394.47 187.015 1396.65 Q185.186 1398.8 185.186 1402.53 Q185.186 1406.28 187.015 1408.43 Q188.866 1410.59 192.014 1410.59 Z" fill="#000000" fill-rule="nonzero" fill-opacity="1" /><path clip-path="url(#clip270)" d="M211.551 1391.4 L233.774 1391.4 L233.774 1393.39 L221.227 1425.96 L216.343 1425.96 L228.149 1395.33 L211.551 1395.33 L211.551 1391.4 Z" fill="#000000" fill-rule="nonzero" fill-opacity="1" /><path clip-path="url(#clip270)" d="M252.894 1394.47 Q249.283 1394.47 247.454 1398.04 Q245.648 1401.58 245.648 1408.71 Q245.648 1415.82 247.454 1419.38 Q249.283 1422.92 252.894 1422.92 Q256.528 1422.92 258.334 1419.38 Q260.162 1415.82 260.162 1408.71 Q260.162 1401.58 258.334 1398.04 Q256.528 1394.47 252.894 1394.47 M252.894 1390.77 Q258.704 1390.77 261.759 1395.38 Q264.838 1399.96 264.838 1408.71 Q264.838 1417.44 261.759 1422.04 Q258.704 1426.63 252.894 1426.63 Q247.084 1426.63 244.005 1422.04 Q240.949 1417.44 240.949 1408.71 Q240.949 1399.96 244.005 1395.38 Q247.084 1390.77 252.894 1390.77 Z" fill="#000000" fill-rule="nonzero" fill-opacity="1" /><path clip-path="url(#clip270)" d="M301.227 1400.49 L290.648 1411.12 L301.227 1421.7 L298.472 1424.5 L287.847 1413.87 L277.222 1424.5 L274.491 1421.7 L285.046 1411.12 L274.491 1400.49 L277.222 1397.69 L287.847 1408.32 L298.472 1397.69 L301.227 1400.49 Z" fill="#000000" fill-rule="nonzero" fill-opacity="1" /><path clip-path="url(#clip270)" d="M313.588 1422.02 L321.227 1422.02 L321.227 1395.66 L312.917 1397.32 L312.917 1393.06 L321.18 1391.4 L325.856 1391.4 L325.856 1422.02 L333.495 1422.02 L333.495 1425.96 L313.588 1425.96 L313.588 1422.02 Z" fill="#000000" fill-rule="nonzero" fill-opacity="1" /><path clip-path="url(#clip270)" d="M352.94 1394.47 Q349.328 1394.47 347.5 1398.04 Q345.694 1401.58 345.694 1408.71 Q345.694 1415.82 347.5 1419.38 Q349.328 1422.92 352.94 1422.92 Q356.574 1422.92 358.379 1419.38 Q360.208 1415.82 360.208 1408.71 Q360.208 1401.58 358.379 1398.04 Q356.574 1394.47 352.94 1394.47 M352.94 1390.77 Q358.75 1390.77 361.805 1395.38 Q364.884 1399.96 364.884 1408.71 Q364.884 1417.44 361.805 1422.04 Q358.75 1426.63 352.94 1426.63 Q347.129 1426.63 344.051 1422.04 Q340.995 1417.44 340.995 1408.71 Q340.995 1399.96 344.051 1395.38 Q347.129 1390.77 352.94 1390.77 Z" fill="#000000" fill-rule="nonzero" fill-opacity="1" /><path clip-path="url(#clip270)" d="M374.589 1372.97 Q371.655 1372.97 370.169 1375.86 Q368.702 1378.74 368.702 1384.53 Q368.702 1390.31 370.169 1393.2 Q371.655 1396.08 374.589 1396.08 Q377.542 1396.08 379.009 1393.2 Q380.494 1390.31 380.494 1384.53 Q380.494 1378.74 379.009 1375.86 Q377.542 1372.97 374.589 1372.97 M374.589 1369.96 Q379.31 1369.96 381.792 1373.7 Q384.294 1377.42 384.294 1384.53 Q384.294 1391.62 381.792 1395.37 Q379.31 1399.09 374.589 1399.09 Q369.868 1399.09 367.367 1395.37 Q364.884 1391.62 364.884 1384.53 Q364.884 1377.42 367.367 1373.7 Q369.868 1369.96 374.589 1369.96 Z" fill="#000000" fill-rule="nonzero" fill-opacity="1" /><path clip-path="url(#clip270)" d="M47.6634 1173.9 L55.3023 1173.9 L55.3023 1147.54 L46.9921 1149.2 L46.9921 1144.94 L55.256 1143.28 L59.9319 1143.28 L59.9319 1173.9 L67.5707 1173.9 L67.5707 1177.84 L47.6634 1177.84 L47.6634 1173.9 Z" fill="#000000" fill-rule="nonzero" fill-opacity="1" /><path clip-path="url(#clip270)" d="M77.0151 1171.96 L81.8993 1171.96 L81.8993 1177.84 L77.0151 1177.84 L77.0151 1171.96 Z" fill="#000000" fill-rule="nonzero" fill-opacity="1" /><path clip-path="url(#clip270)" d="M92.8947 1173.9 L100.534 1173.9 L100.534 1147.54 L92.2234 1149.2 L92.2234 1144.94 L100.487 1143.28 L105.163 1143.28 L105.163 1173.9 L112.802 1173.9 L112.802 1177.84 L92.8947 1177.84 L92.8947 1173.9 Z" fill="#000000" fill-rule="nonzero" fill-opacity="1" /><path clip-path="url(#clip270)" d="M132.246 1146.36 Q128.635 1146.36 126.807 1149.92 Q125.001 1153.46 125.001 1160.59 Q125.001 1167.7 126.807 1171.26 Q128.635 1174.8 132.246 1174.8 Q135.881 1174.8 137.686 1171.26 Q139.515 1167.7 139.515 1160.59 Q139.515 1153.46 137.686 1149.92 Q135.881 1146.36 132.246 1146.36 M132.246 1142.65 Q138.056 1142.65 141.112 1147.26 Q144.191 1151.84 144.191 1160.59 Q144.191 1169.32 141.112 1173.92 Q138.056 1178.51 132.246 1178.51 Q126.436 1178.51 123.357 1173.92 Q120.302 1169.32 120.302 1160.59 Q120.302 1151.84 123.357 1147.26 Q126.436 1142.65 132.246 1142.65 Z" fill="#000000" fill-rule="nonzero" fill-opacity="1" /><path clip-path="url(#clip270)" d="M162.408 1146.36 Q158.797 1146.36 156.968 1149.92 Q155.163 1153.46 155.163 1160.59 Q155.163 1167.7 156.968 1171.26 Q158.797 1174.8 162.408 1174.8 Q166.042 1174.8 167.848 1171.26 Q169.677 1167.7 169.677 1160.59 Q169.677 1153.46 167.848 1149.92 Q166.042 1146.36 162.408 1146.36 M162.408 1142.65 Q168.218 1142.65 171.274 1147.26 Q174.353 1151.84 174.353 1160.59 Q174.353 1169.32 171.274 1173.92 Q168.218 1178.51 162.408 1178.51 Q156.598 1178.51 153.519 1173.92 Q150.464 1169.32 150.464 1160.59 Q150.464 1151.84 153.519 1147.26 Q156.598 1142.65 162.408 1142.65 Z" fill="#000000" fill-rule="nonzero" fill-opacity="1" /><path clip-path="url(#clip270)" d="M182.709 1177.12 L182.709 1172.86 Q184.468 1173.69 186.274 1174.13 Q188.079 1174.57 189.815 1174.57 Q194.445 1174.57 196.876 1171.47 Q199.329 1168.35 199.676 1162 Q198.334 1163.99 196.274 1165.06 Q194.214 1166.12 191.714 1166.12 Q186.528 1166.12 183.496 1163 Q180.487 1159.85 180.487 1154.41 Q180.487 1149.09 183.635 1145.87 Q186.783 1142.65 192.014 1142.65 Q198.01 1142.65 201.158 1147.26 Q204.329 1151.84 204.329 1160.59 Q204.329 1168.76 200.44 1173.65 Q196.575 1178.51 190.024 1178.51 Q188.265 1178.51 186.459 1178.16 Q184.653 1177.81 182.709 1177.12 M192.014 1162.47 Q195.163 1162.47 196.991 1160.31 Q198.843 1158.16 198.843 1154.41 Q198.843 1150.68 196.991 1148.53 Q195.163 1146.36 192.014 1146.36 Q188.866 1146.36 187.015 1148.53 Q185.186 1150.68 185.186 1154.41 Q185.186 1158.16 187.015 1160.31 Q188.866 1162.47 192.014 1162.47 Z" fill="#000000" fill-rule="nonzero" fill-opacity="1" /><path clip-path="url(#clip270)" d="M222.732 1161.42 Q219.399 1161.42 217.477 1163.21 Q215.579 1164.99 215.579 1168.11 Q215.579 1171.24 217.477 1173.02 Q219.399 1174.8 222.732 1174.8 Q226.065 1174.8 227.987 1173.02 Q229.908 1171.22 229.908 1168.11 Q229.908 1164.99 227.987 1163.21 Q226.088 1161.42 222.732 1161.42 M218.056 1159.43 Q215.047 1158.69 213.357 1156.63 Q211.69 1154.57 211.69 1151.61 Q211.69 1147.47 214.63 1145.06 Q217.593 1142.65 222.732 1142.65 Q227.894 1142.65 230.834 1145.06 Q233.774 1147.47 233.774 1151.61 Q233.774 1154.57 232.084 1156.63 Q230.417 1158.69 227.431 1159.43 Q230.811 1160.22 232.686 1162.51 Q234.584 1164.8 234.584 1168.11 Q234.584 1173.14 231.505 1175.82 Q228.449 1178.51 222.732 1178.51 Q217.014 1178.51 213.936 1175.82 Q210.88 1173.14 210.88 1168.11 Q210.88 1164.8 212.778 1162.51 Q214.676 1160.22 218.056 1159.43 M216.343 1152.05 Q216.343 1154.74 218.01 1156.24 Q219.7 1157.74 222.732 1157.74 Q225.741 1157.74 227.431 1156.24 Q229.144 1154.74 229.144 1152.05 Q229.144 1149.36 227.431 1147.86 Q225.741 1146.36 222.732 1146.36 Q219.7 1146.36 218.01 1147.86 Q216.343 1149.36 216.343 1152.05 Z" fill="#000000" fill-rule="nonzero" fill-opacity="1" /><path clip-path="url(#clip270)" d="M252.894 1146.36 Q249.283 1146.36 247.454 1149.92 Q245.648 1153.46 245.648 1160.59 Q245.648 1167.7 247.454 1171.26 Q249.283 1174.8 252.894 1174.8 Q256.528 1174.8 258.334 1171.26 Q260.162 1167.7 260.162 1160.59 Q260.162 1153.46 258.334 1149.92 Q256.528 1146.36 252.894 1146.36 M252.894 1142.65 Q258.704 1142.65 261.759 1147.26 Q264.838 1151.84 264.838 1160.59 Q264.838 1169.32 261.759 1173.92 Q258.704 1178.51 252.894 1178.51 Q247.084 1178.51 244.005 1173.92 Q240.949 1169.32 240.949 1160.59 Q240.949 1151.84 244.005 1147.26 Q247.084 1142.65 252.894 1142.65 Z" fill="#000000" fill-rule="nonzero" fill-opacity="1" /><path clip-path="url(#clip270)" d="M301.227 1152.37 L290.648 1163 L301.227 1173.58 L298.472 1176.38 L287.847 1165.75 L277.222 1176.38 L274.491 1173.58 L285.046 1163 L274.491 1152.37 L277.222 1149.57 L287.847 1160.2 L298.472 1149.57 L301.227 1152.37 Z" fill="#000000" fill-rule="nonzero" fill-opacity="1" /><path clip-path="url(#clip270)" d="M313.588 1173.9 L321.227 1173.9 L321.227 1147.54 L312.917 1149.2 L312.917 1144.94 L321.18 1143.28 L325.856 1143.28 L325.856 1173.9 L333.495 1173.9 L333.495 1177.84 L313.588 1177.84 L313.588 1173.9 Z" fill="#000000" fill-rule="nonzero" fill-opacity="1" /><path clip-path="url(#clip270)" d="M352.94 1146.36 Q349.328 1146.36 347.5 1149.92 Q345.694 1153.46 345.694 1160.59 Q345.694 1167.7 347.5 1171.26 Q349.328 1174.8 352.94 1174.8 Q356.574 1174.8 358.379 1171.26 Q360.208 1167.7 360.208 1160.59 Q360.208 1153.46 358.379 1149.92 Q356.574 1146.36 352.94 1146.36 M352.94 1142.65 Q358.75 1142.65 361.805 1147.26 Q364.884 1151.84 364.884 1160.59 Q364.884 1169.32 361.805 1173.92 Q358.75 1178.51 352.94 1178.51 Q347.129 1178.51 344.051 1173.92 Q340.995 1169.32 340.995 1160.59 Q340.995 1151.84 344.051 1147.26 Q347.129 1142.65 352.94 1142.65 Z" fill="#000000" fill-rule="nonzero" fill-opacity="1" /><path clip-path="url(#clip270)" d="M374.589 1124.85 Q371.655 1124.85 370.169 1127.74 Q368.702 1130.62 368.702 1136.41 Q368.702 1142.19 370.169 1145.09 Q371.655 1147.96 374.589 1147.96 Q377.542 1147.96 379.009 1145.09 Q380.494 1142.19 380.494 1136.41 Q380.494 1130.62 379.009 1127.74 Q377.542 1124.85 374.589 1124.85 M374.589 1121.84 Q379.31 1121.84 381.792 1125.58 Q384.294 1129.31 384.294 1136.41 Q384.294 1143.51 381.792 1147.25 Q379.31 1150.97 374.589 1150.97 Q369.868 1150.97 367.367 1147.25 Q364.884 1143.51 364.884 1136.41 Q364.884 1129.31 367.367 1125.58 Q369.868 1121.84 374.589 1121.84 Z" fill="#000000" fill-rule="nonzero" fill-opacity="1" /><path clip-path="url(#clip270)" d="M47.6634 925.783 L55.3023 925.783 L55.3023 899.417 L46.9921 901.084 L46.9921 896.825 L55.256 895.158 L59.9319 895.158 L59.9319 925.783 L67.5707 925.783 L67.5707 929.718 L47.6634 929.718 L47.6634 925.783 Z" fill="#000000" fill-rule="nonzero" fill-opacity="1" /><path clip-path="url(#clip270)" d="M77.0151 923.838 L81.8993 923.838 L81.8993 929.718 L77.0151 929.718 L77.0151 923.838 Z" fill="#000000" fill-rule="nonzero" fill-opacity="1" /><path clip-path="url(#clip270)" d="M92.8947 925.783 L100.534 925.783 L100.534 899.417 L92.2234 901.084 L92.2234 896.825 L100.487 895.158 L105.163 895.158 L105.163 925.783 L112.802 925.783 L112.802 929.718 L92.8947 929.718 L92.8947 925.783 Z" fill="#000000" fill-rule="nonzero" fill-opacity="1" /><path clip-path="url(#clip270)" d="M132.246 898.237 Q128.635 898.237 126.807 901.801 Q125.001 905.343 125.001 912.473 Q125.001 919.579 126.807 923.144 Q128.635 926.686 132.246 926.686 Q135.881 926.686 137.686 923.144 Q139.515 919.579 139.515 912.473 Q139.515 905.343 137.686 901.801 Q135.881 898.237 132.246 898.237 M132.246 894.533 Q138.056 894.533 141.112 899.139 Q144.191 903.723 144.191 912.473 Q144.191 921.199 141.112 925.806 Q138.056 930.389 132.246 930.389 Q126.436 930.389 123.357 925.806 Q120.302 921.199 120.302 912.473 Q120.302 903.723 123.357 899.139 Q126.436 894.533 132.246 894.533 Z" fill="#000000" fill-rule="nonzero" fill-opacity="1" /><path clip-path="url(#clip270)" d="M162.408 898.237 Q158.797 898.237 156.968 901.801 Q155.163 905.343 155.163 912.473 Q155.163 919.579 156.968 923.144 Q158.797 926.686 162.408 926.686 Q166.042 926.686 167.848 923.144 Q169.677 919.579 169.677 912.473 Q169.677 905.343 167.848 901.801 Q166.042 898.237 162.408 898.237 M162.408 894.533 Q168.218 894.533 171.274 899.139 Q174.353 903.723 174.353 912.473 Q174.353 921.199 171.274 925.806 Q168.218 930.389 162.408 930.389 Q156.598 930.389 153.519 925.806 Q150.464 921.199 150.464 912.473 Q150.464 903.723 153.519 899.139 Q156.598 894.533 162.408 894.533 Z" fill="#000000" fill-rule="nonzero" fill-opacity="1" /><path clip-path="url(#clip270)" d="M182.709 929 L182.709 924.741 Q184.468 925.574 186.274 926.014 Q188.079 926.454 189.815 926.454 Q194.445 926.454 196.876 923.352 Q199.329 920.227 199.676 913.885 Q198.334 915.875 196.274 916.94 Q194.214 918.005 191.714 918.005 Q186.528 918.005 183.496 914.88 Q180.487 911.732 180.487 906.292 Q180.487 900.968 183.635 897.75 Q186.783 894.533 192.014 894.533 Q198.01 894.533 201.158 899.139 Q204.329 903.723 204.329 912.473 Q204.329 920.644 200.44 925.528 Q196.575 930.389 190.024 930.389 Q188.265 930.389 186.459 930.042 Q184.653 929.695 182.709 929 M192.014 914.348 Q195.163 914.348 196.991 912.195 Q198.843 910.042 198.843 906.292 Q198.843 902.565 196.991 900.412 Q195.163 898.237 192.014 898.237 Q188.866 898.237 187.015 900.412 Q185.186 902.565 185.186 906.292 Q185.186 910.042 187.015 912.195 Q188.866 914.348 192.014 914.348 Z" fill="#000000" fill-rule="nonzero" fill-opacity="1" /><path clip-path="url(#clip270)" d="M212.871 929 L212.871 924.741 Q214.63 925.574 216.436 926.014 Q218.241 926.454 219.977 926.454 Q224.607 926.454 227.037 923.352 Q229.491 920.227 229.838 913.885 Q228.496 915.875 226.436 916.94 Q224.375 918.005 221.875 918.005 Q216.69 918.005 213.658 914.88 Q210.649 911.732 210.649 906.292 Q210.649 900.968 213.797 897.75 Q216.945 894.533 222.176 894.533 Q228.172 894.533 231.32 899.139 Q234.491 903.723 234.491 912.473 Q234.491 920.644 230.602 925.528 Q226.737 930.389 220.186 930.389 Q218.426 930.389 216.621 930.042 Q214.815 929.695 212.871 929 M222.176 914.348 Q225.325 914.348 227.153 912.195 Q229.005 910.042 229.005 906.292 Q229.005 902.565 227.153 900.412 Q225.325 898.237 222.176 898.237 Q219.028 898.237 217.176 900.412 Q215.348 902.565 215.348 906.292 Q215.348 910.042 217.176 912.195 Q219.028 914.348 222.176 914.348 Z" fill="#000000" fill-rule="nonzero" fill-opacity="1" /><path clip-path="url(#clip270)" d="M252.894 898.237 Q249.283 898.237 247.454 901.801 Q245.648 905.343 245.648 912.473 Q245.648 919.579 247.454 923.144 Q249.283 926.686 252.894 926.686 Q256.528 926.686 258.334 923.144 Q260.162 919.579 260.162 912.473 Q260.162 905.343 258.334 901.801 Q256.528 898.237 252.894 898.237 M252.894 894.533 Q258.704 894.533 261.759 899.139 Q264.838 903.723 264.838 912.473 Q264.838 921.199 261.759 925.806 Q258.704 930.389 252.894 930.389 Q247.084 930.389 244.005 925.806 Q240.949 921.199 240.949 912.473 Q240.949 903.723 244.005 899.139 Q247.084 894.533 252.894 894.533 Z" fill="#000000" fill-rule="nonzero" fill-opacity="1" /><path clip-path="url(#clip270)" d="M301.227 904.255 L290.648 914.88 L301.227 925.459 L298.472 928.26 L287.847 917.635 L277.222 928.26 L274.491 925.459 L285.046 914.88 L274.491 904.255 L277.222 901.454 L287.847 912.079 L298.472 901.454 L301.227 904.255 Z" fill="#000000" fill-rule="nonzero" fill-opacity="1" /><path clip-path="url(#clip270)" d="M313.588 925.783 L321.227 925.783 L321.227 899.417 L312.917 901.084 L312.917 896.825 L321.18 895.158 L325.856 895.158 L325.856 925.783 L333.495 925.783 L333.495 929.718 L313.588 929.718 L313.588 925.783 Z" fill="#000000" fill-rule="nonzero" fill-opacity="1" /><path clip-path="url(#clip270)" d="M352.94 898.237 Q349.328 898.237 347.5 901.801 Q345.694 905.343 345.694 912.473 Q345.694 919.579 347.5 923.144 Q349.328 926.686 352.94 926.686 Q356.574 926.686 358.379 923.144 Q360.208 919.579 360.208 912.473 Q360.208 905.343 358.379 901.801 Q356.574 898.237 352.94 898.237 M352.94 894.533 Q358.75 894.533 361.805 899.139 Q364.884 903.723 364.884 912.473 Q364.884 921.199 361.805 925.806 Q358.75 930.389 352.94 930.389 Q347.129 930.389 344.051 925.806 Q340.995 921.199 340.995 912.473 Q340.995 903.723 344.051 899.139 Q347.129 894.533 352.94 894.533 Z" fill="#000000" fill-rule="nonzero" fill-opacity="1" /><path clip-path="url(#clip270)" d="M374.589 876.729 Q371.655 876.729 370.169 879.625 Q368.702 882.503 368.702 888.296 Q368.702 894.07 370.169 896.966 Q371.655 899.844 374.589 899.844 Q377.542 899.844 379.009 896.966 Q380.494 894.07 380.494 888.296 Q380.494 882.503 379.009 879.625 Q377.542 876.729 374.589 876.729 M374.589 873.72 Q379.31 873.72 381.792 877.462 Q384.294 881.186 384.294 888.296 Q384.294 895.386 381.792 899.129 Q379.31 902.853 374.589 902.853 Q369.868 902.853 367.367 899.129 Q364.884 895.386 364.884 888.296 Q364.884 881.186 367.367 877.462 Q369.868 873.72 374.589 873.72 Z" fill="#000000" fill-rule="nonzero" fill-opacity="1" /><path clip-path="url(#clip270)" d="M47.6634 677.664 L55.3023 677.664 L55.3023 651.298 L46.9921 652.965 L46.9921 648.706 L55.256 647.039 L59.9319 647.039 L59.9319 677.664 L67.5707 677.664 L67.5707 681.599 L47.6634 681.599 L47.6634 677.664 Z" fill="#000000" fill-rule="nonzero" fill-opacity="1" /><path clip-path="url(#clip270)" d="M77.0151 675.719 L81.8993 675.719 L81.8993 681.599 L77.0151 681.599 L77.0151 675.719 Z" fill="#000000" fill-rule="nonzero" fill-opacity="1" /><path clip-path="url(#clip270)" d="M92.8947 677.664 L100.534 677.664 L100.534 651.298 L92.2234 652.965 L92.2234 648.706 L100.487 647.039 L105.163 647.039 L105.163 677.664 L112.802 677.664 L112.802 681.599 L92.8947 681.599 L92.8947 677.664 Z" fill="#000000" fill-rule="nonzero" fill-opacity="1" /><path clip-path="url(#clip270)" d="M132.246 650.118 Q128.635 650.118 126.807 653.682 Q125.001 657.224 125.001 664.354 Q125.001 671.46 126.807 675.025 Q128.635 678.566 132.246 678.566 Q135.881 678.566 137.686 675.025 Q139.515 671.46 139.515 664.354 Q139.515 657.224 137.686 653.682 Q135.881 650.118 132.246 650.118 M132.246 646.414 Q138.056 646.414 141.112 651.02 Q144.191 655.604 144.191 664.354 Q144.191 673.08 141.112 677.687 Q138.056 682.27 132.246 682.27 Q126.436 682.27 123.357 677.687 Q120.302 673.08 120.302 664.354 Q120.302 655.604 123.357 651.02 Q126.436 646.414 132.246 646.414 Z" fill="#000000" fill-rule="nonzero" fill-opacity="1" /><path clip-path="url(#clip270)" d="M153.218 677.664 L160.857 677.664 L160.857 651.298 L152.547 652.965 L152.547 648.706 L160.811 647.039 L165.487 647.039 L165.487 677.664 L173.126 677.664 L173.126 681.599 L153.218 681.599 L153.218 677.664 Z" fill="#000000" fill-rule="nonzero" fill-opacity="1" /><path clip-path="url(#clip270)" d="M192.57 650.118 Q188.959 650.118 187.13 653.682 Q185.325 657.224 185.325 664.354 Q185.325 671.46 187.13 675.025 Q188.959 678.566 192.57 678.566 Q196.204 678.566 198.01 675.025 Q199.839 671.46 199.839 664.354 Q199.839 657.224 198.01 653.682 Q196.204 650.118 192.57 650.118 M192.57 646.414 Q198.38 646.414 201.436 651.02 Q204.514 655.604 204.514 664.354 Q204.514 673.08 201.436 677.687 Q198.38 682.27 192.57 682.27 Q186.76 682.27 183.681 677.687 Q180.626 673.08 180.626 664.354 Q180.626 655.604 183.681 651.02 Q186.76 646.414 192.57 646.414 Z" fill="#000000" fill-rule="nonzero" fill-opacity="1" /><path clip-path="url(#clip270)" d="M222.732 650.118 Q219.121 650.118 217.292 653.682 Q215.487 657.224 215.487 664.354 Q215.487 671.46 217.292 675.025 Q219.121 678.566 222.732 678.566 Q226.366 678.566 228.172 675.025 Q230 671.46 230 664.354 Q230 657.224 228.172 653.682 Q226.366 650.118 222.732 650.118 M222.732 646.414 Q228.542 646.414 231.598 651.02 Q234.676 655.604 234.676 664.354 Q234.676 673.08 231.598 677.687 Q228.542 682.27 222.732 682.27 Q216.922 682.27 213.843 677.687 Q210.788 673.08 210.788 664.354 Q210.788 655.604 213.843 651.02 Q216.922 646.414 222.732 646.414 Z" fill="#000000" fill-rule="nonzero" fill-opacity="1" /><path clip-path="url(#clip270)" d="M252.894 650.118 Q249.283 650.118 247.454 653.682 Q245.648 657.224 245.648 664.354 Q245.648 671.46 247.454 675.025 Q249.283 678.566 252.894 678.566 Q256.528 678.566 258.334 675.025 Q260.162 671.46 260.162 664.354 Q260.162 657.224 258.334 653.682 Q256.528 650.118 252.894 650.118 M252.894 646.414 Q258.704 646.414 261.759 651.02 Q264.838 655.604 264.838 664.354 Q264.838 673.08 261.759 677.687 Q258.704 682.27 252.894 682.27 Q247.084 682.27 244.005 677.687 Q240.949 673.08 240.949 664.354 Q240.949 655.604 244.005 651.02 Q247.084 646.414 252.894 646.414 Z" fill="#000000" fill-rule="nonzero" fill-opacity="1" /><path clip-path="url(#clip270)" d="M301.227 656.136 L290.648 666.761 L301.227 677.34 L298.472 680.141 L287.847 669.516 L277.222 680.141 L274.491 677.34 L285.046 666.761 L274.491 656.136 L277.222 653.335 L287.847 663.96 L298.472 653.335 L301.227 656.136 Z" fill="#000000" fill-rule="nonzero" fill-opacity="1" /><path clip-path="url(#clip270)" d="M313.588 677.664 L321.227 677.664 L321.227 651.298 L312.917 652.965 L312.917 648.706 L321.18 647.039 L325.856 647.039 L325.856 677.664 L333.495 677.664 L333.495 681.599 L313.588 681.599 L313.588 677.664 Z" fill="#000000" fill-rule="nonzero" fill-opacity="1" /><path clip-path="url(#clip270)" d="M352.94 650.118 Q349.328 650.118 347.5 653.682 Q345.694 657.224 345.694 664.354 Q345.694 671.46 347.5 675.025 Q349.328 678.566 352.94 678.566 Q356.574 678.566 358.379 675.025 Q360.208 671.46 360.208 664.354 Q360.208 657.224 358.379 653.682 Q356.574 650.118 352.94 650.118 M352.94 646.414 Q358.75 646.414 361.805 651.02 Q364.884 655.604 364.884 664.354 Q364.884 673.08 361.805 677.687 Q358.75 682.27 352.94 682.27 Q347.129 682.27 344.051 677.687 Q340.995 673.08 340.995 664.354 Q340.995 655.604 344.051 651.02 Q347.129 646.414 352.94 646.414 Z" fill="#000000" fill-rule="nonzero" fill-opacity="1" /><path clip-path="url(#clip270)" d="M374.589 628.61 Q371.655 628.61 370.169 631.506 Q368.702 634.384 368.702 640.177 Q368.702 645.951 370.169 648.847 Q371.655 651.725 374.589 651.725 Q377.542 651.725 379.009 648.847 Q380.494 645.951 380.494 640.177 Q380.494 634.384 379.009 631.506 Q377.542 628.61 374.589 628.61 M374.589 625.601 Q379.31 625.601 381.792 629.343 Q384.294 633.067 384.294 640.177 Q384.294 647.267 381.792 651.01 Q379.31 654.734 374.589 654.734 Q369.868 654.734 367.367 651.01 Q364.884 647.267 364.884 640.177 Q364.884 633.067 367.367 629.343 Q369.868 625.601 374.589 625.601 Z" fill="#000000" fill-rule="nonzero" fill-opacity="1" /><path clip-path="url(#clip270)" d="M47.6634 429.545 L55.3023 429.545 L55.3023 403.179 L46.9921 404.846 L46.9921 400.586 L55.256 398.92 L59.9319 398.92 L59.9319 429.545 L67.5707 429.545 L67.5707 433.48 L47.6634 433.48 L47.6634 429.545 Z" fill="#000000" fill-rule="nonzero" fill-opacity="1" /><path clip-path="url(#clip270)" d="M77.0151 427.6 L81.8993 427.6 L81.8993 433.48 L77.0151 433.48 L77.0151 427.6 Z" fill="#000000" fill-rule="nonzero" fill-opacity="1" /><path clip-path="url(#clip270)" d="M92.8947 429.545 L100.534 429.545 L100.534 403.179 L92.2234 404.846 L92.2234 400.586 L100.487 398.92 L105.163 398.92 L105.163 429.545 L112.802 429.545 L112.802 433.48 L92.8947 433.48 L92.8947 429.545 Z" fill="#000000" fill-rule="nonzero" fill-opacity="1" /><path clip-path="url(#clip270)" d="M132.246 401.998 Q128.635 401.998 126.807 405.563 Q125.001 409.105 125.001 416.235 Q125.001 423.341 126.807 426.906 Q128.635 430.447 132.246 430.447 Q135.881 430.447 137.686 426.906 Q139.515 423.341 139.515 416.235 Q139.515 409.105 137.686 405.563 Q135.881 401.998 132.246 401.998 M132.246 398.295 Q138.056 398.295 141.112 402.901 Q144.191 407.485 144.191 416.235 Q144.191 424.961 141.112 429.568 Q138.056 434.151 132.246 434.151 Q126.436 434.151 123.357 429.568 Q120.302 424.961 120.302 416.235 Q120.302 407.485 123.357 402.901 Q126.436 398.295 132.246 398.295 Z" fill="#000000" fill-rule="nonzero" fill-opacity="1" /><path clip-path="url(#clip270)" d="M153.218 429.545 L160.857 429.545 L160.857 403.179 L152.547 404.846 L152.547 400.586 L160.811 398.92 L165.487 398.92 L165.487 429.545 L173.126 429.545 L173.126 433.48 L153.218 433.48 L153.218 429.545 Z" fill="#000000" fill-rule="nonzero" fill-opacity="1" /><path clip-path="url(#clip270)" d="M192.57 401.998 Q188.959 401.998 187.13 405.563 Q185.325 409.105 185.325 416.235 Q185.325 423.341 187.13 426.906 Q188.959 430.447 192.57 430.447 Q196.204 430.447 198.01 426.906 Q199.839 423.341 199.839 416.235 Q199.839 409.105 198.01 405.563 Q196.204 401.998 192.57 401.998 M192.57 398.295 Q198.38 398.295 201.436 402.901 Q204.514 407.485 204.514 416.235 Q204.514 424.961 201.436 429.568 Q198.38 434.151 192.57 434.151 Q186.76 434.151 183.681 429.568 Q180.626 424.961 180.626 416.235 Q180.626 407.485 183.681 402.901 Q186.76 398.295 192.57 398.295 Z" fill="#000000" fill-rule="nonzero" fill-opacity="1" /><path clip-path="url(#clip270)" d="M213.542 429.545 L221.181 429.545 L221.181 403.179 L212.871 404.846 L212.871 400.586 L221.135 398.92 L225.811 398.92 L225.811 429.545 L233.449 429.545 L233.449 433.48 L213.542 433.48 L213.542 429.545 Z" fill="#000000" fill-rule="nonzero" fill-opacity="1" /><path clip-path="url(#clip270)" d="M252.894 401.998 Q249.283 401.998 247.454 405.563 Q245.648 409.105 245.648 416.235 Q245.648 423.341 247.454 426.906 Q249.283 430.447 252.894 430.447 Q256.528 430.447 258.334 426.906 Q260.162 423.341 260.162 416.235 Q260.162 409.105 258.334 405.563 Q256.528 401.998 252.894 401.998 M252.894 398.295 Q258.704 398.295 261.759 402.901 Q264.838 407.485 264.838 416.235 Q264.838 424.961 261.759 429.568 Q258.704 434.151 252.894 434.151 Q247.084 434.151 244.005 429.568 Q240.949 424.961 240.949 416.235 Q240.949 407.485 244.005 402.901 Q247.084 398.295 252.894 398.295 Z" fill="#000000" fill-rule="nonzero" fill-opacity="1" /><path clip-path="url(#clip270)" d="M301.227 408.017 L290.648 418.642 L301.227 429.221 L298.472 432.021 L287.847 421.397 L277.222 432.021 L274.491 429.221 L285.046 418.642 L274.491 408.017 L277.222 405.216 L287.847 415.841 L298.472 405.216 L301.227 408.017 Z" fill="#000000" fill-rule="nonzero" fill-opacity="1" /><path clip-path="url(#clip270)" d="M313.588 429.545 L321.227 429.545 L321.227 403.179 L312.917 404.846 L312.917 400.586 L321.18 398.92 L325.856 398.92 L325.856 429.545 L333.495 429.545 L333.495 433.48 L313.588 433.48 L313.588 429.545 Z" fill="#000000" fill-rule="nonzero" fill-opacity="1" /><path clip-path="url(#clip270)" d="M352.94 401.998 Q349.328 401.998 347.5 405.563 Q345.694 409.105 345.694 416.235 Q345.694 423.341 347.5 426.906 Q349.328 430.447 352.94 430.447 Q356.574 430.447 358.379 426.906 Q360.208 423.341 360.208 416.235 Q360.208 409.105 358.379 405.563 Q356.574 401.998 352.94 401.998 M352.94 398.295 Q358.75 398.295 361.805 402.901 Q364.884 407.485 364.884 416.235 Q364.884 424.961 361.805 429.568 Q358.75 434.151 352.94 434.151 Q347.129 434.151 344.051 429.568 Q340.995 424.961 340.995 416.235 Q340.995 407.485 344.051 402.901 Q347.129 398.295 352.94 398.295 Z" fill="#000000" fill-rule="nonzero" fill-opacity="1" /><path clip-path="url(#clip270)" d="M374.589 380.491 Q371.655 380.491 370.169 383.387 Q368.702 386.265 368.702 392.058 Q368.702 397.832 370.169 400.728 Q371.655 403.606 374.589 403.606 Q377.542 403.606 379.009 400.728 Q380.494 397.832 380.494 392.058 Q380.494 386.265 379.009 383.387 Q377.542 380.491 374.589 380.491 M374.589 377.482 Q379.31 377.482 381.792 381.224 Q384.294 384.948 384.294 392.058 Q384.294 399.148 381.792 402.891 Q379.31 406.615 374.589 406.615 Q369.868 406.615 367.367 402.891 Q364.884 399.148 364.884 392.058 Q364.884 384.948 367.367 381.224 Q369.868 377.482 374.589 377.482 Z" fill="#000000" fill-rule="nonzero" fill-opacity="1" /><path clip-path="url(#clip270)" d="M47.6634 181.426 L55.3023 181.426 L55.3023 155.06 L46.9921 156.727 L46.9921 152.467 L55.256 150.801 L59.9319 150.801 L59.9319 181.426 L67.5707 181.426 L67.5707 185.361 L47.6634 185.361 L47.6634 181.426 Z" fill="#000000" fill-rule="nonzero" fill-opacity="1" /><path clip-path="url(#clip270)" d="M77.0151 179.481 L81.8993 179.481 L81.8993 185.361 L77.0151 185.361 L77.0151 179.481 Z" fill="#000000" fill-rule="nonzero" fill-opacity="1" /><path clip-path="url(#clip270)" d="M92.8947 181.426 L100.534 181.426 L100.534 155.06 L92.2234 156.727 L92.2234 152.467 L100.487 150.801 L105.163 150.801 L105.163 181.426 L112.802 181.426 L112.802 185.361 L92.8947 185.361 L92.8947 181.426 Z" fill="#000000" fill-rule="nonzero" fill-opacity="1" /><path clip-path="url(#clip270)" d="M132.246 153.879 Q128.635 153.879 126.807 157.444 Q125.001 160.986 125.001 168.115 Q125.001 175.222 126.807 178.787 Q128.635 182.328 132.246 182.328 Q135.881 182.328 137.686 178.787 Q139.515 175.222 139.515 168.115 Q139.515 160.986 137.686 157.444 Q135.881 153.879 132.246 153.879 M132.246 150.176 Q138.056 150.176 141.112 154.782 Q144.191 159.366 144.191 168.115 Q144.191 176.842 141.112 181.449 Q138.056 186.032 132.246 186.032 Q126.436 186.032 123.357 181.449 Q120.302 176.842 120.302 168.115 Q120.302 159.366 123.357 154.782 Q126.436 150.176 132.246 150.176 Z" fill="#000000" fill-rule="nonzero" fill-opacity="1" /><path clip-path="url(#clip270)" d="M153.218 181.426 L160.857 181.426 L160.857 155.06 L152.547 156.727 L152.547 152.467 L160.811 150.801 L165.487 150.801 L165.487 181.426 L173.126 181.426 L173.126 185.361 L153.218 185.361 L153.218 181.426 Z" fill="#000000" fill-rule="nonzero" fill-opacity="1" /><path clip-path="url(#clip270)" d="M192.57 153.879 Q188.959 153.879 187.13 157.444 Q185.325 160.986 185.325 168.115 Q185.325 175.222 187.13 178.787 Q188.959 182.328 192.57 182.328 Q196.204 182.328 198.01 178.787 Q199.839 175.222 199.839 168.115 Q199.839 160.986 198.01 157.444 Q196.204 153.879 192.57 153.879 M192.57 150.176 Q198.38 150.176 201.436 154.782 Q204.514 159.366 204.514 168.115 Q204.514 176.842 201.436 181.449 Q198.38 186.032 192.57 186.032 Q186.76 186.032 183.681 181.449 Q180.626 176.842 180.626 168.115 Q180.626 159.366 183.681 154.782 Q186.76 150.176 192.57 150.176 Z" fill="#000000" fill-rule="nonzero" fill-opacity="1" /><path clip-path="url(#clip270)" d="M216.76 181.426 L233.079 181.426 L233.079 185.361 L211.135 185.361 L211.135 181.426 Q213.797 178.671 218.38 174.041 Q222.987 169.389 224.167 168.046 Q226.412 165.523 227.292 163.787 Q228.195 162.028 228.195 160.338 Q228.195 157.583 226.25 155.847 Q224.329 154.111 221.227 154.111 Q219.028 154.111 216.575 154.875 Q214.144 155.639 211.366 157.19 L211.366 152.467 Q214.19 151.333 216.644 150.754 Q219.098 150.176 221.135 150.176 Q226.505 150.176 229.699 152.861 Q232.894 155.546 232.894 160.037 Q232.894 162.166 232.084 164.088 Q231.297 165.986 229.19 168.578 Q228.612 169.25 225.51 172.467 Q222.408 175.662 216.76 181.426 Z" fill="#000000" fill-rule="nonzero" fill-opacity="1" /><path clip-path="url(#clip270)" d="M252.894 153.879 Q249.283 153.879 247.454 157.444 Q245.648 160.986 245.648 168.115 Q245.648 175.222 247.454 178.787 Q249.283 182.328 252.894 182.328 Q256.528 182.328 258.334 178.787 Q260.162 175.222 260.162 168.115 Q260.162 160.986 258.334 157.444 Q256.528 153.879 252.894 153.879 M252.894 150.176 Q258.704 150.176 261.759 154.782 Q264.838 159.366 264.838 168.115 Q264.838 176.842 261.759 181.449 Q258.704 186.032 252.894 186.032 Q247.084 186.032 244.005 181.449 Q240.949 176.842 240.949 168.115 Q240.949 159.366 244.005 154.782 Q247.084 150.176 252.894 150.176 Z" fill="#000000" fill-rule="nonzero" fill-opacity="1" /><path clip-path="url(#clip270)" d="M301.227 159.898 L290.648 170.523 L301.227 181.102 L298.472 183.902 L287.847 173.277 L277.222 183.902 L274.491 181.102 L285.046 170.523 L274.491 159.898 L277.222 157.097 L287.847 167.722 L298.472 157.097 L301.227 159.898 Z" fill="#000000" fill-rule="nonzero" fill-opacity="1" /><path clip-path="url(#clip270)" d="M313.588 181.426 L321.227 181.426 L321.227 155.06 L312.917 156.727 L312.917 152.467 L321.18 150.801 L325.856 150.801 L325.856 181.426 L333.495 181.426 L333.495 185.361 L313.588 185.361 L313.588 181.426 Z" fill="#000000" fill-rule="nonzero" fill-opacity="1" /><path clip-path="url(#clip270)" d="M352.94 153.879 Q349.328 153.879 347.5 157.444 Q345.694 160.986 345.694 168.115 Q345.694 175.222 347.5 178.787 Q349.328 182.328 352.94 182.328 Q356.574 182.328 358.379 178.787 Q360.208 175.222 360.208 168.115 Q360.208 160.986 358.379 157.444 Q356.574 153.879 352.94 153.879 M352.94 150.176 Q358.75 150.176 361.805 154.782 Q364.884 159.366 364.884 168.115 Q364.884 176.842 361.805 181.449 Q358.75 186.032 352.94 186.032 Q347.129 186.032 344.051 181.449 Q340.995 176.842 340.995 168.115 Q340.995 159.366 344.051 154.782 Q347.129 150.176 352.94 150.176 Z" fill="#000000" fill-rule="nonzero" fill-opacity="1" /><path clip-path="url(#clip270)" d="M374.589 132.372 Q371.655 132.372 370.169 135.268 Q368.702 138.146 368.702 143.939 Q368.702 149.713 370.169 152.609 Q371.655 155.487 374.589 155.487 Q377.542 155.487 379.009 152.609 Q380.494 149.713 380.494 143.939 Q380.494 138.146 379.009 135.268 Q377.542 132.372 374.589 132.372 M374.589 129.363 Q379.31 129.363 381.792 133.105 Q384.294 136.829 384.294 143.939 Q384.294 151.029 381.792 154.772 Q379.31 158.496 374.589 158.496 Q369.868 158.496 367.367 154.772 Q364.884 151.029 364.884 143.939 Q364.884 136.829 367.367 133.105 Q369.868 129.363 374.589 129.363 Z" fill="#000000" fill-rule="nonzero" fill-opacity="1" /><polyline clip-path="url(#clip272)" style="stroke:#009af9; stroke-linecap:round; stroke-linejoin:round; stroke-width:4; stroke-opacity:1; fill:none" points="466.122,88.2208 477.398,101.88 488.674,115.539 499.95,129.199 511.227,142.858 522.503,156.517 533.779,170.176 545.055,183.835 556.331,197.495 567.607,211.154 578.883,224.813 590.16,238.472 601.436,252.131 612.712,265.79 623.988,279.45 635.264,293.109 646.54,306.768 657.816,320.427 669.093,334.086 680.369,347.745 691.645,361.404 702.921,375.063 714.197,388.723 725.473,402.382 736.749,416.041 748.026,429.7 759.302,443.359 770.578,457.018 781.854,470.677 793.13,484.336 804.406,497.995 815.682,511.654 826.959,525.313 838.235,538.972 849.511,552.631 860.787,566.29 872.063,579.949 883.339,593.608 894.615,607.267 905.891,620.926 917.168,634.585 928.444,648.244 939.72,661.903 950.996,675.562 962.272,689.221 973.548,702.88 984.824,716.539 996.101,730.198 1007.38,743.857 1018.65,757.516 1029.93,771.175 1041.21,784.833 1052.48,798.492 1063.76,812.151 1075.03,825.81 1086.31,839.469 1097.59,853.128 1108.86,866.787 1120.14,880.446 1131.41,894.104 1142.69,907.763 1153.97,921.422 1165.24,935.081 1176.52,948.74 1187.8,962.399 1199.07,976.057 1210.35,989.716 1221.62,1003.37 1232.9,1017.03 1244.18,1030.69 1255.45,1044.35 1266.73,1058.01 1278,1071.67 1289.28,1085.33 1300.56,1098.99 1311.83,1112.64 1323.11,1126.3 1334.38,1139.96 1345.66,1153.62 1356.94,1167.28 1368.21,1180.94 1379.49,1194.6 1390.77,1208.26 1402.04,1221.91 1413.32,1235.57 1424.59,1249.23 1435.87,1262.89 1447.15,1276.55 1458.42,1290.21 1469.7,1303.87 1480.97,1317.53 1492.25,1331.18 1503.53,1344.84 1514.8,1358.5 1526.08,1372.16 1537.36,1385.82 1548.63,1399.48 1559.91,1413.14 1571.18,1426.79 1582.46,1440.45 1593.74,1454.11 "/>
<path clip-path="url(#clip270)" d="M1427.29 199.186 L1587.72 199.186 L1587.72 95.5056 L1427.29 95.5056  Z" fill="#ffffff" fill-rule="evenodd" fill-opacity="1"/>
<polyline clip-path="url(#clip270)" style="stroke:#000000; stroke-linecap:round; stroke-linejoin:round; stroke-width:4; stroke-opacity:1; fill:none" points="1427.29,199.186 1587.72,199.186 1587.72,95.5056 1427.29,95.5056 1427.29,199.186 "/>
<polyline clip-path="url(#clip270)" style="stroke:#009af9; stroke-linecap:round; stroke-linejoin:round; stroke-width:4; stroke-opacity:1; fill:none" points="1440.57,147.346 1520.26,147.346 "/>
<path clip-path="url(#clip270)" d="M1554.05 139.695 L1554.05 143.677 Q1552.24 142.681 1550.41 142.195 Q1548.61 141.686 1546.76 141.686 Q1542.61 141.686 1540.32 144.325 Q1538.03 146.94 1538.03 151.686 Q1538.03 156.431 1540.32 159.07 Q1542.61 161.686 1546.76 161.686 Q1548.61 161.686 1550.41 161.2 Q1552.24 160.69 1554.05 159.695 L1554.05 163.63 Q1552.27 164.464 1550.34 164.88 Q1548.45 165.297 1546.29 165.297 Q1540.44 165.297 1536.99 161.616 Q1533.54 157.936 1533.54 151.686 Q1533.54 145.343 1537.01 141.709 Q1540.51 138.075 1546.57 138.075 Q1548.54 138.075 1550.41 138.491 Q1552.29 138.885 1554.05 139.695 Z" fill="#000000" fill-rule="nonzero" fill-opacity="1" /><path clip-path="url(#clip270)" d="M1565.67 131.339 L1565.67 138.7 L1574.44 138.7 L1574.44 142.01 L1565.67 142.01 L1565.67 156.084 Q1565.67 159.255 1566.52 160.158 Q1567.4 161.061 1570.07 161.061 L1574.44 161.061 L1574.44 164.626 L1570.07 164.626 Q1565.14 164.626 1563.26 162.797 Q1561.39 160.945 1561.39 156.084 L1561.39 142.01 L1558.26 142.01 L1558.26 138.7 L1561.39 138.7 L1561.39 131.339 L1565.67 131.339 Z" fill="#000000" fill-rule="nonzero" fill-opacity="1" /><path clip-path="url(#clip270)" d="M1957.48 1495.09 L3152.76 1495.09 L3152.76 47.2441 L1957.48 47.2441  Z" fill="#ffffff" fill-rule="evenodd" fill-opacity="1"/>
<defs>
  <clipPath id="clip273">
    <rect x="1957" y="47" width="1196" height="1449"/>
  </clipPath>
</defs>
<polyline clip-path="url(#clip273)" style="stroke:#000000; stroke-linecap:round; stroke-linejoin:round; stroke-width:2; stroke-opacity:0.1; fill:none" points="1980.04,1495.09 1980.04,47.2441 "/>
<polyline clip-path="url(#clip273)" style="stroke:#000000; stroke-linecap:round; stroke-linejoin:round; stroke-width:2; stroke-opacity:0.1; fill:none" points="2261.94,1495.09 2261.94,47.2441 "/>
<polyline clip-path="url(#clip273)" style="stroke:#000000; stroke-linecap:round; stroke-linejoin:round; stroke-width:2; stroke-opacity:0.1; fill:none" points="2543.84,1495.09 2543.84,47.2441 "/>
<polyline clip-path="url(#clip273)" style="stroke:#000000; stroke-linecap:round; stroke-linejoin:round; stroke-width:2; stroke-opacity:0.1; fill:none" points="2825.75,1495.09 2825.75,47.2441 "/>
<polyline clip-path="url(#clip273)" style="stroke:#000000; stroke-linecap:round; stroke-linejoin:round; stroke-width:2; stroke-opacity:0.1; fill:none" points="3107.65,1495.09 3107.65,47.2441 "/>
<polyline clip-path="url(#clip270)" style="stroke:#000000; stroke-linecap:round; stroke-linejoin:round; stroke-width:4; stroke-opacity:1; fill:none" points="1957.48,1495.09 3152.76,1495.09 "/>
<polyline clip-path="url(#clip270)" style="stroke:#000000; stroke-linecap:round; stroke-linejoin:round; stroke-width:4; stroke-opacity:1; fill:none" points="1980.04,1495.09 1980.04,1476.19 "/>
<polyline clip-path="url(#clip270)" style="stroke:#000000; stroke-linecap:round; stroke-linejoin:round; stroke-width:4; stroke-opacity:1; fill:none" points="2261.94,1495.09 2261.94,1476.19 "/>
<polyline clip-path="url(#clip270)" style="stroke:#000000; stroke-linecap:round; stroke-linejoin:round; stroke-width:4; stroke-opacity:1; fill:none" points="2543.84,1495.09 2543.84,1476.19 "/>
<polyline clip-path="url(#clip270)" style="stroke:#000000; stroke-linecap:round; stroke-linejoin:round; stroke-width:4; stroke-opacity:1; fill:none" points="2825.75,1495.09 2825.75,1476.19 "/>
<polyline clip-path="url(#clip270)" style="stroke:#000000; stroke-linecap:round; stroke-linejoin:round; stroke-width:4; stroke-opacity:1; fill:none" points="3107.65,1495.09 3107.65,1476.19 "/>
<path clip-path="url(#clip270)" d="M1980.04 1532.41 Q1976.43 1532.41 1974.6 1535.97 Q1972.79 1539.51 1972.79 1546.64 Q1972.79 1553.75 1974.6 1557.31 Q1976.43 1560.86 1980.04 1560.86 Q1983.67 1560.86 1985.48 1557.31 Q1987.31 1553.75 1987.31 1546.64 Q1987.31 1539.51 1985.48 1535.97 Q1983.67 1532.41 1980.04 1532.41 M1980.04 1528.7 Q1985.85 1528.7 1988.9 1533.31 Q1991.98 1537.89 1991.98 1546.64 Q1991.98 1555.37 1988.9 1559.98 Q1985.85 1564.56 1980.04 1564.56 Q1974.23 1564.56 1971.15 1559.98 Q1968.09 1555.37 1968.09 1546.64 Q1968.09 1537.89 1971.15 1533.31 Q1974.23 1528.7 1980.04 1528.7 Z" fill="#000000" fill-rule="nonzero" fill-opacity="1" /><path clip-path="url(#clip270)" d="M2241.21 1559.95 L2257.53 1559.95 L2257.53 1563.89 L2235.59 1563.89 L2235.59 1559.95 Q2238.25 1557.2 2242.83 1552.57 Q2247.44 1547.92 2248.62 1546.57 Q2250.86 1544.05 2251.74 1542.31 Q2252.65 1540.55 2252.65 1538.86 Q2252.65 1536.11 2250.7 1534.37 Q2248.78 1532.64 2245.68 1532.64 Q2243.48 1532.64 2241.03 1533.4 Q2238.6 1534.17 2235.82 1535.72 L2235.82 1530.99 Q2238.64 1529.86 2241.1 1529.28 Q2243.55 1528.7 2245.59 1528.7 Q2250.96 1528.7 2254.15 1531.39 Q2257.35 1534.07 2257.35 1538.56 Q2257.35 1540.69 2256.54 1542.61 Q2255.75 1544.51 2253.64 1547.11 Q2253.06 1547.78 2249.96 1550.99 Q2246.86 1554.19 2241.21 1559.95 Z" fill="#000000" fill-rule="nonzero" fill-opacity="1" /><path clip-path="url(#clip270)" d="M2267.39 1529.33 L2285.75 1529.33 L2285.75 1533.26 L2271.67 1533.26 L2271.67 1541.74 Q2272.69 1541.39 2273.71 1541.23 Q2274.73 1541.04 2275.75 1541.04 Q2281.54 1541.04 2284.92 1544.21 Q2288.29 1547.38 2288.29 1552.8 Q2288.29 1558.38 2284.82 1561.48 Q2281.35 1564.56 2275.03 1564.56 Q2272.86 1564.56 2270.59 1564.19 Q2268.34 1563.82 2265.93 1563.08 L2265.93 1558.38 Q2268.02 1559.51 2270.24 1560.07 Q2272.46 1560.62 2274.94 1560.62 Q2278.94 1560.62 2281.28 1558.52 Q2283.62 1556.41 2283.62 1552.8 Q2283.62 1549.19 2281.28 1547.08 Q2278.94 1544.98 2274.94 1544.98 Q2273.06 1544.98 2271.19 1545.39 Q2269.34 1545.81 2267.39 1546.69 L2267.39 1529.33 Z" fill="#000000" fill-rule="nonzero" fill-opacity="1" /><path clip-path="url(#clip270)" d="M2518.54 1529.33 L2536.9 1529.33 L2536.9 1533.26 L2522.83 1533.26 L2522.83 1541.74 Q2523.84 1541.39 2524.86 1541.23 Q2525.88 1541.04 2526.9 1541.04 Q2532.69 1541.04 2536.07 1544.21 Q2539.45 1547.38 2539.45 1552.8 Q2539.45 1558.38 2535.97 1561.48 Q2532.5 1564.56 2526.18 1564.56 Q2524.01 1564.56 2521.74 1564.19 Q2519.49 1563.82 2517.09 1563.08 L2517.09 1558.38 Q2519.17 1559.51 2521.39 1560.07 Q2523.61 1560.62 2526.09 1560.62 Q2530.09 1560.62 2532.43 1558.52 Q2534.77 1556.41 2534.77 1552.8 Q2534.77 1549.19 2532.43 1547.08 Q2530.09 1544.98 2526.09 1544.98 Q2524.21 1544.98 2522.34 1545.39 Q2520.49 1545.81 2518.54 1546.69 L2518.54 1529.33 Z" fill="#000000" fill-rule="nonzero" fill-opacity="1" /><path clip-path="url(#clip270)" d="M2558.66 1532.41 Q2555.05 1532.41 2553.22 1535.97 Q2551.41 1539.51 2551.41 1546.64 Q2551.41 1553.75 2553.22 1557.31 Q2555.05 1560.86 2558.66 1560.86 Q2562.29 1560.86 2564.1 1557.31 Q2565.93 1553.75 2565.93 1546.64 Q2565.93 1539.51 2564.1 1535.97 Q2562.29 1532.41 2558.66 1532.41 M2558.66 1528.7 Q2564.47 1528.7 2567.52 1533.31 Q2570.6 1537.89 2570.6 1546.64 Q2570.6 1555.37 2567.52 1559.98 Q2564.47 1564.56 2558.66 1564.56 Q2552.85 1564.56 2549.77 1559.98 Q2546.71 1555.37 2546.71 1546.64 Q2546.71 1537.89 2549.77 1533.31 Q2552.85 1528.7 2558.66 1528.7 Z" fill="#000000" fill-rule="nonzero" fill-opacity="1" /><path clip-path="url(#clip270)" d="M2799.6 1529.33 L2821.82 1529.33 L2821.82 1531.32 L2809.28 1563.89 L2804.39 1563.89 L2816.2 1533.26 L2799.6 1533.26 L2799.6 1529.33 Z" fill="#000000" fill-rule="nonzero" fill-opacity="1" /><path clip-path="url(#clip270)" d="M2830.99 1529.33 L2849.35 1529.33 L2849.35 1533.26 L2835.27 1533.26 L2835.27 1541.74 Q2836.29 1541.39 2837.31 1541.23 Q2838.33 1541.04 2839.35 1541.04 Q2845.13 1541.04 2848.51 1544.21 Q2851.89 1547.38 2851.89 1552.8 Q2851.89 1558.38 2848.42 1561.48 Q2844.95 1564.56 2838.63 1564.56 Q2836.45 1564.56 2834.19 1564.19 Q2831.94 1563.82 2829.53 1563.08 L2829.53 1558.38 Q2831.62 1559.51 2833.84 1560.07 Q2836.06 1560.62 2838.54 1560.62 Q2842.54 1560.62 2844.88 1558.52 Q2847.22 1556.41 2847.22 1552.8 Q2847.22 1549.19 2844.88 1547.08 Q2842.54 1544.98 2838.54 1544.98 Q2836.66 1544.98 2834.79 1545.39 Q2832.94 1545.81 2830.99 1546.69 L2830.99 1529.33 Z" fill="#000000" fill-rule="nonzero" fill-opacity="1" /><path clip-path="url(#clip270)" d="M3067.26 1559.95 L3074.9 1559.95 L3074.9 1533.59 L3066.59 1535.25 L3066.59 1530.99 L3074.85 1529.33 L3079.53 1529.33 L3079.53 1559.95 L3087.17 1559.95 L3087.17 1563.89 L3067.26 1563.89 L3067.26 1559.95 Z" fill="#000000" fill-rule="nonzero" fill-opacity="1" /><path clip-path="url(#clip270)" d="M3106.61 1532.41 Q3103 1532.41 3101.17 1535.97 Q3099.36 1539.51 3099.36 1546.64 Q3099.36 1553.75 3101.17 1557.31 Q3103 1560.86 3106.61 1560.86 Q3110.24 1560.86 3112.05 1557.31 Q3113.88 1553.75 3113.88 1546.64 Q3113.88 1539.51 3112.05 1535.97 Q3110.24 1532.41 3106.61 1532.41 M3106.61 1528.7 Q3112.42 1528.7 3115.48 1533.31 Q3118.55 1537.89 3118.55 1546.64 Q3118.55 1555.37 3115.48 1559.98 Q3112.42 1564.56 3106.61 1564.56 Q3100.8 1564.56 3097.72 1559.98 Q3094.67 1555.37 3094.67 1546.64 Q3094.67 1537.89 3097.72 1533.31 Q3100.8 1528.7 3106.61 1528.7 Z" fill="#000000" fill-rule="nonzero" fill-opacity="1" /><path clip-path="url(#clip270)" d="M3136.77 1532.41 Q3133.16 1532.41 3131.33 1535.97 Q3129.53 1539.51 3129.53 1546.64 Q3129.53 1553.75 3131.33 1557.31 Q3133.16 1560.86 3136.77 1560.86 Q3140.41 1560.86 3142.21 1557.31 Q3144.04 1553.75 3144.04 1546.64 Q3144.04 1539.51 3142.21 1535.97 Q3140.41 1532.41 3136.77 1532.41 M3136.77 1528.7 Q3142.58 1528.7 3145.64 1533.31 Q3148.72 1537.89 3148.72 1546.64 Q3148.72 1555.37 3145.64 1559.98 Q3142.58 1564.56 3136.77 1564.56 Q3130.96 1564.56 3127.88 1559.98 Q3124.83 1555.37 3124.83 1546.64 Q3124.83 1537.89 3127.88 1533.31 Q3130.96 1528.7 3136.77 1528.7 Z" fill="#000000" fill-rule="nonzero" fill-opacity="1" /><polyline clip-path="url(#clip273)" style="stroke:#000000; stroke-linecap:round; stroke-linejoin:round; stroke-width:2; stroke-opacity:0.1; fill:none" points="1957.48,1271.12 3152.76,1271.12 "/>
<polyline clip-path="url(#clip273)" style="stroke:#000000; stroke-linecap:round; stroke-linejoin:round; stroke-width:2; stroke-opacity:0.1; fill:none" points="1957.48,876.82 3152.76,876.82 "/>
<polyline clip-path="url(#clip273)" style="stroke:#000000; stroke-linecap:round; stroke-linejoin:round; stroke-width:2; stroke-opacity:0.1; fill:none" points="1957.48,482.521 3152.76,482.521 "/>
<polyline clip-path="url(#clip273)" style="stroke:#000000; stroke-linecap:round; stroke-linejoin:round; stroke-width:2; stroke-opacity:0.1; fill:none" points="1957.48,88.2208 3152.76,88.2208 "/>
<polyline clip-path="url(#clip270)" style="stroke:#000000; stroke-linecap:round; stroke-linejoin:round; stroke-width:4; stroke-opacity:1; fill:none" points="1957.48,1495.09 1957.48,47.2441 "/>
<polyline clip-path="url(#clip270)" style="stroke:#000000; stroke-linecap:round; stroke-linejoin:round; stroke-width:4; stroke-opacity:1; fill:none" points="1957.48,1271.12 1976.38,1271.12 "/>
<polyline clip-path="url(#clip270)" style="stroke:#000000; stroke-linecap:round; stroke-linejoin:round; stroke-width:4; stroke-opacity:1; fill:none" points="1957.48,876.82 1976.38,876.82 "/>
<polyline clip-path="url(#clip270)" style="stroke:#000000; stroke-linecap:round; stroke-linejoin:round; stroke-width:4; stroke-opacity:1; fill:none" points="1957.48,482.521 1976.38,482.521 "/>
<polyline clip-path="url(#clip270)" style="stroke:#000000; stroke-linecap:round; stroke-linejoin:round; stroke-width:4; stroke-opacity:1; fill:none" points="1957.48,88.2208 1976.38,88.2208 "/>
<path clip-path="url(#clip270)" d="M1751.48 1287.68 L1751.48 1283.42 Q1753.24 1284.26 1755.04 1284.7 Q1756.85 1285.14 1758.58 1285.14 Q1763.21 1285.14 1765.64 1282.03 Q1768.1 1278.91 1768.44 1272.57 Q1767.1 1274.56 1765.04 1275.62 Q1762.98 1276.69 1760.48 1276.69 Q1755.3 1276.69 1752.26 1273.56 Q1749.25 1270.41 1749.25 1264.97 Q1749.25 1259.65 1752.4 1256.43 Q1755.55 1253.22 1760.78 1253.22 Q1766.78 1253.22 1769.93 1257.82 Q1773.1 1262.4 1773.1 1271.15 Q1773.1 1279.33 1769.21 1284.21 Q1765.34 1289.07 1758.79 1289.07 Q1757.03 1289.07 1755.23 1288.72 Q1753.42 1288.38 1751.48 1287.68 M1760.78 1273.03 Q1763.93 1273.03 1765.76 1270.88 Q1767.61 1268.72 1767.61 1264.97 Q1767.61 1261.25 1765.76 1259.09 Q1763.93 1256.92 1760.78 1256.92 Q1757.63 1256.92 1755.78 1259.09 Q1753.95 1261.25 1753.95 1264.97 Q1753.95 1268.72 1755.78 1270.88 Q1757.63 1273.03 1760.78 1273.03 Z" fill="#000000" fill-rule="nonzero" fill-opacity="1" /><path clip-path="url(#clip270)" d="M1781.5 1282.52 L1786.38 1282.52 L1786.38 1288.4 L1781.5 1288.4 L1781.5 1282.52 Z" fill="#000000" fill-rule="nonzero" fill-opacity="1" /><path clip-path="url(#clip270)" d="M1796.71 1287.68 L1796.71 1283.42 Q1798.47 1284.26 1800.27 1284.7 Q1802.08 1285.14 1803.81 1285.14 Q1808.44 1285.14 1810.87 1282.03 Q1813.33 1278.91 1813.68 1272.57 Q1812.33 1274.56 1810.27 1275.62 Q1808.21 1276.69 1805.71 1276.69 Q1800.53 1276.69 1797.49 1273.56 Q1794.49 1270.41 1794.49 1264.97 Q1794.49 1259.65 1797.63 1256.43 Q1800.78 1253.22 1806.01 1253.22 Q1812.01 1253.22 1815.16 1257.82 Q1818.33 1262.4 1818.33 1271.15 Q1818.33 1279.33 1814.44 1284.21 Q1810.57 1289.07 1804.02 1289.07 Q1802.26 1289.07 1800.46 1288.72 Q1798.65 1288.38 1796.71 1287.68 M1806.01 1273.03 Q1809.16 1273.03 1810.99 1270.88 Q1812.84 1268.72 1812.84 1264.97 Q1812.84 1261.25 1810.99 1259.09 Q1809.16 1256.92 1806.01 1256.92 Q1802.87 1256.92 1801.01 1259.09 Q1799.18 1261.25 1799.18 1264.97 Q1799.18 1268.72 1801.01 1270.88 Q1802.87 1273.03 1806.01 1273.03 Z" fill="#000000" fill-rule="nonzero" fill-opacity="1" /><path clip-path="url(#clip270)" d="M1826.87 1287.68 L1826.87 1283.42 Q1828.63 1284.26 1830.43 1284.7 Q1832.24 1285.14 1833.98 1285.14 Q1838.61 1285.14 1841.04 1282.03 Q1843.49 1278.91 1843.84 1272.57 Q1842.49 1274.56 1840.43 1275.62 Q1838.37 1276.69 1835.87 1276.69 Q1830.69 1276.69 1827.66 1273.56 Q1824.65 1270.41 1824.65 1264.97 Q1824.65 1259.65 1827.8 1256.43 Q1830.94 1253.22 1836.18 1253.22 Q1842.17 1253.22 1845.32 1257.82 Q1848.49 1262.4 1848.49 1271.15 Q1848.49 1279.33 1844.6 1284.21 Q1840.74 1289.07 1834.18 1289.07 Q1832.43 1289.07 1830.62 1288.72 Q1828.81 1288.38 1826.87 1287.68 M1836.18 1273.03 Q1839.32 1273.03 1841.15 1270.88 Q1843 1268.72 1843 1264.97 Q1843 1261.25 1841.15 1259.09 Q1839.32 1256.92 1836.18 1256.92 Q1833.03 1256.92 1831.18 1259.09 Q1829.35 1261.25 1829.35 1264.97 Q1829.35 1268.72 1831.18 1270.88 Q1833.03 1273.03 1836.18 1273.03 Z" fill="#000000" fill-rule="nonzero" fill-opacity="1" /><path clip-path="url(#clip270)" d="M1857.03 1287.68 L1857.03 1283.42 Q1858.79 1284.26 1860.6 1284.7 Q1862.4 1285.14 1864.14 1285.14 Q1868.77 1285.14 1871.2 1282.03 Q1873.65 1278.91 1874 1272.57 Q1872.66 1274.56 1870.6 1275.62 Q1868.54 1276.69 1866.04 1276.69 Q1860.85 1276.69 1857.82 1273.56 Q1854.81 1270.41 1854.81 1264.97 Q1854.81 1259.65 1857.96 1256.43 Q1861.11 1253.22 1866.34 1253.22 Q1872.33 1253.22 1875.48 1257.82 Q1878.65 1262.4 1878.65 1271.15 Q1878.65 1279.33 1874.76 1284.21 Q1870.9 1289.07 1864.35 1289.07 Q1862.59 1289.07 1860.78 1288.72 Q1858.98 1288.38 1857.03 1287.68 M1866.34 1273.03 Q1869.49 1273.03 1871.31 1270.88 Q1873.17 1268.72 1873.17 1264.97 Q1873.17 1261.25 1871.31 1259.09 Q1869.49 1256.92 1866.34 1256.92 Q1863.19 1256.92 1861.34 1259.09 Q1859.51 1261.25 1859.51 1264.97 Q1859.51 1268.72 1861.34 1270.88 Q1863.19 1273.03 1866.34 1273.03 Z" fill="#000000" fill-rule="nonzero" fill-opacity="1" /><path clip-path="url(#clip270)" d="M1899.9 1257.91 L1888.1 1276.36 L1899.9 1276.36 L1899.9 1257.91 M1898.67 1253.84 L1904.55 1253.84 L1904.55 1276.36 L1909.48 1276.36 L1909.48 1280.25 L1904.55 1280.25 L1904.55 1288.4 L1899.9 1288.4 L1899.9 1280.25 L1884.3 1280.25 L1884.3 1275.74 L1898.67 1253.84 Z" fill="#000000" fill-rule="nonzero" fill-opacity="1" /><path clip-path="url(#clip270)" d="M1751.8 893.383 L1751.8 889.124 Q1753.56 889.957 1755.37 890.397 Q1757.17 890.837 1758.91 890.837 Q1763.54 890.837 1765.97 887.735 Q1768.42 884.61 1768.77 878.267 Q1767.43 880.258 1765.37 881.323 Q1763.31 882.388 1760.81 882.388 Q1755.62 882.388 1752.59 879.263 Q1749.58 876.114 1749.58 870.675 Q1749.58 865.351 1752.73 862.133 Q1755.87 858.915 1761.11 858.915 Q1767.1 858.915 1770.25 863.522 Q1773.42 868.105 1773.42 876.855 Q1773.42 885.026 1769.53 889.911 Q1765.67 894.772 1759.12 894.772 Q1757.36 894.772 1755.55 894.424 Q1753.75 894.077 1751.8 893.383 M1761.11 878.73 Q1764.25 878.73 1766.08 876.577 Q1767.93 874.425 1767.93 870.675 Q1767.93 866.948 1766.08 864.795 Q1764.25 862.619 1761.11 862.619 Q1757.96 862.619 1756.11 864.795 Q1754.28 866.948 1754.28 870.675 Q1754.28 874.425 1756.11 876.577 Q1757.96 878.73 1761.11 878.73 Z" fill="#000000" fill-rule="nonzero" fill-opacity="1" /><path clip-path="url(#clip270)" d="M1781.82 888.221 L1786.71 888.221 L1786.71 894.1 L1781.82 894.1 L1781.82 888.221 Z" fill="#000000" fill-rule="nonzero" fill-opacity="1" /><path clip-path="url(#clip270)" d="M1797.03 893.383 L1797.03 889.124 Q1798.79 889.957 1800.6 890.397 Q1802.4 890.837 1804.14 890.837 Q1808.77 890.837 1811.2 887.735 Q1813.65 884.61 1814 878.267 Q1812.66 880.258 1810.6 881.323 Q1808.54 882.388 1806.04 882.388 Q1800.85 882.388 1797.82 879.263 Q1794.81 876.114 1794.81 870.675 Q1794.81 865.351 1797.96 862.133 Q1801.11 858.915 1806.34 858.915 Q1812.33 858.915 1815.48 863.522 Q1818.65 868.105 1818.65 876.855 Q1818.65 885.026 1814.76 889.911 Q1810.9 894.772 1804.35 894.772 Q1802.59 894.772 1800.78 894.424 Q1798.98 894.077 1797.03 893.383 M1806.34 878.73 Q1809.49 878.73 1811.31 876.577 Q1813.17 874.425 1813.17 870.675 Q1813.17 866.948 1811.31 864.795 Q1809.49 862.619 1806.34 862.619 Q1803.19 862.619 1801.34 864.795 Q1799.51 866.948 1799.51 870.675 Q1799.51 874.425 1801.34 876.577 Q1803.19 878.73 1806.34 878.73 Z" fill="#000000" fill-rule="nonzero" fill-opacity="1" /><path clip-path="url(#clip270)" d="M1827.19 893.383 L1827.19 889.124 Q1828.95 889.957 1830.76 890.397 Q1832.56 890.837 1834.3 890.837 Q1838.93 890.837 1841.36 887.735 Q1843.81 884.61 1844.16 878.267 Q1842.82 880.258 1840.76 881.323 Q1838.7 882.388 1836.2 882.388 Q1831.01 882.388 1827.98 879.263 Q1824.97 876.114 1824.97 870.675 Q1824.97 865.351 1828.12 862.133 Q1831.27 858.915 1836.5 858.915 Q1842.49 858.915 1845.64 863.522 Q1848.81 868.105 1848.81 876.855 Q1848.81 885.026 1844.93 889.911 Q1841.06 894.772 1834.51 894.772 Q1832.75 894.772 1830.94 894.424 Q1829.14 894.077 1827.19 893.383 M1836.5 878.73 Q1839.65 878.73 1841.48 876.577 Q1843.33 874.425 1843.33 870.675 Q1843.33 866.948 1841.48 864.795 Q1839.65 862.619 1836.5 862.619 Q1833.35 862.619 1831.5 864.795 Q1829.67 866.948 1829.67 870.675 Q1829.67 874.425 1831.5 876.577 Q1833.35 878.73 1836.5 878.73 Z" fill="#000000" fill-rule="nonzero" fill-opacity="1" /><path clip-path="url(#clip270)" d="M1857.36 893.383 L1857.36 889.124 Q1859.11 889.957 1860.92 890.397 Q1862.73 890.837 1864.46 890.837 Q1869.09 890.837 1871.52 887.735 Q1873.98 884.61 1874.32 878.267 Q1872.98 880.258 1870.92 881.323 Q1868.86 882.388 1866.36 882.388 Q1861.18 882.388 1858.14 879.263 Q1855.13 876.114 1855.13 870.675 Q1855.13 865.351 1858.28 862.133 Q1861.43 858.915 1866.66 858.915 Q1872.66 858.915 1875.8 863.522 Q1878.98 868.105 1878.98 876.855 Q1878.98 885.026 1875.09 889.911 Q1871.22 894.772 1864.67 894.772 Q1862.91 894.772 1861.11 894.424 Q1859.3 894.077 1857.36 893.383 M1866.66 878.73 Q1869.81 878.73 1871.64 876.577 Q1873.49 874.425 1873.49 870.675 Q1873.49 866.948 1871.64 864.795 Q1869.81 862.619 1866.66 862.619 Q1863.51 862.619 1861.66 864.795 Q1859.83 866.948 1859.83 870.675 Q1859.83 874.425 1861.66 876.577 Q1863.51 878.73 1866.66 878.73 Z" fill="#000000" fill-rule="nonzero" fill-opacity="1" /><path clip-path="url(#clip270)" d="M1897.96 874.957 Q1894.81 874.957 1892.96 877.11 Q1891.13 879.263 1891.13 883.013 Q1891.13 886.739 1892.96 888.915 Q1894.81 891.068 1897.96 891.068 Q1901.11 891.068 1902.93 888.915 Q1904.79 886.739 1904.79 883.013 Q1904.79 879.263 1902.93 877.11 Q1901.11 874.957 1897.96 874.957 M1907.24 860.304 L1907.24 864.564 Q1905.48 863.73 1903.67 863.29 Q1901.89 862.851 1900.13 862.851 Q1895.5 862.851 1893.05 865.976 Q1890.62 869.101 1890.27 875.42 Q1891.64 873.406 1893.7 872.341 Q1895.76 871.253 1898.23 871.253 Q1903.44 871.253 1906.45 874.425 Q1909.48 877.573 1909.48 883.013 Q1909.48 888.337 1906.34 891.554 Q1903.19 894.772 1897.96 894.772 Q1891.96 894.772 1888.79 890.188 Q1885.62 885.582 1885.62 876.855 Q1885.62 868.661 1889.51 863.8 Q1893.4 858.915 1899.95 858.915 Q1901.71 858.915 1903.49 859.263 Q1905.3 859.61 1907.24 860.304 Z" fill="#000000" fill-rule="nonzero" fill-opacity="1" /><path clip-path="url(#clip270)" d="M1752.06 499.083 L1752.06 494.824 Q1753.81 495.657 1755.62 496.097 Q1757.43 496.537 1759.16 496.537 Q1763.79 496.537 1766.22 493.435 Q1768.68 490.31 1769.02 483.967 Q1767.68 485.958 1765.62 487.023 Q1763.56 488.088 1761.06 488.088 Q1755.87 488.088 1752.84 484.963 Q1749.83 481.815 1749.83 476.375 Q1749.83 471.051 1752.98 467.833 Q1756.13 464.616 1761.36 464.616 Q1767.36 464.616 1770.5 469.222 Q1773.68 473.805 1773.68 482.555 Q1773.68 490.727 1769.79 495.611 Q1765.92 500.472 1759.37 500.472 Q1757.61 500.472 1755.81 500.125 Q1754 499.777 1752.06 499.083 M1761.36 484.43 Q1764.51 484.43 1766.34 482.278 Q1768.19 480.125 1768.19 476.375 Q1768.19 472.648 1766.34 470.495 Q1764.51 468.319 1761.36 468.319 Q1758.21 468.319 1756.36 470.495 Q1754.53 472.648 1754.53 476.375 Q1754.53 480.125 1756.36 482.278 Q1758.21 484.43 1761.36 484.43 Z" fill="#000000" fill-rule="nonzero" fill-opacity="1" /><path clip-path="url(#clip270)" d="M1782.08 493.921 L1786.96 493.921 L1786.96 499.801 L1782.08 499.801 L1782.08 493.921 Z" fill="#000000" fill-rule="nonzero" fill-opacity="1" /><path clip-path="url(#clip270)" d="M1797.29 499.083 L1797.29 494.824 Q1799.05 495.657 1800.85 496.097 Q1802.66 496.537 1804.39 496.537 Q1809.02 496.537 1811.45 493.435 Q1813.91 490.31 1814.25 483.967 Q1812.91 485.958 1810.85 487.023 Q1808.79 488.088 1806.29 488.088 Q1801.11 488.088 1798.07 484.963 Q1795.06 481.815 1795.06 476.375 Q1795.06 471.051 1798.21 467.833 Q1801.36 464.616 1806.59 464.616 Q1812.59 464.616 1815.74 469.222 Q1818.91 473.805 1818.91 482.555 Q1818.91 490.727 1815.02 495.611 Q1811.15 500.472 1804.6 500.472 Q1802.84 500.472 1801.04 500.125 Q1799.23 499.777 1797.29 499.083 M1806.59 484.43 Q1809.74 484.43 1811.57 482.278 Q1813.42 480.125 1813.42 476.375 Q1813.42 472.648 1811.57 470.495 Q1809.74 468.319 1806.59 468.319 Q1803.44 468.319 1801.59 470.495 Q1799.76 472.648 1799.76 476.375 Q1799.76 480.125 1801.59 482.278 Q1803.44 484.43 1806.59 484.43 Z" fill="#000000" fill-rule="nonzero" fill-opacity="1" /><path clip-path="url(#clip270)" d="M1827.45 499.083 L1827.45 494.824 Q1829.21 495.657 1831.01 496.097 Q1832.82 496.537 1834.55 496.537 Q1839.18 496.537 1841.61 493.435 Q1844.07 490.31 1844.42 483.967 Q1843.07 485.958 1841.01 487.023 Q1838.95 488.088 1836.45 488.088 Q1831.27 488.088 1828.24 484.963 Q1825.23 481.815 1825.23 476.375 Q1825.23 471.051 1828.37 467.833 Q1831.52 464.616 1836.75 464.616 Q1842.75 464.616 1845.9 469.222 Q1849.07 473.805 1849.07 482.555 Q1849.07 490.727 1845.18 495.611 Q1841.31 500.472 1834.76 500.472 Q1833 500.472 1831.2 500.125 Q1829.39 499.777 1827.45 499.083 M1836.75 484.43 Q1839.9 484.43 1841.73 482.278 Q1843.58 480.125 1843.58 476.375 Q1843.58 472.648 1841.73 470.495 Q1839.9 468.319 1836.75 468.319 Q1833.61 468.319 1831.75 470.495 Q1829.93 472.648 1829.93 476.375 Q1829.93 480.125 1831.75 482.278 Q1833.61 484.43 1836.75 484.43 Z" fill="#000000" fill-rule="nonzero" fill-opacity="1" /><path clip-path="url(#clip270)" d="M1857.61 499.083 L1857.61 494.824 Q1859.37 495.657 1861.18 496.097 Q1862.98 496.537 1864.72 496.537 Q1869.35 496.537 1871.78 493.435 Q1874.23 490.31 1874.58 483.967 Q1873.24 485.958 1871.17 487.023 Q1869.11 488.088 1866.61 488.088 Q1861.43 488.088 1858.4 484.963 Q1855.39 481.815 1855.39 476.375 Q1855.39 471.051 1858.54 467.833 Q1861.68 464.616 1866.92 464.616 Q1872.91 464.616 1876.06 469.222 Q1879.23 473.805 1879.23 482.555 Q1879.23 490.727 1875.34 495.611 Q1871.48 500.472 1864.92 500.472 Q1863.17 500.472 1861.36 500.125 Q1859.55 499.777 1857.61 499.083 M1866.92 484.43 Q1870.06 484.43 1871.89 482.278 Q1873.74 480.125 1873.74 476.375 Q1873.74 472.648 1871.89 470.495 Q1870.06 468.319 1866.92 468.319 Q1863.77 468.319 1861.92 470.495 Q1860.09 472.648 1860.09 476.375 Q1860.09 480.125 1861.92 482.278 Q1863.77 484.43 1866.92 484.43 Z" fill="#000000" fill-rule="nonzero" fill-opacity="1" /><path clip-path="url(#clip270)" d="M1897.63 483.389 Q1894.3 483.389 1892.38 485.171 Q1890.48 486.953 1890.48 490.078 Q1890.48 493.203 1892.38 494.986 Q1894.3 496.768 1897.63 496.768 Q1900.97 496.768 1902.89 494.986 Q1904.81 493.18 1904.81 490.078 Q1904.81 486.953 1902.89 485.171 Q1900.99 483.389 1897.63 483.389 M1892.96 481.398 Q1889.95 480.657 1888.26 478.597 Q1886.59 476.537 1886.59 473.574 Q1886.59 469.43 1889.53 467.023 Q1892.49 464.616 1897.63 464.616 Q1902.8 464.616 1905.73 467.023 Q1908.67 469.43 1908.67 473.574 Q1908.67 476.537 1906.98 478.597 Q1905.32 480.657 1902.33 481.398 Q1905.71 482.185 1907.59 484.477 Q1909.48 486.768 1909.48 490.078 Q1909.48 495.102 1906.41 497.787 Q1903.35 500.472 1897.63 500.472 Q1891.92 500.472 1888.84 497.787 Q1885.78 495.102 1885.78 490.078 Q1885.78 486.768 1887.68 484.477 Q1889.58 482.185 1892.96 481.398 M1891.24 474.014 Q1891.24 476.699 1892.91 478.204 Q1894.6 479.708 1897.63 479.708 Q1900.64 479.708 1902.33 478.204 Q1904.05 476.699 1904.05 474.014 Q1904.05 471.329 1902.33 469.824 Q1900.64 468.319 1897.63 468.319 Q1894.6 468.319 1892.91 469.824 Q1891.24 471.329 1891.24 474.014 Z" fill="#000000" fill-rule="nonzero" fill-opacity="1" /><path clip-path="url(#clip270)" d="M1722.47 101.566 L1730.11 101.566 L1730.11 75.2 L1721.8 76.8667 L1721.8 72.6075 L1730.06 70.9408 L1734.74 70.9408 L1734.74 101.566 L1742.38 101.566 L1742.38 105.501 L1722.47 105.501 L1722.47 101.566 Z" fill="#000000" fill-rule="nonzero" fill-opacity="1" /><path clip-path="url(#clip270)" d="M1761.82 74.0195 Q1758.21 74.0195 1756.38 77.5843 Q1754.58 81.1259 1754.58 88.2555 Q1754.58 95.362 1756.38 98.9268 Q1758.21 102.468 1761.82 102.468 Q1765.46 102.468 1767.26 98.9268 Q1769.09 95.362 1769.09 88.2555 Q1769.09 81.1259 1767.26 77.5843 Q1765.46 74.0195 1761.82 74.0195 M1761.82 70.3158 Q1767.63 70.3158 1770.69 74.9223 Q1773.77 79.5056 1773.77 88.2555 Q1773.77 96.9823 1770.69 101.589 Q1767.63 106.172 1761.82 106.172 Q1756.01 106.172 1752.93 101.589 Q1749.88 96.9823 1749.88 88.2555 Q1749.88 79.5056 1752.93 74.9223 Q1756.01 70.3158 1761.82 70.3158 Z" fill="#000000" fill-rule="nonzero" fill-opacity="1" /><path clip-path="url(#clip270)" d="M1781.99 99.6212 L1786.87 99.6212 L1786.87 105.501 L1781.99 105.501 L1781.99 99.6212 Z" fill="#000000" fill-rule="nonzero" fill-opacity="1" /><path clip-path="url(#clip270)" d="M1807.05 74.0195 Q1803.44 74.0195 1801.62 77.5843 Q1799.81 81.1259 1799.81 88.2555 Q1799.81 95.362 1801.62 98.9268 Q1803.44 102.468 1807.05 102.468 Q1810.69 102.468 1812.49 98.9268 Q1814.32 95.362 1814.32 88.2555 Q1814.32 81.1259 1812.49 77.5843 Q1810.69 74.0195 1807.05 74.0195 M1807.05 70.3158 Q1812.87 70.3158 1815.92 74.9223 Q1819 79.5056 1819 88.2555 Q1819 96.9823 1815.92 101.589 Q1812.87 106.172 1807.05 106.172 Q1801.24 106.172 1798.17 101.589 Q1795.11 96.9823 1795.11 88.2555 Q1795.11 79.5056 1798.17 74.9223 Q1801.24 70.3158 1807.05 70.3158 Z" fill="#000000" fill-rule="nonzero" fill-opacity="1" /><path clip-path="url(#clip270)" d="M1837.22 74.0195 Q1833.61 74.0195 1831.78 77.5843 Q1829.97 81.1259 1829.97 88.2555 Q1829.97 95.362 1831.78 98.9268 Q1833.61 102.468 1837.22 102.468 Q1840.85 102.468 1842.66 98.9268 Q1844.49 95.362 1844.49 88.2555 Q1844.49 81.1259 1842.66 77.5843 Q1840.85 74.0195 1837.22 74.0195 M1837.22 70.3158 Q1843.03 70.3158 1846.08 74.9223 Q1849.16 79.5056 1849.16 88.2555 Q1849.16 96.9823 1846.08 101.589 Q1843.03 106.172 1837.22 106.172 Q1831.41 106.172 1828.33 101.589 Q1825.27 96.9823 1825.27 88.2555 Q1825.27 79.5056 1828.33 74.9223 Q1831.41 70.3158 1837.22 70.3158 Z" fill="#000000" fill-rule="nonzero" fill-opacity="1" /><path clip-path="url(#clip270)" d="M1867.38 74.0195 Q1863.77 74.0195 1861.94 77.5843 Q1860.13 81.1259 1860.13 88.2555 Q1860.13 95.362 1861.94 98.9268 Q1863.77 102.468 1867.38 102.468 Q1871.01 102.468 1872.82 98.9268 Q1874.65 95.362 1874.65 88.2555 Q1874.65 81.1259 1872.82 77.5843 Q1871.01 74.0195 1867.38 74.0195 M1867.38 70.3158 Q1873.19 70.3158 1876.24 74.9223 Q1879.32 79.5056 1879.32 88.2555 Q1879.32 96.9823 1876.24 101.589 Q1873.19 106.172 1867.38 106.172 Q1861.57 106.172 1858.49 101.589 Q1855.43 96.9823 1855.43 88.2555 Q1855.43 79.5056 1858.49 74.9223 Q1861.57 70.3158 1867.38 70.3158 Z" fill="#000000" fill-rule="nonzero" fill-opacity="1" /><path clip-path="url(#clip270)" d="M1897.54 74.0195 Q1893.93 74.0195 1892.1 77.5843 Q1890.3 81.1259 1890.3 88.2555 Q1890.3 95.362 1892.1 98.9268 Q1893.93 102.468 1897.54 102.468 Q1901.17 102.468 1902.98 98.9268 Q1904.81 95.362 1904.81 88.2555 Q1904.81 81.1259 1902.98 77.5843 Q1901.17 74.0195 1897.54 74.0195 M1897.54 70.3158 Q1903.35 70.3158 1906.41 74.9223 Q1909.48 79.5056 1909.48 88.2555 Q1909.48 96.9823 1906.41 101.589 Q1903.35 106.172 1897.54 106.172 Q1891.73 106.172 1888.65 101.589 Q1885.6 96.9823 1885.6 88.2555 Q1885.6 79.5056 1888.65 74.9223 Q1891.73 70.3158 1897.54 70.3158 Z" fill="#000000" fill-rule="nonzero" fill-opacity="1" /><polyline clip-path="url(#clip273)" style="stroke:#009af9; stroke-linecap:round; stroke-linejoin:round; stroke-width:4; stroke-opacity:1; fill:none" points="1991.31,88.2208 2002.59,133.484 2013.87,178.119 2025.14,222.119 2036.42,265.479 2047.69,308.191 2058.97,350.249 2070.25,391.647 2081.52,432.377 2092.8,472.434 2104.07,511.81 2115.35,550.498 2126.63,588.491 2137.9,625.783 2149.18,662.366 2160.46,698.234 2171.73,733.378 2183.01,767.792 2194.28,801.468 2205.56,834.4 2216.84,866.578 2228.11,897.996 2239.39,928.646 2250.66,958.52 2261.94,987.611 2273.22,1015.91 2284.49,1043.41 2295.77,1070.1 2307.05,1095.98 2318.32,1121.03 2329.6,1145.25 2340.87,1168.63 2352.15,1191.16 2363.43,1212.83 2374.7,1233.64 2385.98,1253.57 2397.25,1272.62 2408.53,1290.77 2419.81,1308.02 2431.08,1324.36 2442.36,1339.78 2453.64,1354.27 2464.91,1367.83 2476.19,1380.43 2487.46,1392.08 2498.74,1402.75 2510.02,1412.45 2521.29,1421.17 2532.57,1428.88 2543.84,1435.59 2555.12,1441.28 2566.4,1445.95 2577.67,1449.57 2588.95,1452.15 2600.22,1453.66 2611.5,1454.11 2622.78,1453.48 2634.05,1451.75 2645.33,1448.92 2656.61,1444.98 2667.88,1439.91 2679.16,1433.71 2690.43,1426.36 2701.71,1417.85 2712.99,1408.16 2724.26,1397.3 2735.54,1385.24 2746.81,1371.97 2758.09,1357.48 2769.37,1341.76 2780.64,1324.8 2791.92,1306.58 2803.2,1287.09 2814.47,1266.32 2825.75,1244.26 2837.02,1220.88 2848.3,1196.19 2859.58,1170.16 2870.85,1142.78 2882.13,1114.04 2893.4,1083.92 2904.68,1052.42 2915.96,1019.51 2927.23,985.183 2938.51,949.425 2949.79,912.22 2961.06,873.554 2972.34,833.413 2983.61,791.78 2994.89,748.642 3006.17,703.983 3017.44,657.788 3028.72,610.041 3039.99,560.726 3051.27,509.828 3062.55,457.33 3073.82,403.217 3085.1,347.472 3096.38,290.079 3107.65,231.021 3118.93,170.281 "/>
<path clip-path="url(#clip270)" d="M1997.33 1446.83 L2190.67 1446.83 L2190.67 1343.15 L1997.33 1343.15  Z" fill="#ffffff" fill-rule="evenodd" fill-opacity="1"/>
<polyline clip-path="url(#clip270)" style="stroke:#000000; stroke-linecap:round; stroke-linejoin:round; stroke-width:4; stroke-opacity:1; fill:none" points="1997.33,1446.83 2190.67,1446.83 2190.67,1343.15 1997.33,1343.15 1997.33,1446.83 "/>
<polyline clip-path="url(#clip270)" style="stroke:#009af9; stroke-linecap:round; stroke-linejoin:round; stroke-width:4; stroke-opacity:1; fill:none" points="2010.61,1394.99 2090.29,1394.99 "/>
<path clip-path="url(#clip270)" d="M2116.98 1399.23 Q2111.81 1399.23 2109.82 1400.41 Q2107.83 1401.6 2107.83 1404.44 Q2107.83 1406.71 2109.31 1408.05 Q2110.82 1409.37 2113.39 1409.37 Q2116.93 1409.37 2119.06 1406.87 Q2121.21 1404.35 2121.21 1400.18 L2121.21 1399.23 L2116.98 1399.23 M2125.47 1397.47 L2125.47 1412.27 L2121.21 1412.27 L2121.21 1408.33 Q2119.75 1410.69 2117.58 1411.83 Q2115.4 1412.94 2112.25 1412.94 Q2108.27 1412.94 2105.91 1410.72 Q2103.57 1408.47 2103.57 1404.72 Q2103.57 1400.35 2106.49 1398.12 Q2109.43 1395.9 2115.24 1395.9 L2121.21 1395.9 L2121.21 1395.48 Q2121.21 1392.54 2119.27 1390.95 Q2117.35 1389.33 2113.85 1389.33 Q2111.63 1389.33 2109.52 1389.86 Q2107.42 1390.39 2105.47 1391.46 L2105.47 1387.52 Q2107.81 1386.62 2110.01 1386.18 Q2112.21 1385.72 2114.29 1385.72 Q2119.92 1385.72 2122.69 1388.63 Q2125.47 1391.55 2125.47 1397.47 Z" fill="#000000" fill-rule="nonzero" fill-opacity="1" /><path clip-path="url(#clip270)" d="M2135.66 1408.33 L2143.3 1408.33 L2143.3 1381.97 L2134.99 1383.63 L2134.99 1379.37 L2143.25 1377.71 L2147.93 1377.71 L2147.93 1408.33 L2155.56 1408.33 L2155.56 1412.27 L2135.66 1412.27 L2135.66 1408.33 Z" fill="#000000" fill-rule="nonzero" fill-opacity="1" /><path clip-path="url(#clip270)" d="M2168.62 1378.98 L2168.62 1386.34 L2177.39 1386.34 L2177.39 1389.65 L2168.62 1389.65 L2168.62 1403.72 Q2168.62 1406.9 2169.48 1407.8 Q2170.36 1408.7 2173.02 1408.7 L2177.39 1408.7 L2177.39 1412.27 L2173.02 1412.27 Q2168.09 1412.27 2166.21 1410.44 Q2164.34 1408.59 2164.34 1403.72 L2164.34 1389.65 L2161.21 1389.65 L2161.21 1386.34 L2164.34 1386.34 L2164.34 1378.98 L2168.62 1378.98 Z" fill="#000000" fill-rule="nonzero" fill-opacity="1" /></svg>