<?xml version="1.0" encoding="utf-8"?>
<svg xmlns="http://www.w3.org/2000/svg" xmlns:xlink="http://www.w3.org/1999/xlink" width="800" height="400" viewBox="0 0 3200 1600">
<defs>
  <clipPath id="clip180">
    <rect x="0" y="0" width="3200" height="1600"/>
  </clipPath>
</defs>
<path clip-path="url(#clip180)" d="M0 1600 L3200 1600 L3200 0 L0 0  Z" fill="#ffffff" fill-rule="evenodd" fill-opacity="1"/>
<defs>
  <clipPath id="clip181">
    <rect x="640" y="0" width="2241" height="1600"/>
  </clipPath>
</defs>
<path clip-path="url(#clip180)" d="M432.294 1495.09 L1672.81 1495.09 L1672.81 47.2441 L432.294 47.2441  Z" fill="#ffffff" fill-rule="evenodd" fill-opacity="1"/>
<defs>
  <clipPath id="clip182">
    <rect x="432" y="47" width="1242" height="1449"/>
  </clipPath>
</defs>
<polyline clip-path="url(#clip182)" style="stroke:#000000; stroke-linecap:round; stroke-linejoin:round; stroke-width:2; stroke-opacity:0.1; fill:none" points="455.699,1495.09 455.699,47.2441 "/>
<polyline clip-path="url(#clip182)" style="stroke:#000000; stroke-linecap:round; stroke-linejoin:round; stroke-width:2; stroke-opacity:0.1; fill:none" points="748.273,1495.09 748.273,47.2441 "/>
<polyline clip-path="url(#clip182)" style="stroke:#000000; stroke-linecap:round; stroke-linejoin:round; stroke-width:2; stroke-opacity:0.1; fill:none" points="1040.85,1495.09 1040.85,47.2441 "/>
<polyline clip-path="url(#clip182)" style="stroke:#000000; stroke-linecap:round; stroke-linejoin:round; stroke-width:2; stroke-opacity:0.1; fill:none" points="1333.42,1495.09 1333.42,47.2441 "/>
<polyline clip-path="url(#clip182)" style="stroke:#000000; stroke-linecap:round; stroke-linejoin:round; stroke-width:2; stroke-opacity:0.1; fill:none" points="1626,1495.09 1626,47.2441 "/>
<polyline clip-path="url(#clip180)" style="stroke:#000000; stroke-linecap:round; stroke-linejoin:round; stroke-width:4; stroke-opacity:1; fill:none" points="432.294,1495.09 1672.81,1495.09 "/>
<polyline clip-path="url(#clip180)" style="stroke:#000000; stroke-linecap:round; stroke-linejoin:round; stroke-width:4; stroke-opacity:1; fill:none" points="455.699,1495.09 455.699,1476.19 "/>
<polyline clip-path="url(#clip180)" style="stroke:#000000; stroke-linecap:round; stroke-linejoin:round; stroke-width:4; stroke-opacity:1; fill:none" points="748.273,1495.09 748.273,1476.19 "/>
<polyline clip-path="url(#clip180)" style="stroke:#000000; stroke-linecap:round; stroke-linejoin:round; stroke-width:4; stroke-opacity:1; fill:none" points="1040.85,1495.09 1040.85,1476.19 "/>
<polyline clip-path="url(#clip180)" style="stroke:#000000; stroke-linecap:round; stroke-linejoin:round; stroke-width:4; stroke-opacity:1; fill:none" points="1333.42,1495.09 1333.42,1476.19 "/>
<polyline clip-path="url(#clip180)" style="stroke:#000000; stroke-linecap:round; stroke-linejoin:round; stroke-width:4; stroke-opacity:1; fill:none" points="1626,1495.09 1626,1476.19 "/>
<path clip-path="url(#clip180)" d="M455.699 1532.41 Q452.088 1532.41 450.26 1535.97 Q448.454 1539.51 448.454 1546.64 Q448.454 1553.75 450.26 1557.31 Q452.088 1560.86 455.699 1560.86 Q459.334 1560.86 461.139 1557.31 Q462.968 1553.75 462.968 1546.64 Q462.968 1539.51 461.139 1535.97 Q459.334 1532.41 455.699 1532.41 M455.699 1528.7 Q461.51 1528.7 464.565 1533.31 Q467.644 1537.89 467.644 1546.64 Q467.644 1555.37 464.565 1559.98 Q461.51 1564.56 455.699 1564.56 Q449.889 1564.56 446.811 1559.98 Q443.755 1555.37 443.755 1546.64 Q443.755 1537.89 446.811 1533.31 Q449.889 1528.7 455.699 1528.7 Z" fill="#000000" fill-rule="nonzero" fill-opacity="1" /><path clip-path="url(#clip180)" d="M727.544 1559.95 L743.864 1559.95 L743.864 1563.89 L721.919 1563.89 L721.919 1559.95 Q724.581 1557.2 729.165 1552.57 Q733.771 1547.92 734.952 1546.57 Q737.197 1544.05 738.077 1542.31 Q738.98 1540.55 738.98 1538.86 Q738.98 1536.11 737.035 1534.37 Q735.114 1532.64 732.012 1532.64 Q729.813 1532.64 727.359 1533.4 Q724.929 1534.17 722.151 1535.72 L722.151 1530.99 Q724.975 1529.86 727.429 1529.28 Q729.882 1528.7 731.919 1528.7 Q737.29 1528.7 740.484 1531.39 Q743.679 1534.07 743.679 1538.56 Q743.679 1540.69 742.868 1542.61 Q742.081 1544.51 739.975 1547.11 Q739.396 1547.78 736.294 1550.99 Q733.193 1554.19 727.544 1559.95 Z" fill="#000000" fill-rule="nonzero" fill-opacity="1" /><path clip-path="url(#clip180)" d="M753.725 1529.33 L772.081 1529.33 L772.081 1533.26 L758.007 1533.26 L758.007 1541.74 Q759.026 1541.39 760.044 1541.23 Q761.063 1541.04 762.081 1541.04 Q767.868 1541.04 771.248 1544.21 Q774.628 1547.38 774.628 1552.8 Q774.628 1558.38 771.155 1561.48 Q767.683 1564.56 761.364 1564.56 Q759.188 1564.56 756.919 1564.19 Q754.674 1563.82 752.267 1563.08 L752.267 1558.38 Q754.35 1559.51 756.572 1560.07 Q758.794 1560.62 761.271 1560.62 Q765.276 1560.62 767.614 1558.52 Q769.952 1556.41 769.952 1552.8 Q769.952 1549.19 767.614 1547.08 Q765.276 1544.98 761.271 1544.98 Q759.396 1544.98 757.521 1545.39 Q755.669 1545.81 753.725 1546.69 L753.725 1529.33 Z" fill="#000000" fill-rule="nonzero" fill-opacity="1" /><path clip-path="url(#clip180)" d="M1015.55 1529.33 L1033.9 1529.33 L1033.9 1533.26 L1019.83 1533.26 L1019.83 1541.74 Q1020.85 1541.39 1021.87 1541.23 Q1022.88 1541.04 1023.9 1541.04 Q1029.69 1541.04 1033.07 1544.21 Q1036.45 1547.38 1036.45 1552.8 Q1036.45 1558.38 1032.98 1561.48 Q1029.5 1564.56 1023.19 1564.56 Q1021.01 1564.56 1018.74 1564.19 Q1016.5 1563.82 1014.09 1563.08 L1014.09 1558.38 Q1016.17 1559.51 1018.39 1560.07 Q1020.62 1560.62 1023.09 1560.62 Q1027.1 1560.62 1029.44 1558.52 Q1031.77 1556.41 1031.77 1552.8 Q1031.77 1549.19 1029.44 1547.08 Q1027.1 1544.98 1023.09 1544.98 Q1021.22 1544.98 1019.34 1545.39 Q1017.49 1545.81 1015.55 1546.69 L1015.55 1529.33 Z" fill="#000000" fill-rule="nonzero" fill-opacity="1" /><path clip-path="url(#clip180)" d="M1055.66 1532.41 Q1052.05 1532.41 1050.22 1535.97 Q1048.42 1539.51 1048.42 1546.64 Q1048.42 1553.75 1050.22 1557.31 Q1052.05 1560.86 1055.66 1560.86 Q1059.3 1560.86 1061.1 1557.31 Q1062.93 1553.75 1062.93 1546.64 Q1062.93 1539.51 1061.1 1535.97 Q1059.3 1532.41 1055.66 1532.41 M1055.66 1528.7 Q1061.47 1528.7 1064.53 1533.31 Q1067.61 1537.89 1067.61 1546.64 Q1067.61 1555.37 1064.53 1559.98 Q1061.47 1564.56 1055.66 1564.56 Q1049.85 1564.56 1046.77 1559.98 Q1043.72 1555.37 1043.72 1546.64 Q1043.72 1537.89 1046.77 1533.31 Q1049.85 1528.7 1055.66 1528.7 Z" fill="#000000" fill-rule="nonzero" fill-opacity="1" /><path clip-path="url(#clip180)" d="M1307.28 1529.33 L1329.5 1529.33 L1329.5 1531.32 L1316.95 1563.89 L1312.07 1563.89 L1323.87 1533.26 L1307.28 1533.26 L1307.28 1529.33 Z" fill="#000000" fill-rule="nonzero" fill-opacity="1" /><path clip-path="url(#clip180)" d="M1338.66 1529.33 L1357.02 1529.33 L1357.02 1533.26 L1342.95 1533.26 L1342.95 1541.74 Q1343.97 1541.39 1344.98 1541.23 Q1346 1541.04 1347.02 1541.04 Q1352.81 1541.04 1356.19 1544.21 Q1359.57 1547.38 1359.57 1552.8 Q1359.57 1558.38 1356.09 1561.48 Q1352.62 1564.56 1346.3 1564.56 Q1344.13 1564.56 1341.86 1564.19 Q1339.61 1563.82 1337.21 1563.08 L1337.21 1558.38 Q1339.29 1559.51 1341.51 1560.07 Q1343.73 1560.62 1346.21 1560.62 Q1350.22 1560.62 1352.55 1558.52 Q1354.89 1556.41 1354.89 1552.8 Q1354.89 1549.19 1352.55 1547.08 Q1350.22 1544.98 1346.21 1544.98 Q1344.34 1544.98 1342.46 1545.39 Q1340.61 1545.81 1338.66 1546.69 L1338.66 1529.33 Z" fill="#000000" fill-rule="nonzero" fill-opacity="1" /><path clip-path="url(#clip180)" d="M1585.6 1559.95 L1593.24 1559.95 L1593.24 1533.59 L1584.93 1535.25 L1584.93 1530.99 L1593.19 1529.33 L1597.87 1529.33 L1597.87 1559.95 L1605.51 1559.95 L1605.51 1563.89 L1585.6 1563.89 L1585.6 1559.95 Z" fill="#000000" fill-rule="nonzero" fill-opacity="1" /><path clip-path="url(#clip180)" d="M1624.95 1532.41 Q1621.34 1532.41 1619.51 1535.97 Q1617.71 1539.51 1617.71 1546.64 Q1617.71 1553.75 1619.51 1557.31 Q1621.34 1560.86 1624.95 1560.86 Q1628.59 1560.86 1630.39 1557.31 Q1632.22 1553.75 1632.22 1546.64 Q1632.22 1539.51 1630.39 1535.97 Q1628.59 1532.41 1624.95 1532.41 M1624.95 1528.7 Q1630.76 1528.7 1633.82 1533.31 Q1636.9 1537.89 1636.9 1546.64 Q1636.9 1555.37 1633.82 1559.98 Q1630.76 1564.56 1624.95 1564.56 Q1619.14 1564.56 1616.07 1559.98 Q1613.01 1555.37 1613.01 1546.64 Q1613.01 1537.89 1616.07 1533.31 Q1619.14 1528.7 1624.95 1528.7 Z" fill="#000000" fill-rule="nonzero" fill-opacity="1" /><path clip-path="url(#clip180)" d="M1655.12 1532.41 Q1651.5 1532.41 1649.68 1535.97 Q1647.87 1539.51 1647.87 1546.64 Q1647.87 1553.75 1649.68 1557.31 Q1651.5 1560.86 1655.12 1560.86 Q1658.75 1560.86 1660.56 1557.31 Q1662.38 1553.75 1662.38 1546.64 Q1662.38 1539.51 1660.56 1535.97 Q1658.75 1532.41 1655.12 1532.41 M1655.12 1528.7 Q1660.93 1528.7 1663.98 1533.31 Q1667.06 1537.89 1667.06 1546.64 Q1667.06 1555.37 1663.98 1559.98 Q1660.93 1564.56 1655.12 1564.56 Q1649.31 1564.56 1646.23 1559.98 Q1643.17 1555.37 1643.17 1546.64 Q1643.17 1537.89 1646.23 1533.31 Q1649.31 1528.7 1655.12 1528.7 Z" fill="#000000" fill-rule="nonzero" fill-opacity="1" /><polyline clip-path="url(#clip182)" style="stroke:#000000; stroke-linecap:round; stroke-linejoin:round; stroke-width:2; stroke-opacity:0.1; fill:none" points="432.294,1424.27 1672.81,1424.27 "/>
<polyline clip-path="url(#clip182)" style="stroke:#000000; stroke-linecap:round; stroke-linejoin:round; stroke-width:2; stroke-opacity:0.1; fill:none" points="432.294,1188.64 1672.81,1188.64 "/>
<polyline clip-path="url(#clip182)" style="stroke:#000000; stroke-linecap:round; stroke-linejoin:round; stroke-width:2; stroke-opacity:0.1; fill:none" points="432.294,953.001 1672.81,953.001 "/>
<polyline clip-path="url(#clip182)" style="stroke:#000000; stroke-linecap:round; stroke-linejoin:round; stroke-width:2; stroke-opacity:0.1; fill:none" points="432.294,717.364 1672.81,717.364 "/>
<polyline clip-path="url(#clip182)" style="stroke:#000000; stroke-linecap:round; stroke-linejoin:round; stroke-width:2; stroke-opacity:0.1; fill:none" points="432.294,481.728 1672.81,481.728 "/>
<polyline clip-path="url(#clip182)" style="stroke:#000000; stroke-linecap:round; stroke-linejoin:round; stroke-width:2; stroke-opacity:0.1; fill:none" points="432.294,246.091 1672.81,246.091 "/>
<polyline clip-path="url(#clip180)" style="stroke:#000000; stroke-linecap:round; stroke-linejoin:round; stroke-width:4; stroke-opacity:1; fill:none" points="432.294,1495.09 432.294,47.2441 "/>
<polyline clip-path="url(#clip180)" style="stroke:#000000; stroke-linecap:round; stroke-linejoin:round; stroke-width:4; stroke-opacity:1; fill:none" points="432.294,1424.27 451.191,1424.27 "/>
<polyline clip-path="url(#clip180)" style="stroke:#000000; stroke-linecap:round; stroke-linejoin:round; stroke-width:4; stroke-opacity:1; fill:none" points="432.294,1188.64 451.191,1188.64 "/>
<polyline clip-path="url(#clip180)" style="stroke:#000000; stroke-linecap:round; stroke-linejoin:round; stroke-width:4; stroke-opacity:1; fill:none" points="432.294,953.001 451.191,953.001 "/>
<polyline clip-path="url(#clip180)" style="stroke:#000000; stroke-linecap:round; stroke-linejoin:round; stroke-width:4; stroke-opacity:1; fill:none" points="432.294,717.364 451.191,717.364 "/>
<polyline clip-path="url(#clip180)" style="stroke:#000000; stroke-linecap:round; stroke-linejoin:round; stroke-width:4; stroke-opacity:1; fill:none" points="432.294,481.728 451.191,481.728 "/>
<polyline clip-path="url(#clip180)" style="stroke:#000000; stroke-linecap:round; stroke-linejoin:round; stroke-width:4; stroke-opacity:1; fill:none" points="432.294,246.091 451.191,246.091 "/>
<path clip-path="url(#clip180)" d="M47.6634 1444.07 L55.3023 1444.07 L55.3023 1417.7 L46.9921 1419.37 L46.9921 1415.11 L55.256 1413.44 L59.9319 1413.44 L59.9319 1444.07 L67.5707 1444.07 L67.5707 1448 L47.6634 1448 L47.6634 1444.07 Z" fill="#000000" fill-rule="nonzero" fill-opacity="1" /><path clip-path="url(#clip180)" d="M77.0151 1442.12 L81.8993 1442.12 L81.8993 1448 L77.0151 1448 L77.0151 1442.12 Z" fill="#000000" fill-rule="nonzero" fill-opacity="1" /><path clip-path="url(#clip180)" d="M92.8947 1444.07 L100.534 1444.07 L100.534 1417.7 L92.2234 1419.37 L92.2234 1415.11 L100.487 1413.44 L105.163 1413.44 L105.163 1444.07 L112.802 1444.07 L112.802 1448 L92.8947 1448 L92.8947 1444.07 Z" fill="#000000" fill-rule="nonzero" fill-opacity="1" /><path clip-path="url(#clip180)" d="M122.293 1413.44 L140.649 1413.44 L140.649 1417.38 L126.575 1417.38 L126.575 1425.85 Q127.594 1425.5 128.612 1425.34 Q129.631 1425.16 130.649 1425.16 Q136.436 1425.16 139.816 1428.33 Q143.195 1431.5 143.195 1436.91 Q143.195 1442.49 139.723 1445.6 Q136.251 1448.67 129.931 1448.67 Q127.756 1448.67 125.487 1448.3 Q123.242 1447.93 120.834 1447.19 L120.834 1442.49 Q122.918 1443.63 125.14 1444.18 Q127.362 1444.74 129.839 1444.74 Q133.844 1444.74 136.181 1442.63 Q138.519 1440.53 138.519 1436.91 Q138.519 1433.3 136.181 1431.2 Q133.844 1429.09 129.839 1429.09 Q127.964 1429.09 126.089 1429.51 Q124.237 1429.92 122.293 1430.8 L122.293 1413.44 Z" fill="#000000" fill-rule="nonzero" fill-opacity="1" /><path clip-path="url(#clip180)" d="M152.547 1447.28 L152.547 1443.03 Q154.306 1443.86 156.112 1444.3 Q157.917 1444.74 159.654 1444.74 Q164.283 1444.74 166.714 1441.64 Q169.167 1438.51 169.515 1432.17 Q168.172 1434.16 166.112 1435.22 Q164.052 1436.29 161.552 1436.29 Q156.367 1436.29 153.334 1433.16 Q150.325 1430.02 150.325 1424.58 Q150.325 1419.25 153.473 1416.04 Q156.621 1412.82 161.853 1412.82 Q167.848 1412.82 170.996 1417.42 Q174.167 1422.01 174.167 1430.76 Q174.167 1438.93 170.279 1443.81 Q166.413 1448.67 159.862 1448.67 Q158.103 1448.67 156.297 1448.33 Q154.492 1447.98 152.547 1447.28 M161.853 1432.63 Q165.001 1432.63 166.829 1430.48 Q168.681 1428.33 168.681 1424.58 Q168.681 1420.85 166.829 1418.7 Q165.001 1416.52 161.853 1416.52 Q158.704 1416.52 156.853 1418.7 Q155.024 1420.85 155.024 1424.58 Q155.024 1428.33 156.853 1430.48 Q158.704 1432.63 161.853 1432.63 Z" fill="#000000" fill-rule="nonzero" fill-opacity="1" /><path clip-path="url(#clip180)" d="M186.598 1444.07 L202.917 1444.07 L202.917 1448 L180.973 1448 L180.973 1444.07 Q183.635 1441.31 188.218 1436.68 Q192.825 1432.03 194.005 1430.69 Q196.251 1428.16 197.13 1426.43 Q198.033 1424.67 198.033 1422.98 Q198.033 1420.22 196.089 1418.49 Q194.167 1416.75 191.065 1416.75 Q188.866 1416.75 186.413 1417.52 Q183.982 1418.28 181.204 1419.83 L181.204 1415.11 Q184.028 1413.97 186.482 1413.4 Q188.936 1412.82 190.973 1412.82 Q196.343 1412.82 199.538 1415.5 Q202.732 1418.19 202.732 1422.68 Q202.732 1424.81 201.922 1426.73 Q201.135 1428.63 199.028 1431.22 Q198.45 1431.89 195.348 1435.11 Q192.246 1438.3 186.598 1444.07 Z" fill="#000000" fill-rule="nonzero" fill-opacity="1" /><path clip-path="url(#clip180)" d="M212.871 1447.28 L212.871 1443.03 Q214.63 1443.86 216.436 1444.3 Q218.241 1444.74 219.977 1444.74 Q224.607 1444.74 227.037 1441.64 Q229.491 1438.51 229.838 1432.17 Q228.496 1434.16 226.436 1435.22 Q224.375 1436.29 221.875 1436.29 Q216.69 1436.29 213.658 1433.16 Q210.649 1430.02 210.649 1424.58 Q210.649 1419.25 213.797 1416.04 Q216.945 1412.82 222.176 1412.82 Q228.172 1412.82 231.32 1417.42 Q234.491 1422.01 234.491 1430.76 Q234.491 1438.93 230.602 1443.81 Q226.737 1448.67 220.186 1448.67 Q218.426 1448.67 216.621 1448.33 Q214.815 1447.98 212.871 1447.28 M222.176 1432.63 Q225.325 1432.63 227.153 1430.48 Q229.005 1428.33 229.005 1424.58 Q229.005 1420.85 227.153 1418.7 Q225.325 1416.52 222.176 1416.52 Q219.028 1416.52 217.176 1418.7 Q215.348 1420.85 215.348 1424.58 Q215.348 1428.33 217.176 1430.48 Q219.028 1432.63 222.176 1432.63 Z" fill="#000000" fill-rule="nonzero" fill-opacity="1" /><path clip-path="url(#clip180)" d="M252.894 1416.52 Q249.283 1416.52 247.454 1420.09 Q245.648 1423.63 245.648 1430.76 Q245.648 1437.86 247.454 1441.43 Q249.283 1444.97 252.894 1444.97 Q256.528 1444.97 258.334 1441.43 Q260.162 1437.86 260.162 1430.76 Q260.162 1423.63 258.334 1420.09 Q256.528 1416.52 252.894 1416.52 M252.894 1412.82 Q258.704 1412.82 261.759 1417.42 Q264.838 1422.01 264.838 1430.76 Q264.838 1439.48 261.759 1444.09 Q258.704 1448.67 252.894 1448.67 Q247.084 1448.67 244.005 1444.09 Q240.949 1439.48 240.949 1430.76 Q240.949 1422.01 244.005 1417.42 Q247.084 1412.82 252.894 1412.82 Z" fill="#000000" fill-rule="nonzero" fill-opacity="1" /><path clip-path="url(#clip180)" d="M301.227 1422.54 L290.648 1433.16 L301.227 1443.74 L298.472 1446.54 L287.847 1435.92 L277.222 1446.54 L274.491 1443.74 L285.046 1433.16 L274.491 1422.54 L277.222 1419.74 L287.847 1430.36 L298.472 1419.74 L301.227 1422.54 Z" fill="#000000" fill-rule="nonzero" fill-opacity="1" /><path clip-path="url(#clip180)" d="M313.588 1444.07 L321.227 1444.07 L321.227 1417.7 L312.917 1419.37 L312.917 1415.11 L321.18 1413.44 L325.856 1413.44 L325.856 1444.07 L333.495 1444.07 L333.495 1448 L313.588 1448 L313.588 1444.07 Z" fill="#000000" fill-rule="nonzero" fill-opacity="1" /><path clip-path="url(#clip180)" d="M352.94 1416.52 Q349.328 1416.52 347.5 1420.09 Q345.694 1423.63 345.694 1430.76 Q345.694 1437.86 347.5 1441.43 Q349.328 1444.97 352.94 1444.97 Q356.574 1444.97 358.379 1441.43 Q360.208 1437.86 360.208 1430.76 Q360.208 1423.63 358.379 1420.09 Q356.574 1416.52 352.94 1416.52 M352.94 1412.82 Q358.75 1412.82 361.805 1417.42 Q364.884 1422.01 364.884 1430.76 Q364.884 1439.48 361.805 1444.09 Q358.75 1448.67 352.94 1448.67 Q347.129 1448.67 344.051 1444.09 Q340.995 1439.48 340.995 1430.76 Q340.995 1422.01 344.051 1417.42 Q347.129 1412.82 352.94 1412.82 Z" fill="#000000" fill-rule="nonzero" fill-opacity="1" /><path clip-path="url(#clip180)" d="M374.589 1395.01 Q371.655 1395.01 370.169 1397.91 Q368.702 1400.79 368.702 1406.58 Q368.702 1412.35 370.169 1415.25 Q371.655 1418.13 374.589 1418.13 Q377.542 1418.13 379.009 1415.25 Q380.494 1412.35 380.494 1406.58 Q380.494 1400.79 379.009 1397.91 Q377.542 1395.01 374.589 1395.01 M374.589 1392 Q379.31 1392 381.792 1395.75 Q384.294 1399.47 384.294 1406.58 Q384.294 1413.67 381.792 1417.41 Q379.31 1421.14 374.589 1421.14 Q369.868 1421.14 367.367 1417.41 Q364.884 1413.67 364.884 1406.58 Q364.884 1399.47 367.367 1395.75 Q369.868 1392 374.589 1392 Z" fill="#000000" fill-rule="nonzero" fill-opacity="1" /><path clip-path="url(#clip180)" d="M47.6634 1208.43 L55.3023 1208.43 L55.3023 1182.06 L46.9921 1183.73 L46.9921 1179.47 L55.256 1177.81 L59.9319 1177.81 L59.9319 1208.43 L67.5707 1208.43 L67.5707 1212.37 L47.6634 1212.37 L47.6634 1208.43 Z" fill="#000000" fill-rule="nonzero" fill-opacity="1" /><path clip-path="url(#clip180)" d="M77.0151 1206.49 L81.8993 1206.49 L81.8993 1212.37 L77.0151 1212.37 L77.0151 1206.49 Z" fill="#000000" fill-rule="nonzero" fill-opacity="1" /><path clip-path="url(#clip180)" d="M92.8947 1208.43 L100.534 1208.43 L100.534 1182.06 L92.2234 1183.73 L92.2234 1179.47 L100.487 1177.81 L105.163 1177.81 L105.163 1208.43 L112.802 1208.43 L112.802 1212.37 L92.8947 1212.37 L92.8947 1208.43 Z" fill="#000000" fill-rule="nonzero" fill-opacity="1" /><path clip-path="url(#clip180)" d="M122.293 1177.81 L140.649 1177.81 L140.649 1181.74 L126.575 1181.74 L126.575 1190.21 Q127.594 1189.87 128.612 1189.7 Q129.631 1189.52 130.649 1189.52 Q136.436 1189.52 139.816 1192.69 Q143.195 1195.86 143.195 1201.28 Q143.195 1206.86 139.723 1209.96 Q136.251 1213.04 129.931 1213.04 Q127.756 1213.04 125.487 1212.67 Q123.242 1212.3 120.834 1211.56 L120.834 1206.86 Q122.918 1207.99 125.14 1208.55 Q127.362 1209.1 129.839 1209.1 Q133.844 1209.1 136.181 1207 Q138.519 1204.89 138.519 1201.28 Q138.519 1197.67 136.181 1195.56 Q133.844 1193.45 129.839 1193.45 Q127.964 1193.45 126.089 1193.87 Q124.237 1194.29 122.293 1195.17 L122.293 1177.81 Z" fill="#000000" fill-rule="nonzero" fill-opacity="1" /><path clip-path="url(#clip180)" d="M152.547 1211.65 L152.547 1207.39 Q154.306 1208.22 156.112 1208.66 Q157.917 1209.1 159.654 1209.1 Q164.283 1209.1 166.714 1206 Q169.167 1202.87 169.515 1196.53 Q168.172 1198.52 166.112 1199.59 Q164.052 1200.65 161.552 1200.65 Q156.367 1200.65 153.334 1197.53 Q150.325 1194.38 150.325 1188.94 Q150.325 1183.62 153.473 1180.4 Q156.621 1177.18 161.853 1177.18 Q167.848 1177.18 170.996 1181.79 Q174.167 1186.37 174.167 1195.12 Q174.167 1203.29 170.279 1208.18 Q166.413 1213.04 159.862 1213.04 Q158.103 1213.04 156.297 1212.69 Q154.492 1212.34 152.547 1211.65 M161.853 1197 Q165.001 1197 166.829 1194.84 Q168.681 1192.69 168.681 1188.94 Q168.681 1185.21 166.829 1183.06 Q165.001 1180.88 161.853 1180.88 Q158.704 1180.88 156.853 1183.06 Q155.024 1185.21 155.024 1188.94 Q155.024 1192.69 156.853 1194.84 Q158.704 1197 161.853 1197 Z" fill="#000000" fill-rule="nonzero" fill-opacity="1" /><path clip-path="url(#clip180)" d="M196.737 1193.73 Q200.093 1194.45 201.968 1196.72 Q203.866 1198.99 203.866 1202.32 Q203.866 1207.44 200.348 1210.24 Q196.829 1213.04 190.348 1213.04 Q188.172 1213.04 185.857 1212.6 Q183.565 1212.18 181.112 1211.32 L181.112 1206.81 Q183.056 1207.94 185.371 1208.52 Q187.686 1209.1 190.209 1209.1 Q194.607 1209.1 196.899 1207.37 Q199.214 1205.63 199.214 1202.32 Q199.214 1199.26 197.061 1197.55 Q194.931 1195.81 191.112 1195.81 L187.084 1195.81 L187.084 1191.97 L191.297 1191.97 Q194.746 1191.97 196.575 1190.61 Q198.403 1189.22 198.403 1186.63 Q198.403 1183.96 196.505 1182.55 Q194.63 1181.12 191.112 1181.12 Q189.19 1181.12 186.991 1181.53 Q184.792 1181.95 182.153 1182.83 L182.153 1178.66 Q184.815 1177.92 187.13 1177.55 Q189.468 1177.18 191.528 1177.18 Q196.852 1177.18 199.954 1179.61 Q203.056 1182.02 203.056 1186.14 Q203.056 1189.01 201.413 1191 Q199.769 1192.97 196.737 1193.73 Z" fill="#000000" fill-rule="nonzero" fill-opacity="1" /><path clip-path="url(#clip180)" d="M222.732 1180.88 Q219.121 1180.88 217.292 1184.45 Q215.487 1187.99 215.487 1195.12 Q215.487 1202.23 217.292 1205.79 Q219.121 1209.33 222.732 1209.33 Q226.366 1209.33 228.172 1205.79 Q230 1202.23 230 1195.12 Q230 1187.99 228.172 1184.45 Q226.366 1180.88 222.732 1180.88 M222.732 1177.18 Q228.542 1177.18 231.598 1181.79 Q234.676 1186.37 234.676 1195.12 Q234.676 1203.85 231.598 1208.45 Q228.542 1213.04 222.732 1213.04 Q216.922 1213.04 213.843 1208.45 Q210.788 1203.85 210.788 1195.12 Q210.788 1186.37 213.843 1181.79 Q216.922 1177.18 222.732 1177.18 Z" fill="#000000" fill-rule="nonzero" fill-opacity="1" /><path clip-path="url(#clip180)" d="M252.894 1180.88 Q249.283 1180.88 247.454 1184.45 Q245.648 1187.99 245.648 1195.12 Q245.648 1202.23 247.454 1205.79 Q249.283 1209.33 252.894 1209.33 Q256.528 1209.33 258.334 1205.79 Q260.162 1202.23 260.162 1195.12 Q260.162 1187.99 258.334 1184.45 Q256.528 1180.88 252.894 1180.88 M252.894 1177.18 Q258.704 1177.18 261.759 1181.79 Q264.838 1186.37 264.838 1195.12 Q264.838 1203.85 261.759 1208.45 Q258.704 1213.04 252.894 1213.04 Q247.084 1213.04 244.005 1208.45 Q240.949 1203.85 240.949 1195.12 Q240.949 1186.37 244.005 1181.79 Q247.084 1177.18 252.894 1177.18 Z" fill="#000000" fill-rule="nonzero" fill-opacity="1" /><path clip-path="url(#clip180)" d="M301.227 1186.9 L290.648 1197.53 L301.227 1208.11 L298.472 1210.91 L287.847 1200.28 L277.222 1210.91 L274.491 1208.11 L285.046 1197.53 L274.491 1186.9 L277.222 1184.1 L287.847 1194.73 L298.472 1184.1 L301.227 1186.9 Z" fill="#000000" fill-rule="nonzero" fill-opacity="1" /><path clip-path="url(#clip180)" d="M313.588 1208.43 L321.227 1208.43 L321.227 1182.06 L312.917 1183.73 L312.917 1179.47 L321.18 1177.81 L325.856 1177.81 L325.856 1208.43 L333.495 1208.43 L333.495 1212.37 L313.588 1212.37 L313.588 1208.43 Z" fill="#000000" fill-rule="nonzero" fill-opacity="1" /><path clip-path="url(#clip180)" d="M352.94 1180.88 Q349.328 1180.88 347.5 1184.45 Q345.694 1187.99 345.694 1195.12 Q345.694 1202.23 347.5 1205.79 Q349.328 1209.33 352.94 1209.33 Q356.574 1209.33 358.379 1205.79 Q360.208 1202.23 360.208 1195.12 Q360.208 1187.99 358.379 1184.45 Q356.574 1180.88 352.94 1180.88 M352.94 1177.18 Q358.75 1177.18 361.805 1181.79 Q364.884 1186.37 364.884 1195.12 Q364.884 1203.85 361.805 1208.45 Q358.75 1213.04 352.94 1213.04 Q347.129 1213.04 344.051 1208.45 Q340.995 1203.85 340.995 1195.12 Q340.995 1186.37 344.051 1181.79 Q347.129 1177.18 352.94 1177.18 Z" fill="#000000" fill-rule="nonzero" fill-opacity="1" /><path clip-path="url(#clip180)" d="M374.589 1159.38 Q371.655 1159.38 370.169 1162.27 Q368.702 1165.15 368.702 1170.94 Q368.702 1176.72 370.169 1179.61 Q371.655 1182.49 374.589 1182.49 Q377.542 1182.49 379.009 1179.61 Q380.494 1176.72 380.494 1170.94 Q380.494 1165.15 379.009 1162.27 Q377.542 1159.38 374.589 1159.38 M374.589 1156.37 Q379.31 1156.37 381.792 1160.11 Q384.294 1163.83 384.294 1170.94 Q384.294 1178.03 381.792 1181.78 Q379.31 1185.5 374.589 1185.5 Q369.868 1185.5 367.367 1181.78 Q364.884 1178.03 364.884 1170.94 Q364.884 1163.83 367.367 1160.11 Q369.868 1156.37 374.589 1156.37 Z" fill="#000000" fill-rule="nonzero" fill-opacity="1" /><path clip-path="url(#clip180)" d="M47.6634 972.794 L55.3023 972.794 L55.3023 946.428 L46.9921 948.095 L46.9921 943.835 L55.256 942.169 L59.9319 942.169 L59.9319 972.794 L67.5707 972.794 L67.5707 976.729 L47.6634 976.729 L47.6634 972.794 Z" fill="#000000" fill-rule="nonzero" fill-opacity="1" /><path clip-path="url(#clip180)" d="M77.0151 970.849 L81.8993 970.849 L81.8993 976.729 L77.0151 976.729 L77.0151 970.849 Z" fill="#000000" fill-rule="nonzero" fill-opacity="1" /><path clip-path="url(#clip180)" d="M92.8947 972.794 L100.534 972.794 L100.534 946.428 L92.2234 948.095 L92.2234 943.835 L100.487 942.169 L105.163 942.169 L105.163 972.794 L112.802 972.794 L112.802 976.729 L92.8947 976.729 L92.8947 972.794 Z" fill="#000000" fill-rule="nonzero" fill-opacity="1" /><path clip-path="url(#clip180)" d="M122.293 942.169 L140.649 942.169 L140.649 946.104 L126.575 946.104 L126.575 954.576 Q127.594 954.229 128.612 954.067 Q129.631 953.882 130.649 953.882 Q136.436 953.882 139.816 957.053 Q143.195 960.224 143.195 965.641 Q143.195 971.22 139.723 974.321 Q136.251 977.4 129.931 977.4 Q127.756 977.4 125.487 977.03 Q123.242 976.659 120.834 975.919 L120.834 971.22 Q122.918 972.354 125.14 972.909 Q127.362 973.465 129.839 973.465 Q133.844 973.465 136.181 971.358 Q138.519 969.252 138.519 965.641 Q138.519 962.03 136.181 959.923 Q133.844 957.817 129.839 957.817 Q127.964 957.817 126.089 958.234 Q124.237 958.65 122.293 959.53 L122.293 942.169 Z" fill="#000000" fill-rule="nonzero" fill-opacity="1" /><path clip-path="url(#clip180)" d="M152.547 976.011 L152.547 971.752 Q154.306 972.585 156.112 973.025 Q157.917 973.465 159.654 973.465 Q164.283 973.465 166.714 970.363 Q169.167 967.238 169.515 960.896 Q168.172 962.886 166.112 963.951 Q164.052 965.016 161.552 965.016 Q156.367 965.016 153.334 961.891 Q150.325 958.743 150.325 953.303 Q150.325 947.979 153.473 944.761 Q156.621 941.544 161.853 941.544 Q167.848 941.544 170.996 946.15 Q174.167 950.734 174.167 959.484 Q174.167 967.655 170.279 972.539 Q166.413 977.4 159.862 977.4 Q158.103 977.4 156.297 977.053 Q154.492 976.706 152.547 976.011 M161.853 961.359 Q165.001 961.359 166.829 959.206 Q168.681 957.053 168.681 953.303 Q168.681 949.576 166.829 947.423 Q165.001 945.247 161.853 945.247 Q158.704 945.247 156.853 947.423 Q155.024 949.576 155.024 953.303 Q155.024 957.053 156.853 959.206 Q158.704 961.359 161.853 961.359 Z" fill="#000000" fill-rule="nonzero" fill-opacity="1" /><path clip-path="url(#clip180)" d="M196.737 958.095 Q200.093 958.812 201.968 961.081 Q203.866 963.349 203.866 966.683 Q203.866 971.798 200.348 974.599 Q196.829 977.4 190.348 977.4 Q188.172 977.4 185.857 976.96 Q183.565 976.544 181.112 975.687 L181.112 971.173 Q183.056 972.308 185.371 972.886 Q187.686 973.465 190.209 973.465 Q194.607 973.465 196.899 971.729 Q199.214 969.993 199.214 966.683 Q199.214 963.627 197.061 961.914 Q194.931 960.178 191.112 960.178 L187.084 960.178 L187.084 956.335 L191.297 956.335 Q194.746 956.335 196.575 954.97 Q198.403 953.581 198.403 950.988 Q198.403 948.326 196.505 946.914 Q194.63 945.479 191.112 945.479 Q189.19 945.479 186.991 945.896 Q184.792 946.312 182.153 947.192 L182.153 943.025 Q184.815 942.285 187.13 941.914 Q189.468 941.544 191.528 941.544 Q196.852 941.544 199.954 943.974 Q203.056 946.382 203.056 950.502 Q203.056 953.372 201.413 955.363 Q199.769 957.331 196.737 958.095 Z" fill="#000000" fill-rule="nonzero" fill-opacity="1" /><path clip-path="url(#clip180)" d="M213.542 972.794 L221.181 972.794 L221.181 946.428 L212.871 948.095 L212.871 943.835 L221.135 942.169 L225.811 942.169 L225.811 972.794 L233.449 972.794 L233.449 976.729 L213.542 976.729 L213.542 972.794 Z" fill="#000000" fill-rule="nonzero" fill-opacity="1" /><path clip-path="url(#clip180)" d="M252.894 945.247 Q249.283 945.247 247.454 948.812 Q245.648 952.354 245.648 959.484 Q245.648 966.59 247.454 970.155 Q249.283 973.696 252.894 973.696 Q256.528 973.696 258.334 970.155 Q260.162 966.59 260.162 959.484 Q260.162 952.354 258.334 948.812 Q256.528 945.247 252.894 945.247 M252.894 941.544 Q258.704 941.544 261.759 946.15 Q264.838 950.734 264.838 959.484 Q264.838 968.21 261.759 972.817 Q258.704 977.4 252.894 977.4 Q247.084 977.4 244.005 972.817 Q240.949 968.21 240.949 959.484 Q240.949 950.734 244.005 946.15 Q247.084 941.544 252.894 941.544 Z" fill="#000000" fill-rule="nonzero" fill-opacity="1" /><path clip-path="url(#clip180)" d="M301.227 951.266 L290.648 961.891 L301.227 972.47 L298.472 975.27 L287.847 964.646 L277.222 975.27 L274.491 972.47 L285.046 961.891 L274.491 951.266 L277.222 948.465 L287.847 959.09 L298.472 948.465 L301.227 951.266 Z" fill="#000000" fill-rule="nonzero" fill-opacity="1" /><path clip-path="url(#clip180)" d="M313.588 972.794 L321.227 972.794 L321.227 946.428 L312.917 948.095 L312.917 943.835 L321.18 942.169 L325.856 942.169 L325.856 972.794 L333.495 972.794 L333.495 976.729 L313.588 976.729 L313.588 972.794 Z" fill="#000000" fill-rule="nonzero" fill-opacity="1" /><path clip-path="url(#clip180)" d="M352.94 945.247 Q349.328 945.247 347.5 948.812 Q345.694 952.354 345.694 959.484 Q345.694 966.59 347.5 970.155 Q349.328 973.696 352.94 973.696 Q356.574 973.696 358.379 970.155 Q360.208 966.59 360.208 959.484 Q360.208 952.354 358.379 948.812 Q356.574 945.247 352.94 945.247 M352.94 941.544 Q358.75 941.544 361.805 946.15 Q364.884 950.734 364.884 959.484 Q364.884 968.21 361.805 972.817 Q358.75 977.4 352.94 977.4 Q347.129 977.4 344.051 972.817 Q340.995 968.21 340.995 959.484 Q340.995 950.734 344.051 946.15 Q347.129 941.544 352.94 941.544 Z" fill="#000000" fill-rule="nonzero" fill-opacity="1" /><path clip-path="url(#clip180)" d="M374.589 923.74 Q371.655 923.74 370.169 926.636 Q368.702 929.514 368.702 935.307 Q368.702 941.081 370.169 943.977 Q371.655 946.855 374.589 946.855 Q377.542 946.855 379.009 943.977 Q380.494 941.081 380.494 935.307 Q380.494 929.514 379.009 926.636 Q377.542 923.74 374.589 923.74 M374.589 920.731 Q379.31 920.731 381.792 924.473 Q384.294 928.197 384.294 935.307 Q384.294 942.397 381.792 946.14 Q379.31 949.864 374.589 949.864 Q369.868 949.864 367.367 946.14 Q364.884 942.397 364.884 935.307 Q364.884 928.197 367.367 924.473 Q369.868 920.731 374.589 920.731 Z" fill="#000000" fill-rule="nonzero" fill-opacity="1" /><path clip-path="url(#clip180)" d="M47.6634 737.157 L55.3023 737.157 L55.3023 710.791 L46.9921 712.458 L46.9921 708.199 L55.256 706.532 L59.9319 706.532 L59.9319 737.157 L67.5707 737.157 L67.5707 741.092 L47.6634 741.092 L47.6634 737.157 Z" fill="#000000" fill-rule="nonzero" fill-opacity="1" /><path clip-path="url(#clip180)" d="M77.0151 735.212 L81.8993 735.212 L81.8993 741.092 L77.0151 741.092 L77.0151 735.212 Z" fill="#000000" fill-rule="nonzero" fill-opacity="1" /><path clip-path="url(#clip180)" d="M92.8947 737.157 L100.534 737.157 L100.534 710.791 L92.2234 712.458 L92.2234 708.199 L100.487 706.532 L105.163 706.532 L105.163 737.157 L112.802 737.157 L112.802 741.092 L92.8947 741.092 L92.8947 737.157 Z" fill="#000000" fill-rule="nonzero" fill-opacity="1" /><path clip-path="url(#clip180)" d="M122.293 706.532 L140.649 706.532 L140.649 710.467 L126.575 710.467 L126.575 718.939 Q127.594 718.592 128.612 718.43 Q129.631 718.245 130.649 718.245 Q136.436 718.245 139.816 721.416 Q143.195 724.587 143.195 730.004 Q143.195 735.583 139.723 738.685 Q136.251 741.763 129.931 741.763 Q127.756 741.763 125.487 741.393 Q123.242 741.023 120.834 740.282 L120.834 735.583 Q122.918 736.717 125.14 737.273 Q127.362 737.828 129.839 737.828 Q133.844 737.828 136.181 735.722 Q138.519 733.615 138.519 730.004 Q138.519 726.393 136.181 724.287 Q133.844 722.18 129.839 722.18 Q127.964 722.18 126.089 722.597 Q124.237 723.013 122.293 723.893 L122.293 706.532 Z" fill="#000000" fill-rule="nonzero" fill-opacity="1" /><path clip-path="url(#clip180)" d="M152.547 740.374 L152.547 736.115 Q154.306 736.948 156.112 737.388 Q157.917 737.828 159.654 737.828 Q164.283 737.828 166.714 734.726 Q169.167 731.601 169.515 725.259 Q168.172 727.249 166.112 728.314 Q164.052 729.379 161.552 729.379 Q156.367 729.379 153.334 726.254 Q150.325 723.106 150.325 717.666 Q150.325 712.342 153.473 709.125 Q156.621 705.907 161.853 705.907 Q167.848 705.907 170.996 710.513 Q174.167 715.097 174.167 723.847 Q174.167 732.018 170.279 736.902 Q166.413 741.763 159.862 741.763 Q158.103 741.763 156.297 741.416 Q154.492 741.069 152.547 740.374 M161.853 725.722 Q165.001 725.722 166.829 723.569 Q168.681 721.416 168.681 717.666 Q168.681 713.939 166.829 711.787 Q165.001 709.611 161.853 709.611 Q158.704 709.611 156.853 711.787 Q155.024 713.939 155.024 717.666 Q155.024 721.416 156.853 723.569 Q158.704 725.722 161.853 725.722 Z" fill="#000000" fill-rule="nonzero" fill-opacity="1" /><path clip-path="url(#clip180)" d="M196.737 722.458 Q200.093 723.175 201.968 725.444 Q203.866 727.712 203.866 731.046 Q203.866 736.161 200.348 738.962 Q196.829 741.763 190.348 741.763 Q188.172 741.763 185.857 741.323 Q183.565 740.907 181.112 740.05 L181.112 735.536 Q183.056 736.671 185.371 737.249 Q187.686 737.828 190.209 737.828 Q194.607 737.828 196.899 736.092 Q199.214 734.356 199.214 731.046 Q199.214 727.99 197.061 726.277 Q194.931 724.541 191.112 724.541 L187.084 724.541 L187.084 720.699 L191.297 720.699 Q194.746 720.699 196.575 719.333 Q198.403 717.944 198.403 715.351 Q198.403 712.689 196.505 711.277 Q194.63 709.842 191.112 709.842 Q189.19 709.842 186.991 710.259 Q184.792 710.675 182.153 711.555 L182.153 707.388 Q184.815 706.648 187.13 706.277 Q189.468 705.907 191.528 705.907 Q196.852 705.907 199.954 708.338 Q203.056 710.745 203.056 714.865 Q203.056 717.736 201.413 719.726 Q199.769 721.694 196.737 722.458 Z" fill="#000000" fill-rule="nonzero" fill-opacity="1" /><path clip-path="url(#clip180)" d="M216.76 737.157 L233.079 737.157 L233.079 741.092 L211.135 741.092 L211.135 737.157 Q213.797 734.402 218.38 729.773 Q222.987 725.12 224.167 723.777 Q226.412 721.254 227.292 719.518 Q228.195 717.759 228.195 716.069 Q228.195 713.314 226.25 711.578 Q224.329 709.842 221.227 709.842 Q219.028 709.842 216.575 710.606 Q214.144 711.37 211.366 712.921 L211.366 708.199 Q214.19 707.064 216.644 706.486 Q219.098 705.907 221.135 705.907 Q226.505 705.907 229.699 708.592 Q232.894 711.277 232.894 715.768 Q232.894 717.898 232.084 719.819 Q231.297 721.717 229.19 724.31 Q228.612 724.981 225.51 728.199 Q222.408 731.393 216.76 737.157 Z" fill="#000000" fill-rule="nonzero" fill-opacity="1" /><path clip-path="url(#clip180)" d="M252.894 709.611 Q249.283 709.611 247.454 713.175 Q245.648 716.717 245.648 723.847 Q245.648 730.953 247.454 734.518 Q249.283 738.06 252.894 738.06 Q256.528 738.06 258.334 734.518 Q260.162 730.953 260.162 723.847 Q260.162 716.717 258.334 713.175 Q256.528 709.611 252.894 709.611 M252.894 705.907 Q258.704 705.907 261.759 710.513 Q264.838 715.097 264.838 723.847 Q264.838 732.574 261.759 737.18 Q258.704 741.763 252.894 741.763 Q247.084 741.763 244.005 737.18 Q240.949 732.574 240.949 723.847 Q240.949 715.097 244.005 710.513 Q247.084 705.907 252.894 705.907 Z" fill="#000000" fill-rule="nonzero" fill-opacity="1" /><path clip-path="url(#clip180)" d="M301.227 715.629 L290.648 726.254 L301.227 736.833 L298.472 739.634 L287.847 729.009 L277.222 739.634 L274.491 736.833 L285.046 726.254 L274.491 715.629 L277.222 712.828 L287.847 723.453 L298.472 712.828 L301.227 715.629 Z" fill="#000000" fill-rule="nonzero" fill-opacity="1" /><path clip-path="url(#clip180)" d="M313.588 737.157 L321.227 737.157 L321.227 710.791 L312.917 712.458 L312.917 708.199 L321.18 706.532 L325.856 706.532 L325.856 737.157 L333.495 737.157 L333.495 741.092 L313.588 741.092 L313.588 737.157 Z" fill="#000000" fill-rule="nonzero" fill-opacity="1" /><path clip-path="url(#clip180)" d="M352.94 709.611 Q349.328 709.611 347.5 713.175 Q345.694 716.717 345.694 723.847 Q345.694 730.953 347.5 734.518 Q349.328 738.06 352.94 738.06 Q356.574 738.06 358.379 734.518 Q360.208 730.953 360.208 723.847 Q360.208 716.717 358.379 713.175 Q356.574 709.611 352.94 709.611 M352.94 705.907 Q358.75 705.907 361.805 710.513 Q364.884 715.097 364.884 723.847 Q364.884 732.574 361.805 737.18 Q358.75 741.763 352.94 741.763 Q347.129 741.763 344.051 737.18 Q340.995 732.574 340.995 723.847 Q340.995 715.097 344.051 710.513 Q347.129 705.907 352.94 705.907 Z" fill="#000000" fill-rule="nonzero" fill-opacity="1" /><path clip-path="url(#clip180)" d="M374.589 688.103 Q371.655 688.103 370.169 690.999 Q368.702 693.877 368.702 699.67 Q368.702 705.444 370.169 708.34 Q371.655 711.218 374.589 711.218 Q377.542 711.218 379.009 708.34 Q380.494 705.444 380.494 699.67 Q380.494 693.877 379.009 690.999 Q377.542 688.103 374.589 688.103 M374.589 685.094 Q379.31 685.094 381.792 688.837 Q384.294 692.56 384.294 699.67 Q384.294 706.76 381.792 710.503 Q379.31 714.227 374.589 714.227 Q369.868 714.227 367.367 710.503 Q364.884 706.76 364.884 699.67 Q364.884 692.56 367.367 688.837 Q369.868 685.094 374.589 685.094 Z" fill="#000000" fill-rule="nonzero" fill-opacity="1" /><path clip-path="url(#clip180)" d="M47.6634 501.52 L55.3023 501.52 L55.3023 475.154 L46.9921 476.821 L46.9921 472.562 L55.256 470.895 L59.9319 470.895 L59.9319 501.52 L67.5707 501.52 L67.5707 505.455 L47.6634 505.455 L47.6634 501.52 Z" fill="#000000" fill-rule="nonzero" fill-opacity="1" /><path clip-path="url(#clip180)" d="M77.0151 499.576 L81.8993 499.576 L81.8993 505.455 L77.0151 505.455 L77.0151 499.576 Z" fill="#000000" fill-rule="nonzero" fill-opacity="1" /><path clip-path="url(#clip180)" d="M92.8947 501.52 L100.534 501.52 L100.534 475.154 L92.2234 476.821 L92.2234 472.562 L100.487 470.895 L105.163 470.895 L105.163 501.52 L112.802 501.52 L112.802 505.455 L92.8947 505.455 L92.8947 501.52 Z" fill="#000000" fill-rule="nonzero" fill-opacity="1" /><path clip-path="url(#clip180)" d="M122.293 470.895 L140.649 470.895 L140.649 474.83 L126.575 474.83 L126.575 483.303 Q127.594 482.955 128.612 482.793 Q129.631 482.608 130.649 482.608 Q136.436 482.608 139.816 485.779 Q143.195 488.951 143.195 494.367 Q143.195 499.946 139.723 503.048 Q136.251 506.126 129.931 506.126 Q127.756 506.126 125.487 505.756 Q123.242 505.386 120.834 504.645 L120.834 499.946 Q122.918 501.08 125.14 501.636 Q127.362 502.191 129.839 502.191 Q133.844 502.191 136.181 500.085 Q138.519 497.978 138.519 494.367 Q138.519 490.756 136.181 488.65 Q133.844 486.543 129.839 486.543 Q127.964 486.543 126.089 486.96 Q124.237 487.377 122.293 488.256 L122.293 470.895 Z" fill="#000000" fill-rule="nonzero" fill-opacity="1" /><path clip-path="url(#clip180)" d="M152.547 504.738 L152.547 500.478 Q154.306 501.312 156.112 501.751 Q157.917 502.191 159.654 502.191 Q164.283 502.191 166.714 499.089 Q169.167 495.964 169.515 489.622 Q168.172 491.613 166.112 492.677 Q164.052 493.742 161.552 493.742 Q156.367 493.742 153.334 490.617 Q150.325 487.469 150.325 482.029 Q150.325 476.705 153.473 473.488 Q156.621 470.27 161.853 470.27 Q167.848 470.27 170.996 474.877 Q174.167 479.46 174.167 488.21 Q174.167 496.381 170.279 501.265 Q166.413 506.126 159.862 506.126 Q158.103 506.126 156.297 505.779 Q154.492 505.432 152.547 504.738 M161.853 490.085 Q165.001 490.085 166.829 487.932 Q168.681 485.779 168.681 482.029 Q168.681 478.303 166.829 476.15 Q165.001 473.974 161.853 473.974 Q158.704 473.974 156.853 476.15 Q155.024 478.303 155.024 482.029 Q155.024 485.779 156.853 487.932 Q158.704 490.085 161.853 490.085 Z" fill="#000000" fill-rule="nonzero" fill-opacity="1" /><path clip-path="url(#clip180)" d="M196.737 486.821 Q200.093 487.539 201.968 489.807 Q203.866 492.076 203.866 495.409 Q203.866 500.525 200.348 503.326 Q196.829 506.126 190.348 506.126 Q188.172 506.126 185.857 505.687 Q183.565 505.27 181.112 504.414 L181.112 499.9 Q183.056 501.034 185.371 501.613 Q187.686 502.191 190.209 502.191 Q194.607 502.191 196.899 500.455 Q199.214 498.719 199.214 495.409 Q199.214 492.353 197.061 490.64 Q194.931 488.904 191.112 488.904 L187.084 488.904 L187.084 485.062 L191.297 485.062 Q194.746 485.062 196.575 483.696 Q198.403 482.307 198.403 479.715 Q198.403 477.053 196.505 475.641 Q194.63 474.205 191.112 474.205 Q189.19 474.205 186.991 474.622 Q184.792 475.039 182.153 475.918 L182.153 471.752 Q184.815 471.011 187.13 470.641 Q189.468 470.27 191.528 470.27 Q196.852 470.27 199.954 472.701 Q203.056 475.108 203.056 479.228 Q203.056 482.099 201.413 484.09 Q199.769 486.057 196.737 486.821 Z" fill="#000000" fill-rule="nonzero" fill-opacity="1" /><path clip-path="url(#clip180)" d="M226.899 486.821 Q230.255 487.539 232.13 489.807 Q234.028 492.076 234.028 495.409 Q234.028 500.525 230.51 503.326 Q226.991 506.126 220.51 506.126 Q218.334 506.126 216.019 505.687 Q213.727 505.27 211.274 504.414 L211.274 499.9 Q213.218 501.034 215.533 501.613 Q217.848 502.191 220.371 502.191 Q224.769 502.191 227.061 500.455 Q229.375 498.719 229.375 495.409 Q229.375 492.353 227.223 490.64 Q225.093 488.904 221.274 488.904 L217.246 488.904 L217.246 485.062 L221.459 485.062 Q224.908 485.062 226.737 483.696 Q228.565 482.307 228.565 479.715 Q228.565 477.053 226.667 475.641 Q224.792 474.205 221.274 474.205 Q219.352 474.205 217.153 474.622 Q214.954 475.039 212.315 475.918 L212.315 471.752 Q214.977 471.011 217.292 470.641 Q219.63 470.27 221.69 470.27 Q227.014 470.27 230.116 472.701 Q233.218 475.108 233.218 479.228 Q233.218 482.099 231.574 484.09 Q229.931 486.057 226.899 486.821 Z" fill="#000000" fill-rule="nonzero" fill-opacity="1" /><path clip-path="url(#clip180)" d="M252.894 473.974 Q249.283 473.974 247.454 477.539 Q245.648 481.08 245.648 488.21 Q245.648 495.316 247.454 498.881 Q249.283 502.423 252.894 502.423 Q256.528 502.423 258.334 498.881 Q260.162 495.316 260.162 488.21 Q260.162 481.08 258.334 477.539 Q256.528 473.974 252.894 473.974 M252.894 470.27 Q258.704 470.27 261.759 474.877 Q264.838 479.46 264.838 488.21 Q264.838 496.937 261.759 501.543 Q258.704 506.126 252.894 506.126 Q247.084 506.126 244.005 501.543 Q240.949 496.937 240.949 488.21 Q240.949 479.46 244.005 474.877 Q247.084 470.27 252.894 470.27 Z" fill="#000000" fill-rule="nonzero" fill-opacity="1" /><path clip-path="url(#clip180)" d="M301.227 479.992 L290.648 490.617 L301.227 501.196 L298.472 503.997 L287.847 493.372 L277.222 503.997 L274.491 501.196 L285.046 490.617 L274.491 479.992 L277.222 477.191 L287.847 487.816 L298.472 477.191 L301.227 479.992 Z" fill="#000000" fill-rule="nonzero" fill-opacity="1" /><path clip-path="url(#clip180)" d="M313.588 501.52 L321.227 501.52 L321.227 475.154 L312.917 476.821 L312.917 472.562 L321.18 470.895 L325.856 470.895 L325.856 501.52 L333.495 501.52 L333.495 505.455 L313.588 505.455 L313.588 501.52 Z" fill="#000000" fill-rule="nonzero" fill-opacity="1" /><path clip-path="url(#clip180)" d="M352.94 473.974 Q349.328 473.974 347.5 477.539 Q345.694 481.08 345.694 488.21 Q345.694 495.316 347.5 498.881 Q349.328 502.423 352.94 502.423 Q356.574 502.423 358.379 498.881 Q360.208 495.316 360.208 488.21 Q360.208 481.08 358.379 477.539 Q356.574 473.974 352.94 473.974 M352.94 470.27 Q358.75 470.27 361.805 474.877 Q364.884 479.46 364.884 488.21 Q364.884 496.937 361.805 501.543 Q358.75 506.126 352.94 506.126 Q347.129 506.126 344.051 501.543 Q340.995 496.937 340.995 488.21 Q340.995 479.46 344.051 474.877 Q347.129 470.27 352.94 470.27 Z" fill="#000000" fill-rule="nonzero" fill-opacity="1" /><path clip-path="url(#clip180)" d="M374.589 452.466 Q371.655 452.466 370.169 455.363 Q368.702 458.24 368.702 464.033 Q368.702 469.807 370.169 472.703 Q371.655 475.581 374.589 475.581 Q377.542 475.581 379.009 472.703 Q380.494 469.807 380.494 464.033 Q380.494 458.24 379.009 455.363 Q377.542 452.466 374.589 452.466 M374.589 449.457 Q379.31 449.457 381.792 453.2 Q384.294 456.924 384.294 464.033 Q384.294 471.124 381.792 474.866 Q379.31 478.59 374.589 478.59 Q369.868 478.59 367.367 474.866 Q364.884 471.124 364.884 464.033 Q364.884 456.924 367.367 453.2 Q369.868 449.457 374.589 449.457 Z" fill="#000000" fill-rule="nonzero" fill-opacity="1" /><path clip-path="url(#clip180)" d="M47.6634 265.883 L55.3023 265.883 L55.3023 239.518 L46.9921 241.184 L46.9921 236.925 L55.256 235.258 L59.9319 235.258 L59.9319 265.883 L67.5707 265.883 L67.5707 269.818 L47.6634 269.818 L47.6634 265.883 Z" fill="#000000" fill-rule="nonzero" fill-opacity="1" /><path clip-path="url(#clip180)" d="M77.0151 263.939 L81.8993 263.939 L81.8993 269.818 L77.0151 269.818 L77.0151 263.939 Z" fill="#000000" fill-rule="nonzero" fill-opacity="1" /><path clip-path="url(#clip180)" d="M92.8947 265.883 L100.534 265.883 L100.534 239.518 L92.2234 241.184 L92.2234 236.925 L100.487 235.258 L105.163 235.258 L105.163 265.883 L112.802 265.883 L112.802 269.818 L92.8947 269.818 L92.8947 265.883 Z" fill="#000000" fill-rule="nonzero" fill-opacity="1" /><path clip-path="url(#clip180)" d="M122.293 235.258 L140.649 235.258 L140.649 239.194 L126.575 239.194 L126.575 247.666 Q127.594 247.318 128.612 247.156 Q129.631 246.971 130.649 246.971 Q136.436 246.971 139.816 250.143 Q143.195 253.314 143.195 258.73 Q143.195 264.309 139.723 267.411 Q136.251 270.49 129.931 270.49 Q127.756 270.49 125.487 270.119 Q123.242 269.749 120.834 269.008 L120.834 264.309 Q122.918 265.443 125.14 265.999 Q127.362 266.554 129.839 266.554 Q133.844 266.554 136.181 264.448 Q138.519 262.342 138.519 258.73 Q138.519 255.119 136.181 253.013 Q133.844 250.906 129.839 250.906 Q127.964 250.906 126.089 251.323 Q124.237 251.74 122.293 252.619 L122.293 235.258 Z" fill="#000000" fill-rule="nonzero" fill-opacity="1" /><path clip-path="url(#clip180)" d="M152.547 269.101 L152.547 264.842 Q154.306 265.675 156.112 266.115 Q157.917 266.554 159.654 266.554 Q164.283 266.554 166.714 263.453 Q169.167 260.328 169.515 253.985 Q168.172 255.976 166.112 257.041 Q164.052 258.105 161.552 258.105 Q156.367 258.105 153.334 254.98 Q150.325 251.832 150.325 246.393 Q150.325 241.069 153.473 237.851 Q156.621 234.633 161.853 234.633 Q167.848 234.633 170.996 239.24 Q174.167 243.823 174.167 252.573 Q174.167 260.744 170.279 265.629 Q166.413 270.49 159.862 270.49 Q158.103 270.49 156.297 270.142 Q154.492 269.795 152.547 269.101 M161.853 254.448 Q165.001 254.448 166.829 252.295 Q168.681 250.143 168.681 246.393 Q168.681 242.666 166.829 240.513 Q165.001 238.337 161.853 238.337 Q158.704 238.337 156.853 240.513 Q155.024 242.666 155.024 246.393 Q155.024 250.143 156.853 252.295 Q158.704 254.448 161.853 254.448 Z" fill="#000000" fill-rule="nonzero" fill-opacity="1" /><path clip-path="url(#clip180)" d="M196.737 251.184 Q200.093 251.902 201.968 254.17 Q203.866 256.439 203.866 259.772 Q203.866 264.888 200.348 267.689 Q196.829 270.49 190.348 270.49 Q188.172 270.49 185.857 270.05 Q183.565 269.633 181.112 268.777 L181.112 264.263 Q183.056 265.397 185.371 265.976 Q187.686 266.554 190.209 266.554 Q194.607 266.554 196.899 264.818 Q199.214 263.082 199.214 259.772 Q199.214 256.717 197.061 255.004 Q194.931 253.268 191.112 253.268 L187.084 253.268 L187.084 249.425 L191.297 249.425 Q194.746 249.425 196.575 248.059 Q198.403 246.67 198.403 244.078 Q198.403 241.416 196.505 240.004 Q194.63 238.569 191.112 238.569 Q189.19 238.569 186.991 238.985 Q184.792 239.402 182.153 240.281 L182.153 236.115 Q184.815 235.374 187.13 235.004 Q189.468 234.633 191.528 234.633 Q196.852 234.633 199.954 237.064 Q203.056 239.471 203.056 243.592 Q203.056 246.462 201.413 248.453 Q199.769 250.42 196.737 251.184 Z" fill="#000000" fill-rule="nonzero" fill-opacity="1" /><path clip-path="url(#clip180)" d="M225.579 239.332 L213.774 257.781 L225.579 257.781 L225.579 239.332 M224.352 235.258 L230.232 235.258 L230.232 257.781 L235.162 257.781 L235.162 261.67 L230.232 261.67 L230.232 269.818 L225.579 269.818 L225.579 261.67 L209.977 261.67 L209.977 257.156 L224.352 235.258 Z" fill="#000000" fill-rule="nonzero" fill-opacity="1" /><path clip-path="url(#clip180)" d="M252.894 238.337 Q249.283 238.337 247.454 241.902 Q245.648 245.443 245.648 252.573 Q245.648 259.68 247.454 263.244 Q249.283 266.786 252.894 266.786 Q256.528 266.786 258.334 263.244 Q260.162 259.68 260.162 252.573 Q260.162 245.443 258.334 241.902 Q256.528 238.337 252.894 238.337 M252.894 234.633 Q258.704 234.633 261.759 239.24 Q264.838 243.823 264.838 252.573 Q264.838 261.3 261.759 265.906 Q258.704 270.49 252.894 270.49 Q247.084 270.49 244.005 265.906 Q240.949 261.3 240.949 252.573 Q240.949 243.823 244.005 239.24 Q247.084 234.633 252.894 234.633 Z" fill="#000000" fill-rule="nonzero" fill-opacity="1" /><path clip-path="url(#clip180)" d="M301.227 244.356 L290.648 254.98 L301.227 265.559 L298.472 268.36 L287.847 257.735 L277.222 268.36 L274.491 265.559 L285.046 254.98 L274.491 244.356 L277.222 241.555 L287.847 252.18 L298.472 241.555 L301.227 244.356 Z" fill="#000000" fill-rule="nonzero" fill-opacity="1" /><path clip-path="url(#clip180)" d="M313.588 265.883 L321.227 265.883 L321.227 239.518 L312.917 241.184 L312.917 236.925 L321.18 235.258 L325.856 235.258 L325.856 265.883 L333.495 265.883 L333.495 269.818 L313.588 269.818 L313.588 265.883 Z" fill="#000000" fill-rule="nonzero" fill-opacity="1" /><path clip-path="url(#clip180)" d="M352.94 238.337 Q349.328 238.337 347.5 241.902 Q345.694 245.443 345.694 252.573 Q345.694 259.68 347.5 263.244 Q349.328 266.786 352.94 266.786 Q356.574 266.786 358.379 263.244 Q360.208 259.68 360.208 252.573 Q360.208 245.443 358.379 241.902 Q356.574 238.337 352.94 238.337 M352.94 234.633 Q358.75 234.633 361.805 239.24 Q364.884 243.823 364.884 252.573 Q364.884 261.3 361.805 265.906 Q358.75 270.49 352.94 270.49 Q347.129 270.49 344.051 265.906 Q340.995 261.3 340.995 252.573 Q340.995 243.823 344.051 239.24 Q347.129 234.633 352.94 234.633 Z" fill="#000000" fill-rule="nonzero" fill-opacity="1" /><path clip-path="url(#clip180)" d="M374.589 216.829 Q371.655 216.829 370.169 219.726 Q368.702 222.603 368.702 228.396 Q368.702 234.17 370.169 237.067 Q371.655 239.944 374.589 239.944 Q377.542 239.944 379.009 237.067 Q380.494 234.17 380.494 228.396 Q380.494 222.603 379.009 219.726 Q377.542 216.829 374.589 216.829 M374.589 213.82 Q379.31 213.82 381.792 217.563 Q384.294 221.287 384.294 228.396 Q384.294 235.487 381.792 239.229 Q379.31 242.953 374.589 242.953 Q369.868 242.953 367.367 239.229 Q364.884 235.487 364.884 228.396 Q364.884 221.287 367.367 217.563 Q369.868 213.82 374.589 213.82 Z" fill="#000000" fill-rule="nonzero" fill-opacity="1" /><polyline clip-path="url(#clip182)" style="stroke:#009af9; stroke-linecap:round; stroke-linejoin:round; stroke-width:4; stroke-opacity:1; fill:none" points="467.402,88.2208 479.105,101.88 490.808,115.539 502.511,129.199 514.214,142.858 525.917,156.517 537.62,170.176 549.323,183.835 561.026,197.495 572.729,211.154 584.432,224.813 596.135,238.472 607.838,252.131 619.541,265.79 631.244,279.45 642.947,293.109 654.65,306.768 666.353,320.427 678.056,334.086 689.759,347.745 701.462,361.404 713.165,375.063 724.868,388.723 736.571,402.382 748.273,416.041 759.976,429.7 771.679,443.359 783.382,457.018 795.085,470.677 806.788,484.336 818.491,497.995 830.194,511.654 841.897,525.313 853.6,538.972 865.303,552.631 877.006,566.29 888.709,579.949 900.412,593.608 912.115,607.267 923.818,620.926 935.521,634.585 947.224,648.244 958.927,661.903 970.63,675.562 982.333,689.221 994.036,702.88 1005.74,716.539 1017.44,730.198 1029.14,743.857 1040.85,757.516 1052.55,771.175 1064.25,784.833 1075.96,798.492 1087.66,812.151 1099.36,825.81 1111.07,839.469 1122.77,853.128 1134.47,866.787 1146.17,880.446 1157.88,894.104 1169.58,907.763 1181.28,921.422 1192.99,935.081 1204.69,948.74 1216.39,962.399 1228.09,976.057 1239.8,989.716 1251.5,1003.37 1263.2,1017.03 1274.91,1030.69 1286.61,1044.35 1298.31,1058.01 1310.02,1071.67 1321.72,1085.33 1333.42,1098.99 1345.12,1112.64 1356.83,1126.3 1368.53,1139.96 1380.23,1153.62 1391.94,1167.28 1403.64,1180.94 1415.34,1194.6 1427.05,1208.26 1438.75,1221.91 1450.45,1235.57 1462.15,1249.23 1473.86,1262.89 1485.56,1276.55 1497.26,1290.21 1508.97,1303.87 1520.67,1317.53 1532.37,1331.18 1544.07,1344.84 1555.78,1358.5 1567.48,1372.16 1579.18,1385.82 1590.89,1399.48 1602.59,1413.14 1614.29,1426.79 1626,1440.45 1637.7,1454.11 "/>
<path clip-path="url(#clip180)" d="M1466.5 199.186 L1631.46 199.186 L1631.46 95.5056 L1466.5 95.5056  Z" fill="#ffffff" fill-rule="evenodd" fill-opacity="1"/>
<polyline clip-path="url(#clip180)" style="stroke:#000000; stroke-linecap:round; stroke-linejoin:round; stroke-width:4; stroke-opacity:1; fill:none" points="1466.5,199.186 1631.46,199.186 1631.46,95.5056 1466.5,95.5056 1466.5,199.186 "/>
<polyline clip-path="url(#clip180)" style="stroke:#009af9; stroke-linecap:round; stroke-linejoin:round; stroke-width:4; stroke-opacity:1; fill:none" points="1480.29,147.346 1562.99,147.346 "/>
<path clip-path="url(#clip180)" d="M1597.28 139.695 L1597.28 143.677 Q1595.47 142.681 1593.65 142.195 Q1591.84 141.686 1589.99 141.686 Q1585.84 141.686 1583.55 144.325 Q1581.26 146.94 1581.26 151.686 Q1581.26 156.431 1583.55 159.07 Q1585.84 161.686 1589.99 161.686 Q1591.84 161.686 1593.65 161.2 Q1595.47 160.69 1597.28 159.695 L1597.28 163.63 Q1595.5 164.464 1593.58 164.88 Q1591.68 165.297 1589.53 165.297 Q1583.67 165.297 1580.22 161.616 Q1576.77 157.936 1576.77 151.686 Q1576.77 145.343 1580.24 141.709 Q1583.74 138.075 1589.8 138.075 Q1591.77 138.075 1593.65 138.491 Q1595.52 138.885 1597.28 139.695 Z" fill="#000000" fill-rule="nonzero" fill-opacity="1" /><path clip-path="url(#clip180)" d="M1608.9 131.339 L1608.9 138.7 L1617.67 138.7 L1617.67 142.01 L1608.9 142.01 L1608.9 156.084 Q1608.9 159.255 1609.76 160.158 Q1610.64 161.061 1613.3 161.061 L1617.67 161.061 L1617.67 164.626 L1613.3 164.626 Q1608.37 164.626 1606.49 162.797 Q1604.62 160.945 1604.62 156.084 L1604.62 142.01 L1601.49 142.01 L1601.49 138.7 L1604.62 138.7 L1604.62 131.339 L1608.9 131.339 Z" fill="#000000" fill-rule="nonzero" fill-opacity="1" /><path clip-path="url(#clip180)" d="M1912.24 1495.09 L3152.76 1495.09 L3152.76 47.2441 L1912.24 47.2441  Z" fill="#ffffff" fill-rule="evenodd" fill-opacity="1"/>
<defs>
  <clipPath id="clip183">
    <rect x="1912" y="47" width="1242" height="1449"/>
  </clipPath>
</defs>
<polyline clip-path="url(#clip183)" style="stroke:#000000; stroke-linecap:round; stroke-linejoin:round; stroke-width:2; stroke-opacity:0.1; fill:none" points="1935.65,1495.09 1935.65,47.2441 "/>
<polyline clip-path="url(#clip183)" style="stroke:#000000; stroke-linecap:round; stroke-linejoin:round; stroke-width:2; stroke-opacity:0.1; fill:none" points="2228.22,1495.09 2228.22,47.2441 "/>
<polyline clip-path="url(#clip183)" style="stroke:#000000; stroke-linecap:round; stroke-linejoin:round; stroke-width:2; stroke-opacity:0.1; fill:none" points="2520.8,1495.09 2520.8,47.2441 "/>
<polyline clip-path="url(#clip183)" style="stroke:#000000; stroke-linecap:round; stroke-linejoin:round; stroke-width:2; stroke-opacity:0.1; fill:none" points="2813.37,1495.09 2813.37,47.2441 "/>
<polyline clip-path="url(#clip183)" style="stroke:#000000; stroke-linecap:round; stroke-linejoin:round; stroke-width:2; stroke-opacity:0.1; fill:none" points="3105.94,1495.09 3105.94,47.2441 "/>
<polyline clip-path="url(#clip180)" style="stroke:#000000; stroke-linecap:round; stroke-linejoin:round; stroke-width:4; stroke-opacity:1; fill:none" points="1912.24,1495.09 3152.76,1495.09 "/>
<polyline clip-path="url(#clip180)" style="stroke:#000000; stroke-linecap:round; stroke-linejoin:round; stroke-width:4; stroke-opacity:1; fill:none" points="1935.65,1495.09 1935.65,1476.19 "/>
<polyline clip-path="url(#clip180)" style="stroke:#000000; stroke-linecap:round; stroke-linejoin:round; stroke-width:4; stroke-opacity:1; fill:none" points="2228.22,1495.09 2228.22,1476.19 "/>
<polyline clip-path="url(#clip180)" style="stroke:#000000; stroke-linecap:round; stroke-linejoin:round; stroke-width:4; stroke-opacity:1; fill:none" points="2520.8,1495.09 2520.8,1476.19 "/>
<polyline clip-path="url(#clip180)" style="stroke:#000000; stroke-linecap:round; stroke-linejoin:round; stroke-width:4; stroke-opacity:1; fill:none" points="2813.37,1495.09 2813.37,1476.19 "/>
<polyline clip-path="url(#clip180)" style="stroke:#000000; stroke-linecap:round; stroke-linejoin:round; stroke-width:4; stroke-opacity:1; fill:none" points="3105.94,1495.09 3105.94,1476.19 "/>
<path clip-path="url(#clip180)" d="M1935.65 1532.41 Q1932.04 1532.41 1930.21 1535.97 Q1928.4 1539.51 1928.4 1546.64 Q1928.4 1553.75 1930.21 1557.31 Q1932.04 1560.86 1935.65 1560.86 Q1939.28 1560.86 1941.09 1557.31 Q1942.92 1553.75 1942.92 1546.64 Q1942.92 1539.51 1941.09 1535.97 Q1939.28 1532.41 1935.65 1532.41 M1935.65 1528.7 Q1941.46 1528.7 1944.51 1533.31 Q1947.59 1537.89 1947.59 1546.64 Q1947.59 1555.37 1944.51 1559.98 Q1941.46 1564.56 1935.65 1564.56 Q1929.84 1564.56 1926.76 1559.98 Q1923.7 1555.37 1923.7 1546.64 Q1923.7 1537.89 1926.76 1533.31 Q1929.84 1528.7 1935.65 1528.7 Z" fill="#000000" fill-rule="nonzero" fill-opacity="1" /><path clip-path="url(#clip180)" d="M2207.49 1559.95 L2223.81 1559.95 L2223.81 1563.89 L2201.87 1563.89 L2201.87 1559.95 Q2204.53 1557.2 2209.11 1552.57 Q2213.72 1547.92 2214.9 1546.57 Q2217.15 1544.05 2218.03 1542.31 Q2218.93 1540.55 2218.93 1538.86 Q2218.93 1536.11 2216.98 1534.37 Q2215.06 1532.64 2211.96 1532.64 Q2209.76 1532.64 2207.31 1533.4 Q2204.88 1534.17 2202.1 1535.72 L2202.1 1530.99 Q2204.92 1529.86 2207.38 1529.28 Q2209.83 1528.7 2211.87 1528.7 Q2217.24 1528.7 2220.43 1531.39 Q2223.63 1534.07 2223.63 1538.56 Q2223.63 1540.69 2222.82 1542.61 Q2222.03 1544.51 2219.92 1547.11 Q2219.34 1547.78 2216.24 1550.99 Q2213.14 1554.19 2207.49 1559.95 Z" fill="#000000" fill-rule="nonzero" fill-opacity="1" /><path clip-path="url(#clip180)" d="M2233.67 1529.33 L2252.03 1529.33 L2252.03 1533.26 L2237.96 1533.26 L2237.96 1541.74 Q2238.97 1541.39 2239.99 1541.23 Q2241.01 1541.04 2242.03 1541.04 Q2247.82 1541.04 2251.2 1544.21 Q2254.58 1547.38 2254.58 1552.8 Q2254.58 1558.38 2251.1 1561.48 Q2247.63 1564.56 2241.31 1564.56 Q2239.14 1564.56 2236.87 1564.19 Q2234.62 1563.82 2232.22 1563.08 L2232.22 1558.38 Q2234.3 1559.51 2236.52 1560.07 Q2238.74 1560.62 2241.22 1560.62 Q2245.22 1560.62 2247.56 1558.52 Q2249.9 1556.41 2249.9 1552.8 Q2249.9 1549.19 2247.56 1547.08 Q2245.22 1544.98 2241.22 1544.98 Q2239.34 1544.98 2237.47 1545.39 Q2235.62 1545.81 2233.67 1546.69 L2233.67 1529.33 Z" fill="#000000" fill-rule="nonzero" fill-opacity="1" /><path clip-path="url(#clip180)" d="M2495.5 1529.33 L2513.85 1529.33 L2513.85 1533.26 L2499.78 1533.26 L2499.78 1541.74 Q2500.8 1541.39 2501.81 1541.23 Q2502.83 1541.04 2503.85 1541.04 Q2509.64 1541.04 2513.02 1544.21 Q2516.4 1547.38 2516.4 1552.8 Q2516.4 1558.38 2512.93 1561.48 Q2509.45 1564.56 2503.13 1564.56 Q2500.96 1564.56 2498.69 1564.19 Q2496.44 1563.82 2494.04 1563.08 L2494.04 1558.38 Q2496.12 1559.51 2498.34 1560.07 Q2500.56 1560.62 2503.04 1560.62 Q2507.05 1560.62 2509.38 1558.52 Q2511.72 1556.41 2511.72 1552.8 Q2511.72 1549.19 2509.38 1547.08 Q2507.05 1544.98 2503.04 1544.98 Q2501.17 1544.98 2499.29 1545.39 Q2497.44 1545.81 2495.5 1546.69 L2495.5 1529.33 Z" fill="#000000" fill-rule="nonzero" fill-opacity="1" /><path clip-path="url(#clip180)" d="M2535.61 1532.41 Q2532 1532.41 2530.17 1535.97 Q2528.37 1539.51 2528.37 1546.64 Q2528.37 1553.75 2530.17 1557.31 Q2532 1560.86 2535.61 1560.86 Q2539.25 1560.86 2541.05 1557.31 Q2542.88 1553.75 2542.88 1546.64 Q2542.88 1539.51 2541.05 1535.97 Q2539.25 1532.41 2535.61 1532.41 M2535.61 1528.7 Q2541.42 1528.7 2544.48 1533.31 Q2547.56 1537.89 2547.56 1546.64 Q2547.56 1555.37 2544.48 1559.98 Q2541.42 1564.56 2535.61 1564.56 Q2529.8 1564.56 2526.72 1559.98 Q2523.67 1555.37 2523.67 1546.64 Q2523.67 1537.89 2526.72 1533.31 Q2529.8 1528.7 2535.61 1528.7 Z" fill="#000000" fill-rule="nonzero" fill-opacity="1" /><path clip-path="url(#clip180)" d="M2787.22 1529.33 L2809.45 1529.33 L2809.45 1531.32 L2796.9 1563.89 L2792.02 1563.89 L2803.82 1533.26 L2787.22 1533.26 L2787.22 1529.33 Z" fill="#000000" fill-rule="nonzero" fill-opacity="1" /><path clip-path="url(#clip180)" d="M2818.61 1529.33 L2836.97 1529.33 L2836.97 1533.26 L2822.9 1533.26 L2822.9 1541.74 Q2823.91 1541.39 2824.93 1541.23 Q2825.95 1541.04 2826.97 1541.04 Q2832.76 1541.04 2836.14 1544.21 Q2839.52 1547.38 2839.52 1552.8 Q2839.52 1558.38 2836.04 1561.48 Q2832.57 1564.56 2826.25 1564.56 Q2824.08 1564.56 2821.81 1564.19 Q2819.56 1563.82 2817.15 1563.08 L2817.15 1558.38 Q2819.24 1559.51 2821.46 1560.07 Q2823.68 1560.62 2826.16 1560.62 Q2830.16 1560.62 2832.5 1558.52 Q2834.84 1556.41 2834.84 1552.8 Q2834.84 1549.19 2832.5 1547.08 Q2830.16 1544.98 2826.16 1544.98 Q2824.28 1544.98 2822.41 1545.39 Q2820.56 1545.81 2818.61 1546.69 L2818.61 1529.33 Z" fill="#000000" fill-rule="nonzero" fill-opacity="1" /><path clip-path="url(#clip180)" d="M3065.55 1559.95 L3073.19 1559.95 L3073.19 1533.59 L3064.88 1535.25 L3064.88 1530.99 L3073.14 1529.33 L3077.82 1529.33 L3077.82 1559.95 L3085.46 1559.95 L3085.46 1563.89 L3065.55 1563.89 L3065.55 1559.95 Z" fill="#000000" fill-rule="nonzero" fill-opacity="1" /><path clip-path="url(#clip180)" d="M3104.9 1532.41 Q3101.29 1532.41 3099.46 1535.97 Q3097.66 1539.51 3097.66 1546.64 Q3097.66 1553.75 3099.46 1557.31 Q3101.29 1560.86 3104.9 1560.86 Q3108.54 1560.86 3110.34 1557.31 Q3112.17 1553.75 3112.17 1546.64 Q3112.17 1539.51 3110.34 1535.97 Q3108.54 1532.41 3104.9 1532.41 M3104.9 1528.7 Q3110.71 1528.7 3113.77 1533.31 Q3116.85 1537.89 3116.85 1546.64 Q3116.85 1555.37 3113.77 1559.98 Q3110.71 1564.56 3104.9 1564.56 Q3099.09 1564.56 3096.01 1559.98 Q3092.96 1555.37 3092.96 1546.64 Q3092.96 1537.89 3096.01 1533.31 Q3099.09 1528.7 3104.9 1528.7 Z" fill="#000000" fill-rule="nonzero" fill-opacity="1" /><path clip-path="url(#clip180)" d="M3135.06 1532.41 Q3131.45 1532.41 3129.62 1535.97 Q3127.82 1539.51 3127.82 1546.64 Q3127.82 1553.75 3129.62 1557.31 Q3131.45 1560.86 3135.06 1560.86 Q3138.7 1560.86 3140.5 1557.31 Q3142.33 1553.75 3142.33 1546.64 Q3142.33 1539.51 3140.5 1535.97 Q3138.7 1532.41 3135.06 1532.41 M3135.06 1528.7 Q3140.87 1528.7 3143.93 1533.31 Q3147.01 1537.89 3147.01 1546.64 Q3147.01 1555.37 3143.93 1559.98 Q3140.87 1564.56 3135.06 1564.56 Q3129.25 1564.56 3126.18 1559.98 Q3123.12 1555.37 3123.12 1546.64 Q3123.12 1537.89 3126.18 1533.31 Q3129.25 1528.7 3135.06 1528.7 Z" fill="#000000" fill-rule="nonzero" fill-opacity="1" /><polyline clip-path="url(#clip183)" style="stroke:#000000; stroke-linecap:round; stroke-linejoin:round; stroke-width:2; stroke-opacity:0.1; fill:none" points="1912.24,1454.12 3152.76,1454.12 "/>
<polyline clip-path="url(#clip183)" style="stroke:#000000; stroke-linecap:round; stroke-linejoin:round; stroke-width:2; stroke-opacity:0.1; fill:none" points="1912.24,1112.65 3152.76,1112.65 "/>
<polyline clip-path="url(#clip183)" style="stroke:#000000; stroke-linecap:round; stroke-linejoin:round; stroke-width:2; stroke-opacity:0.1; fill:none" points="1912.24,771.172 3152.76,771.172 "/>
<polyline clip-path="url(#clip183)" style="stroke:#000000; stroke-linecap:round; stroke-linejoin:round; stroke-width:2; stroke-opacity:0.1; fill:none" points="1912.24,429.697 3152.76,429.697 "/>
<polyline clip-path="url(#clip183)" style="stroke:#000000; stroke-linecap:round; stroke-linejoin:round; stroke-width:2; stroke-opacity:0.1; fill:none" points="1912.24,88.2208 3152.76,88.2208 "/>
<polyline clip-path="url(#clip180)" style="stroke:#000000; stroke-linecap:round; stroke-linejoin:round; stroke-width:4; stroke-opacity:1; fill:none" points="1912.24,1495.09 1912.24,47.2441 "/>
<polyline clip-path="url(#clip180)" style="stroke:#000000; stroke-linecap:round; stroke-linejoin:round; stroke-width:4; stroke-opacity:1; fill:none" points="1912.24,1454.12 1931.14,1454.12 "/>
<polyline clip-path="url(#clip180)" style="stroke:#000000; stroke-linecap:round; stroke-linejoin:round; stroke-width:4; stroke-opacity:1; fill:none" points="1912.24,1112.65 1931.14,1112.65 "/>
<polyline clip-path="url(#clip180)" style="stroke:#000000; stroke-linecap:round; stroke-linejoin:round; stroke-width:4; stroke-opacity:1; fill:none" points="1912.24,771.172 1931.14,771.172 "/>
<polyline clip-path="url(#clip180)" style="stroke:#000000; stroke-linecap:round; stroke-linejoin:round; stroke-width:4; stroke-opacity:1; fill:none" points="1912.24,429.697 1931.14,429.697 "/>
<polyline clip-path="url(#clip180)" style="stroke:#000000; stroke-linecap:round; stroke-linejoin:round; stroke-width:4; stroke-opacity:1; fill:none" points="1912.24,88.2208 1931.14,88.2208 "/>
<path clip-path="url(#clip180)" d="M1807.07 1439.92 Q1803.46 1439.92 1801.63 1443.49 Q1799.82 1447.03 1799.82 1454.16 Q1799.82 1461.26 1801.63 1464.83 Q1803.46 1468.37 1807.07 1468.37 Q1810.7 1468.37 1812.51 1464.83 Q1814.33 1461.26 1814.33 1454.16 Q1814.33 1447.03 1812.51 1443.49 Q1810.7 1439.92 1807.07 1439.92 M1807.07 1436.22 Q1812.88 1436.22 1815.93 1440.83 Q1819.01 1445.41 1819.01 1454.16 Q1819.01 1462.89 1815.93 1467.49 Q1812.88 1472.08 1807.07 1472.08 Q1801.26 1472.08 1798.18 1467.49 Q1795.12 1462.89 1795.12 1454.16 Q1795.12 1445.41 1798.18 1440.83 Q1801.26 1436.22 1807.07 1436.22 Z" fill="#000000" fill-rule="nonzero" fill-opacity="1" /><path clip-path="url(#clip180)" d="M1827.23 1465.52 L1832.11 1465.52 L1832.11 1471.4 L1827.23 1471.4 L1827.23 1465.52 Z" fill="#000000" fill-rule="nonzero" fill-opacity="1" /><path clip-path="url(#clip180)" d="M1852.3 1439.92 Q1848.69 1439.92 1846.86 1443.49 Q1845.05 1447.03 1845.05 1454.16 Q1845.05 1461.26 1846.86 1464.83 Q1848.69 1468.37 1852.3 1468.37 Q1855.93 1468.37 1857.74 1464.83 Q1859.57 1461.26 1859.57 1454.16 Q1859.57 1447.03 1857.74 1443.49 Q1855.93 1439.92 1852.3 1439.92 M1852.3 1436.22 Q1858.11 1436.22 1861.16 1440.83 Q1864.24 1445.41 1864.24 1454.16 Q1864.24 1462.89 1861.16 1467.49 Q1858.11 1472.08 1852.3 1472.08 Q1846.49 1472.08 1843.41 1467.49 Q1840.35 1462.89 1840.35 1454.16 Q1840.35 1445.41 1843.41 1440.83 Q1846.49 1436.22 1852.3 1436.22 Z" fill="#000000" fill-rule="nonzero" fill-opacity="1" /><path clip-path="url(#clip180)" d="M1802.09 1125.99 L1818.41 1125.99 L1818.41 1129.93 L1796.46 1129.93 L1796.46 1125.99 Q1799.13 1123.24 1803.71 1118.61 Q1808.32 1113.96 1809.5 1112.61 Q1811.74 1110.09 1812.62 1108.35 Q1813.52 1106.59 1813.52 1104.91 Q1813.52 1102.15 1811.58 1100.41 Q1809.66 1098.68 1806.56 1098.68 Q1804.36 1098.68 1801.9 1099.44 Q1799.47 1100.21 1796.7 1101.76 L1796.7 1097.03 Q1799.52 1095.9 1801.97 1095.32 Q1804.43 1094.74 1806.46 1094.74 Q1811.83 1094.74 1815.03 1097.43 Q1818.22 1100.11 1818.22 1104.6 Q1818.22 1106.73 1817.41 1108.66 Q1816.63 1110.55 1814.52 1113.15 Q1813.94 1113.82 1810.84 1117.03 Q1807.74 1120.23 1802.09 1125.99 Z" fill="#000000" fill-rule="nonzero" fill-opacity="1" /><path clip-path="url(#clip180)" d="M1828.22 1124.05 L1833.11 1124.05 L1833.11 1129.93 L1828.22 1129.93 L1828.22 1124.05 Z" fill="#000000" fill-rule="nonzero" fill-opacity="1" /><path clip-path="url(#clip180)" d="M1843.34 1095.37 L1861.7 1095.37 L1861.7 1099.3 L1847.62 1099.3 L1847.62 1107.78 Q1848.64 1107.43 1849.66 1107.27 Q1850.68 1107.08 1851.7 1107.08 Q1857.48 1107.08 1860.86 1110.25 Q1864.24 1113.42 1864.24 1118.84 Q1864.24 1124.42 1860.77 1127.52 Q1857.3 1130.6 1850.98 1130.6 Q1848.8 1130.6 1846.53 1130.23 Q1844.29 1129.86 1841.88 1129.12 L1841.88 1124.42 Q1843.96 1125.55 1846.19 1126.11 Q1848.41 1126.66 1850.89 1126.66 Q1854.89 1126.66 1857.23 1124.56 Q1859.57 1122.45 1859.57 1118.84 Q1859.57 1115.23 1857.23 1113.12 Q1854.89 1111.02 1850.89 1111.02 Q1849.01 1111.02 1847.14 1111.43 Q1845.28 1111.85 1843.34 1112.73 L1843.34 1095.37 Z" fill="#000000" fill-rule="nonzero" fill-opacity="1" /><path clip-path="url(#clip180)" d="M1797.11 753.892 L1815.47 753.892 L1815.47 757.827 L1801.4 757.827 L1801.4 766.3 Q1802.41 765.952 1803.43 765.79 Q1804.45 765.605 1805.47 765.605 Q1811.26 765.605 1814.64 768.776 Q1818.02 771.948 1818.02 777.364 Q1818.02 782.943 1814.54 786.045 Q1811.07 789.124 1804.75 789.124 Q1802.58 789.124 1800.31 788.753 Q1798.06 788.383 1795.65 787.642 L1795.65 782.943 Q1797.74 784.077 1799.96 784.633 Q1802.18 785.188 1804.66 785.188 Q1808.66 785.188 1811 783.082 Q1813.34 780.975 1813.34 777.364 Q1813.34 773.753 1811 771.647 Q1808.66 769.54 1804.66 769.54 Q1802.78 769.54 1800.91 769.957 Q1799.06 770.374 1797.11 771.253 L1797.11 753.892 Z" fill="#000000" fill-rule="nonzero" fill-opacity="1" /><path clip-path="url(#clip180)" d="M1827.23 782.573 L1832.11 782.573 L1832.11 788.452 L1827.23 788.452 L1827.23 782.573 Z" fill="#000000" fill-rule="nonzero" fill-opacity="1" /><path clip-path="url(#clip180)" d="M1852.3 756.971 Q1848.69 756.971 1846.86 760.536 Q1845.05 764.077 1845.05 771.207 Q1845.05 778.313 1846.86 781.878 Q1848.69 785.42 1852.3 785.42 Q1855.93 785.42 1857.74 781.878 Q1859.57 778.313 1859.57 771.207 Q1859.57 764.077 1857.74 760.536 Q1855.93 756.971 1852.3 756.971 M1852.3 753.267 Q1858.11 753.267 1861.16 757.874 Q1864.24 762.457 1864.24 771.207 Q1864.24 779.934 1861.16 784.54 Q1858.11 789.124 1852.3 789.124 Q1846.49 789.124 1843.41 784.54 Q1840.35 779.934 1840.35 771.207 Q1840.35 762.457 1843.41 757.874 Q1846.49 753.267 1852.3 753.267 Z" fill="#000000" fill-rule="nonzero" fill-opacity="1" /><path clip-path="url(#clip180)" d="M1796.88 412.417 L1819.1 412.417 L1819.1 414.407 L1806.56 446.977 L1801.67 446.977 L1813.48 416.352 L1796.88 416.352 L1796.88 412.417 Z" fill="#000000" fill-rule="nonzero" fill-opacity="1" /><path clip-path="url(#clip180)" d="M1828.22 441.097 L1833.11 441.097 L1833.11 446.977 L1828.22 446.977 L1828.22 441.097 Z" fill="#000000" fill-rule="nonzero" fill-opacity="1" /><path clip-path="url(#clip180)" d="M1843.34 412.417 L1861.7 412.417 L1861.7 416.352 L1847.62 416.352 L1847.62 424.824 Q1848.64 424.477 1849.66 424.315 Q1850.68 424.129 1851.7 424.129 Q1857.48 424.129 1860.86 427.301 Q1864.24 430.472 1864.24 435.889 Q1864.24 441.467 1860.77 444.569 Q1857.3 447.648 1850.98 447.648 Q1848.8 447.648 1846.53 447.277 Q1844.29 446.907 1841.88 446.166 L1841.88 441.467 Q1843.96 442.602 1846.19 443.157 Q1848.41 443.713 1850.89 443.713 Q1854.89 443.713 1857.23 441.606 Q1859.57 439.5 1859.57 435.889 Q1859.57 432.278 1857.23 430.171 Q1854.89 428.065 1850.89 428.065 Q1849.01 428.065 1847.14 428.481 Q1845.28 428.898 1843.34 429.778 L1843.34 412.417 Z" fill="#000000" fill-rule="nonzero" fill-opacity="1" /><path clip-path="url(#clip180)" d="M1767.71 101.566 L1775.35 101.566 L1775.35 75.2 L1767.04 76.8667 L1767.04 72.6075 L1775.31 70.9408 L1779.98 70.9408 L1779.98 101.566 L1787.62 101.566 L1787.62 105.501 L1767.71 105.501 L1767.71 101.566 Z" fill="#000000" fill-rule="nonzero" fill-opacity="1" /><path clip-path="url(#clip180)" d="M1807.07 74.0195 Q1803.46 74.0195 1801.63 77.5843 Q1799.82 81.1259 1799.82 88.2555 Q1799.82 95.362 1801.63 98.9268 Q1803.46 102.468 1807.07 102.468 Q1810.7 102.468 1812.51 98.9268 Q1814.33 95.362 1814.33 88.2555 Q1814.33 81.1259 1812.51 77.5843 Q1810.7 74.0195 1807.07 74.0195 M1807.07 70.3158 Q1812.88 70.3158 1815.93 74.9223 Q1819.01 79.5056 1819.01 88.2555 Q1819.01 96.9823 1815.93 101.589 Q1812.88 106.172 1807.07 106.172 Q1801.26 106.172 1798.18 101.589 Q1795.12 96.9823 1795.12 88.2555 Q1795.12 79.5056 1798.18 74.9223 Q1801.26 70.3158 1807.07 70.3158 Z" fill="#000000" fill-rule="nonzero" fill-opacity="1" /><path clip-path="url(#clip180)" d="M1827.23 99.6212 L1832.11 99.6212 L1832.11 105.501 L1827.23 105.501 L1827.23 99.6212 Z" fill="#000000" fill-rule="nonzero" fill-opacity="1" /><path clip-path="url(#clip180)" d="M1852.3 74.0195 Q1848.69 74.0195 1846.86 77.5843 Q1845.05 81.1259 1845.05 88.2555 Q1845.05 95.362 1846.86 98.9268 Q1848.69 102.468 1852.3 102.468 Q1855.93 102.468 1857.74 98.9268 Q1859.57 95.362 1859.57 88.2555 Q1859.57 81.1259 1857.74 77.5843 Q1855.93 74.0195 1852.3 74.0195 M1852.3 70.3158 Q1858.11 70.3158 1861.16 74.9223 Q1864.24 79.5056 1864.24 88.2555 Q1864.24 96.9823 1861.16 101.589 Q1858.11 106.172 1852.3 106.172 Q1846.49 106.172 1843.41 101.589 Q1840.35 96.9823 1840.35 88.2555 Q1840.35 79.5056 1843.41 74.9223 Q1846.49 70.3158 1852.3 70.3158 Z" fill="#000000" fill-rule="nonzero" fill-opacity="1" /><polyline clip-path="url(#clip183)" style="stroke:#009af9; stroke-linecap:round; stroke-linejoin:round; stroke-width:4; stroke-opacity:1; fill:none" points="1947.35,88.2208 1959.05,96.1904 1970.76,104.24 1982.46,112.372 1994.16,120.585 2005.87,128.881 2017.57,137.261 2029.27,145.725 2040.97,154.275 2052.68,162.911 2064.38,171.635 2076.08,180.446 2087.79,189.346 2099.49,198.336 2111.19,207.417 2122.9,216.589 2134.6,225.854 2146.3,235.212 2158,244.665 2169.71,254.214 2181.41,263.858 2193.11,273.6 2204.82,283.44 2216.52,293.38 2228.22,303.42 2239.93,313.561 2251.63,323.805 2263.33,334.152 2275.03,344.603 2286.74,355.16 2298.44,365.823 2310.14,376.594 2321.85,387.474 2333.55,398.463 2345.25,409.564 2356.95,420.776 2368.66,432.102 2380.36,443.542 2392.06,455.097 2403.77,466.769 2415.47,478.559 2427.17,490.468 2438.88,502.497 2450.58,514.647 2462.28,526.921 2473.98,539.318 2485.69,551.84 2497.39,564.488 2509.09,577.264 2520.8,590.169 2532.5,603.205 2544.2,616.372 2555.9,629.672 2567.61,643.106 2579.31,656.676 2591.01,670.382 2602.72,684.227 2614.42,698.212 2626.12,712.338 2637.83,726.607 2649.53,741.019 2661.23,755.577 2672.93,770.283 2684.64,785.136 2696.34,800.139 2708.04,815.294 2719.75,830.602 2731.45,846.065 2743.15,861.683 2754.86,877.459 2766.56,893.395 2778.26,909.491 2789.96,925.75 2801.67,942.173 2813.37,958.762 2825.07,975.518 2836.78,992.443 2848.48,1009.54 2860.18,1026.81 2871.88,1044.25 2883.59,1061.87 2895.29,1079.67 2906.99,1097.64 2918.7,1115.8 2930.4,1134.14 2942.1,1152.67 2953.81,1171.38 2965.51,1190.29 2977.21,1209.38 2988.91,1228.67 3000.62,1248.15 3012.32,1267.83 3024.02,1287.7 3035.73,1307.78 3047.43,1328.06 3059.13,1348.54 3070.84,1369.24 3082.54,1390.14 3094.24,1411.25 3105.94,1432.57 3117.65,1454.11 "/>
<path clip-path="url(#clip180)" d="M2913.54 199.186 L3111.41 199.186 L3111.41 95.5056 L2913.54 95.5056  Z" fill="#ffffff" fill-rule="evenodd" fill-opacity="1"/>
<polyline clip-path="url(#clip180)" style="stroke:#000000; stroke-linecap:round; stroke-linejoin:round; stroke-width:4; stroke-opacity:1; fill:none" points="2913.54,199.186 3111.41,199.186 3111.41,95.5056 2913.54,95.5056 2913.54,199.186 "/>
<polyline clip-path="url(#clip180)" style="stroke:#009af9; stroke-linecap:round; stroke-linejoin:round; stroke-width:4; stroke-opacity:1; fill:none" points="2927.32,147.346 3010.02,147.346 "/>
<path clip-path="url(#clip180)" d="M3037.21 151.593 Q3032.04 151.593 3030.05 152.774 Q3028.06 153.954 3028.06 156.802 Q3028.06 159.07 3029.54 160.413 Q3031.05 161.732 3033.62 161.732 Q3037.16 161.732 3039.29 159.232 Q3041.44 156.709 3041.44 152.542 L3041.44 151.593 L3037.21 151.593 M3045.7 149.834 L3045.7 164.626 L3041.44 164.626 L3041.44 160.69 Q3039.98 163.051 3037.81 164.186 Q3035.63 165.297 3032.48 165.297 Q3028.5 165.297 3026.14 163.075 Q3023.8 160.829 3023.8 157.079 Q3023.8 152.704 3026.72 150.482 Q3029.66 148.26 3035.47 148.26 L3041.44 148.26 L3041.44 147.843 Q3041.44 144.903 3039.5 143.306 Q3037.58 141.686 3034.08 141.686 Q3031.86 141.686 3029.75 142.218 Q3027.65 142.751 3025.7 143.815 L3025.7 139.88 Q3028.04 138.978 3030.24 138.538 Q3032.44 138.075 3034.52 138.075 Q3040.15 138.075 3042.92 140.991 Q3045.7 143.908 3045.7 149.834 Z" fill="#000000" fill-rule="nonzero" fill-opacity="1" /><path clip-path="url(#clip180)" d="M3055.89 160.69 L3063.52 160.69 L3063.52 134.325 L3055.21 135.991 L3055.21 131.732 L3063.48 130.066 L3068.15 130.066 L3068.15 160.69 L3075.79 160.69 L3075.79 164.626 L3055.89 164.626 L3055.89 160.69 Z" fill="#000000" fill-rule="nonzero" fill-opacity="1" /><path clip-path="url(#clip180)" d="M3088.85 131.339 L3088.85 138.7 L3097.62 138.7 L3097.62 142.01 L3088.85 142.01 L3088.85 156.084 Q3088.85 159.255 3089.71 160.158 Q3090.58 161.061 3093.25 161.061 L3097.62 161.061 L3097.62 164.626 L3093.25 164.626 Q3088.32 164.626 3086.44 162.797 Q3084.57 160.945 3084.57 156.084 L3084.57 142.01 L3081.44 142.01 L3081.44 138.7 L3084.57 138.7 L3084.57 131.339 L3088.85 131.339 Z" fill="#000000" fill-rule="nonzero" fill-opacity="1" /></svg>