<?xml version="1.0" encoding="utf-8"?>
<svg xmlns="http://www.w3.org/2000/svg" xmlns:xlink="http://www.w3.org/1999/xlink" width="800" height="400" viewBox="0 0 3200 1600">
<defs>
  <clipPath id="clip720">
    <rect x="0" y="0" width="3200" height="1600"/>
  </clipPath>
</defs>
<path clip-path="url(#clip720)" d="M0 1600 L3200 1600 L3200 0 L0 0  Z" fill="#ffffff" fill-rule="evenodd" fill-opacity="1"/>
<defs>
  <clipPath id="clip721">
    <rect x="640" y="0" width="2241" height="1600"/>
  </clipPath>
</defs>
<path clip-path="url(#clip720)" d="M162.515 1495.09 L1560.29 1495.09 L1560.29 47.2441 L162.515 47.2441  Z" fill="#ffffff" fill-rule="evenodd" fill-opacity="1"/>
<defs>
  <clipPath id="clip722">
    <rect x="162" y="47" width="1399" height="1449"/>
  </clipPath>
</defs>
<polyline clip-path="url(#clip722)" style="stroke:#000000; stroke-linecap:round; stroke-linejoin:round; stroke-width:2; stroke-opacity:0.1; fill:none" points="188.888,1495.09 188.888,47.2441 "/>
<polyline clip-path="url(#clip722)" style="stroke:#000000; stroke-linecap:round; stroke-linejoin:round; stroke-width:2; stroke-opacity:0.1; fill:none" points="518.552,1495.09 518.552,47.2441 "/>
<polyline clip-path="url(#clip722)" style="stroke:#000000; stroke-linecap:round; stroke-linejoin:round; stroke-width:2; stroke-opacity:0.1; fill:none" points="848.216,1495.09 848.216,47.2441 "/>
<polyline clip-path="url(#clip722)" style="stroke:#000000; stroke-linecap:round; stroke-linejoin:round; stroke-width:2; stroke-opacity:0.1; fill:none" points="1177.88,1495.09 1177.88,47.2441 "/>
<polyline clip-path="url(#clip722)" style="stroke:#000000; stroke-linecap:round; stroke-linejoin:round; stroke-width:2; stroke-opacity:0.1; fill:none" points="1507.54,1495.09 1507.54,47.2441 "/>
<polyline clip-path="url(#clip720)" style="stroke:#000000; stroke-linecap:round; stroke-linejoin:round; stroke-width:4; stroke-opacity:1; fill:none" points="162.515,1495.09 1560.29,1495.09 "/>
<polyline clip-path="url(#clip720)" style="stroke:#000000; stroke-linecap:round; stroke-linejoin:round; stroke-width:4; stroke-opacity:1; fill:none" points="188.888,1495.09 188.888,1476.19 "/>
<polyline clip-path="url(#clip720)" style="stroke:#000000; stroke-linecap:round; stroke-linejoin:round; stroke-width:4; stroke-opacity:1; fill:none" points="518.552,1495.09 518.552,1476.19 "/>
<polyline clip-path="url(#clip720)" style="stroke:#000000; stroke-linecap:round; stroke-linejoin:round; stroke-width:4; stroke-opacity:1; fill:none" points="848.216,1495.09 848.216,1476.19 "/>
<polyline clip-path="url(#clip720)" style="stroke:#000000; stroke-linecap:round; stroke-linejoin:round; stroke-width:4; stroke-opacity:1; fill:none" points="1177.88,1495.09 1177.88,1476.19 "/>
<polyline clip-path="url(#clip720)" style="stroke:#000000; stroke-linecap:round; stroke-linejoin:round; stroke-width:4; stroke-opacity:1; fill:none" points="1507.54,1495.09 1507.54,1476.19 "/>
<path clip-path="url(#clip720)" d="M188.888 1532.41 Q185.277 1532.41 183.448 1535.97 Q181.643 1539.51 181.643 1546.64 Q181.643 1553.75 183.448 1557.31 Q185.277 1560.86 188.888 1560.86 Q192.522 1560.86 194.328 1557.31 Q196.157 1553.75 196.157 1546.64 Q196.157 1539.51 194.328 1535.97 Q192.522 1532.41 188.888 1532.41 M188.888 1528.7 Q194.698 1528.7 197.754 1533.31 Q200.832 1537.89 200.832 1546.64 Q200.832 1555.37 197.754 1559.98 Q194.698 1564.56 188.888 1564.56 Q183.078 1564.56 179.999 1559.98 Q176.944 1555.37 176.944 1546.64 Q176.944 1537.89 179.999 1533.31 Q183.078 1528.7 188.888 1528.7 Z" fill="#000000" fill-rule="nonzero" fill-opacity="1" /><path clip-path="url(#clip720)" d="M497.823 1559.95 L514.142 1559.95 L514.142 1563.89 L492.198 1563.89 L492.198 1559.95 Q494.86 1557.2 499.443 1552.57 Q504.05 1547.92 505.23 1546.57 Q507.476 1544.05 508.355 1542.31 Q509.258 1540.55 509.258 1538.86 Q509.258 1536.11 507.314 1534.37 Q505.392 1532.64 502.291 1532.64 Q500.092 1532.64 497.638 1533.4 Q495.207 1534.17 492.43 1535.72 L492.43 1530.99 Q495.254 1529.86 497.707 1529.28 Q500.161 1528.7 502.198 1528.7 Q507.568 1528.7 510.763 1531.39 Q513.957 1534.07 513.957 1538.56 Q513.957 1540.69 513.147 1542.61 Q512.36 1544.51 510.254 1547.11 Q509.675 1547.78 506.573 1550.99 Q503.471 1554.19 497.823 1559.95 Z" fill="#000000" fill-rule="nonzero" fill-opacity="1" /><path clip-path="url(#clip720)" d="M524.003 1529.33 L542.36 1529.33 L542.36 1533.26 L528.286 1533.26 L528.286 1541.74 Q529.304 1541.39 530.323 1541.23 Q531.341 1541.04 532.36 1541.04 Q538.147 1541.04 541.527 1544.21 Q544.906 1547.38 544.906 1552.8 Q544.906 1558.38 541.434 1561.48 Q537.962 1564.56 531.642 1564.56 Q529.466 1564.56 527.198 1564.19 Q524.953 1563.82 522.545 1563.08 L522.545 1558.38 Q524.628 1559.51 526.851 1560.07 Q529.073 1560.62 531.55 1560.62 Q535.554 1560.62 537.892 1558.52 Q540.23 1556.41 540.23 1552.8 Q540.23 1549.19 537.892 1547.08 Q535.554 1544.98 531.55 1544.98 Q529.675 1544.98 527.8 1545.39 Q525.948 1545.81 524.003 1546.69 L524.003 1529.33 Z" fill="#000000" fill-rule="nonzero" fill-opacity="1" /><path clip-path="url(#clip720)" d="M822.915 1529.33 L841.272 1529.33 L841.272 1533.26 L827.198 1533.26 L827.198 1541.74 Q828.216 1541.39 829.235 1541.23 Q830.253 1541.04 831.272 1541.04 Q837.059 1541.04 840.438 1544.21 Q843.818 1547.38 843.818 1552.8 Q843.818 1558.38 840.346 1561.48 Q836.874 1564.56 830.554 1564.56 Q828.378 1564.56 826.11 1564.19 Q823.864 1563.82 821.457 1563.08 L821.457 1558.38 Q823.54 1559.51 825.763 1560.07 Q827.985 1560.62 830.462 1560.62 Q834.466 1560.62 836.804 1558.52 Q839.142 1556.41 839.142 1552.8 Q839.142 1549.19 836.804 1547.08 Q834.466 1544.98 830.462 1544.98 Q828.587 1544.98 826.712 1545.39 Q824.86 1545.81 822.915 1546.69 L822.915 1529.33 Z" fill="#000000" fill-rule="nonzero" fill-opacity="1" /><path clip-path="url(#clip720)" d="M863.031 1532.41 Q859.42 1532.41 857.591 1535.97 Q855.786 1539.51 855.786 1546.64 Q855.786 1553.75 857.591 1557.31 Q859.42 1560.86 863.031 1560.86 Q866.665 1560.86 868.471 1557.31 Q870.299 1553.75 870.299 1546.64 Q870.299 1539.51 868.471 1535.97 Q866.665 1532.41 863.031 1532.41 M863.031 1528.7 Q868.841 1528.7 871.897 1533.31 Q874.975 1537.89 874.975 1546.64 Q874.975 1555.37 871.897 1559.98 Q868.841 1564.56 863.031 1564.56 Q857.221 1564.56 854.142 1559.98 Q851.087 1555.37 851.087 1546.64 Q851.087 1537.89 854.142 1533.31 Q857.221 1528.7 863.031 1528.7 Z" fill="#000000" fill-rule="nonzero" fill-opacity="1" /><path clip-path="url(#clip720)" d="M1151.73 1529.33 L1173.96 1529.33 L1173.96 1531.32 L1161.41 1563.89 L1156.53 1563.89 L1168.33 1533.26 L1151.73 1533.26 L1151.73 1529.33 Z" fill="#000000" fill-rule="nonzero" fill-opacity="1" /><path clip-path="url(#clip720)" d="M1183.12 1529.33 L1201.48 1529.33 L1201.48 1533.26 L1187.41 1533.26 L1187.41 1541.74 Q1188.42 1541.39 1189.44 1541.23 Q1190.46 1541.04 1191.48 1541.04 Q1197.27 1541.04 1200.65 1544.21 Q1204.03 1547.38 1204.03 1552.8 Q1204.03 1558.38 1200.55 1561.48 Q1197.08 1564.56 1190.76 1564.56 Q1188.59 1564.56 1186.32 1564.19 Q1184.07 1563.82 1181.66 1563.08 L1181.66 1558.38 Q1183.75 1559.51 1185.97 1560.07 Q1188.19 1560.62 1190.67 1560.62 Q1194.67 1560.62 1197.01 1558.52 Q1199.35 1556.41 1199.35 1552.8 Q1199.35 1549.19 1197.01 1547.08 Q1194.67 1544.98 1190.67 1544.98 Q1188.79 1544.98 1186.92 1545.39 Q1185.07 1545.81 1183.12 1546.69 L1183.12 1529.33 Z" fill="#000000" fill-rule="nonzero" fill-opacity="1" /><path clip-path="url(#clip720)" d="M1467.15 1559.95 L1474.79 1559.95 L1474.79 1533.59 L1466.48 1535.25 L1466.48 1530.99 L1474.74 1529.33 L1479.42 1529.33 L1479.42 1559.95 L1487.06 1559.95 L1487.06 1563.89 L1467.15 1563.89 L1467.15 1559.95 Z" fill="#000000" fill-rule="nonzero" fill-opacity="1" /><path clip-path="url(#clip720)" d="M1506.5 1532.41 Q1502.89 1532.41 1501.06 1535.97 Q1499.26 1539.51 1499.26 1546.64 Q1499.26 1553.75 1501.06 1557.31 Q1502.89 1560.86 1506.5 1560.86 Q1510.14 1560.86 1511.94 1557.31 Q1513.77 1553.75 1513.77 1546.64 Q1513.77 1539.51 1511.94 1535.97 Q1510.14 1532.41 1506.5 1532.41 M1506.5 1528.7 Q1512.31 1528.7 1515.37 1533.31 Q1518.45 1537.89 1518.45 1546.64 Q1518.45 1555.37 1515.37 1559.98 Q1512.31 1564.56 1506.5 1564.56 Q1500.69 1564.56 1497.61 1559.98 Q1494.56 1555.37 1494.56 1546.64 Q1494.56 1537.89 1497.61 1533.31 Q1500.69 1528.7 1506.5 1528.7 Z" fill="#000000" fill-rule="nonzero" fill-opacity="1" /><path clip-path="url(#clip720)" d="M1536.66 1532.41 Q1533.05 1532.41 1531.22 1535.97 Q1529.42 1539.51 1529.42 1546.64 Q1529.42 1553.75 1531.22 1557.31 Q1533.05 1560.86 1536.66 1560.86 Q1540.3 1560.86 1542.1 1557.31 Q1543.93 1553.75 1543.93 1546.64 Q1543.93 1539.51 1542.1 1535.97 Q1540.3 1532.41 1536.66 1532.41 M1536.66 1528.7 Q1542.47 1528.7 1545.53 1533.31 Q1548.61 1537.89 1548.61 1546.64 Q1548.61 1555.37 1545.53 1559.98 Q1542.47 1564.56 1536.66 1564.56 Q1530.85 1564.56 1527.78 1559.98 Q1524.72 1555.37 1524.72 1546.64 Q1524.72 1537.89 1527.78 1533.31 Q1530.85 1528.7 1536.66 1528.7 Z" fill="#000000" fill-rule="nonzero" fill-opacity="1" /><polyline clip-path="url(#clip722)" style="stroke:#000000; stroke-linecap:round; stroke-linejoin:round; stroke-width:2; stroke-opacity:0.1; fill:none" points="162.515,1311.77 1560.29,1311.77 "/>
<polyline clip-path="url(#clip722)" style="stroke:#000000; stroke-linecap:round; stroke-linejoin:round; stroke-width:2; stroke-opacity:0.1; fill:none" points="162.515,1101.24 1560.29,1101.24 "/>
<polyline clip-path="url(#clip722)" style="stroke:#000000; stroke-linecap:round; stroke-linejoin:round; stroke-width:2; stroke-opacity:0.1; fill:none" points="162.515,890.709 1560.29,890.709 "/>
<polyline clip-path="url(#clip722)" style="stroke:#000000; stroke-linecap:round; stroke-linejoin:round; stroke-width:2; stroke-opacity:0.1; fill:none" points="162.515,680.178 1560.29,680.178 "/>
<polyline clip-path="url(#clip722)" style="stroke:#000000; stroke-linecap:round; stroke-linejoin:round; stroke-width:2; stroke-opacity:0.1; fill:none" points="162.515,469.646 1560.29,469.646 "/>
<polyline clip-path="url(#clip722)" style="stroke:#000000; stroke-linecap:round; stroke-linejoin:round; stroke-width:2; stroke-opacity:0.1; fill:none" points="162.515,259.115 1560.29,259.115 "/>
<polyline clip-path="url(#clip722)" style="stroke:#000000; stroke-linecap:round; stroke-linejoin:round; stroke-width:2; stroke-opacity:0.1; fill:none" points="162.515,48.5837 1560.29,48.5837 "/>
<polyline clip-path="url(#clip720)" style="stroke:#000000; stroke-linecap:round; stroke-linejoin:round; stroke-width:4; stroke-opacity:1; fill:none" points="162.515,1495.09 162.515,47.2441 "/>
<polyline clip-path="url(#clip720)" style="stroke:#000000; stroke-linecap:round; stroke-linejoin:round; stroke-width:4; stroke-opacity:1; fill:none" points="162.515,1311.77 181.413,1311.77 "/>
<polyline clip-path="url(#clip720)" style="stroke:#000000; stroke-linecap:round; stroke-linejoin:round; stroke-width:4; stroke-opacity:1; fill:none" points="162.515,1101.24 181.413,1101.24 "/>
<polyline clip-path="url(#clip720)" style="stroke:#000000; stroke-linecap:round; stroke-linejoin:round; stroke-width:4; stroke-opacity:1; fill:none" points="162.515,890.709 181.413,890.709 "/>
<polyline clip-path="url(#clip720)" style="stroke:#000000; stroke-linecap:round; stroke-linejoin:round; stroke-width:4; stroke-opacity:1; fill:none" points="162.515,680.178 181.413,680.178 "/>
<polyline clip-path="url(#clip720)" style="stroke:#000000; stroke-linecap:round; stroke-linejoin:round; stroke-width:4; stroke-opacity:1; fill:none" points="162.515,469.646 181.413,469.646 "/>
<polyline clip-path="url(#clip720)" style="stroke:#000000; stroke-linecap:round; stroke-linejoin:round; stroke-width:4; stroke-opacity:1; fill:none" points="162.515,259.115 181.413,259.115 "/>
<polyline clip-path="url(#clip720)" style="stroke:#000000; stroke-linecap:round; stroke-linejoin:round; stroke-width:4; stroke-opacity:1; fill:none" points="162.515,48.5837 181.413,48.5837 "/>
<path clip-path="url(#clip720)" d="M49.3764 1325.12 L57.0152 1325.12 L57.0152 1298.75 L48.7051 1300.42 L48.7051 1296.16 L56.9689 1294.49 L61.6448 1294.49 L61.6448 1325.12 L69.2837 1325.12 L69.2837 1329.05 L49.3764 1329.05 L49.3764 1325.12 Z" fill="#000000" fill-rule="nonzero" fill-opacity="1" /><path clip-path="url(#clip720)" d="M78.7281 1323.17 L83.6123 1323.17 L83.6123 1329.05 L78.7281 1329.05 L78.7281 1323.17 Z" fill="#000000" fill-rule="nonzero" fill-opacity="1" /><path clip-path="url(#clip720)" d="M94.6076 1325.12 L102.246 1325.12 L102.246 1298.75 L93.9363 1300.42 L93.9363 1296.16 L102.2 1294.49 L106.876 1294.49 L106.876 1325.12 L114.515 1325.12 L114.515 1329.05 L94.6076 1329.05 L94.6076 1325.12 Z" fill="#000000" fill-rule="nonzero" fill-opacity="1" /><path clip-path="url(#clip720)" d="M49.7467 1114.59 L57.3856 1114.59 L57.3856 1088.22 L49.0754 1089.89 L49.0754 1085.63 L57.3393 1083.96 L62.0152 1083.96 L62.0152 1114.59 L69.654 1114.59 L69.654 1118.52 L49.7467 1118.52 L49.7467 1114.59 Z" fill="#000000" fill-rule="nonzero" fill-opacity="1" /><path clip-path="url(#clip720)" d="M79.0984 1112.64 L83.9827 1112.64 L83.9827 1118.52 L79.0984 1118.52 L79.0984 1112.64 Z" fill="#000000" fill-rule="nonzero" fill-opacity="1" /><path clip-path="url(#clip720)" d="M98.1956 1114.59 L114.515 1114.59 L114.515 1118.52 L92.5706 1118.52 L92.5706 1114.59 Q95.2326 1111.83 99.8159 1107.2 Q104.422 1102.55 105.603 1101.21 Q107.848 1098.68 108.728 1096.95 Q109.631 1095.19 109.631 1093.5 Q109.631 1090.74 107.686 1089.01 Q105.765 1087.27 102.663 1087.27 Q100.464 1087.27 98.0104 1088.03 Q95.5798 1088.8 92.8021 1090.35 L92.8021 1085.63 Q95.6261 1084.49 98.0798 1083.91 Q100.534 1083.34 102.571 1083.34 Q107.941 1083.34 111.135 1086.02 Q114.33 1088.71 114.33 1093.2 Q114.33 1095.33 113.52 1097.25 Q112.733 1099.15 110.626 1101.74 Q110.047 1102.41 106.946 1105.63 Q103.844 1108.82 98.1956 1114.59 Z" fill="#000000" fill-rule="nonzero" fill-opacity="1" /><path clip-path="url(#clip720)" d="M48.7977 904.054 L56.4365 904.054 L56.4365 877.689 L48.1264 879.355 L48.1264 875.096 L56.3902 873.429 L61.0661 873.429 L61.0661 904.054 L68.705 904.054 L68.705 907.989 L48.7977 907.989 L48.7977 904.054 Z" fill="#000000" fill-rule="nonzero" fill-opacity="1" /><path clip-path="url(#clip720)" d="M78.1494 902.11 L83.0336 902.11 L83.0336 907.989 L78.1494 907.989 L78.1494 902.11 Z" fill="#000000" fill-rule="nonzero" fill-opacity="1" /><path clip-path="url(#clip720)" d="M107.385 889.355 Q110.742 890.073 112.617 892.341 Q114.515 894.61 114.515 897.943 Q114.515 903.059 110.996 905.86 Q107.478 908.661 100.996 908.661 Q98.8206 908.661 96.5057 908.221 Q94.2141 907.804 91.7604 906.948 L91.7604 902.434 Q93.7048 903.568 96.0196 904.147 Q98.3344 904.725 100.858 904.725 Q105.256 904.725 107.547 902.989 Q109.862 901.253 109.862 897.943 Q109.862 894.888 107.709 893.175 Q105.58 891.438 101.76 891.438 L97.7326 891.438 L97.7326 887.596 L101.946 887.596 Q105.395 887.596 107.223 886.23 Q109.052 884.841 109.052 882.249 Q109.052 879.587 107.154 878.175 Q105.279 876.739 101.76 876.739 Q99.8391 876.739 97.64 877.156 Q95.4409 877.573 92.8021 878.452 L92.8021 874.286 Q95.4641 873.545 97.7789 873.175 Q100.117 872.804 102.177 872.804 Q107.501 872.804 110.603 875.235 Q113.705 877.642 113.705 881.763 Q113.705 884.633 112.061 886.624 Q110.418 888.591 107.385 889.355 Z" fill="#000000" fill-rule="nonzero" fill-opacity="1" /><path clip-path="url(#clip720)" d="M47.6634 693.523 L55.3023 693.523 L55.3023 667.157 L46.9921 668.824 L46.9921 664.565 L55.256 662.898 L59.9319 662.898 L59.9319 693.523 L67.5707 693.523 L67.5707 697.458 L47.6634 697.458 L47.6634 693.523 Z" fill="#000000" fill-rule="nonzero" fill-opacity="1" /><path clip-path="url(#clip720)" d="M77.0151 691.578 L81.8993 691.578 L81.8993 697.458 L77.0151 697.458 L77.0151 691.578 Z" fill="#000000" fill-rule="nonzero" fill-opacity="1" /><path clip-path="url(#clip720)" d="M104.932 666.972 L93.1261 685.421 L104.932 685.421 L104.932 666.972 M103.705 662.898 L109.584 662.898 L109.584 685.421 L114.515 685.421 L114.515 689.31 L109.584 689.31 L109.584 697.458 L104.932 697.458 L104.932 689.31 L89.3299 689.31 L89.3299 684.796 L103.705 662.898 Z" fill="#000000" fill-rule="nonzero" fill-opacity="1" /><path clip-path="url(#clip720)" d="M49.1449 482.991 L56.7837 482.991 L56.7837 456.626 L48.4736 458.292 L48.4736 454.033 L56.7374 452.366 L61.4133 452.366 L61.4133 482.991 L69.0522 482.991 L69.0522 486.926 L49.1449 486.926 L49.1449 482.991 Z" fill="#000000" fill-rule="nonzero" fill-opacity="1" /><path clip-path="url(#clip720)" d="M78.4966 481.047 L83.3808 481.047 L83.3808 486.926 L78.4966 486.926 L78.4966 481.047 Z" fill="#000000" fill-rule="nonzero" fill-opacity="1" /><path clip-path="url(#clip720)" d="M93.6122 452.366 L111.969 452.366 L111.969 456.302 L97.8946 456.302 L97.8946 464.774 Q98.9131 464.427 99.9317 464.265 Q100.95 464.079 101.969 464.079 Q107.756 464.079 111.135 467.251 Q114.515 470.422 114.515 475.839 Q114.515 481.417 111.043 484.519 Q107.571 487.598 101.251 487.598 Q99.0752 487.598 96.8067 487.227 Q94.5613 486.857 92.1539 486.116 L92.1539 481.417 Q94.2372 482.552 96.4595 483.107 Q98.6817 483.663 101.159 483.663 Q105.163 483.663 107.501 481.556 Q109.839 479.45 109.839 475.839 Q109.839 472.227 107.501 470.121 Q105.163 468.015 101.159 468.015 Q99.2835 468.015 97.4085 468.431 Q95.5567 468.848 93.6122 469.727 L93.6122 452.366 Z" fill="#000000" fill-rule="nonzero" fill-opacity="1" /><path clip-path="url(#clip720)" d="M47.9875 272.46 L55.6263 272.46 L55.6263 246.094 L47.3162 247.761 L47.3162 243.502 L55.58 241.835 L60.2559 241.835 L60.2559 272.46 L67.8948 272.46 L67.8948 276.395 L47.9875 276.395 L47.9875 272.46 Z" fill="#000000" fill-rule="nonzero" fill-opacity="1" /><path clip-path="url(#clip720)" d="M77.3392 270.515 L82.2234 270.515 L82.2234 276.395 L77.3392 276.395 L77.3392 270.515 Z" fill="#000000" fill-rule="nonzero" fill-opacity="1" /><path clip-path="url(#clip720)" d="M102.987 257.252 Q99.8391 257.252 97.9872 259.404 Q96.1585 261.557 96.1585 265.307 Q96.1585 269.034 97.9872 271.21 Q99.8391 273.363 102.987 273.363 Q106.135 273.363 107.964 271.21 Q109.816 269.034 109.816 265.307 Q109.816 261.557 107.964 259.404 Q106.135 257.252 102.987 257.252 M112.27 242.599 L112.27 246.858 Q110.51 246.025 108.705 245.585 Q106.922 245.145 105.163 245.145 Q100.534 245.145 98.0798 248.27 Q95.6493 251.395 95.3021 257.715 Q96.6678 255.701 98.728 254.636 Q100.788 253.548 103.265 253.548 Q108.473 253.548 111.483 256.719 Q114.515 259.867 114.515 265.307 Q114.515 270.631 111.367 273.849 Q108.219 277.066 102.987 277.066 Q96.9919 277.066 93.8206 272.483 Q90.6493 267.877 90.6493 259.15 Q90.6493 250.955 94.5382 246.094 Q98.427 241.21 104.978 241.21 Q106.737 241.21 108.52 241.557 Q110.325 241.905 112.27 242.599 Z" fill="#000000" fill-rule="nonzero" fill-opacity="1" /><path clip-path="url(#clip720)" d="M49.0523 61.9285 L56.6911 61.9285 L56.6911 35.5629 L48.381 37.2295 L48.381 32.9703 L56.6449 31.3037 L61.3208 31.3037 L61.3208 61.9285 L68.9596 61.9285 L68.9596 65.8637 L49.0523 65.8637 L49.0523 61.9285 Z" fill="#000000" fill-rule="nonzero" fill-opacity="1" /><path clip-path="url(#clip720)" d="M78.404 59.9841 L83.2882 59.9841 L83.2882 65.8637 L78.404 65.8637 L78.404 59.9841 Z" fill="#000000" fill-rule="nonzero" fill-opacity="1" /><path clip-path="url(#clip720)" d="M92.2928 31.3037 L114.515 31.3037 L114.515 33.2944 L101.969 65.8637 L97.0845 65.8637 L108.89 35.2388 L92.2928 35.2388 L92.2928 31.3037 Z" fill="#000000" fill-rule="nonzero" fill-opacity="1" /><polyline clip-path="url(#clip722)" style="stroke:#009af9; stroke-linecap:round; stroke-linejoin:round; stroke-width:4; stroke-opacity:1; fill:none" points="202.075,1454.11 215.261,1443.49 228.448,1432.81 241.634,1422.08 254.821,1411.3 268.007,1400.47 281.194,1389.58 294.381,1378.64 307.567,1367.65 320.754,1356.6 333.94,1345.5 347.127,1334.35 360.313,1323.14 373.5,1311.87 386.686,1300.55 399.873,1289.18 413.06,1277.75 426.246,1266.26 439.433,1254.72 452.619,1243.12 465.806,1231.46 478.992,1219.75 492.179,1207.98 505.366,1196.15 518.552,1184.27 531.739,1172.33 544.925,1160.32 558.112,1148.26 571.298,1136.15 584.485,1123.97 597.671,1111.73 610.858,1099.43 624.045,1087.07 637.231,1074.65 650.418,1062.18 663.604,1049.64 676.791,1037.03 689.977,1024.37 703.164,1011.65 716.351,998.86 729.537,986.01 742.724,973.098 755.91,960.123 769.097,947.084 782.283,933.981 795.47,920.814 808.656,907.583 821.843,894.288 835.03,880.927 848.216,867.501 861.403,854.01 874.589,840.452 887.776,826.828 900.962,813.138 914.149,799.38 927.336,785.556 940.522,771.664 953.709,757.704 966.895,743.675 980.082,729.578 993.268,715.413 1006.45,701.178 1019.64,686.873 1032.83,672.499 1046.01,658.054 1059.2,643.538 1072.39,628.952 1085.57,614.294 1098.76,599.565 1111.95,584.764 1125.13,569.89 1138.32,554.944 1151.51,539.925 1164.69,524.832 1177.88,509.665 1191.07,494.424 1204.25,479.109 1217.44,463.719 1230.63,448.254 1243.81,432.713 1257,417.096 1270.19,401.403 1283.37,385.633 1296.56,369.786 1309.75,353.861 1322.93,337.859 1336.12,321.779 1349.31,305.62 1362.49,289.381 1375.68,273.064 1388.87,256.667 1402.05,240.189 1415.24,223.631 1428.42,206.993 1441.61,190.272 1454.8,173.47 1467.98,156.586 1481.17,139.62 1494.36,122.57 1507.54,105.437 1520.73,88.2208 "/>
<path clip-path="url(#clip720)" d="M209.107 199.186 L389.788 199.186 L389.788 95.5056 L209.107 95.5056  Z" fill="#ffffff" fill-rule="evenodd" fill-opacity="1"/>
<polyline clip-path="url(#clip720)" style="stroke:#000000; stroke-linecap:round; stroke-linejoin:round; stroke-width:4; stroke-opacity:1; fill:none" points="209.107,199.186 389.788,199.186 389.788,95.5056 209.107,95.5056 209.107,199.186 "/>
<polyline clip-path="url(#clip720)" style="stroke:#009af9; stroke-linecap:round; stroke-linejoin:round; stroke-width:4; stroke-opacity:1; fill:none" points="224.638,147.346 317.823,147.346 "/>
<path clip-path="url(#clip720)" d="M353.863 139.695 L353.863 143.677 Q352.058 142.681 350.229 142.195 Q348.424 141.686 346.572 141.686 Q342.428 141.686 340.137 144.325 Q337.845 146.94 337.845 151.686 Q337.845 156.431 340.137 159.07 Q342.428 161.686 346.572 161.686 Q348.424 161.686 350.229 161.2 Q352.058 160.69 353.863 159.695 L353.863 163.63 Q352.081 164.464 350.16 164.88 Q348.261 165.297 346.109 165.297 Q340.252 165.297 336.803 161.616 Q333.354 157.936 333.354 151.686 Q333.354 145.343 336.826 141.709 Q340.322 138.075 346.386 138.075 Q348.354 138.075 350.229 138.491 Q352.104 138.885 353.863 139.695 Z" fill="#000000" fill-rule="nonzero" fill-opacity="1" /><path clip-path="url(#clip720)" d="M365.484 131.339 L365.484 138.7 L374.257 138.7 L374.257 142.01 L365.484 142.01 L365.484 156.084 Q365.484 159.255 366.34 160.158 Q367.22 161.061 369.882 161.061 L374.257 161.061 L374.257 164.626 L369.882 164.626 Q364.951 164.626 363.076 162.797 Q361.201 160.945 361.201 156.084 L361.201 142.01 L358.076 142.01 L358.076 138.7 L361.201 138.7 L361.201 131.339 L365.484 131.339 Z" fill="#000000" fill-rule="nonzero" fill-opacity="1" /><path clip-path="url(#clip720)" d="M1754.98 1495.09 L3152.76 1495.09 L3152.76 47.2441 L1754.98 47.2441  Z" fill="#ffffff" fill-rule="evenodd" fill-opacity="1"/>
<defs>
  <clipPath id="clip723">
    <rect x="1754" y="47" width="1399" height="1449"/>
  </clipPath>
</defs>
<polyline clip-path="url(#clip723)" style="stroke:#000000; stroke-linecap:round; stroke-linejoin:round; stroke-width:2; stroke-opacity:0.1; fill:none" points="1781.35,1495.09 1781.35,47.2441 "/>
<polyline clip-path="url(#clip723)" style="stroke:#000000; stroke-linecap:round; stroke-linejoin:round; stroke-width:2; stroke-opacity:0.1; fill:none" points="2111.02,1495.09 2111.02,47.2441 "/>
<polyline clip-path="url(#clip723)" style="stroke:#000000; stroke-linecap:round; stroke-linejoin:round; stroke-width:2; stroke-opacity:0.1; fill:none" points="2440.68,1495.09 2440.68,47.2441 "/>
<polyline clip-path="url(#clip723)" style="stroke:#000000; stroke-linecap:round; stroke-linejoin:round; stroke-width:2; stroke-opacity:0.1; fill:none" points="2770.35,1495.09 2770.35,47.2441 "/>
<polyline clip-path="url(#clip723)" style="stroke:#000000; stroke-linecap:round; stroke-linejoin:round; stroke-width:2; stroke-opacity:0.1; fill:none" points="3100.01,1495.09 3100.01,47.2441 "/>
<polyline clip-path="url(#clip720)" style="stroke:#000000; stroke-linecap:round; stroke-linejoin:round; stroke-width:4; stroke-opacity:1; fill:none" points="1754.98,1495.09 3152.76,1495.09 "/>
<polyline clip-path="url(#clip720)" style="stroke:#000000; stroke-linecap:round; stroke-linejoin:round; stroke-width:4; stroke-opacity:1; fill:none" points="1781.35,1495.09 1781.35,1476.19 "/>
<polyline clip-path="url(#clip720)" style="stroke:#000000; stroke-linecap:round; stroke-linejoin:round; stroke-width:4; stroke-opacity:1; fill:none" points="2111.02,1495.09 2111.02,1476.19 "/>
<polyline clip-path="url(#clip720)" style="stroke:#000000; stroke-linecap:round; stroke-linejoin:round; stroke-width:4; stroke-opacity:1; fill:none" points="2440.68,1495.09 2440.68,1476.19 "/>
<polyline clip-path="url(#clip720)" style="stroke:#000000; stroke-linecap:round; stroke-linejoin:round; stroke-width:4; stroke-opacity:1; fill:none" points="2770.35,1495.09 2770.35,1476.19 "/>
<polyline clip-path="url(#clip720)" style="stroke:#000000; stroke-linecap:round; stroke-linejoin:round; stroke-width:4; stroke-opacity:1; fill:none" points="3100.01,1495.09 3100.01,1476.19 "/>
<path clip-path="url(#clip720)" d="M1781.35 1532.41 Q1777.74 1532.41 1775.91 1535.97 Q1774.11 1539.51 1774.11 1546.64 Q1774.11 1553.75 1775.91 1557.31 Q1777.74 1560.86 1781.35 1560.86 Q1784.99 1560.86 1786.79 1557.31 Q1788.62 1553.75 1788.62 1546.64 Q1788.62 1539.51 1786.79 1535.97 Q1784.99 1532.41 1781.35 1532.41 M1781.35 1528.7 Q1787.16 1528.7 1790.22 1533.31 Q1793.3 1537.89 1793.3 1546.64 Q1793.3 1555.37 1790.22 1559.98 Q1787.16 1564.56 1781.35 1564.56 Q1775.54 1564.56 1772.46 1559.98 Q1769.41 1555.37 1769.41 1546.64 Q1769.41 1537.89 1772.46 1533.31 Q1775.54 1528.7 1781.35 1528.7 Z" fill="#000000" fill-rule="nonzero" fill-opacity="1" /><path clip-path="url(#clip720)" d="M2090.29 1559.95 L2106.61 1559.95 L2106.61 1563.89 L2084.66 1563.89 L2084.66 1559.95 Q2087.33 1557.2 2091.91 1552.57 Q2096.52 1547.92 2097.7 1546.57 Q2099.94 1544.05 2100.82 1542.31 Q2101.72 1540.55 2101.72 1538.86 Q2101.72 1536.11 2099.78 1534.37 Q2097.86 1532.64 2094.76 1532.64 Q2092.56 1532.64 2090.1 1533.4 Q2087.67 1534.17 2084.89 1535.72 L2084.89 1530.99 Q2087.72 1529.86 2090.17 1529.28 Q2092.63 1528.7 2094.66 1528.7 Q2100.03 1528.7 2103.23 1531.39 Q2106.42 1534.07 2106.42 1538.56 Q2106.42 1540.69 2105.61 1542.61 Q2104.83 1544.51 2102.72 1547.11 Q2102.14 1547.78 2099.04 1550.99 Q2095.94 1554.19 2090.29 1559.95 Z" fill="#000000" fill-rule="nonzero" fill-opacity="1" /><path clip-path="url(#clip720)" d="M2116.47 1529.33 L2134.83 1529.33 L2134.83 1533.26 L2120.75 1533.26 L2120.75 1541.74 Q2121.77 1541.39 2122.79 1541.23 Q2123.81 1541.04 2124.83 1541.04 Q2130.61 1541.04 2133.99 1544.21 Q2137.37 1547.38 2137.37 1552.8 Q2137.37 1558.38 2133.9 1561.48 Q2130.43 1564.56 2124.11 1564.56 Q2121.93 1564.56 2119.66 1564.19 Q2117.42 1563.82 2115.01 1563.08 L2115.01 1558.38 Q2117.09 1559.51 2119.32 1560.07 Q2121.54 1560.62 2124.02 1560.62 Q2128.02 1560.62 2130.36 1558.52 Q2132.7 1556.41 2132.7 1552.8 Q2132.7 1549.19 2130.36 1547.08 Q2128.02 1544.98 2124.02 1544.98 Q2122.14 1544.98 2120.27 1545.39 Q2118.41 1545.81 2116.47 1546.69 L2116.47 1529.33 Z" fill="#000000" fill-rule="nonzero" fill-opacity="1" /><path clip-path="url(#clip720)" d="M2415.38 1529.33 L2433.74 1529.33 L2433.74 1533.26 L2419.66 1533.26 L2419.66 1541.74 Q2420.68 1541.39 2421.7 1541.23 Q2422.72 1541.04 2423.74 1541.04 Q2429.52 1541.04 2432.9 1544.21 Q2436.28 1547.38 2436.28 1552.8 Q2436.28 1558.38 2432.81 1561.48 Q2429.34 1564.56 2423.02 1564.56 Q2420.84 1564.56 2418.58 1564.19 Q2416.33 1563.82 2413.92 1563.08 L2413.92 1558.38 Q2416.01 1559.51 2418.23 1560.07 Q2420.45 1560.62 2422.93 1560.62 Q2426.93 1560.62 2429.27 1558.52 Q2431.61 1556.41 2431.61 1552.8 Q2431.61 1549.19 2429.27 1547.08 Q2426.93 1544.98 2422.93 1544.98 Q2421.05 1544.98 2419.18 1545.39 Q2417.33 1545.81 2415.38 1546.69 L2415.38 1529.33 Z" fill="#000000" fill-rule="nonzero" fill-opacity="1" /><path clip-path="url(#clip720)" d="M2455.5 1532.41 Q2451.89 1532.41 2450.06 1535.97 Q2448.25 1539.51 2448.25 1546.64 Q2448.25 1553.75 2450.06 1557.31 Q2451.89 1560.86 2455.5 1560.86 Q2459.13 1560.86 2460.94 1557.31 Q2462.76 1553.75 2462.76 1546.64 Q2462.76 1539.51 2460.94 1535.97 Q2459.13 1532.41 2455.5 1532.41 M2455.5 1528.7 Q2461.31 1528.7 2464.36 1533.31 Q2467.44 1537.89 2467.44 1546.64 Q2467.44 1555.37 2464.36 1559.98 Q2461.31 1564.56 2455.5 1564.56 Q2449.69 1564.56 2446.61 1559.98 Q2443.55 1555.37 2443.55 1546.64 Q2443.55 1537.89 2446.61 1533.31 Q2449.69 1528.7 2455.5 1528.7 Z" fill="#000000" fill-rule="nonzero" fill-opacity="1" /><path clip-path="url(#clip720)" d="M2744.2 1529.33 L2766.42 1529.33 L2766.42 1531.32 L2753.88 1563.89 L2748.99 1563.89 L2760.8 1533.26 L2744.2 1533.26 L2744.2 1529.33 Z" fill="#000000" fill-rule="nonzero" fill-opacity="1" /><path clip-path="url(#clip720)" d="M2775.59 1529.33 L2793.94 1529.33 L2793.94 1533.26 L2779.87 1533.26 L2779.87 1541.74 Q2780.89 1541.39 2781.91 1541.23 Q2782.93 1541.04 2783.95 1541.04 Q2789.73 1541.04 2793.11 1544.21 Q2796.49 1547.38 2796.49 1552.8 Q2796.49 1558.38 2793.02 1561.48 Q2789.55 1564.56 2783.23 1564.56 Q2781.05 1564.56 2778.78 1564.19 Q2776.54 1563.82 2774.13 1563.08 L2774.13 1558.38 Q2776.21 1559.51 2778.44 1560.07 Q2780.66 1560.62 2783.13 1560.62 Q2787.14 1560.62 2789.48 1558.52 Q2791.82 1556.41 2791.82 1552.8 Q2791.82 1549.19 2789.48 1547.08 Q2787.14 1544.98 2783.13 1544.98 Q2781.26 1544.98 2779.38 1545.39 Q2777.53 1545.81 2775.59 1546.69 L2775.59 1529.33 Z" fill="#000000" fill-rule="nonzero" fill-opacity="1" /><path clip-path="url(#clip720)" d="M3059.62 1559.95 L3067.26 1559.95 L3067.26 1533.59 L3058.95 1535.25 L3058.95 1530.99 L3067.21 1529.33 L3071.88 1529.33 L3071.88 1559.95 L3079.52 1559.95 L3079.52 1563.89 L3059.62 1563.89 L3059.62 1559.95 Z" fill="#000000" fill-rule="nonzero" fill-opacity="1" /><path clip-path="url(#clip720)" d="M3098.97 1532.41 Q3095.36 1532.41 3093.53 1535.97 Q3091.72 1539.51 3091.72 1546.64 Q3091.72 1553.75 3093.53 1557.31 Q3095.36 1560.86 3098.97 1560.86 Q3102.6 1560.86 3104.41 1557.31 Q3106.24 1553.75 3106.24 1546.64 Q3106.24 1539.51 3104.41 1535.97 Q3102.6 1532.41 3098.97 1532.41 M3098.97 1528.7 Q3104.78 1528.7 3107.83 1533.31 Q3110.91 1537.89 3110.91 1546.64 Q3110.91 1555.37 3107.83 1559.98 Q3104.78 1564.56 3098.97 1564.56 Q3093.16 1564.56 3090.08 1559.98 Q3087.02 1555.37 3087.02 1546.64 Q3087.02 1537.89 3090.08 1533.31 Q3093.16 1528.7 3098.97 1528.7 Z" fill="#000000" fill-rule="nonzero" fill-opacity="1" /><path clip-path="url(#clip720)" d="M3129.13 1532.41 Q3125.52 1532.41 3123.69 1535.97 Q3121.88 1539.51 3121.88 1546.64 Q3121.88 1553.75 3123.69 1557.31 Q3125.52 1560.86 3129.13 1560.86 Q3132.76 1560.86 3134.57 1557.31 Q3136.4 1553.75 3136.4 1546.64 Q3136.4 1539.51 3134.57 1535.97 Q3132.76 1532.41 3129.13 1532.41 M3129.13 1528.7 Q3134.94 1528.7 3138 1533.31 Q3141.07 1537.89 3141.07 1546.64 Q3141.07 1555.37 3138 1559.98 Q3134.94 1564.56 3129.13 1564.56 Q3123.32 1564.56 3120.24 1559.98 Q3117.19 1555.37 3117.19 1546.64 Q3117.19 1537.89 3120.24 1533.31 Q3123.32 1528.7 3129.13 1528.7 Z" fill="#000000" fill-rule="nonzero" fill-opacity="1" /><polyline clip-path="url(#clip723)" style="stroke:#000000; stroke-linecap:round; stroke-linejoin:round; stroke-width:2; stroke-opacity:0.1; fill:none" points="1754.98,1355.28 3152.76,1355.28 "/>
<polyline clip-path="url(#clip723)" style="stroke:#000000; stroke-linecap:round; stroke-linejoin:round; stroke-width:2; stroke-opacity:0.1; fill:none" points="1754.98,1157.6 3152.76,1157.6 "/>
<polyline clip-path="url(#clip723)" style="stroke:#000000; stroke-linecap:round; stroke-linejoin:round; stroke-width:2; stroke-opacity:0.1; fill:none" points="1754.98,959.926 3152.76,959.926 "/>
<polyline clip-path="url(#clip723)" style="stroke:#000000; stroke-linecap:round; stroke-linejoin:round; stroke-width:2; stroke-opacity:0.1; fill:none" points="1754.98,762.249 3152.76,762.249 "/>
<polyline clip-path="url(#clip723)" style="stroke:#000000; stroke-linecap:round; stroke-linejoin:round; stroke-width:2; stroke-opacity:0.1; fill:none" points="1754.98,564.571 3152.76,564.571 "/>
<polyline clip-path="url(#clip723)" style="stroke:#000000; stroke-linecap:round; stroke-linejoin:round; stroke-width:2; stroke-opacity:0.1; fill:none" points="1754.98,366.894 3152.76,366.894 "/>
<polyline clip-path="url(#clip723)" style="stroke:#000000; stroke-linecap:round; stroke-linejoin:round; stroke-width:2; stroke-opacity:0.1; fill:none" points="1754.98,169.216 3152.76,169.216 "/>
<polyline clip-path="url(#clip720)" style="stroke:#000000; stroke-linecap:round; stroke-linejoin:round; stroke-width:4; stroke-opacity:1; fill:none" points="1754.98,1495.09 1754.98,47.2441 "/>
<polyline clip-path="url(#clip720)" style="stroke:#000000; stroke-linecap:round; stroke-linejoin:round; stroke-width:4; stroke-opacity:1; fill:none" points="1754.98,1355.28 1773.88,1355.28 "/>
<polyline clip-path="url(#clip720)" style="stroke:#000000; stroke-linecap:round; stroke-linejoin:round; stroke-width:4; stroke-opacity:1; fill:none" points="1754.98,1157.6 1773.88,1157.6 "/>
<polyline clip-path="url(#clip720)" style="stroke:#000000; stroke-linecap:round; stroke-linejoin:round; stroke-width:4; stroke-opacity:1; fill:none" points="1754.98,959.926 1773.88,959.926 "/>
<polyline clip-path="url(#clip720)" style="stroke:#000000; stroke-linecap:round; stroke-linejoin:round; stroke-width:4; stroke-opacity:1; fill:none" points="1754.98,762.249 1773.88,762.249 "/>
<polyline clip-path="url(#clip720)" style="stroke:#000000; stroke-linecap:round; stroke-linejoin:round; stroke-width:4; stroke-opacity:1; fill:none" points="1754.98,564.571 1773.88,564.571 "/>
<polyline clip-path="url(#clip720)" style="stroke:#000000; stroke-linecap:round; stroke-linejoin:round; stroke-width:4; stroke-opacity:1; fill:none" points="1754.98,366.894 1773.88,366.894 "/>
<polyline clip-path="url(#clip720)" style="stroke:#000000; stroke-linecap:round; stroke-linejoin:round; stroke-width:4; stroke-opacity:1; fill:none" points="1754.98,169.216 1773.88,169.216 "/>
<path clip-path="url(#clip720)" d="M1690.66 1368.63 L1706.98 1368.63 L1706.98 1372.56 L1685.04 1372.56 L1685.04 1368.63 Q1687.7 1365.87 1692.28 1361.24 Q1696.89 1356.59 1698.07 1355.25 Q1700.31 1352.72 1701.19 1350.99 Q1702.1 1349.23 1702.1 1347.54 Q1702.1 1344.78 1700.15 1343.05 Q1698.23 1341.31 1695.13 1341.31 Q1692.93 1341.31 1690.48 1342.08 Q1688.05 1342.84 1685.27 1344.39 L1685.27 1339.67 Q1688.09 1338.53 1690.55 1337.95 Q1693 1337.38 1695.04 1337.38 Q1700.41 1337.38 1703.6 1340.06 Q1706.8 1342.75 1706.8 1347.24 Q1706.8 1349.37 1705.98 1351.29 Q1705.2 1353.19 1703.09 1355.78 Q1702.51 1356.45 1699.41 1359.67 Q1696.31 1362.86 1690.66 1368.63 Z" fill="#000000" fill-rule="nonzero" fill-opacity="1" /><path clip-path="url(#clip720)" d="M1697.4 1144.4 L1685.59 1162.85 L1697.4 1162.85 L1697.4 1144.4 M1696.17 1140.32 L1702.05 1140.32 L1702.05 1162.85 L1706.98 1162.85 L1706.98 1166.74 L1702.05 1166.74 L1702.05 1174.88 L1697.4 1174.88 L1697.4 1166.74 L1681.8 1166.74 L1681.8 1162.22 L1696.17 1140.32 Z" fill="#000000" fill-rule="nonzero" fill-opacity="1" /><path clip-path="url(#clip720)" d="M1695.45 958.063 Q1692.3 958.063 1690.45 960.215 Q1688.62 962.368 1688.62 966.118 Q1688.62 969.845 1690.45 972.021 Q1692.3 974.174 1695.45 974.174 Q1698.6 974.174 1700.43 972.021 Q1702.28 969.845 1702.28 966.118 Q1702.28 962.368 1700.43 960.215 Q1698.6 958.063 1695.45 958.063 M1704.73 943.41 L1704.73 947.669 Q1702.98 946.836 1701.17 946.396 Q1699.39 945.956 1697.63 945.956 Q1693 945.956 1690.55 949.081 Q1688.11 952.206 1687.77 958.526 Q1689.13 956.512 1691.19 955.447 Q1693.25 954.359 1695.73 954.359 Q1700.94 954.359 1703.95 957.53 Q1706.98 960.678 1706.98 966.118 Q1706.98 971.442 1703.83 974.66 Q1700.68 977.877 1695.45 977.877 Q1689.46 977.877 1686.29 973.294 Q1683.11 968.688 1683.11 959.961 Q1683.11 951.766 1687 946.905 Q1690.89 942.021 1697.44 942.021 Q1699.2 942.021 1700.98 942.368 Q1702.79 942.715 1704.73 943.41 Z" fill="#000000" fill-rule="nonzero" fill-opacity="1" /><path clip-path="url(#clip720)" d="M1695.13 763.117 Q1691.8 763.117 1689.87 764.899 Q1687.98 766.681 1687.98 769.806 Q1687.98 772.931 1689.87 774.714 Q1691.8 776.496 1695.13 776.496 Q1698.46 776.496 1700.38 774.714 Q1702.3 772.908 1702.3 769.806 Q1702.3 766.681 1700.38 764.899 Q1698.48 763.117 1695.13 763.117 M1690.45 761.126 Q1687.44 760.385 1685.75 758.325 Q1684.09 756.265 1684.09 753.302 Q1684.09 749.158 1687.03 746.751 Q1689.99 744.344 1695.13 744.344 Q1700.29 744.344 1703.23 746.751 Q1706.17 749.158 1706.17 753.302 Q1706.17 756.265 1704.48 758.325 Q1702.81 760.385 1699.83 761.126 Q1703.21 761.913 1705.08 764.205 Q1706.98 766.496 1706.98 769.806 Q1706.98 774.829 1703.9 777.515 Q1700.85 780.2 1695.13 780.2 Q1689.41 780.2 1686.33 777.515 Q1683.28 774.829 1683.28 769.806 Q1683.28 766.496 1685.17 764.205 Q1687.07 761.913 1690.45 761.126 M1688.74 753.742 Q1688.74 756.427 1690.41 757.931 Q1692.1 759.436 1695.13 759.436 Q1698.14 759.436 1699.83 757.931 Q1701.54 756.427 1701.54 753.742 Q1701.54 751.056 1699.83 749.552 Q1698.14 748.047 1695.13 748.047 Q1692.1 748.047 1690.41 749.552 Q1688.74 751.056 1688.74 753.742 Z" fill="#000000" fill-rule="nonzero" fill-opacity="1" /><path clip-path="url(#clip720)" d="M1655.68 577.916 L1663.32 577.916 L1663.32 551.55 L1655.01 553.217 L1655.01 548.958 L1663.28 547.291 L1667.95 547.291 L1667.95 577.916 L1675.59 577.916 L1675.59 581.851 L1655.68 581.851 L1655.68 577.916 Z" fill="#000000" fill-rule="nonzero" fill-opacity="1" /><path clip-path="url(#clip720)" d="M1695.04 550.37 Q1691.42 550.37 1689.6 553.934 Q1687.79 557.476 1687.79 564.606 Q1687.79 571.712 1689.6 575.277 Q1691.42 578.819 1695.04 578.819 Q1698.67 578.819 1700.48 575.277 Q1702.3 571.712 1702.3 564.606 Q1702.3 557.476 1700.48 553.934 Q1698.67 550.37 1695.04 550.37 M1695.04 546.666 Q1700.85 546.666 1703.9 551.272 Q1706.98 555.856 1706.98 564.606 Q1706.98 573.333 1703.9 577.939 Q1700.85 582.522 1695.04 582.522 Q1689.23 582.522 1686.15 577.939 Q1683.09 573.333 1683.09 564.606 Q1683.09 555.856 1686.15 551.272 Q1689.23 546.666 1695.04 546.666 Z" fill="#000000" fill-rule="nonzero" fill-opacity="1" /><path clip-path="url(#clip720)" d="M1657.28 380.238 L1664.92 380.238 L1664.92 353.873 L1656.61 355.539 L1656.61 351.28 L1664.87 349.614 L1669.55 349.614 L1669.55 380.238 L1677.19 380.238 L1677.19 384.174 L1657.28 384.174 L1657.28 380.238 Z" fill="#000000" fill-rule="nonzero" fill-opacity="1" /><path clip-path="url(#clip720)" d="M1690.66 380.238 L1706.98 380.238 L1706.98 384.174 L1685.04 384.174 L1685.04 380.238 Q1687.7 377.484 1692.28 372.854 Q1696.89 368.201 1698.07 366.859 Q1700.31 364.336 1701.19 362.6 Q1702.1 360.84 1702.1 359.151 Q1702.1 356.396 1700.15 354.66 Q1698.23 352.924 1695.13 352.924 Q1692.93 352.924 1690.48 353.688 Q1688.05 354.451 1685.27 356.002 L1685.27 351.28 Q1688.09 350.146 1690.55 349.567 Q1693 348.989 1695.04 348.989 Q1700.41 348.989 1703.6 351.674 Q1706.8 354.359 1706.8 358.85 Q1706.8 360.979 1705.98 362.9 Q1705.2 364.799 1703.09 367.391 Q1702.51 368.062 1699.41 371.28 Q1696.31 374.475 1690.66 380.238 Z" fill="#000000" fill-rule="nonzero" fill-opacity="1" /><path clip-path="url(#clip720)" d="M1655.2 182.561 L1662.84 182.561 L1662.84 156.195 L1654.53 157.862 L1654.53 153.603 L1662.79 151.936 L1667.47 151.936 L1667.47 182.561 L1675.11 182.561 L1675.11 186.496 L1655.2 186.496 L1655.2 182.561 Z" fill="#000000" fill-rule="nonzero" fill-opacity="1" /><path clip-path="url(#clip720)" d="M1697.4 156.01 L1685.59 174.459 L1697.4 174.459 L1697.4 156.01 M1696.17 151.936 L1702.05 151.936 L1702.05 174.459 L1706.98 174.459 L1706.98 178.348 L1702.05 178.348 L1702.05 186.496 L1697.4 186.496 L1697.4 178.348 L1681.8 178.348 L1681.8 173.834 L1696.17 151.936 Z" fill="#000000" fill-rule="nonzero" fill-opacity="1" /><polyline clip-path="url(#clip723)" style="stroke:#009af9; stroke-linecap:round; stroke-linejoin:round; stroke-width:4; stroke-opacity:1; fill:none" points="1794.54,564.571 1807.73,548.005 1820.91,531.606 1834.1,515.38 1847.29,499.334 1860.47,483.473 1873.66,467.803 1886.85,452.33 1900.03,437.062 1913.22,422.005 1926.41,407.165 1939.59,392.55 1952.78,378.166 1965.97,364.02 1979.15,350.121 1992.34,336.474 2005.52,323.089 2018.71,309.973 2031.9,297.134 2045.08,284.58 2058.27,272.319 2071.46,260.361 2084.64,248.713 2097.83,237.384 2111.02,226.384 2124.2,215.723 2137.39,205.409 2150.58,195.451 2163.76,185.861 2176.95,176.649 2190.14,167.823 2203.32,159.396 2216.51,151.377 2229.7,143.778 2242.88,136.611 2256.07,129.886 2269.26,123.615 2282.44,117.81 2295.63,112.483 2308.82,107.648 2322,103.316 2335.19,99.5004 2348.38,96.215 2361.56,93.473 2374.75,91.2883 2387.94,89.675 2401.12,88.6476 2414.31,88.2208 2427.49,88.4097 2440.68,89.2296 2453.87,90.6962 2467.05,92.8255 2480.24,95.6339 2493.43,99.1381 2506.61,103.355 2519.8,108.302 2532.99,113.997 2546.17,120.459 2559.36,127.705 2572.55,135.754 2585.73,144.626 2598.92,154.341 2612.11,164.918 2625.29,176.378 2638.48,188.743 2651.67,202.033 2664.85,216.27 2678.04,231.476 2691.23,247.675 2704.41,264.89 2717.6,283.143 2730.79,302.46 2743.97,322.865 2757.16,344.383 2770.35,367.04 2783.53,390.863 2796.72,415.877 2809.91,442.11 2823.09,469.591 2836.28,498.347 2849.46,528.408 2862.65,559.804 2875.84,592.564 2889.02,626.72 2902.21,662.302 2915.4,699.345 2928.58,737.879 2941.77,777.938 2954.96,819.558 2968.14,862.772 2981.33,907.617 2994.52,954.128 3007.7,1002.34 3020.89,1052.3 3034.08,1104.04 3047.26,1157.59 3060.45,1213.01 3073.64,1270.33 3086.82,1329.59 3100.01,1390.84 3113.2,1454.11 "/>
<path clip-path="url(#clip720)" d="M2892.57 199.186 L3106.16 199.186 L3106.16 95.5056 L2892.57 95.5056  Z" fill="#ffffff" fill-rule="evenodd" fill-opacity="1"/>
<polyline clip-path="url(#clip720)" style="stroke:#000000; stroke-linecap:round; stroke-linejoin:round; stroke-width:4; stroke-opacity:1; fill:none" points="2892.57,199.186 3106.16,199.186 3106.16,95.5056 2892.57,95.5056 2892.57,199.186 "/>
<polyline clip-path="url(#clip720)" style="stroke:#009af9; stroke-linecap:round; stroke-linejoin:round; stroke-width:4; stroke-opacity:1; fill:none" points="2908.1,147.346 3001.28,147.346 "/>
<path clip-path="url(#clip720)" d="M3030.22 151.593 Q3025.05 151.593 3023.06 152.774 Q3021.07 153.954 3021.07 156.802 Q3021.07 159.07 3022.55 160.413 Q3024.06 161.732 3026.63 161.732 Q3030.17 161.732 3032.3 159.232 Q3034.45 156.709 3034.45 152.542 L3034.45 151.593 L3030.22 151.593 M3038.71 149.834 L3038.71 164.626 L3034.45 164.626 L3034.45 160.69 Q3032.99 163.051 3030.82 164.186 Q3028.64 165.297 3025.49 165.297 Q3021.51 165.297 3019.15 163.075 Q3016.81 160.829 3016.81 157.079 Q3016.81 152.704 3019.73 150.482 Q3022.67 148.26 3028.48 148.26 L3034.45 148.26 L3034.45 147.843 Q3034.45 144.903 3032.51 143.306 Q3030.59 141.686 3027.09 141.686 Q3024.87 141.686 3022.76 142.218 Q3020.66 142.751 3018.71 143.815 L3018.71 139.88 Q3021.05 138.978 3023.25 138.538 Q3025.45 138.075 3027.53 138.075 Q3033.16 138.075 3035.93 140.991 Q3038.71 143.908 3038.71 149.834 Z" fill="#000000" fill-rule="nonzero" fill-opacity="1" /><path clip-path="url(#clip720)" d="M3048.9 160.69 L3056.54 160.69 L3056.54 134.325 L3048.23 135.991 L3048.23 131.732 L3056.49 130.066 L3061.17 130.066 L3061.17 160.69 L3068.8 160.69 L3068.8 164.626 L3048.9 164.626 L3048.9 160.69 Z" fill="#000000" fill-rule="nonzero" fill-opacity="1" /><path clip-path="url(#clip720)" d="M3081.86 131.339 L3081.86 138.7 L3090.63 138.7 L3090.63 142.01 L3081.86 142.01 L3081.86 156.084 Q3081.86 159.255 3082.72 160.158 Q3083.6 161.061 3086.26 161.061 L3090.63 161.061 L3090.63 164.626 L3086.26 164.626 Q3081.33 164.626 3079.45 162.797 Q3077.58 160.945 3077.58 156.084 L3077.58 142.01 L3074.45 142.01 L3074.45 138.7 L3077.58 138.7 L3077.58 131.339 L3081.86 131.339 Z" fill="#000000" fill-rule="nonzero" fill-opacity="1" /></svg>