<?xml version="1.0" encoding="utf-8"?>
<svg xmlns="http://www.w3.org/2000/svg" xmlns:xlink="http://www.w3.org/1999/xlink" width="600" height="400" viewBox="0 0 2400 1600">
<defs>
  <clipPath id="clip260">
    <rect x="0" y="0" width="2400" height="1600"/>
  </clipPath>
</defs>
<path clip-path="url(#clip260)" d="M0 1600 L2400 1600 L2400 0 L0 0  Z" fill="#ffffff" fill-rule="evenodd" fill-opacity="1"/>
<defs>
  <clipPath id="clip261">
    <rect x="480" y="0" width="1681" height="1600"/>
  </clipPath>
</defs>
<path clip-path="url(#clip260)" d="M186.76 1486.45 L2352.76 1486.45 L2352.76 47.2441 L186.76 47.2441  Z" fill="#ffffff" fill-rule="evenodd" fill-opacity="1"/>
<defs>
  <clipPath id="clip262">
    <rect x="186" y="47" width="2167" height="1440"/>
  </clipPath>
</defs>
<polyline clip-path="url(#clip262)" style="stroke:#000000; stroke-linecap:round; stroke-linejoin:round; stroke-width:2; stroke-opacity:0.1; fill:none" points="247.244,1486.45 247.244,47.2441 "/>
<polyline clip-path="url(#clip262)" style="stroke:#000000; stroke-linecap:round; stroke-linejoin:round; stroke-width:2; stroke-opacity:0.1; fill:none" points="656.086,1486.45 656.086,47.2441 "/>
<polyline clip-path="url(#clip262)" style="stroke:#000000; stroke-linecap:round; stroke-linejoin:round; stroke-width:2; stroke-opacity:0.1; fill:none" points="1064.93,1486.45 1064.93,47.2441 "/>
<polyline clip-path="url(#clip262)" style="stroke:#000000; stroke-linecap:round; stroke-linejoin:round; stroke-width:2; stroke-opacity:0.1; fill:none" points="1473.77,1486.45 1473.77,47.2441 "/>
<polyline clip-path="url(#clip262)" style="stroke:#000000; stroke-linecap:round; stroke-linejoin:round; stroke-width:2; stroke-opacity:0.1; fill:none" points="1882.61,1486.45 1882.61,47.2441 "/>
<polyline clip-path="url(#clip262)" style="stroke:#000000; stroke-linecap:round; stroke-linejoin:round; stroke-width:2; stroke-opacity:0.1; fill:none" points="2291.45,1486.45 2291.45,47.2441 "/>
<polyline clip-path="url(#clip260)" style="stroke:#000000; stroke-linecap:round; stroke-linejoin:round; stroke-width:4; stroke-opacity:1; fill:none" points="186.76,1486.45 2352.76,1486.45 "/>
<polyline clip-path="url(#clip260)" style="stroke:#000000; stroke-linecap:round; stroke-linejoin:round; stroke-width:4; stroke-opacity:1; fill:none" points="247.244,1486.45 247.244,1467.55 "/>
<polyline clip-path="url(#clip260)" style="stroke:#000000; stroke-linecap:round; stroke-linejoin:round; stroke-width:4; stroke-opacity:1; fill:none" points="656.086,1486.45 656.086,1467.55 "/>
<polyline clip-path="url(#clip260)" style="stroke:#000000; stroke-linecap:round; stroke-linejoin:round; stroke-width:4; stroke-opacity:1; fill:none" points="1064.93,1486.45 1064.93,1467.55 "/>
<polyline clip-path="url(#clip260)" style="stroke:#000000; stroke-linecap:round; stroke-linejoin:round; stroke-width:4; stroke-opacity:1; fill:none" points="1473.77,1486.45 1473.77,1467.55 "/>
<polyline clip-path="url(#clip260)" style="stroke:#000000; stroke-linecap:round; stroke-linejoin:round; stroke-width:4; stroke-opacity:1; fill:none" points="1882.61,1486.45 1882.61,1467.55 "/>
<polyline clip-path="url(#clip260)" style="stroke:#000000; stroke-linecap:round; stroke-linejoin:round; stroke-width:4; stroke-opacity:1; fill:none" points="2291.45,1486.45 2291.45,1467.55 "/>
<path clip-path="url(#clip260)" d="M224.629 1517.37 Q221.017 1517.37 219.189 1520.93 Q217.383 1524.47 217.383 1531.6 Q217.383 1538.71 219.189 1542.27 Q221.017 1545.82 224.629 1545.82 Q228.263 1545.82 230.068 1542.27 Q231.897 1538.71 231.897 1531.6 Q231.897 1524.47 230.068 1520.93 Q228.263 1517.37 224.629 1517.37 M224.629 1513.66 Q230.439 1513.66 233.494 1518.27 Q236.573 1522.85 236.573 1531.6 Q236.573 1540.33 233.494 1544.94 Q230.439 1549.52 224.629 1549.52 Q218.818 1549.52 215.74 1544.94 Q212.684 1540.33 212.684 1531.6 Q212.684 1522.85 215.74 1518.27 Q218.818 1513.66 224.629 1513.66 Z" fill="#000000" fill-rule="nonzero" fill-opacity="1" /><path clip-path="url(#clip260)" d="M244.791 1542.97 L249.675 1542.97 L249.675 1548.85 L244.791 1548.85 L244.791 1542.97 Z" fill="#000000" fill-rule="nonzero" fill-opacity="1" /><path clip-path="url(#clip260)" d="M269.86 1517.37 Q266.249 1517.37 264.42 1520.93 Q262.614 1524.47 262.614 1531.6 Q262.614 1538.71 264.42 1542.27 Q266.249 1545.82 269.86 1545.82 Q273.494 1545.82 275.3 1542.27 Q277.128 1538.71 277.128 1531.6 Q277.128 1524.47 275.3 1520.93 Q273.494 1517.37 269.86 1517.37 M269.86 1513.66 Q275.67 1513.66 278.726 1518.27 Q281.804 1522.85 281.804 1531.6 Q281.804 1540.33 278.726 1544.94 Q275.67 1549.52 269.86 1549.52 Q264.05 1549.52 260.971 1544.94 Q257.915 1540.33 257.915 1531.6 Q257.915 1522.85 260.971 1518.27 Q264.05 1513.66 269.86 1513.66 Z" fill="#000000" fill-rule="nonzero" fill-opacity="1" /><path clip-path="url(#clip260)" d="M633.968 1517.37 Q630.357 1517.37 628.528 1520.93 Q626.723 1524.47 626.723 1531.6 Q626.723 1538.71 628.528 1542.27 Q630.357 1545.82 633.968 1545.82 Q637.602 1545.82 639.408 1542.27 Q641.237 1538.71 641.237 1531.6 Q641.237 1524.47 639.408 1520.93 Q637.602 1517.37 633.968 1517.37 M633.968 1513.66 Q639.778 1513.66 642.834 1518.27 Q645.913 1522.85 645.913 1531.6 Q645.913 1540.33 642.834 1544.94 Q639.778 1549.52 633.968 1549.52 Q628.158 1549.52 625.079 1544.94 Q622.024 1540.33 622.024 1531.6 Q622.024 1522.85 625.079 1518.27 Q628.158 1513.66 633.968 1513.66 Z" fill="#000000" fill-rule="nonzero" fill-opacity="1" /><path clip-path="url(#clip260)" d="M654.13 1542.97 L659.014 1542.97 L659.014 1548.85 L654.13 1548.85 L654.13 1542.97 Z" fill="#000000" fill-rule="nonzero" fill-opacity="1" /><path clip-path="url(#clip260)" d="M669.246 1514.29 L687.602 1514.29 L687.602 1518.22 L673.528 1518.22 L673.528 1526.7 Q674.547 1526.35 675.565 1526.19 Q676.584 1526 677.602 1526 Q683.389 1526 686.769 1529.17 Q690.149 1532.34 690.149 1537.76 Q690.149 1543.34 686.676 1546.44 Q683.204 1549.52 676.885 1549.52 Q674.709 1549.52 672.44 1549.15 Q670.195 1548.78 667.788 1548.04 L667.788 1543.34 Q669.871 1544.47 672.093 1545.03 Q674.315 1545.58 676.792 1545.58 Q680.797 1545.58 683.135 1543.48 Q685.473 1541.37 685.473 1537.76 Q685.473 1534.15 683.135 1532.04 Q680.797 1529.94 676.792 1529.94 Q674.917 1529.94 673.042 1530.35 Q671.19 1530.77 669.246 1531.65 L669.246 1514.29 Z" fill="#000000" fill-rule="nonzero" fill-opacity="1" /><path clip-path="url(#clip260)" d="M1032.08 1544.91 L1039.72 1544.91 L1039.72 1518.55 L1031.41 1520.21 L1031.41 1515.95 L1039.67 1514.29 L1044.35 1514.29 L1044.35 1544.91 L1051.99 1544.91 L1051.99 1548.85 L1032.08 1548.85 L1032.08 1544.91 Z" fill="#000000" fill-rule="nonzero" fill-opacity="1" /><path clip-path="url(#clip260)" d="M1061.43 1542.97 L1066.32 1542.97 L1066.32 1548.85 L1061.43 1548.85 L1061.43 1542.97 Z" fill="#000000" fill-rule="nonzero" fill-opacity="1" /><path clip-path="url(#clip260)" d="M1086.5 1517.37 Q1082.89 1517.37 1081.06 1520.93 Q1079.26 1524.47 1079.26 1531.6 Q1079.26 1538.71 1081.06 1542.27 Q1082.89 1545.82 1086.5 1545.82 Q1090.14 1545.82 1091.94 1542.27 Q1093.77 1538.71 1093.77 1531.6 Q1093.77 1524.47 1091.94 1520.93 Q1090.14 1517.37 1086.5 1517.37 M1086.5 1513.66 Q1092.31 1513.66 1095.37 1518.27 Q1098.45 1522.85 1098.45 1531.6 Q1098.45 1540.33 1095.37 1544.94 Q1092.31 1549.52 1086.5 1549.52 Q1080.69 1549.52 1077.61 1544.94 Q1074.56 1540.33 1074.56 1531.6 Q1074.56 1522.85 1077.61 1518.27 Q1080.69 1513.66 1086.5 1513.66 Z" fill="#000000" fill-rule="nonzero" fill-opacity="1" /><path clip-path="url(#clip260)" d="M1441.42 1544.91 L1449.06 1544.91 L1449.06 1518.55 L1440.75 1520.21 L1440.75 1515.95 L1449.01 1514.29 L1453.69 1514.29 L1453.69 1544.91 L1461.33 1544.91 L1461.33 1548.85 L1441.42 1548.85 L1441.42 1544.91 Z" fill="#000000" fill-rule="nonzero" fill-opacity="1" /><path clip-path="url(#clip260)" d="M1470.77 1542.97 L1475.66 1542.97 L1475.66 1548.85 L1470.77 1548.85 L1470.77 1542.97 Z" fill="#000000" fill-rule="nonzero" fill-opacity="1" /><path clip-path="url(#clip260)" d="M1485.89 1514.29 L1504.24 1514.29 L1504.24 1518.22 L1490.17 1518.22 L1490.17 1526.7 Q1491.19 1526.35 1492.21 1526.19 Q1493.23 1526 1494.24 1526 Q1500.03 1526 1503.41 1529.17 Q1506.79 1532.34 1506.79 1537.76 Q1506.79 1543.34 1503.32 1546.44 Q1499.85 1549.52 1493.53 1549.52 Q1491.35 1549.52 1489.08 1549.15 Q1486.84 1548.78 1484.43 1548.04 L1484.43 1543.34 Q1486.51 1544.47 1488.74 1545.03 Q1490.96 1545.58 1493.43 1545.58 Q1497.44 1545.58 1499.78 1543.48 Q1502.11 1541.37 1502.11 1537.76 Q1502.11 1534.15 1499.78 1532.04 Q1497.44 1529.94 1493.43 1529.94 Q1491.56 1529.94 1489.68 1530.35 Q1487.83 1530.77 1485.89 1531.65 L1485.89 1514.29 Z" fill="#000000" fill-rule="nonzero" fill-opacity="1" /><path clip-path="url(#clip260)" d="M1853.85 1544.91 L1870.17 1544.91 L1870.17 1548.85 L1848.23 1548.85 L1848.23 1544.91 Q1850.89 1542.16 1855.47 1537.53 Q1860.08 1532.88 1861.26 1531.53 Q1863.5 1529.01 1864.38 1527.27 Q1865.29 1525.51 1865.29 1523.82 Q1865.29 1521.07 1863.34 1519.33 Q1861.42 1517.6 1858.32 1517.6 Q1856.12 1517.6 1853.67 1518.36 Q1851.24 1519.13 1848.46 1520.68 L1848.46 1515.95 Q1851.28 1514.82 1853.73 1514.24 Q1856.19 1513.66 1858.23 1513.66 Q1863.6 1513.66 1866.79 1516.35 Q1869.98 1519.03 1869.98 1523.52 Q1869.98 1525.65 1869.17 1527.57 Q1868.39 1529.47 1866.28 1532.07 Q1865.7 1532.74 1862.6 1535.95 Q1859.5 1539.15 1853.85 1544.91 Z" fill="#000000" fill-rule="nonzero" fill-opacity="1" /><path clip-path="url(#clip260)" d="M1879.98 1542.97 L1884.87 1542.97 L1884.87 1548.85 L1879.98 1548.85 L1879.98 1542.97 Z" fill="#000000" fill-rule="nonzero" fill-opacity="1" /><path clip-path="url(#clip260)" d="M1905.05 1517.37 Q1901.44 1517.37 1899.61 1520.93 Q1897.81 1524.47 1897.81 1531.6 Q1897.81 1538.71 1899.61 1542.27 Q1901.44 1545.82 1905.05 1545.82 Q1908.69 1545.82 1910.49 1542.27 Q1912.32 1538.71 1912.32 1531.6 Q1912.32 1524.47 1910.49 1520.93 Q1908.69 1517.37 1905.05 1517.37 M1905.05 1513.66 Q1910.86 1513.66 1913.92 1518.27 Q1917 1522.85 1917 1531.6 Q1917 1540.33 1913.92 1544.94 Q1910.86 1549.52 1905.05 1549.52 Q1899.24 1549.52 1896.17 1544.94 Q1893.11 1540.33 1893.11 1531.6 Q1893.11 1522.85 1896.17 1518.27 Q1899.24 1513.66 1905.05 1513.66 Z" fill="#000000" fill-rule="nonzero" fill-opacity="1" /><path clip-path="url(#clip260)" d="M2263.19 1544.91 L2279.51 1544.91 L2279.51 1548.85 L2257.57 1548.85 L2257.57 1544.91 Q2260.23 1542.16 2264.81 1537.53 Q2269.42 1532.88 2270.6 1531.53 Q2272.84 1529.01 2273.72 1527.27 Q2274.63 1525.51 2274.63 1523.82 Q2274.63 1521.07 2272.68 1519.33 Q2270.76 1517.6 2267.66 1517.6 Q2265.46 1517.6 2263.01 1518.36 Q2260.57 1519.13 2257.8 1520.68 L2257.8 1515.95 Q2260.62 1514.82 2263.07 1514.24 Q2265.53 1513.66 2267.57 1513.66 Q2272.94 1513.66 2276.13 1516.35 Q2279.32 1519.03 2279.32 1523.52 Q2279.32 1525.65 2278.51 1527.57 Q2277.73 1529.47 2275.62 1532.07 Q2275.04 1532.74 2271.94 1535.95 Q2268.84 1539.15 2263.19 1544.91 Z" fill="#000000" fill-rule="nonzero" fill-opacity="1" /><path clip-path="url(#clip260)" d="M2289.32 1542.97 L2294.21 1542.97 L2294.21 1548.85 L2289.32 1548.85 L2289.32 1542.97 Z" fill="#000000" fill-rule="nonzero" fill-opacity="1" /><path clip-path="url(#clip260)" d="M2304.44 1514.29 L2322.8 1514.29 L2322.8 1518.22 L2308.72 1518.22 L2308.72 1526.7 Q2309.74 1526.35 2310.76 1526.19 Q2311.78 1526 2312.8 1526 Q2318.58 1526 2321.96 1529.17 Q2325.34 1532.34 2325.34 1537.76 Q2325.34 1543.34 2321.87 1546.44 Q2318.4 1549.52 2312.08 1549.52 Q2309.9 1549.52 2307.63 1549.15 Q2305.39 1548.78 2302.98 1548.04 L2302.98 1543.34 Q2305.07 1544.47 2307.29 1545.03 Q2309.51 1545.58 2311.99 1545.58 Q2315.99 1545.58 2318.33 1543.48 Q2320.67 1541.37 2320.67 1537.76 Q2320.67 1534.15 2318.33 1532.04 Q2315.99 1529.94 2311.99 1529.94 Q2310.11 1529.94 2308.24 1530.35 Q2306.38 1530.77 2304.44 1531.65 L2304.44 1514.29 Z" fill="#000000" fill-rule="nonzero" fill-opacity="1" /><polyline clip-path="url(#clip262)" style="stroke:#000000; stroke-linecap:round; stroke-linejoin:round; stroke-width:2; stroke-opacity:0.1; fill:none" points="186.76,1446.23 2352.76,1446.23 "/>
<polyline clip-path="url(#clip262)" style="stroke:#000000; stroke-linecap:round; stroke-linejoin:round; stroke-width:2; stroke-opacity:0.1; fill:none" points="186.76,1243.86 2352.76,1243.86 "/>
<polyline clip-path="url(#clip262)" style="stroke:#000000; stroke-linecap:round; stroke-linejoin:round; stroke-width:2; stroke-opacity:0.1; fill:none" points="186.76,1041.5 2352.76,1041.5 "/>
<polyline clip-path="url(#clip262)" style="stroke:#000000; stroke-linecap:round; stroke-linejoin:round; stroke-width:2; stroke-opacity:0.1; fill:none" points="186.76,839.135 2352.76,839.135 "/>
<polyline clip-path="url(#clip262)" style="stroke:#000000; stroke-linecap:round; stroke-linejoin:round; stroke-width:2; stroke-opacity:0.1; fill:none" points="186.76,636.771 2352.76,636.771 "/>
<polyline clip-path="url(#clip262)" style="stroke:#000000; stroke-linecap:round; stroke-linejoin:round; stroke-width:2; stroke-opacity:0.1; fill:none" points="186.76,434.407 2352.76,434.407 "/>
<polyline clip-path="url(#clip262)" style="stroke:#000000; stroke-linecap:round; stroke-linejoin:round; stroke-width:2; stroke-opacity:0.1; fill:none" points="186.76,232.043 2352.76,232.043 "/>
<polyline clip-path="url(#clip260)" style="stroke:#000000; stroke-linecap:round; stroke-linejoin:round; stroke-width:4; stroke-opacity:1; fill:none" points="186.76,1486.45 186.76,47.2441 "/>
<polyline clip-path="url(#clip260)" style="stroke:#000000; stroke-linecap:round; stroke-linejoin:round; stroke-width:4; stroke-opacity:1; fill:none" points="186.76,1446.23 205.658,1446.23 "/>
<polyline clip-path="url(#clip260)" style="stroke:#000000; stroke-linecap:round; stroke-linejoin:round; stroke-width:4; stroke-opacity:1; fill:none" points="186.76,1243.86 205.658,1243.86 "/>
<polyline clip-path="url(#clip260)" style="stroke:#000000; stroke-linecap:round; stroke-linejoin:round; stroke-width:4; stroke-opacity:1; fill:none" points="186.76,1041.5 205.658,1041.5 "/>
<polyline clip-path="url(#clip260)" style="stroke:#000000; stroke-linecap:round; stroke-linejoin:round; stroke-width:4; stroke-opacity:1; fill:none" points="186.76,839.135 205.658,839.135 "/>
<polyline clip-path="url(#clip260)" style="stroke:#000000; stroke-linecap:round; stroke-linejoin:round; stroke-width:4; stroke-opacity:1; fill:none" points="186.76,636.771 205.658,636.771 "/>
<polyline clip-path="url(#clip260)" style="stroke:#000000; stroke-linecap:round; stroke-linejoin:round; stroke-width:4; stroke-opacity:1; fill:none" points="186.76,434.407 205.658,434.407 "/>
<polyline clip-path="url(#clip260)" style="stroke:#000000; stroke-linecap:round; stroke-linejoin:round; stroke-width:4; stroke-opacity:1; fill:none" points="186.76,232.043 205.658,232.043 "/>
<path clip-path="url(#clip260)" d="M63.4226 1432.03 Q59.8115 1432.03 57.9828 1435.59 Q56.1773 1439.13 56.1773 1446.26 Q56.1773 1453.37 57.9828 1456.93 Q59.8115 1460.47 63.4226 1460.47 Q67.0569 1460.47 68.8624 1456.93 Q70.6911 1453.37 70.6911 1446.26 Q70.6911 1439.13 68.8624 1435.59 Q67.0569 1432.03 63.4226 1432.03 M63.4226 1428.32 Q69.2328 1428.32 72.2883 1432.93 Q75.367 1437.51 75.367 1446.26 Q75.367 1454.99 72.2883 1459.6 Q69.2328 1464.18 63.4226 1464.18 Q57.6125 1464.18 54.5338 1459.6 Q51.4782 1454.99 51.4782 1446.26 Q51.4782 1437.51 54.5338 1432.93 Q57.6125 1428.32 63.4226 1428.32 Z" fill="#000000" fill-rule="nonzero" fill-opacity="1" /><path clip-path="url(#clip260)" d="M83.5845 1457.63 L88.4688 1457.63 L88.4688 1463.51 L83.5845 1463.51 L83.5845 1457.63 Z" fill="#000000" fill-rule="nonzero" fill-opacity="1" /><path clip-path="url(#clip260)" d="M108.654 1432.03 Q105.043 1432.03 103.214 1435.59 Q101.409 1439.13 101.409 1446.26 Q101.409 1453.37 103.214 1456.93 Q105.043 1460.47 108.654 1460.47 Q112.288 1460.47 114.094 1456.93 Q115.922 1453.37 115.922 1446.26 Q115.922 1439.13 114.094 1435.59 Q112.288 1432.03 108.654 1432.03 M108.654 1428.32 Q114.464 1428.32 117.52 1432.93 Q120.598 1437.51 120.598 1446.26 Q120.598 1454.99 117.52 1459.6 Q114.464 1464.18 108.654 1464.18 Q102.844 1464.18 99.765 1459.6 Q96.7095 1454.99 96.7095 1446.26 Q96.7095 1437.51 99.765 1432.93 Q102.844 1428.32 108.654 1428.32 Z" fill="#000000" fill-rule="nonzero" fill-opacity="1" /><path clip-path="url(#clip260)" d="M138.816 1432.03 Q135.205 1432.03 133.376 1435.59 Q131.57 1439.13 131.57 1446.26 Q131.57 1453.37 133.376 1456.93 Q135.205 1460.47 138.816 1460.47 Q142.45 1460.47 144.256 1456.93 Q146.084 1453.37 146.084 1446.26 Q146.084 1439.13 144.256 1435.59 Q142.45 1432.03 138.816 1432.03 M138.816 1428.32 Q144.626 1428.32 147.681 1432.93 Q150.76 1437.51 150.76 1446.26 Q150.76 1454.99 147.681 1459.6 Q144.626 1464.18 138.816 1464.18 Q133.006 1464.18 129.927 1459.6 Q126.871 1454.99 126.871 1446.26 Q126.871 1437.51 129.927 1432.93 Q133.006 1428.32 138.816 1428.32 Z" fill="#000000" fill-rule="nonzero" fill-opacity="1" /><path clip-path="url(#clip260)" d="M64.6495 1229.66 Q61.0384 1229.66 59.2097 1233.23 Q57.4041 1236.77 57.4041 1243.9 Q57.4041 1251 59.2097 1254.57 Q61.0384 1258.11 64.6495 1258.11 Q68.2837 1258.11 70.0892 1254.57 Q71.9179 1251 71.9179 1243.9 Q71.9179 1236.77 70.0892 1233.23 Q68.2837 1229.66 64.6495 1229.66 M64.6495 1225.96 Q70.4596 1225.96 73.5152 1230.56 Q76.5938 1235.15 76.5938 1243.9 Q76.5938 1252.62 73.5152 1257.23 Q70.4596 1261.81 64.6495 1261.81 Q58.8393 1261.81 55.7606 1257.23 Q52.7051 1252.62 52.7051 1243.9 Q52.7051 1235.15 55.7606 1230.56 Q58.8393 1225.96 64.6495 1225.96 Z" fill="#000000" fill-rule="nonzero" fill-opacity="1" /><path clip-path="url(#clip260)" d="M84.8114 1255.26 L89.6956 1255.26 L89.6956 1261.14 L84.8114 1261.14 L84.8114 1255.26 Z" fill="#000000" fill-rule="nonzero" fill-opacity="1" /><path clip-path="url(#clip260)" d="M109.881 1229.66 Q106.27 1229.66 104.441 1233.23 Q102.635 1236.77 102.635 1243.9 Q102.635 1251 104.441 1254.57 Q106.27 1258.11 109.881 1258.11 Q113.515 1258.11 115.32 1254.57 Q117.149 1251 117.149 1243.9 Q117.149 1236.77 115.32 1233.23 Q113.515 1229.66 109.881 1229.66 M109.881 1225.96 Q115.691 1225.96 118.746 1230.56 Q121.825 1235.15 121.825 1243.9 Q121.825 1252.62 118.746 1257.23 Q115.691 1261.81 109.881 1261.81 Q104.071 1261.81 100.992 1257.23 Q97.9363 1252.62 97.9363 1243.9 Q97.9363 1235.15 100.992 1230.56 Q104.071 1225.96 109.881 1225.96 Z" fill="#000000" fill-rule="nonzero" fill-opacity="1" /><path clip-path="url(#clip260)" d="M130.853 1257.21 L138.492 1257.21 L138.492 1230.84 L130.182 1232.51 L130.182 1228.25 L138.445 1226.58 L143.121 1226.58 L143.121 1257.21 L150.76 1257.21 L150.76 1261.14 L130.853 1261.14 L130.853 1257.21 Z" fill="#000000" fill-rule="nonzero" fill-opacity="1" /><path clip-path="url(#clip260)" d="M65.0198 1027.3 Q61.4087 1027.3 59.58 1030.86 Q57.7745 1034.4 57.7745 1041.53 Q57.7745 1048.64 59.58 1052.21 Q61.4087 1055.75 65.0198 1055.75 Q68.6541 1055.75 70.4596 1052.21 Q72.2883 1048.64 72.2883 1041.53 Q72.2883 1034.4 70.4596 1030.86 Q68.6541 1027.3 65.0198 1027.3 M65.0198 1023.59 Q70.83 1023.59 73.8855 1028.2 Q76.9642 1032.78 76.9642 1041.53 Q76.9642 1050.26 73.8855 1054.87 Q70.83 1059.45 65.0198 1059.45 Q59.2097 1059.45 56.131 1054.87 Q53.0754 1050.26 53.0754 1041.53 Q53.0754 1032.78 56.131 1028.2 Q59.2097 1023.59 65.0198 1023.59 Z" fill="#000000" fill-rule="nonzero" fill-opacity="1" /><path clip-path="url(#clip260)" d="M85.1818 1052.9 L90.066 1052.9 L90.066 1058.78 L85.1818 1058.78 L85.1818 1052.9 Z" fill="#000000" fill-rule="nonzero" fill-opacity="1" /><path clip-path="url(#clip260)" d="M110.251 1027.3 Q106.64 1027.3 104.811 1030.86 Q103.006 1034.4 103.006 1041.53 Q103.006 1048.64 104.811 1052.21 Q106.64 1055.75 110.251 1055.75 Q113.885 1055.75 115.691 1052.21 Q117.52 1048.64 117.52 1041.53 Q117.52 1034.4 115.691 1030.86 Q113.885 1027.3 110.251 1027.3 M110.251 1023.59 Q116.061 1023.59 119.117 1028.2 Q122.195 1032.78 122.195 1041.53 Q122.195 1050.26 119.117 1054.87 Q116.061 1059.45 110.251 1059.45 Q104.441 1059.45 101.362 1054.87 Q98.3067 1050.26 98.3067 1041.53 Q98.3067 1032.78 101.362 1028.2 Q104.441 1023.59 110.251 1023.59 Z" fill="#000000" fill-rule="nonzero" fill-opacity="1" /><path clip-path="url(#clip260)" d="M134.441 1054.84 L150.76 1054.84 L150.76 1058.78 L128.816 1058.78 L128.816 1054.84 Q131.478 1052.09 136.061 1047.46 Q140.668 1042.81 141.848 1041.46 Q144.093 1038.94 144.973 1037.21 Q145.876 1035.45 145.876 1033.76 Q145.876 1031 143.931 1029.27 Q142.01 1027.53 138.908 1027.53 Q136.709 1027.53 134.256 1028.29 Q131.825 1029.06 129.047 1030.61 L129.047 1025.89 Q131.871 1024.75 134.325 1024.17 Q136.779 1023.59 138.816 1023.59 Q144.186 1023.59 147.38 1026.28 Q150.575 1028.96 150.575 1033.46 Q150.575 1035.58 149.765 1037.51 Q148.978 1039.4 146.871 1042 Q146.293 1042.67 143.191 1045.89 Q140.089 1049.08 134.441 1054.84 Z" fill="#000000" fill-rule="nonzero" fill-opacity="1" /><path clip-path="url(#clip260)" d="M64.0708 824.934 Q60.4597 824.934 58.631 828.499 Q56.8254 832.04 56.8254 839.17 Q56.8254 846.276 58.631 849.841 Q60.4597 853.383 64.0708 853.383 Q67.705 853.383 69.5105 849.841 Q71.3392 846.276 71.3392 839.17 Q71.3392 832.04 69.5105 828.499 Q67.705 824.934 64.0708 824.934 M64.0708 821.23 Q69.8809 821.23 72.9365 825.837 Q76.0151 830.42 76.0151 839.17 Q76.0151 847.897 72.9365 852.503 Q69.8809 857.086 64.0708 857.086 Q58.2606 857.086 55.1819 852.503 Q52.1264 847.897 52.1264 839.17 Q52.1264 830.42 55.1819 825.837 Q58.2606 821.23 64.0708 821.23 Z" fill="#000000" fill-rule="nonzero" fill-opacity="1" /><path clip-path="url(#clip260)" d="M84.2327 850.536 L89.1169 850.536 L89.1169 856.415 L84.2327 856.415 L84.2327 850.536 Z" fill="#000000" fill-rule="nonzero" fill-opacity="1" /><path clip-path="url(#clip260)" d="M109.302 824.934 Q105.691 824.934 103.862 828.499 Q102.057 832.04 102.057 839.17 Q102.057 846.276 103.862 849.841 Q105.691 853.383 109.302 853.383 Q112.936 853.383 114.742 849.841 Q116.57 846.276 116.57 839.17 Q116.57 832.04 114.742 828.499 Q112.936 824.934 109.302 824.934 M109.302 821.23 Q115.112 821.23 118.168 825.837 Q121.246 830.42 121.246 839.17 Q121.246 847.897 118.168 852.503 Q115.112 857.086 109.302 857.086 Q103.492 857.086 100.413 852.503 Q97.3576 847.897 97.3576 839.17 Q97.3576 830.42 100.413 825.837 Q103.492 821.23 109.302 821.23 Z" fill="#000000" fill-rule="nonzero" fill-opacity="1" /><path clip-path="url(#clip260)" d="M143.631 837.781 Q146.987 838.499 148.862 840.767 Q150.76 843.036 150.76 846.369 Q150.76 851.485 147.242 854.286 Q143.723 857.086 137.242 857.086 Q135.066 857.086 132.751 856.647 Q130.459 856.23 128.006 855.374 L128.006 850.86 Q129.95 851.994 132.265 852.573 Q134.58 853.151 137.103 853.151 Q141.501 853.151 143.793 851.415 Q146.107 849.679 146.107 846.369 Q146.107 843.313 143.955 841.6 Q141.825 839.864 138.006 839.864 L133.978 839.864 L133.978 836.022 L138.191 836.022 Q141.64 836.022 143.468 834.656 Q145.297 833.267 145.297 830.675 Q145.297 828.013 143.399 826.601 Q141.524 825.165 138.006 825.165 Q136.084 825.165 133.885 825.582 Q131.686 825.999 129.047 826.878 L129.047 822.712 Q131.709 821.971 134.024 821.601 Q136.362 821.23 138.422 821.23 Q143.746 821.23 146.848 823.661 Q149.95 826.068 149.95 830.188 Q149.95 833.059 148.306 835.05 Q146.663 837.017 143.631 837.781 Z" fill="#000000" fill-rule="nonzero" fill-opacity="1" /><path clip-path="url(#clip260)" d="M62.9365 622.57 Q59.3254 622.57 57.4967 626.135 Q55.6912 629.676 55.6912 636.806 Q55.6912 643.912 57.4967 647.477 Q59.3254 651.019 62.9365 651.019 Q66.5707 651.019 68.3763 647.477 Q70.205 643.912 70.205 636.806 Q70.205 629.676 68.3763 626.135 Q66.5707 622.57 62.9365 622.57 M62.9365 618.866 Q68.7467 618.866 71.8022 623.473 Q74.8809 628.056 74.8809 636.806 Q74.8809 645.533 71.8022 650.139 Q68.7467 654.723 62.9365 654.723 Q57.1264 654.723 54.0477 650.139 Q50.9921 645.533 50.9921 636.806 Q50.9921 628.056 54.0477 623.473 Q57.1264 618.866 62.9365 618.866 Z" fill="#000000" fill-rule="nonzero" fill-opacity="1" /><path clip-path="url(#clip260)" d="M83.0984 648.172 L87.9827 648.172 L87.9827 654.051 L83.0984 654.051 L83.0984 648.172 Z" fill="#000000" fill-rule="nonzero" fill-opacity="1" /><path clip-path="url(#clip260)" d="M108.168 622.57 Q104.557 622.57 102.728 626.135 Q100.922 629.676 100.922 636.806 Q100.922 643.912 102.728 647.477 Q104.557 651.019 108.168 651.019 Q111.802 651.019 113.608 647.477 Q115.436 643.912 115.436 636.806 Q115.436 629.676 113.608 626.135 Q111.802 622.57 108.168 622.57 M108.168 618.866 Q113.978 618.866 117.033 623.473 Q120.112 628.056 120.112 636.806 Q120.112 645.533 117.033 650.139 Q113.978 654.723 108.168 654.723 Q102.358 654.723 99.2789 650.139 Q96.2234 645.533 96.2234 636.806 Q96.2234 628.056 99.2789 623.473 Q102.358 618.866 108.168 618.866 Z" fill="#000000" fill-rule="nonzero" fill-opacity="1" /><path clip-path="url(#clip260)" d="M141.177 623.565 L129.371 642.014 L141.177 642.014 L141.177 623.565 M139.95 619.491 L145.83 619.491 L145.83 642.014 L150.76 642.014 L150.76 645.903 L145.83 645.903 L145.83 654.051 L141.177 654.051 L141.177 645.903 L125.575 645.903 L125.575 641.389 L139.95 619.491 Z" fill="#000000" fill-rule="nonzero" fill-opacity="1" /><path clip-path="url(#clip260)" d="M64.418 420.206 Q60.8069 420.206 58.9782 423.771 Q57.1726 427.312 57.1726 434.442 Q57.1726 441.548 58.9782 445.113 Q60.8069 448.655 64.418 448.655 Q68.0522 448.655 69.8578 445.113 Q71.6865 441.548 71.6865 434.442 Q71.6865 427.312 69.8578 423.771 Q68.0522 420.206 64.418 420.206 M64.418 416.502 Q70.2281 416.502 73.2837 421.109 Q76.3624 425.692 76.3624 434.442 Q76.3624 443.169 73.2837 447.775 Q70.2281 452.359 64.418 452.359 Q58.6078 452.359 55.5291 447.775 Q52.4736 443.169 52.4736 434.442 Q52.4736 425.692 55.5291 421.109 Q58.6078 416.502 64.418 416.502 Z" fill="#000000" fill-rule="nonzero" fill-opacity="1" /><path clip-path="url(#clip260)" d="M84.5799 445.808 L89.4641 445.808 L89.4641 451.687 L84.5799 451.687 L84.5799 445.808 Z" fill="#000000" fill-rule="nonzero" fill-opacity="1" /><path clip-path="url(#clip260)" d="M109.649 420.206 Q106.038 420.206 104.209 423.771 Q102.404 427.312 102.404 434.442 Q102.404 441.548 104.209 445.113 Q106.038 448.655 109.649 448.655 Q113.283 448.655 115.089 445.113 Q116.918 441.548 116.918 434.442 Q116.918 427.312 115.089 423.771 Q113.283 420.206 109.649 420.206 M109.649 416.502 Q115.459 416.502 118.515 421.109 Q121.594 425.692 121.594 434.442 Q121.594 443.169 118.515 447.775 Q115.459 452.359 109.649 452.359 Q103.839 452.359 100.76 447.775 Q97.7048 443.169 97.7048 434.442 Q97.7048 425.692 100.76 421.109 Q103.839 416.502 109.649 416.502 Z" fill="#000000" fill-rule="nonzero" fill-opacity="1" /><path clip-path="url(#clip260)" d="M129.857 417.127 L148.214 417.127 L148.214 421.062 L134.14 421.062 L134.14 429.535 Q135.158 429.187 136.177 429.025 Q137.195 428.84 138.214 428.84 Q144.001 428.84 147.38 432.011 Q150.76 435.183 150.76 440.599 Q150.76 446.178 147.288 449.28 Q143.816 452.359 137.496 452.359 Q135.32 452.359 133.052 451.988 Q130.807 451.618 128.399 450.877 L128.399 446.178 Q130.482 447.312 132.705 447.868 Q134.927 448.423 137.404 448.423 Q141.408 448.423 143.746 446.317 Q146.084 444.21 146.084 440.599 Q146.084 436.988 143.746 434.882 Q141.408 432.775 137.404 432.775 Q135.529 432.775 133.654 433.192 Q131.802 433.609 129.857 434.488 L129.857 417.127 Z" fill="#000000" fill-rule="nonzero" fill-opacity="1" /><path clip-path="url(#clip260)" d="M63.2606 217.842 Q59.6495 217.842 57.8208 221.407 Q56.0152 224.948 56.0152 232.078 Q56.0152 239.184 57.8208 242.749 Q59.6495 246.291 63.2606 246.291 Q66.8948 246.291 68.7004 242.749 Q70.5291 239.184 70.5291 232.078 Q70.5291 224.948 68.7004 221.407 Q66.8948 217.842 63.2606 217.842 M63.2606 214.138 Q69.0707 214.138 72.1263 218.745 Q75.205 223.328 75.205 232.078 Q75.205 240.805 72.1263 245.411 Q69.0707 249.995 63.2606 249.995 Q57.4504 249.995 54.3717 245.411 Q51.3162 240.805 51.3162 232.078 Q51.3162 223.328 54.3717 218.745 Q57.4504 214.138 63.2606 214.138 Z" fill="#000000" fill-rule="nonzero" fill-opacity="1" /><path clip-path="url(#clip260)" d="M83.4225 243.444 L88.3067 243.444 L88.3067 249.323 L83.4225 249.323 L83.4225 243.444 Z" fill="#000000" fill-rule="nonzero" fill-opacity="1" /><path clip-path="url(#clip260)" d="M108.492 217.842 Q104.881 217.842 103.052 221.407 Q101.246 224.948 101.246 232.078 Q101.246 239.184 103.052 242.749 Q104.881 246.291 108.492 246.291 Q112.126 246.291 113.932 242.749 Q115.76 239.184 115.76 232.078 Q115.76 224.948 113.932 221.407 Q112.126 217.842 108.492 217.842 M108.492 214.138 Q114.302 214.138 117.358 218.745 Q120.436 223.328 120.436 232.078 Q120.436 240.805 117.358 245.411 Q114.302 249.995 108.492 249.995 Q102.682 249.995 99.603 245.411 Q96.5474 240.805 96.5474 232.078 Q96.5474 223.328 99.603 218.745 Q102.682 214.138 108.492 214.138 Z" fill="#000000" fill-rule="nonzero" fill-opacity="1" /><path clip-path="url(#clip260)" d="M139.232 230.18 Q136.084 230.18 134.232 232.333 Q132.404 234.485 132.404 238.235 Q132.404 241.962 134.232 244.138 Q136.084 246.291 139.232 246.291 Q142.381 246.291 144.209 244.138 Q146.061 241.962 146.061 238.235 Q146.061 234.485 144.209 232.333 Q142.381 230.18 139.232 230.18 M148.515 215.527 L148.515 219.786 Q146.756 218.953 144.95 218.513 Q143.168 218.073 141.408 218.073 Q136.779 218.073 134.325 221.198 Q131.894 224.323 131.547 230.643 Q132.913 228.629 134.973 227.564 Q137.033 226.476 139.51 226.476 Q144.718 226.476 147.728 229.647 Q150.76 232.796 150.76 238.235 Q150.76 243.559 147.612 246.777 Q144.464 249.995 139.232 249.995 Q133.237 249.995 130.066 245.411 Q126.894 240.805 126.894 232.078 Q126.894 223.884 130.783 219.023 Q134.672 214.138 141.223 214.138 Q142.982 214.138 144.765 214.485 Q146.57 214.833 148.515 215.527 Z" fill="#000000" fill-rule="nonzero" fill-opacity="1" /><polyline clip-path="url(#clip262)" style="stroke:#009af9; stroke-linecap:round; stroke-linejoin:round; stroke-width:4; stroke-opacity:1; fill:none" points="248.062,1445.72 265.233,1434.98 282.405,1424.24 299.576,1413.49 316.747,1402.75 333.919,1392.01 351.09,1381.27 368.261,1370.53 385.433,1359.79 402.604,1349.05 419.776,1338.31 436.947,1327.57 454.118,1316.83 471.29,1306.09 488.461,1295.35 505.632,1284.61 522.804,1273.87 539.975,1263.13 557.146,1252.39 574.318,1241.65 591.489,1230.91 608.661,1220.17 625.832,1209.43 643.003,1198.69 660.175,1187.95 677.346,1177.21 694.517,1166.47 711.689,1155.73 728.86,1144.99 746.031,1134.25 763.203,1123.51 780.374,1112.77 797.546,1102.03 814.717,1091.29 831.888,1080.55 849.06,1069.81 866.231,1059.07 883.402,1048.33 900.574,1037.59 917.745,1026.85 934.916,1016.11 952.088,1005.37 969.259,994.625 986.431,983.885 1003.6,973.144 1020.77,962.404 1037.94,951.664 1055.12,940.924 1072.29,930.183 1089.46,919.443 1106.63,908.703 1123.8,897.963 1140.97,887.222 1158.14,876.482 1175.32,865.742 1192.49,855.002 1209.66,844.261 1226.83,833.521 1244,822.781 1261.17,812.041 1278.34,801.3 1295.52,790.56 1312.69,779.82 1329.86,769.079 1347.03,758.339 1364.2,747.599 1381.37,736.859 1398.54,726.118 1415.71,715.378 1432.89,704.638 1450.06,693.898 1467.23,683.157 1484.4,672.417 1501.57,661.677 1518.74,650.937 1535.91,640.196 1553.09,629.456 1570.26,618.716 1587.43,607.976 1604.6,597.235 1621.77,586.495 1638.94,575.755 1656.11,565.015 1673.29,554.274 1690.46,543.534 1707.63,532.794 1724.8,522.054 1741.97,511.313 1759.14,500.573 1776.31,489.833 1793.48,479.093 1810.66,468.352 1827.83,457.612 1845,446.872 1862.17,436.132 1879.34,425.391 1896.51,414.651 1913.68,403.911 1930.86,393.17 1948.03,382.43 1965.2,371.69 1982.37,360.95 1999.54,350.209 2016.71,339.469 2033.88,328.729 2051.06,317.989 2068.23,307.248 2085.4,296.508 2102.57,285.768 2119.74,275.028 2136.91,264.287 2154.08,253.547 2171.25,242.807 2188.43,232.067 2205.6,221.326 2222.77,210.586 2239.94,199.846 2257.11,189.106 2274.28,178.365 2291.45,167.625 "/>
<polyline clip-path="url(#clip262)" style="stroke:#e26f46; stroke-linecap:round; stroke-linejoin:round; stroke-width:4; stroke-opacity:1; fill:none" points="248.062,1445.68 265.233,1434.27 282.405,1422.87 299.576,1411.46 316.747,1400.05 333.919,1388.64 351.09,1377.23 368.261,1365.82 385.433,1354.41 402.604,1343 419.776,1331.59 436.947,1320.18 454.118,1308.77 471.29,1297.36 488.461,1285.95 505.632,1274.54 522.804,1263.13 539.975,1251.73 557.146,1240.32 574.318,1228.91 591.489,1217.5 608.661,1206.09 625.832,1194.68 643.003,1183.27 660.175,1171.86 677.346,1160.45 694.517,1149.04 711.689,1137.63 728.86,1126.22 746.031,1114.81 763.203,1103.4 780.374,1092 797.546,1080.59 814.717,1069.18 831.888,1057.77 849.06,1046.36 866.231,1034.95 883.402,1023.54 900.574,1012.13 917.745,1000.72 934.916,989.312 952.088,977.902 969.259,966.493 986.431,955.084 1003.6,943.674 1020.77,932.265 1037.94,920.856 1055.12,909.446 1072.29,898.037 1089.46,886.628 1106.63,875.218 1123.8,863.809 1140.97,852.4 1158.14,840.991 1175.32,829.581 1192.49,818.172 1209.66,806.763 1226.83,795.353 1244,783.944 1261.17,772.535 1278.34,761.125 1295.52,749.716 1312.69,738.307 1329.86,726.897 1347.03,715.488 1364.2,704.079 1381.37,692.67 1398.54,681.26 1415.71,669.851 1432.89,658.442 1450.06,647.032 1467.23,635.623 1484.4,624.214 1501.57,612.804 1518.74,601.395 1535.91,589.986 1553.09,578.576 1570.26,567.167 1587.43,555.758 1604.6,544.349 1621.77,532.939 1638.94,521.53 1656.11,510.121 1673.29,498.711 1690.46,487.302 1707.63,475.893 1724.8,464.483 1741.97,453.074 1759.14,441.665 1776.31,430.255 1793.48,418.846 1810.66,407.437 1827.83,396.028 1845,384.618 1862.17,373.209 1879.34,361.8 1896.51,350.39 1913.68,338.981 1930.86,327.572 1948.03,316.162 1965.2,304.753 1982.37,293.344 1999.54,281.934 2016.71,270.525 2033.88,259.116 2051.06,247.707 2068.23,236.297 2085.4,224.888 2102.57,213.479 2119.74,202.069 2136.91,190.66 2154.08,179.251 2171.25,167.841 2188.43,156.432 2205.6,145.023 2222.77,133.614 2239.94,122.204 2257.11,110.795 2274.28,99.3856 2291.45,87.9763 "/>
<path clip-path="url(#clip260)" d="M258.96 250.738 L697.688 250.738 L697.688 95.2176 L258.96 95.2176  Z" fill="#ffffff" fill-rule="evenodd" fill-opacity="1"/>
<polyline clip-path="url(#clip260)" style="stroke:#000000; stroke-linecap:round; stroke-linejoin:round; stroke-width:4; stroke-opacity:1; fill:none" points="258.96,250.738 697.688,250.738 697.688,95.2176 258.96,95.2176 258.96,250.738 "/>
<polyline clip-path="url(#clip260)" style="stroke:#009af9; stroke-linecap:round; stroke-linejoin:round; stroke-width:4; stroke-opacity:1; fill:none" points="283.027,147.058 427.426,147.058 "/>
<path clip-path="url(#clip260)" d="M469.919 139.176 L469.919 143.203 Q468.113 142.277 466.169 141.815 Q464.224 141.352 462.141 141.352 Q458.97 141.352 457.373 142.324 Q455.798 143.296 455.798 145.24 Q455.798 146.722 456.933 147.578 Q458.067 148.412 461.493 149.176 L462.951 149.5 Q467.488 150.472 469.386 152.254 Q471.308 154.014 471.308 157.185 Q471.308 160.796 468.437 162.902 Q465.59 165.009 460.59 165.009 Q458.507 165.009 456.238 164.592 Q453.993 164.199 451.493 163.388 L451.493 158.99 Q453.854 160.217 456.146 160.842 Q458.437 161.444 460.683 161.444 Q463.692 161.444 465.312 160.426 Q466.933 159.384 466.933 157.509 Q466.933 155.773 465.752 154.847 Q464.595 153.921 460.636 153.064 L459.155 152.717 Q455.197 151.884 453.437 150.171 Q451.678 148.435 451.678 145.426 Q451.678 141.768 454.271 139.778 Q456.863 137.787 461.632 137.787 Q463.993 137.787 466.076 138.134 Q468.16 138.481 469.919 139.176 Z" fill="#000000" fill-rule="nonzero" fill-opacity="1" /><path clip-path="url(#clip260)" d="M488.136 141.398 Q484.71 141.398 482.72 144.083 Q480.729 146.745 480.729 151.398 Q480.729 156.051 482.696 158.736 Q484.687 161.398 488.136 161.398 Q491.539 161.398 493.53 158.713 Q495.52 156.027 495.52 151.398 Q495.52 146.791 493.53 144.106 Q491.539 141.398 488.136 141.398 M488.136 137.787 Q493.692 137.787 496.863 141.398 Q500.034 145.009 500.034 151.398 Q500.034 157.764 496.863 161.398 Q493.692 165.009 488.136 165.009 Q482.558 165.009 479.386 161.398 Q476.238 157.764 476.238 151.398 Q476.238 145.009 479.386 141.398 Q482.558 137.787 488.136 137.787 Z" fill="#000000" fill-rule="nonzero" fill-opacity="1" /><path clip-path="url(#clip260)" d="M507.094 128.319 L511.354 128.319 L511.354 164.338 L507.094 164.338 L507.094 128.319 Z" fill="#000000" fill-rule="nonzero" fill-opacity="1" /><path clip-path="url(#clip260)" d="M519.826 154.106 L519.826 138.412 L524.085 138.412 L524.085 153.944 Q524.085 157.625 525.52 159.476 Q526.955 161.305 529.826 161.305 Q533.275 161.305 535.266 159.106 Q537.28 156.907 537.28 153.111 L537.28 138.412 L541.539 138.412 L541.539 164.338 L537.28 164.338 L537.28 160.356 Q535.729 162.717 533.668 163.875 Q531.631 165.009 528.923 165.009 Q524.456 165.009 522.141 162.231 Q519.826 159.453 519.826 154.106 M530.543 137.787 L530.543 137.787 Z" fill="#000000" fill-rule="nonzero" fill-opacity="1" /><path clip-path="url(#clip260)" d="M554.525 131.051 L554.525 138.412 L563.298 138.412 L563.298 141.722 L554.525 141.722 L554.525 155.796 Q554.525 158.967 555.381 159.87 Q556.261 160.773 558.923 160.773 L563.298 160.773 L563.298 164.338 L558.923 164.338 Q553.992 164.338 552.117 162.509 Q550.242 160.657 550.242 155.796 L550.242 141.722 L547.117 141.722 L547.117 138.412 L550.242 138.412 L550.242 131.051 L554.525 131.051 Z" fill="#000000" fill-rule="nonzero" fill-opacity="1" /><path clip-path="url(#clip260)" d="M568.9 138.412 L573.159 138.412 L573.159 164.338 L568.9 164.338 L568.9 138.412 M568.9 128.319 L573.159 128.319 L573.159 133.713 L568.9 133.713 L568.9 128.319 Z" fill="#000000" fill-rule="nonzero" fill-opacity="1" /><path clip-path="url(#clip260)" d="M592.117 141.398 Q588.691 141.398 586.701 144.083 Q584.71 146.745 584.71 151.398 Q584.71 156.051 586.677 158.736 Q588.668 161.398 592.117 161.398 Q595.52 161.398 597.511 158.713 Q599.501 156.027 599.501 151.398 Q599.501 146.791 597.511 144.106 Q595.52 141.398 592.117 141.398 M592.117 137.787 Q597.673 137.787 600.844 141.398 Q604.015 145.009 604.015 151.398 Q604.015 157.764 600.844 161.398 Q597.673 165.009 592.117 165.009 Q586.539 165.009 583.367 161.398 Q580.219 157.764 580.219 151.398 Q580.219 145.009 583.367 141.398 Q586.539 137.787 592.117 137.787 Z" fill="#000000" fill-rule="nonzero" fill-opacity="1" /><path clip-path="url(#clip260)" d="M632.626 148.689 L632.626 164.338 L628.367 164.338 L628.367 148.828 Q628.367 145.148 626.932 143.319 Q625.497 141.49 622.626 141.49 Q619.177 141.49 617.186 143.69 Q615.196 145.889 615.196 149.685 L615.196 164.338 L610.913 164.338 L610.913 138.412 L615.196 138.412 L615.196 142.44 Q616.724 140.102 618.784 138.944 Q620.867 137.787 623.575 137.787 Q628.043 137.787 630.335 140.565 Q632.626 143.319 632.626 148.689 Z" fill="#000000" fill-rule="nonzero" fill-opacity="1" /><polyline clip-path="url(#clip260)" style="stroke:#e26f46; stroke-linecap:round; stroke-linejoin:round; stroke-width:4; stroke-opacity:1; fill:none" points="283.027,198.898 427.426,198.898 "/>
<path clip-path="url(#clip260)" d="M464.896 203.145 Q459.734 203.145 457.743 204.326 Q455.752 205.506 455.752 208.354 Q455.752 210.622 457.234 211.965 Q458.738 213.284 461.308 213.284 Q464.849 213.284 466.979 210.784 Q469.132 208.261 469.132 204.094 L469.132 203.145 L464.896 203.145 M473.391 201.386 L473.391 216.178 L469.132 216.178 L469.132 212.242 Q467.673 214.603 465.497 215.738 Q463.322 216.849 460.173 216.849 Q456.192 216.849 453.831 214.627 Q451.493 212.381 451.493 208.631 Q451.493 204.256 454.41 202.034 Q457.349 199.812 463.16 199.812 L469.132 199.812 L469.132 199.395 Q469.132 196.455 467.187 194.858 Q465.266 193.238 461.771 193.238 Q459.548 193.238 457.442 193.77 Q455.336 194.303 453.391 195.367 L453.391 191.432 Q455.729 190.53 457.928 190.09 Q460.127 189.627 462.21 189.627 Q467.835 189.627 470.613 192.543 Q473.391 195.46 473.391 201.386 Z" fill="#000000" fill-rule="nonzero" fill-opacity="1" /><path clip-path="url(#clip260)" d="M503.715 200.529 L503.715 216.178 L499.456 216.178 L499.456 200.668 Q499.456 196.988 498.02 195.159 Q496.585 193.33 493.715 193.33 Q490.266 193.33 488.275 195.53 Q486.284 197.729 486.284 201.525 L486.284 216.178 L482.002 216.178 L482.002 190.252 L486.284 190.252 L486.284 194.28 Q487.812 191.942 489.872 190.784 Q491.956 189.627 494.664 189.627 Q499.132 189.627 501.423 192.405 Q503.715 195.159 503.715 200.529 Z" fill="#000000" fill-rule="nonzero" fill-opacity="1" /><path clip-path="url(#clip260)" d="M523.993 203.145 Q518.831 203.145 516.84 204.326 Q514.849 205.506 514.849 208.354 Q514.849 210.622 516.331 211.965 Q517.835 213.284 520.405 213.284 Q523.946 213.284 526.076 210.784 Q528.229 208.261 528.229 204.094 L528.229 203.145 L523.993 203.145 M532.488 201.386 L532.488 216.178 L528.229 216.178 L528.229 212.242 Q526.77 214.603 524.594 215.738 Q522.418 216.849 519.27 216.849 Q515.289 216.849 512.928 214.627 Q510.59 212.381 510.59 208.631 Q510.59 204.256 513.506 202.034 Q516.446 199.812 522.256 199.812 L528.229 199.812 L528.229 199.395 Q528.229 196.455 526.284 194.858 Q524.363 193.238 520.868 193.238 Q518.645 193.238 516.539 193.77 Q514.432 194.303 512.488 195.367 L512.488 191.432 Q514.826 190.53 517.025 190.09 Q519.224 189.627 521.307 189.627 Q526.932 189.627 529.71 192.543 Q532.488 195.46 532.488 201.386 Z" fill="#000000" fill-rule="nonzero" fill-opacity="1" /><path clip-path="url(#clip260)" d="M541.261 180.159 L545.52 180.159 L545.52 216.178 L541.261 216.178 L541.261 180.159 Z" fill="#000000" fill-rule="nonzero" fill-opacity="1" /><path clip-path="url(#clip260)" d="M565.219 218.585 Q563.414 223.215 561.701 224.627 Q559.988 226.039 557.117 226.039 L553.715 226.039 L553.715 222.474 L556.215 222.474 Q557.974 222.474 558.946 221.64 Q559.918 220.807 561.099 217.705 L561.863 215.761 L551.377 190.252 L555.891 190.252 L563.992 210.529 L572.094 190.252 L576.608 190.252 L565.219 218.585 Z" fill="#000000" fill-rule="nonzero" fill-opacity="1" /><path clip-path="url(#clip260)" d="M586.701 182.891 L586.701 190.252 L595.474 190.252 L595.474 193.562 L586.701 193.562 L586.701 207.636 Q586.701 210.807 587.557 211.71 Q588.437 212.613 591.099 212.613 L595.474 212.613 L595.474 216.178 L591.099 216.178 Q586.168 216.178 584.293 214.349 Q582.418 212.497 582.418 207.636 L582.418 193.562 L579.293 193.562 L579.293 190.252 L582.418 190.252 L582.418 182.891 L586.701 182.891 Z" fill="#000000" fill-rule="nonzero" fill-opacity="1" /><path clip-path="url(#clip260)" d="M601.075 190.252 L605.335 190.252 L605.335 216.178 L601.075 216.178 L601.075 190.252 M601.075 180.159 L605.335 180.159 L605.335 185.553 L601.075 185.553 L601.075 180.159 Z" fill="#000000" fill-rule="nonzero" fill-opacity="1" /><path clip-path="url(#clip260)" d="M632.904 191.247 L632.904 195.229 Q631.098 194.233 629.27 193.747 Q627.464 193.238 625.612 193.238 Q621.469 193.238 619.177 195.877 Q616.886 198.492 616.886 203.238 Q616.886 207.983 619.177 210.622 Q621.469 213.238 625.612 213.238 Q627.464 213.238 629.27 212.752 Q631.098 212.242 632.904 211.247 L632.904 215.182 Q631.122 216.016 629.2 216.432 Q627.302 216.849 625.149 216.849 Q619.293 216.849 615.844 213.168 Q612.395 209.488 612.395 203.238 Q612.395 196.895 615.867 193.261 Q619.362 189.627 625.427 189.627 Q627.395 189.627 629.27 190.043 Q631.145 190.437 632.904 191.247 Z" fill="#000000" fill-rule="nonzero" fill-opacity="1" /><path clip-path="url(#clip260)" d="M652.094 203.145 Q646.932 203.145 644.941 204.326 Q642.95 205.506 642.95 208.354 Q642.95 210.622 644.432 211.965 Q645.936 213.284 648.506 213.284 Q652.047 213.284 654.177 210.784 Q656.33 208.261 656.33 204.094 L656.33 203.145 L652.094 203.145 M660.589 201.386 L660.589 216.178 L656.33 216.178 L656.33 212.242 Q654.871 214.603 652.696 215.738 Q650.52 216.849 647.372 216.849 Q643.39 216.849 641.029 214.627 Q638.691 212.381 638.691 208.631 Q638.691 204.256 641.608 202.034 Q644.547 199.812 650.358 199.812 L656.33 199.812 L656.33 199.395 Q656.33 196.455 654.385 194.858 Q652.464 193.238 648.969 193.238 Q646.747 193.238 644.64 193.77 Q642.534 194.303 640.589 195.367 L640.589 191.432 Q642.927 190.53 645.126 190.09 Q647.325 189.627 649.409 189.627 Q655.034 189.627 657.811 192.543 Q660.589 195.46 660.589 201.386 Z" fill="#000000" fill-rule="nonzero" fill-opacity="1" /><path clip-path="url(#clip260)" d="M669.362 180.159 L673.621 180.159 L673.621 216.178 L669.362 216.178 L669.362 180.159 Z" fill="#000000" fill-rule="nonzero" fill-opacity="1" /></svg>