<?xml version="1.0" encoding="utf-8"?>
<svg xmlns="http://www.w3.org/2000/svg" xmlns:xlink="http://www.w3.org/1999/xlink" width="800" height="400" viewBox="0 0 3200 1600">
<defs>
  <clipPath id="clip830">
    <rect x="0" y="0" width="3200" height="1600"/>
  </clipPath>
</defs>
<path clip-path="url(#clip830)" d="M0 1600 L3200 1600 L3200 0 L0 0  Z" fill="#ffffff" fill-rule="evenodd" fill-opacity="1"/>
<defs>
  <clipPath id="clip831">
    <rect x="640" y="0" width="2241" height="1600"/>
  </clipPath>
</defs>
<path clip-path="url(#clip830)" d="M163.765 1495.09 L1552.76 1495.09 L1552.76 47.2441 L163.765 47.2441  Z" fill="#ffffff" fill-rule="evenodd" fill-opacity="1"/>
<defs>
  <clipPath id="clip832">
    <rect x="163" y="47" width="1390" height="1449"/>
  </clipPath>
</defs>
<polyline clip-path="url(#clip832)" style="stroke:#000000; stroke-linecap:round; stroke-linejoin:round; stroke-width:2; stroke-opacity:0.1; fill:none" points="377.792,1495.09 377.792,47.2441 "/>
<polyline clip-path="url(#clip832)" style="stroke:#000000; stroke-linecap:round; stroke-linejoin:round; stroke-width:2; stroke-opacity:0.1; fill:none" points="639.866,1495.09 639.866,47.2441 "/>
<polyline clip-path="url(#clip832)" style="stroke:#000000; stroke-linecap:round; stroke-linejoin:round; stroke-width:2; stroke-opacity:0.1; fill:none" points="901.939,1495.09 901.939,47.2441 "/>
<polyline clip-path="url(#clip832)" style="stroke:#000000; stroke-linecap:round; stroke-linejoin:round; stroke-width:2; stroke-opacity:0.1; fill:none" points="1164.01,1495.09 1164.01,47.2441 "/>
<polyline clip-path="url(#clip832)" style="stroke:#000000; stroke-linecap:round; stroke-linejoin:round; stroke-width:2; stroke-opacity:0.1; fill:none" points="1426.09,1495.09 1426.09,47.2441 "/>
<polyline clip-path="url(#clip830)" style="stroke:#000000; stroke-linecap:round; stroke-linejoin:round; stroke-width:4; stroke-opacity:1; fill:none" points="163.765,1495.09 1552.76,1495.09 "/>
<polyline clip-path="url(#clip830)" style="stroke:#000000; stroke-linecap:round; stroke-linejoin:round; stroke-width:4; stroke-opacity:1; fill:none" points="377.792,1495.09 377.792,1476.19 "/>
<polyline clip-path="url(#clip830)" style="stroke:#000000; stroke-linecap:round; stroke-linejoin:round; stroke-width:4; stroke-opacity:1; fill:none" points="639.866,1495.09 639.866,1476.19 "/>
<polyline clip-path="url(#clip830)" style="stroke:#000000; stroke-linecap:round; stroke-linejoin:round; stroke-width:4; stroke-opacity:1; fill:none" points="901.939,1495.09 901.939,1476.19 "/>
<polyline clip-path="url(#clip830)" style="stroke:#000000; stroke-linecap:round; stroke-linejoin:round; stroke-width:4; stroke-opacity:1; fill:none" points="1164.01,1495.09 1164.01,1476.19 "/>
<polyline clip-path="url(#clip830)" style="stroke:#000000; stroke-linecap:round; stroke-linejoin:round; stroke-width:4; stroke-opacity:1; fill:none" points="1426.09,1495.09 1426.09,1476.19 "/>
<path clip-path="url(#clip830)" d="M382.039 1545.25 Q385.396 1545.97 387.271 1548.24 Q389.169 1550.51 389.169 1553.84 Q389.169 1558.96 385.651 1561.76 Q382.132 1564.56 375.651 1564.56 Q373.475 1564.56 371.16 1564.12 Q368.868 1563.7 366.415 1562.85 L366.415 1558.33 Q368.359 1559.47 370.674 1560.05 Q372.989 1560.62 375.512 1560.62 Q379.91 1560.62 382.202 1558.89 Q384.516 1557.15 384.516 1553.84 Q384.516 1550.79 382.364 1549.07 Q380.234 1547.34 376.415 1547.34 L372.387 1547.34 L372.387 1543.49 L376.6 1543.49 Q380.049 1543.49 381.877 1542.13 Q383.706 1540.74 383.706 1538.15 Q383.706 1535.49 381.808 1534.07 Q379.933 1532.64 376.415 1532.64 Q374.493 1532.64 372.294 1533.05 Q370.095 1533.47 367.456 1534.35 L367.456 1530.18 Q370.118 1529.44 372.433 1529.07 Q374.771 1528.7 376.831 1528.7 Q382.155 1528.7 385.257 1531.13 Q388.359 1533.54 388.359 1537.66 Q388.359 1540.53 386.715 1542.52 Q385.072 1544.49 382.039 1545.25 Z" fill="#000000" fill-rule="nonzero" fill-opacity="1" /><path clip-path="url(#clip830)" d="M640.271 1544.74 Q637.123 1544.74 635.271 1546.9 Q633.442 1549.05 633.442 1552.8 Q633.442 1556.53 635.271 1558.7 Q637.123 1560.86 640.271 1560.86 Q643.419 1560.86 645.248 1558.7 Q647.099 1556.53 647.099 1552.8 Q647.099 1549.05 645.248 1546.9 Q643.419 1544.74 640.271 1544.74 M649.553 1530.09 L649.553 1534.35 Q647.794 1533.52 645.988 1533.08 Q644.206 1532.64 642.447 1532.64 Q637.817 1532.64 635.363 1535.76 Q632.933 1538.89 632.586 1545.21 Q633.951 1543.19 636.011 1542.13 Q638.072 1541.04 640.548 1541.04 Q645.757 1541.04 648.766 1544.21 Q651.798 1547.36 651.798 1552.8 Q651.798 1558.12 648.65 1561.34 Q645.502 1564.56 640.271 1564.56 Q634.275 1564.56 631.104 1559.98 Q627.933 1555.37 627.933 1546.64 Q627.933 1538.45 631.822 1533.59 Q635.711 1528.7 642.261 1528.7 Q644.021 1528.7 645.803 1529.05 Q647.609 1529.4 649.553 1530.09 Z" fill="#000000" fill-rule="nonzero" fill-opacity="1" /><path clip-path="url(#clip830)" d="M892.24 1563.17 L892.24 1558.91 Q894 1559.74 895.805 1560.18 Q897.611 1560.62 899.347 1560.62 Q903.976 1560.62 906.407 1557.52 Q908.861 1554.4 909.208 1548.05 Q907.865 1550.05 905.805 1551.11 Q903.745 1552.17 901.245 1552.17 Q896.06 1552.17 893.027 1549.05 Q890.018 1545.9 890.018 1540.46 Q890.018 1535.14 893.166 1531.92 Q896.314 1528.7 901.546 1528.7 Q907.541 1528.7 910.689 1533.31 Q913.861 1537.89 913.861 1546.64 Q913.861 1554.81 909.972 1559.7 Q906.106 1564.56 899.555 1564.56 Q897.796 1564.56 895.99 1564.21 Q894.185 1563.86 892.24 1563.17 M901.546 1548.52 Q904.694 1548.52 906.523 1546.36 Q908.375 1544.21 908.375 1540.46 Q908.375 1536.74 906.523 1534.58 Q904.694 1532.41 901.546 1532.41 Q898.398 1532.41 896.546 1534.58 Q894.717 1536.74 894.717 1540.46 Q894.717 1544.21 896.546 1546.36 Q898.398 1548.52 901.546 1548.52 Z" fill="#000000" fill-rule="nonzero" fill-opacity="1" /><path clip-path="url(#clip830)" d="M1139.5 1559.95 L1147.14 1559.95 L1147.14 1533.59 L1138.83 1535.25 L1138.83 1530.99 L1147.09 1529.33 L1151.77 1529.33 L1151.77 1559.95 L1159.41 1559.95 L1159.41 1563.89 L1139.5 1563.89 L1139.5 1559.95 Z" fill="#000000" fill-rule="nonzero" fill-opacity="1" /><path clip-path="url(#clip830)" d="M1172.88 1559.95 L1189.2 1559.95 L1189.2 1563.89 L1167.25 1563.89 L1167.25 1559.95 Q1169.92 1557.2 1174.5 1552.57 Q1179.11 1547.92 1180.29 1546.57 Q1182.53 1544.05 1183.41 1542.31 Q1184.31 1540.55 1184.31 1538.86 Q1184.31 1536.11 1182.37 1534.37 Q1180.45 1532.64 1177.35 1532.64 Q1175.15 1532.64 1172.69 1533.4 Q1170.26 1534.17 1167.49 1535.72 L1167.49 1530.99 Q1170.31 1529.86 1172.76 1529.28 Q1175.22 1528.7 1177.25 1528.7 Q1182.62 1528.7 1185.82 1531.39 Q1189.01 1534.07 1189.01 1538.56 Q1189.01 1540.69 1188.2 1542.61 Q1187.42 1544.51 1185.31 1547.11 Q1184.73 1547.78 1181.63 1550.99 Q1178.53 1554.19 1172.88 1559.95 Z" fill="#000000" fill-rule="nonzero" fill-opacity="1" /><path clip-path="url(#clip830)" d="M1401.27 1559.95 L1408.91 1559.95 L1408.91 1533.59 L1400.6 1535.25 L1400.6 1530.99 L1408.86 1529.33 L1413.54 1529.33 L1413.54 1559.95 L1421.18 1559.95 L1421.18 1563.89 L1401.27 1563.89 L1401.27 1559.95 Z" fill="#000000" fill-rule="nonzero" fill-opacity="1" /><path clip-path="url(#clip830)" d="M1430.67 1529.33 L1449.03 1529.33 L1449.03 1533.26 L1434.95 1533.26 L1434.95 1541.74 Q1435.97 1541.39 1436.99 1541.23 Q1438.01 1541.04 1439.03 1541.04 Q1444.81 1541.04 1448.19 1544.21 Q1451.57 1547.38 1451.57 1552.8 Q1451.57 1558.38 1448.1 1561.48 Q1444.63 1564.56 1438.31 1564.56 Q1436.13 1564.56 1433.86 1564.19 Q1431.62 1563.82 1429.21 1563.08 L1429.21 1558.38 Q1431.3 1559.51 1433.52 1560.07 Q1435.74 1560.62 1438.22 1560.62 Q1442.22 1560.62 1444.56 1558.52 Q1446.9 1556.41 1446.9 1552.8 Q1446.9 1549.19 1444.56 1547.08 Q1442.22 1544.98 1438.22 1544.98 Q1436.34 1544.98 1434.47 1545.39 Q1432.61 1545.81 1430.67 1546.69 L1430.67 1529.33 Z" fill="#000000" fill-rule="nonzero" fill-opacity="1" /><polyline clip-path="url(#clip832)" style="stroke:#000000; stroke-linecap:round; stroke-linejoin:round; stroke-width:2; stroke-opacity:0.1; fill:none" points="163.765,1301.39 1552.76,1301.39 "/>
<polyline clip-path="url(#clip832)" style="stroke:#000000; stroke-linecap:round; stroke-linejoin:round; stroke-width:2; stroke-opacity:0.1; fill:none" points="163.765,954.29 1552.76,954.29 "/>
<polyline clip-path="url(#clip832)" style="stroke:#000000; stroke-linecap:round; stroke-linejoin:round; stroke-width:2; stroke-opacity:0.1; fill:none" points="163.765,607.192 1552.76,607.192 "/>
<polyline clip-path="url(#clip832)" style="stroke:#000000; stroke-linecap:round; stroke-linejoin:round; stroke-width:2; stroke-opacity:0.1; fill:none" points="163.765,260.094 1552.76,260.094 "/>
<polyline clip-path="url(#clip830)" style="stroke:#000000; stroke-linecap:round; stroke-linejoin:round; stroke-width:4; stroke-opacity:1; fill:none" points="163.765,1495.09 163.765,47.2441 "/>
<polyline clip-path="url(#clip830)" style="stroke:#000000; stroke-linecap:round; stroke-linejoin:round; stroke-width:4; stroke-opacity:1; fill:none" points="163.765,1301.39 182.663,1301.39 "/>
<polyline clip-path="url(#clip830)" style="stroke:#000000; stroke-linecap:round; stroke-linejoin:round; stroke-width:4; stroke-opacity:1; fill:none" points="163.765,954.29 182.663,954.29 "/>
<polyline clip-path="url(#clip830)" style="stroke:#000000; stroke-linecap:round; stroke-linejoin:round; stroke-width:4; stroke-opacity:1; fill:none" points="163.765,607.192 182.663,607.192 "/>
<polyline clip-path="url(#clip830)" style="stroke:#000000; stroke-linecap:round; stroke-linejoin:round; stroke-width:4; stroke-opacity:1; fill:none" points="163.765,260.094 182.663,260.094 "/>
<path clip-path="url(#clip830)" d="M59.5847 1287.19 Q55.9736 1287.19 54.1449 1290.75 Q52.3393 1294.29 52.3393 1301.42 Q52.3393 1308.53 54.1449 1312.09 Q55.9736 1315.64 59.5847 1315.64 Q63.2189 1315.64 65.0244 1312.09 Q66.8531 1308.53 66.8531 1301.42 Q66.8531 1294.29 65.0244 1290.75 Q63.2189 1287.19 59.5847 1287.19 M59.5847 1283.48 Q65.3948 1283.48 68.4503 1288.09 Q71.529 1292.67 71.529 1301.42 Q71.529 1310.15 68.4503 1314.76 Q65.3948 1319.34 59.5847 1319.34 Q53.7745 1319.34 50.6958 1314.76 Q47.6403 1310.15 47.6403 1301.42 Q47.6403 1292.67 50.6958 1288.09 Q53.7745 1283.48 59.5847 1283.48 Z" fill="#000000" fill-rule="nonzero" fill-opacity="1" /><path clip-path="url(#clip830)" d="M79.7466 1312.79 L84.6308 1312.79 L84.6308 1318.67 L79.7466 1318.67 L79.7466 1312.79 Z" fill="#000000" fill-rule="nonzero" fill-opacity="1" /><path clip-path="url(#clip830)" d="M94.8622 1284.11 L113.219 1284.11 L113.219 1288.04 L99.1446 1288.04 L99.1446 1296.52 Q100.163 1296.17 101.182 1296.01 Q102.2 1295.82 103.219 1295.82 Q109.006 1295.82 112.385 1298.99 Q115.765 1302.16 115.765 1307.58 Q115.765 1313.16 112.293 1316.26 Q108.82 1319.34 102.501 1319.34 Q100.325 1319.34 98.0567 1318.97 Q95.8113 1318.6 93.4039 1317.86 L93.4039 1313.16 Q95.4872 1314.29 97.7094 1314.85 Q99.9317 1315.4 102.408 1315.4 Q106.413 1315.4 108.751 1313.3 Q111.089 1311.19 111.089 1307.58 Q111.089 1303.97 108.751 1301.86 Q106.413 1299.76 102.408 1299.76 Q100.534 1299.76 98.6585 1300.17 Q96.8067 1300.59 94.8622 1301.47 L94.8622 1284.11 Z" fill="#000000" fill-rule="nonzero" fill-opacity="1" /><path clip-path="url(#clip830)" d="M49.3995 967.635 L57.0384 967.635 L57.0384 941.269 L48.7282 942.936 L48.7282 938.677 L56.9921 937.01 L61.668 937.01 L61.668 967.635 L69.3068 967.635 L69.3068 971.57 L49.3995 971.57 L49.3995 967.635 Z" fill="#000000" fill-rule="nonzero" fill-opacity="1" /><path clip-path="url(#clip830)" d="M78.7512 965.691 L83.6354 965.691 L83.6354 971.57 L78.7512 971.57 L78.7512 965.691 Z" fill="#000000" fill-rule="nonzero" fill-opacity="1" /><path clip-path="url(#clip830)" d="M103.821 940.089 Q100.209 940.089 98.3807 943.654 Q96.5752 947.195 96.5752 954.325 Q96.5752 961.431 98.3807 964.996 Q100.209 968.538 103.821 968.538 Q107.455 968.538 109.26 964.996 Q111.089 961.431 111.089 954.325 Q111.089 947.195 109.26 943.654 Q107.455 940.089 103.821 940.089 M103.821 936.385 Q109.631 936.385 112.686 940.992 Q115.765 945.575 115.765 954.325 Q115.765 963.052 112.686 967.658 Q109.631 972.242 103.821 972.242 Q98.0104 972.242 94.9317 967.658 Q91.8761 963.052 91.8761 954.325 Q91.8761 945.575 94.9317 940.992 Q98.0104 936.385 103.821 936.385 Z" fill="#000000" fill-rule="nonzero" fill-opacity="1" /><path clip-path="url(#clip830)" d="M50.3949 620.537 L58.0337 620.537 L58.0337 594.172 L49.7236 595.838 L49.7236 591.579 L57.9874 589.912 L62.6633 589.912 L62.6633 620.537 L70.3022 620.537 L70.3022 624.472 L50.3949 624.472 L50.3949 620.537 Z" fill="#000000" fill-rule="nonzero" fill-opacity="1" /><path clip-path="url(#clip830)" d="M79.7466 618.593 L84.6308 618.593 L84.6308 624.472 L79.7466 624.472 L79.7466 618.593 Z" fill="#000000" fill-rule="nonzero" fill-opacity="1" /><path clip-path="url(#clip830)" d="M94.8622 589.912 L113.219 589.912 L113.219 593.847 L99.1446 593.847 L99.1446 602.32 Q100.163 601.972 101.182 601.81 Q102.2 601.625 103.219 601.625 Q109.006 601.625 112.385 604.797 Q115.765 607.968 115.765 613.384 Q115.765 618.963 112.293 622.065 Q108.82 625.144 102.501 625.144 Q100.325 625.144 98.0567 624.773 Q95.8113 624.403 93.4039 623.662 L93.4039 618.963 Q95.4872 620.097 97.7094 620.653 Q99.9317 621.208 102.408 621.208 Q106.413 621.208 108.751 619.102 Q111.089 616.996 111.089 613.384 Q111.089 609.773 108.751 607.667 Q106.413 605.56 102.408 605.56 Q100.534 605.56 98.6585 605.977 Q96.8067 606.394 94.8622 607.273 L94.8622 589.912 Z" fill="#000000" fill-rule="nonzero" fill-opacity="1" /><path clip-path="url(#clip830)" d="M52.6171 273.439 L68.9365 273.439 L68.9365 277.374 L46.9921 277.374 L46.9921 273.439 Q49.6541 270.685 54.2375 266.055 Q58.8439 261.402 60.0245 260.06 Q62.2698 257.537 63.1494 255.8 Q64.0522 254.041 64.0522 252.351 Q64.0522 249.597 62.1078 247.861 Q60.1865 246.125 57.0847 246.125 Q54.8856 246.125 52.4319 246.889 Q50.0014 247.652 47.2236 249.203 L47.2236 244.481 Q50.0477 243.347 52.5014 242.768 Q54.955 242.189 56.9921 242.189 Q62.3624 242.189 65.5568 244.875 Q68.7513 247.56 68.7513 252.051 Q68.7513 254.18 67.9411 256.101 Q67.1541 258 65.0476 260.592 Q64.4689 261.263 61.367 264.481 Q58.2652 267.675 52.6171 273.439 Z" fill="#000000" fill-rule="nonzero" fill-opacity="1" /><path clip-path="url(#clip830)" d="M78.7512 271.495 L83.6354 271.495 L83.6354 277.374 L78.7512 277.374 L78.7512 271.495 Z" fill="#000000" fill-rule="nonzero" fill-opacity="1" /><path clip-path="url(#clip830)" d="M103.821 245.893 Q100.209 245.893 98.3807 249.458 Q96.5752 253 96.5752 260.129 Q96.5752 267.236 98.3807 270.8 Q100.209 274.342 103.821 274.342 Q107.455 274.342 109.26 270.8 Q111.089 267.236 111.089 260.129 Q111.089 253 109.26 249.458 Q107.455 245.893 103.821 245.893 M103.821 242.189 Q109.631 242.189 112.686 246.796 Q115.765 251.379 115.765 260.129 Q115.765 268.856 112.686 273.462 Q109.631 278.046 103.821 278.046 Q98.0104 278.046 94.9317 273.462 Q91.8761 268.856 91.8761 260.129 Q91.8761 251.379 94.9317 246.796 Q98.0104 242.189 103.821 242.189 Z" fill="#000000" fill-rule="nonzero" fill-opacity="1" /><polyline clip-path="url(#clip832)" style="stroke:#009af9; stroke-linecap:round; stroke-linejoin:round; stroke-width:4; stroke-opacity:1; fill:none" points="203.076,1454.11 290.434,1331 377.792,1224.8 465.15,1129.29 552.508,1040.91 639.866,957.238 727.224,876.259 814.581,796.017 901.939,714.309 989.297,628.311 1076.66,533.927 1164.01,424.393 1251.37,286.605 1338.73,88.2208 "/>
<path clip-path="url(#clip830)" d="M1763.76 1495.09 L3152.76 1495.09 L3152.76 47.2441 L1763.76 47.2441  Z" fill="#ffffff" fill-rule="evenodd" fill-opacity="1"/>
<defs>
  <clipPath id="clip833">
    <rect x="1763" y="47" width="1390" height="1449"/>
  </clipPath>
</defs>
<polyline clip-path="url(#clip833)" style="stroke:#000000; stroke-linecap:round; stroke-linejoin:round; stroke-width:2; stroke-opacity:0.1; fill:none" points="1977.79,1495.09 1977.79,47.2441 "/>
<polyline clip-path="url(#clip833)" style="stroke:#000000; stroke-linecap:round; stroke-linejoin:round; stroke-width:2; stroke-opacity:0.1; fill:none" points="2239.87,1495.09 2239.87,47.2441 "/>
<polyline clip-path="url(#clip833)" style="stroke:#000000; stroke-linecap:round; stroke-linejoin:round; stroke-width:2; stroke-opacity:0.1; fill:none" points="2501.94,1495.09 2501.94,47.2441 "/>
<polyline clip-path="url(#clip833)" style="stroke:#000000; stroke-linecap:round; stroke-linejoin:round; stroke-width:2; stroke-opacity:0.1; fill:none" points="2764.01,1495.09 2764.01,47.2441 "/>
<polyline clip-path="url(#clip833)" style="stroke:#000000; stroke-linecap:round; stroke-linejoin:round; stroke-width:2; stroke-opacity:0.1; fill:none" points="3026.09,1495.09 3026.09,47.2441 "/>
<polyline clip-path="url(#clip830)" style="stroke:#000000; stroke-linecap:round; stroke-linejoin:round; stroke-width:4; stroke-opacity:1; fill:none" points="1763.76,1495.09 3152.76,1495.09 "/>
<polyline clip-path="url(#clip830)" style="stroke:#000000; stroke-linecap:round; stroke-linejoin:round; stroke-width:4; stroke-opacity:1; fill:none" points="1977.79,1495.09 1977.79,1476.19 "/>
<polyline clip-path="url(#clip830)" style="stroke:#000000; stroke-linecap:round; stroke-linejoin:round; stroke-width:4; stroke-opacity:1; fill:none" points="2239.87,1495.09 2239.87,1476.19 "/>
<polyline clip-path="url(#clip830)" style="stroke:#000000; stroke-linecap:round; stroke-linejoin:round; stroke-width:4; stroke-opacity:1; fill:none" points="2501.94,1495.09 2501.94,1476.19 "/>
<polyline clip-path="url(#clip830)" style="stroke:#000000; stroke-linecap:round; stroke-linejoin:round; stroke-width:4; stroke-opacity:1; fill:none" points="2764.01,1495.09 2764.01,1476.19 "/>
<polyline clip-path="url(#clip830)" style="stroke:#000000; stroke-linecap:round; stroke-linejoin:round; stroke-width:4; stroke-opacity:1; fill:none" points="3026.09,1495.09 3026.09,1476.19 "/>
<path clip-path="url(#clip830)" d="M1982.04 1545.25 Q1985.4 1545.97 1987.27 1548.24 Q1989.17 1550.51 1989.17 1553.84 Q1989.17 1558.96 1985.65 1561.76 Q1982.13 1564.56 1975.65 1564.56 Q1973.47 1564.56 1971.16 1564.12 Q1968.87 1563.7 1966.41 1562.85 L1966.41 1558.33 Q1968.36 1559.47 1970.67 1560.05 Q1972.99 1560.62 1975.51 1560.62 Q1979.91 1560.62 1982.2 1558.89 Q1984.52 1557.15 1984.52 1553.84 Q1984.52 1550.79 1982.36 1549.07 Q1980.23 1547.34 1976.41 1547.34 L1972.39 1547.34 L1972.39 1543.49 L1976.6 1543.49 Q1980.05 1543.49 1981.88 1542.13 Q1983.71 1540.74 1983.71 1538.15 Q1983.71 1535.49 1981.81 1534.07 Q1979.93 1532.64 1976.41 1532.64 Q1974.49 1532.64 1972.29 1533.05 Q1970.1 1533.47 1967.46 1534.35 L1967.46 1530.18 Q1970.12 1529.44 1972.43 1529.07 Q1974.77 1528.7 1976.83 1528.7 Q1982.16 1528.7 1985.26 1531.13 Q1988.36 1533.54 1988.36 1537.66 Q1988.36 1540.53 1986.72 1542.52 Q1985.07 1544.49 1982.04 1545.25 Z" fill="#000000" fill-rule="nonzero" fill-opacity="1" /><path clip-path="url(#clip830)" d="M2240.27 1544.74 Q2237.12 1544.74 2235.27 1546.9 Q2233.44 1549.05 2233.44 1552.8 Q2233.44 1556.53 2235.27 1558.7 Q2237.12 1560.86 2240.27 1560.86 Q2243.42 1560.86 2245.25 1558.7 Q2247.1 1556.53 2247.1 1552.8 Q2247.1 1549.05 2245.25 1546.9 Q2243.42 1544.74 2240.27 1544.74 M2249.55 1530.09 L2249.55 1534.35 Q2247.79 1533.52 2245.99 1533.08 Q2244.21 1532.64 2242.45 1532.64 Q2237.82 1532.64 2235.36 1535.76 Q2232.93 1538.89 2232.59 1545.21 Q2233.95 1543.19 2236.01 1542.13 Q2238.07 1541.04 2240.55 1541.04 Q2245.76 1541.04 2248.77 1544.21 Q2251.8 1547.36 2251.8 1552.8 Q2251.8 1558.12 2248.65 1561.34 Q2245.5 1564.56 2240.27 1564.56 Q2234.28 1564.56 2231.1 1559.98 Q2227.93 1555.37 2227.93 1546.64 Q2227.93 1538.45 2231.82 1533.59 Q2235.71 1528.7 2242.26 1528.7 Q2244.02 1528.7 2245.8 1529.05 Q2247.61 1529.4 2249.55 1530.09 Z" fill="#000000" fill-rule="nonzero" fill-opacity="1" /><path clip-path="url(#clip830)" d="M2492.24 1563.17 L2492.24 1558.91 Q2494 1559.74 2495.81 1560.18 Q2497.61 1560.62 2499.35 1560.62 Q2503.98 1560.62 2506.41 1557.52 Q2508.86 1554.4 2509.21 1548.05 Q2507.87 1550.05 2505.81 1551.11 Q2503.74 1552.17 2501.24 1552.17 Q2496.06 1552.17 2493.03 1549.05 Q2490.02 1545.9 2490.02 1540.46 Q2490.02 1535.14 2493.17 1531.92 Q2496.31 1528.7 2501.55 1528.7 Q2507.54 1528.7 2510.69 1533.31 Q2513.86 1537.89 2513.86 1546.64 Q2513.86 1554.81 2509.97 1559.7 Q2506.11 1564.56 2499.56 1564.56 Q2497.8 1564.56 2495.99 1564.21 Q2494.18 1563.86 2492.24 1563.17 M2501.55 1548.52 Q2504.69 1548.52 2506.52 1546.36 Q2508.37 1544.21 2508.37 1540.46 Q2508.37 1536.74 2506.52 1534.58 Q2504.69 1532.41 2501.55 1532.41 Q2498.4 1532.41 2496.55 1534.58 Q2494.72 1536.74 2494.72 1540.46 Q2494.72 1544.21 2496.55 1546.36 Q2498.4 1548.52 2501.55 1548.52 Z" fill="#000000" fill-rule="nonzero" fill-opacity="1" /><path clip-path="url(#clip830)" d="M2739.5 1559.95 L2747.14 1559.95 L2747.14 1533.59 L2738.83 1535.25 L2738.83 1530.99 L2747.09 1529.33 L2751.77 1529.33 L2751.77 1559.95 L2759.41 1559.95 L2759.41 1563.89 L2739.5 1563.89 L2739.5 1559.95 Z" fill="#000000" fill-rule="nonzero" fill-opacity="1" /><path clip-path="url(#clip830)" d="M2772.88 1559.95 L2789.2 1559.95 L2789.2 1563.89 L2767.25 1563.89 L2767.25 1559.95 Q2769.92 1557.2 2774.5 1552.57 Q2779.11 1547.92 2780.29 1546.57 Q2782.53 1544.05 2783.41 1542.31 Q2784.31 1540.55 2784.31 1538.86 Q2784.31 1536.11 2782.37 1534.37 Q2780.45 1532.64 2777.35 1532.64 Q2775.15 1532.64 2772.69 1533.4 Q2770.26 1534.17 2767.49 1535.72 L2767.49 1530.99 Q2770.31 1529.86 2772.76 1529.28 Q2775.22 1528.7 2777.25 1528.7 Q2782.62 1528.7 2785.82 1531.39 Q2789.01 1534.07 2789.01 1538.56 Q2789.01 1540.69 2788.2 1542.61 Q2787.42 1544.51 2785.31 1547.11 Q2784.73 1547.78 2781.63 1550.99 Q2778.53 1554.19 2772.88 1559.95 Z" fill="#000000" fill-rule="nonzero" fill-opacity="1" /><path clip-path="url(#clip830)" d="M3001.27 1559.95 L3008.91 1559.95 L3008.91 1533.59 L3000.6 1535.25 L3000.6 1530.99 L3008.86 1529.33 L3013.54 1529.33 L3013.54 1559.95 L3021.18 1559.95 L3021.18 1563.89 L3001.27 1563.89 L3001.27 1559.95 Z" fill="#000000" fill-rule="nonzero" fill-opacity="1" /><path clip-path="url(#clip830)" d="M3030.67 1529.33 L3049.03 1529.33 L3049.03 1533.26 L3034.95 1533.26 L3034.95 1541.74 Q3035.97 1541.39 3036.99 1541.23 Q3038.01 1541.04 3039.03 1541.04 Q3044.81 1541.04 3048.19 1544.21 Q3051.57 1547.38 3051.57 1552.8 Q3051.57 1558.38 3048.1 1561.48 Q3044.63 1564.56 3038.31 1564.56 Q3036.13 1564.56 3033.86 1564.19 Q3031.62 1563.82 3029.21 1563.08 L3029.21 1558.38 Q3031.3 1559.51 3033.52 1560.07 Q3035.74 1560.62 3038.22 1560.62 Q3042.22 1560.62 3044.56 1558.52 Q3046.9 1556.41 3046.9 1552.8 Q3046.9 1549.19 3044.56 1547.08 Q3042.22 1544.98 3038.22 1544.98 Q3036.34 1544.98 3034.47 1545.39 Q3032.61 1545.81 3030.67 1546.69 L3030.67 1529.33 Z" fill="#000000" fill-rule="nonzero" fill-opacity="1" /><polyline clip-path="url(#clip833)" style="stroke:#000000; stroke-linecap:round; stroke-linejoin:round; stroke-width:2; stroke-opacity:0.1; fill:none" points="1763.76,1340.39 3152.76,1340.39 "/>
<polyline clip-path="url(#clip833)" style="stroke:#000000; stroke-linecap:round; stroke-linejoin:round; stroke-width:2; stroke-opacity:0.1; fill:none" points="1763.76,1056.1 3152.76,1056.1 "/>
<polyline clip-path="url(#clip833)" style="stroke:#000000; stroke-linecap:round; stroke-linejoin:round; stroke-width:2; stroke-opacity:0.1; fill:none" points="1763.76,771.81 3152.76,771.81 "/>
<polyline clip-path="url(#clip833)" style="stroke:#000000; stroke-linecap:round; stroke-linejoin:round; stroke-width:2; stroke-opacity:0.1; fill:none" points="1763.76,487.518 3152.76,487.518 "/>
<polyline clip-path="url(#clip833)" style="stroke:#000000; stroke-linecap:round; stroke-linejoin:round; stroke-width:2; stroke-opacity:0.1; fill:none" points="1763.76,203.226 3152.76,203.226 "/>
<polyline clip-path="url(#clip830)" style="stroke:#000000; stroke-linecap:round; stroke-linejoin:round; stroke-width:4; stroke-opacity:1; fill:none" points="1763.76,1495.09 1763.76,47.2441 "/>
<polyline clip-path="url(#clip830)" style="stroke:#000000; stroke-linecap:round; stroke-linejoin:round; stroke-width:4; stroke-opacity:1; fill:none" points="1763.76,1340.39 1782.66,1340.39 "/>
<polyline clip-path="url(#clip830)" style="stroke:#000000; stroke-linecap:round; stroke-linejoin:round; stroke-width:4; stroke-opacity:1; fill:none" points="1763.76,1056.1 1782.66,1056.1 "/>
<polyline clip-path="url(#clip830)" style="stroke:#000000; stroke-linecap:round; stroke-linejoin:round; stroke-width:4; stroke-opacity:1; fill:none" points="1763.76,771.81 1782.66,771.81 "/>
<polyline clip-path="url(#clip830)" style="stroke:#000000; stroke-linecap:round; stroke-linejoin:round; stroke-width:4; stroke-opacity:1; fill:none" points="1763.76,487.518 1782.66,487.518 "/>
<polyline clip-path="url(#clip830)" style="stroke:#000000; stroke-linecap:round; stroke-linejoin:round; stroke-width:4; stroke-opacity:1; fill:none" points="1763.76,203.226 1782.66,203.226 "/>
<path clip-path="url(#clip830)" d="M1659.58 1326.19 Q1655.97 1326.19 1654.14 1329.76 Q1652.34 1333.3 1652.34 1340.43 Q1652.34 1347.54 1654.14 1351.1 Q1655.97 1354.64 1659.58 1354.64 Q1663.22 1354.64 1665.02 1351.1 Q1666.85 1347.54 1666.85 1340.43 Q1666.85 1333.3 1665.02 1329.76 Q1663.22 1326.19 1659.58 1326.19 M1659.58 1322.49 Q1665.39 1322.49 1668.45 1327.1 Q1671.53 1331.68 1671.53 1340.43 Q1671.53 1349.16 1668.45 1353.76 Q1665.39 1358.35 1659.58 1358.35 Q1653.77 1358.35 1650.7 1353.76 Q1647.64 1349.16 1647.64 1340.43 Q1647.64 1331.68 1650.7 1327.1 Q1653.77 1322.49 1659.58 1322.49 Z" fill="#000000" fill-rule="nonzero" fill-opacity="1" /><path clip-path="url(#clip830)" d="M1679.75 1351.79 L1684.63 1351.79 L1684.63 1357.67 L1679.75 1357.67 L1679.75 1351.79 Z" fill="#000000" fill-rule="nonzero" fill-opacity="1" /><path clip-path="url(#clip830)" d="M1694.86 1323.11 L1713.22 1323.11 L1713.22 1327.05 L1699.14 1327.05 L1699.14 1335.52 Q1700.16 1335.17 1701.18 1335.01 Q1702.2 1334.83 1703.22 1334.83 Q1709.01 1334.83 1712.39 1338 Q1715.76 1341.17 1715.76 1346.59 Q1715.76 1352.17 1712.29 1355.27 Q1708.82 1358.35 1702.5 1358.35 Q1700.33 1358.35 1698.06 1357.98 Q1695.81 1357.6 1693.4 1356.86 L1693.4 1352.17 Q1695.49 1353.3 1697.71 1353.85 Q1699.93 1354.41 1702.41 1354.41 Q1706.41 1354.41 1708.75 1352.3 Q1711.09 1350.2 1711.09 1346.59 Q1711.09 1342.98 1708.75 1340.87 Q1706.41 1338.76 1702.41 1338.76 Q1700.53 1338.76 1698.66 1339.18 Q1696.81 1339.6 1694.86 1340.48 L1694.86 1323.11 Z" fill="#000000" fill-rule="nonzero" fill-opacity="1" /><path clip-path="url(#clip830)" d="M1649.4 1069.45 L1657.04 1069.45 L1657.04 1043.08 L1648.73 1044.75 L1648.73 1040.49 L1656.99 1038.82 L1661.67 1038.82 L1661.67 1069.45 L1669.31 1069.45 L1669.31 1073.38 L1649.4 1073.38 L1649.4 1069.45 Z" fill="#000000" fill-rule="nonzero" fill-opacity="1" /><path clip-path="url(#clip830)" d="M1678.75 1067.5 L1683.64 1067.5 L1683.64 1073.38 L1678.75 1073.38 L1678.75 1067.5 Z" fill="#000000" fill-rule="nonzero" fill-opacity="1" /><path clip-path="url(#clip830)" d="M1703.82 1041.9 Q1700.21 1041.9 1698.38 1045.47 Q1696.58 1049.01 1696.58 1056.14 Q1696.58 1063.24 1698.38 1066.81 Q1700.21 1070.35 1703.82 1070.35 Q1707.45 1070.35 1709.26 1066.81 Q1711.09 1063.24 1711.09 1056.14 Q1711.09 1049.01 1709.26 1045.47 Q1707.45 1041.9 1703.82 1041.9 M1703.82 1038.2 Q1709.63 1038.2 1712.69 1042.8 Q1715.76 1047.39 1715.76 1056.14 Q1715.76 1064.86 1712.69 1069.47 Q1709.63 1074.05 1703.82 1074.05 Q1698.01 1074.05 1694.93 1069.47 Q1691.88 1064.86 1691.88 1056.14 Q1691.88 1047.39 1694.93 1042.8 Q1698.01 1038.2 1703.82 1038.2 Z" fill="#000000" fill-rule="nonzero" fill-opacity="1" /><path clip-path="url(#clip830)" d="M1650.39 785.155 L1658.03 785.155 L1658.03 758.79 L1649.72 760.456 L1649.72 756.197 L1657.99 754.53 L1662.66 754.53 L1662.66 785.155 L1670.3 785.155 L1670.3 789.09 L1650.39 789.09 L1650.39 785.155 Z" fill="#000000" fill-rule="nonzero" fill-opacity="1" /><path clip-path="url(#clip830)" d="M1679.75 783.211 L1684.63 783.211 L1684.63 789.09 L1679.75 789.09 L1679.75 783.211 Z" fill="#000000" fill-rule="nonzero" fill-opacity="1" /><path clip-path="url(#clip830)" d="M1694.86 754.53 L1713.22 754.53 L1713.22 758.466 L1699.14 758.466 L1699.14 766.938 Q1700.16 766.59 1701.18 766.428 Q1702.2 766.243 1703.22 766.243 Q1709.01 766.243 1712.39 769.415 Q1715.76 772.586 1715.76 778.002 Q1715.76 783.581 1712.29 786.683 Q1708.82 789.762 1702.5 789.762 Q1700.33 789.762 1698.06 789.391 Q1695.81 789.021 1693.4 788.28 L1693.4 783.581 Q1695.49 784.715 1697.71 785.271 Q1699.93 785.826 1702.41 785.826 Q1706.41 785.826 1708.75 783.72 Q1711.09 781.614 1711.09 778.002 Q1711.09 774.391 1708.75 772.285 Q1706.41 770.178 1702.41 770.178 Q1700.53 770.178 1698.66 770.595 Q1696.81 771.012 1694.86 771.891 L1694.86 754.53 Z" fill="#000000" fill-rule="nonzero" fill-opacity="1" /><path clip-path="url(#clip830)" d="M1652.62 500.863 L1668.94 500.863 L1668.94 504.798 L1646.99 504.798 L1646.99 500.863 Q1649.65 498.109 1654.24 493.479 Q1658.84 488.826 1660.02 487.484 Q1662.27 484.96 1663.15 483.224 Q1664.05 481.465 1664.05 479.775 Q1664.05 477.021 1662.11 475.285 Q1660.19 473.548 1657.08 473.548 Q1654.89 473.548 1652.43 474.312 Q1650 475.076 1647.22 476.627 L1647.22 471.905 Q1650.05 470.771 1652.5 470.192 Q1654.96 469.613 1656.99 469.613 Q1662.36 469.613 1665.56 472.299 Q1668.75 474.984 1668.75 479.474 Q1668.75 481.604 1667.94 483.525 Q1667.15 485.423 1665.05 488.016 Q1664.47 488.687 1661.37 491.905 Q1658.27 495.099 1652.62 500.863 Z" fill="#000000" fill-rule="nonzero" fill-opacity="1" /><path clip-path="url(#clip830)" d="M1678.75 498.919 L1683.64 498.919 L1683.64 504.798 L1678.75 504.798 L1678.75 498.919 Z" fill="#000000" fill-rule="nonzero" fill-opacity="1" /><path clip-path="url(#clip830)" d="M1703.82 473.317 Q1700.21 473.317 1698.38 476.882 Q1696.58 480.423 1696.58 487.553 Q1696.58 494.659 1698.38 498.224 Q1700.21 501.766 1703.82 501.766 Q1707.45 501.766 1709.26 498.224 Q1711.09 494.659 1711.09 487.553 Q1711.09 480.423 1709.26 476.882 Q1707.45 473.317 1703.82 473.317 M1703.82 469.613 Q1709.63 469.613 1712.69 474.22 Q1715.76 478.803 1715.76 487.553 Q1715.76 496.28 1712.69 500.886 Q1709.63 505.47 1703.82 505.47 Q1698.01 505.47 1694.93 500.886 Q1691.88 496.28 1691.88 487.553 Q1691.88 478.803 1694.93 474.22 Q1698.01 469.613 1703.82 469.613 Z" fill="#000000" fill-rule="nonzero" fill-opacity="1" /><path clip-path="url(#clip830)" d="M1653.61 216.571 L1669.93 216.571 L1669.93 220.506 L1647.99 220.506 L1647.99 216.571 Q1650.65 213.817 1655.23 209.187 Q1659.84 204.534 1661.02 203.192 Q1663.27 200.668 1664.14 198.932 Q1665.05 197.173 1665.05 195.483 Q1665.05 192.729 1663.1 190.993 Q1661.18 189.256 1658.08 189.256 Q1655.88 189.256 1653.43 190.02 Q1651 190.784 1648.22 192.335 L1648.22 187.613 Q1651.04 186.479 1653.5 185.9 Q1655.95 185.321 1657.99 185.321 Q1663.36 185.321 1666.55 188.006 Q1669.75 190.692 1669.75 195.182 Q1669.75 197.312 1668.94 199.233 Q1668.15 201.131 1666.04 203.724 Q1665.46 204.395 1662.36 207.613 Q1659.26 210.807 1653.61 216.571 Z" fill="#000000" fill-rule="nonzero" fill-opacity="1" /><path clip-path="url(#clip830)" d="M1679.75 214.627 L1684.63 214.627 L1684.63 220.506 L1679.75 220.506 L1679.75 214.627 Z" fill="#000000" fill-rule="nonzero" fill-opacity="1" /><path clip-path="url(#clip830)" d="M1694.86 185.946 L1713.22 185.946 L1713.22 189.881 L1699.14 189.881 L1699.14 198.354 Q1700.16 198.006 1701.18 197.844 Q1702.2 197.659 1703.22 197.659 Q1709.01 197.659 1712.39 200.831 Q1715.76 204.002 1715.76 209.418 Q1715.76 214.997 1712.29 218.099 Q1708.82 221.178 1702.5 221.178 Q1700.33 221.178 1698.06 220.807 Q1695.81 220.437 1693.4 219.696 L1693.4 214.997 Q1695.49 216.131 1697.71 216.687 Q1699.93 217.242 1702.41 217.242 Q1706.41 217.242 1708.75 215.136 Q1711.09 213.03 1711.09 209.418 Q1711.09 205.807 1708.75 203.701 Q1706.41 201.594 1702.41 201.594 Q1700.53 201.594 1698.66 202.011 Q1696.81 202.428 1694.86 203.307 L1694.86 185.946 Z" fill="#000000" fill-rule="nonzero" fill-opacity="1" /><polyline clip-path="url(#clip833)" style="stroke:#009af9; stroke-linecap:round; stroke-linejoin:round; stroke-width:4; stroke-opacity:1; fill:none" points="1803.08,1454.11 1890.43,1234.57 1977.79,1000.29 2065.15,773.369 2152.51,566.054 2239.87,386.827 2327.22,242.743 2414.58,140.668 2501.94,88.2208 2589.3,94.7506 2676.66,172.695 2764.01,339.871 2851.37,624.069 2938.73,1074.36 "/>
</svg>