<?xml version="1.0" encoding="utf-8"?>
<svg xmlns="http://www.w3.org/2000/svg" xmlns:xlink="http://www.w3.org/1999/xlink" width="600" height="400" viewBox="0 0 2400 1600">
<defs>
  <clipPath id="clip280">
    <rect x="0" y="0" width="2400" height="1600"/>
  </clipPath>
</defs>
<path clip-path="url(#clip280)" d="M0 1600 L2400 1600 L2400 0 L0 0  Z" fill="#ffffff" fill-rule="evenodd" fill-opacity="1"/>
<defs>
  <clipPath id="clip281">
    <rect x="480" y="0" width="1681" height="1600"/>
  </clipPath>
</defs>
<path clip-path="url(#clip280)" d="M184.191 1486.45 L2352.76 1486.45 L2352.76 47.2441 L184.191 47.2441  Z" fill="#ffffff" fill-rule="evenodd" fill-opacity="1"/>
<defs>
  <clipPath id="clip282">
    <rect x="184" y="47" width="2170" height="1440"/>
  </clipPath>
</defs>
<polyline clip-path="url(#clip282)" style="stroke:#000000; stroke-linecap:round; stroke-linejoin:round; stroke-width:2; stroke-opacity:0.1; fill:none" points="518.341,1486.45 518.341,47.2441 "/>
<polyline clip-path="url(#clip282)" style="stroke:#000000; stroke-linecap:round; stroke-linejoin:round; stroke-width:2; stroke-opacity:0.1; fill:none" points="927.504,1486.45 927.504,47.2441 "/>
<polyline clip-path="url(#clip282)" style="stroke:#000000; stroke-linecap:round; stroke-linejoin:round; stroke-width:2; stroke-opacity:0.1; fill:none" points="1336.67,1486.45 1336.67,47.2441 "/>
<polyline clip-path="url(#clip282)" style="stroke:#000000; stroke-linecap:round; stroke-linejoin:round; stroke-width:2; stroke-opacity:0.1; fill:none" points="1745.83,1486.45 1745.83,47.2441 "/>
<polyline clip-path="url(#clip282)" style="stroke:#000000; stroke-linecap:round; stroke-linejoin:round; stroke-width:2; stroke-opacity:0.1; fill:none" points="2154.99,1486.45 2154.99,47.2441 "/>
<polyline clip-path="url(#clip280)" style="stroke:#000000; stroke-linecap:round; stroke-linejoin:round; stroke-width:4; stroke-opacity:1; fill:none" points="184.191,1486.45 2352.76,1486.45 "/>
<polyline clip-path="url(#clip280)" style="stroke:#000000; stroke-linecap:round; stroke-linejoin:round; stroke-width:4; stroke-opacity:1; fill:none" points="518.341,1486.45 518.341,1467.55 "/>
<polyline clip-path="url(#clip280)" style="stroke:#000000; stroke-linecap:round; stroke-linejoin:round; stroke-width:4; stroke-opacity:1; fill:none" points="927.504,1486.45 927.504,1467.55 "/>
<polyline clip-path="url(#clip280)" style="stroke:#000000; stroke-linecap:round; stroke-linejoin:round; stroke-width:4; stroke-opacity:1; fill:none" points="1336.67,1486.45 1336.67,1467.55 "/>
<polyline clip-path="url(#clip280)" style="stroke:#000000; stroke-linecap:round; stroke-linejoin:round; stroke-width:4; stroke-opacity:1; fill:none" points="1745.83,1486.45 1745.83,1467.55 "/>
<polyline clip-path="url(#clip280)" style="stroke:#000000; stroke-linecap:round; stroke-linejoin:round; stroke-width:4; stroke-opacity:1; fill:none" points="2154.99,1486.45 2154.99,1467.55 "/>
<path clip-path="url(#clip280)" d="M522.588 1530.21 Q525.945 1530.93 527.82 1533.2 Q529.718 1535.47 529.718 1538.8 Q529.718 1543.92 526.199 1546.72 Q522.681 1549.52 516.199 1549.52 Q514.024 1549.52 511.709 1549.08 Q509.417 1548.66 506.963 1547.81 L506.963 1543.29 Q508.908 1544.43 511.223 1545.01 Q513.537 1545.58 516.061 1545.58 Q520.459 1545.58 522.75 1543.85 Q525.065 1542.11 525.065 1538.8 Q525.065 1535.75 522.912 1534.03 Q520.783 1532.3 516.963 1532.3 L512.936 1532.3 L512.936 1528.45 L517.149 1528.45 Q520.598 1528.45 522.426 1527.09 Q524.255 1525.7 524.255 1523.11 Q524.255 1520.45 522.357 1519.03 Q520.482 1517.6 516.963 1517.6 Q515.042 1517.6 512.843 1518.01 Q510.644 1518.43 508.005 1519.31 L508.005 1515.14 Q510.667 1514.4 512.982 1514.03 Q515.32 1513.66 517.38 1513.66 Q522.704 1513.66 525.806 1516.09 Q528.908 1518.5 528.908 1522.62 Q528.908 1525.49 527.264 1527.48 Q525.621 1529.45 522.588 1530.21 Z" fill="#000000" fill-rule="nonzero" fill-opacity="1" /><path clip-path="url(#clip280)" d="M927.909 1529.7 Q924.761 1529.7 922.909 1531.86 Q921.08 1534.01 921.08 1537.76 Q921.08 1541.49 922.909 1543.66 Q924.761 1545.82 927.909 1545.82 Q931.057 1545.82 932.886 1543.66 Q934.738 1541.49 934.738 1537.76 Q934.738 1534.01 932.886 1531.86 Q931.057 1529.7 927.909 1529.7 M937.191 1515.05 L937.191 1519.31 Q935.432 1518.48 933.627 1518.04 Q931.844 1517.6 930.085 1517.6 Q925.455 1517.6 923.002 1520.72 Q920.571 1523.85 920.224 1530.17 Q921.59 1528.15 923.65 1527.09 Q925.71 1526 928.187 1526 Q933.395 1526 936.404 1529.17 Q939.437 1532.32 939.437 1537.76 Q939.437 1543.08 936.289 1546.3 Q933.14 1549.52 927.909 1549.52 Q921.914 1549.52 918.742 1544.94 Q915.571 1540.33 915.571 1531.6 Q915.571 1523.41 919.46 1518.55 Q923.349 1513.66 929.9 1513.66 Q931.659 1513.66 933.441 1514.01 Q935.247 1514.36 937.191 1515.05 Z" fill="#000000" fill-rule="nonzero" fill-opacity="1" /><path clip-path="url(#clip280)" d="M1326.97 1548.13 L1326.97 1543.87 Q1328.73 1544.7 1330.53 1545.14 Q1332.34 1545.58 1334.07 1545.58 Q1338.7 1545.58 1341.13 1542.48 Q1343.59 1539.36 1343.94 1533.01 Q1342.59 1535.01 1340.53 1536.07 Q1338.47 1537.13 1335.97 1537.13 Q1330.79 1537.13 1327.76 1534.01 Q1324.75 1530.86 1324.75 1525.42 Q1324.75 1520.1 1327.89 1516.88 Q1331.04 1513.66 1336.27 1513.66 Q1342.27 1513.66 1345.42 1518.27 Q1348.59 1522.85 1348.59 1531.6 Q1348.59 1539.77 1344.7 1544.66 Q1340.83 1549.52 1334.28 1549.52 Q1332.52 1549.52 1330.72 1549.17 Q1328.91 1548.82 1326.97 1548.13 M1336.27 1533.48 Q1339.42 1533.48 1341.25 1531.32 Q1343.1 1529.17 1343.1 1525.42 Q1343.1 1521.7 1341.25 1519.54 Q1339.42 1517.37 1336.27 1517.37 Q1333.13 1517.37 1331.27 1519.54 Q1329.44 1521.7 1329.44 1525.42 Q1329.44 1529.17 1331.27 1531.32 Q1333.13 1533.48 1336.27 1533.48 Z" fill="#000000" fill-rule="nonzero" fill-opacity="1" /><path clip-path="url(#clip280)" d="M1721.32 1544.91 L1728.96 1544.91 L1728.96 1518.55 L1720.65 1520.21 L1720.65 1515.95 L1728.91 1514.29 L1733.59 1514.29 L1733.59 1544.91 L1741.22 1544.91 L1741.22 1548.85 L1721.32 1548.85 L1721.32 1544.91 Z" fill="#000000" fill-rule="nonzero" fill-opacity="1" /><path clip-path="url(#clip280)" d="M1754.7 1544.91 L1771.02 1544.91 L1771.02 1548.85 L1749.07 1548.85 L1749.07 1544.91 Q1751.73 1542.16 1756.32 1537.53 Q1760.92 1532.88 1762.1 1531.53 Q1764.35 1529.01 1765.23 1527.27 Q1766.13 1525.51 1766.13 1523.82 Q1766.13 1521.07 1764.19 1519.33 Q1762.27 1517.6 1759.16 1517.6 Q1756.96 1517.6 1754.51 1518.36 Q1752.08 1519.13 1749.3 1520.68 L1749.3 1515.95 Q1752.13 1514.82 1754.58 1514.24 Q1757.03 1513.66 1759.07 1513.66 Q1764.44 1513.66 1767.64 1516.35 Q1770.83 1519.03 1770.83 1523.52 Q1770.83 1525.65 1770.02 1527.57 Q1769.23 1529.47 1767.13 1532.07 Q1766.55 1532.74 1763.45 1535.95 Q1760.34 1539.15 1754.7 1544.91 Z" fill="#000000" fill-rule="nonzero" fill-opacity="1" /><path clip-path="url(#clip280)" d="M2130.18 1544.91 L2137.82 1544.91 L2137.82 1518.55 L2129.51 1520.21 L2129.51 1515.95 L2137.77 1514.29 L2142.45 1514.29 L2142.45 1544.91 L2150.09 1544.91 L2150.09 1548.85 L2130.18 1548.85 L2130.18 1544.91 Z" fill="#000000" fill-rule="nonzero" fill-opacity="1" /><path clip-path="url(#clip280)" d="M2159.58 1514.29 L2177.93 1514.29 L2177.93 1518.22 L2163.86 1518.22 L2163.86 1526.7 Q2164.88 1526.35 2165.9 1526.19 Q2166.91 1526 2167.93 1526 Q2173.72 1526 2177.1 1529.17 Q2180.48 1532.34 2180.48 1537.76 Q2180.48 1543.34 2177.01 1546.44 Q2173.54 1549.52 2167.22 1549.52 Q2165.04 1549.52 2162.77 1549.15 Q2160.53 1548.78 2158.12 1548.04 L2158.12 1543.34 Q2160.2 1544.47 2162.42 1545.03 Q2164.65 1545.58 2167.12 1545.58 Q2171.13 1545.58 2173.47 1543.48 Q2175.8 1541.37 2175.8 1537.76 Q2175.8 1534.15 2173.47 1532.04 Q2171.13 1529.94 2167.12 1529.94 Q2165.25 1529.94 2163.37 1530.35 Q2161.52 1530.77 2159.58 1531.65 L2159.58 1514.29 Z" fill="#000000" fill-rule="nonzero" fill-opacity="1" /><polyline clip-path="url(#clip282)" style="stroke:#000000; stroke-linecap:round; stroke-linejoin:round; stroke-width:2; stroke-opacity:0.1; fill:none" points="184.191,1445.72 2352.76,1445.72 "/>
<polyline clip-path="url(#clip282)" style="stroke:#000000; stroke-linecap:round; stroke-linejoin:round; stroke-width:2; stroke-opacity:0.1; fill:none" points="184.191,1199.67 2352.76,1199.67 "/>
<polyline clip-path="url(#clip282)" style="stroke:#000000; stroke-linecap:round; stroke-linejoin:round; stroke-width:2; stroke-opacity:0.1; fill:none" points="184.191,953.617 2352.76,953.617 "/>
<polyline clip-path="url(#clip282)" style="stroke:#000000; stroke-linecap:round; stroke-linejoin:round; stroke-width:2; stroke-opacity:0.1; fill:none" points="184.191,707.568 2352.76,707.568 "/>
<polyline clip-path="url(#clip282)" style="stroke:#000000; stroke-linecap:round; stroke-linejoin:round; stroke-width:2; stroke-opacity:0.1; fill:none" points="184.191,461.519 2352.76,461.519 "/>
<polyline clip-path="url(#clip282)" style="stroke:#000000; stroke-linecap:round; stroke-linejoin:round; stroke-width:2; stroke-opacity:0.1; fill:none" points="184.191,215.47 2352.76,215.47 "/>
<polyline clip-path="url(#clip280)" style="stroke:#000000; stroke-linecap:round; stroke-linejoin:round; stroke-width:4; stroke-opacity:1; fill:none" points="184.191,1486.45 184.191,47.2441 "/>
<polyline clip-path="url(#clip280)" style="stroke:#000000; stroke-linecap:round; stroke-linejoin:round; stroke-width:4; stroke-opacity:1; fill:none" points="184.191,1445.72 203.088,1445.72 "/>
<polyline clip-path="url(#clip280)" style="stroke:#000000; stroke-linecap:round; stroke-linejoin:round; stroke-width:4; stroke-opacity:1; fill:none" points="184.191,1199.67 203.088,1199.67 "/>
<polyline clip-path="url(#clip280)" style="stroke:#000000; stroke-linecap:round; stroke-linejoin:round; stroke-width:4; stroke-opacity:1; fill:none" points="184.191,953.617 203.088,953.617 "/>
<polyline clip-path="url(#clip280)" style="stroke:#000000; stroke-linecap:round; stroke-linejoin:round; stroke-width:4; stroke-opacity:1; fill:none" points="184.191,707.568 203.088,707.568 "/>
<polyline clip-path="url(#clip280)" style="stroke:#000000; stroke-linecap:round; stroke-linejoin:round; stroke-width:4; stroke-opacity:1; fill:none" points="184.191,461.519 203.088,461.519 "/>
<polyline clip-path="url(#clip280)" style="stroke:#000000; stroke-linecap:round; stroke-linejoin:round; stroke-width:4; stroke-opacity:1; fill:none" points="184.191,215.47 203.088,215.47 "/>
<path clip-path="url(#clip280)" d="M91.0151 1431.51 Q87.404 1431.51 85.5753 1435.08 Q83.7697 1438.62 83.7697 1445.75 Q83.7697 1452.86 85.5753 1456.42 Q87.404 1459.96 91.0151 1459.96 Q94.6493 1459.96 96.4548 1456.42 Q98.2835 1452.86 98.2835 1445.75 Q98.2835 1438.62 96.4548 1435.08 Q94.6493 1431.51 91.0151 1431.51 M91.0151 1427.81 Q96.8252 1427.81 99.8808 1432.42 Q102.959 1437 102.959 1445.75 Q102.959 1454.48 99.8808 1459.08 Q96.8252 1463.67 91.0151 1463.67 Q85.2049 1463.67 82.1262 1459.08 Q79.0707 1454.48 79.0707 1445.75 Q79.0707 1437 82.1262 1432.42 Q85.2049 1427.81 91.0151 1427.81 Z" fill="#000000" fill-rule="nonzero" fill-opacity="1" /><path clip-path="url(#clip280)" d="M111.177 1457.12 L116.061 1457.12 L116.061 1463 L111.177 1463 L111.177 1457.12 Z" fill="#000000" fill-rule="nonzero" fill-opacity="1" /><path clip-path="url(#clip280)" d="M136.246 1431.51 Q132.635 1431.51 130.807 1435.08 Q129.001 1438.62 129.001 1445.75 Q129.001 1452.86 130.807 1456.42 Q132.635 1459.96 136.246 1459.96 Q139.881 1459.96 141.686 1456.42 Q143.515 1452.86 143.515 1445.75 Q143.515 1438.62 141.686 1435.08 Q139.881 1431.51 136.246 1431.51 M136.246 1427.81 Q142.056 1427.81 145.112 1432.42 Q148.191 1437 148.191 1445.75 Q148.191 1454.48 145.112 1459.08 Q142.056 1463.67 136.246 1463.67 Q130.436 1463.67 127.357 1459.08 Q124.302 1454.48 124.302 1445.75 Q124.302 1437 127.357 1432.42 Q130.436 1427.81 136.246 1427.81 Z" fill="#000000" fill-rule="nonzero" fill-opacity="1" /><path clip-path="url(#clip280)" d="M86.0382 1213.01 L102.358 1213.01 L102.358 1216.95 L80.4133 1216.95 L80.4133 1213.01 Q83.0753 1210.26 87.6586 1205.63 Q92.2651 1200.97 93.4456 1199.63 Q95.691 1197.11 96.5706 1195.37 Q97.4734 1193.61 97.4734 1191.92 Q97.4734 1189.17 95.5289 1187.43 Q93.6076 1185.7 90.5058 1185.7 Q88.3067 1185.7 85.8531 1186.46 Q83.4225 1187.22 80.6447 1188.78 L80.6447 1184.05 Q83.4688 1182.92 85.9225 1182.34 Q88.3762 1181.76 90.4132 1181.76 Q95.7836 1181.76 98.978 1184.45 Q102.172 1187.13 102.172 1191.62 Q102.172 1193.75 101.362 1195.67 Q100.575 1197.57 98.4687 1200.16 Q97.89 1200.84 94.7882 1204.05 Q91.6864 1207.25 86.0382 1213.01 Z" fill="#000000" fill-rule="nonzero" fill-opacity="1" /><path clip-path="url(#clip280)" d="M112.172 1211.07 L117.057 1211.07 L117.057 1216.95 L112.172 1216.95 L112.172 1211.07 Z" fill="#000000" fill-rule="nonzero" fill-opacity="1" /><path clip-path="url(#clip280)" d="M127.288 1182.39 L145.644 1182.39 L145.644 1186.32 L131.57 1186.32 L131.57 1194.79 Q132.589 1194.45 133.607 1194.28 Q134.626 1194.1 135.644 1194.1 Q141.431 1194.1 144.811 1197.27 Q148.191 1200.44 148.191 1205.86 Q148.191 1211.44 144.718 1214.54 Q141.246 1217.62 134.927 1217.62 Q132.751 1217.62 130.482 1217.25 Q128.237 1216.88 125.83 1216.14 L125.83 1211.44 Q127.913 1212.57 130.135 1213.13 Q132.357 1213.68 134.834 1213.68 Q138.839 1213.68 141.177 1211.58 Q143.515 1209.47 143.515 1205.86 Q143.515 1202.25 141.177 1200.14 Q138.839 1198.03 134.834 1198.03 Q132.959 1198.03 131.084 1198.45 Q129.232 1198.87 127.288 1199.75 L127.288 1182.39 Z" fill="#000000" fill-rule="nonzero" fill-opacity="1" /><path clip-path="url(#clip280)" d="M81.0614 936.337 L99.4178 936.337 L99.4178 940.273 L85.3438 940.273 L85.3438 948.745 Q86.3623 948.398 87.3808 948.236 Q88.3993 948.05 89.4178 948.05 Q95.2049 948.05 98.5845 951.222 Q101.964 954.393 101.964 959.81 Q101.964 965.388 98.4919 968.49 Q95.0197 971.569 88.7003 971.569 Q86.5243 971.569 84.2558 971.198 Q82.0105 970.828 79.6031 970.087 L79.6031 965.388 Q81.6864 966.523 83.9086 967.078 Q86.1308 967.634 88.6077 967.634 Q92.6123 967.634 94.9502 965.527 Q97.2882 963.421 97.2882 959.81 Q97.2882 956.199 94.9502 954.092 Q92.6123 951.986 88.6077 951.986 Q86.7327 951.986 84.8577 952.402 Q83.0058 952.819 81.0614 953.699 L81.0614 936.337 Z" fill="#000000" fill-rule="nonzero" fill-opacity="1" /><path clip-path="url(#clip280)" d="M111.177 965.018 L116.061 965.018 L116.061 970.897 L111.177 970.897 L111.177 965.018 Z" fill="#000000" fill-rule="nonzero" fill-opacity="1" /><path clip-path="url(#clip280)" d="M136.246 939.416 Q132.635 939.416 130.807 942.981 Q129.001 946.523 129.001 953.652 Q129.001 960.759 130.807 964.323 Q132.635 967.865 136.246 967.865 Q139.881 967.865 141.686 964.323 Q143.515 960.759 143.515 953.652 Q143.515 946.523 141.686 942.981 Q139.881 939.416 136.246 939.416 M136.246 935.713 Q142.056 935.713 145.112 940.319 Q148.191 944.902 148.191 953.652 Q148.191 962.379 145.112 966.985 Q142.056 971.569 136.246 971.569 Q130.436 971.569 127.357 966.985 Q124.302 962.379 124.302 953.652 Q124.302 944.902 127.357 940.319 Q130.436 935.713 136.246 935.713 Z" fill="#000000" fill-rule="nonzero" fill-opacity="1" /><path clip-path="url(#clip280)" d="M80.8299 690.288 L103.052 690.288 L103.052 692.279 L90.5058 724.848 L85.6216 724.848 L97.4271 694.224 L80.8299 694.224 L80.8299 690.288 Z" fill="#000000" fill-rule="nonzero" fill-opacity="1" /><path clip-path="url(#clip280)" d="M112.172 718.969 L117.057 718.969 L117.057 724.848 L112.172 724.848 L112.172 718.969 Z" fill="#000000" fill-rule="nonzero" fill-opacity="1" /><path clip-path="url(#clip280)" d="M127.288 690.288 L145.644 690.288 L145.644 694.224 L131.57 694.224 L131.57 702.696 Q132.589 702.349 133.607 702.186 Q134.626 702.001 135.644 702.001 Q141.431 702.001 144.811 705.173 Q148.191 708.344 148.191 713.761 Q148.191 719.339 144.718 722.441 Q141.246 725.52 134.927 725.52 Q132.751 725.52 130.482 725.149 Q128.237 724.779 125.83 724.038 L125.83 719.339 Q127.913 720.473 130.135 721.029 Q132.357 721.585 134.834 721.585 Q138.839 721.585 141.177 719.478 Q143.515 717.372 143.515 713.761 Q143.515 710.149 141.177 708.043 Q138.839 705.936 134.834 705.936 Q132.959 705.936 131.084 706.353 Q129.232 706.77 127.288 707.649 L127.288 690.288 Z" fill="#000000" fill-rule="nonzero" fill-opacity="1" /><path clip-path="url(#clip280)" d="M51.6634 474.864 L59.3023 474.864 L59.3023 448.499 L50.9921 450.165 L50.9921 445.906 L59.256 444.239 L63.9319 444.239 L63.9319 474.864 L71.5707 474.864 L71.5707 478.799 L51.6634 478.799 L51.6634 474.864 Z" fill="#000000" fill-rule="nonzero" fill-opacity="1" /><path clip-path="url(#clip280)" d="M91.0151 447.318 Q87.404 447.318 85.5753 450.883 Q83.7697 454.424 83.7697 461.554 Q83.7697 468.66 85.5753 472.225 Q87.404 475.767 91.0151 475.767 Q94.6493 475.767 96.4548 472.225 Q98.2835 468.66 98.2835 461.554 Q98.2835 454.424 96.4548 450.883 Q94.6493 447.318 91.0151 447.318 M91.0151 443.614 Q96.8252 443.614 99.8808 448.221 Q102.959 452.804 102.959 461.554 Q102.959 470.281 99.8808 474.887 Q96.8252 479.471 91.0151 479.471 Q85.2049 479.471 82.1262 474.887 Q79.0707 470.281 79.0707 461.554 Q79.0707 452.804 82.1262 448.221 Q85.2049 443.614 91.0151 443.614 Z" fill="#000000" fill-rule="nonzero" fill-opacity="1" /><path clip-path="url(#clip280)" d="M111.177 472.92 L116.061 472.92 L116.061 478.799 L111.177 478.799 L111.177 472.92 Z" fill="#000000" fill-rule="nonzero" fill-opacity="1" /><path clip-path="url(#clip280)" d="M136.246 447.318 Q132.635 447.318 130.807 450.883 Q129.001 454.424 129.001 461.554 Q129.001 468.66 130.807 472.225 Q132.635 475.767 136.246 475.767 Q139.881 475.767 141.686 472.225 Q143.515 468.66 143.515 461.554 Q143.515 454.424 141.686 450.883 Q139.881 447.318 136.246 447.318 M136.246 443.614 Q142.056 443.614 145.112 448.221 Q148.191 452.804 148.191 461.554 Q148.191 470.281 145.112 474.887 Q142.056 479.471 136.246 479.471 Q130.436 479.471 127.357 474.887 Q124.302 470.281 124.302 461.554 Q124.302 452.804 127.357 448.221 Q130.436 443.614 136.246 443.614 Z" fill="#000000" fill-rule="nonzero" fill-opacity="1" /><path clip-path="url(#clip280)" d="M52.6588 228.815 L60.2976 228.815 L60.2976 202.449 L51.9875 204.116 L51.9875 199.857 L60.2513 198.19 L64.9272 198.19 L64.9272 228.815 L72.5661 228.815 L72.5661 232.75 L52.6588 232.75 L52.6588 228.815 Z" fill="#000000" fill-rule="nonzero" fill-opacity="1" /><path clip-path="url(#clip280)" d="M86.0382 228.815 L102.358 228.815 L102.358 232.75 L80.4133 232.75 L80.4133 228.815 Q83.0753 226.06 87.6586 221.431 Q92.2651 216.778 93.4456 215.435 Q95.691 212.912 96.5706 211.176 Q97.4734 209.417 97.4734 207.727 Q97.4734 204.973 95.5289 203.236 Q93.6076 201.5 90.5058 201.5 Q88.3067 201.5 85.8531 202.264 Q83.4225 203.028 80.6447 204.579 L80.6447 199.857 Q83.4688 198.723 85.9225 198.144 Q88.3762 197.565 90.4132 197.565 Q95.7836 197.565 98.978 200.25 Q102.172 202.936 102.172 207.426 Q102.172 209.556 101.362 211.477 Q100.575 213.375 98.4687 215.968 Q97.89 216.639 94.7882 219.857 Q91.6864 223.051 86.0382 228.815 Z" fill="#000000" fill-rule="nonzero" fill-opacity="1" /><path clip-path="url(#clip280)" d="M112.172 226.871 L117.057 226.871 L117.057 232.75 L112.172 232.75 L112.172 226.871 Z" fill="#000000" fill-rule="nonzero" fill-opacity="1" /><path clip-path="url(#clip280)" d="M127.288 198.19 L145.644 198.19 L145.644 202.125 L131.57 202.125 L131.57 210.598 Q132.589 210.25 133.607 210.088 Q134.626 209.903 135.644 209.903 Q141.431 209.903 144.811 213.074 Q148.191 216.246 148.191 221.662 Q148.191 227.241 144.718 230.343 Q141.246 233.422 134.927 233.422 Q132.751 233.422 130.482 233.051 Q128.237 232.681 125.83 231.94 L125.83 227.241 Q127.913 228.375 130.135 228.931 Q132.357 229.486 134.834 229.486 Q138.839 229.486 141.177 227.38 Q143.515 225.273 143.515 221.662 Q143.515 218.051 141.177 215.945 Q138.839 213.838 134.834 213.838 Q132.959 213.838 131.084 214.255 Q129.232 214.672 127.288 215.551 L127.288 198.19 Z" fill="#000000" fill-rule="nonzero" fill-opacity="1" /><circle clip-path="url(#clip282)" cx="2154.99" cy="1445.72" r="14.4" fill="#ff0000" fill-rule="evenodd" fill-opacity="1" stroke="#000000" stroke-opacity="1" stroke-width="3.2"/>
<polyline clip-path="url(#clip282)" style="stroke:#e26f46; stroke-linecap:round; stroke-linejoin:round; stroke-width:2; stroke-opacity:1; fill:none" stroke-dasharray="1, 2" points="2154.99,2925.65 2154.99,-1391.96 "/>
<polyline clip-path="url(#clip282)" style="stroke:#3da44d; stroke-linecap:round; stroke-linejoin:round; stroke-width:8; stroke-opacity:1; fill:none" points="245.565,1416.19 381.953,1378.04 518.341,1328.98 654.728,1271.45 791.116,1206.77 927.504,1135.61 1063.89,1058.29 1200.28,974.939 1336.67,885.583 1473.05,790.181 1609.44,688.674 1745.83,581.002 1882.22,467.113 2018.61,346.979 2154.99,220.594 2291.38,87.9763 "/>
<polyline clip-path="url(#clip282)" style="stroke:#c271d2; stroke-linecap:round; stroke-linejoin:round; stroke-width:8; stroke-opacity:1; fill:none" points="245.565,1416.19 381.953,1378.11 518.341,1329.17 654.728,1271.84 791.116,1207.4 927.504,1136.53 1063.89,1059.56 1200.28,976.618 1336.67,887.708 1473.05,792.794 1609.44,691.81 1745.83,584.691 1882.22,471.381 2018.61,351.846 2154.99,226.075 2291.38,94.0824 "/>
<polyline clip-path="url(#clip282)" style="stroke:#ac8d18; stroke-linecap:round; stroke-linejoin:round; stroke-width:8; stroke-opacity:1; fill:none" points="245.565,1416.19 381.953,1379.66 518.341,1333.62 654.728,1280.55 791.116,1221.75 927.504,1157.88 1063.89,1089.25 1200.28,1015.9 1336.67,937.776 1473.05,854.742 1609.44,766.627 1745.83,673.248 1882.22,574.431 2018.61,470.015 2154.99,359.869 2291.38,243.886 "/>
<polyline clip-path="url(#clip282)" style="stroke:#00a9ad; stroke-linecap:round; stroke-linejoin:round; stroke-width:8; stroke-opacity:1; fill:none" points="245.565,1416.19 381.953,1385.37 518.341,1350.28 654.728,1314.12 791.116,1279.02 927.504,1246.51 1063.89,1217.83 1200.28,1194.13 1336.67,1176.55 1473.05,1166.44 1609.44,1165.41 1745.83,1175.67 1882.22,1200.42 2018.61,1244.8 2154.99,1318.38 2291.38,1445.71 "/>
<polyline clip-path="url(#clip282)" style="stroke:#ed5d92; stroke-linecap:round; stroke-linejoin:round; stroke-width:8; stroke-opacity:1; fill:none" points="245.565,1416.19 381.953,1390 518.341,1364.26 654.728,1343.84 791.116,1333.47 927.504,1339.06 1063.89,1370.46 "/>
<path clip-path="url(#clip280)" d="M256.476 406.258 L1216.99 406.258 L1216.99 95.2176 L256.476 95.2176  Z" fill="#ffffff" fill-rule="evenodd" fill-opacity="1"/>
<polyline clip-path="url(#clip280)" style="stroke:#000000; stroke-linecap:round; stroke-linejoin:round; stroke-width:4; stroke-opacity:0; fill:none" points="256.476,406.258 1216.99,406.258 1216.99,95.2176 256.476,95.2176 256.476,406.258 "/>
<polyline clip-path="url(#clip280)" style="stroke:#3da44d; stroke-linecap:round; stroke-linejoin:round; stroke-width:8; stroke-opacity:1; fill:none" points="280.571,147.058 425.142,147.058 "/>
<path clip-path="url(#clip280)" d="M449.238 128.319 L453.52 128.319 L453.52 149.592 L466.228 138.412 L471.668 138.412 L457.918 150.541 L472.247 164.338 L466.691 164.338 L453.52 151.676 L453.52 164.338 L449.238 164.338 L449.238 128.319 Z" fill="#000000" fill-rule="nonzero" fill-opacity="1" /><path clip-path="url(#clip280)" d="M481.066 131.051 L481.066 138.412 L489.839 138.412 L489.839 141.722 L481.066 141.722 L481.066 155.796 Q481.066 158.967 481.923 159.87 Q482.802 160.773 485.464 160.773 L489.839 160.773 L489.839 164.338 L485.464 164.338 Q480.534 164.338 478.659 162.509 Q476.784 160.657 476.784 155.796 L476.784 141.722 L473.659 141.722 L473.659 138.412 L476.784 138.412 L476.784 131.051 L481.066 131.051 Z" fill="#000000" fill-rule="nonzero" fill-opacity="1" /><path clip-path="url(#clip280)" d="M520.742 128.366 Q517.64 133.69 516.135 138.898 Q514.631 144.106 514.631 149.453 Q514.631 154.801 516.135 160.055 Q517.663 165.287 520.742 170.588 L517.038 170.588 Q513.566 165.148 511.83 159.893 Q510.117 154.639 510.117 149.453 Q510.117 144.291 511.83 139.06 Q513.543 133.828 517.038 128.366 L520.742 128.366 Z" fill="#000000" fill-rule="nonzero" fill-opacity="1" /><path clip-path="url(#clip280)" d="M547.663 139.407 L547.663 143.389 Q545.857 142.393 544.029 141.907 Q542.223 141.398 540.371 141.398 Q536.228 141.398 533.936 144.037 Q531.645 146.652 531.645 151.398 Q531.645 156.143 533.936 158.782 Q536.228 161.398 540.371 161.398 Q542.223 161.398 544.029 160.912 Q545.857 160.402 547.663 159.407 L547.663 163.342 Q545.881 164.176 543.959 164.592 Q542.061 165.009 539.908 165.009 Q534.052 165.009 530.603 161.328 Q527.154 157.648 527.154 151.398 Q527.154 145.055 530.626 141.421 Q534.121 137.787 540.186 137.787 Q542.154 137.787 544.029 138.203 Q545.904 138.597 547.663 139.407 Z" fill="#000000" fill-rule="nonzero" fill-opacity="1" /><path clip-path="url(#clip280)" d="M565.672 132.856 Q562.061 132.856 560.232 136.421 Q558.427 139.963 558.427 147.092 Q558.427 154.199 560.232 157.764 Q562.061 161.305 565.672 161.305 Q569.306 161.305 571.112 157.764 Q572.941 154.199 572.941 147.092 Q572.941 139.963 571.112 136.421 Q569.306 132.856 565.672 132.856 M565.672 129.153 Q571.482 129.153 574.538 133.759 Q577.616 138.342 577.616 147.092 Q577.616 155.819 574.538 160.426 Q571.482 165.009 565.672 165.009 Q559.862 165.009 556.783 160.426 Q553.728 155.819 553.728 147.092 Q553.728 138.342 556.783 133.759 Q559.862 129.153 565.672 129.153 Z" fill="#000000" fill-rule="nonzero" fill-opacity="1" /><path clip-path="url(#clip280)" d="M585.788 142.81 L615.464 142.81 L615.464 146.699 L585.788 146.699 L585.788 142.81 M585.788 152.254 L615.464 152.254 L615.464 156.189 L585.788 156.189 L585.788 152.254 Z" fill="#000000" fill-rule="nonzero" fill-opacity="1" /><path clip-path="url(#clip280)" d="M635.556 132.856 Q631.945 132.856 630.116 136.421 Q628.311 139.963 628.311 147.092 Q628.311 154.199 630.116 157.764 Q631.945 161.305 635.556 161.305 Q639.19 161.305 640.996 157.764 Q642.824 154.199 642.824 147.092 Q642.824 139.963 640.996 136.421 Q639.19 132.856 635.556 132.856 M635.556 129.153 Q641.366 129.153 644.422 133.759 Q647.5 138.342 647.5 147.092 Q647.5 155.819 644.422 160.426 Q641.366 165.009 635.556 165.009 Q629.746 165.009 626.667 160.426 Q623.612 155.819 623.612 147.092 Q623.612 138.342 626.667 133.759 Q629.746 129.153 635.556 129.153 Z" fill="#000000" fill-rule="nonzero" fill-opacity="1" /><path clip-path="url(#clip280)" d="M655.718 158.458 L660.602 158.458 L660.602 164.338 L655.718 164.338 L655.718 158.458 Z" fill="#000000" fill-rule="nonzero" fill-opacity="1" /><path clip-path="url(#clip280)" d="M674.815 160.402 L691.134 160.402 L691.134 164.338 L669.19 164.338 L669.19 160.402 Q671.852 157.648 676.435 153.018 Q681.042 148.365 682.222 147.023 Q684.468 144.5 685.347 142.764 Q686.25 141.004 686.25 139.315 Q686.25 136.56 684.306 134.824 Q682.384 133.088 679.283 133.088 Q677.084 133.088 674.63 133.852 Q672.199 134.615 669.422 136.166 L669.422 131.444 Q672.246 130.31 674.699 129.731 Q677.153 129.153 679.19 129.153 Q684.56 129.153 687.755 131.838 Q690.949 134.523 690.949 139.014 Q690.949 141.143 690.139 143.065 Q689.352 144.963 687.246 147.555 Q686.667 148.227 683.565 151.444 Q680.463 154.639 674.815 160.402 Z" fill="#000000" fill-rule="nonzero" fill-opacity="1" /><path clip-path="url(#clip280)" d="M699.769 129.778 L721.991 129.778 L721.991 131.768 L709.444 164.338 L704.56 164.338 L716.366 133.713 L699.769 133.713 L699.769 129.778 Z" fill="#000000" fill-rule="nonzero" fill-opacity="1" /><path clip-path="url(#clip280)" d="M741.111 147.926 Q737.778 147.926 735.856 149.708 Q733.958 151.49 733.958 154.615 Q733.958 157.74 735.856 159.523 Q737.778 161.305 741.111 161.305 Q744.444 161.305 746.366 159.523 Q748.287 157.717 748.287 154.615 Q748.287 151.49 746.366 149.708 Q744.467 147.926 741.111 147.926 M736.435 145.935 Q733.426 145.194 731.736 143.134 Q730.069 141.074 730.069 138.111 Q730.069 133.967 733.009 131.56 Q735.972 129.153 741.111 129.153 Q746.273 129.153 749.213 131.56 Q752.153 133.967 752.153 138.111 Q752.153 141.074 750.463 143.134 Q748.796 145.194 745.81 145.935 Q749.19 146.722 751.065 149.014 Q752.963 151.305 752.963 154.615 Q752.963 159.639 749.884 162.324 Q746.829 165.009 741.111 165.009 Q735.393 165.009 732.315 162.324 Q729.259 159.639 729.259 154.615 Q729.259 151.305 731.157 149.014 Q733.055 146.722 736.435 145.935 M734.722 138.551 Q734.722 141.236 736.389 142.74 Q738.079 144.245 741.111 144.245 Q744.12 144.245 745.81 142.74 Q747.523 141.236 747.523 138.551 Q747.523 135.865 745.81 134.361 Q744.12 132.856 741.111 132.856 Q738.079 132.856 736.389 134.361 Q734.722 135.865 734.722 138.551 Z" fill="#000000" fill-rule="nonzero" fill-opacity="1" /><path clip-path="url(#clip280)" d="M761.319 129.778 L779.676 129.778 L779.676 133.713 L765.602 133.713 L765.602 142.185 Q766.62 141.838 767.639 141.676 Q768.657 141.49 769.676 141.49 Q775.463 141.49 778.842 144.662 Q782.222 147.833 782.222 153.25 Q782.222 158.828 778.75 161.93 Q775.277 165.009 768.958 165.009 Q766.782 165.009 764.514 164.638 Q762.268 164.268 759.861 163.527 L759.861 158.828 Q761.944 159.963 764.166 160.518 Q766.389 161.074 768.865 161.074 Q772.87 161.074 775.208 158.967 Q777.546 156.861 777.546 153.25 Q777.546 149.639 775.208 147.532 Q772.87 145.426 768.865 145.426 Q766.99 145.426 765.115 145.842 Q763.264 146.259 761.319 147.139 L761.319 129.778 Z" fill="#000000" fill-rule="nonzero" fill-opacity="1" /><path clip-path="url(#clip280)" d="M790.162 128.366 L793.865 128.366 Q797.338 133.828 799.05 139.06 Q800.787 144.291 800.787 149.453 Q800.787 154.639 799.05 159.893 Q797.338 165.148 793.865 170.588 L790.162 170.588 Q793.24 165.287 794.745 160.055 Q796.273 154.801 796.273 149.453 Q796.273 144.106 794.745 138.898 Q793.24 133.69 790.162 128.366 Z" fill="#000000" fill-rule="nonzero" fill-opacity="1" /><polyline clip-path="url(#clip280)" style="stroke:#c271d2; stroke-linecap:round; stroke-linejoin:round; stroke-width:8; stroke-opacity:1; fill:none" points="280.571,198.898 425.142,198.898 "/>
<path clip-path="url(#clip280)" d="M449.238 180.159 L453.52 180.159 L453.52 201.432 L466.228 190.252 L471.668 190.252 L457.918 202.381 L472.247 216.178 L466.691 216.178 L453.52 203.516 L453.52 216.178 L449.238 216.178 L449.238 180.159 Z" fill="#000000" fill-rule="nonzero" fill-opacity="1" /><path clip-path="url(#clip280)" d="M481.066 182.891 L481.066 190.252 L489.839 190.252 L489.839 193.562 L481.066 193.562 L481.066 207.636 Q481.066 210.807 481.923 211.71 Q482.802 212.613 485.464 212.613 L489.839 212.613 L489.839 216.178 L485.464 216.178 Q480.534 216.178 478.659 214.349 Q476.784 212.497 476.784 207.636 L476.784 193.562 L473.659 193.562 L473.659 190.252 L476.784 190.252 L476.784 182.891 L481.066 182.891 Z" fill="#000000" fill-rule="nonzero" fill-opacity="1" /><path clip-path="url(#clip280)" d="M520.742 180.206 Q517.64 185.53 516.135 190.738 Q514.631 195.946 514.631 201.293 Q514.631 206.641 516.135 211.895 Q517.663 217.127 520.742 222.428 L517.038 222.428 Q513.566 216.988 511.83 211.733 Q510.117 206.479 510.117 201.293 Q510.117 196.131 511.83 190.9 Q513.543 185.668 517.038 180.206 L520.742 180.206 Z" fill="#000000" fill-rule="nonzero" fill-opacity="1" /><path clip-path="url(#clip280)" d="M547.663 191.247 L547.663 195.229 Q545.857 194.233 544.029 193.747 Q542.223 193.238 540.371 193.238 Q536.228 193.238 533.936 195.877 Q531.645 198.492 531.645 203.238 Q531.645 207.983 533.936 210.622 Q536.228 213.238 540.371 213.238 Q542.223 213.238 544.029 212.752 Q545.857 212.242 547.663 211.247 L547.663 215.182 Q545.881 216.016 543.959 216.432 Q542.061 216.849 539.908 216.849 Q534.052 216.849 530.603 213.168 Q527.154 209.488 527.154 203.238 Q527.154 196.895 530.626 193.261 Q534.121 189.627 540.186 189.627 Q542.154 189.627 544.029 190.043 Q545.904 190.437 547.663 191.247 Z" fill="#000000" fill-rule="nonzero" fill-opacity="1" /><path clip-path="url(#clip280)" d="M565.672 184.696 Q562.061 184.696 560.232 188.261 Q558.427 191.803 558.427 198.932 Q558.427 206.039 560.232 209.604 Q562.061 213.145 565.672 213.145 Q569.306 213.145 571.112 209.604 Q572.941 206.039 572.941 198.932 Q572.941 191.803 571.112 188.261 Q569.306 184.696 565.672 184.696 M565.672 180.993 Q571.482 180.993 574.538 185.599 Q577.616 190.182 577.616 198.932 Q577.616 207.659 574.538 212.266 Q571.482 216.849 565.672 216.849 Q559.862 216.849 556.783 212.266 Q553.728 207.659 553.728 198.932 Q553.728 190.182 556.783 185.599 Q559.862 180.993 565.672 180.993 Z" fill="#000000" fill-rule="nonzero" fill-opacity="1" /><path clip-path="url(#clip280)" d="M585.788 194.65 L615.464 194.65 L615.464 198.539 L585.788 198.539 L585.788 194.65 M585.788 204.094 L615.464 204.094 L615.464 208.029 L585.788 208.029 L585.788 204.094 Z" fill="#000000" fill-rule="nonzero" fill-opacity="1" /><path clip-path="url(#clip280)" d="M635.556 184.696 Q631.945 184.696 630.116 188.261 Q628.311 191.803 628.311 198.932 Q628.311 206.039 630.116 209.604 Q631.945 213.145 635.556 213.145 Q639.19 213.145 640.996 209.604 Q642.824 206.039 642.824 198.932 Q642.824 191.803 640.996 188.261 Q639.19 184.696 635.556 184.696 M635.556 180.993 Q641.366 180.993 644.422 185.599 Q647.5 190.182 647.5 198.932 Q647.5 207.659 644.422 212.266 Q641.366 216.849 635.556 216.849 Q629.746 216.849 626.667 212.266 Q623.612 207.659 623.612 198.932 Q623.612 190.182 626.667 185.599 Q629.746 180.993 635.556 180.993 Z" fill="#000000" fill-rule="nonzero" fill-opacity="1" /><path clip-path="url(#clip280)" d="M655.718 210.298 L660.602 210.298 L660.602 216.178 L655.718 216.178 L655.718 210.298 Z" fill="#000000" fill-rule="nonzero" fill-opacity="1" /><path clip-path="url(#clip280)" d="M674.815 212.242 L691.134 212.242 L691.134 216.178 L669.19 216.178 L669.19 212.242 Q671.852 209.488 676.435 204.858 Q681.042 200.205 682.222 198.863 Q684.468 196.34 685.347 194.604 Q686.25 192.844 686.25 191.155 Q686.25 188.4 684.306 186.664 Q682.384 184.928 679.283 184.928 Q677.084 184.928 674.63 185.692 Q672.199 186.455 669.422 188.006 L669.422 183.284 Q672.246 182.15 674.699 181.571 Q677.153 180.993 679.19 180.993 Q684.56 180.993 687.755 183.678 Q690.949 186.363 690.949 190.854 Q690.949 192.983 690.139 194.905 Q689.352 196.803 687.246 199.395 Q686.667 200.067 683.565 203.284 Q680.463 206.479 674.815 212.242 Z" fill="#000000" fill-rule="nonzero" fill-opacity="1" /><path clip-path="url(#clip280)" d="M699.769 181.618 L721.991 181.618 L721.991 183.608 L709.444 216.178 L704.56 216.178 L716.366 185.553 L699.769 185.553 L699.769 181.618 Z" fill="#000000" fill-rule="nonzero" fill-opacity="1" /><path clip-path="url(#clip280)" d="M731.25 215.46 L731.25 211.201 Q733.009 212.034 734.815 212.474 Q736.62 212.914 738.356 212.914 Q742.986 212.914 745.417 209.812 Q747.87 206.687 748.217 200.344 Q746.875 202.335 744.815 203.4 Q742.754 204.465 740.254 204.465 Q735.069 204.465 732.037 201.34 Q729.028 198.192 729.028 192.752 Q729.028 187.428 732.176 184.21 Q735.324 180.993 740.555 180.993 Q746.551 180.993 749.699 185.599 Q752.87 190.182 752.87 198.932 Q752.87 207.104 748.981 211.988 Q745.116 216.849 738.565 216.849 Q736.805 216.849 735 216.502 Q733.194 216.154 731.25 215.46 M740.555 200.807 Q743.704 200.807 745.532 198.654 Q747.384 196.502 747.384 192.752 Q747.384 189.025 745.532 186.872 Q743.704 184.696 740.555 184.696 Q737.407 184.696 735.555 186.872 Q733.727 189.025 733.727 192.752 Q733.727 196.502 735.555 198.654 Q737.407 200.807 740.555 200.807 Z" fill="#000000" fill-rule="nonzero" fill-opacity="1" /><path clip-path="url(#clip280)" d="M765.301 212.242 L781.62 212.242 L781.62 216.178 L759.676 216.178 L759.676 212.242 Q762.338 209.488 766.921 204.858 Q771.527 200.205 772.708 198.863 Q774.953 196.34 775.833 194.604 Q776.736 192.844 776.736 191.155 Q776.736 188.4 774.791 186.664 Q772.87 184.928 769.768 184.928 Q767.569 184.928 765.115 185.692 Q762.685 186.455 759.907 188.006 L759.907 183.284 Q762.731 182.15 765.185 181.571 Q767.639 180.993 769.676 180.993 Q775.046 180.993 778.24 183.678 Q781.435 186.363 781.435 190.854 Q781.435 192.983 780.625 194.905 Q779.838 196.803 777.731 199.395 Q777.152 200.067 774.051 203.284 Q770.949 206.479 765.301 212.242 Z" fill="#000000" fill-rule="nonzero" fill-opacity="1" /><path clip-path="url(#clip280)" d="M790.162 180.206 L793.865 180.206 Q797.338 185.668 799.05 190.9 Q800.787 196.131 800.787 201.293 Q800.787 206.479 799.05 211.733 Q797.338 216.988 793.865 222.428 L790.162 222.428 Q793.24 217.127 794.745 211.895 Q796.273 206.641 796.273 201.293 Q796.273 195.946 794.745 190.738 Q793.24 185.53 790.162 180.206 Z" fill="#000000" fill-rule="nonzero" fill-opacity="1" /><polyline clip-path="url(#clip280)" style="stroke:#ac8d18; stroke-linecap:round; stroke-linejoin:round; stroke-width:8; stroke-opacity:1; fill:none" points="280.571,250.738 425.142,250.738 "/>
<path clip-path="url(#clip280)" d="M449.238 231.999 L453.52 231.999 L453.52 253.272 L466.228 242.092 L471.668 242.092 L457.918 254.221 L472.247 268.018 L466.691 268.018 L453.52 255.356 L453.52 268.018 L449.238 268.018 L449.238 231.999 Z" fill="#000000" fill-rule="nonzero" fill-opacity="1" /><path clip-path="url(#clip280)" d="M481.066 234.731 L481.066 242.092 L489.839 242.092 L489.839 245.402 L481.066 245.402 L481.066 259.476 Q481.066 262.647 481.923 263.55 Q482.802 264.453 485.464 264.453 L489.839 264.453 L489.839 268.018 L485.464 268.018 Q480.534 268.018 478.659 266.189 Q476.784 264.337 476.784 259.476 L476.784 245.402 L473.659 245.402 L473.659 242.092 L476.784 242.092 L476.784 234.731 L481.066 234.731 Z" fill="#000000" fill-rule="nonzero" fill-opacity="1" /><path clip-path="url(#clip280)" d="M520.742 232.046 Q517.64 237.37 516.135 242.578 Q514.631 247.786 514.631 253.133 Q514.631 258.481 516.135 263.735 Q517.663 268.967 520.742 274.268 L517.038 274.268 Q513.566 268.828 511.83 263.573 Q510.117 258.319 510.117 253.133 Q510.117 247.971 511.83 242.74 Q513.543 237.508 517.038 232.046 L520.742 232.046 Z" fill="#000000" fill-rule="nonzero" fill-opacity="1" /><path clip-path="url(#clip280)" d="M547.663 243.087 L547.663 247.069 Q545.857 246.073 544.029 245.587 Q542.223 245.078 540.371 245.078 Q536.228 245.078 533.936 247.717 Q531.645 250.332 531.645 255.078 Q531.645 259.823 533.936 262.462 Q536.228 265.078 540.371 265.078 Q542.223 265.078 544.029 264.592 Q545.857 264.082 547.663 263.087 L547.663 267.022 Q545.881 267.856 543.959 268.272 Q542.061 268.689 539.908 268.689 Q534.052 268.689 530.603 265.008 Q527.154 261.328 527.154 255.078 Q527.154 248.735 530.626 245.101 Q534.121 241.467 540.186 241.467 Q542.154 241.467 544.029 241.883 Q545.904 242.277 547.663 243.087 Z" fill="#000000" fill-rule="nonzero" fill-opacity="1" /><path clip-path="url(#clip280)" d="M565.672 236.536 Q562.061 236.536 560.232 240.101 Q558.427 243.643 558.427 250.772 Q558.427 257.879 560.232 261.444 Q562.061 264.985 565.672 264.985 Q569.306 264.985 571.112 261.444 Q572.941 257.879 572.941 250.772 Q572.941 243.643 571.112 240.101 Q569.306 236.536 565.672 236.536 M565.672 232.833 Q571.482 232.833 574.538 237.439 Q577.616 242.022 577.616 250.772 Q577.616 259.499 574.538 264.106 Q571.482 268.689 565.672 268.689 Q559.862 268.689 556.783 264.106 Q553.728 259.499 553.728 250.772 Q553.728 242.022 556.783 237.439 Q559.862 232.833 565.672 232.833 Z" fill="#000000" fill-rule="nonzero" fill-opacity="1" /><path clip-path="url(#clip280)" d="M585.788 246.49 L615.464 246.49 L615.464 250.379 L585.788 250.379 L585.788 246.49 M585.788 255.934 L615.464 255.934 L615.464 259.869 L585.788 259.869 L585.788 255.934 Z" fill="#000000" fill-rule="nonzero" fill-opacity="1" /><path clip-path="url(#clip280)" d="M635.556 236.536 Q631.945 236.536 630.116 240.101 Q628.311 243.643 628.311 250.772 Q628.311 257.879 630.116 261.444 Q631.945 264.985 635.556 264.985 Q639.19 264.985 640.996 261.444 Q642.824 257.879 642.824 250.772 Q642.824 243.643 640.996 240.101 Q639.19 236.536 635.556 236.536 M635.556 232.833 Q641.366 232.833 644.422 237.439 Q647.5 242.022 647.5 250.772 Q647.5 259.499 644.422 264.106 Q641.366 268.689 635.556 268.689 Q629.746 268.689 626.667 264.106 Q623.612 259.499 623.612 250.772 Q623.612 242.022 626.667 237.439 Q629.746 232.833 635.556 232.833 Z" fill="#000000" fill-rule="nonzero" fill-opacity="1" /><path clip-path="url(#clip280)" d="M655.718 262.138 L660.602 262.138 L660.602 268.018 L655.718 268.018 L655.718 262.138 Z" fill="#000000" fill-rule="nonzero" fill-opacity="1" /><path clip-path="url(#clip280)" d="M674.815 264.082 L691.134 264.082 L691.134 268.018 L669.19 268.018 L669.19 264.082 Q671.852 261.328 676.435 256.698 Q681.042 252.045 682.222 250.703 Q684.468 248.18 685.347 246.444 Q686.25 244.684 686.25 242.995 Q686.25 240.24 684.306 238.504 Q682.384 236.768 679.283 236.768 Q677.084 236.768 674.63 237.532 Q672.199 238.295 669.422 239.846 L669.422 235.124 Q672.246 233.99 674.699 233.411 Q677.153 232.833 679.19 232.833 Q684.56 232.833 687.755 235.518 Q690.949 238.203 690.949 242.694 Q690.949 244.823 690.139 246.745 Q689.352 248.643 687.246 251.235 Q686.667 251.907 683.565 255.124 Q680.463 258.319 674.815 264.082 Z" fill="#000000" fill-rule="nonzero" fill-opacity="1" /><path clip-path="url(#clip280)" d="M701.088 267.3 L701.088 263.041 Q702.847 263.874 704.653 264.314 Q706.458 264.754 708.194 264.754 Q712.824 264.754 715.255 261.652 Q717.708 258.527 718.056 252.184 Q716.713 254.175 714.653 255.24 Q712.593 256.305 710.093 256.305 Q704.907 256.305 701.875 253.18 Q698.866 250.032 698.866 244.592 Q698.866 239.268 702.014 236.05 Q705.162 232.833 710.394 232.833 Q716.389 232.833 719.537 237.439 Q722.708 242.022 722.708 250.772 Q722.708 258.944 718.819 263.828 Q714.954 268.689 708.403 268.689 Q706.644 268.689 704.838 268.342 Q703.032 267.994 701.088 267.3 M710.394 252.647 Q713.542 252.647 715.37 250.494 Q717.222 248.342 717.222 244.592 Q717.222 240.865 715.37 238.712 Q713.542 236.536 710.394 236.536 Q707.245 236.536 705.394 238.712 Q703.565 240.865 703.565 244.592 Q703.565 248.342 705.394 250.494 Q707.245 252.647 710.394 252.647 Z" fill="#000000" fill-rule="nonzero" fill-opacity="1" /><path clip-path="url(#clip280)" d="M731.157 233.458 L749.514 233.458 L749.514 237.393 L735.44 237.393 L735.44 245.865 Q736.458 245.518 737.477 245.356 Q738.495 245.17 739.514 245.17 Q745.301 245.17 748.68 248.342 Q752.06 251.513 752.06 256.93 Q752.06 262.508 748.588 265.61 Q745.116 268.689 738.796 268.689 Q736.62 268.689 734.352 268.318 Q732.106 267.948 729.699 267.207 L729.699 262.508 Q731.782 263.643 734.005 264.198 Q736.227 264.754 738.704 264.754 Q742.708 264.754 745.046 262.647 Q747.384 260.541 747.384 256.93 Q747.384 253.319 745.046 251.212 Q742.708 249.106 738.704 249.106 Q736.829 249.106 734.954 249.522 Q733.102 249.939 731.157 250.819 L731.157 233.458 Z" fill="#000000" fill-rule="nonzero" fill-opacity="1" /><path clip-path="url(#clip280)" d="M760 232.046 L763.703 232.046 Q767.176 237.508 768.889 242.74 Q770.625 247.971 770.625 253.133 Q770.625 258.319 768.889 263.573 Q767.176 268.828 763.703 274.268 L760 274.268 Q763.078 268.967 764.583 263.735 Q766.111 258.481 766.111 253.133 Q766.111 247.786 764.583 242.578 Q763.078 237.37 760 232.046 Z" fill="#000000" fill-rule="nonzero" fill-opacity="1" /><polyline clip-path="url(#clip280)" style="stroke:#00a9ad; stroke-linecap:round; stroke-linejoin:round; stroke-width:8; stroke-opacity:1; fill:none" points="280.571,302.578 425.142,302.578 "/>
<path clip-path="url(#clip280)" d="M449.238 283.839 L453.52 283.839 L453.52 305.112 L466.228 293.932 L471.668 293.932 L457.918 306.061 L472.247 319.858 L466.691 319.858 L453.52 307.196 L453.52 319.858 L449.238 319.858 L449.238 283.839 Z" fill="#000000" fill-rule="nonzero" fill-opacity="1" /><path clip-path="url(#clip280)" d="M481.066 286.571 L481.066 293.932 L489.839 293.932 L489.839 297.242 L481.066 297.242 L481.066 311.316 Q481.066 314.487 481.923 315.39 Q482.802 316.293 485.464 316.293 L489.839 316.293 L489.839 319.858 L485.464 319.858 Q480.534 319.858 478.659 318.029 Q476.784 316.177 476.784 311.316 L476.784 297.242 L473.659 297.242 L473.659 293.932 L476.784 293.932 L476.784 286.571 L481.066 286.571 Z" fill="#000000" fill-rule="nonzero" fill-opacity="1" /><path clip-path="url(#clip280)" d="M520.742 283.886 Q517.64 289.21 516.135 294.418 Q514.631 299.626 514.631 304.973 Q514.631 310.321 516.135 315.575 Q517.663 320.807 520.742 326.108 L517.038 326.108 Q513.566 320.668 511.83 315.413 Q510.117 310.159 510.117 304.973 Q510.117 299.811 511.83 294.58 Q513.543 289.348 517.038 283.886 L520.742 283.886 Z" fill="#000000" fill-rule="nonzero" fill-opacity="1" /><path clip-path="url(#clip280)" d="M547.663 294.927 L547.663 298.909 Q545.857 297.913 544.029 297.427 Q542.223 296.918 540.371 296.918 Q536.228 296.918 533.936 299.557 Q531.645 302.172 531.645 306.918 Q531.645 311.663 533.936 314.302 Q536.228 316.918 540.371 316.918 Q542.223 316.918 544.029 316.432 Q545.857 315.922 547.663 314.927 L547.663 318.862 Q545.881 319.696 543.959 320.112 Q542.061 320.529 539.908 320.529 Q534.052 320.529 530.603 316.848 Q527.154 313.168 527.154 306.918 Q527.154 300.575 530.626 296.941 Q534.121 293.307 540.186 293.307 Q542.154 293.307 544.029 293.723 Q545.904 294.117 547.663 294.927 Z" fill="#000000" fill-rule="nonzero" fill-opacity="1" /><path clip-path="url(#clip280)" d="M565.672 288.376 Q562.061 288.376 560.232 291.941 Q558.427 295.483 558.427 302.612 Q558.427 309.719 560.232 313.284 Q562.061 316.825 565.672 316.825 Q569.306 316.825 571.112 313.284 Q572.941 309.719 572.941 302.612 Q572.941 295.483 571.112 291.941 Q569.306 288.376 565.672 288.376 M565.672 284.673 Q571.482 284.673 574.538 289.279 Q577.616 293.862 577.616 302.612 Q577.616 311.339 574.538 315.946 Q571.482 320.529 565.672 320.529 Q559.862 320.529 556.783 315.946 Q553.728 311.339 553.728 302.612 Q553.728 293.862 556.783 289.279 Q559.862 284.673 565.672 284.673 Z" fill="#000000" fill-rule="nonzero" fill-opacity="1" /><path clip-path="url(#clip280)" d="M585.788 298.33 L615.464 298.33 L615.464 302.219 L585.788 302.219 L585.788 298.33 M585.788 307.774 L615.464 307.774 L615.464 311.709 L585.788 311.709 L585.788 307.774 Z" fill="#000000" fill-rule="nonzero" fill-opacity="1" /><path clip-path="url(#clip280)" d="M635.556 288.376 Q631.945 288.376 630.116 291.941 Q628.311 295.483 628.311 302.612 Q628.311 309.719 630.116 313.284 Q631.945 316.825 635.556 316.825 Q639.19 316.825 640.996 313.284 Q642.824 309.719 642.824 302.612 Q642.824 295.483 640.996 291.941 Q639.19 288.376 635.556 288.376 M635.556 284.673 Q641.366 284.673 644.422 289.279 Q647.5 293.862 647.5 302.612 Q647.5 311.339 644.422 315.946 Q641.366 320.529 635.556 320.529 Q629.746 320.529 626.667 315.946 Q623.612 311.339 623.612 302.612 Q623.612 293.862 626.667 289.279 Q629.746 284.673 635.556 284.673 Z" fill="#000000" fill-rule="nonzero" fill-opacity="1" /><path clip-path="url(#clip280)" d="M655.718 313.978 L660.602 313.978 L660.602 319.858 L655.718 319.858 L655.718 313.978 Z" fill="#000000" fill-rule="nonzero" fill-opacity="1" /><path clip-path="url(#clip280)" d="M684.954 301.223 Q688.31 301.941 690.185 304.209 Q692.083 306.478 692.083 309.811 Q692.083 314.927 688.565 317.728 Q685.046 320.529 678.565 320.529 Q676.389 320.529 674.074 320.089 Q671.783 319.672 669.329 318.816 L669.329 314.302 Q671.273 315.436 673.588 316.015 Q675.903 316.594 678.426 316.594 Q682.824 316.594 685.116 314.858 Q687.431 313.121 687.431 309.811 Q687.431 306.756 685.278 305.043 Q683.148 303.307 679.329 303.307 L675.301 303.307 L675.301 299.464 L679.514 299.464 Q682.963 299.464 684.792 298.098 Q686.621 296.71 686.621 294.117 Q686.621 291.455 684.722 290.043 Q682.847 288.608 679.329 288.608 Q677.408 288.608 675.209 289.024 Q673.009 289.441 670.371 290.321 L670.371 286.154 Q673.033 285.413 675.347 285.043 Q677.685 284.673 679.746 284.673 Q685.07 284.673 688.171 287.103 Q691.273 289.51 691.273 293.631 Q691.273 296.501 689.63 298.492 Q687.986 300.46 684.954 301.223 Z" fill="#000000" fill-rule="nonzero" fill-opacity="1" /><path clip-path="url(#clip280)" d="M700.995 285.298 L719.352 285.298 L719.352 289.233 L705.278 289.233 L705.278 297.705 Q706.296 297.358 707.315 297.196 Q708.333 297.01 709.352 297.01 Q715.139 297.01 718.519 300.182 Q721.898 303.353 721.898 308.77 Q721.898 314.348 718.426 317.45 Q714.954 320.529 708.634 320.529 Q706.458 320.529 704.19 320.158 Q701.945 319.788 699.537 319.047 L699.537 314.348 Q701.62 315.483 703.843 316.038 Q706.065 316.594 708.542 316.594 Q712.546 316.594 714.884 314.487 Q717.222 312.381 717.222 308.77 Q717.222 305.159 714.884 303.052 Q712.546 300.946 708.542 300.946 Q706.667 300.946 704.792 301.362 Q702.94 301.779 700.995 302.659 L700.995 285.298 Z" fill="#000000" fill-rule="nonzero" fill-opacity="1" /><path clip-path="url(#clip280)" d="M735.139 315.922 L751.458 315.922 L751.458 319.858 L729.514 319.858 L729.514 315.922 Q732.176 313.168 736.759 308.538 Q741.366 303.885 742.546 302.543 Q744.792 300.02 745.671 298.284 Q746.574 296.524 746.574 294.835 Q746.574 292.08 744.629 290.344 Q742.708 288.608 739.606 288.608 Q737.407 288.608 734.954 289.372 Q732.523 290.135 729.745 291.686 L729.745 286.964 Q732.569 285.83 735.023 285.251 Q737.477 284.673 739.514 284.673 Q744.884 284.673 748.079 287.358 Q751.273 290.043 751.273 294.534 Q751.273 296.663 750.463 298.585 Q749.676 300.483 747.569 303.075 Q746.991 303.747 743.889 306.964 Q740.787 310.159 735.139 315.922 Z" fill="#000000" fill-rule="nonzero" fill-opacity="1" /><path clip-path="url(#clip280)" d="M761.412 319.14 L761.412 314.881 Q763.171 315.714 764.977 316.154 Q766.782 316.594 768.518 316.594 Q773.148 316.594 775.578 313.492 Q778.032 310.367 778.379 304.024 Q777.037 306.015 774.977 307.08 Q772.916 308.145 770.416 308.145 Q765.231 308.145 762.199 305.02 Q759.19 301.872 759.19 296.432 Q759.19 291.108 762.338 287.89 Q765.486 284.673 770.717 284.673 Q776.713 284.673 779.861 289.279 Q783.032 293.862 783.032 302.612 Q783.032 310.784 779.143 315.668 Q775.277 320.529 768.727 320.529 Q766.967 320.529 765.162 320.182 Q763.356 319.834 761.412 319.14 M770.717 304.487 Q773.865 304.487 775.694 302.334 Q777.546 300.182 777.546 296.432 Q777.546 292.705 775.694 290.552 Q773.865 288.376 770.717 288.376 Q767.569 288.376 765.717 290.552 Q763.889 292.705 763.889 296.432 Q763.889 300.182 765.717 302.334 Q767.569 304.487 770.717 304.487 Z" fill="#000000" fill-rule="nonzero" fill-opacity="1" /><path clip-path="url(#clip280)" d="M804.282 289.372 L792.476 307.821 L804.282 307.821 L804.282 289.372 M803.055 285.298 L808.935 285.298 L808.935 307.821 L813.865 307.821 L813.865 311.709 L808.935 311.709 L808.935 319.858 L804.282 319.858 L804.282 311.709 L788.68 311.709 L788.68 307.196 L803.055 285.298 Z" fill="#000000" fill-rule="nonzero" fill-opacity="1" /><path clip-path="url(#clip280)" d="M821.643 285.298 L839.999 285.298 L839.999 289.233 L825.925 289.233 L825.925 297.705 Q826.944 297.358 827.962 297.196 Q828.981 297.01 829.999 297.01 Q835.786 297.01 839.166 300.182 Q842.546 303.353 842.546 308.77 Q842.546 314.348 839.073 317.45 Q835.601 320.529 829.282 320.529 Q827.106 320.529 824.837 320.158 Q822.592 319.788 820.185 319.047 L820.185 314.348 Q822.268 315.483 824.49 316.038 Q826.712 316.594 829.189 316.594 Q833.194 316.594 835.532 314.487 Q837.87 312.381 837.87 308.77 Q837.87 305.159 835.532 303.052 Q833.194 300.946 829.189 300.946 Q827.314 300.946 825.439 301.362 Q823.587 301.779 821.643 302.659 L821.643 285.298 Z" fill="#000000" fill-rule="nonzero" fill-opacity="1" /><path clip-path="url(#clip280)" d="M851.805 285.298 L870.161 285.298 L870.161 289.233 L856.087 289.233 L856.087 297.705 Q857.106 297.358 858.124 297.196 Q859.143 297.01 860.161 297.01 Q865.948 297.01 869.328 300.182 Q872.707 303.353 872.707 308.77 Q872.707 314.348 869.235 317.45 Q865.763 320.529 859.444 320.529 Q857.268 320.529 854.999 320.158 Q852.754 319.788 850.347 319.047 L850.347 314.348 Q852.43 315.483 854.652 316.038 Q856.874 316.594 859.351 316.594 Q863.356 316.594 865.694 314.487 Q868.032 312.381 868.032 308.77 Q868.032 305.159 865.694 303.052 Q863.356 300.946 859.351 300.946 Q857.476 300.946 855.601 301.362 Q853.749 301.779 851.805 302.659 L851.805 285.298 Z" fill="#000000" fill-rule="nonzero" fill-opacity="1" /><path clip-path="url(#clip280)" d="M881.967 285.298 L900.323 285.298 L900.323 289.233 L886.249 289.233 L886.249 297.705 Q887.268 297.358 888.286 297.196 Q889.305 297.01 890.323 297.01 Q896.11 297.01 899.49 300.182 Q902.869 303.353 902.869 308.77 Q902.869 314.348 899.397 317.45 Q895.925 320.529 889.606 320.529 Q887.43 320.529 885.161 320.158 Q882.916 319.788 880.508 319.047 L880.508 314.348 Q882.592 315.483 884.814 316.038 Q887.036 316.594 889.513 316.594 Q893.518 316.594 895.856 314.487 Q898.193 312.381 898.193 308.77 Q898.193 305.159 895.856 303.052 Q893.518 300.946 889.513 300.946 Q887.638 300.946 885.763 301.362 Q883.911 301.779 881.967 302.659 L881.967 285.298 Z" fill="#000000" fill-rule="nonzero" fill-opacity="1" /><path clip-path="url(#clip280)" d="M924.929 289.372 L913.124 307.821 L924.929 307.821 L924.929 289.372 M923.703 285.298 L929.582 285.298 L929.582 307.821 L934.513 307.821 L934.513 311.709 L929.582 311.709 L929.582 319.858 L924.929 319.858 L924.929 311.709 L909.328 311.709 L909.328 307.196 L923.703 285.298 Z" fill="#000000" fill-rule="nonzero" fill-opacity="1" /><path clip-path="url(#clip280)" d="M946.272 315.922 L962.591 315.922 L962.591 319.858 L940.647 319.858 L940.647 315.922 Q943.309 313.168 947.892 308.538 Q952.499 303.885 953.679 302.543 Q955.925 300.02 956.804 298.284 Q957.707 296.524 957.707 294.835 Q957.707 292.08 955.763 290.344 Q953.841 288.608 950.739 288.608 Q948.54 288.608 946.087 289.372 Q943.656 290.135 940.878 291.686 L940.878 286.964 Q943.702 285.83 946.156 285.251 Q948.61 284.673 950.647 284.673 Q956.017 284.673 959.212 287.358 Q962.406 290.043 962.406 294.534 Q962.406 296.663 961.596 298.585 Q960.809 300.483 958.702 303.075 Q958.124 303.747 955.022 306.964 Q951.92 310.159 946.272 315.922 Z" fill="#000000" fill-rule="nonzero" fill-opacity="1" /><path clip-path="url(#clip280)" d="M972.452 285.298 L990.809 285.298 L990.809 289.233 L976.735 289.233 L976.735 297.705 Q977.753 297.358 978.772 297.196 Q979.79 297.01 980.809 297.01 Q986.596 297.01 989.975 300.182 Q993.355 303.353 993.355 308.77 Q993.355 314.348 989.883 317.45 Q986.411 320.529 980.091 320.529 Q977.915 320.529 975.647 320.158 Q973.401 319.788 970.994 319.047 L970.994 314.348 Q973.077 315.483 975.3 316.038 Q977.522 316.594 979.999 316.594 Q984.003 316.594 986.341 314.487 Q988.679 312.381 988.679 308.77 Q988.679 305.159 986.341 303.052 Q984.003 300.946 979.999 300.946 Q978.124 300.946 976.249 301.362 Q974.397 301.779 972.452 302.659 L972.452 285.298 Z" fill="#000000" fill-rule="nonzero" fill-opacity="1" /><path clip-path="url(#clip280)" d="M1013.15 300.714 Q1010 300.714 1008.15 302.867 Q1006.32 305.02 1006.32 308.77 Q1006.32 312.496 1008.15 314.672 Q1010 316.825 1013.15 316.825 Q1016.29 316.825 1018.12 314.672 Q1019.98 312.496 1019.98 308.77 Q1019.98 305.02 1018.12 302.867 Q1016.29 300.714 1013.15 300.714 M1022.43 286.061 L1022.43 290.321 Q1020.67 289.487 1018.86 289.048 Q1017.08 288.608 1015.32 288.608 Q1010.69 288.608 1008.24 291.733 Q1005.81 294.858 1005.46 301.177 Q1006.83 299.163 1008.89 298.098 Q1010.95 297.01 1013.42 297.01 Q1018.63 297.01 1021.64 300.182 Q1024.67 303.33 1024.67 308.77 Q1024.67 314.094 1021.53 317.311 Q1018.38 320.529 1013.15 320.529 Q1007.15 320.529 1003.98 315.946 Q1000.81 311.339 1000.81 302.612 Q1000.81 294.418 1004.7 289.557 Q1008.59 284.673 1015.14 284.673 Q1016.9 284.673 1018.68 285.02 Q1020.48 285.367 1022.43 286.061 Z" fill="#000000" fill-rule="nonzero" fill-opacity="1" /><path clip-path="url(#clip280)" d="M1045.58 289.372 L1033.77 307.821 L1045.58 307.821 L1045.58 289.372 M1044.35 285.298 L1050.23 285.298 L1050.23 307.821 L1055.16 307.821 L1055.16 311.709 L1050.23 311.709 L1050.23 319.858 L1045.58 319.858 L1045.58 311.709 L1029.98 311.709 L1029.98 307.196 L1044.35 285.298 Z" fill="#000000" fill-rule="nonzero" fill-opacity="1" /><path clip-path="url(#clip280)" d="M1077.06 301.223 Q1080.41 301.941 1082.29 304.209 Q1084.19 306.478 1084.19 309.811 Q1084.19 314.927 1080.67 317.728 Q1077.15 320.529 1070.67 320.529 Q1068.49 320.529 1066.18 320.089 Q1063.89 319.672 1061.43 318.816 L1061.43 314.302 Q1063.38 315.436 1065.69 316.015 Q1068.01 316.594 1070.53 316.594 Q1074.93 316.594 1077.22 314.858 Q1079.54 313.121 1079.54 309.811 Q1079.54 306.756 1077.38 305.043 Q1075.25 303.307 1071.43 303.307 L1067.41 303.307 L1067.41 299.464 L1071.62 299.464 Q1075.07 299.464 1076.9 298.098 Q1078.72 296.71 1078.72 294.117 Q1078.72 291.455 1076.83 290.043 Q1074.95 288.608 1071.43 288.608 Q1069.51 288.608 1067.31 289.024 Q1065.11 289.441 1062.47 290.321 L1062.47 286.154 Q1065.14 285.413 1067.45 285.043 Q1069.79 284.673 1071.85 284.673 Q1077.17 284.673 1080.28 287.103 Q1083.38 289.51 1083.38 293.631 Q1083.38 296.501 1081.73 298.492 Q1080.09 300.46 1077.06 301.223 Z" fill="#000000" fill-rule="nonzero" fill-opacity="1" /><path clip-path="url(#clip280)" d="M1093.19 319.14 L1093.19 314.881 Q1094.95 315.714 1096.76 316.154 Q1098.56 316.594 1100.3 316.594 Q1104.93 316.594 1107.36 313.492 Q1109.81 310.367 1110.16 304.024 Q1108.82 306.015 1106.76 307.08 Q1104.7 308.145 1102.2 308.145 Q1097.01 308.145 1093.98 305.02 Q1090.97 301.872 1090.97 296.432 Q1090.97 291.108 1094.12 287.89 Q1097.27 284.673 1102.5 284.673 Q1108.49 284.673 1111.64 289.279 Q1114.81 293.862 1114.81 302.612 Q1114.81 310.784 1110.92 315.668 Q1107.06 320.529 1100.51 320.529 Q1098.75 320.529 1096.94 320.182 Q1095.14 319.834 1093.19 319.14 M1102.5 304.487 Q1105.65 304.487 1107.47 302.334 Q1109.33 300.182 1109.33 296.432 Q1109.33 292.705 1107.47 290.552 Q1105.65 288.376 1102.5 288.376 Q1099.35 288.376 1097.5 290.552 Q1095.67 292.705 1095.67 296.432 Q1095.67 300.182 1097.5 302.334 Q1099.35 304.487 1102.5 304.487 Z" fill="#000000" fill-rule="nonzero" fill-opacity="1" /><path clip-path="url(#clip280)" d="M1127.24 315.922 L1143.56 315.922 L1143.56 319.858 L1121.62 319.858 L1121.62 315.922 Q1124.28 313.168 1128.86 308.538 Q1133.47 303.885 1134.65 302.543 Q1136.9 300.02 1137.78 298.284 Q1138.68 296.524 1138.68 294.835 Q1138.68 292.08 1136.73 290.344 Q1134.81 288.608 1131.71 288.608 Q1129.51 288.608 1127.06 289.372 Q1124.63 290.135 1121.85 291.686 L1121.85 286.964 Q1124.67 285.83 1127.13 285.251 Q1129.58 284.673 1131.62 284.673 Q1136.99 284.673 1140.18 287.358 Q1143.38 290.043 1143.38 294.534 Q1143.38 296.663 1142.57 298.585 Q1141.78 300.483 1139.67 303.075 Q1139.09 303.747 1135.99 306.964 Q1132.89 310.159 1127.24 315.922 Z" fill="#000000" fill-rule="nonzero" fill-opacity="1" /><path clip-path="url(#clip280)" d="M1153.42 285.298 L1171.78 285.298 L1171.78 289.233 L1157.71 289.233 L1157.71 297.705 Q1158.72 297.358 1159.74 297.196 Q1160.76 297.01 1161.78 297.01 Q1167.57 297.01 1170.95 300.182 Q1174.33 303.353 1174.33 308.77 Q1174.33 314.348 1170.85 317.45 Q1167.38 320.529 1161.06 320.529 Q1158.89 320.529 1156.62 320.158 Q1154.37 319.788 1151.97 319.047 L1151.97 314.348 Q1154.05 315.483 1156.27 316.038 Q1158.49 316.594 1160.97 316.594 Q1164.97 316.594 1167.31 314.487 Q1169.65 312.381 1169.65 308.77 Q1169.65 305.159 1167.31 303.052 Q1164.97 300.946 1160.97 300.946 Q1159.09 300.946 1157.22 301.362 Q1155.37 301.779 1153.42 302.659 L1153.42 285.298 Z" fill="#000000" fill-rule="nonzero" fill-opacity="1" /><path clip-path="url(#clip280)" d="M1182.27 283.886 L1185.97 283.886 Q1189.44 289.348 1191.15 294.58 Q1192.89 299.811 1192.89 304.973 Q1192.89 310.159 1191.15 315.413 Q1189.44 320.668 1185.97 326.108 L1182.27 326.108 Q1185.34 320.807 1186.85 315.575 Q1188.38 310.321 1188.38 304.973 Q1188.38 299.626 1186.85 294.418 Q1185.34 289.21 1182.27 283.886 Z" fill="#000000" fill-rule="nonzero" fill-opacity="1" /><polyline clip-path="url(#clip280)" style="stroke:#ed5d92; stroke-linecap:round; stroke-linejoin:round; stroke-width:8; stroke-opacity:1; fill:none" points="280.571,354.418 425.142,354.418 "/>
<path clip-path="url(#clip280)" d="M449.238 335.679 L453.52 335.679 L453.52 356.952 L466.228 345.772 L471.668 345.772 L457.918 357.901 L472.247 371.698 L466.691 371.698 L453.52 359.036 L453.52 371.698 L449.238 371.698 L449.238 335.679 Z" fill="#000000" fill-rule="nonzero" fill-opacity="1" /><path clip-path="url(#clip280)" d="M481.066 338.411 L481.066 345.772 L489.839 345.772 L489.839 349.082 L481.066 349.082 L481.066 363.156 Q481.066 366.327 481.923 367.23 Q482.802 368.133 485.464 368.133 L489.839 368.133 L489.839 371.698 L485.464 371.698 Q480.534 371.698 478.659 369.869 Q476.784 368.017 476.784 363.156 L476.784 349.082 L473.659 349.082 L473.659 345.772 L476.784 345.772 L476.784 338.411 L481.066 338.411 Z" fill="#000000" fill-rule="nonzero" fill-opacity="1" /><path clip-path="url(#clip280)" d="M520.742 335.726 Q517.64 341.05 516.135 346.258 Q514.631 351.466 514.631 356.813 Q514.631 362.161 516.135 367.415 Q517.663 372.647 520.742 377.948 L517.038 377.948 Q513.566 372.508 511.83 367.253 Q510.117 361.999 510.117 356.813 Q510.117 351.651 511.83 346.42 Q513.543 341.188 517.038 335.726 L520.742 335.726 Z" fill="#000000" fill-rule="nonzero" fill-opacity="1" /><path clip-path="url(#clip280)" d="M547.663 346.767 L547.663 350.749 Q545.857 349.753 544.029 349.267 Q542.223 348.758 540.371 348.758 Q536.228 348.758 533.936 351.397 Q531.645 354.012 531.645 358.758 Q531.645 363.503 533.936 366.142 Q536.228 368.758 540.371 368.758 Q542.223 368.758 544.029 368.272 Q545.857 367.762 547.663 366.767 L547.663 370.702 Q545.881 371.536 543.959 371.952 Q542.061 372.369 539.908 372.369 Q534.052 372.369 530.603 368.688 Q527.154 365.008 527.154 358.758 Q527.154 352.415 530.626 348.781 Q534.121 345.147 540.186 345.147 Q542.154 345.147 544.029 345.563 Q545.904 345.957 547.663 346.767 Z" fill="#000000" fill-rule="nonzero" fill-opacity="1" /><path clip-path="url(#clip280)" d="M565.672 340.216 Q562.061 340.216 560.232 343.781 Q558.427 347.323 558.427 354.452 Q558.427 361.559 560.232 365.124 Q562.061 368.665 565.672 368.665 Q569.306 368.665 571.112 365.124 Q572.941 361.559 572.941 354.452 Q572.941 347.323 571.112 343.781 Q569.306 340.216 565.672 340.216 M565.672 336.513 Q571.482 336.513 574.538 341.119 Q577.616 345.702 577.616 354.452 Q577.616 363.179 574.538 367.786 Q571.482 372.369 565.672 372.369 Q559.862 372.369 556.783 367.786 Q553.728 363.179 553.728 354.452 Q553.728 345.702 556.783 341.119 Q559.862 336.513 565.672 336.513 Z" fill="#000000" fill-rule="nonzero" fill-opacity="1" /><path clip-path="url(#clip280)" d="M585.788 350.17 L615.464 350.17 L615.464 354.059 L585.788 354.059 L585.788 350.17 M585.788 359.614 L615.464 359.614 L615.464 363.549 L585.788 363.549 L585.788 359.614 Z" fill="#000000" fill-rule="nonzero" fill-opacity="1" /><path clip-path="url(#clip280)" d="M635.556 340.216 Q631.945 340.216 630.116 343.781 Q628.311 347.323 628.311 354.452 Q628.311 361.559 630.116 365.124 Q631.945 368.665 635.556 368.665 Q639.19 368.665 640.996 365.124 Q642.824 361.559 642.824 354.452 Q642.824 347.323 640.996 343.781 Q639.19 340.216 635.556 340.216 M635.556 336.513 Q641.366 336.513 644.422 341.119 Q647.5 345.702 647.5 354.452 Q647.5 363.179 644.422 367.786 Q641.366 372.369 635.556 372.369 Q629.746 372.369 626.667 367.786 Q623.612 363.179 623.612 354.452 Q623.612 345.702 626.667 341.119 Q629.746 336.513 635.556 336.513 Z" fill="#000000" fill-rule="nonzero" fill-opacity="1" /><path clip-path="url(#clip280)" d="M655.718 365.818 L660.602 365.818 L660.602 371.698 L655.718 371.698 L655.718 365.818 Z" fill="#000000" fill-rule="nonzero" fill-opacity="1" /><path clip-path="url(#clip280)" d="M683.634 341.212 L671.829 359.661 L683.634 359.661 L683.634 341.212 M682.408 337.138 L688.287 337.138 L688.287 359.661 L693.218 359.661 L693.218 363.549 L688.287 363.549 L688.287 371.698 L683.634 371.698 L683.634 363.549 L668.033 363.549 L668.033 359.036 L682.408 337.138 Z" fill="#000000" fill-rule="nonzero" fill-opacity="1" /><path clip-path="url(#clip280)" d="M699.676 335.726 L703.38 335.726 Q706.852 341.188 708.565 346.42 Q710.301 351.651 710.301 356.813 Q710.301 361.999 708.565 367.253 Q706.852 372.508 703.38 377.948 L699.676 377.948 Q702.755 372.647 704.259 367.415 Q705.787 362.161 705.787 356.813 Q705.787 351.466 704.259 346.258 Q702.755 341.05 699.676 335.726 Z" fill="#000000" fill-rule="nonzero" fill-opacity="1" /></svg>