<?xml version="1.0" encoding="utf-8"?>
<svg xmlns="http://www.w3.org/2000/svg" xmlns:xlink="http://www.w3.org/1999/xlink" width="600" height="400" viewBox="0 0 2400 1600">
<defs>
  <clipPath id="clip700">
    <rect x="0" y="0" width="2400" height="1600"/>
  </clipPath>
</defs>
<path clip-path="url(#clip700)" d="M0 1600 L2400 1600 L2400 0 L0 0  Z" fill="#ffffff" fill-rule="evenodd" fill-opacity="1"/>
<defs>
  <clipPath id="clip701">
    <rect x="480" y="0" width="1681" height="1600"/>
  </clipPath>
</defs>
<path clip-path="url(#clip700)" d="M169.121 1486.45 L1152.51 1486.45 L1152.51 47.2441 L169.121 47.2441  Z" fill="#ffffff" fill-rule="evenodd" fill-opacity="1"/>
<defs>
  <clipPath id="clip702">
    <rect x="169" y="47" width="984" height="1440"/>
  </clipPath>
</defs>
<polyline clip-path="url(#clip702)" style="stroke:#000000; stroke-linecap:round; stroke-linejoin:round; stroke-width:2; stroke-opacity:0.1; fill:none" points="196.953,1486.45 196.953,47.2441 "/>
<polyline clip-path="url(#clip702)" style="stroke:#000000; stroke-linecap:round; stroke-linejoin:round; stroke-width:2; stroke-opacity:0.1; fill:none" points="506.196,1486.45 506.196,47.2441 "/>
<polyline clip-path="url(#clip702)" style="stroke:#000000; stroke-linecap:round; stroke-linejoin:round; stroke-width:2; stroke-opacity:0.1; fill:none" points="815.438,1486.45 815.438,47.2441 "/>
<polyline clip-path="url(#clip702)" style="stroke:#000000; stroke-linecap:round; stroke-linejoin:round; stroke-width:2; stroke-opacity:0.1; fill:none" points="1124.68,1486.45 1124.68,47.2441 "/>
<polyline clip-path="url(#clip700)" style="stroke:#000000; stroke-linecap:round; stroke-linejoin:round; stroke-width:4; stroke-opacity:1; fill:none" points="169.121,1486.45 1152.51,1486.45 "/>
<polyline clip-path="url(#clip700)" style="stroke:#000000; stroke-linecap:round; stroke-linejoin:round; stroke-width:4; stroke-opacity:1; fill:none" points="196.953,1486.45 196.953,1467.55 "/>
<polyline clip-path="url(#clip700)" style="stroke:#000000; stroke-linecap:round; stroke-linejoin:round; stroke-width:4; stroke-opacity:1; fill:none" points="506.196,1486.45 506.196,1467.55 "/>
<polyline clip-path="url(#clip700)" style="stroke:#000000; stroke-linecap:round; stroke-linejoin:round; stroke-width:4; stroke-opacity:1; fill:none" points="815.438,1486.45 815.438,1467.55 "/>
<polyline clip-path="url(#clip700)" style="stroke:#000000; stroke-linecap:round; stroke-linejoin:round; stroke-width:4; stroke-opacity:1; fill:none" points="1124.68,1486.45 1124.68,1467.55 "/>
<path clip-path="url(#clip700)" d="M187.335 1544.91 L194.974 1544.91 L194.974 1518.55 L186.664 1520.21 L186.664 1515.95 L194.928 1514.29 L199.604 1514.29 L199.604 1544.91 L207.242 1544.91 L207.242 1548.85 L187.335 1548.85 L187.335 1544.91 Z" fill="#000000" fill-rule="nonzero" fill-opacity="1" /><path clip-path="url(#clip700)" d="M500.849 1544.91 L517.168 1544.91 L517.168 1548.85 L495.224 1548.85 L495.224 1544.91 Q497.886 1542.16 502.469 1537.53 Q507.075 1532.88 508.256 1531.53 Q510.501 1529.01 511.381 1527.27 Q512.284 1525.51 512.284 1523.82 Q512.284 1521.07 510.339 1519.33 Q508.418 1517.6 505.316 1517.6 Q503.117 1517.6 500.663 1518.36 Q498.233 1519.13 495.455 1520.68 L495.455 1515.95 Q498.279 1514.82 500.733 1514.24 Q503.187 1513.66 505.224 1513.66 Q510.594 1513.66 513.788 1516.35 Q516.983 1519.03 516.983 1523.52 Q516.983 1525.65 516.173 1527.57 Q515.386 1529.47 513.279 1532.07 Q512.7 1532.74 509.599 1535.95 Q506.497 1539.15 500.849 1544.91 Z" fill="#000000" fill-rule="nonzero" fill-opacity="1" /><path clip-path="url(#clip700)" d="M819.686 1530.21 Q823.043 1530.93 824.918 1533.2 Q826.816 1535.47 826.816 1538.8 Q826.816 1543.92 823.297 1546.72 Q819.779 1549.52 813.297 1549.52 Q811.121 1549.52 808.806 1549.08 Q806.515 1548.66 804.061 1547.81 L804.061 1543.29 Q806.006 1544.43 808.32 1545.01 Q810.635 1545.58 813.158 1545.58 Q817.556 1545.58 819.848 1543.85 Q822.163 1542.11 822.163 1538.8 Q822.163 1535.75 820.01 1534.03 Q817.881 1532.3 814.061 1532.3 L810.033 1532.3 L810.033 1528.45 L814.246 1528.45 Q817.695 1528.45 819.524 1527.09 Q821.353 1525.7 821.353 1523.11 Q821.353 1520.45 819.455 1519.03 Q817.58 1517.6 814.061 1517.6 Q812.14 1517.6 809.941 1518.01 Q807.742 1518.43 805.103 1519.31 L805.103 1515.14 Q807.765 1514.4 810.08 1514.03 Q812.418 1513.66 814.478 1513.66 Q819.802 1513.66 822.904 1516.09 Q826.005 1518.5 826.005 1522.62 Q826.005 1525.49 824.362 1527.48 Q822.718 1529.45 819.686 1530.21 Z" fill="#000000" fill-rule="nonzero" fill-opacity="1" /><path clip-path="url(#clip700)" d="M1127.69 1518.36 L1115.88 1536.81 L1127.69 1536.81 L1127.69 1518.36 M1126.46 1514.29 L1132.34 1514.29 L1132.34 1536.81 L1137.27 1536.81 L1137.27 1540.7 L1132.34 1540.7 L1132.34 1548.85 L1127.69 1548.85 L1127.69 1540.7 L1112.09 1540.7 L1112.09 1536.19 L1126.46 1514.29 Z" fill="#000000" fill-rule="nonzero" fill-opacity="1" /><polyline clip-path="url(#clip702)" style="stroke:#000000; stroke-linecap:round; stroke-linejoin:round; stroke-width:2; stroke-opacity:0.1; fill:none" points="169.121,1445.72 1152.51,1445.72 "/>
<polyline clip-path="url(#clip702)" style="stroke:#000000; stroke-linecap:round; stroke-linejoin:round; stroke-width:2; stroke-opacity:0.1; fill:none" points="169.121,993.136 1152.51,993.136 "/>
<polyline clip-path="url(#clip702)" style="stroke:#000000; stroke-linecap:round; stroke-linejoin:round; stroke-width:2; stroke-opacity:0.1; fill:none" points="169.121,540.556 1152.51,540.556 "/>
<polyline clip-path="url(#clip702)" style="stroke:#000000; stroke-linecap:round; stroke-linejoin:round; stroke-width:2; stroke-opacity:0.1; fill:none" points="169.121,87.9763 1152.51,87.9763 "/>
<polyline clip-path="url(#clip700)" style="stroke:#000000; stroke-linecap:round; stroke-linejoin:round; stroke-width:4; stroke-opacity:1; fill:none" points="169.121,1486.45 169.121,47.2441 "/>
<polyline clip-path="url(#clip700)" style="stroke:#000000; stroke-linecap:round; stroke-linejoin:round; stroke-width:4; stroke-opacity:1; fill:none" points="169.121,1445.72 188.019,1445.72 "/>
<polyline clip-path="url(#clip700)" style="stroke:#000000; stroke-linecap:round; stroke-linejoin:round; stroke-width:4; stroke-opacity:1; fill:none" points="169.121,993.136 188.019,993.136 "/>
<polyline clip-path="url(#clip700)" style="stroke:#000000; stroke-linecap:round; stroke-linejoin:round; stroke-width:4; stroke-opacity:1; fill:none" points="169.121,540.556 188.019,540.556 "/>
<polyline clip-path="url(#clip700)" style="stroke:#000000; stroke-linecap:round; stroke-linejoin:round; stroke-width:4; stroke-opacity:1; fill:none" points="169.121,87.9763 188.019,87.9763 "/>
<path clip-path="url(#clip700)" d="M121.177 1431.51 Q117.566 1431.51 115.737 1435.08 Q113.932 1438.62 113.932 1445.75 Q113.932 1452.86 115.737 1456.42 Q117.566 1459.96 121.177 1459.96 Q124.811 1459.96 126.617 1456.42 Q128.445 1452.86 128.445 1445.75 Q128.445 1438.62 126.617 1435.08 Q124.811 1431.51 121.177 1431.51 M121.177 1427.81 Q126.987 1427.81 130.043 1432.42 Q133.121 1437 133.121 1445.75 Q133.121 1454.48 130.043 1459.08 Q126.987 1463.67 121.177 1463.67 Q115.367 1463.67 112.288 1459.08 Q109.233 1454.48 109.233 1445.75 Q109.233 1437 112.288 1432.42 Q115.367 1427.81 121.177 1427.81 Z" fill="#000000" fill-rule="nonzero" fill-opacity="1" /><path clip-path="url(#clip700)" d="M81.0614 975.856 L99.4178 975.856 L99.4178 979.791 L85.3438 979.791 L85.3438 988.263 Q86.3623 987.916 87.3808 987.754 Q88.3993 987.569 89.4178 987.569 Q95.2049 987.569 98.5845 990.74 Q101.964 993.911 101.964 999.328 Q101.964 1004.91 98.4919 1008.01 Q95.0197 1011.09 88.7003 1011.09 Q86.5243 1011.09 84.2558 1010.72 Q82.0105 1010.35 79.6031 1009.61 L79.6031 1004.91 Q81.6864 1006.04 83.9086 1006.6 Q86.1308 1007.15 88.6077 1007.15 Q92.6123 1007.15 94.9502 1005.05 Q97.2882 1002.94 97.2882 999.328 Q97.2882 995.717 94.9502 993.61 Q92.6123 991.504 88.6077 991.504 Q86.7327 991.504 84.8577 991.921 Q83.0058 992.337 81.0614 993.217 L81.0614 975.856 Z" fill="#000000" fill-rule="nonzero" fill-opacity="1" /><path clip-path="url(#clip700)" d="M121.177 978.935 Q117.566 978.935 115.737 982.499 Q113.932 986.041 113.932 993.171 Q113.932 1000.28 115.737 1003.84 Q117.566 1007.38 121.177 1007.38 Q124.811 1007.38 126.617 1003.84 Q128.445 1000.28 128.445 993.171 Q128.445 986.041 126.617 982.499 Q124.811 978.935 121.177 978.935 M121.177 975.231 Q126.987 975.231 130.043 979.837 Q133.121 984.421 133.121 993.171 Q133.121 1001.9 130.043 1006.5 Q126.987 1011.09 121.177 1011.09 Q115.367 1011.09 112.288 1006.5 Q109.233 1001.9 109.233 993.171 Q109.233 984.421 112.288 979.837 Q115.367 975.231 121.177 975.231 Z" fill="#000000" fill-rule="nonzero" fill-opacity="1" /><path clip-path="url(#clip700)" d="M51.6634 553.901 L59.3023 553.901 L59.3023 527.535 L50.9921 529.202 L50.9921 524.943 L59.256 523.276 L63.9319 523.276 L63.9319 553.901 L71.5707 553.901 L71.5707 557.836 L51.6634 557.836 L51.6634 553.901 Z" fill="#000000" fill-rule="nonzero" fill-opacity="1" /><path clip-path="url(#clip700)" d="M91.0151 526.355 Q87.404 526.355 85.5753 529.92 Q83.7697 533.461 83.7697 540.591 Q83.7697 547.697 85.5753 551.262 Q87.404 554.804 91.0151 554.804 Q94.6493 554.804 96.4548 551.262 Q98.2835 547.697 98.2835 540.591 Q98.2835 533.461 96.4548 529.92 Q94.6493 526.355 91.0151 526.355 M91.0151 522.651 Q96.8252 522.651 99.8808 527.258 Q102.959 531.841 102.959 540.591 Q102.959 549.318 99.8808 553.924 Q96.8252 558.507 91.0151 558.507 Q85.2049 558.507 82.1262 553.924 Q79.0707 549.318 79.0707 540.591 Q79.0707 531.841 82.1262 527.258 Q85.2049 522.651 91.0151 522.651 Z" fill="#000000" fill-rule="nonzero" fill-opacity="1" /><path clip-path="url(#clip700)" d="M121.177 526.355 Q117.566 526.355 115.737 529.92 Q113.932 533.461 113.932 540.591 Q113.932 547.697 115.737 551.262 Q117.566 554.804 121.177 554.804 Q124.811 554.804 126.617 551.262 Q128.445 547.697 128.445 540.591 Q128.445 533.461 126.617 529.92 Q124.811 526.355 121.177 526.355 M121.177 522.651 Q126.987 522.651 130.043 527.258 Q133.121 531.841 133.121 540.591 Q133.121 549.318 130.043 553.924 Q126.987 558.507 121.177 558.507 Q115.367 558.507 112.288 553.924 Q109.233 549.318 109.233 540.591 Q109.233 531.841 112.288 527.258 Q115.367 522.651 121.177 522.651 Z" fill="#000000" fill-rule="nonzero" fill-opacity="1" /><path clip-path="url(#clip700)" d="M51.6634 101.321 L59.3023 101.321 L59.3023 74.9555 L50.9921 76.6222 L50.9921 72.3629 L59.256 70.6963 L63.9319 70.6963 L63.9319 101.321 L71.5707 101.321 L71.5707 105.256 L51.6634 105.256 L51.6634 101.321 Z" fill="#000000" fill-rule="nonzero" fill-opacity="1" /><path clip-path="url(#clip700)" d="M81.0614 70.6963 L99.4178 70.6963 L99.4178 74.6314 L85.3438 74.6314 L85.3438 83.1036 Q86.3623 82.7564 87.3808 82.5944 Q88.3993 82.4092 89.4178 82.4092 Q95.2049 82.4092 98.5845 85.5805 Q101.964 88.7517 101.964 94.1684 Q101.964 99.747 98.4919 102.849 Q95.0197 105.928 88.7003 105.928 Q86.5243 105.928 84.2558 105.557 Q82.0105 105.187 79.6031 104.446 L79.6031 99.747 Q81.6864 100.881 83.9086 101.437 Q86.1308 101.992 88.6077 101.992 Q92.6123 101.992 94.9502 99.8859 Q97.2882 97.7795 97.2882 94.1684 Q97.2882 90.5573 94.9502 88.4508 Q92.6123 86.3443 88.6077 86.3443 Q86.7327 86.3443 84.8577 86.761 Q83.0058 87.1777 81.0614 88.0573 L81.0614 70.6963 Z" fill="#000000" fill-rule="nonzero" fill-opacity="1" /><path clip-path="url(#clip700)" d="M121.177 73.775 Q117.566 73.775 115.737 77.3398 Q113.932 80.8814 113.932 88.011 Q113.932 95.1174 115.737 98.6822 Q117.566 102.224 121.177 102.224 Q124.811 102.224 126.617 98.6822 Q128.445 95.1174 128.445 88.011 Q128.445 80.8814 126.617 77.3398 Q124.811 73.775 121.177 73.775 M121.177 70.0713 Q126.987 70.0713 130.043 74.6777 Q133.121 79.261 133.121 88.011 Q133.121 96.7378 130.043 101.344 Q126.987 105.928 121.177 105.928 Q115.367 105.928 112.288 101.344 Q109.233 96.7378 109.233 88.011 Q109.233 79.261 112.288 74.6777 Q115.367 70.0713 121.177 70.0713 Z" fill="#000000" fill-rule="nonzero" fill-opacity="1" /><polyline clip-path="url(#clip702)" style="stroke:#009af9; stroke-linecap:round; stroke-linejoin:round; stroke-width:4; stroke-opacity:1; fill:none" points="196.953,87.9763 506.196,544.72 815.438,997.238 1124.68,1445.72 "/>
<polyline clip-path="url(#clip702)" style="stroke:#e26f46; stroke-linecap:round; stroke-linejoin:round; stroke-width:4; stroke-opacity:1; fill:none" points="196.953,87.9763 506.196,527.277 815.438,979.677 1124.68,1445.72 "/>
<polyline clip-path="url(#clip702)" style="stroke:#3da44d; stroke-linecap:round; stroke-linejoin:round; stroke-width:4; stroke-opacity:1; fill:none" points="196.953,87.9763 506.196,524.376 815.438,976.742 1124.68,1445.72 "/>
<polyline clip-path="url(#clip702)" style="stroke:#c271d2; stroke-linecap:round; stroke-linejoin:round; stroke-width:4; stroke-opacity:1; fill:none" points="196.953,87.9763 506.196,524.014 815.438,976.374 1124.68,1445.72 "/>
<polyline clip-path="url(#clip702)" style="stroke:#ac8d18; stroke-linecap:round; stroke-linejoin:round; stroke-width:4; stroke-opacity:1; fill:none" points="196.953,87.9763 506.196,523.739 815.438,976.031 1124.68,1445.72 "/>
<path clip-path="url(#clip700)" d="M952.621 406.258 L1119.73 406.258 L1119.73 95.2176 L952.621 95.2176  Z" fill="#ffffff" fill-rule="evenodd" fill-opacity="1"/>
<polyline clip-path="url(#clip700)" style="stroke:#000000; stroke-linecap:round; stroke-linejoin:round; stroke-width:4; stroke-opacity:1; fill:none" points="952.621,406.258 1119.73,406.258 1119.73,95.2176 952.621,95.2176 952.621,406.258 "/>
<polyline clip-path="url(#clip700)" style="stroke:#009af9; stroke-linecap:round; stroke-linejoin:round; stroke-width:4; stroke-opacity:1; fill:none" points="963.548,147.058 1029.11,147.058 "/>
<path clip-path="url(#clip700)" d="M1051.98 132.856 Q1048.37 132.856 1046.54 136.421 Q1044.73 139.963 1044.73 147.092 Q1044.73 154.199 1046.54 157.764 Q1048.37 161.305 1051.98 161.305 Q1055.61 161.305 1057.42 157.764 Q1059.25 154.199 1059.25 147.092 Q1059.25 139.963 1057.42 136.421 Q1055.61 132.856 1051.98 132.856 M1051.98 129.153 Q1057.79 129.153 1060.84 133.759 Q1063.92 138.342 1063.92 147.092 Q1063.92 155.819 1060.84 160.426 Q1057.79 165.009 1051.98 165.009 Q1046.17 165.009 1043.09 160.426 Q1040.03 155.819 1040.03 147.092 Q1040.03 138.342 1043.09 133.759 Q1046.17 129.153 1051.98 129.153 Z" fill="#000000" fill-rule="nonzero" fill-opacity="1" /><path clip-path="url(#clip700)" d="M1072.14 158.458 L1077.02 158.458 L1077.02 164.338 L1072.14 164.338 L1072.14 158.458 Z" fill="#000000" fill-rule="nonzero" fill-opacity="1" /><path clip-path="url(#clip700)" d="M1088.02 160.402 L1095.66 160.402 L1095.66 134.037 L1087.35 135.703 L1087.35 131.444 L1095.61 129.778 L1100.29 129.778 L1100.29 160.402 L1107.93 160.402 L1107.93 164.338 L1088.02 164.338 L1088.02 160.402 Z" fill="#000000" fill-rule="nonzero" fill-opacity="1" /><polyline clip-path="url(#clip700)" style="stroke:#e26f46; stroke-linecap:round; stroke-linejoin:round; stroke-width:4; stroke-opacity:1; fill:none" points="963.548,198.898 1029.11,198.898 "/>
<path clip-path="url(#clip700)" d="M1051.98 184.696 Q1048.37 184.696 1046.54 188.261 Q1044.73 191.803 1044.73 198.932 Q1044.73 206.039 1046.54 209.604 Q1048.37 213.145 1051.98 213.145 Q1055.61 213.145 1057.42 209.604 Q1059.25 206.039 1059.25 198.932 Q1059.25 191.803 1057.42 188.261 Q1055.61 184.696 1051.98 184.696 M1051.98 180.993 Q1057.79 180.993 1060.84 185.599 Q1063.92 190.182 1063.92 198.932 Q1063.92 207.659 1060.84 212.266 Q1057.79 216.849 1051.98 216.849 Q1046.17 216.849 1043.09 212.266 Q1040.03 207.659 1040.03 198.932 Q1040.03 190.182 1043.09 185.599 Q1046.17 180.993 1051.98 180.993 Z" fill="#000000" fill-rule="nonzero" fill-opacity="1" /><path clip-path="url(#clip700)" d="M1072.14 210.298 L1077.02 210.298 L1077.02 216.178 L1072.14 216.178 L1072.14 210.298 Z" fill="#000000" fill-rule="nonzero" fill-opacity="1" /><path clip-path="url(#clip700)" d="M1087.26 181.618 L1105.61 181.618 L1105.61 185.553 L1091.54 185.553 L1091.54 194.025 Q1092.56 193.678 1093.58 193.516 Q1094.59 193.33 1095.61 193.33 Q1101.4 193.33 1104.78 196.502 Q1108.16 199.673 1108.16 205.09 Q1108.16 210.668 1104.69 213.77 Q1101.21 216.849 1094.89 216.849 Q1092.72 216.849 1090.45 216.478 Q1088.2 216.108 1085.8 215.367 L1085.8 210.668 Q1087.88 211.803 1090.1 212.358 Q1092.33 212.914 1094.8 212.914 Q1098.81 212.914 1101.14 210.807 Q1103.48 208.701 1103.48 205.09 Q1103.48 201.479 1101.14 199.372 Q1098.81 197.266 1094.8 197.266 Q1092.93 197.266 1091.05 197.682 Q1089.2 198.099 1087.26 198.979 L1087.26 181.618 Z" fill="#000000" fill-rule="nonzero" fill-opacity="1" /><polyline clip-path="url(#clip700)" style="stroke:#3da44d; stroke-linecap:round; stroke-linejoin:round; stroke-width:4; stroke-opacity:1; fill:none" points="963.548,250.738 1029.11,250.738 "/>
<path clip-path="url(#clip700)" d="M1040.71 264.082 L1048.34 264.082 L1048.34 237.717 L1040.03 239.383 L1040.03 235.124 L1048.3 233.458 L1052.97 233.458 L1052.97 264.082 L1060.61 264.082 L1060.61 268.018 L1040.71 268.018 L1040.71 264.082 Z" fill="#000000" fill-rule="nonzero" fill-opacity="1" /><path clip-path="url(#clip700)" d="M1070.06 262.138 L1074.94 262.138 L1074.94 268.018 L1070.06 268.018 L1070.06 262.138 Z" fill="#000000" fill-rule="nonzero" fill-opacity="1" /><path clip-path="url(#clip700)" d="M1085.17 233.458 L1103.53 233.458 L1103.53 237.393 L1089.45 237.393 L1089.45 245.865 Q1090.47 245.518 1091.49 245.356 Q1092.51 245.17 1093.53 245.17 Q1099.32 245.17 1102.7 248.342 Q1106.08 251.513 1106.08 256.93 Q1106.08 262.508 1102.6 265.61 Q1099.13 268.689 1092.81 268.689 Q1090.64 268.689 1088.37 268.318 Q1086.12 267.948 1083.71 267.207 L1083.71 262.508 Q1085.8 263.643 1088.02 264.198 Q1090.24 264.754 1092.72 264.754 Q1096.72 264.754 1099.06 262.647 Q1101.4 260.541 1101.4 256.93 Q1101.4 253.319 1099.06 251.212 Q1096.72 249.106 1092.72 249.106 Q1090.84 249.106 1088.97 249.522 Q1087.12 249.939 1085.17 250.819 L1085.17 233.458 Z" fill="#000000" fill-rule="nonzero" fill-opacity="1" /><polyline clip-path="url(#clip700)" style="stroke:#c271d2; stroke-linecap:round; stroke-linejoin:round; stroke-width:4; stroke-opacity:1; fill:none" points="963.548,302.578 1029.11,302.578 "/>
<path clip-path="url(#clip700)" d="M1045.66 315.922 L1061.98 315.922 L1061.98 319.858 L1040.03 319.858 L1040.03 315.922 Q1042.7 313.168 1047.28 308.538 Q1051.89 303.885 1053.07 302.543 Q1055.31 300.02 1056.19 298.284 Q1057.09 296.524 1057.09 294.835 Q1057.09 292.08 1055.15 290.344 Q1053.23 288.608 1050.13 288.608 Q1047.93 288.608 1045.47 289.372 Q1043.04 290.135 1040.27 291.686 L1040.27 286.964 Q1043.09 285.83 1045.54 285.251 Q1048 284.673 1050.03 284.673 Q1055.4 284.673 1058.6 287.358 Q1061.79 290.043 1061.79 294.534 Q1061.79 296.663 1060.98 298.585 Q1060.2 300.483 1058.09 303.075 Q1057.51 303.747 1054.41 306.964 Q1051.31 310.159 1045.66 315.922 Z" fill="#000000" fill-rule="nonzero" fill-opacity="1" /><path clip-path="url(#clip700)" d="M1071.79 313.978 L1076.68 313.978 L1076.68 319.858 L1071.79 319.858 L1071.79 313.978 Z" fill="#000000" fill-rule="nonzero" fill-opacity="1" /><path clip-path="url(#clip700)" d="M1096.86 288.376 Q1093.25 288.376 1091.42 291.941 Q1089.62 295.483 1089.62 302.612 Q1089.62 309.719 1091.42 313.284 Q1093.25 316.825 1096.86 316.825 Q1100.5 316.825 1102.3 313.284 Q1104.13 309.719 1104.13 302.612 Q1104.13 295.483 1102.3 291.941 Q1100.5 288.376 1096.86 288.376 M1096.86 284.673 Q1102.67 284.673 1105.73 289.279 Q1108.81 293.862 1108.81 302.612 Q1108.81 311.339 1105.73 315.946 Q1102.67 320.529 1096.86 320.529 Q1091.05 320.529 1087.97 315.946 Q1084.92 311.339 1084.92 302.612 Q1084.92 293.862 1087.97 289.279 Q1091.05 284.673 1096.86 284.673 Z" fill="#000000" fill-rule="nonzero" fill-opacity="1" /><polyline clip-path="url(#clip700)" style="stroke:#ac8d18; stroke-linecap:round; stroke-linejoin:round; stroke-width:4; stroke-opacity:1; fill:none" points="963.548,354.418 1029.11,354.418 "/>
<path clip-path="url(#clip700)" d="M1045.66 367.762 L1061.98 367.762 L1061.98 371.698 L1040.03 371.698 L1040.03 367.762 Q1042.7 365.008 1047.28 360.378 Q1051.89 355.725 1053.07 354.383 Q1055.31 351.86 1056.19 350.124 Q1057.09 348.364 1057.09 346.675 Q1057.09 343.92 1055.15 342.184 Q1053.23 340.448 1050.13 340.448 Q1047.93 340.448 1045.47 341.212 Q1043.04 341.975 1040.27 343.526 L1040.27 338.804 Q1043.09 337.67 1045.54 337.091 Q1048 336.513 1050.03 336.513 Q1055.4 336.513 1058.6 339.198 Q1061.79 341.883 1061.79 346.374 Q1061.79 348.503 1060.98 350.425 Q1060.2 352.323 1058.09 354.915 Q1057.51 355.587 1054.41 358.804 Q1051.31 361.999 1045.66 367.762 Z" fill="#000000" fill-rule="nonzero" fill-opacity="1" /><path clip-path="url(#clip700)" d="M1071.79 365.818 L1076.68 365.818 L1076.68 371.698 L1071.79 371.698 L1071.79 365.818 Z" fill="#000000" fill-rule="nonzero" fill-opacity="1" /><path clip-path="url(#clip700)" d="M1086.91 337.138 L1105.26 337.138 L1105.26 341.073 L1091.19 341.073 L1091.19 349.545 Q1092.21 349.198 1093.23 349.036 Q1094.25 348.85 1095.26 348.85 Q1101.05 348.85 1104.43 352.022 Q1107.81 355.193 1107.81 360.61 Q1107.81 366.188 1104.34 369.29 Q1100.87 372.369 1094.55 372.369 Q1092.37 372.369 1090.1 371.998 Q1087.86 371.628 1085.45 370.887 L1085.45 366.188 Q1087.53 367.323 1089.76 367.878 Q1091.98 368.434 1094.45 368.434 Q1098.46 368.434 1100.8 366.327 Q1103.14 364.221 1103.14 360.61 Q1103.14 356.999 1100.8 354.892 Q1098.46 352.786 1094.45 352.786 Q1092.58 352.786 1090.7 353.202 Q1088.85 353.619 1086.91 354.499 L1086.91 337.138 Z" fill="#000000" fill-rule="nonzero" fill-opacity="1" /><path clip-path="url(#clip700)" d="M1369.36 1486.45 L2352.76 1486.45 L2352.76 47.2441 L1369.36 47.2441  Z" fill="#ffffff" fill-rule="evenodd" fill-opacity="1"/>
<defs>
  <clipPath id="clip703">
    <rect x="1369" y="47" width="984" height="1440"/>
  </clipPath>
</defs>
<polyline clip-path="url(#clip703)" style="stroke:#000000; stroke-linecap:round; stroke-linejoin:round; stroke-width:2; stroke-opacity:0.1; fill:none" points="1397.2,1486.45 1397.2,47.2441 "/>
<polyline clip-path="url(#clip703)" style="stroke:#000000; stroke-linecap:round; stroke-linejoin:round; stroke-width:2; stroke-opacity:0.1; fill:none" points="1629.13,1486.45 1629.13,47.2441 "/>
<polyline clip-path="url(#clip703)" style="stroke:#000000; stroke-linecap:round; stroke-linejoin:round; stroke-width:2; stroke-opacity:0.1; fill:none" points="1861.06,1486.45 1861.06,47.2441 "/>
<polyline clip-path="url(#clip703)" style="stroke:#000000; stroke-linecap:round; stroke-linejoin:round; stroke-width:2; stroke-opacity:0.1; fill:none" points="2092.99,1486.45 2092.99,47.2441 "/>
<polyline clip-path="url(#clip703)" style="stroke:#000000; stroke-linecap:round; stroke-linejoin:round; stroke-width:2; stroke-opacity:0.1; fill:none" points="2324.92,1486.45 2324.92,47.2441 "/>
<polyline clip-path="url(#clip700)" style="stroke:#000000; stroke-linecap:round; stroke-linejoin:round; stroke-width:4; stroke-opacity:1; fill:none" points="1369.36,1486.45 2352.76,1486.45 "/>
<polyline clip-path="url(#clip700)" style="stroke:#000000; stroke-linecap:round; stroke-linejoin:round; stroke-width:4; stroke-opacity:1; fill:none" points="1397.2,1486.45 1397.2,1467.55 "/>
<polyline clip-path="url(#clip700)" style="stroke:#000000; stroke-linecap:round; stroke-linejoin:round; stroke-width:4; stroke-opacity:1; fill:none" points="1629.13,1486.45 1629.13,1467.55 "/>
<polyline clip-path="url(#clip700)" style="stroke:#000000; stroke-linecap:round; stroke-linejoin:round; stroke-width:4; stroke-opacity:1; fill:none" points="1861.06,1486.45 1861.06,1467.55 "/>
<polyline clip-path="url(#clip700)" style="stroke:#000000; stroke-linecap:round; stroke-linejoin:round; stroke-width:4; stroke-opacity:1; fill:none" points="2092.99,1486.45 2092.99,1467.55 "/>
<polyline clip-path="url(#clip700)" style="stroke:#000000; stroke-linecap:round; stroke-linejoin:round; stroke-width:4; stroke-opacity:1; fill:none" points="2324.92,1486.45 2324.92,1467.55 "/>
<path clip-path="url(#clip700)" d="M1364.35 1544.91 L1371.99 1544.91 L1371.99 1518.55 L1363.68 1520.21 L1363.68 1515.95 L1371.94 1514.29 L1376.62 1514.29 L1376.62 1544.91 L1384.26 1544.91 L1384.26 1548.85 L1364.35 1548.85 L1364.35 1544.91 Z" fill="#000000" fill-rule="nonzero" fill-opacity="1" /><path clip-path="url(#clip700)" d="M1393.7 1542.97 L1398.59 1542.97 L1398.59 1548.85 L1393.7 1548.85 L1393.7 1542.97 Z" fill="#000000" fill-rule="nonzero" fill-opacity="1" /><path clip-path="url(#clip700)" d="M1418.77 1517.37 Q1415.16 1517.37 1413.33 1520.93 Q1411.52 1524.47 1411.52 1531.6 Q1411.52 1538.71 1413.33 1542.27 Q1415.16 1545.82 1418.77 1545.82 Q1422.4 1545.82 1424.21 1542.27 Q1426.04 1538.71 1426.04 1531.6 Q1426.04 1524.47 1424.21 1520.93 Q1422.4 1517.37 1418.77 1517.37 M1418.77 1513.66 Q1424.58 1513.66 1427.64 1518.27 Q1430.71 1522.85 1430.71 1531.6 Q1430.71 1540.33 1427.64 1544.94 Q1424.58 1549.52 1418.77 1549.52 Q1412.96 1549.52 1409.88 1544.94 Q1406.83 1540.33 1406.83 1531.6 Q1406.83 1522.85 1409.88 1518.27 Q1412.96 1513.66 1418.77 1513.66 Z" fill="#000000" fill-rule="nonzero" fill-opacity="1" /><path clip-path="url(#clip700)" d="M1596.78 1544.91 L1604.42 1544.91 L1604.42 1518.55 L1596.11 1520.21 L1596.11 1515.95 L1604.37 1514.29 L1609.05 1514.29 L1609.05 1544.91 L1616.69 1544.91 L1616.69 1548.85 L1596.78 1548.85 L1596.78 1544.91 Z" fill="#000000" fill-rule="nonzero" fill-opacity="1" /><path clip-path="url(#clip700)" d="M1626.13 1542.97 L1631.01 1542.97 L1631.01 1548.85 L1626.13 1548.85 L1626.13 1542.97 Z" fill="#000000" fill-rule="nonzero" fill-opacity="1" /><path clip-path="url(#clip700)" d="M1641.25 1514.29 L1659.6 1514.29 L1659.6 1518.22 L1645.53 1518.22 L1645.53 1526.7 Q1646.55 1526.35 1647.57 1526.19 Q1648.58 1526 1649.6 1526 Q1655.39 1526 1658.77 1529.17 Q1662.15 1532.34 1662.15 1537.76 Q1662.15 1543.34 1658.68 1546.44 Q1655.2 1549.52 1648.89 1549.52 Q1646.71 1549.52 1644.44 1549.15 Q1642.2 1548.78 1639.79 1548.04 L1639.79 1543.34 Q1641.87 1544.47 1644.09 1545.03 Q1646.32 1545.58 1648.79 1545.58 Q1652.8 1545.58 1655.13 1543.48 Q1657.47 1541.37 1657.47 1537.76 Q1657.47 1534.15 1655.13 1532.04 Q1652.8 1529.94 1648.79 1529.94 Q1646.92 1529.94 1645.04 1530.35 Q1643.19 1530.77 1641.25 1531.65 L1641.25 1514.29 Z" fill="#000000" fill-rule="nonzero" fill-opacity="1" /><path clip-path="url(#clip700)" d="M1832.3 1544.91 L1848.62 1544.91 L1848.62 1548.85 L1826.67 1548.85 L1826.67 1544.91 Q1829.34 1542.16 1833.92 1537.53 Q1838.53 1532.88 1839.71 1531.53 Q1841.95 1529.01 1842.83 1527.27 Q1843.73 1525.51 1843.73 1523.82 Q1843.73 1521.07 1841.79 1519.33 Q1839.87 1517.6 1836.77 1517.6 Q1834.57 1517.6 1832.11 1518.36 Q1829.68 1519.13 1826.91 1520.68 L1826.91 1515.95 Q1829.73 1514.82 1832.18 1514.24 Q1834.64 1513.66 1836.67 1513.66 Q1842.04 1513.66 1845.24 1516.35 Q1848.43 1519.03 1848.43 1523.52 Q1848.43 1525.65 1847.62 1527.57 Q1846.84 1529.47 1844.73 1532.07 Q1844.15 1532.74 1841.05 1535.95 Q1837.95 1539.15 1832.3 1544.91 Z" fill="#000000" fill-rule="nonzero" fill-opacity="1" /><path clip-path="url(#clip700)" d="M1858.43 1542.97 L1863.32 1542.97 L1863.32 1548.85 L1858.43 1548.85 L1858.43 1542.97 Z" fill="#000000" fill-rule="nonzero" fill-opacity="1" /><path clip-path="url(#clip700)" d="M1883.5 1517.37 Q1879.89 1517.37 1878.06 1520.93 Q1876.26 1524.47 1876.26 1531.6 Q1876.26 1538.71 1878.06 1542.27 Q1879.89 1545.82 1883.5 1545.82 Q1887.14 1545.82 1888.94 1542.27 Q1890.77 1538.71 1890.77 1531.6 Q1890.77 1524.47 1888.94 1520.93 Q1887.14 1517.37 1883.5 1517.37 M1883.5 1513.66 Q1889.31 1513.66 1892.37 1518.27 Q1895.45 1522.85 1895.45 1531.6 Q1895.45 1540.33 1892.37 1544.94 Q1889.31 1549.52 1883.5 1549.52 Q1877.69 1549.52 1874.61 1544.94 Q1871.56 1540.33 1871.56 1531.6 Q1871.56 1522.85 1874.61 1518.27 Q1877.69 1513.66 1883.5 1513.66 Z" fill="#000000" fill-rule="nonzero" fill-opacity="1" /><path clip-path="url(#clip700)" d="M2064.73 1544.91 L2081.05 1544.91 L2081.05 1548.85 L2059.1 1548.85 L2059.1 1544.91 Q2061.77 1542.16 2066.35 1537.53 Q2070.96 1532.88 2072.14 1531.53 Q2074.38 1529.01 2075.26 1527.27 Q2076.16 1525.51 2076.16 1523.82 Q2076.16 1521.07 2074.22 1519.33 Q2072.3 1517.6 2069.2 1517.6 Q2067 1517.6 2064.54 1518.36 Q2062.11 1519.13 2059.33 1520.68 L2059.33 1515.95 Q2062.16 1514.82 2064.61 1514.24 Q2067.07 1513.66 2069.1 1513.66 Q2074.47 1513.66 2077.67 1516.35 Q2080.86 1519.03 2080.86 1523.52 Q2080.86 1525.65 2080.05 1527.57 Q2079.27 1529.47 2077.16 1532.07 Q2076.58 1532.74 2073.48 1535.95 Q2070.38 1539.15 2064.73 1544.91 Z" fill="#000000" fill-rule="nonzero" fill-opacity="1" /><path clip-path="url(#clip700)" d="M2090.86 1542.97 L2095.75 1542.97 L2095.75 1548.85 L2090.86 1548.85 L2090.86 1542.97 Z" fill="#000000" fill-rule="nonzero" fill-opacity="1" /><path clip-path="url(#clip700)" d="M2105.98 1514.29 L2124.33 1514.29 L2124.33 1518.22 L2110.26 1518.22 L2110.26 1526.7 Q2111.28 1526.35 2112.3 1526.19 Q2113.32 1526 2114.33 1526 Q2120.12 1526 2123.5 1529.17 Q2126.88 1532.34 2126.88 1537.76 Q2126.88 1543.34 2123.41 1546.44 Q2119.94 1549.52 2113.62 1549.52 Q2111.44 1549.52 2109.17 1549.15 Q2106.93 1548.78 2104.52 1548.04 L2104.52 1543.34 Q2106.6 1544.47 2108.83 1545.03 Q2111.05 1545.58 2113.52 1545.58 Q2117.53 1545.58 2119.87 1543.48 Q2122.2 1541.37 2122.2 1537.76 Q2122.2 1534.15 2119.87 1532.04 Q2117.53 1529.94 2113.52 1529.94 Q2111.65 1529.94 2109.77 1530.35 Q2107.92 1530.77 2105.98 1531.65 L2105.98 1514.29 Z" fill="#000000" fill-rule="nonzero" fill-opacity="1" /><path clip-path="url(#clip700)" d="M2306.23 1530.21 Q2309.59 1530.93 2311.46 1533.2 Q2313.36 1535.47 2313.36 1538.8 Q2313.36 1543.92 2309.84 1546.72 Q2306.32 1549.52 2299.84 1549.52 Q2297.67 1549.52 2295.35 1549.08 Q2293.06 1548.66 2290.61 1547.81 L2290.61 1543.29 Q2292.55 1544.43 2294.87 1545.01 Q2297.18 1545.58 2299.7 1545.58 Q2304.1 1545.58 2306.39 1543.85 Q2308.71 1542.11 2308.71 1538.8 Q2308.71 1535.75 2306.56 1534.03 Q2304.43 1532.3 2300.61 1532.3 L2296.58 1532.3 L2296.58 1528.45 L2300.79 1528.45 Q2304.24 1528.45 2306.07 1527.09 Q2307.9 1525.7 2307.9 1523.11 Q2307.9 1520.45 2306 1519.03 Q2304.13 1517.6 2300.61 1517.6 Q2298.69 1517.6 2296.49 1518.01 Q2294.29 1518.43 2291.65 1519.31 L2291.65 1515.14 Q2294.31 1514.4 2296.63 1514.03 Q2298.96 1513.66 2301.02 1513.66 Q2306.35 1513.66 2309.45 1516.09 Q2312.55 1518.5 2312.55 1522.62 Q2312.55 1525.49 2310.91 1527.48 Q2309.26 1529.45 2306.23 1530.21 Z" fill="#000000" fill-rule="nonzero" fill-opacity="1" /><path clip-path="url(#clip700)" d="M2322.23 1542.97 L2327.11 1542.97 L2327.11 1548.85 L2322.23 1548.85 L2322.23 1542.97 Z" fill="#000000" fill-rule="nonzero" fill-opacity="1" /><path clip-path="url(#clip700)" d="M2347.3 1517.37 Q2343.69 1517.37 2341.86 1520.93 Q2340.05 1524.47 2340.05 1531.6 Q2340.05 1538.71 2341.86 1542.27 Q2343.69 1545.82 2347.3 1545.82 Q2350.93 1545.82 2352.74 1542.27 Q2354.57 1538.71 2354.57 1531.6 Q2354.57 1524.47 2352.74 1520.93 Q2350.93 1517.37 2347.3 1517.37 M2347.3 1513.66 Q2353.11 1513.66 2356.16 1518.27 Q2359.24 1522.85 2359.24 1531.6 Q2359.24 1540.33 2356.16 1544.94 Q2353.11 1549.52 2347.3 1549.52 Q2341.49 1549.52 2338.41 1544.94 Q2335.35 1540.33 2335.35 1531.6 Q2335.35 1522.85 2338.41 1518.27 Q2341.49 1513.66 2347.3 1513.66 Z" fill="#000000" fill-rule="nonzero" fill-opacity="1" /><polyline clip-path="url(#clip703)" style="stroke:#000000; stroke-linecap:round; stroke-linejoin:round; stroke-width:2; stroke-opacity:0.1; fill:none" points="1369.36,1315.96 2352.76,1315.96 "/>
<polyline clip-path="url(#clip703)" style="stroke:#000000; stroke-linecap:round; stroke-linejoin:round; stroke-width:2; stroke-opacity:0.1; fill:none" points="1369.36,1040.63 2352.76,1040.63 "/>
<polyline clip-path="url(#clip703)" style="stroke:#000000; stroke-linecap:round; stroke-linejoin:round; stroke-width:2; stroke-opacity:0.1; fill:none" points="1369.36,765.305 2352.76,765.305 "/>
<polyline clip-path="url(#clip703)" style="stroke:#000000; stroke-linecap:round; stroke-linejoin:round; stroke-width:2; stroke-opacity:0.1; fill:none" points="1369.36,489.977 2352.76,489.977 "/>
<polyline clip-path="url(#clip703)" style="stroke:#000000; stroke-linecap:round; stroke-linejoin:round; stroke-width:2; stroke-opacity:0.1; fill:none" points="1369.36,214.648 2352.76,214.648 "/>
<polyline clip-path="url(#clip700)" style="stroke:#000000; stroke-linecap:round; stroke-linejoin:round; stroke-width:4; stroke-opacity:1; fill:none" points="1369.36,1486.45 1369.36,47.2441 "/>
<polyline clip-path="url(#clip700)" style="stroke:#000000; stroke-linecap:round; stroke-linejoin:round; stroke-width:4; stroke-opacity:1; fill:none" points="1369.36,1315.96 1388.26,1315.96 "/>
<polyline clip-path="url(#clip700)" style="stroke:#000000; stroke-linecap:round; stroke-linejoin:round; stroke-width:4; stroke-opacity:1; fill:none" points="1369.36,1040.63 1388.26,1040.63 "/>
<polyline clip-path="url(#clip700)" style="stroke:#000000; stroke-linecap:round; stroke-linejoin:round; stroke-width:4; stroke-opacity:1; fill:none" points="1369.36,765.305 1388.26,765.305 "/>
<polyline clip-path="url(#clip700)" style="stroke:#000000; stroke-linecap:round; stroke-linejoin:round; stroke-width:4; stroke-opacity:1; fill:none" points="1369.36,489.977 1388.26,489.977 "/>
<polyline clip-path="url(#clip700)" style="stroke:#000000; stroke-linecap:round; stroke-linejoin:round; stroke-width:4; stroke-opacity:1; fill:none" points="1369.36,214.648 1388.26,214.648 "/>
<path clip-path="url(#clip700)" d="M1253.5 1329.31 L1261.14 1329.31 L1261.14 1302.94 L1252.83 1304.61 L1252.83 1300.35 L1261.1 1298.68 L1265.77 1298.68 L1265.77 1329.31 L1273.41 1329.31 L1273.41 1333.24 L1253.5 1333.24 L1253.5 1329.31 Z" fill="#000000" fill-rule="nonzero" fill-opacity="1" /><path clip-path="url(#clip700)" d="M1282.9 1298.68 L1301.26 1298.68 L1301.26 1302.62 L1287.18 1302.62 L1287.18 1311.09 Q1288.2 1310.74 1289.22 1310.58 Q1290.24 1310.4 1291.26 1310.4 Q1297.05 1310.4 1300.42 1313.57 Q1303.8 1316.74 1303.8 1322.15 Q1303.8 1327.73 1300.33 1330.83 Q1296.86 1333.91 1290.54 1333.91 Q1288.36 1333.91 1286.1 1333.54 Q1283.85 1333.17 1281.44 1332.43 L1281.44 1327.73 Q1283.53 1328.87 1285.75 1329.42 Q1287.97 1329.98 1290.45 1329.98 Q1294.45 1329.98 1296.79 1327.87 Q1299.13 1325.77 1299.13 1322.15 Q1299.13 1318.54 1296.79 1316.44 Q1294.45 1314.33 1290.45 1314.33 Q1288.57 1314.33 1286.7 1314.75 Q1284.85 1315.16 1282.9 1316.04 L1282.9 1298.68 Z" fill="#000000" fill-rule="nonzero" fill-opacity="1" /><path clip-path="url(#clip700)" d="M1317.05 1329.31 L1333.36 1329.31 L1333.36 1333.24 L1311.42 1333.24 L1311.42 1329.31 Q1314.08 1326.55 1318.67 1321.92 Q1323.27 1317.27 1324.45 1315.93 Q1326.7 1313.4 1327.58 1311.67 Q1328.48 1309.91 1328.48 1308.22 Q1328.48 1305.46 1326.54 1303.73 Q1324.61 1301.99 1321.51 1301.99 Q1319.31 1301.99 1316.86 1302.76 Q1314.43 1303.52 1311.65 1305.07 L1311.65 1300.35 Q1314.48 1299.21 1316.93 1298.64 Q1319.38 1298.06 1321.42 1298.06 Q1326.79 1298.06 1329.98 1300.74 Q1333.18 1303.43 1333.18 1307.92 Q1333.18 1310.05 1332.37 1311.97 Q1331.58 1313.87 1329.48 1316.46 Q1328.9 1317.13 1325.79 1320.35 Q1322.69 1323.54 1317.05 1329.31 Z" fill="#000000" fill-rule="nonzero" fill-opacity="1" /><path clip-path="url(#clip700)" d="M1252.55 1053.98 L1260.19 1053.98 L1260.19 1027.61 L1251.88 1029.28 L1251.88 1025.02 L1260.15 1023.35 L1264.82 1023.35 L1264.82 1053.98 L1272.46 1053.98 L1272.46 1057.91 L1252.55 1057.91 L1252.55 1053.98 Z" fill="#000000" fill-rule="nonzero" fill-opacity="1" /><path clip-path="url(#clip700)" d="M1281.95 1023.35 L1300.31 1023.35 L1300.31 1027.29 L1286.23 1027.29 L1286.23 1035.76 Q1287.25 1035.41 1288.27 1035.25 Q1289.29 1035.07 1290.31 1035.07 Q1296.1 1035.07 1299.48 1038.24 Q1302.86 1041.41 1302.86 1046.83 Q1302.86 1052.4 1299.38 1055.51 Q1295.91 1058.58 1289.59 1058.58 Q1287.42 1058.58 1285.15 1058.21 Q1282.9 1057.84 1280.49 1057.1 L1280.49 1052.4 Q1282.58 1053.54 1284.8 1054.09 Q1287.02 1054.65 1289.5 1054.65 Q1293.5 1054.65 1295.84 1052.54 Q1298.18 1050.44 1298.18 1046.83 Q1298.18 1043.21 1295.84 1041.11 Q1293.5 1039 1289.5 1039 Q1287.62 1039 1285.75 1039.42 Q1283.9 1039.83 1281.95 1040.71 L1281.95 1023.35 Z" fill="#000000" fill-rule="nonzero" fill-opacity="1" /><path clip-path="url(#clip700)" d="M1326.23 1039.28 Q1329.59 1040 1331.47 1042.27 Q1333.36 1044.53 1333.36 1047.87 Q1333.36 1052.98 1329.85 1055.78 Q1326.33 1058.58 1319.85 1058.58 Q1317.67 1058.58 1315.36 1058.15 Q1313.06 1057.73 1310.61 1056.87 L1310.61 1052.36 Q1312.55 1053.49 1314.87 1054.07 Q1317.18 1054.65 1319.71 1054.65 Q1324.11 1054.65 1326.4 1052.91 Q1328.71 1051.18 1328.71 1047.87 Q1328.71 1044.81 1326.56 1043.1 Q1324.43 1041.36 1320.61 1041.36 L1316.58 1041.36 L1316.58 1037.52 L1320.79 1037.52 Q1324.24 1037.52 1326.07 1036.15 Q1327.9 1034.77 1327.9 1032.17 Q1327.9 1029.51 1326 1028.1 Q1324.13 1026.66 1320.61 1026.66 Q1318.69 1026.66 1316.49 1027.08 Q1314.29 1027.5 1311.65 1028.38 L1311.65 1024.21 Q1314.31 1023.47 1316.63 1023.1 Q1318.97 1022.73 1321.03 1022.73 Q1326.35 1022.73 1329.45 1025.16 Q1332.55 1027.57 1332.55 1031.69 Q1332.55 1034.56 1330.91 1036.55 Q1329.27 1038.52 1326.23 1039.28 Z" fill="#000000" fill-rule="nonzero" fill-opacity="1" /><path clip-path="url(#clip700)" d="M1251.42 778.65 L1259.06 778.65 L1259.06 752.284 L1250.75 753.951 L1250.75 749.692 L1259.01 748.025 L1263.69 748.025 L1263.69 778.65 L1271.33 778.65 L1271.33 782.585 L1251.42 782.585 L1251.42 778.65 Z" fill="#000000" fill-rule="nonzero" fill-opacity="1" /><path clip-path="url(#clip700)" d="M1280.82 748.025 L1299.17 748.025 L1299.17 751.96 L1285.1 751.96 L1285.1 760.432 Q1286.12 760.085 1287.14 759.923 Q1288.16 759.738 1289.17 759.738 Q1294.96 759.738 1298.34 762.909 Q1301.72 766.081 1301.72 771.497 Q1301.72 777.076 1298.25 780.178 Q1294.78 783.256 1288.46 783.256 Q1286.28 783.256 1284.01 782.886 Q1281.77 782.516 1279.36 781.775 L1279.36 777.076 Q1281.44 778.21 1283.67 778.766 Q1285.89 779.321 1288.36 779.321 Q1292.37 779.321 1294.71 777.215 Q1297.05 775.108 1297.05 771.497 Q1297.05 767.886 1294.71 765.78 Q1292.37 763.673 1288.36 763.673 Q1286.49 763.673 1284.61 764.09 Q1282.76 764.506 1280.82 765.386 L1280.82 748.025 Z" fill="#000000" fill-rule="nonzero" fill-opacity="1" /><path clip-path="url(#clip700)" d="M1323.78 752.099 L1311.98 770.548 L1323.78 770.548 L1323.78 752.099 M1322.55 748.025 L1328.43 748.025 L1328.43 770.548 L1333.36 770.548 L1333.36 774.437 L1328.43 774.437 L1328.43 782.585 L1323.78 782.585 L1323.78 774.437 L1308.18 774.437 L1308.18 769.923 L1322.55 748.025 Z" fill="#000000" fill-rule="nonzero" fill-opacity="1" /><path clip-path="url(#clip700)" d="M1252.9 503.321 L1260.54 503.321 L1260.54 476.956 L1252.23 478.622 L1252.23 474.363 L1260.49 472.697 L1265.17 472.697 L1265.17 503.321 L1272.81 503.321 L1272.81 507.257 L1252.9 507.257 L1252.9 503.321 Z" fill="#000000" fill-rule="nonzero" fill-opacity="1" /><path clip-path="url(#clip700)" d="M1282.3 472.697 L1300.66 472.697 L1300.66 476.632 L1286.58 476.632 L1286.58 485.104 Q1287.6 484.757 1288.62 484.595 Q1289.64 484.409 1290.66 484.409 Q1296.44 484.409 1299.82 487.581 Q1303.2 490.752 1303.2 496.169 Q1303.2 501.747 1299.73 504.849 Q1296.26 507.928 1289.94 507.928 Q1287.76 507.928 1285.49 507.557 Q1283.25 507.187 1280.84 506.446 L1280.84 501.747 Q1282.92 502.882 1285.15 503.437 Q1287.37 503.993 1289.85 503.993 Q1293.85 503.993 1296.19 501.886 Q1298.53 499.78 1298.53 496.169 Q1298.53 492.558 1296.19 490.451 Q1293.85 488.345 1289.85 488.345 Q1287.97 488.345 1286.1 488.761 Q1284.24 489.178 1282.3 490.058 L1282.3 472.697 Z" fill="#000000" fill-rule="nonzero" fill-opacity="1" /><path clip-path="url(#clip700)" d="M1312.46 472.697 L1330.82 472.697 L1330.82 476.632 L1316.74 476.632 L1316.74 485.104 Q1317.76 484.757 1318.78 484.595 Q1319.8 484.409 1320.82 484.409 Q1326.61 484.409 1329.98 487.581 Q1333.36 490.752 1333.36 496.169 Q1333.36 501.747 1329.89 504.849 Q1326.42 507.928 1320.1 507.928 Q1317.92 507.928 1315.66 507.557 Q1313.41 507.187 1311 506.446 L1311 501.747 Q1313.09 502.882 1315.31 503.437 Q1317.53 503.993 1320.01 503.993 Q1324.01 503.993 1326.35 501.886 Q1328.69 499.78 1328.69 496.169 Q1328.69 492.558 1326.35 490.451 Q1324.01 488.345 1320.01 488.345 Q1318.13 488.345 1316.26 488.761 Q1314.41 489.178 1312.46 490.058 L1312.46 472.697 Z" fill="#000000" fill-rule="nonzero" fill-opacity="1" /><path clip-path="url(#clip700)" d="M1251.74 227.993 L1259.38 227.993 L1259.38 201.627 L1251.07 203.294 L1251.07 199.035 L1259.34 197.368 L1264.01 197.368 L1264.01 227.993 L1271.65 227.993 L1271.65 231.928 L1251.74 231.928 L1251.74 227.993 Z" fill="#000000" fill-rule="nonzero" fill-opacity="1" /><path clip-path="url(#clip700)" d="M1281.14 197.368 L1299.5 197.368 L1299.5 201.303 L1285.42 201.303 L1285.42 209.775 Q1286.44 209.428 1287.46 209.266 Q1288.48 209.081 1289.5 209.081 Q1295.29 209.081 1298.67 212.252 Q1302.05 215.424 1302.05 220.84 Q1302.05 226.419 1298.57 229.521 Q1295.1 232.599 1288.78 232.599 Q1286.61 232.599 1284.34 232.229 Q1282.09 231.859 1279.68 231.118 L1279.68 226.419 Q1281.77 227.553 1283.99 228.109 Q1286.21 228.664 1288.69 228.664 Q1292.69 228.664 1295.03 226.558 Q1297.37 224.451 1297.37 220.84 Q1297.37 217.229 1295.03 215.123 Q1292.69 213.016 1288.69 213.016 Q1286.81 213.016 1284.94 213.433 Q1283.09 213.849 1281.14 214.729 L1281.14 197.368 Z" fill="#000000" fill-rule="nonzero" fill-opacity="1" /><path clip-path="url(#clip700)" d="M1321.84 212.785 Q1318.69 212.785 1316.84 214.937 Q1315.01 217.09 1315.01 220.84 Q1315.01 224.567 1316.84 226.743 Q1318.69 228.896 1321.84 228.896 Q1324.98 228.896 1326.81 226.743 Q1328.67 224.567 1328.67 220.84 Q1328.67 217.09 1326.81 214.937 Q1324.98 212.785 1321.84 212.785 M1331.12 198.132 L1331.12 202.391 Q1329.36 201.558 1327.55 201.118 Q1325.77 200.678 1324.01 200.678 Q1319.38 200.678 1316.93 203.803 Q1314.5 206.928 1314.15 213.248 Q1315.52 211.234 1317.58 210.169 Q1319.64 209.081 1322.11 209.081 Q1327.32 209.081 1330.33 212.252 Q1333.36 215.4 1333.36 220.84 Q1333.36 226.164 1330.22 229.382 Q1327.07 232.599 1321.84 232.599 Q1315.84 232.599 1312.67 228.016 Q1309.5 223.41 1309.5 214.683 Q1309.5 206.488 1313.39 201.627 Q1317.28 196.743 1323.83 196.743 Q1325.59 196.743 1327.37 197.09 Q1329.17 197.437 1331.12 198.132 Z" fill="#000000" fill-rule="nonzero" fill-opacity="1" /><polyline clip-path="url(#clip703)" style="stroke:#009af9; stroke-linecap:round; stroke-linejoin:round; stroke-width:4; stroke-opacity:1; fill:none" points="1397.2,87.9763 1861.06,772.281 2324.92,1445.72 "/>
<polyline clip-path="url(#clip703)" style="stroke:#e26f46; stroke-linecap:round; stroke-linejoin:round; stroke-width:4; stroke-opacity:1; fill:none" points="1397.2,618.564 1861.06,754.606 2324.92,890.214 "/>
<polyline clip-path="url(#clip703)" style="stroke:#3da44d; stroke-linecap:round; stroke-linejoin:round; stroke-width:4; stroke-opacity:1; fill:none" points="1397.2,706.808 1861.06,752.11 2324.92,797.365 "/>
<polyline clip-path="url(#clip703)" style="stroke:#c271d2; stroke-linecap:round; stroke-linejoin:round; stroke-width:4; stroke-opacity:1; fill:none" points="1397.2,717.834 1861.06,751.841 2324.92,785.719 "/>
<polyline clip-path="url(#clip703)" style="stroke:#ac8d18; stroke-linecap:round; stroke-linejoin:round; stroke-width:4; stroke-opacity:1; fill:none" points="1397.2,726.194 1861.06,753.602 2324.92,774.845 "/>
<path clip-path="url(#clip700)" d="M2152.86 406.258 L2319.98 406.258 L2319.98 95.2176 L2152.86 95.2176  Z" fill="#ffffff" fill-rule="evenodd" fill-opacity="1"/>
<polyline clip-path="url(#clip700)" style="stroke:#000000; stroke-linecap:round; stroke-linejoin:round; stroke-width:4; stroke-opacity:1; fill:none" points="2152.86,406.258 2319.98,406.258 2319.98,95.2176 2152.86,95.2176 2152.86,406.258 "/>
<polyline clip-path="url(#clip700)" style="stroke:#009af9; stroke-linecap:round; stroke-linejoin:round; stroke-width:4; stroke-opacity:1; fill:none" points="2163.79,147.058 2229.35,147.058 "/>
<path clip-path="url(#clip700)" d="M2252.22 132.856 Q2248.61 132.856 2246.78 136.421 Q2244.98 139.963 2244.98 147.092 Q2244.98 154.199 2246.78 157.764 Q2248.61 161.305 2252.22 161.305 Q2255.86 161.305 2257.66 157.764 Q2259.49 154.199 2259.49 147.092 Q2259.49 139.963 2257.66 136.421 Q2255.86 132.856 2252.22 132.856 M2252.22 129.153 Q2258.03 129.153 2261.09 133.759 Q2264.17 138.342 2264.17 147.092 Q2264.17 155.819 2261.09 160.426 Q2258.03 165.009 2252.22 165.009 Q2246.41 165.009 2243.33 160.426 Q2240.28 155.819 2240.28 147.092 Q2240.28 138.342 2243.33 133.759 Q2246.41 129.153 2252.22 129.153 Z" fill="#000000" fill-rule="nonzero" fill-opacity="1" /><path clip-path="url(#clip700)" d="M2272.38 158.458 L2277.27 158.458 L2277.27 164.338 L2272.38 164.338 L2272.38 158.458 Z" fill="#000000" fill-rule="nonzero" fill-opacity="1" /><path clip-path="url(#clip700)" d="M2288.26 160.402 L2295.9 160.402 L2295.9 134.037 L2287.59 135.703 L2287.59 131.444 L2295.86 129.778 L2300.53 129.778 L2300.53 160.402 L2308.17 160.402 L2308.17 164.338 L2288.26 164.338 L2288.26 160.402 Z" fill="#000000" fill-rule="nonzero" fill-opacity="1" /><polyline clip-path="url(#clip700)" style="stroke:#e26f46; stroke-linecap:round; stroke-linejoin:round; stroke-width:4; stroke-opacity:1; fill:none" points="2163.79,198.898 2229.35,198.898 "/>
<path clip-path="url(#clip700)" d="M2252.22 184.696 Q2248.61 184.696 2246.78 188.261 Q2244.98 191.803 2244.98 198.932 Q2244.98 206.039 2246.78 209.604 Q2248.61 213.145 2252.22 213.145 Q2255.86 213.145 2257.66 209.604 Q2259.49 206.039 2259.49 198.932 Q2259.49 191.803 2257.66 188.261 Q2255.86 184.696 2252.22 184.696 M2252.22 180.993 Q2258.03 180.993 2261.09 185.599 Q2264.17 190.182 2264.17 198.932 Q2264.17 207.659 2261.09 212.266 Q2258.03 216.849 2252.22 216.849 Q2246.41 216.849 2243.33 212.266 Q2240.28 207.659 2240.28 198.932 Q2240.28 190.182 2243.33 185.599 Q2246.41 180.993 2252.22 180.993 Z" fill="#000000" fill-rule="nonzero" fill-opacity="1" /><path clip-path="url(#clip700)" d="M2272.38 210.298 L2277.27 210.298 L2277.27 216.178 L2272.38 216.178 L2272.38 210.298 Z" fill="#000000" fill-rule="nonzero" fill-opacity="1" /><path clip-path="url(#clip700)" d="M2287.5 181.618 L2305.86 181.618 L2305.86 185.553 L2291.78 185.553 L2291.78 194.025 Q2292.8 193.678 2293.82 193.516 Q2294.84 193.33 2295.86 193.33 Q2301.64 193.33 2305.02 196.502 Q2308.4 199.673 2308.4 205.09 Q2308.4 210.668 2304.93 213.77 Q2301.46 216.849 2295.14 216.849 Q2292.96 216.849 2290.69 216.478 Q2288.45 216.108 2286.04 215.367 L2286.04 210.668 Q2288.12 211.803 2290.35 212.358 Q2292.57 212.914 2295.05 212.914 Q2299.05 212.914 2301.39 210.807 Q2303.73 208.701 2303.73 205.09 Q2303.73 201.479 2301.39 199.372 Q2299.05 197.266 2295.05 197.266 Q2293.17 197.266 2291.3 197.682 Q2289.44 198.099 2287.5 198.979 L2287.5 181.618 Z" fill="#000000" fill-rule="nonzero" fill-opacity="1" /><polyline clip-path="url(#clip700)" style="stroke:#3da44d; stroke-linecap:round; stroke-linejoin:round; stroke-width:4; stroke-opacity:1; fill:none" points="2163.79,250.738 2229.35,250.738 "/>
<path clip-path="url(#clip700)" d="M2240.95 264.082 L2248.59 264.082 L2248.59 237.717 L2240.28 239.383 L2240.28 235.124 L2248.54 233.458 L2253.22 233.458 L2253.22 264.082 L2260.86 264.082 L2260.86 268.018 L2240.95 268.018 L2240.95 264.082 Z" fill="#000000" fill-rule="nonzero" fill-opacity="1" /><path clip-path="url(#clip700)" d="M2270.3 262.138 L2275.18 262.138 L2275.18 268.018 L2270.3 268.018 L2270.3 262.138 Z" fill="#000000" fill-rule="nonzero" fill-opacity="1" /><path clip-path="url(#clip700)" d="M2285.42 233.458 L2303.77 233.458 L2303.77 237.393 L2289.7 237.393 L2289.7 245.865 Q2290.72 245.518 2291.73 245.356 Q2292.75 245.17 2293.77 245.17 Q2299.56 245.17 2302.94 248.342 Q2306.32 251.513 2306.32 256.93 Q2306.32 262.508 2302.85 265.61 Q2299.37 268.689 2293.05 268.689 Q2290.88 268.689 2288.61 268.318 Q2286.36 267.948 2283.96 267.207 L2283.96 262.508 Q2286.04 263.643 2288.26 264.198 Q2290.48 264.754 2292.96 264.754 Q2296.97 264.754 2299.3 262.647 Q2301.64 260.541 2301.64 256.93 Q2301.64 253.319 2299.3 251.212 Q2296.97 249.106 2292.96 249.106 Q2291.09 249.106 2289.21 249.522 Q2287.36 249.939 2285.42 250.819 L2285.42 233.458 Z" fill="#000000" fill-rule="nonzero" fill-opacity="1" /><polyline clip-path="url(#clip700)" style="stroke:#c271d2; stroke-linecap:round; stroke-linejoin:round; stroke-width:4; stroke-opacity:1; fill:none" points="2163.79,302.578 2229.35,302.578 "/>
<path clip-path="url(#clip700)" d="M2245.9 315.922 L2262.22 315.922 L2262.22 319.858 L2240.28 319.858 L2240.28 315.922 Q2242.94 313.168 2247.52 308.538 Q2252.13 303.885 2253.31 302.543 Q2255.55 300.02 2256.43 298.284 Q2257.34 296.524 2257.34 294.835 Q2257.34 292.08 2255.39 290.344 Q2253.47 288.608 2250.37 288.608 Q2248.17 288.608 2245.72 289.372 Q2243.29 290.135 2240.51 291.686 L2240.51 286.964 Q2243.33 285.83 2245.79 285.251 Q2248.24 284.673 2250.28 284.673 Q2255.65 284.673 2258.84 287.358 Q2262.04 290.043 2262.04 294.534 Q2262.04 296.663 2261.23 298.585 Q2260.44 300.483 2258.33 303.075 Q2257.75 303.747 2254.65 306.964 Q2251.55 310.159 2245.9 315.922 Z" fill="#000000" fill-rule="nonzero" fill-opacity="1" /><path clip-path="url(#clip700)" d="M2272.04 313.978 L2276.92 313.978 L2276.92 319.858 L2272.04 319.858 L2272.04 313.978 Z" fill="#000000" fill-rule="nonzero" fill-opacity="1" /><path clip-path="url(#clip700)" d="M2297.11 288.376 Q2293.49 288.376 2291.67 291.941 Q2289.86 295.483 2289.86 302.612 Q2289.86 309.719 2291.67 313.284 Q2293.49 316.825 2297.11 316.825 Q2300.74 316.825 2302.55 313.284 Q2304.37 309.719 2304.37 302.612 Q2304.37 295.483 2302.55 291.941 Q2300.74 288.376 2297.11 288.376 M2297.11 284.673 Q2302.92 284.673 2305.97 289.279 Q2309.05 293.862 2309.05 302.612 Q2309.05 311.339 2305.97 315.946 Q2302.92 320.529 2297.11 320.529 Q2291.3 320.529 2288.22 315.946 Q2285.16 311.339 2285.16 302.612 Q2285.16 293.862 2288.22 289.279 Q2291.3 284.673 2297.11 284.673 Z" fill="#000000" fill-rule="nonzero" fill-opacity="1" /><polyline clip-path="url(#clip700)" style="stroke:#ac8d18; stroke-linecap:round; stroke-linejoin:round; stroke-width:4; stroke-opacity:1; fill:none" points="2163.79,354.418 2229.35,354.418 "/>
<path clip-path="url(#clip700)" d="M2245.9 367.762 L2262.22 367.762 L2262.22 371.698 L2240.28 371.698 L2240.28 367.762 Q2242.94 365.008 2247.52 360.378 Q2252.13 355.725 2253.31 354.383 Q2255.55 351.86 2256.43 350.124 Q2257.34 348.364 2257.34 346.675 Q2257.34 343.92 2255.39 342.184 Q2253.47 340.448 2250.37 340.448 Q2248.17 340.448 2245.72 341.212 Q2243.29 341.975 2240.51 343.526 L2240.51 338.804 Q2243.33 337.67 2245.79 337.091 Q2248.24 336.513 2250.28 336.513 Q2255.65 336.513 2258.84 339.198 Q2262.04 341.883 2262.04 346.374 Q2262.04 348.503 2261.23 350.425 Q2260.44 352.323 2258.33 354.915 Q2257.75 355.587 2254.65 358.804 Q2251.55 361.999 2245.9 367.762 Z" fill="#000000" fill-rule="nonzero" fill-opacity="1" /><path clip-path="url(#clip700)" d="M2272.04 365.818 L2276.92 365.818 L2276.92 371.698 L2272.04 371.698 L2272.04 365.818 Z" fill="#000000" fill-rule="nonzero" fill-opacity="1" /><path clip-path="url(#clip700)" d="M2287.15 337.138 L2305.51 337.138 L2305.51 341.073 L2291.43 341.073 L2291.43 349.545 Q2292.45 349.198 2293.47 349.036 Q2294.49 348.85 2295.51 348.85 Q2301.3 348.85 2304.67 352.022 Q2308.05 355.193 2308.05 360.61 Q2308.05 366.188 2304.58 369.29 Q2301.11 372.369 2294.79 372.369 Q2292.61 372.369 2290.35 371.998 Q2288.1 371.628 2285.69 370.887 L2285.69 366.188 Q2287.78 367.323 2290 367.878 Q2292.22 368.434 2294.7 368.434 Q2298.7 368.434 2301.04 366.327 Q2303.38 364.221 2303.38 360.61 Q2303.38 356.999 2301.04 354.892 Q2298.7 352.786 2294.7 352.786 Q2292.82 352.786 2290.95 353.202 Q2289.1 353.619 2287.15 354.499 L2287.15 337.138 Z" fill="#000000" fill-rule="nonzero" fill-opacity="1" /></svg>