<?xml version="1.0" encoding="utf-8"?>
<svg xmlns="http://www.w3.org/2000/svg" xmlns:xlink="http://www.w3.org/1999/xlink" width="800" height="400" viewBox="0 0 3200 1600">
<defs>
  <clipPath id="clip910">
    <rect x="0" y="0" width="3200" height="1600"/>
  </clipPath>
</defs>
<path clip-path="url(#clip910)" d="M0 1600 L3200 1600 L3200 0 L0 0  Z" fill="#ffffff" fill-rule="evenodd" fill-opacity="1"/>
<defs>
  <clipPath id="clip911">
    <rect x="640" y="0" width="2241" height="1600"/>
  </clipPath>
</defs>
<path clip-path="url(#clip910)" d="M192.191 1495.09 L1552.76 1495.09 L1552.76 47.2441 L192.191 47.2441  Z" fill="#ffffff" fill-rule="evenodd" fill-opacity="1"/>
<defs>
  <clipPath id="clip912">
    <rect x="192" y="47" width="1362" height="1449"/>
  </clipPath>
</defs>
<polyline clip-path="url(#clip912)" style="stroke:#000000; stroke-linecap:round; stroke-linejoin:round; stroke-width:2; stroke-opacity:0.1; fill:none" points="217.862,1495.09 217.862,47.2441 "/>
<polyline clip-path="url(#clip912)" style="stroke:#000000; stroke-linecap:round; stroke-linejoin:round; stroke-width:2; stroke-opacity:0.1; fill:none" points="538.75,1495.09 538.75,47.2441 "/>
<polyline clip-path="url(#clip912)" style="stroke:#000000; stroke-linecap:round; stroke-linejoin:round; stroke-width:2; stroke-opacity:0.1; fill:none" points="859.638,1495.09 859.638,47.2441 "/>
<polyline clip-path="url(#clip912)" style="stroke:#000000; stroke-linecap:round; stroke-linejoin:round; stroke-width:2; stroke-opacity:0.1; fill:none" points="1180.53,1495.09 1180.53,47.2441 "/>
<polyline clip-path="url(#clip912)" style="stroke:#000000; stroke-linecap:round; stroke-linejoin:round; stroke-width:2; stroke-opacity:0.1; fill:none" points="1501.41,1495.09 1501.41,47.2441 "/>
<polyline clip-path="url(#clip910)" style="stroke:#000000; stroke-linecap:round; stroke-linejoin:round; stroke-width:4; stroke-opacity:1; fill:none" points="192.191,1495.09 1552.76,1495.09 "/>
<polyline clip-path="url(#clip910)" style="stroke:#000000; stroke-linecap:round; stroke-linejoin:round; stroke-width:4; stroke-opacity:1; fill:none" points="217.862,1495.09 217.862,1476.19 "/>
<polyline clip-path="url(#clip910)" style="stroke:#000000; stroke-linecap:round; stroke-linejoin:round; stroke-width:4; stroke-opacity:1; fill:none" points="538.75,1495.09 538.75,1476.19 "/>
<polyline clip-path="url(#clip910)" style="stroke:#000000; stroke-linecap:round; stroke-linejoin:round; stroke-width:4; stroke-opacity:1; fill:none" points="859.638,1495.09 859.638,1476.19 "/>
<polyline clip-path="url(#clip910)" style="stroke:#000000; stroke-linecap:round; stroke-linejoin:round; stroke-width:4; stroke-opacity:1; fill:none" points="1180.53,1495.09 1180.53,1476.19 "/>
<polyline clip-path="url(#clip910)" style="stroke:#000000; stroke-linecap:round; stroke-linejoin:round; stroke-width:4; stroke-opacity:1; fill:none" points="1501.41,1495.09 1501.41,1476.19 "/>
<path clip-path="url(#clip910)" d="M217.862 1532.41 Q214.251 1532.41 212.422 1535.97 Q210.616 1539.51 210.616 1546.64 Q210.616 1553.75 212.422 1557.31 Q214.251 1560.86 217.862 1560.86 Q221.496 1560.86 223.302 1557.31 Q225.13 1553.75 225.13 1546.64 Q225.13 1539.51 223.302 1535.97 Q221.496 1532.41 217.862 1532.41 M217.862 1528.7 Q223.672 1528.7 226.727 1533.31 Q229.806 1537.89 229.806 1546.64 Q229.806 1555.37 226.727 1559.98 Q223.672 1564.56 217.862 1564.56 Q212.052 1564.56 208.973 1559.98 Q205.917 1555.37 205.917 1546.64 Q205.917 1537.89 208.973 1533.31 Q212.052 1528.7 217.862 1528.7 Z" fill="#000000" fill-rule="nonzero" fill-opacity="1" /><path clip-path="url(#clip910)" d="M518.021 1559.95 L534.34 1559.95 L534.34 1563.89 L512.396 1563.89 L512.396 1559.95 Q515.058 1557.2 519.641 1552.57 Q524.248 1547.92 525.428 1546.57 Q527.673 1544.05 528.553 1542.31 Q529.456 1540.55 529.456 1538.86 Q529.456 1536.11 527.511 1534.37 Q525.59 1532.64 522.488 1532.64 Q520.289 1532.64 517.836 1533.4 Q515.405 1534.17 512.627 1535.72 L512.627 1530.99 Q515.451 1529.86 517.905 1529.28 Q520.359 1528.7 522.396 1528.7 Q527.766 1528.7 530.96 1531.39 Q534.155 1534.07 534.155 1538.56 Q534.155 1540.69 533.345 1542.61 Q532.558 1544.51 530.451 1547.11 Q529.872 1547.78 526.771 1550.99 Q523.669 1554.19 518.021 1559.95 Z" fill="#000000" fill-rule="nonzero" fill-opacity="1" /><path clip-path="url(#clip910)" d="M544.201 1529.33 L562.557 1529.33 L562.557 1533.26 L548.483 1533.26 L548.483 1541.74 Q549.502 1541.39 550.521 1541.23 Q551.539 1541.04 552.558 1541.04 Q558.345 1541.04 561.724 1544.21 Q565.104 1547.38 565.104 1552.8 Q565.104 1558.38 561.632 1561.48 Q558.159 1564.56 551.84 1564.56 Q549.664 1564.56 547.396 1564.19 Q545.15 1563.82 542.743 1563.08 L542.743 1558.38 Q544.826 1559.51 547.048 1560.07 Q549.271 1560.62 551.747 1560.62 Q555.752 1560.62 558.09 1558.52 Q560.428 1556.41 560.428 1552.8 Q560.428 1549.19 558.09 1547.08 Q555.752 1544.98 551.747 1544.98 Q549.872 1544.98 547.997 1545.39 Q546.146 1545.81 544.201 1546.69 L544.201 1529.33 Z" fill="#000000" fill-rule="nonzero" fill-opacity="1" /><path clip-path="url(#clip910)" d="M834.337 1529.33 L852.693 1529.33 L852.693 1533.26 L838.619 1533.26 L838.619 1541.74 Q839.638 1541.39 840.656 1541.23 Q841.675 1541.04 842.693 1541.04 Q848.48 1541.04 851.86 1544.21 Q855.24 1547.38 855.24 1552.8 Q855.24 1558.38 851.767 1561.48 Q848.295 1564.56 841.976 1564.56 Q839.8 1564.56 837.531 1564.19 Q835.286 1563.82 832.879 1563.08 L832.879 1558.38 Q834.962 1559.51 837.184 1560.07 Q839.406 1560.62 841.883 1560.62 Q845.888 1560.62 848.226 1558.52 Q850.564 1556.41 850.564 1552.8 Q850.564 1549.19 848.226 1547.08 Q845.888 1544.98 841.883 1544.98 Q840.008 1544.98 838.133 1545.39 Q836.281 1545.81 834.337 1546.69 L834.337 1529.33 Z" fill="#000000" fill-rule="nonzero" fill-opacity="1" /><path clip-path="url(#clip910)" d="M874.453 1532.41 Q870.841 1532.41 869.013 1535.97 Q867.207 1539.51 867.207 1546.64 Q867.207 1553.75 869.013 1557.31 Q870.841 1560.86 874.453 1560.86 Q878.087 1560.86 879.892 1557.31 Q881.721 1553.75 881.721 1546.64 Q881.721 1539.51 879.892 1535.97 Q878.087 1532.41 874.453 1532.41 M874.453 1528.7 Q880.263 1528.7 883.318 1533.31 Q886.397 1537.89 886.397 1546.64 Q886.397 1555.37 883.318 1559.98 Q880.263 1564.56 874.453 1564.56 Q868.642 1564.56 865.564 1559.98 Q862.508 1555.37 862.508 1546.64 Q862.508 1537.89 865.564 1533.31 Q868.642 1528.7 874.453 1528.7 Z" fill="#000000" fill-rule="nonzero" fill-opacity="1" /><path clip-path="url(#clip910)" d="M1154.38 1529.33 L1176.6 1529.33 L1176.6 1531.32 L1164.06 1563.89 L1159.17 1563.89 L1170.98 1533.26 L1154.38 1533.26 L1154.38 1529.33 Z" fill="#000000" fill-rule="nonzero" fill-opacity="1" /><path clip-path="url(#clip910)" d="M1185.77 1529.33 L1204.13 1529.33 L1204.13 1533.26 L1190.05 1533.26 L1190.05 1541.74 Q1191.07 1541.39 1192.09 1541.23 Q1193.11 1541.04 1194.13 1541.04 Q1199.91 1541.04 1203.29 1544.21 Q1206.67 1547.38 1206.67 1552.8 Q1206.67 1558.38 1203.2 1561.48 Q1199.73 1564.56 1193.41 1564.56 Q1191.23 1564.56 1188.96 1564.19 Q1186.72 1563.82 1184.31 1563.08 L1184.31 1558.38 Q1186.39 1559.51 1188.62 1560.07 Q1190.84 1560.62 1193.32 1560.62 Q1197.32 1560.62 1199.66 1558.52 Q1202 1556.41 1202 1552.8 Q1202 1549.19 1199.66 1547.08 Q1197.32 1544.98 1193.32 1544.98 Q1191.44 1544.98 1189.57 1545.39 Q1187.71 1545.81 1185.77 1546.69 L1185.77 1529.33 Z" fill="#000000" fill-rule="nonzero" fill-opacity="1" /><path clip-path="url(#clip910)" d="M1461.02 1559.95 L1468.66 1559.95 L1468.66 1533.59 L1460.35 1535.25 L1460.35 1530.99 L1468.61 1529.33 L1473.29 1529.33 L1473.29 1559.95 L1480.93 1559.95 L1480.93 1563.89 L1461.02 1563.89 L1461.02 1559.95 Z" fill="#000000" fill-rule="nonzero" fill-opacity="1" /><path clip-path="url(#clip910)" d="M1500.37 1532.41 Q1496.76 1532.41 1494.93 1535.97 Q1493.13 1539.51 1493.13 1546.64 Q1493.13 1553.75 1494.93 1557.31 Q1496.76 1560.86 1500.37 1560.86 Q1504.01 1560.86 1505.81 1557.31 Q1507.64 1553.75 1507.64 1546.64 Q1507.64 1539.51 1505.81 1535.97 Q1504.01 1532.41 1500.37 1532.41 M1500.37 1528.7 Q1506.18 1528.7 1509.24 1533.31 Q1512.32 1537.89 1512.32 1546.64 Q1512.32 1555.37 1509.24 1559.98 Q1506.18 1564.56 1500.37 1564.56 Q1494.56 1564.56 1491.48 1559.98 Q1488.43 1555.37 1488.43 1546.64 Q1488.43 1537.89 1491.48 1533.31 Q1494.56 1528.7 1500.37 1528.7 Z" fill="#000000" fill-rule="nonzero" fill-opacity="1" /><path clip-path="url(#clip910)" d="M1530.53 1532.41 Q1526.92 1532.41 1525.09 1535.97 Q1523.29 1539.51 1523.29 1546.64 Q1523.29 1553.75 1525.09 1557.31 Q1526.92 1560.86 1530.53 1560.86 Q1534.17 1560.86 1535.97 1557.31 Q1537.8 1553.75 1537.8 1546.64 Q1537.8 1539.51 1535.97 1535.97 Q1534.17 1532.41 1530.53 1532.41 M1530.53 1528.7 Q1536.34 1528.7 1539.4 1533.31 Q1542.48 1537.89 1542.48 1546.64 Q1542.48 1555.37 1539.4 1559.98 Q1536.34 1564.56 1530.53 1564.56 Q1524.72 1564.56 1521.65 1559.98 Q1518.59 1555.37 1518.59 1546.64 Q1518.59 1537.89 1521.65 1533.31 Q1524.72 1528.7 1530.53 1528.7 Z" fill="#000000" fill-rule="nonzero" fill-opacity="1" /><polyline clip-path="url(#clip912)" style="stroke:#000000; stroke-linecap:round; stroke-linejoin:round; stroke-width:2; stroke-opacity:0.1; fill:none" points="192.191,1397.64 1552.76,1397.64 "/>
<polyline clip-path="url(#clip912)" style="stroke:#000000; stroke-linecap:round; stroke-linejoin:round; stroke-width:2; stroke-opacity:0.1; fill:none" points="192.191,1168.22 1552.76,1168.22 "/>
<polyline clip-path="url(#clip912)" style="stroke:#000000; stroke-linecap:round; stroke-linejoin:round; stroke-width:2; stroke-opacity:0.1; fill:none" points="192.191,938.805 1552.76,938.805 "/>
<polyline clip-path="url(#clip912)" style="stroke:#000000; stroke-linecap:round; stroke-linejoin:round; stroke-width:2; stroke-opacity:0.1; fill:none" points="192.191,709.386 1552.76,709.386 "/>
<polyline clip-path="url(#clip912)" style="stroke:#000000; stroke-linecap:round; stroke-linejoin:round; stroke-width:2; stroke-opacity:0.1; fill:none" points="192.191,479.967 1552.76,479.967 "/>
<polyline clip-path="url(#clip912)" style="stroke:#000000; stroke-linecap:round; stroke-linejoin:round; stroke-width:2; stroke-opacity:0.1; fill:none" points="192.191,250.548 1552.76,250.548 "/>
<polyline clip-path="url(#clip910)" style="stroke:#000000; stroke-linecap:round; stroke-linejoin:round; stroke-width:4; stroke-opacity:1; fill:none" points="192.191,1495.09 192.191,47.2441 "/>
<polyline clip-path="url(#clip910)" style="stroke:#000000; stroke-linecap:round; stroke-linejoin:round; stroke-width:4; stroke-opacity:1; fill:none" points="192.191,1397.64 211.088,1397.64 "/>
<polyline clip-path="url(#clip910)" style="stroke:#000000; stroke-linecap:round; stroke-linejoin:round; stroke-width:4; stroke-opacity:1; fill:none" points="192.191,1168.22 211.088,1168.22 "/>
<polyline clip-path="url(#clip910)" style="stroke:#000000; stroke-linecap:round; stroke-linejoin:round; stroke-width:4; stroke-opacity:1; fill:none" points="192.191,938.805 211.088,938.805 "/>
<polyline clip-path="url(#clip910)" style="stroke:#000000; stroke-linecap:round; stroke-linejoin:round; stroke-width:4; stroke-opacity:1; fill:none" points="192.191,709.386 211.088,709.386 "/>
<polyline clip-path="url(#clip910)" style="stroke:#000000; stroke-linecap:round; stroke-linejoin:round; stroke-width:4; stroke-opacity:1; fill:none" points="192.191,479.967 211.088,479.967 "/>
<polyline clip-path="url(#clip910)" style="stroke:#000000; stroke-linecap:round; stroke-linejoin:round; stroke-width:4; stroke-opacity:1; fill:none" points="192.191,250.548 211.088,250.548 "/>
<path clip-path="url(#clip910)" d="M47.6634 1410.99 L55.3023 1410.99 L55.3023 1384.62 L46.9921 1386.29 L46.9921 1382.03 L55.256 1380.36 L59.9319 1380.36 L59.9319 1410.99 L67.5707 1410.99 L67.5707 1414.92 L47.6634 1414.92 L47.6634 1410.99 Z" fill="#000000" fill-rule="nonzero" fill-opacity="1" /><path clip-path="url(#clip910)" d="M77.0151 1409.04 L81.8993 1409.04 L81.8993 1414.92 L77.0151 1414.92 L77.0151 1409.04 Z" fill="#000000" fill-rule="nonzero" fill-opacity="1" /><path clip-path="url(#clip910)" d="M92.8947 1410.99 L100.534 1410.99 L100.534 1384.62 L92.2234 1386.29 L92.2234 1382.03 L100.487 1380.36 L105.163 1380.36 L105.163 1410.99 L112.802 1410.99 L112.802 1414.92 L92.8947 1414.92 L92.8947 1410.99 Z" fill="#000000" fill-rule="nonzero" fill-opacity="1" /><path clip-path="url(#clip910)" d="M132.246 1383.44 Q128.635 1383.44 126.807 1387.01 Q125.001 1390.55 125.001 1397.68 Q125.001 1404.78 126.807 1408.35 Q128.635 1411.89 132.246 1411.89 Q135.881 1411.89 137.686 1408.35 Q139.515 1404.78 139.515 1397.68 Q139.515 1390.55 137.686 1387.01 Q135.881 1383.44 132.246 1383.44 M132.246 1379.74 Q138.056 1379.74 141.112 1384.34 Q144.191 1388.93 144.191 1397.68 Q144.191 1406.4 141.112 1411.01 Q138.056 1415.59 132.246 1415.59 Q126.436 1415.59 123.357 1411.01 Q120.302 1406.4 120.302 1397.68 Q120.302 1388.93 123.357 1384.34 Q126.436 1379.74 132.246 1379.74 Z" fill="#000000" fill-rule="nonzero" fill-opacity="1" /><path clip-path="url(#clip910)" d="M48.6588 1181.57 L56.2976 1181.57 L56.2976 1155.2 L47.9875 1156.87 L47.9875 1152.61 L56.2513 1150.94 L60.9272 1150.94 L60.9272 1181.57 L68.5661 1181.57 L68.5661 1185.5 L48.6588 1185.5 L48.6588 1181.57 Z" fill="#000000" fill-rule="nonzero" fill-opacity="1" /><path clip-path="url(#clip910)" d="M78.0105 1179.62 L82.8947 1179.62 L82.8947 1185.5 L78.0105 1185.5 L78.0105 1179.62 Z" fill="#000000" fill-rule="nonzero" fill-opacity="1" /><path clip-path="url(#clip910)" d="M93.89 1181.57 L101.529 1181.57 L101.529 1155.2 L93.2187 1156.87 L93.2187 1152.61 L101.483 1150.94 L106.158 1150.94 L106.158 1181.57 L113.797 1181.57 L113.797 1185.5 L93.89 1185.5 L93.89 1181.57 Z" fill="#000000" fill-rule="nonzero" fill-opacity="1" /><path clip-path="url(#clip910)" d="M123.288 1150.94 L141.644 1150.94 L141.644 1154.88 L127.57 1154.88 L127.57 1163.35 Q128.589 1163 129.607 1162.84 Q130.626 1162.66 131.644 1162.66 Q137.431 1162.66 140.811 1165.83 Q144.191 1169 144.191 1174.42 Q144.191 1180 140.718 1183.1 Q137.246 1186.18 130.927 1186.18 Q128.751 1186.18 126.482 1185.81 Q124.237 1185.43 121.83 1184.69 L121.83 1180 Q123.913 1181.13 126.135 1181.68 Q128.357 1182.24 130.834 1182.24 Q134.839 1182.24 137.177 1180.13 Q139.515 1178.03 139.515 1174.42 Q139.515 1170.81 137.177 1168.7 Q134.839 1166.59 130.834 1166.59 Q128.959 1166.59 127.084 1167.01 Q125.232 1167.43 123.288 1168.31 L123.288 1150.94 Z" fill="#000000" fill-rule="nonzero" fill-opacity="1" /><path clip-path="url(#clip910)" d="M47.6634 952.15 L55.3023 952.15 L55.3023 925.785 L46.9921 927.451 L46.9921 923.192 L55.256 921.525 L59.9319 921.525 L59.9319 952.15 L67.5707 952.15 L67.5707 956.085 L47.6634 956.085 L47.6634 952.15 Z" fill="#000000" fill-rule="nonzero" fill-opacity="1" /><path clip-path="url(#clip910)" d="M77.0151 950.206 L81.8993 950.206 L81.8993 956.085 L77.0151 956.085 L77.0151 950.206 Z" fill="#000000" fill-rule="nonzero" fill-opacity="1" /><path clip-path="url(#clip910)" d="M96.1122 952.15 L112.432 952.15 L112.432 956.085 L90.4873 956.085 L90.4873 952.15 Q93.1493 949.396 97.7326 944.766 Q102.339 940.113 103.52 938.771 Q105.765 936.247 106.645 934.511 Q107.547 932.752 107.547 931.062 Q107.547 928.308 105.603 926.572 Q103.682 924.835 100.58 924.835 Q98.3807 924.835 95.927 925.599 Q93.4965 926.363 90.7187 927.914 L90.7187 923.192 Q93.5428 922.058 95.9965 921.479 Q98.4502 920.9 100.487 920.9 Q105.858 920.9 109.052 923.586 Q112.246 926.271 112.246 930.761 Q112.246 932.891 111.436 934.812 Q110.649 936.71 108.543 939.303 Q107.964 939.974 104.862 943.192 Q101.76 946.386 96.1122 952.15 Z" fill="#000000" fill-rule="nonzero" fill-opacity="1" /><path clip-path="url(#clip910)" d="M132.246 924.604 Q128.635 924.604 126.807 928.169 Q125.001 931.71 125.001 938.84 Q125.001 945.946 126.807 949.511 Q128.635 953.053 132.246 953.053 Q135.881 953.053 137.686 949.511 Q139.515 945.946 139.515 938.84 Q139.515 931.71 137.686 928.169 Q135.881 924.604 132.246 924.604 M132.246 920.9 Q138.056 920.9 141.112 925.507 Q144.191 930.09 144.191 938.84 Q144.191 947.567 141.112 952.173 Q138.056 956.757 132.246 956.757 Q126.436 956.757 123.357 952.173 Q120.302 947.567 120.302 938.84 Q120.302 930.09 123.357 925.507 Q126.436 920.9 132.246 920.9 Z" fill="#000000" fill-rule="nonzero" fill-opacity="1" /><path clip-path="url(#clip910)" d="M48.6588 722.731 L56.2976 722.731 L56.2976 696.366 L47.9875 698.032 L47.9875 693.773 L56.2513 692.106 L60.9272 692.106 L60.9272 722.731 L68.5661 722.731 L68.5661 726.666 L48.6588 726.666 L48.6588 722.731 Z" fill="#000000" fill-rule="nonzero" fill-opacity="1" /><path clip-path="url(#clip910)" d="M78.0105 720.787 L82.8947 720.787 L82.8947 726.666 L78.0105 726.666 L78.0105 720.787 Z" fill="#000000" fill-rule="nonzero" fill-opacity="1" /><path clip-path="url(#clip910)" d="M97.1076 722.731 L113.427 722.731 L113.427 726.666 L91.4826 726.666 L91.4826 722.731 Q94.1447 719.977 98.728 715.347 Q103.334 710.694 104.515 709.352 Q106.76 706.829 107.64 705.092 Q108.543 703.333 108.543 701.643 Q108.543 698.889 106.598 697.153 Q104.677 695.417 101.575 695.417 Q99.3761 695.417 96.9224 696.18 Q94.4919 696.944 91.7141 698.495 L91.7141 693.773 Q94.5382 692.639 96.9919 692.06 Q99.4455 691.481 101.483 691.481 Q106.853 691.481 110.047 694.167 Q113.242 696.852 113.242 701.342 Q113.242 703.472 112.432 705.393 Q111.645 707.291 109.538 709.884 Q108.959 710.555 105.858 713.773 Q102.756 716.967 97.1076 722.731 Z" fill="#000000" fill-rule="nonzero" fill-opacity="1" /><path clip-path="url(#clip910)" d="M123.288 692.106 L141.644 692.106 L141.644 696.042 L127.57 696.042 L127.57 704.514 Q128.589 704.166 129.607 704.004 Q130.626 703.819 131.644 703.819 Q137.431 703.819 140.811 706.991 Q144.191 710.162 144.191 715.578 Q144.191 721.157 140.718 724.259 Q137.246 727.338 130.927 727.338 Q128.751 727.338 126.482 726.967 Q124.237 726.597 121.83 725.856 L121.83 721.157 Q123.913 722.291 126.135 722.847 Q128.357 723.403 130.834 723.403 Q134.839 723.403 137.177 721.296 Q139.515 719.19 139.515 715.578 Q139.515 711.967 137.177 709.861 Q134.839 707.754 130.834 707.754 Q128.959 707.754 127.084 708.171 Q125.232 708.588 123.288 709.467 L123.288 692.106 Z" fill="#000000" fill-rule="nonzero" fill-opacity="1" /><path clip-path="url(#clip910)" d="M47.6634 493.312 L55.3023 493.312 L55.3023 466.947 L46.9921 468.613 L46.9921 464.354 L55.256 462.687 L59.9319 462.687 L59.9319 493.312 L67.5707 493.312 L67.5707 497.247 L47.6634 497.247 L47.6634 493.312 Z" fill="#000000" fill-rule="nonzero" fill-opacity="1" /><path clip-path="url(#clip910)" d="M77.0151 491.368 L81.8993 491.368 L81.8993 497.247 L77.0151 497.247 L77.0151 491.368 Z" fill="#000000" fill-rule="nonzero" fill-opacity="1" /><path clip-path="url(#clip910)" d="M106.251 478.613 Q109.608 479.331 111.483 481.599 Q113.381 483.868 113.381 487.201 Q113.381 492.317 109.862 495.118 Q106.344 497.919 99.8622 497.919 Q97.6863 497.919 95.3715 497.479 Q93.0798 497.062 90.6262 496.206 L90.6262 491.692 Q92.5706 492.826 94.8854 493.405 Q97.2002 493.984 99.7233 493.984 Q104.121 493.984 106.413 492.247 Q108.728 490.511 108.728 487.201 Q108.728 484.146 106.575 482.433 Q104.446 480.697 100.626 480.697 L96.5983 480.697 L96.5983 476.854 L100.811 476.854 Q104.26 476.854 106.089 475.488 Q107.918 474.099 107.918 471.507 Q107.918 468.845 106.02 467.433 Q104.145 465.998 100.626 465.998 Q98.7048 465.998 96.5057 466.414 Q94.3067 466.831 91.6678 467.711 L91.6678 463.544 Q94.3298 462.803 96.6446 462.433 Q98.9826 462.062 101.043 462.062 Q106.367 462.062 109.469 464.493 Q112.57 466.9 112.57 471.021 Q112.57 473.891 110.927 475.882 Q109.283 477.849 106.251 478.613 Z" fill="#000000" fill-rule="nonzero" fill-opacity="1" /><path clip-path="url(#clip910)" d="M132.246 465.766 Q128.635 465.766 126.807 469.331 Q125.001 472.873 125.001 480.002 Q125.001 487.109 126.807 490.673 Q128.635 494.215 132.246 494.215 Q135.881 494.215 137.686 490.673 Q139.515 487.109 139.515 480.002 Q139.515 472.873 137.686 469.331 Q135.881 465.766 132.246 465.766 M132.246 462.062 Q138.056 462.062 141.112 466.669 Q144.191 471.252 144.191 480.002 Q144.191 488.729 141.112 493.335 Q138.056 497.919 132.246 497.919 Q126.436 497.919 123.357 493.335 Q120.302 488.729 120.302 480.002 Q120.302 471.252 123.357 466.669 Q126.436 462.062 132.246 462.062 Z" fill="#000000" fill-rule="nonzero" fill-opacity="1" /><path clip-path="url(#clip910)" d="M48.6588 263.893 L56.2976 263.893 L56.2976 237.528 L47.9875 239.194 L47.9875 234.935 L56.2513 233.268 L60.9272 233.268 L60.9272 263.893 L68.5661 263.893 L68.5661 267.828 L48.6588 267.828 L48.6588 263.893 Z" fill="#000000" fill-rule="nonzero" fill-opacity="1" /><path clip-path="url(#clip910)" d="M78.0105 261.949 L82.8947 261.949 L82.8947 267.828 L78.0105 267.828 L78.0105 261.949 Z" fill="#000000" fill-rule="nonzero" fill-opacity="1" /><path clip-path="url(#clip910)" d="M107.246 249.194 Q110.603 249.912 112.478 252.18 Q114.376 254.449 114.376 257.782 Q114.376 262.898 110.858 265.699 Q107.339 268.5 100.858 268.5 Q98.6817 268.5 96.3669 268.06 Q94.0752 267.643 91.6215 266.787 L91.6215 262.273 Q93.566 263.407 95.8808 263.986 Q98.1956 264.565 100.719 264.565 Q105.117 264.565 107.408 262.828 Q109.723 261.092 109.723 257.782 Q109.723 254.727 107.571 253.014 Q105.441 251.278 101.621 251.278 L97.5937 251.278 L97.5937 247.435 L101.807 247.435 Q105.256 247.435 107.084 246.069 Q108.913 244.68 108.913 242.088 Q108.913 239.426 107.015 238.014 Q105.14 236.579 101.621 236.579 Q99.7002 236.579 97.5011 236.995 Q95.3021 237.412 92.6632 238.292 L92.6632 234.125 Q95.3252 233.384 97.64 233.014 Q99.978 232.643 102.038 232.643 Q107.362 232.643 110.464 235.074 Q113.566 237.481 113.566 241.602 Q113.566 244.472 111.922 246.463 Q110.279 248.43 107.246 249.194 Z" fill="#000000" fill-rule="nonzero" fill-opacity="1" /><path clip-path="url(#clip910)" d="M123.288 233.268 L141.644 233.268 L141.644 237.204 L127.57 237.204 L127.57 245.676 Q128.589 245.329 129.607 245.167 Q130.626 244.981 131.644 244.981 Q137.431 244.981 140.811 248.153 Q144.191 251.324 144.191 256.741 Q144.191 262.319 140.718 265.421 Q137.246 268.5 130.927 268.5 Q128.751 268.5 126.482 268.129 Q124.237 267.759 121.83 267.018 L121.83 262.319 Q123.913 263.453 126.135 264.009 Q128.357 264.565 130.834 264.565 Q134.839 264.565 137.177 262.458 Q139.515 260.352 139.515 256.741 Q139.515 253.129 137.177 251.023 Q134.839 248.917 130.834 248.917 Q128.959 248.917 127.084 249.333 Q125.232 249.75 123.288 250.629 L123.288 233.268 Z" fill="#000000" fill-rule="nonzero" fill-opacity="1" /><polyline clip-path="url(#clip912)" style="stroke:#009af9; stroke-linecap:round; stroke-linejoin:round; stroke-width:4; stroke-opacity:1; fill:none" points="230.697,1454.11 243.533,1442.02 256.368,1429.91 269.204,1417.76 282.039,1405.58 294.875,1393.38 307.71,1381.14 320.546,1368.88 333.381,1356.58 346.217,1344.26 359.052,1331.91 371.888,1319.52 384.723,1307.11 397.559,1294.66 410.395,1282.19 423.23,1269.69 436.066,1257.15 448.901,1244.59 461.737,1231.99 474.572,1219.36 487.408,1206.71 500.243,1194.02 513.079,1181.3 525.914,1168.55 538.75,1155.77 551.585,1142.96 564.421,1130.12 577.256,1117.25 590.092,1104.35 602.927,1091.41 615.763,1078.44 628.598,1065.45 641.434,1052.42 654.269,1039.36 667.105,1026.26 679.94,1013.14 692.776,999.984 705.612,986.796 718.447,973.577 731.283,960.325 744.118,947.041 756.954,933.725 769.789,920.376 782.625,906.996 795.46,893.583 808.296,880.137 821.131,866.659 833.967,853.148 846.802,839.605 859.638,826.028 872.473,812.419 885.309,798.777 898.144,785.102 910.98,771.394 923.815,757.652 936.651,743.877 949.486,730.069 962.322,716.227 975.157,702.352 987.993,688.444 1000.83,674.501 1013.66,660.525 1026.5,646.515 1039.34,632.471 1052.17,618.393 1065.01,604.281 1077.84,590.135 1090.68,575.954 1103.51,561.739 1116.35,547.49 1129.18,533.206 1142.02,518.888 1154.85,504.534 1167.69,490.147 1180.53,475.724 1193.36,461.266 1206.2,446.774 1219.03,432.246 1231.87,417.683 1244.7,403.085 1257.54,388.451 1270.37,373.782 1283.21,359.077 1296.05,344.337 1308.88,329.561 1321.72,314.75 1334.55,299.902 1347.39,285.019 1360.22,270.099 1373.06,255.143 1385.89,240.152 1398.73,225.123 1411.57,210.059 1424.4,194.958 1437.24,179.82 1450.07,164.646 1462.91,149.435 1475.74,134.187 1488.58,118.902 1501.41,103.58 1514.25,88.2208 "/>
<path clip-path="url(#clip910)" d="M237.543 199.186 L414.502 199.186 L414.502 95.5056 L237.543 95.5056  Z" fill="#ffffff" fill-rule="evenodd" fill-opacity="1"/>
<polyline clip-path="url(#clip910)" style="stroke:#000000; stroke-linecap:round; stroke-linejoin:round; stroke-width:4; stroke-opacity:1; fill:none" points="237.543,199.186 414.502,199.186 414.502,95.5056 237.543,95.5056 237.543,199.186 "/>
<polyline clip-path="url(#clip910)" style="stroke:#009af9; stroke-linecap:round; stroke-linejoin:round; stroke-width:4; stroke-opacity:1; fill:none" points="252.66,147.346 343.365,147.346 "/>
<path clip-path="url(#clip910)" d="M378.991 139.695 L378.991 143.677 Q377.186 142.681 375.357 142.195 Q373.551 141.686 371.7 141.686 Q367.556 141.686 365.264 144.325 Q362.973 146.94 362.973 151.686 Q362.973 156.431 365.264 159.07 Q367.556 161.686 371.7 161.686 Q373.551 161.686 375.357 161.2 Q377.186 160.69 378.991 159.695 L378.991 163.63 Q377.209 164.464 375.287 164.88 Q373.389 165.297 371.237 165.297 Q365.38 165.297 361.931 161.616 Q358.482 157.936 358.482 151.686 Q358.482 145.343 361.954 141.709 Q365.45 138.075 371.514 138.075 Q373.482 138.075 375.357 138.491 Q377.232 138.885 378.991 139.695 Z" fill="#000000" fill-rule="nonzero" fill-opacity="1" /><path clip-path="url(#clip910)" d="M390.611 131.339 L390.611 138.7 L399.385 138.7 L399.385 142.01 L390.611 142.01 L390.611 156.084 Q390.611 159.255 391.468 160.158 Q392.348 161.061 395.01 161.061 L399.385 161.061 L399.385 164.626 L395.01 164.626 Q390.079 164.626 388.204 162.797 Q386.329 160.945 386.329 156.084 L386.329 142.01 L383.204 142.01 L383.204 138.7 L386.329 138.7 L386.329 131.339 L390.611 131.339 Z" fill="#000000" fill-rule="nonzero" fill-opacity="1" /><path clip-path="url(#clip910)" d="M1792.19 1495.09 L3152.76 1495.09 L3152.76 47.2441 L1792.19 47.2441  Z" fill="#ffffff" fill-rule="evenodd" fill-opacity="1"/>
<defs>
  <clipPath id="clip913">
    <rect x="1792" y="47" width="1362" height="1449"/>
  </clipPath>
</defs>
<polyline clip-path="url(#clip913)" style="stroke:#000000; stroke-linecap:round; stroke-linejoin:round; stroke-width:2; stroke-opacity:0.1; fill:none" points="1817.86,1495.09 1817.86,47.2441 "/>
<polyline clip-path="url(#clip913)" style="stroke:#000000; stroke-linecap:round; stroke-linejoin:round; stroke-width:2; stroke-opacity:0.1; fill:none" points="2138.75,1495.09 2138.75,47.2441 "/>
<polyline clip-path="url(#clip913)" style="stroke:#000000; stroke-linecap:round; stroke-linejoin:round; stroke-width:2; stroke-opacity:0.1; fill:none" points="2459.64,1495.09 2459.64,47.2441 "/>
<polyline clip-path="url(#clip913)" style="stroke:#000000; stroke-linecap:round; stroke-linejoin:round; stroke-width:2; stroke-opacity:0.1; fill:none" points="2780.53,1495.09 2780.53,47.2441 "/>
<polyline clip-path="url(#clip913)" style="stroke:#000000; stroke-linecap:round; stroke-linejoin:round; stroke-width:2; stroke-opacity:0.1; fill:none" points="3101.41,1495.09 3101.41,47.2441 "/>
<polyline clip-path="url(#clip910)" style="stroke:#000000; stroke-linecap:round; stroke-linejoin:round; stroke-width:4; stroke-opacity:1; fill:none" points="1792.19,1495.09 3152.76,1495.09 "/>
<polyline clip-path="url(#clip910)" style="stroke:#000000; stroke-linecap:round; stroke-linejoin:round; stroke-width:4; stroke-opacity:1; fill:none" points="1817.86,1495.09 1817.86,1476.19 "/>
<polyline clip-path="url(#clip910)" style="stroke:#000000; stroke-linecap:round; stroke-linejoin:round; stroke-width:4; stroke-opacity:1; fill:none" points="2138.75,1495.09 2138.75,1476.19 "/>
<polyline clip-path="url(#clip910)" style="stroke:#000000; stroke-linecap:round; stroke-linejoin:round; stroke-width:4; stroke-opacity:1; fill:none" points="2459.64,1495.09 2459.64,1476.19 "/>
<polyline clip-path="url(#clip910)" style="stroke:#000000; stroke-linecap:round; stroke-linejoin:round; stroke-width:4; stroke-opacity:1; fill:none" points="2780.53,1495.09 2780.53,1476.19 "/>
<polyline clip-path="url(#clip910)" style="stroke:#000000; stroke-linecap:round; stroke-linejoin:round; stroke-width:4; stroke-opacity:1; fill:none" points="3101.41,1495.09 3101.41,1476.19 "/>
<path clip-path="url(#clip910)" d="M1817.86 1532.41 Q1814.25 1532.41 1812.42 1535.97 Q1810.62 1539.51 1810.62 1546.64 Q1810.62 1553.75 1812.42 1557.31 Q1814.25 1560.86 1817.86 1560.86 Q1821.5 1560.86 1823.3 1557.31 Q1825.13 1553.75 1825.13 1546.64 Q1825.13 1539.51 1823.3 1535.97 Q1821.5 1532.41 1817.86 1532.41 M1817.86 1528.7 Q1823.67 1528.7 1826.73 1533.31 Q1829.81 1537.89 1829.81 1546.64 Q1829.81 1555.37 1826.73 1559.98 Q1823.67 1564.56 1817.86 1564.56 Q1812.05 1564.56 1808.97 1559.98 Q1805.92 1555.37 1805.92 1546.64 Q1805.92 1537.89 1808.97 1533.31 Q1812.05 1528.7 1817.86 1528.7 Z" fill="#000000" fill-rule="nonzero" fill-opacity="1" /><path clip-path="url(#clip910)" d="M2118.02 1559.95 L2134.34 1559.95 L2134.34 1563.89 L2112.4 1563.89 L2112.4 1559.95 Q2115.06 1557.2 2119.64 1552.57 Q2124.25 1547.92 2125.43 1546.57 Q2127.67 1544.05 2128.55 1542.31 Q2129.46 1540.55 2129.46 1538.86 Q2129.46 1536.11 2127.51 1534.37 Q2125.59 1532.64 2122.49 1532.64 Q2120.29 1532.64 2117.84 1533.4 Q2115.4 1534.17 2112.63 1535.72 L2112.63 1530.99 Q2115.45 1529.86 2117.9 1529.28 Q2120.36 1528.7 2122.4 1528.7 Q2127.77 1528.7 2130.96 1531.39 Q2134.15 1534.07 2134.15 1538.56 Q2134.15 1540.69 2133.34 1542.61 Q2132.56 1544.51 2130.45 1547.11 Q2129.87 1547.78 2126.77 1550.99 Q2123.67 1554.19 2118.02 1559.95 Z" fill="#000000" fill-rule="nonzero" fill-opacity="1" /><path clip-path="url(#clip910)" d="M2144.2 1529.33 L2162.56 1529.33 L2162.56 1533.26 L2148.48 1533.26 L2148.48 1541.74 Q2149.5 1541.39 2150.52 1541.23 Q2151.54 1541.04 2152.56 1541.04 Q2158.34 1541.04 2161.72 1544.21 Q2165.1 1547.38 2165.1 1552.8 Q2165.1 1558.38 2161.63 1561.48 Q2158.16 1564.56 2151.84 1564.56 Q2149.66 1564.56 2147.4 1564.19 Q2145.15 1563.82 2142.74 1563.08 L2142.74 1558.38 Q2144.83 1559.51 2147.05 1560.07 Q2149.27 1560.62 2151.75 1560.62 Q2155.75 1560.62 2158.09 1558.52 Q2160.43 1556.41 2160.43 1552.8 Q2160.43 1549.19 2158.09 1547.08 Q2155.75 1544.98 2151.75 1544.98 Q2149.87 1544.98 2148 1545.39 Q2146.15 1545.81 2144.2 1546.69 L2144.2 1529.33 Z" fill="#000000" fill-rule="nonzero" fill-opacity="1" /><path clip-path="url(#clip910)" d="M2434.34 1529.33 L2452.69 1529.33 L2452.69 1533.26 L2438.62 1533.26 L2438.62 1541.74 Q2439.64 1541.39 2440.66 1541.23 Q2441.67 1541.04 2442.69 1541.04 Q2448.48 1541.04 2451.86 1544.21 Q2455.24 1547.38 2455.24 1552.8 Q2455.24 1558.38 2451.77 1561.48 Q2448.3 1564.56 2441.98 1564.56 Q2439.8 1564.56 2437.53 1564.19 Q2435.29 1563.82 2432.88 1563.08 L2432.88 1558.38 Q2434.96 1559.51 2437.18 1560.07 Q2439.41 1560.62 2441.88 1560.62 Q2445.89 1560.62 2448.23 1558.52 Q2450.56 1556.41 2450.56 1552.8 Q2450.56 1549.19 2448.23 1547.08 Q2445.89 1544.98 2441.88 1544.98 Q2440.01 1544.98 2438.13 1545.39 Q2436.28 1545.81 2434.34 1546.69 L2434.34 1529.33 Z" fill="#000000" fill-rule="nonzero" fill-opacity="1" /><path clip-path="url(#clip910)" d="M2474.45 1532.41 Q2470.84 1532.41 2469.01 1535.97 Q2467.21 1539.51 2467.21 1546.64 Q2467.21 1553.75 2469.01 1557.31 Q2470.84 1560.86 2474.45 1560.86 Q2478.09 1560.86 2479.89 1557.31 Q2481.72 1553.75 2481.72 1546.64 Q2481.72 1539.51 2479.89 1535.97 Q2478.09 1532.41 2474.45 1532.41 M2474.45 1528.7 Q2480.26 1528.7 2483.32 1533.31 Q2486.4 1537.89 2486.4 1546.64 Q2486.4 1555.37 2483.32 1559.98 Q2480.26 1564.56 2474.45 1564.56 Q2468.64 1564.56 2465.56 1559.98 Q2462.51 1555.37 2462.51 1546.64 Q2462.51 1537.89 2465.56 1533.31 Q2468.64 1528.7 2474.45 1528.7 Z" fill="#000000" fill-rule="nonzero" fill-opacity="1" /><path clip-path="url(#clip910)" d="M2754.38 1529.33 L2776.6 1529.33 L2776.6 1531.32 L2764.06 1563.89 L2759.17 1563.89 L2770.98 1533.26 L2754.38 1533.26 L2754.38 1529.33 Z" fill="#000000" fill-rule="nonzero" fill-opacity="1" /><path clip-path="url(#clip910)" d="M2785.77 1529.33 L2804.13 1529.33 L2804.13 1533.26 L2790.05 1533.26 L2790.05 1541.74 Q2791.07 1541.39 2792.09 1541.23 Q2793.11 1541.04 2794.13 1541.04 Q2799.91 1541.04 2803.29 1544.21 Q2806.67 1547.38 2806.67 1552.8 Q2806.67 1558.38 2803.2 1561.48 Q2799.73 1564.56 2793.41 1564.56 Q2791.23 1564.56 2788.96 1564.19 Q2786.72 1563.82 2784.31 1563.08 L2784.31 1558.38 Q2786.39 1559.51 2788.62 1560.07 Q2790.84 1560.62 2793.32 1560.62 Q2797.32 1560.62 2799.66 1558.52 Q2802 1556.41 2802 1552.8 Q2802 1549.19 2799.66 1547.08 Q2797.32 1544.98 2793.32 1544.98 Q2791.44 1544.98 2789.57 1545.39 Q2787.71 1545.81 2785.77 1546.69 L2785.77 1529.33 Z" fill="#000000" fill-rule="nonzero" fill-opacity="1" /><path clip-path="url(#clip910)" d="M3061.02 1559.95 L3068.66 1559.95 L3068.66 1533.59 L3060.35 1535.25 L3060.35 1530.99 L3068.61 1529.33 L3073.29 1529.33 L3073.29 1559.95 L3080.93 1559.95 L3080.93 1563.89 L3061.02 1563.89 L3061.02 1559.95 Z" fill="#000000" fill-rule="nonzero" fill-opacity="1" /><path clip-path="url(#clip910)" d="M3100.37 1532.41 Q3096.76 1532.41 3094.93 1535.97 Q3093.13 1539.51 3093.13 1546.64 Q3093.13 1553.75 3094.93 1557.31 Q3096.76 1560.86 3100.37 1560.86 Q3104.01 1560.86 3105.81 1557.31 Q3107.64 1553.75 3107.64 1546.64 Q3107.64 1539.51 3105.81 1535.97 Q3104.01 1532.41 3100.37 1532.41 M3100.37 1528.7 Q3106.18 1528.7 3109.24 1533.31 Q3112.32 1537.89 3112.32 1546.64 Q3112.32 1555.37 3109.24 1559.98 Q3106.18 1564.56 3100.37 1564.56 Q3094.56 1564.56 3091.48 1559.98 Q3088.43 1555.37 3088.43 1546.64 Q3088.43 1537.89 3091.48 1533.31 Q3094.56 1528.7 3100.37 1528.7 Z" fill="#000000" fill-rule="nonzero" fill-opacity="1" /><path clip-path="url(#clip910)" d="M3130.53 1532.41 Q3126.92 1532.41 3125.09 1535.97 Q3123.29 1539.51 3123.29 1546.64 Q3123.29 1553.75 3125.09 1557.31 Q3126.92 1560.86 3130.53 1560.86 Q3134.17 1560.86 3135.97 1557.31 Q3137.8 1553.75 3137.8 1546.64 Q3137.8 1539.51 3135.97 1535.97 Q3134.17 1532.41 3130.53 1532.41 M3130.53 1528.7 Q3136.34 1528.7 3139.4 1533.31 Q3142.48 1537.89 3142.48 1546.64 Q3142.48 1555.37 3139.4 1559.98 Q3136.34 1564.56 3130.53 1564.56 Q3124.72 1564.56 3121.65 1559.98 Q3118.59 1555.37 3118.59 1546.64 Q3118.59 1537.89 3121.65 1533.31 Q3124.72 1528.7 3130.53 1528.7 Z" fill="#000000" fill-rule="nonzero" fill-opacity="1" /><polyline clip-path="url(#clip913)" style="stroke:#000000; stroke-linecap:round; stroke-linejoin:round; stroke-width:2; stroke-opacity:0.1; fill:none" points="1792.19,1454.12 3152.76,1454.12 "/>
<polyline clip-path="url(#clip913)" style="stroke:#000000; stroke-linecap:round; stroke-linejoin:round; stroke-width:2; stroke-opacity:0.1; fill:none" points="1792.19,1143.34 3152.76,1143.34 "/>
<polyline clip-path="url(#clip913)" style="stroke:#000000; stroke-linecap:round; stroke-linejoin:round; stroke-width:2; stroke-opacity:0.1; fill:none" points="1792.19,832.556 3152.76,832.556 "/>
<polyline clip-path="url(#clip913)" style="stroke:#000000; stroke-linecap:round; stroke-linejoin:round; stroke-width:2; stroke-opacity:0.1; fill:none" points="1792.19,521.774 3152.76,521.774 "/>
<polyline clip-path="url(#clip913)" style="stroke:#000000; stroke-linecap:round; stroke-linejoin:round; stroke-width:2; stroke-opacity:0.1; fill:none" points="1792.19,210.992 3152.76,210.992 "/>
<polyline clip-path="url(#clip910)" style="stroke:#000000; stroke-linecap:round; stroke-linejoin:round; stroke-width:4; stroke-opacity:1; fill:none" points="1792.19,1495.09 1792.19,47.2441 "/>
<polyline clip-path="url(#clip910)" style="stroke:#000000; stroke-linecap:round; stroke-linejoin:round; stroke-width:4; stroke-opacity:1; fill:none" points="1792.19,1454.12 1811.09,1454.12 "/>
<polyline clip-path="url(#clip910)" style="stroke:#000000; stroke-linecap:round; stroke-linejoin:round; stroke-width:4; stroke-opacity:1; fill:none" points="1792.19,1143.34 1811.09,1143.34 "/>
<polyline clip-path="url(#clip910)" style="stroke:#000000; stroke-linecap:round; stroke-linejoin:round; stroke-width:4; stroke-opacity:1; fill:none" points="1792.19,832.556 1811.09,832.556 "/>
<polyline clip-path="url(#clip910)" style="stroke:#000000; stroke-linecap:round; stroke-linejoin:round; stroke-width:4; stroke-opacity:1; fill:none" points="1792.19,521.774 1811.09,521.774 "/>
<polyline clip-path="url(#clip910)" style="stroke:#000000; stroke-linecap:round; stroke-linejoin:round; stroke-width:4; stroke-opacity:1; fill:none" points="1792.19,210.992 1811.09,210.992 "/>
<path clip-path="url(#clip910)" d="M1687.02 1439.92 Q1683.4 1439.92 1681.58 1443.48 Q1679.77 1447.03 1679.77 1454.15 Q1679.77 1461.26 1681.58 1464.83 Q1683.4 1468.37 1687.02 1468.37 Q1690.65 1468.37 1692.45 1464.83 Q1694.28 1461.26 1694.28 1454.15 Q1694.28 1447.03 1692.45 1443.48 Q1690.65 1439.92 1687.02 1439.92 M1687.02 1436.21 Q1692.83 1436.21 1695.88 1440.82 Q1698.96 1445.4 1698.96 1454.15 Q1698.96 1462.88 1695.88 1467.49 Q1692.83 1472.07 1687.02 1472.07 Q1681.2 1472.07 1678.13 1467.49 Q1675.07 1462.88 1675.07 1454.15 Q1675.07 1445.4 1678.13 1440.82 Q1681.2 1436.21 1687.02 1436.21 Z" fill="#000000" fill-rule="nonzero" fill-opacity="1" /><path clip-path="url(#clip910)" d="M1707.18 1465.52 L1712.06 1465.52 L1712.06 1471.4 L1707.18 1471.4 L1707.18 1465.52 Z" fill="#000000" fill-rule="nonzero" fill-opacity="1" /><path clip-path="url(#clip910)" d="M1732.25 1439.92 Q1728.64 1439.92 1726.81 1443.48 Q1725 1447.03 1725 1454.15 Q1725 1461.26 1726.81 1464.83 Q1728.64 1468.37 1732.25 1468.37 Q1735.88 1468.37 1737.69 1464.83 Q1739.51 1461.26 1739.51 1454.15 Q1739.51 1447.03 1737.69 1443.48 Q1735.88 1439.92 1732.25 1439.92 M1732.25 1436.21 Q1738.06 1436.21 1741.11 1440.82 Q1744.19 1445.4 1744.19 1454.15 Q1744.19 1462.88 1741.11 1467.49 Q1738.06 1472.07 1732.25 1472.07 Q1726.44 1472.07 1723.36 1467.49 Q1720.3 1462.88 1720.3 1454.15 Q1720.3 1445.4 1723.36 1440.82 Q1726.44 1436.21 1732.25 1436.21 Z" fill="#000000" fill-rule="nonzero" fill-opacity="1" /><path clip-path="url(#clip910)" d="M1682.04 1156.68 L1698.36 1156.68 L1698.36 1160.62 L1676.41 1160.62 L1676.41 1156.68 Q1679.08 1153.93 1683.66 1149.3 Q1688.27 1144.65 1689.45 1143.3 Q1691.69 1140.78 1692.57 1139.04 Q1693.47 1137.28 1693.47 1135.59 Q1693.47 1132.84 1691.53 1131.1 Q1689.61 1129.37 1686.51 1129.37 Q1684.31 1129.37 1681.85 1130.13 Q1679.42 1130.9 1676.64 1132.45 L1676.64 1127.72 Q1679.47 1126.59 1681.92 1126.01 Q1684.38 1125.43 1686.41 1125.43 Q1691.78 1125.43 1694.98 1128.12 Q1698.17 1130.8 1698.17 1135.29 Q1698.17 1137.42 1697.36 1139.34 Q1696.58 1141.24 1694.47 1143.84 Q1693.89 1144.51 1690.79 1147.72 Q1687.69 1150.92 1682.04 1156.68 Z" fill="#000000" fill-rule="nonzero" fill-opacity="1" /><path clip-path="url(#clip910)" d="M1708.17 1154.74 L1713.06 1154.74 L1713.06 1160.62 L1708.17 1160.62 L1708.17 1154.74 Z" fill="#000000" fill-rule="nonzero" fill-opacity="1" /><path clip-path="url(#clip910)" d="M1723.29 1126.06 L1741.64 1126.06 L1741.64 1129.99 L1727.57 1129.99 L1727.57 1138.47 Q1728.59 1138.12 1729.61 1137.96 Q1730.63 1137.77 1731.64 1137.77 Q1737.43 1137.77 1740.81 1140.94 Q1744.19 1144.11 1744.19 1149.53 Q1744.19 1155.11 1740.72 1158.21 Q1737.25 1161.29 1730.93 1161.29 Q1728.75 1161.29 1726.48 1160.92 Q1724.24 1160.55 1721.83 1159.81 L1721.83 1155.11 Q1723.91 1156.24 1726.14 1156.8 Q1728.36 1157.35 1730.83 1157.35 Q1734.84 1157.35 1737.18 1155.25 Q1739.51 1153.14 1739.51 1149.53 Q1739.51 1145.92 1737.18 1143.81 Q1734.84 1141.71 1730.83 1141.71 Q1728.96 1141.71 1727.08 1142.12 Q1725.23 1142.54 1723.29 1143.42 L1723.29 1126.06 Z" fill="#000000" fill-rule="nonzero" fill-opacity="1" /><path clip-path="url(#clip910)" d="M1677.06 815.276 L1695.42 815.276 L1695.42 819.211 L1681.34 819.211 L1681.34 827.683 Q1682.36 827.336 1683.38 827.174 Q1684.4 826.989 1685.42 826.989 Q1691.2 826.989 1694.58 830.16 Q1697.96 833.332 1697.96 838.748 Q1697.96 844.327 1694.49 847.429 Q1691.02 850.507 1684.7 850.507 Q1682.52 850.507 1680.26 850.137 Q1678.01 849.767 1675.6 849.026 L1675.6 844.327 Q1677.69 845.461 1679.91 846.017 Q1682.13 846.572 1684.61 846.572 Q1688.61 846.572 1690.95 844.466 Q1693.29 842.359 1693.29 838.748 Q1693.29 835.137 1690.95 833.031 Q1688.61 830.924 1684.61 830.924 Q1682.73 830.924 1680.86 831.341 Q1679.01 831.757 1677.06 832.637 L1677.06 815.276 Z" fill="#000000" fill-rule="nonzero" fill-opacity="1" /><path clip-path="url(#clip910)" d="M1707.18 843.956 L1712.06 843.956 L1712.06 849.836 L1707.18 849.836 L1707.18 843.956 Z" fill="#000000" fill-rule="nonzero" fill-opacity="1" /><path clip-path="url(#clip910)" d="M1732.25 818.355 Q1728.64 818.355 1726.81 821.92 Q1725 825.461 1725 832.591 Q1725 839.697 1726.81 843.262 Q1728.64 846.804 1732.25 846.804 Q1735.88 846.804 1737.69 843.262 Q1739.51 839.697 1739.51 832.591 Q1739.51 825.461 1737.69 821.92 Q1735.88 818.355 1732.25 818.355 M1732.25 814.651 Q1738.06 814.651 1741.11 819.258 Q1744.19 823.841 1744.19 832.591 Q1744.19 841.318 1741.11 845.924 Q1738.06 850.507 1732.25 850.507 Q1726.44 850.507 1723.36 845.924 Q1720.3 841.318 1720.3 832.591 Q1720.3 823.841 1723.36 819.258 Q1726.44 814.651 1732.25 814.651 Z" fill="#000000" fill-rule="nonzero" fill-opacity="1" /><path clip-path="url(#clip910)" d="M1676.83 504.494 L1699.05 504.494 L1699.05 506.485 L1686.51 539.054 L1681.62 539.054 L1693.43 508.429 L1676.83 508.429 L1676.83 504.494 Z" fill="#000000" fill-rule="nonzero" fill-opacity="1" /><path clip-path="url(#clip910)" d="M1708.17 533.175 L1713.06 533.175 L1713.06 539.054 L1708.17 539.054 L1708.17 533.175 Z" fill="#000000" fill-rule="nonzero" fill-opacity="1" /><path clip-path="url(#clip910)" d="M1723.29 504.494 L1741.64 504.494 L1741.64 508.429 L1727.57 508.429 L1727.57 516.901 Q1728.59 516.554 1729.61 516.392 Q1730.63 516.207 1731.64 516.207 Q1737.43 516.207 1740.81 519.378 Q1744.19 522.55 1744.19 527.966 Q1744.19 533.545 1740.72 536.647 Q1737.25 539.725 1730.93 539.725 Q1728.75 539.725 1726.48 539.355 Q1724.24 538.985 1721.83 538.244 L1721.83 533.545 Q1723.91 534.679 1726.14 535.235 Q1728.36 535.79 1730.83 535.79 Q1734.84 535.79 1737.18 533.684 Q1739.51 531.577 1739.51 527.966 Q1739.51 524.355 1737.18 522.249 Q1734.84 520.142 1730.83 520.142 Q1728.96 520.142 1727.08 520.559 Q1725.23 520.976 1723.29 521.855 L1723.29 504.494 Z" fill="#000000" fill-rule="nonzero" fill-opacity="1" /><path clip-path="url(#clip910)" d="M1647.66 224.337 L1655.3 224.337 L1655.3 197.971 L1646.99 199.638 L1646.99 195.379 L1655.26 193.712 L1659.93 193.712 L1659.93 224.337 L1667.57 224.337 L1667.57 228.272 L1647.66 228.272 L1647.66 224.337 Z" fill="#000000" fill-rule="nonzero" fill-opacity="1" /><path clip-path="url(#clip910)" d="M1687.02 196.791 Q1683.4 196.791 1681.58 200.356 Q1679.77 203.897 1679.77 211.027 Q1679.77 218.133 1681.58 221.698 Q1683.4 225.24 1687.02 225.24 Q1690.65 225.24 1692.45 221.698 Q1694.28 218.133 1694.28 211.027 Q1694.28 203.897 1692.45 200.356 Q1690.65 196.791 1687.02 196.791 M1687.02 193.087 Q1692.83 193.087 1695.88 197.694 Q1698.96 202.277 1698.96 211.027 Q1698.96 219.754 1695.88 224.36 Q1692.83 228.943 1687.02 228.943 Q1681.2 228.943 1678.13 224.36 Q1675.07 219.754 1675.07 211.027 Q1675.07 202.277 1678.13 197.694 Q1681.2 193.087 1687.02 193.087 Z" fill="#000000" fill-rule="nonzero" fill-opacity="1" /><path clip-path="url(#clip910)" d="M1707.18 222.393 L1712.06 222.393 L1712.06 228.272 L1707.18 228.272 L1707.18 222.393 Z" fill="#000000" fill-rule="nonzero" fill-opacity="1" /><path clip-path="url(#clip910)" d="M1732.25 196.791 Q1728.64 196.791 1726.81 200.356 Q1725 203.897 1725 211.027 Q1725 218.133 1726.81 221.698 Q1728.64 225.24 1732.25 225.24 Q1735.88 225.24 1737.69 221.698 Q1739.51 218.133 1739.51 211.027 Q1739.51 203.897 1737.69 200.356 Q1735.88 196.791 1732.25 196.791 M1732.25 193.087 Q1738.06 193.087 1741.11 197.694 Q1744.19 202.277 1744.19 211.027 Q1744.19 219.754 1741.11 224.36 Q1738.06 228.943 1732.25 228.943 Q1726.44 228.943 1723.36 224.36 Q1720.3 219.754 1720.3 211.027 Q1720.3 202.277 1723.36 197.694 Q1726.44 193.087 1732.25 193.087 Z" fill="#000000" fill-rule="nonzero" fill-opacity="1" /><polyline clip-path="url(#clip913)" style="stroke:#009af9; stroke-linecap:round; stroke-linejoin:round; stroke-width:4; stroke-opacity:1; fill:none" points="1830.7,210.992 1843.53,203.247 1856.37,195.712 1869.2,188.394 1882.04,181.294 1894.87,174.418 1907.71,167.769 1920.55,161.352 1933.38,155.171 1946.22,149.231 1959.05,143.535 1971.89,138.088 1984.72,132.896 1997.56,127.961 2010.39,123.29 2023.23,118.887 2036.07,114.757 2048.9,110.904 2061.74,107.334 2074.57,104.051 2087.41,101.062 2100.24,98.37 2113.08,95.9817 2125.91,93.9022 2138.75,92.1369 2151.59,90.6914 2164.42,89.5712 2177.26,88.7822 2190.09,88.3301 2202.93,88.2208 2215.76,88.4603 2228.6,89.0547 2241.43,90.0102 2254.27,91.333 2267.1,93.0295 2279.94,95.1062 2292.78,97.5696 2305.61,100.426 2318.45,103.683 2331.28,107.347 2344.12,111.425 2356.95,115.924 2369.79,120.852 2382.62,126.214 2395.46,132.02 2408.3,138.276 2421.13,144.991 2433.97,152.171 2446.8,159.825 2459.64,167.961 2472.47,176.586 2485.31,185.71 2498.14,195.34 2510.98,205.486 2523.82,216.154 2536.65,227.355 2549.49,239.098 2562.32,251.39 2575.16,264.242 2587.99,277.663 2600.83,291.661 2613.66,306.248 2626.5,321.432 2639.34,337.223 2652.17,353.632 2665.01,370.668 2677.84,388.342 2690.68,406.664 2703.51,425.646 2716.35,445.297 2729.18,465.629 2742.02,486.653 2754.85,508.38 2767.69,530.823 2780.53,553.991 2793.36,577.898 2806.2,602.555 2819.03,627.975 2831.87,654.169 2844.7,681.151 2857.54,708.934 2870.37,737.529 2883.21,766.951 2896.05,797.213 2908.88,828.328 2921.72,860.309 2934.55,893.172 2947.39,926.93 2960.22,961.598 2973.06,997.19 2985.89,1033.72 2998.73,1071.21 3011.57,1109.66 3024.4,1149.1 3037.24,1189.54 3050.07,1231 3062.91,1273.49 3075.74,1317.03 3088.58,1361.63 3101.41,1407.32 3114.25,1454.11 "/>
<path clip-path="url(#clip910)" d="M2897.53 199.186 L3107.4 199.186 L3107.4 95.5056 L2897.53 95.5056  Z" fill="#ffffff" fill-rule="evenodd" fill-opacity="1"/>
<polyline clip-path="url(#clip910)" style="stroke:#000000; stroke-linecap:round; stroke-linejoin:round; stroke-width:4; stroke-opacity:1; fill:none" points="2897.53,199.186 3107.4,199.186 3107.4,95.5056 2897.53,95.5056 2897.53,199.186 "/>
<polyline clip-path="url(#clip910)" style="stroke:#009af9; stroke-linecap:round; stroke-linejoin:round; stroke-width:4; stroke-opacity:1; fill:none" points="2912.65,147.346 3003.35,147.346 "/>
<path clip-path="url(#clip910)" d="M3031.87 151.593 Q3026.71 151.593 3024.72 152.774 Q3022.73 153.954 3022.73 156.802 Q3022.73 159.07 3024.21 160.413 Q3025.71 161.732 3028.28 161.732 Q3031.82 161.732 3033.95 159.232 Q3036.11 156.709 3036.11 152.542 L3036.11 151.593 L3031.87 151.593 M3040.37 149.834 L3040.37 164.626 L3036.11 164.626 L3036.11 160.69 Q3034.65 163.051 3032.47 164.186 Q3030.3 165.297 3027.15 165.297 Q3023.17 165.297 3020.81 163.075 Q3018.47 160.829 3018.47 157.079 Q3018.47 152.704 3021.38 150.482 Q3024.32 148.26 3030.13 148.26 L3036.11 148.26 L3036.11 147.843 Q3036.11 144.903 3034.16 143.306 Q3032.24 141.686 3028.75 141.686 Q3026.52 141.686 3024.42 142.218 Q3022.31 142.751 3020.37 143.815 L3020.37 139.88 Q3022.7 138.978 3024.9 138.538 Q3027.1 138.075 3029.18 138.075 Q3034.81 138.075 3037.59 140.991 Q3040.37 143.908 3040.37 149.834 Z" fill="#000000" fill-rule="nonzero" fill-opacity="1" /><path clip-path="url(#clip910)" d="M3050.55 160.69 L3058.19 160.69 L3058.19 134.325 L3049.88 135.991 L3049.88 131.732 L3058.14 130.066 L3062.82 130.066 L3062.82 160.69 L3070.46 160.69 L3070.46 164.626 L3050.55 164.626 L3050.55 160.69 Z" fill="#000000" fill-rule="nonzero" fill-opacity="1" /><path clip-path="url(#clip910)" d="M3083.51 131.339 L3083.51 138.7 L3092.29 138.7 L3092.29 142.01 L3083.51 142.01 L3083.51 156.084 Q3083.51 159.255 3084.37 160.158 Q3085.25 161.061 3087.91 161.061 L3092.29 161.061 L3092.29 164.626 L3087.91 164.626 Q3082.98 164.626 3081.11 162.797 Q3079.23 160.945 3079.23 156.084 L3079.23 142.01 L3076.11 142.01 L3076.11 138.7 L3079.23 138.7 L3079.23 131.339 L3083.51 131.339 Z" fill="#000000" fill-rule="nonzero" fill-opacity="1" /></svg>