<?xml version="1.0" encoding="utf-8"?>
<svg xmlns="http://www.w3.org/2000/svg" xmlns:xlink="http://www.w3.org/1999/xlink" width="800" height="400" viewBox="0 0 3200 1600">
<defs>
  <clipPath id="clip460">
    <rect x="0" y="0" width="3200" height="1600"/>
  </clipPath>
</defs>
<path clip-path="url(#clip460)" d="M0 1600 L3200 1600 L3200 0 L0 0  Z" fill="#ffffff" fill-rule="evenodd" fill-opacity="1"/>
<defs>
  <clipPath id="clip461">
    <rect x="640" y="0" width="2241" height="1600"/>
  </clipPath>
</defs>
<path clip-path="url(#clip460)" d="M194.274 1495.09 L1576.41 1495.09 L1576.41 47.2441 L194.274 47.2441  Z" fill="#ffffff" fill-rule="evenodd" fill-opacity="1"/>
<defs>
  <clipPath id="clip462">
    <rect x="194" y="47" width="1383" height="1449"/>
  </clipPath>
</defs>
<polyline clip-path="url(#clip462)" style="stroke:#000000; stroke-linecap:round; stroke-linejoin:round; stroke-width:2; stroke-opacity:0.1; fill:none" points="407.245,1495.09 407.245,47.2441 "/>
<polyline clip-path="url(#clip462)" style="stroke:#000000; stroke-linecap:round; stroke-linejoin:round; stroke-width:2; stroke-opacity:0.1; fill:none" points="668.026,1495.09 668.026,47.2441 "/>
<polyline clip-path="url(#clip462)" style="stroke:#000000; stroke-linecap:round; stroke-linejoin:round; stroke-width:2; stroke-opacity:0.1; fill:none" points="928.807,1495.09 928.807,47.2441 "/>
<polyline clip-path="url(#clip462)" style="stroke:#000000; stroke-linecap:round; stroke-linejoin:round; stroke-width:2; stroke-opacity:0.1; fill:none" points="1189.59,1495.09 1189.59,47.2441 "/>
<polyline clip-path="url(#clip462)" style="stroke:#000000; stroke-linecap:round; stroke-linejoin:round; stroke-width:2; stroke-opacity:0.1; fill:none" points="1450.37,1495.09 1450.37,47.2441 "/>
<polyline clip-path="url(#clip460)" style="stroke:#000000; stroke-linecap:round; stroke-linejoin:round; stroke-width:4; stroke-opacity:1; fill:none" points="194.274,1495.09 1576.41,1495.09 "/>
<polyline clip-path="url(#clip460)" style="stroke:#000000; stroke-linecap:round; stroke-linejoin:round; stroke-width:4; stroke-opacity:1; fill:none" points="407.245,1495.09 407.245,1476.19 "/>
<polyline clip-path="url(#clip460)" style="stroke:#000000; stroke-linecap:round; stroke-linejoin:round; stroke-width:4; stroke-opacity:1; fill:none" points="668.026,1495.09 668.026,1476.19 "/>
<polyline clip-path="url(#clip460)" style="stroke:#000000; stroke-linecap:round; stroke-linejoin:round; stroke-width:4; stroke-opacity:1; fill:none" points="928.807,1495.09 928.807,1476.19 "/>
<polyline clip-path="url(#clip460)" style="stroke:#000000; stroke-linecap:round; stroke-linejoin:round; stroke-width:4; stroke-opacity:1; fill:none" points="1189.59,1495.09 1189.59,1476.19 "/>
<polyline clip-path="url(#clip460)" style="stroke:#000000; stroke-linecap:round; stroke-linejoin:round; stroke-width:4; stroke-opacity:1; fill:none" points="1450.37,1495.09 1450.37,1476.19 "/>
<path clip-path="url(#clip460)" d="M411.493 1545.25 Q414.849 1545.97 416.724 1548.24 Q418.622 1550.51 418.622 1553.84 Q418.622 1558.96 415.104 1561.76 Q411.585 1564.56 405.104 1564.56 Q402.928 1564.56 400.613 1564.12 Q398.322 1563.7 395.868 1562.85 L395.868 1558.33 Q397.812 1559.47 400.127 1560.05 Q402.442 1560.62 404.965 1560.62 Q409.363 1560.62 411.655 1558.89 Q413.97 1557.15 413.97 1553.84 Q413.97 1550.79 411.817 1549.07 Q409.687 1547.34 405.868 1547.34 L401.84 1547.34 L401.84 1543.49 L406.053 1543.49 Q409.502 1543.49 411.331 1542.13 Q413.159 1540.74 413.159 1538.15 Q413.159 1535.49 411.261 1534.07 Q409.386 1532.64 405.868 1532.64 Q403.947 1532.64 401.747 1533.05 Q399.548 1533.47 396.91 1534.35 L396.91 1530.18 Q399.572 1529.44 401.886 1529.07 Q404.224 1528.7 406.284 1528.7 Q411.609 1528.7 414.71 1531.13 Q417.812 1533.54 417.812 1537.66 Q417.812 1540.53 416.169 1542.52 Q414.525 1544.49 411.493 1545.25 Z" fill="#000000" fill-rule="nonzero" fill-opacity="1" /><path clip-path="url(#clip460)" d="M668.431 1544.74 Q665.283 1544.74 663.431 1546.9 Q661.603 1549.05 661.603 1552.8 Q661.603 1556.53 663.431 1558.7 Q665.283 1560.86 668.431 1560.86 Q671.579 1560.86 673.408 1558.7 Q675.26 1556.53 675.26 1552.8 Q675.26 1549.05 673.408 1546.9 Q671.579 1544.74 668.431 1544.74 M677.714 1530.09 L677.714 1534.35 Q675.954 1533.52 674.149 1533.08 Q672.366 1532.64 670.607 1532.64 Q665.978 1532.64 663.524 1535.76 Q661.093 1538.89 660.746 1545.21 Q662.112 1543.19 664.172 1542.13 Q666.232 1541.04 668.709 1541.04 Q673.917 1541.04 676.927 1544.21 Q679.959 1547.36 679.959 1552.8 Q679.959 1558.12 676.811 1561.34 Q673.663 1564.56 668.431 1564.56 Q662.436 1564.56 659.265 1559.98 Q656.093 1555.37 656.093 1546.64 Q656.093 1538.45 659.982 1533.59 Q663.871 1528.7 670.422 1528.7 Q672.181 1528.7 673.964 1529.05 Q675.769 1529.4 677.714 1530.09 Z" fill="#000000" fill-rule="nonzero" fill-opacity="1" /><path clip-path="url(#clip460)" d="M919.108 1563.17 L919.108 1558.91 Q920.867 1559.74 922.673 1560.18 Q924.478 1560.62 926.215 1560.62 Q930.844 1560.62 933.275 1557.52 Q935.728 1554.4 936.076 1548.05 Q934.733 1550.05 932.673 1551.11 Q930.613 1552.17 928.113 1552.17 Q922.927 1552.17 919.895 1549.05 Q916.886 1545.9 916.886 1540.46 Q916.886 1535.14 920.034 1531.92 Q923.182 1528.7 928.414 1528.7 Q934.409 1528.7 937.557 1533.31 Q940.728 1537.89 940.728 1546.64 Q940.728 1554.81 936.839 1559.7 Q932.974 1564.56 926.423 1564.56 Q924.664 1564.56 922.858 1564.21 Q921.053 1563.86 919.108 1563.17 M928.414 1548.52 Q931.562 1548.52 933.39 1546.36 Q935.242 1544.21 935.242 1540.46 Q935.242 1536.74 933.39 1534.58 Q931.562 1532.41 928.414 1532.41 Q925.265 1532.41 923.414 1534.58 Q921.585 1536.74 921.585 1540.46 Q921.585 1544.21 923.414 1546.36 Q925.265 1548.52 928.414 1548.52 Z" fill="#000000" fill-rule="nonzero" fill-opacity="1" /><path clip-path="url(#clip460)" d="M1165.07 1559.95 L1172.71 1559.95 L1172.71 1533.59 L1164.4 1535.25 L1164.4 1530.99 L1172.67 1529.33 L1177.34 1529.33 L1177.34 1559.95 L1184.98 1559.95 L1184.98 1563.89 L1165.07 1563.89 L1165.07 1559.95 Z" fill="#000000" fill-rule="nonzero" fill-opacity="1" /><path clip-path="url(#clip460)" d="M1198.45 1559.95 L1214.77 1559.95 L1214.77 1563.89 L1192.83 1563.89 L1192.83 1559.95 Q1195.49 1557.2 1200.07 1552.57 Q1204.68 1547.92 1205.86 1546.57 Q1208.11 1544.05 1208.99 1542.31 Q1209.89 1540.55 1209.89 1538.86 Q1209.89 1536.11 1207.94 1534.37 Q1206.02 1532.64 1202.92 1532.64 Q1200.72 1532.64 1198.27 1533.4 Q1195.84 1534.17 1193.06 1535.72 L1193.06 1530.99 Q1195.88 1529.86 1198.34 1529.28 Q1200.79 1528.7 1202.83 1528.7 Q1208.2 1528.7 1211.39 1531.39 Q1214.59 1534.07 1214.59 1538.56 Q1214.59 1540.69 1213.78 1542.61 Q1212.99 1544.51 1210.88 1547.11 Q1210.31 1547.78 1207.2 1550.99 Q1204.1 1554.19 1198.45 1559.95 Z" fill="#000000" fill-rule="nonzero" fill-opacity="1" /><path clip-path="url(#clip460)" d="M1425.55 1559.95 L1433.19 1559.95 L1433.19 1533.59 L1424.88 1535.25 L1424.88 1530.99 L1433.15 1529.33 L1437.82 1529.33 L1437.82 1559.95 L1445.46 1559.95 L1445.46 1563.89 L1425.55 1563.89 L1425.55 1559.95 Z" fill="#000000" fill-rule="nonzero" fill-opacity="1" /><path clip-path="url(#clip460)" d="M1454.95 1529.33 L1473.31 1529.33 L1473.31 1533.26 L1459.23 1533.26 L1459.23 1541.74 Q1460.25 1541.39 1461.27 1541.23 Q1462.29 1541.04 1463.31 1541.04 Q1469.1 1541.04 1472.48 1544.21 Q1475.86 1547.38 1475.86 1552.8 Q1475.86 1558.38 1472.38 1561.48 Q1468.91 1564.56 1462.59 1564.56 Q1460.42 1564.56 1458.15 1564.19 Q1455.9 1563.82 1453.49 1563.08 L1453.49 1558.38 Q1455.58 1559.51 1457.8 1560.07 Q1460.02 1560.62 1462.5 1560.62 Q1466.5 1560.62 1468.84 1558.52 Q1471.18 1556.41 1471.18 1552.8 Q1471.18 1549.19 1468.84 1547.08 Q1466.5 1544.98 1462.5 1544.98 Q1460.62 1544.98 1458.75 1545.39 Q1456.9 1545.81 1454.95 1546.69 L1454.95 1529.33 Z" fill="#000000" fill-rule="nonzero" fill-opacity="1" /><polyline clip-path="url(#clip462)" style="stroke:#000000; stroke-linecap:round; stroke-linejoin:round; stroke-width:2; stroke-opacity:0.1; fill:none" points="194.274,1330.19 1576.41,1330.19 "/>
<polyline clip-path="url(#clip462)" style="stroke:#000000; stroke-linecap:round; stroke-linejoin:round; stroke-width:2; stroke-opacity:0.1; fill:none" points="194.274,1019.69 1576.41,1019.69 "/>
<polyline clip-path="url(#clip462)" style="stroke:#000000; stroke-linecap:round; stroke-linejoin:round; stroke-width:2; stroke-opacity:0.1; fill:none" points="194.274,709.203 1576.41,709.203 "/>
<polyline clip-path="url(#clip462)" style="stroke:#000000; stroke-linecap:round; stroke-linejoin:round; stroke-width:2; stroke-opacity:0.1; fill:none" points="194.274,398.712 1576.41,398.712 "/>
<polyline clip-path="url(#clip462)" style="stroke:#000000; stroke-linecap:round; stroke-linejoin:round; stroke-width:2; stroke-opacity:0.1; fill:none" points="194.274,88.2208 1576.41,88.2208 "/>
<polyline clip-path="url(#clip460)" style="stroke:#000000; stroke-linecap:round; stroke-linejoin:round; stroke-width:4; stroke-opacity:1; fill:none" points="194.274,1495.09 194.274,47.2441 "/>
<polyline clip-path="url(#clip460)" style="stroke:#000000; stroke-linecap:round; stroke-linejoin:round; stroke-width:4; stroke-opacity:1; fill:none" points="194.274,1330.19 213.172,1330.19 "/>
<polyline clip-path="url(#clip460)" style="stroke:#000000; stroke-linecap:round; stroke-linejoin:round; stroke-width:4; stroke-opacity:1; fill:none" points="194.274,1019.69 213.172,1019.69 "/>
<polyline clip-path="url(#clip460)" style="stroke:#000000; stroke-linecap:round; stroke-linejoin:round; stroke-width:4; stroke-opacity:1; fill:none" points="194.274,709.203 213.172,709.203 "/>
<polyline clip-path="url(#clip460)" style="stroke:#000000; stroke-linecap:round; stroke-linejoin:round; stroke-width:4; stroke-opacity:1; fill:none" points="194.274,398.712 213.172,398.712 "/>
<polyline clip-path="url(#clip460)" style="stroke:#000000; stroke-linecap:round; stroke-linejoin:round; stroke-width:4; stroke-opacity:1; fill:none" points="194.274,88.2208 213.172,88.2208 "/>
<path clip-path="url(#clip460)" d="M58.9365 1315.98 Q55.3254 1315.98 53.4967 1319.55 Q51.6912 1323.09 51.6912 1330.22 Q51.6912 1337.33 53.4967 1340.89 Q55.3254 1344.43 58.9365 1344.43 Q62.5707 1344.43 64.3763 1340.89 Q66.205 1337.33 66.205 1330.22 Q66.205 1323.09 64.3763 1319.55 Q62.5707 1315.98 58.9365 1315.98 M58.9365 1312.28 Q64.7467 1312.28 67.8022 1316.89 Q70.8809 1321.47 70.8809 1330.22 Q70.8809 1338.95 67.8022 1343.55 Q64.7467 1348.14 58.9365 1348.14 Q53.1264 1348.14 50.0477 1343.55 Q46.9921 1338.95 46.9921 1330.22 Q46.9921 1321.47 50.0477 1316.89 Q53.1264 1312.28 58.9365 1312.28 Z" fill="#000000" fill-rule="nonzero" fill-opacity="1" /><path clip-path="url(#clip460)" d="M79.0984 1341.59 L83.9827 1341.59 L83.9827 1347.47 L79.0984 1347.47 L79.0984 1341.59 Z" fill="#000000" fill-rule="nonzero" fill-opacity="1" /><path clip-path="url(#clip460)" d="M94.2141 1312.91 L112.57 1312.91 L112.57 1316.84 L98.4965 1316.84 L98.4965 1325.31 Q99.515 1324.97 100.534 1324.8 Q101.552 1324.62 102.571 1324.62 Q108.358 1324.62 111.737 1327.79 Q115.117 1330.96 115.117 1336.38 Q115.117 1341.96 111.645 1345.06 Q108.172 1348.14 101.853 1348.14 Q99.677 1348.14 97.4085 1347.77 Q95.1632 1347.4 92.7558 1346.66 L92.7558 1341.96 Q94.8391 1343.09 97.0613 1343.65 Q99.2835 1344.2 101.76 1344.2 Q105.765 1344.2 108.103 1342.09 Q110.441 1339.99 110.441 1336.38 Q110.441 1332.77 108.103 1330.66 Q105.765 1328.55 101.76 1328.55 Q99.8854 1328.55 98.0104 1328.97 Q96.1585 1329.39 94.2141 1330.27 L94.2141 1312.91 Z" fill="#000000" fill-rule="nonzero" fill-opacity="1" /><path clip-path="url(#clip460)" d="M134.33 1315.98 Q130.719 1315.98 128.89 1319.55 Q127.084 1323.09 127.084 1330.22 Q127.084 1337.33 128.89 1340.89 Q130.719 1344.43 134.33 1344.43 Q137.964 1344.43 139.769 1340.89 Q141.598 1337.33 141.598 1330.22 Q141.598 1323.09 139.769 1319.55 Q137.964 1315.98 134.33 1315.98 M134.33 1312.28 Q140.14 1312.28 143.195 1316.89 Q146.274 1321.47 146.274 1330.22 Q146.274 1338.95 143.195 1343.55 Q140.14 1348.14 134.33 1348.14 Q128.519 1348.14 125.441 1343.55 Q122.385 1338.95 122.385 1330.22 Q122.385 1321.47 125.441 1316.89 Q128.519 1312.28 134.33 1312.28 Z" fill="#000000" fill-rule="nonzero" fill-opacity="1" /><path clip-path="url(#clip460)" d="M59.9319 1005.49 Q56.3208 1005.49 54.4921 1009.06 Q52.6865 1012.6 52.6865 1019.73 Q52.6865 1026.84 54.4921 1030.4 Q56.3208 1033.94 59.9319 1033.94 Q63.5661 1033.94 65.3717 1030.4 Q67.2004 1026.84 67.2004 1019.73 Q67.2004 1012.6 65.3717 1009.06 Q63.5661 1005.49 59.9319 1005.49 M59.9319 1001.79 Q65.742 1001.79 68.7976 1006.4 Q71.8763 1010.98 71.8763 1019.73 Q71.8763 1028.46 68.7976 1033.06 Q65.742 1037.65 59.9319 1037.65 Q54.1217 1037.65 51.043 1033.06 Q47.9875 1028.46 47.9875 1019.73 Q47.9875 1010.98 51.043 1006.4 Q54.1217 1001.79 59.9319 1001.79 Z" fill="#000000" fill-rule="nonzero" fill-opacity="1" /><path clip-path="url(#clip460)" d="M80.0938 1031.09 L84.978 1031.09 L84.978 1036.97 L80.0938 1036.97 L80.0938 1031.09 Z" fill="#000000" fill-rule="nonzero" fill-opacity="1" /><path clip-path="url(#clip460)" d="M95.2095 1002.41 L113.566 1002.41 L113.566 1006.35 L99.4918 1006.35 L99.4918 1014.82 Q100.51 1014.47 101.529 1014.31 Q102.547 1014.13 103.566 1014.13 Q109.353 1014.13 112.733 1017.3 Q116.112 1020.47 116.112 1025.89 Q116.112 1031.46 112.64 1034.57 Q109.168 1037.65 102.848 1037.65 Q100.672 1037.65 98.4039 1037.28 Q96.1585 1036.9 93.7511 1036.16 L93.7511 1031.46 Q95.8345 1032.6 98.0567 1033.15 Q100.279 1033.71 102.756 1033.71 Q106.76 1033.71 109.098 1031.6 Q111.436 1029.5 111.436 1025.89 Q111.436 1022.28 109.098 1020.17 Q106.76 1018.06 102.756 1018.06 Q100.881 1018.06 99.0057 1018.48 Q97.1539 1018.9 95.2095 1019.78 L95.2095 1002.41 Z" fill="#000000" fill-rule="nonzero" fill-opacity="1" /><path clip-path="url(#clip460)" d="M125.371 1002.41 L143.728 1002.41 L143.728 1006.35 L129.654 1006.35 L129.654 1014.82 Q130.672 1014.47 131.691 1014.31 Q132.709 1014.13 133.728 1014.13 Q139.515 1014.13 142.894 1017.3 Q146.274 1020.47 146.274 1025.89 Q146.274 1031.46 142.802 1034.57 Q139.33 1037.65 133.01 1037.65 Q130.834 1037.65 128.566 1037.28 Q126.32 1036.9 123.913 1036.16 L123.913 1031.46 Q125.996 1032.6 128.219 1033.15 Q130.441 1033.71 132.918 1033.71 Q136.922 1033.71 139.26 1031.6 Q141.598 1029.5 141.598 1025.89 Q141.598 1022.28 139.26 1020.17 Q136.922 1018.06 132.918 1018.06 Q131.043 1018.06 129.168 1018.48 Q127.316 1018.9 125.371 1019.78 L125.371 1002.41 Z" fill="#000000" fill-rule="nonzero" fill-opacity="1" /><path clip-path="url(#clip460)" d="M58.9365 695.002 Q55.3254 695.002 53.4967 698.567 Q51.6912 702.108 51.6912 709.238 Q51.6912 716.344 53.4967 719.909 Q55.3254 723.451 58.9365 723.451 Q62.5707 723.451 64.3763 719.909 Q66.205 716.344 66.205 709.238 Q66.205 702.108 64.3763 698.567 Q62.5707 695.002 58.9365 695.002 M58.9365 691.298 Q64.7467 691.298 67.8022 695.905 Q70.8809 700.488 70.8809 709.238 Q70.8809 717.965 67.8022 722.571 Q64.7467 727.154 58.9365 727.154 Q53.1264 727.154 50.0477 722.571 Q46.9921 717.965 46.9921 709.238 Q46.9921 700.488 50.0477 695.905 Q53.1264 691.298 58.9365 691.298 Z" fill="#000000" fill-rule="nonzero" fill-opacity="1" /><path clip-path="url(#clip460)" d="M79.0984 720.603 L83.9827 720.603 L83.9827 726.483 L79.0984 726.483 L79.0984 720.603 Z" fill="#000000" fill-rule="nonzero" fill-opacity="1" /><path clip-path="url(#clip460)" d="M104.746 707.34 Q101.598 707.34 99.7465 709.492 Q97.9178 711.645 97.9178 715.395 Q97.9178 719.122 99.7465 721.298 Q101.598 723.451 104.746 723.451 Q107.895 723.451 109.723 721.298 Q111.575 719.122 111.575 715.395 Q111.575 711.645 109.723 709.492 Q107.895 707.34 104.746 707.34 M114.029 692.687 L114.029 696.946 Q112.27 696.113 110.464 695.673 Q108.682 695.233 106.922 695.233 Q102.293 695.233 99.8391 698.358 Q97.4085 701.483 97.0613 707.803 Q98.427 705.789 100.487 704.724 Q102.547 703.636 105.024 703.636 Q110.233 703.636 113.242 706.807 Q116.274 709.955 116.274 715.395 Q116.274 720.719 113.126 723.937 Q109.978 727.154 104.746 727.154 Q98.7511 727.154 95.5798 722.571 Q92.4085 717.965 92.4085 709.238 Q92.4085 701.043 96.2974 696.182 Q100.186 691.298 106.737 691.298 Q108.496 691.298 110.279 691.645 Q112.084 691.992 114.029 692.687 Z" fill="#000000" fill-rule="nonzero" fill-opacity="1" /><path clip-path="url(#clip460)" d="M134.33 695.002 Q130.719 695.002 128.89 698.567 Q127.084 702.108 127.084 709.238 Q127.084 716.344 128.89 719.909 Q130.719 723.451 134.33 723.451 Q137.964 723.451 139.769 719.909 Q141.598 716.344 141.598 709.238 Q141.598 702.108 139.769 698.567 Q137.964 695.002 134.33 695.002 M134.33 691.298 Q140.14 691.298 143.195 695.905 Q146.274 700.488 146.274 709.238 Q146.274 717.965 143.195 722.571 Q140.14 727.154 134.33 727.154 Q128.519 727.154 125.441 722.571 Q122.385 717.965 122.385 709.238 Q122.385 700.488 125.441 695.905 Q128.519 691.298 134.33 691.298 Z" fill="#000000" fill-rule="nonzero" fill-opacity="1" /><path clip-path="url(#clip460)" d="M59.9319 384.511 Q56.3208 384.511 54.4921 388.075 Q52.6865 391.617 52.6865 398.747 Q52.6865 405.853 54.4921 409.418 Q56.3208 412.96 59.9319 412.96 Q63.5661 412.96 65.3717 409.418 Q67.2004 405.853 67.2004 398.747 Q67.2004 391.617 65.3717 388.075 Q63.5661 384.511 59.9319 384.511 M59.9319 380.807 Q65.742 380.807 68.7976 385.413 Q71.8763 389.997 71.8763 398.747 Q71.8763 407.473 68.7976 412.08 Q65.742 416.663 59.9319 416.663 Q54.1217 416.663 51.043 412.08 Q47.9875 407.473 47.9875 398.747 Q47.9875 389.997 51.043 385.413 Q54.1217 380.807 59.9319 380.807 Z" fill="#000000" fill-rule="nonzero" fill-opacity="1" /><path clip-path="url(#clip460)" d="M80.0938 410.112 L84.978 410.112 L84.978 415.992 L80.0938 415.992 L80.0938 410.112 Z" fill="#000000" fill-rule="nonzero" fill-opacity="1" /><path clip-path="url(#clip460)" d="M105.742 396.849 Q102.594 396.849 100.742 399.001 Q98.9131 401.154 98.9131 404.904 Q98.9131 408.631 100.742 410.807 Q102.594 412.96 105.742 412.96 Q108.89 412.96 110.719 410.807 Q112.57 408.631 112.57 404.904 Q112.57 401.154 110.719 399.001 Q108.89 396.849 105.742 396.849 M115.024 382.196 L115.024 386.455 Q113.265 385.622 111.459 385.182 Q109.677 384.742 107.918 384.742 Q103.288 384.742 100.834 387.867 Q98.4039 390.992 98.0567 397.311 Q99.4224 395.298 101.483 394.233 Q103.543 393.145 106.02 393.145 Q111.228 393.145 114.237 396.316 Q117.27 399.464 117.27 404.904 Q117.27 410.228 114.121 413.446 Q110.973 416.663 105.742 416.663 Q99.7465 416.663 96.5752 412.08 Q93.4039 407.473 93.4039 398.747 Q93.4039 390.552 97.2928 385.691 Q101.182 380.807 107.733 380.807 Q109.492 380.807 111.274 381.154 Q113.08 381.501 115.024 382.196 Z" fill="#000000" fill-rule="nonzero" fill-opacity="1" /><path clip-path="url(#clip460)" d="M125.371 381.432 L143.728 381.432 L143.728 385.367 L129.654 385.367 L129.654 393.839 Q130.672 393.492 131.691 393.33 Q132.709 393.145 133.728 393.145 Q139.515 393.145 142.894 396.316 Q146.274 399.487 146.274 404.904 Q146.274 410.483 142.802 413.585 Q139.33 416.663 133.01 416.663 Q130.834 416.663 128.566 416.293 Q126.32 415.922 123.913 415.182 L123.913 410.483 Q125.996 411.617 128.219 412.173 Q130.441 412.728 132.918 412.728 Q136.922 412.728 139.26 410.622 Q141.598 408.515 141.598 404.904 Q141.598 401.293 139.26 399.186 Q136.922 397.08 132.918 397.08 Q131.043 397.08 129.168 397.497 Q127.316 397.913 125.371 398.793 L125.371 381.432 Z" fill="#000000" fill-rule="nonzero" fill-opacity="1" /><path clip-path="url(#clip460)" d="M58.9365 74.0195 Q55.3254 74.0195 53.4967 77.5843 Q51.6912 81.1259 51.6912 88.2555 Q51.6912 95.362 53.4967 98.9268 Q55.3254 102.468 58.9365 102.468 Q62.5707 102.468 64.3763 98.9268 Q66.205 95.362 66.205 88.2555 Q66.205 81.1259 64.3763 77.5843 Q62.5707 74.0195 58.9365 74.0195 M58.9365 70.3158 Q64.7467 70.3158 67.8022 74.9223 Q70.8809 79.5056 70.8809 88.2555 Q70.8809 96.9823 67.8022 101.589 Q64.7467 106.172 58.9365 106.172 Q53.1264 106.172 50.0477 101.589 Q46.9921 96.9823 46.9921 88.2555 Q46.9921 79.5056 50.0477 74.9223 Q53.1264 70.3158 58.9365 70.3158 Z" fill="#000000" fill-rule="nonzero" fill-opacity="1" /><path clip-path="url(#clip460)" d="M79.0984 99.6212 L83.9827 99.6212 L83.9827 105.501 L79.0984 105.501 L79.0984 99.6212 Z" fill="#000000" fill-rule="nonzero" fill-opacity="1" /><path clip-path="url(#clip460)" d="M92.9872 70.9408 L115.209 70.9408 L115.209 72.9315 L102.663 105.501 L97.7789 105.501 L109.584 74.876 L92.9872 74.876 L92.9872 70.9408 Z" fill="#000000" fill-rule="nonzero" fill-opacity="1" /><path clip-path="url(#clip460)" d="M134.33 74.0195 Q130.719 74.0195 128.89 77.5843 Q127.084 81.1259 127.084 88.2555 Q127.084 95.362 128.89 98.9268 Q130.719 102.468 134.33 102.468 Q137.964 102.468 139.769 98.9268 Q141.598 95.362 141.598 88.2555 Q141.598 81.1259 139.769 77.5843 Q137.964 74.0195 134.33 74.0195 M134.33 70.3158 Q140.14 70.3158 143.195 74.9223 Q146.274 79.5056 146.274 88.2555 Q146.274 96.9823 143.195 101.589 Q140.14 106.172 134.33 106.172 Q128.519 106.172 125.441 101.589 Q122.385 96.9823 122.385 88.2555 Q122.385 79.5056 125.441 74.9223 Q128.519 70.3158 134.33 70.3158 Z" fill="#000000" fill-rule="nonzero" fill-opacity="1" /><polyline clip-path="url(#clip462)" style="stroke:#009af9; stroke-linecap:round; stroke-linejoin:round; stroke-width:4; stroke-opacity:1; fill:none" points="233.391,88.2208 320.318,196.168 407.245,301.435 494.172,404.088 581.099,504.191 668.026,601.809 754.953,697.002 841.88,789.831 928.807,880.356 1015.73,968.632 1102.66,1054.72 1189.59,1138.66 1276.52,1220.52 1363.44,1300.35 1450.37,1378.2 1537.3,1454.11 "/>
<path clip-path="url(#clip460)" d="M1351.23 199.186 L1530.34 199.186 L1530.34 95.5056 L1351.23 95.5056  Z" fill="#ffffff" fill-rule="evenodd" fill-opacity="1"/>
<polyline clip-path="url(#clip460)" style="stroke:#000000; stroke-linecap:round; stroke-linejoin:round; stroke-width:4; stroke-opacity:1; fill:none" points="1351.23,199.186 1530.34,199.186 1530.34,95.5056 1351.23,95.5056 1351.23,199.186 "/>
<polyline clip-path="url(#clip460)" style="stroke:#009af9; stroke-linecap:round; stroke-linejoin:round; stroke-width:4; stroke-opacity:1; fill:none" points="1366.58,147.346 1458.73,147.346 "/>
<path clip-path="url(#clip460)" d="M1494.59 139.695 L1494.59 143.677 Q1492.79 142.681 1490.96 142.195 Q1489.15 141.686 1487.3 141.686 Q1483.16 141.686 1480.86 144.325 Q1478.57 146.94 1478.57 151.686 Q1478.57 156.431 1480.86 159.07 Q1483.16 161.686 1487.3 161.686 Q1489.15 161.686 1490.96 161.2 Q1492.79 160.69 1494.59 159.695 L1494.59 163.63 Q1492.81 164.464 1490.89 164.88 Q1488.99 165.297 1486.84 165.297 Q1480.98 165.297 1477.53 161.616 Q1474.08 157.936 1474.08 151.686 Q1474.08 145.343 1477.55 141.709 Q1481.05 138.075 1487.11 138.075 Q1489.08 138.075 1490.96 138.491 Q1492.83 138.885 1494.59 139.695 Z" fill="#000000" fill-rule="nonzero" fill-opacity="1" /><path clip-path="url(#clip460)" d="M1506.21 131.339 L1506.21 138.7 L1514.98 138.7 L1514.98 142.01 L1506.21 142.01 L1506.21 156.084 Q1506.21 159.255 1507.07 160.158 Q1507.95 161.061 1510.61 161.061 L1514.98 161.061 L1514.98 164.626 L1510.61 164.626 Q1505.68 164.626 1503.8 162.797 Q1501.93 160.945 1501.93 156.084 L1501.93 142.01 L1498.8 142.01 L1498.8 138.7 L1501.93 138.7 L1501.93 131.339 L1506.21 131.339 Z" fill="#000000" fill-rule="nonzero" fill-opacity="1" /><path clip-path="url(#clip460)" d="M1770.62 1495.09 L3152.76 1495.09 L3152.76 47.2441 L1770.62 47.2441  Z" fill="#ffffff" fill-rule="evenodd" fill-opacity="1"/>
<defs>
  <clipPath id="clip463">
    <rect x="1770" y="47" width="1383" height="1449"/>
  </clipPath>
</defs>
<polyline clip-path="url(#clip463)" style="stroke:#000000; stroke-linecap:round; stroke-linejoin:round; stroke-width:2; stroke-opacity:0.1; fill:none" points="1983.59,1495.09 1983.59,47.2441 "/>
<polyline clip-path="url(#clip463)" style="stroke:#000000; stroke-linecap:round; stroke-linejoin:round; stroke-width:2; stroke-opacity:0.1; fill:none" points="2244.37,1495.09 2244.37,47.2441 "/>
<polyline clip-path="url(#clip463)" style="stroke:#000000; stroke-linecap:round; stroke-linejoin:round; stroke-width:2; stroke-opacity:0.1; fill:none" points="2505.15,1495.09 2505.15,47.2441 "/>
<polyline clip-path="url(#clip463)" style="stroke:#000000; stroke-linecap:round; stroke-linejoin:round; stroke-width:2; stroke-opacity:0.1; fill:none" points="2765.93,1495.09 2765.93,47.2441 "/>
<polyline clip-path="url(#clip463)" style="stroke:#000000; stroke-linecap:round; stroke-linejoin:round; stroke-width:2; stroke-opacity:0.1; fill:none" points="3026.71,1495.09 3026.71,47.2441 "/>
<polyline clip-path="url(#clip460)" style="stroke:#000000; stroke-linecap:round; stroke-linejoin:round; stroke-width:4; stroke-opacity:1; fill:none" points="1770.62,1495.09 3152.76,1495.09 "/>
<polyline clip-path="url(#clip460)" style="stroke:#000000; stroke-linecap:round; stroke-linejoin:round; stroke-width:4; stroke-opacity:1; fill:none" points="1983.59,1495.09 1983.59,1476.19 "/>
<polyline clip-path="url(#clip460)" style="stroke:#000000; stroke-linecap:round; stroke-linejoin:round; stroke-width:4; stroke-opacity:1; fill:none" points="2244.37,1495.09 2244.37,1476.19 "/>
<polyline clip-path="url(#clip460)" style="stroke:#000000; stroke-linecap:round; stroke-linejoin:round; stroke-width:4; stroke-opacity:1; fill:none" points="2505.15,1495.09 2505.15,1476.19 "/>
<polyline clip-path="url(#clip460)" style="stroke:#000000; stroke-linecap:round; stroke-linejoin:round; stroke-width:4; stroke-opacity:1; fill:none" points="2765.93,1495.09 2765.93,1476.19 "/>
<polyline clip-path="url(#clip460)" style="stroke:#000000; stroke-linecap:round; stroke-linejoin:round; stroke-width:4; stroke-opacity:1; fill:none" points="3026.71,1495.09 3026.71,1476.19 "/>
<path clip-path="url(#clip460)" d="M1987.84 1545.25 Q1991.19 1545.97 1993.07 1548.24 Q1994.97 1550.51 1994.97 1553.84 Q1994.97 1558.96 1991.45 1561.76 Q1987.93 1564.56 1981.45 1564.56 Q1979.27 1564.56 1976.96 1564.12 Q1974.66 1563.7 1972.21 1562.85 L1972.21 1558.33 Q1974.16 1559.47 1976.47 1560.05 Q1978.78 1560.62 1981.31 1560.62 Q1985.71 1560.62 1988 1558.89 Q1990.31 1557.15 1990.31 1553.84 Q1990.31 1550.79 1988.16 1549.07 Q1986.03 1547.34 1982.21 1547.34 L1978.18 1547.34 L1978.18 1543.49 L1982.4 1543.49 Q1985.84 1543.49 1987.67 1542.13 Q1989.5 1540.74 1989.5 1538.15 Q1989.5 1535.49 1987.6 1534.07 Q1985.73 1532.64 1982.21 1532.64 Q1980.29 1532.64 1978.09 1533.05 Q1975.89 1533.47 1973.25 1534.35 L1973.25 1530.18 Q1975.91 1529.44 1978.23 1529.07 Q1980.57 1528.7 1982.63 1528.7 Q1987.95 1528.7 1991.05 1531.13 Q1994.15 1533.54 1994.15 1537.66 Q1994.15 1540.53 1992.51 1542.52 Q1990.87 1544.49 1987.84 1545.25 Z" fill="#000000" fill-rule="nonzero" fill-opacity="1" /><path clip-path="url(#clip460)" d="M2244.77 1544.74 Q2241.63 1544.74 2239.77 1546.9 Q2237.95 1549.05 2237.95 1552.8 Q2237.95 1556.53 2239.77 1558.7 Q2241.63 1560.86 2244.77 1560.86 Q2247.92 1560.86 2249.75 1558.7 Q2251.6 1556.53 2251.6 1552.8 Q2251.6 1549.05 2249.75 1546.9 Q2247.92 1544.74 2244.77 1544.74 M2254.06 1530.09 L2254.06 1534.35 Q2252.3 1533.52 2250.49 1533.08 Q2248.71 1532.64 2246.95 1532.64 Q2242.32 1532.64 2239.87 1535.76 Q2237.44 1538.89 2237.09 1545.21 Q2238.45 1543.19 2240.51 1542.13 Q2242.57 1541.04 2245.05 1541.04 Q2250.26 1541.04 2253.27 1544.21 Q2256.3 1547.36 2256.3 1552.8 Q2256.3 1558.12 2253.15 1561.34 Q2250.01 1564.56 2244.77 1564.56 Q2238.78 1564.56 2235.61 1559.98 Q2232.44 1555.37 2232.44 1546.64 Q2232.44 1538.45 2236.32 1533.59 Q2240.21 1528.7 2246.76 1528.7 Q2248.52 1528.7 2250.31 1529.05 Q2252.11 1529.4 2254.06 1530.09 Z" fill="#000000" fill-rule="nonzero" fill-opacity="1" /><path clip-path="url(#clip460)" d="M2495.45 1563.17 L2495.45 1558.91 Q2497.21 1559.74 2499.02 1560.18 Q2500.82 1560.62 2502.56 1560.62 Q2507.19 1560.62 2509.62 1557.52 Q2512.07 1554.4 2512.42 1548.05 Q2511.08 1550.05 2509.02 1551.11 Q2506.96 1552.17 2504.46 1552.17 Q2499.27 1552.17 2496.24 1549.05 Q2493.23 1545.9 2493.23 1540.46 Q2493.23 1535.14 2496.38 1531.92 Q2499.52 1528.7 2504.76 1528.7 Q2510.75 1528.7 2513.9 1533.31 Q2517.07 1537.89 2517.07 1546.64 Q2517.07 1554.81 2513.18 1559.7 Q2509.32 1564.56 2502.77 1564.56 Q2501.01 1564.56 2499.2 1564.21 Q2497.4 1563.86 2495.45 1563.17 M2504.76 1548.52 Q2507.9 1548.52 2509.73 1546.36 Q2511.58 1544.21 2511.58 1540.46 Q2511.58 1536.74 2509.73 1534.58 Q2507.9 1532.41 2504.76 1532.41 Q2501.61 1532.41 2499.76 1534.58 Q2497.93 1536.74 2497.93 1540.46 Q2497.93 1544.21 2499.76 1546.36 Q2501.61 1548.52 2504.76 1548.52 Z" fill="#000000" fill-rule="nonzero" fill-opacity="1" /><path clip-path="url(#clip460)" d="M2741.42 1559.95 L2749.06 1559.95 L2749.06 1533.59 L2740.75 1535.25 L2740.75 1530.99 L2749.01 1529.33 L2753.69 1529.33 L2753.69 1559.95 L2761.32 1559.95 L2761.32 1563.89 L2741.42 1563.89 L2741.42 1559.95 Z" fill="#000000" fill-rule="nonzero" fill-opacity="1" /><path clip-path="url(#clip460)" d="M2774.8 1559.95 L2791.12 1559.95 L2791.12 1563.89 L2769.17 1563.89 L2769.17 1559.95 Q2771.83 1557.2 2776.42 1552.57 Q2781.02 1547.92 2782.2 1546.57 Q2784.45 1544.05 2785.33 1542.31 Q2786.23 1540.55 2786.23 1538.86 Q2786.23 1536.11 2784.29 1534.37 Q2782.37 1532.64 2779.26 1532.64 Q2777.06 1532.64 2774.61 1533.4 Q2772.18 1534.17 2769.4 1535.72 L2769.4 1530.99 Q2772.23 1529.86 2774.68 1529.28 Q2777.13 1528.7 2779.17 1528.7 Q2784.54 1528.7 2787.74 1531.39 Q2790.93 1534.07 2790.93 1538.56 Q2790.93 1540.69 2790.12 1542.61 Q2789.33 1544.51 2787.23 1547.11 Q2786.65 1547.78 2783.55 1550.99 Q2780.44 1554.19 2774.8 1559.95 Z" fill="#000000" fill-rule="nonzero" fill-opacity="1" /><path clip-path="url(#clip460)" d="M3001.9 1559.95 L3009.54 1559.95 L3009.54 1533.59 L3001.23 1535.25 L3001.23 1530.99 L3009.49 1529.33 L3014.17 1529.33 L3014.17 1559.95 L3021.8 1559.95 L3021.8 1563.89 L3001.9 1563.89 L3001.9 1559.95 Z" fill="#000000" fill-rule="nonzero" fill-opacity="1" /><path clip-path="url(#clip460)" d="M3031.3 1529.33 L3049.65 1529.33 L3049.65 1533.26 L3035.58 1533.26 L3035.58 1541.74 Q3036.6 1541.39 3037.61 1541.23 Q3038.63 1541.04 3039.65 1541.04 Q3045.44 1541.04 3048.82 1544.21 Q3052.2 1547.38 3052.2 1552.8 Q3052.2 1558.38 3048.73 1561.48 Q3045.25 1564.56 3038.93 1564.56 Q3036.76 1564.56 3034.49 1564.19 Q3032.24 1563.82 3029.84 1563.08 L3029.84 1558.38 Q3031.92 1559.51 3034.14 1560.07 Q3036.36 1560.62 3038.84 1560.62 Q3042.85 1560.62 3045.18 1558.52 Q3047.52 1556.41 3047.52 1552.8 Q3047.52 1549.19 3045.18 1547.08 Q3042.85 1544.98 3038.84 1544.98 Q3036.97 1544.98 3035.09 1545.39 Q3033.24 1545.81 3031.3 1546.69 L3031.3 1529.33 Z" fill="#000000" fill-rule="nonzero" fill-opacity="1" /><polyline clip-path="url(#clip463)" style="stroke:#000000; stroke-linecap:round; stroke-linejoin:round; stroke-width:2; stroke-opacity:0.1; fill:none" points="1770.62,1454.11 3152.76,1454.11 "/>
<polyline clip-path="url(#clip463)" style="stroke:#000000; stroke-linecap:round; stroke-linejoin:round; stroke-width:2; stroke-opacity:0.1; fill:none" points="1770.62,1235.82 3152.76,1235.82 "/>
<polyline clip-path="url(#clip463)" style="stroke:#000000; stroke-linecap:round; stroke-linejoin:round; stroke-width:2; stroke-opacity:0.1; fill:none" points="1770.62,1017.53 3152.76,1017.53 "/>
<polyline clip-path="url(#clip463)" style="stroke:#000000; stroke-linecap:round; stroke-linejoin:round; stroke-width:2; stroke-opacity:0.1; fill:none" points="1770.62,799.242 3152.76,799.242 "/>
<polyline clip-path="url(#clip463)" style="stroke:#000000; stroke-linecap:round; stroke-linejoin:round; stroke-width:2; stroke-opacity:0.1; fill:none" points="1770.62,580.952 3152.76,580.952 "/>
<polyline clip-path="url(#clip463)" style="stroke:#000000; stroke-linecap:round; stroke-linejoin:round; stroke-width:2; stroke-opacity:0.1; fill:none" points="1770.62,362.663 3152.76,362.663 "/>
<polyline clip-path="url(#clip463)" style="stroke:#000000; stroke-linecap:round; stroke-linejoin:round; stroke-width:2; stroke-opacity:0.1; fill:none" points="1770.62,144.373 3152.76,144.373 "/>
<polyline clip-path="url(#clip460)" style="stroke:#000000; stroke-linecap:round; stroke-linejoin:round; stroke-width:4; stroke-opacity:1; fill:none" points="1770.62,1495.09 1770.62,47.2441 "/>
<polyline clip-path="url(#clip460)" style="stroke:#000000; stroke-linecap:round; stroke-linejoin:round; stroke-width:4; stroke-opacity:1; fill:none" points="1770.62,1454.11 1789.51,1454.11 "/>
<polyline clip-path="url(#clip460)" style="stroke:#000000; stroke-linecap:round; stroke-linejoin:round; stroke-width:4; stroke-opacity:1; fill:none" points="1770.62,1235.82 1789.51,1235.82 "/>
<polyline clip-path="url(#clip460)" style="stroke:#000000; stroke-linecap:round; stroke-linejoin:round; stroke-width:4; stroke-opacity:1; fill:none" points="1770.62,1017.53 1789.51,1017.53 "/>
<polyline clip-path="url(#clip460)" style="stroke:#000000; stroke-linecap:round; stroke-linejoin:round; stroke-width:4; stroke-opacity:1; fill:none" points="1770.62,799.242 1789.51,799.242 "/>
<polyline clip-path="url(#clip460)" style="stroke:#000000; stroke-linecap:round; stroke-linejoin:round; stroke-width:4; stroke-opacity:1; fill:none" points="1770.62,580.952 1789.51,580.952 "/>
<polyline clip-path="url(#clip460)" style="stroke:#000000; stroke-linecap:round; stroke-linejoin:round; stroke-width:4; stroke-opacity:1; fill:none" points="1770.62,362.663 1789.51,362.663 "/>
<polyline clip-path="url(#clip460)" style="stroke:#000000; stroke-linecap:round; stroke-linejoin:round; stroke-width:4; stroke-opacity:1; fill:none" points="1770.62,144.373 1789.51,144.373 "/>
<path clip-path="url(#clip460)" d="M1701.71 1436.83 L1720.07 1436.83 L1720.07 1440.77 L1706 1440.77 L1706 1449.24 Q1707.01 1448.89 1708.03 1448.73 Q1709.05 1448.54 1710.07 1448.54 Q1715.86 1448.54 1719.24 1451.72 Q1722.62 1454.89 1722.62 1460.3 Q1722.62 1465.88 1719.14 1468.98 Q1715.67 1472.06 1709.35 1472.06 Q1707.18 1472.06 1704.91 1471.69 Q1702.66 1471.32 1700.26 1470.58 L1700.26 1465.88 Q1702.34 1467.02 1704.56 1467.57 Q1706.78 1468.13 1709.26 1468.13 Q1713.26 1468.13 1715.6 1466.02 Q1717.94 1463.91 1717.94 1460.3 Q1717.94 1456.69 1715.6 1454.59 Q1713.26 1452.48 1709.26 1452.48 Q1707.39 1452.48 1705.51 1452.9 Q1703.66 1453.31 1701.71 1454.19 L1701.71 1436.83 Z" fill="#000000" fill-rule="nonzero" fill-opacity="1" /><path clip-path="url(#clip460)" d="M1711.09 1233.96 Q1707.94 1233.96 1706.09 1236.11 Q1704.26 1238.26 1704.26 1242.01 Q1704.26 1245.74 1706.09 1247.92 Q1707.94 1250.07 1711.09 1250.07 Q1714.24 1250.07 1716.07 1247.92 Q1717.92 1245.74 1717.92 1242.01 Q1717.92 1238.26 1716.07 1236.11 Q1714.24 1233.96 1711.09 1233.96 M1720.37 1219.31 L1720.37 1223.56 Q1718.61 1222.73 1716.81 1222.29 Q1715.02 1221.85 1713.26 1221.85 Q1708.64 1221.85 1706.18 1224.98 Q1703.75 1228.1 1703.4 1234.42 Q1704.77 1232.41 1706.83 1231.34 Q1708.89 1230.25 1711.37 1230.25 Q1716.58 1230.25 1719.58 1233.43 Q1722.62 1236.57 1722.62 1242.01 Q1722.62 1247.34 1719.47 1250.56 Q1716.32 1253.77 1711.09 1253.77 Q1705.09 1253.77 1701.92 1249.19 Q1698.75 1244.58 1698.75 1235.86 Q1698.75 1227.66 1702.64 1222.8 Q1706.53 1217.92 1713.08 1217.92 Q1714.84 1217.92 1716.62 1218.26 Q1718.43 1218.61 1720.37 1219.31 Z" fill="#000000" fill-rule="nonzero" fill-opacity="1" /><path clip-path="url(#clip460)" d="M1700.39 1000.25 L1722.62 1000.25 L1722.62 1002.24 L1710.07 1034.81 L1705.19 1034.81 L1716.99 1004.19 L1700.39 1004.19 L1700.39 1000.25 Z" fill="#000000" fill-rule="nonzero" fill-opacity="1" /><path clip-path="url(#clip460)" d="M1710.76 800.11 Q1707.43 800.11 1705.51 801.893 Q1703.61 803.675 1703.61 806.8 Q1703.61 809.925 1705.51 811.707 Q1707.43 813.49 1710.76 813.49 Q1714.1 813.49 1716.02 811.707 Q1717.94 809.902 1717.94 806.8 Q1717.94 803.675 1716.02 801.893 Q1714.12 800.11 1710.76 800.11 M1706.09 798.119 Q1703.08 797.379 1701.39 795.319 Q1699.72 793.258 1699.72 790.295 Q1699.72 786.152 1702.66 783.744 Q1705.63 781.337 1710.76 781.337 Q1715.93 781.337 1718.87 783.744 Q1721.81 786.152 1721.81 790.295 Q1721.81 793.258 1720.12 795.319 Q1718.45 797.379 1715.46 798.119 Q1718.84 798.906 1720.72 801.198 Q1722.62 803.49 1722.62 806.8 Q1722.62 811.823 1719.54 814.508 Q1716.48 817.193 1710.76 817.193 Q1705.05 817.193 1701.97 814.508 Q1698.91 811.823 1698.91 806.8 Q1698.91 803.49 1700.81 801.198 Q1702.71 798.906 1706.09 798.119 M1704.38 790.735 Q1704.38 793.42 1706.04 794.925 Q1707.73 796.43 1710.76 796.43 Q1713.77 796.43 1715.46 794.925 Q1717.18 793.42 1717.18 790.735 Q1717.18 788.05 1715.46 786.545 Q1713.77 785.041 1710.76 785.041 Q1707.73 785.041 1706.04 786.545 Q1704.38 788.05 1704.38 790.735 Z" fill="#000000" fill-rule="nonzero" fill-opacity="1" /><path clip-path="url(#clip460)" d="M1701 597.515 L1701 593.256 Q1702.76 594.089 1704.56 594.529 Q1706.37 594.969 1708.1 594.969 Q1712.73 594.969 1715.16 591.867 Q1717.62 588.742 1717.96 582.399 Q1716.62 584.39 1714.56 585.455 Q1712.5 586.52 1710 586.52 Q1704.82 586.52 1701.78 583.395 Q1698.77 580.246 1698.77 574.807 Q1698.77 569.483 1701.92 566.265 Q1705.07 563.047 1710.3 563.047 Q1716.3 563.047 1719.45 567.654 Q1722.62 572.237 1722.62 580.987 Q1722.62 589.158 1718.73 594.043 Q1714.86 598.904 1708.31 598.904 Q1706.55 598.904 1704.75 598.556 Q1702.94 598.209 1701 597.515 M1710.3 582.862 Q1713.45 582.862 1715.28 580.709 Q1717.13 578.557 1717.13 574.807 Q1717.13 571.08 1715.28 568.927 Q1713.45 566.751 1710.3 566.751 Q1707.15 566.751 1705.3 568.927 Q1703.47 571.08 1703.47 574.807 Q1703.47 578.557 1705.3 580.709 Q1707.15 582.862 1710.3 582.862 Z" fill="#000000" fill-rule="nonzero" fill-opacity="1" /><path clip-path="url(#clip460)" d="M1671.32 376.008 L1678.96 376.008 L1678.96 349.642 L1670.65 351.309 L1670.65 347.049 L1678.91 345.383 L1683.59 345.383 L1683.59 376.008 L1691.23 376.008 L1691.23 379.943 L1671.32 379.943 L1671.32 376.008 Z" fill="#000000" fill-rule="nonzero" fill-opacity="1" /><path clip-path="url(#clip460)" d="M1710.67 348.461 Q1707.06 348.461 1705.23 352.026 Q1703.43 355.568 1703.43 362.697 Q1703.43 369.804 1705.23 373.369 Q1707.06 376.91 1710.67 376.91 Q1714.31 376.91 1716.11 373.369 Q1717.94 369.804 1717.94 362.697 Q1717.94 355.568 1716.11 352.026 Q1714.31 348.461 1710.67 348.461 M1710.67 344.758 Q1716.48 344.758 1719.54 349.364 Q1722.62 353.947 1722.62 362.697 Q1722.62 371.424 1719.54 376.031 Q1716.48 380.614 1710.67 380.614 Q1704.86 380.614 1701.78 376.031 Q1698.73 371.424 1698.73 362.697 Q1698.73 353.947 1701.78 349.364 Q1704.86 344.758 1710.67 344.758 Z" fill="#000000" fill-rule="nonzero" fill-opacity="1" /><path clip-path="url(#clip460)" d="M1672.55 157.718 L1680.19 157.718 L1680.19 131.352 L1671.88 133.019 L1671.88 128.76 L1680.14 127.093 L1684.82 127.093 L1684.82 157.718 L1692.45 157.718 L1692.45 161.653 L1672.55 161.653 L1672.55 157.718 Z" fill="#000000" fill-rule="nonzero" fill-opacity="1" /><path clip-path="url(#clip460)" d="M1702.71 157.718 L1710.35 157.718 L1710.35 131.352 L1702.04 133.019 L1702.04 128.76 L1710.3 127.093 L1714.98 127.093 L1714.98 157.718 L1722.62 157.718 L1722.62 161.653 L1702.71 161.653 L1702.71 157.718 Z" fill="#000000" fill-rule="nonzero" fill-opacity="1" /><polyline clip-path="url(#clip463)" style="stroke:#009af9; stroke-linecap:round; stroke-linejoin:round; stroke-width:4; stroke-opacity:1; fill:none" points="1809.73,1454.11 1896.66,1387.53 1983.59,1317.09 2070.51,1242.88 2157.44,1164.99 2244.37,1083.5 2331.3,998.497 2418.22,910.063 2505.15,818.278 2592.08,723.218 2679,624.96 2765.93,523.578 2852.86,419.144 2939.78,311.728 3026.71,201.398 3113.64,88.2208 "/>
<path clip-path="url(#clip460)" d="M1816.69 199.186 L2028.72 199.186 L2028.72 95.5056 L1816.69 95.5056  Z" fill="#ffffff" fill-rule="evenodd" fill-opacity="1"/>
<polyline clip-path="url(#clip460)" style="stroke:#000000; stroke-linecap:round; stroke-linejoin:round; stroke-width:4; stroke-opacity:1; fill:none" points="1816.69,199.186 2028.72,199.186 2028.72,95.5056 1816.69,95.5056 1816.69,199.186 "/>
<polyline clip-path="url(#clip460)" style="stroke:#009af9; stroke-linecap:round; stroke-linejoin:round; stroke-width:4; stroke-opacity:1; fill:none" points="1832.05,147.346 1924.19,147.346 "/>
<path clip-path="url(#clip460)" d="M1952.95 151.593 Q1947.79 151.593 1945.79 152.774 Q1943.8 153.954 1943.8 156.802 Q1943.8 159.07 1945.29 160.413 Q1946.79 161.732 1949.36 161.732 Q1952.9 161.732 1955.03 159.232 Q1957.18 156.709 1957.18 152.542 L1957.18 151.593 L1952.95 151.593 M1961.44 149.834 L1961.44 164.626 L1957.18 164.626 L1957.18 160.69 Q1955.73 163.051 1953.55 164.186 Q1951.37 165.297 1948.23 165.297 Q1944.24 165.297 1941.88 163.075 Q1939.54 160.829 1939.54 157.079 Q1939.54 152.704 1942.46 150.482 Q1945.4 148.26 1951.21 148.26 L1957.18 148.26 L1957.18 147.843 Q1957.18 144.903 1955.24 143.306 Q1953.32 141.686 1949.82 141.686 Q1947.6 141.686 1945.49 142.218 Q1943.39 142.751 1941.44 143.815 L1941.44 139.88 Q1943.78 138.978 1945.98 138.538 Q1948.18 138.075 1950.26 138.075 Q1955.89 138.075 1958.67 140.991 Q1961.44 143.908 1961.44 149.834 Z" fill="#000000" fill-rule="nonzero" fill-opacity="1" /><path clip-path="url(#clip460)" d="M1971.63 160.69 L1979.27 160.69 L1979.27 134.325 L1970.96 135.991 L1970.96 131.732 L1979.22 130.066 L1983.9 130.066 L1983.9 160.69 L1991.54 160.69 L1991.54 164.626 L1971.63 164.626 L1971.63 160.69 Z" fill="#000000" fill-rule="nonzero" fill-opacity="1" /><path clip-path="url(#clip460)" d="M2004.59 131.339 L2004.59 138.7 L2013.36 138.7 L2013.36 142.01 L2004.59 142.01 L2004.59 156.084 Q2004.59 159.255 2005.45 160.158 Q2006.33 161.061 2008.99 161.061 L2013.36 161.061 L2013.36 164.626 L2008.99 164.626 Q2004.06 164.626 2002.18 162.797 Q2000.31 160.945 2000.31 156.084 L2000.31 142.01 L1997.18 142.01 L1997.18 138.7 L2000.31 138.7 L2000.31 131.339 L2004.59 131.339 Z" fill="#000000" fill-rule="nonzero" fill-opacity="1" /></svg>