<?xml version="1.0" encoding="utf-8"?>
<svg xmlns="http://www.w3.org/2000/svg" xmlns:xlink="http://www.w3.org/1999/xlink" width="600" height="400" viewBox="0 0 2400 1600">
<defs>
  <clipPath id="clip540">
    <rect x="0" y="0" width="2400" height="1600"/>
  </clipPath>
</defs>
<path clip-path="url(#clip540)" d="M0 1600 L2400 1600 L2400 0 L0 0  Z" fill="#ffffff" fill-rule="evenodd" fill-opacity="1"/>
<defs>
  <clipPath id="clip541">
    <rect x="480" y="0" width="1681" height="1600"/>
  </clipPath>
</defs>
<path clip-path="url(#clip540)" d="M156.112 1486.45 L2352.76 1486.45 L2352.76 47.2441 L156.112 47.2441  Z" fill="#ffffff" fill-rule="evenodd" fill-opacity="1"/>
<defs>
  <clipPath id="clip542">
    <rect x="156" y="47" width="2198" height="1440"/>
  </clipPath>
</defs>
<polyline clip-path="url(#clip542)" style="stroke:#000000; stroke-linecap:round; stroke-linejoin:round; stroke-width:2; stroke-opacity:0.1; fill:none" points="563.666,1486.45 563.666,47.2441 "/>
<polyline clip-path="url(#clip542)" style="stroke:#000000; stroke-linecap:round; stroke-linejoin:round; stroke-width:2; stroke-opacity:0.1; fill:none" points="995.396,1486.45 995.396,47.2441 "/>
<polyline clip-path="url(#clip542)" style="stroke:#000000; stroke-linecap:round; stroke-linejoin:round; stroke-width:2; stroke-opacity:0.1; fill:none" points="1427.13,1486.45 1427.13,47.2441 "/>
<polyline clip-path="url(#clip542)" style="stroke:#000000; stroke-linecap:round; stroke-linejoin:round; stroke-width:2; stroke-opacity:0.1; fill:none" points="1858.86,1486.45 1858.86,47.2441 "/>
<polyline clip-path="url(#clip542)" style="stroke:#000000; stroke-linecap:round; stroke-linejoin:round; stroke-width:2; stroke-opacity:0.1; fill:none" points="2290.59,1486.45 2290.59,47.2441 "/>
<polyline clip-path="url(#clip540)" style="stroke:#000000; stroke-linecap:round; stroke-linejoin:round; stroke-width:4; stroke-opacity:1; fill:none" points="156.112,1486.45 2352.76,1486.45 "/>
<polyline clip-path="url(#clip540)" style="stroke:#000000; stroke-linecap:round; stroke-linejoin:round; stroke-width:4; stroke-opacity:1; fill:none" points="563.666,1486.45 563.666,1467.55 "/>
<polyline clip-path="url(#clip540)" style="stroke:#000000; stroke-linecap:round; stroke-linejoin:round; stroke-width:4; stroke-opacity:1; fill:none" points="995.396,1486.45 995.396,1467.55 "/>
<polyline clip-path="url(#clip540)" style="stroke:#000000; stroke-linecap:round; stroke-linejoin:round; stroke-width:4; stroke-opacity:1; fill:none" points="1427.13,1486.45 1427.13,1467.55 "/>
<polyline clip-path="url(#clip540)" style="stroke:#000000; stroke-linecap:round; stroke-linejoin:round; stroke-width:4; stroke-opacity:1; fill:none" points="1858.86,1486.45 1858.86,1467.55 "/>
<polyline clip-path="url(#clip540)" style="stroke:#000000; stroke-linecap:round; stroke-linejoin:round; stroke-width:4; stroke-opacity:1; fill:none" points="2290.59,1486.45 2290.59,1467.55 "/>
<path clip-path="url(#clip540)" d="M553.943 1514.29 L572.3 1514.29 L572.3 1518.22 L558.226 1518.22 L558.226 1526.7 Q559.244 1526.35 560.263 1526.19 Q561.281 1526 562.3 1526 Q568.087 1526 571.466 1529.17 Q574.846 1532.34 574.846 1537.76 Q574.846 1543.34 571.374 1546.44 Q567.902 1549.52 561.582 1549.52 Q559.406 1549.52 557.138 1549.15 Q554.892 1548.78 552.485 1548.04 L552.485 1543.34 Q554.568 1544.47 556.791 1545.03 Q559.013 1545.58 561.49 1545.58 Q565.494 1545.58 567.832 1543.48 Q570.17 1541.37 570.17 1537.76 Q570.17 1534.15 567.832 1532.04 Q565.494 1529.94 561.49 1529.94 Q559.615 1529.94 557.74 1530.35 Q555.888 1530.77 553.943 1531.65 L553.943 1514.29 Z" fill="#000000" fill-rule="nonzero" fill-opacity="1" /><path clip-path="url(#clip540)" d="M970.083 1544.91 L977.722 1544.91 L977.722 1518.55 L969.412 1520.21 L969.412 1515.95 L977.676 1514.29 L982.352 1514.29 L982.352 1544.91 L989.991 1544.91 L989.991 1548.85 L970.083 1548.85 L970.083 1544.91 Z" fill="#000000" fill-rule="nonzero" fill-opacity="1" /><path clip-path="url(#clip540)" d="M1009.44 1517.37 Q1005.82 1517.37 1004 1520.93 Q1002.19 1524.47 1002.19 1531.6 Q1002.19 1538.71 1004 1542.27 Q1005.82 1545.82 1009.44 1545.82 Q1013.07 1545.82 1014.87 1542.27 Q1016.7 1538.71 1016.7 1531.6 Q1016.7 1524.47 1014.87 1520.93 Q1013.07 1517.37 1009.44 1517.37 M1009.44 1513.66 Q1015.25 1513.66 1018.3 1518.27 Q1021.38 1522.85 1021.38 1531.6 Q1021.38 1540.33 1018.3 1544.94 Q1015.25 1549.52 1009.44 1549.52 Q1003.62 1549.52 1000.55 1544.94 Q997.491 1540.33 997.491 1531.6 Q997.491 1522.85 1000.55 1518.27 Q1003.62 1513.66 1009.44 1513.66 Z" fill="#000000" fill-rule="nonzero" fill-opacity="1" /><path clip-path="url(#clip540)" d="M1402.31 1544.91 L1409.95 1544.91 L1409.95 1518.55 L1401.64 1520.21 L1401.64 1515.95 L1409.9 1514.29 L1414.58 1514.29 L1414.58 1544.91 L1422.22 1544.91 L1422.22 1548.85 L1402.31 1548.85 L1402.31 1544.91 Z" fill="#000000" fill-rule="nonzero" fill-opacity="1" /><path clip-path="url(#clip540)" d="M1431.71 1514.29 L1450.07 1514.29 L1450.07 1518.22 L1435.99 1518.22 L1435.99 1526.7 Q1437.01 1526.35 1438.03 1526.19 Q1439.05 1526 1440.07 1526 Q1445.85 1526 1449.23 1529.17 Q1452.61 1532.34 1452.61 1537.76 Q1452.61 1543.34 1449.14 1546.44 Q1445.67 1549.52 1439.35 1549.52 Q1437.17 1549.52 1434.9 1549.15 Q1432.66 1548.78 1430.25 1548.04 L1430.25 1543.34 Q1432.33 1544.47 1434.56 1545.03 Q1436.78 1545.58 1439.26 1545.58 Q1443.26 1545.58 1445.6 1543.48 Q1447.94 1541.37 1447.94 1537.76 Q1447.94 1534.15 1445.6 1532.04 Q1443.26 1529.94 1439.26 1529.94 Q1437.38 1529.94 1435.51 1530.35 Q1433.65 1530.77 1431.71 1531.65 L1431.71 1514.29 Z" fill="#000000" fill-rule="nonzero" fill-opacity="1" /><path clip-path="url(#clip540)" d="M1837.63 1544.91 L1853.95 1544.91 L1853.95 1548.85 L1832 1548.85 L1832 1544.91 Q1834.67 1542.16 1839.25 1537.53 Q1843.86 1532.88 1845.04 1531.53 Q1847.28 1529.01 1848.16 1527.27 Q1849.06 1525.51 1849.06 1523.82 Q1849.06 1521.07 1847.12 1519.33 Q1845.2 1517.6 1842.1 1517.6 Q1839.9 1517.6 1837.44 1518.36 Q1835.01 1519.13 1832.24 1520.68 L1832.24 1515.95 Q1835.06 1514.82 1837.51 1514.24 Q1839.97 1513.66 1842 1513.66 Q1847.38 1513.66 1850.57 1516.35 Q1853.76 1519.03 1853.76 1523.52 Q1853.76 1525.65 1852.95 1527.57 Q1852.17 1529.47 1850.06 1532.07 Q1849.48 1532.74 1846.38 1535.95 Q1843.28 1539.15 1837.63 1544.91 Z" fill="#000000" fill-rule="nonzero" fill-opacity="1" /><path clip-path="url(#clip540)" d="M1873.76 1517.37 Q1870.15 1517.37 1868.32 1520.93 Q1866.52 1524.47 1866.52 1531.6 Q1866.52 1538.71 1868.32 1542.27 Q1870.15 1545.82 1873.76 1545.82 Q1877.4 1545.82 1879.2 1542.27 Q1881.03 1538.71 1881.03 1531.6 Q1881.03 1524.47 1879.2 1520.93 Q1877.4 1517.37 1873.76 1517.37 M1873.76 1513.66 Q1879.57 1513.66 1882.63 1518.27 Q1885.71 1522.85 1885.71 1531.6 Q1885.71 1540.33 1882.63 1544.94 Q1879.57 1549.52 1873.76 1549.52 Q1867.95 1549.52 1864.87 1544.94 Q1861.82 1540.33 1861.82 1531.6 Q1861.82 1522.85 1864.87 1518.27 Q1867.95 1513.66 1873.76 1513.66 Z" fill="#000000" fill-rule="nonzero" fill-opacity="1" /><path clip-path="url(#clip540)" d="M2269.86 1544.91 L2286.18 1544.91 L2286.18 1548.85 L2264.23 1548.85 L2264.23 1544.91 Q2266.89 1542.16 2271.48 1537.53 Q2276.08 1532.88 2277.27 1531.53 Q2279.51 1529.01 2280.39 1527.27 Q2281.29 1525.51 2281.29 1523.82 Q2281.29 1521.07 2279.35 1519.33 Q2277.43 1517.6 2274.33 1517.6 Q2272.13 1517.6 2269.67 1518.36 Q2267.24 1519.13 2264.46 1520.68 L2264.46 1515.95 Q2267.29 1514.82 2269.74 1514.24 Q2272.2 1513.66 2274.23 1513.66 Q2279.6 1513.66 2282.8 1516.35 Q2285.99 1519.03 2285.99 1523.52 Q2285.99 1525.65 2285.18 1527.57 Q2284.39 1529.47 2282.29 1532.07 Q2281.71 1532.74 2278.61 1535.95 Q2275.51 1539.15 2269.86 1544.91 Z" fill="#000000" fill-rule="nonzero" fill-opacity="1" /><path clip-path="url(#clip540)" d="M2296.04 1514.29 L2314.39 1514.29 L2314.39 1518.22 L2300.32 1518.22 L2300.32 1526.7 Q2301.34 1526.35 2302.36 1526.19 Q2303.38 1526 2304.39 1526 Q2310.18 1526 2313.56 1529.17 Q2316.94 1532.34 2316.94 1537.76 Q2316.94 1543.34 2313.47 1546.44 Q2310 1549.52 2303.68 1549.52 Q2301.5 1549.52 2299.23 1549.15 Q2296.99 1548.78 2294.58 1548.04 L2294.58 1543.34 Q2296.66 1544.47 2298.89 1545.03 Q2301.11 1545.58 2303.58 1545.58 Q2307.59 1545.58 2309.93 1543.48 Q2312.26 1541.37 2312.26 1537.76 Q2312.26 1534.15 2309.93 1532.04 Q2307.59 1529.94 2303.58 1529.94 Q2301.71 1529.94 2299.83 1530.35 Q2297.98 1530.77 2296.04 1531.65 L2296.04 1514.29 Z" fill="#000000" fill-rule="nonzero" fill-opacity="1" /><polyline clip-path="url(#clip542)" style="stroke:#000000; stroke-linecap:round; stroke-linejoin:round; stroke-width:2; stroke-opacity:0.1; fill:none" points="156.112,1445.72 2352.76,1445.72 "/>
<polyline clip-path="url(#clip542)" style="stroke:#000000; stroke-linecap:round; stroke-linejoin:round; stroke-width:2; stroke-opacity:0.1; fill:none" points="156.112,1106.29 2352.76,1106.29 "/>
<polyline clip-path="url(#clip542)" style="stroke:#000000; stroke-linecap:round; stroke-linejoin:round; stroke-width:2; stroke-opacity:0.1; fill:none" points="156.112,766.849 2352.76,766.849 "/>
<polyline clip-path="url(#clip542)" style="stroke:#000000; stroke-linecap:round; stroke-linejoin:round; stroke-width:2; stroke-opacity:0.1; fill:none" points="156.112,427.413 2352.76,427.413 "/>
<polyline clip-path="url(#clip542)" style="stroke:#000000; stroke-linecap:round; stroke-linejoin:round; stroke-width:2; stroke-opacity:0.1; fill:none" points="156.112,87.9763 2352.76,87.9763 "/>
<polyline clip-path="url(#clip540)" style="stroke:#000000; stroke-linecap:round; stroke-linejoin:round; stroke-width:4; stroke-opacity:1; fill:none" points="156.112,1486.45 156.112,47.2441 "/>
<polyline clip-path="url(#clip540)" style="stroke:#000000; stroke-linecap:round; stroke-linejoin:round; stroke-width:4; stroke-opacity:1; fill:none" points="156.112,1445.72 175.01,1445.72 "/>
<polyline clip-path="url(#clip540)" style="stroke:#000000; stroke-linecap:round; stroke-linejoin:round; stroke-width:4; stroke-opacity:1; fill:none" points="156.112,1106.29 175.01,1106.29 "/>
<polyline clip-path="url(#clip540)" style="stroke:#000000; stroke-linecap:round; stroke-linejoin:round; stroke-width:4; stroke-opacity:1; fill:none" points="156.112,766.849 175.01,766.849 "/>
<polyline clip-path="url(#clip540)" style="stroke:#000000; stroke-linecap:round; stroke-linejoin:round; stroke-width:4; stroke-opacity:1; fill:none" points="156.112,427.413 175.01,427.413 "/>
<polyline clip-path="url(#clip540)" style="stroke:#000000; stroke-linecap:round; stroke-linejoin:round; stroke-width:4; stroke-opacity:1; fill:none" points="156.112,87.9763 175.01,87.9763 "/>
<path clip-path="url(#clip540)" d="M62.9365 1431.52 Q59.3254 1431.52 57.4967 1435.09 Q55.6912 1438.63 55.6912 1445.76 Q55.6912 1452.86 57.4967 1456.43 Q59.3254 1459.97 62.9365 1459.97 Q66.5707 1459.97 68.3763 1456.43 Q70.205 1452.86 70.205 1445.76 Q70.205 1438.63 68.3763 1435.09 Q66.5707 1431.52 62.9365 1431.52 M62.9365 1427.82 Q68.7467 1427.82 71.8022 1432.42 Q74.8809 1437.01 74.8809 1445.76 Q74.8809 1454.48 71.8022 1459.09 Q68.7467 1463.67 62.9365 1463.67 Q57.1264 1463.67 54.0477 1459.09 Q50.9921 1454.48 50.9921 1445.76 Q50.9921 1437.01 54.0477 1432.42 Q57.1264 1427.82 62.9365 1427.82 Z" fill="#000000" fill-rule="nonzero" fill-opacity="1" /><path clip-path="url(#clip540)" d="M83.0984 1457.12 L87.9827 1457.12 L87.9827 1463 L83.0984 1463 L83.0984 1457.12 Z" fill="#000000" fill-rule="nonzero" fill-opacity="1" /><path clip-path="url(#clip540)" d="M108.168 1431.52 Q104.557 1431.52 102.728 1435.09 Q100.922 1438.63 100.922 1445.76 Q100.922 1452.86 102.728 1456.43 Q104.557 1459.97 108.168 1459.97 Q111.802 1459.97 113.608 1456.43 Q115.436 1452.86 115.436 1445.76 Q115.436 1438.63 113.608 1435.09 Q111.802 1431.52 108.168 1431.52 M108.168 1427.82 Q113.978 1427.82 117.033 1432.42 Q120.112 1437.01 120.112 1445.76 Q120.112 1454.48 117.033 1459.09 Q113.978 1463.67 108.168 1463.67 Q102.358 1463.67 99.2789 1459.09 Q96.2234 1454.48 96.2234 1445.76 Q96.2234 1437.01 99.2789 1432.42 Q102.358 1427.82 108.168 1427.82 Z" fill="#000000" fill-rule="nonzero" fill-opacity="1" /><path clip-path="url(#clip540)" d="M63.9319 1092.08 Q60.3208 1092.08 58.4921 1095.65 Q56.6865 1099.19 56.6865 1106.32 Q56.6865 1113.43 58.4921 1116.99 Q60.3208 1120.53 63.9319 1120.53 Q67.5661 1120.53 69.3717 1116.99 Q71.2004 1113.43 71.2004 1106.32 Q71.2004 1099.19 69.3717 1095.65 Q67.5661 1092.08 63.9319 1092.08 M63.9319 1088.38 Q69.742 1088.38 72.7976 1092.99 Q75.8763 1097.57 75.8763 1106.32 Q75.8763 1115.05 72.7976 1119.65 Q69.742 1124.24 63.9319 1124.24 Q58.1217 1124.24 55.043 1119.65 Q51.9875 1115.05 51.9875 1106.32 Q51.9875 1097.57 55.043 1092.99 Q58.1217 1088.38 63.9319 1088.38 Z" fill="#000000" fill-rule="nonzero" fill-opacity="1" /><path clip-path="url(#clip540)" d="M84.0938 1117.69 L88.978 1117.69 L88.978 1123.57 L84.0938 1123.57 L84.0938 1117.69 Z" fill="#000000" fill-rule="nonzero" fill-opacity="1" /><path clip-path="url(#clip540)" d="M99.2095 1089.01 L117.566 1089.01 L117.566 1092.94 L103.492 1092.94 L103.492 1101.41 Q104.51 1101.07 105.529 1100.9 Q106.547 1100.72 107.566 1100.72 Q113.353 1100.72 116.733 1103.89 Q120.112 1107.06 120.112 1112.48 Q120.112 1118.06 116.64 1121.16 Q113.168 1124.24 106.848 1124.24 Q104.672 1124.24 102.404 1123.87 Q100.159 1123.5 97.7511 1122.76 L97.7511 1118.06 Q99.8345 1119.19 102.057 1119.75 Q104.279 1120.3 106.756 1120.3 Q110.76 1120.3 113.098 1118.2 Q115.436 1116.09 115.436 1112.48 Q115.436 1108.87 113.098 1106.76 Q110.76 1104.65 106.756 1104.65 Q104.881 1104.65 103.006 1105.07 Q101.154 1105.49 99.2095 1106.37 L99.2095 1089.01 Z" fill="#000000" fill-rule="nonzero" fill-opacity="1" /><path clip-path="url(#clip540)" d="M53.7467 780.194 L61.3856 780.194 L61.3856 753.829 L53.0754 755.495 L53.0754 751.236 L61.3393 749.569 L66.0152 749.569 L66.0152 780.194 L73.654 780.194 L73.654 784.129 L53.7467 784.129 L53.7467 780.194 Z" fill="#000000" fill-rule="nonzero" fill-opacity="1" /><path clip-path="url(#clip540)" d="M83.0984 778.25 L87.9827 778.25 L87.9827 784.129 L83.0984 784.129 L83.0984 778.25 Z" fill="#000000" fill-rule="nonzero" fill-opacity="1" /><path clip-path="url(#clip540)" d="M108.168 752.648 Q104.557 752.648 102.728 756.213 Q100.922 759.755 100.922 766.884 Q100.922 773.991 102.728 777.555 Q104.557 781.097 108.168 781.097 Q111.802 781.097 113.608 777.555 Q115.436 773.991 115.436 766.884 Q115.436 759.755 113.608 756.213 Q111.802 752.648 108.168 752.648 M108.168 748.944 Q113.978 748.944 117.033 753.551 Q120.112 758.134 120.112 766.884 Q120.112 775.611 117.033 780.217 Q113.978 784.801 108.168 784.801 Q102.358 784.801 99.2789 780.217 Q96.2234 775.611 96.2234 766.884 Q96.2234 758.134 99.2789 753.551 Q102.358 748.944 108.168 748.944 Z" fill="#000000" fill-rule="nonzero" fill-opacity="1" /><path clip-path="url(#clip540)" d="M54.7421 440.758 L62.381 440.758 L62.381 414.392 L54.0708 416.059 L54.0708 411.799 L62.3347 410.133 L67.0106 410.133 L67.0106 440.758 L74.6494 440.758 L74.6494 444.693 L54.7421 444.693 L54.7421 440.758 Z" fill="#000000" fill-rule="nonzero" fill-opacity="1" /><path clip-path="url(#clip540)" d="M84.0938 438.813 L88.978 438.813 L88.978 444.693 L84.0938 444.693 L84.0938 438.813 Z" fill="#000000" fill-rule="nonzero" fill-opacity="1" /><path clip-path="url(#clip540)" d="M99.2095 410.133 L117.566 410.133 L117.566 414.068 L103.492 414.068 L103.492 422.54 Q104.51 422.193 105.529 422.031 Q106.547 421.846 107.566 421.846 Q113.353 421.846 116.733 425.017 Q120.112 428.188 120.112 433.605 Q120.112 439.184 116.64 442.285 Q113.168 445.364 106.848 445.364 Q104.672 445.364 102.404 444.994 Q100.159 444.623 97.7511 443.883 L97.7511 439.184 Q99.8345 440.318 102.057 440.873 Q104.279 441.429 106.756 441.429 Q110.76 441.429 113.098 439.322 Q115.436 437.216 115.436 433.605 Q115.436 429.994 113.098 427.887 Q110.76 425.781 106.756 425.781 Q104.881 425.781 103.006 426.198 Q101.154 426.614 99.2095 427.494 L99.2095 410.133 Z" fill="#000000" fill-rule="nonzero" fill-opacity="1" /><path clip-path="url(#clip540)" d="M56.9643 101.321 L73.2837 101.321 L73.2837 105.256 L51.3393 105.256 L51.3393 101.321 Q54.0014 98.5665 58.5847 93.9369 Q63.1911 89.2841 64.3717 87.9416 Q66.617 85.4184 67.4967 83.6823 Q68.3994 81.9231 68.3994 80.2333 Q68.3994 77.4786 66.455 75.7425 Q64.5337 74.0064 61.4319 74.0064 Q59.2328 74.0064 56.7791 74.7703 Q54.3486 75.5342 51.5708 77.0851 L51.5708 72.3629 Q54.3949 71.2287 56.8486 70.65 Q59.3023 70.0713 61.3393 70.0713 Q66.7096 70.0713 69.9041 72.7565 Q73.0985 75.4416 73.0985 79.9323 Q73.0985 82.062 72.2883 83.9832 Q71.5013 85.8814 69.3948 88.474 Q68.8161 89.1453 65.7143 92.3628 Q62.6124 95.5573 56.9643 101.321 Z" fill="#000000" fill-rule="nonzero" fill-opacity="1" /><path clip-path="url(#clip540)" d="M83.0984 99.3767 L87.9827 99.3767 L87.9827 105.256 L83.0984 105.256 L83.0984 99.3767 Z" fill="#000000" fill-rule="nonzero" fill-opacity="1" /><path clip-path="url(#clip540)" d="M108.168 73.775 Q104.557 73.775 102.728 77.3398 Q100.922 80.8814 100.922 88.011 Q100.922 95.1174 102.728 98.6822 Q104.557 102.224 108.168 102.224 Q111.802 102.224 113.608 98.6822 Q115.436 95.1174 115.436 88.011 Q115.436 80.8814 113.608 77.3398 Q111.802 73.775 108.168 73.775 M108.168 70.0713 Q113.978 70.0713 117.033 74.6777 Q120.112 79.261 120.112 88.011 Q120.112 96.7378 117.033 101.344 Q113.978 105.928 108.168 105.928 Q102.358 105.928 99.2789 101.344 Q96.2234 96.7378 96.2234 88.011 Q96.2234 79.261 99.2789 74.6777 Q102.358 70.0713 108.168 70.0713 Z" fill="#000000" fill-rule="nonzero" fill-opacity="1" /><polyline clip-path="url(#clip542)" style="stroke:#009af9; stroke-linecap:round; stroke-linejoin:round; stroke-width:4; stroke-opacity:1; fill:none" points="218.281,1199.41 304.627,1199.41 390.973,1199.41 477.319,1199.41 563.666,1199.41 650.012,1199.41 736.358,1199.41 822.704,1199.41 909.05,1199.41 995.396,1199.41 1081.74,1199.41 1168.09,1199.41 1254.43,1199.41 1340.78,1199.41 1427.13,1199.41 1513.47,1199.41 1599.82,1199.41 1686.16,1199.41 1772.51,1199.41 1858.86,1199.41 1945.2,1199.41 2031.55,1199.41 2117.89,1199.41 2204.24,1199.41 2290.59,1199.41 "/>
<polyline clip-path="url(#clip542)" style="stroke:#e26f46; stroke-linecap:round; stroke-linejoin:round; stroke-width:4; stroke-opacity:1; fill:none" points="218.281,1445.72 304.627,1440.4 390.973,1403.77 477.319,1351.91 563.666,1306.25 650.012,1271.86 736.358,1247.66 822.704,1231.2 909.05,1220.21 995.396,1212.97 1081.74,1208.22 1168.09,1205.13 1254.43,1203.12 1340.78,1201.81 1427.13,1200.96 1513.47,1200.42 1599.82,1200.06 1686.16,1199.83 1772.51,1199.68 1858.86,1199.58 1945.2,1199.52 2031.55,1199.48 2117.89,1199.46 2204.24,1199.44 2290.59,1199.43 "/>
<polyline clip-path="url(#clip542)" style="stroke:#3da44d; stroke-linecap:round; stroke-linejoin:round; stroke-width:4; stroke-opacity:1; fill:none" points="218.281,1377.84 304.627,1327.7 390.973,1287.62 477.319,1258.61 563.666,1238.6 650.012,1225.13 736.358,1216.2 822.704,1210.34 909.05,1206.51 995.396,1204.01 1081.74,1202.39 1168.09,1201.34 1254.43,1200.66 1340.78,1200.22 1427.13,1199.93 1513.47,1199.75 1599.82,1199.63 1686.16,1199.55 1772.51,1199.5 1858.86,1199.47 1945.2,1199.45 2031.55,1199.43 2117.89,1199.42 2204.24,1199.42 2290.59,1199.41 "/>
<polyline clip-path="url(#clip542)" style="stroke:#c271d2; stroke-linecap:round; stroke-linejoin:round; stroke-width:4; stroke-opacity:1; fill:none" points="218.281,1309.95 304.627,1274.54 390.973,1249.5 477.319,1232.44 563.666,1221.04 650.012,1213.51 736.358,1208.58 822.704,1205.36 909.05,1203.27 995.396,1201.91 1081.74,1201.03 1168.09,1200.46 1254.43,1200.09 1340.78,1199.85 1427.13,1199.69 1513.47,1199.59 1599.82,1199.53 1686.16,1199.48 1772.51,1199.46 1858.86,1199.44 1945.2,1199.43 2031.55,1199.42 2117.89,1199.42 2204.24,1199.41 2290.59,1199.41 "/>
<polyline clip-path="url(#clip542)" style="stroke:#ac8d18; stroke-linecap:round; stroke-linejoin:round; stroke-width:4; stroke-opacity:1; fill:none" points="218.281,1038.4 304.627,1099.34 390.973,1136.42 477.319,1159.39 563.666,1173.83 650.012,1182.99 736.358,1188.84 822.704,1192.59 909.05,1195.01 995.396,1196.56 1081.74,1197.57 1168.09,1198.22 1254.43,1198.64 1340.78,1198.91 1427.13,1199.09 1513.47,1199.2 1599.82,1199.27 1686.16,1199.32 1772.51,1199.35 1858.86,1199.37 1945.2,1199.38 2031.55,1199.39 2117.89,1199.4 2204.24,1199.4 2290.59,1199.4 "/>
<polyline clip-path="url(#clip542)" style="stroke:#00a9ad; stroke-linecap:round; stroke-linejoin:round; stroke-width:4; stroke-opacity:1; fill:none" points="218.281,87.9763 304.627,565.239 390.973,827.147 477.319,975.307 563.666,1061.68 650.012,1113.42 736.358,1145.1 822.704,1164.83 909.05,1177.27 995.396,1185.18 1081.74,1190.24 1168.09,1193.5 1254.43,1195.59 1340.78,1196.94 1427.13,1197.81 1513.47,1198.38 1599.82,1198.74 1686.16,1198.98 1772.51,1199.13 1858.86,1199.23 1945.2,1199.29 2031.55,1199.33 2117.89,1199.36 2204.24,1199.38 2290.59,1199.39 "/>
<path clip-path="url(#clip540)" d="M1849.32 458.098 L2279.53 458.098 L2279.53 95.2176 L1849.32 95.2176  Z" fill="#ffffff" fill-rule="evenodd" fill-opacity="1"/>
<polyline clip-path="url(#clip540)" style="stroke:#000000; stroke-linecap:round; stroke-linejoin:round; stroke-width:4; stroke-opacity:1; fill:none" points="1849.32,458.098 2279.53,458.098 2279.53,95.2176 1849.32,95.2176 1849.32,458.098 "/>
<polyline clip-path="url(#clip540)" style="stroke:#009af9; stroke-linecap:round; stroke-linejoin:round; stroke-width:4; stroke-opacity:1; fill:none" points="1873.72,147.058 2020.17,147.058 "/>
<path clip-path="url(#clip540)" d="M2044.57 128.319 L2048.86 128.319 L2048.86 149.592 L2061.56 138.412 L2067 138.412 L2053.25 150.541 L2067.58 164.338 L2062.03 164.338 L2048.86 151.676 L2048.86 164.338 L2044.57 164.338 L2044.57 128.319 Z" fill="#000000" fill-rule="nonzero" fill-opacity="1" /><path clip-path="url(#clip540)" d="M2090.01 135.472 L2081.7 139.963 L2090.01 144.477 L2088.67 146.745 L2080.89 142.046 L2080.89 150.773 L2078.25 150.773 L2078.25 142.046 L2070.48 146.745 L2069.13 144.477 L2077.44 139.963 L2069.13 135.472 L2070.48 133.18 L2078.25 137.879 L2078.25 129.153 L2080.89 129.153 L2080.89 137.879 L2088.67 133.18 L2090.01 135.472 Z" fill="#000000" fill-rule="nonzero" fill-opacity="1" /><polyline clip-path="url(#clip540)" style="stroke:#e26f46; stroke-linecap:round; stroke-linejoin:round; stroke-width:4; stroke-opacity:1; fill:none" points="1873.72,198.898 2020.17,198.898 "/>
<path clip-path="url(#clip540)" d="M2044.57 180.159 L2048.86 180.159 L2048.86 201.432 L2061.56 190.252 L2067 190.252 L2053.25 202.381 L2067.58 216.178 L2062.03 216.178 L2048.86 203.516 L2048.86 216.178 L2044.57 216.178 L2044.57 180.159 Z" fill="#000000" fill-rule="nonzero" fill-opacity="1" /><path clip-path="url(#clip540)" d="M2072.74 194.65 L2102.42 194.65 L2102.42 198.539 L2072.74 198.539 L2072.74 194.65 M2072.74 204.094 L2102.42 204.094 L2102.42 208.029 L2072.74 208.029 L2072.74 204.094 Z" fill="#000000" fill-rule="nonzero" fill-opacity="1" /><path clip-path="url(#clip540)" d="M2113.32 212.242 L2120.96 212.242 L2120.96 185.877 L2112.65 187.543 L2112.65 183.284 L2120.92 181.618 L2125.59 181.618 L2125.59 212.242 L2133.23 212.242 L2133.23 216.178 L2113.32 216.178 L2113.32 212.242 Z" fill="#000000" fill-rule="nonzero" fill-opacity="1" /><path clip-path="url(#clip540)" d="M2142.67 210.298 L2147.56 210.298 L2147.56 216.178 L2142.67 216.178 L2142.67 210.298 Z" fill="#000000" fill-rule="nonzero" fill-opacity="1" /><path clip-path="url(#clip540)" d="M2167.74 184.696 Q2164.13 184.696 2162.3 188.261 Q2160.5 191.803 2160.5 198.932 Q2160.5 206.039 2162.3 209.604 Q2164.13 213.145 2167.74 213.145 Q2171.38 213.145 2173.18 209.604 Q2175.01 206.039 2175.01 198.932 Q2175.01 191.803 2173.18 188.261 Q2171.38 184.696 2167.74 184.696 M2167.74 180.993 Q2173.55 180.993 2176.61 185.599 Q2179.69 190.182 2179.69 198.932 Q2179.69 207.659 2176.61 212.266 Q2173.55 216.849 2167.74 216.849 Q2161.93 216.849 2158.85 212.266 Q2155.8 207.659 2155.8 198.932 Q2155.8 190.182 2158.85 185.599 Q2161.93 180.993 2167.74 180.993 Z" fill="#000000" fill-rule="nonzero" fill-opacity="1" /><path clip-path="url(#clip540)" d="M2209.48 202.15 L2209.48 204.233 L2189.9 204.233 Q2190.17 208.631 2192.54 210.946 Q2194.92 213.238 2199.16 213.238 Q2201.61 213.238 2203.9 212.636 Q2206.22 212.034 2208.48 210.83 L2208.48 214.858 Q2206.19 215.83 2203.78 216.34 Q2201.38 216.849 2198.9 216.849 Q2192.7 216.849 2189.06 213.238 Q2185.45 209.627 2185.45 203.469 Q2185.45 197.104 2188.88 193.377 Q2192.33 189.627 2198.16 189.627 Q2203.39 189.627 2206.42 193.006 Q2209.48 196.363 2209.48 202.15 M2205.22 200.9 Q2205.17 197.405 2203.25 195.321 Q2201.35 193.238 2198.21 193.238 Q2194.64 193.238 2192.49 195.252 Q2190.36 197.266 2190.04 200.923 L2205.22 200.9 Z" fill="#000000" fill-rule="nonzero" fill-opacity="1" /><path clip-path="url(#clip540)" d="M2214.32 201.293 L2226.79 201.293 L2226.79 205.09 L2214.32 205.09 L2214.32 201.293 Z" fill="#000000" fill-rule="nonzero" fill-opacity="1" /><path clip-path="url(#clip540)" d="M2234.22 181.618 L2252.58 181.618 L2252.58 185.553 L2238.51 185.553 L2238.51 194.025 Q2239.53 193.678 2240.54 193.516 Q2241.56 193.33 2242.58 193.33 Q2248.37 193.33 2251.75 196.502 Q2255.13 199.673 2255.13 205.09 Q2255.13 210.668 2251.66 213.77 Q2248.18 216.849 2241.86 216.849 Q2239.69 216.849 2237.42 216.478 Q2235.17 216.108 2232.77 215.367 L2232.77 210.668 Q2234.85 211.803 2237.07 212.358 Q2239.29 212.914 2241.77 212.914 Q2245.78 212.914 2248.11 210.807 Q2250.45 208.701 2250.45 205.09 Q2250.45 201.479 2248.11 199.372 Q2245.78 197.266 2241.77 197.266 Q2239.9 197.266 2238.02 197.682 Q2236.17 198.099 2234.22 198.979 L2234.22 181.618 Z" fill="#000000" fill-rule="nonzero" fill-opacity="1" /><polyline clip-path="url(#clip540)" style="stroke:#3da44d; stroke-linecap:round; stroke-linejoin:round; stroke-width:4; stroke-opacity:1; fill:none" points="1873.72,250.738 2020.17,250.738 "/>
<path clip-path="url(#clip540)" d="M2044.57 231.999 L2048.86 231.999 L2048.86 253.272 L2061.56 242.092 L2067 242.092 L2053.25 254.221 L2067.58 268.018 L2062.03 268.018 L2048.86 255.356 L2048.86 268.018 L2044.57 268.018 L2044.57 231.999 Z" fill="#000000" fill-rule="nonzero" fill-opacity="1" /><path clip-path="url(#clip540)" d="M2072.74 246.49 L2102.42 246.49 L2102.42 250.379 L2072.74 250.379 L2072.74 246.49 M2072.74 255.934 L2102.42 255.934 L2102.42 259.869 L2072.74 259.869 L2072.74 255.934 Z" fill="#000000" fill-rule="nonzero" fill-opacity="1" /><path clip-path="url(#clip540)" d="M2122.51 236.536 Q2118.9 236.536 2117.07 240.101 Q2115.27 243.643 2115.27 250.772 Q2115.27 257.879 2117.07 261.444 Q2118.9 264.985 2122.51 264.985 Q2126.15 264.985 2127.95 261.444 Q2129.78 257.879 2129.78 250.772 Q2129.78 243.643 2127.95 240.101 Q2126.15 236.536 2122.51 236.536 M2122.51 232.833 Q2128.32 232.833 2131.38 237.439 Q2134.46 242.022 2134.46 250.772 Q2134.46 259.499 2131.38 264.106 Q2128.32 268.689 2122.51 268.689 Q2116.7 268.689 2113.62 264.106 Q2110.57 259.499 2110.57 250.772 Q2110.57 242.022 2113.62 237.439 Q2116.7 232.833 2122.51 232.833 Z" fill="#000000" fill-rule="nonzero" fill-opacity="1" /><path clip-path="url(#clip540)" d="M2142.67 262.138 L2147.56 262.138 L2147.56 268.018 L2142.67 268.018 L2142.67 262.138 Z" fill="#000000" fill-rule="nonzero" fill-opacity="1" /><path clip-path="url(#clip540)" d="M2158.55 264.082 L2166.19 264.082 L2166.19 237.717 L2157.88 239.383 L2157.88 235.124 L2166.15 233.458 L2170.82 233.458 L2170.82 264.082 L2178.46 264.082 L2178.46 268.018 L2158.55 268.018 L2158.55 264.082 Z" fill="#000000" fill-rule="nonzero" fill-opacity="1" /><polyline clip-path="url(#clip540)" style="stroke:#c271d2; stroke-linecap:round; stroke-linejoin:round; stroke-width:4; stroke-opacity:1; fill:none" points="1873.72,302.578 2020.17,302.578 "/>
<path clip-path="url(#clip540)" d="M2044.57 283.839 L2048.86 283.839 L2048.86 305.112 L2061.56 293.932 L2067 293.932 L2053.25 306.061 L2067.58 319.858 L2062.03 319.858 L2048.86 307.196 L2048.86 319.858 L2044.57 319.858 L2044.57 283.839 Z" fill="#000000" fill-rule="nonzero" fill-opacity="1" /><path clip-path="url(#clip540)" d="M2072.74 298.33 L2102.42 298.33 L2102.42 302.219 L2072.74 302.219 L2072.74 298.33 M2072.74 307.774 L2102.42 307.774 L2102.42 311.709 L2072.74 311.709 L2072.74 307.774 Z" fill="#000000" fill-rule="nonzero" fill-opacity="1" /><path clip-path="url(#clip540)" d="M2122.51 288.376 Q2118.9 288.376 2117.07 291.941 Q2115.27 295.483 2115.27 302.612 Q2115.27 309.719 2117.07 313.284 Q2118.9 316.825 2122.51 316.825 Q2126.15 316.825 2127.95 313.284 Q2129.78 309.719 2129.78 302.612 Q2129.78 295.483 2127.95 291.941 Q2126.15 288.376 2122.51 288.376 M2122.51 284.673 Q2128.32 284.673 2131.38 289.279 Q2134.46 293.862 2134.46 302.612 Q2134.46 311.339 2131.38 315.946 Q2128.32 320.529 2122.51 320.529 Q2116.7 320.529 2113.62 315.946 Q2110.57 311.339 2110.57 302.612 Q2110.57 293.862 2113.62 289.279 Q2116.7 284.673 2122.51 284.673 Z" fill="#000000" fill-rule="nonzero" fill-opacity="1" /><path clip-path="url(#clip540)" d="M2142.67 313.978 L2147.56 313.978 L2147.56 319.858 L2142.67 319.858 L2142.67 313.978 Z" fill="#000000" fill-rule="nonzero" fill-opacity="1" /><path clip-path="url(#clip540)" d="M2161.77 315.922 L2178.09 315.922 L2178.09 319.858 L2156.15 319.858 L2156.15 315.922 Q2158.81 313.168 2163.39 308.538 Q2168 303.885 2169.18 302.543 Q2171.42 300.02 2172.3 298.284 Q2173.21 296.524 2173.21 294.835 Q2173.21 292.08 2171.26 290.344 Q2169.34 288.608 2166.24 288.608 Q2164.04 288.608 2161.59 289.372 Q2159.16 290.135 2156.38 291.686 L2156.38 286.964 Q2159.2 285.83 2161.66 285.251 Q2164.11 284.673 2166.15 284.673 Q2171.52 284.673 2174.71 287.358 Q2177.91 290.043 2177.91 294.534 Q2177.91 296.663 2177.1 298.585 Q2176.31 300.483 2174.2 303.075 Q2173.62 303.747 2170.52 306.964 Q2167.42 310.159 2161.77 315.922 Z" fill="#000000" fill-rule="nonzero" fill-opacity="1" /><polyline clip-path="url(#clip540)" style="stroke:#ac8d18; stroke-linecap:round; stroke-linejoin:round; stroke-width:4; stroke-opacity:1; fill:none" points="1873.72,354.418 2020.17,354.418 "/>
<path clip-path="url(#clip540)" d="M2044.57 335.679 L2048.86 335.679 L2048.86 356.952 L2061.56 345.772 L2067 345.772 L2053.25 357.901 L2067.58 371.698 L2062.03 371.698 L2048.86 359.036 L2048.86 371.698 L2044.57 371.698 L2044.57 335.679 Z" fill="#000000" fill-rule="nonzero" fill-opacity="1" /><path clip-path="url(#clip540)" d="M2072.74 350.17 L2102.42 350.17 L2102.42 354.059 L2072.74 354.059 L2072.74 350.17 M2072.74 359.614 L2102.42 359.614 L2102.42 363.549 L2072.74 363.549 L2072.74 359.614 Z" fill="#000000" fill-rule="nonzero" fill-opacity="1" /><path clip-path="url(#clip540)" d="M2122.51 340.216 Q2118.9 340.216 2117.07 343.781 Q2115.27 347.323 2115.27 354.452 Q2115.27 361.559 2117.07 365.124 Q2118.9 368.665 2122.51 368.665 Q2126.15 368.665 2127.95 365.124 Q2129.78 361.559 2129.78 354.452 Q2129.78 347.323 2127.95 343.781 Q2126.15 340.216 2122.51 340.216 M2122.51 336.513 Q2128.32 336.513 2131.38 341.119 Q2134.46 345.702 2134.46 354.452 Q2134.46 363.179 2131.38 367.786 Q2128.32 372.369 2122.51 372.369 Q2116.7 372.369 2113.62 367.786 Q2110.57 363.179 2110.57 354.452 Q2110.57 345.702 2113.62 341.119 Q2116.7 336.513 2122.51 336.513 Z" fill="#000000" fill-rule="nonzero" fill-opacity="1" /><path clip-path="url(#clip540)" d="M2142.67 365.818 L2147.56 365.818 L2147.56 371.698 L2142.67 371.698 L2142.67 365.818 Z" fill="#000000" fill-rule="nonzero" fill-opacity="1" /><path clip-path="url(#clip540)" d="M2168.32 352.554 Q2165.17 352.554 2163.32 354.707 Q2161.49 356.86 2161.49 360.61 Q2161.49 364.336 2163.32 366.512 Q2165.17 368.665 2168.32 368.665 Q2171.47 368.665 2173.3 366.512 Q2175.15 364.336 2175.15 360.61 Q2175.15 356.86 2173.3 354.707 Q2171.47 352.554 2168.32 352.554 M2177.6 337.901 L2177.6 342.161 Q2175.85 341.327 2174.04 340.888 Q2172.26 340.448 2170.5 340.448 Q2165.87 340.448 2163.41 343.573 Q2160.98 346.698 2160.64 353.017 Q2162 351.003 2164.06 349.938 Q2166.12 348.85 2168.6 348.85 Q2173.81 348.85 2176.82 352.022 Q2179.85 355.17 2179.85 360.61 Q2179.85 365.934 2176.7 369.151 Q2173.55 372.369 2168.32 372.369 Q2162.33 372.369 2159.16 367.786 Q2155.98 363.179 2155.98 354.452 Q2155.98 346.258 2159.87 341.397 Q2163.76 336.513 2170.31 336.513 Q2172.07 336.513 2173.85 336.86 Q2175.66 337.207 2177.6 337.901 Z" fill="#000000" fill-rule="nonzero" fill-opacity="1" /><polyline clip-path="url(#clip540)" style="stroke:#00a9ad; stroke-linecap:round; stroke-linejoin:round; stroke-width:4; stroke-opacity:1; fill:none" points="1873.72,406.258 2020.17,406.258 "/>
<path clip-path="url(#clip540)" d="M2044.57 387.519 L2048.86 387.519 L2048.86 408.792 L2061.56 397.612 L2067 397.612 L2053.25 409.741 L2067.58 423.538 L2062.03 423.538 L2048.86 410.876 L2048.86 423.538 L2044.57 423.538 L2044.57 387.519 Z" fill="#000000" fill-rule="nonzero" fill-opacity="1" /><path clip-path="url(#clip540)" d="M2072.74 402.01 L2102.42 402.01 L2102.42 405.899 L2072.74 405.899 L2072.74 402.01 M2072.74 411.454 L2102.42 411.454 L2102.42 415.389 L2072.74 415.389 L2072.74 411.454 Z" fill="#000000" fill-rule="nonzero" fill-opacity="1" /><path clip-path="url(#clip540)" d="M2116.54 419.602 L2132.86 419.602 L2132.86 423.538 L2110.92 423.538 L2110.92 419.602 Q2113.58 416.848 2118.16 412.218 Q2122.77 407.565 2123.95 406.223 Q2126.19 403.7 2127.07 401.964 Q2127.98 400.204 2127.98 398.515 Q2127.98 395.76 2126.03 394.024 Q2124.11 392.288 2121.01 392.288 Q2118.81 392.288 2116.35 393.052 Q2113.92 393.815 2111.15 395.366 L2111.15 390.644 Q2113.97 389.51 2116.42 388.931 Q2118.88 388.353 2120.92 388.353 Q2126.29 388.353 2129.48 391.038 Q2132.67 393.723 2132.67 398.214 Q2132.67 400.343 2131.86 402.265 Q2131.08 404.163 2128.97 406.755 Q2128.39 407.427 2125.29 410.644 Q2122.19 413.839 2116.54 419.602 Z" fill="#000000" fill-rule="nonzero" fill-opacity="1" /><path clip-path="url(#clip540)" d="M2142.67 417.658 L2147.56 417.658 L2147.56 423.538 L2142.67 423.538 L2142.67 417.658 Z" fill="#000000" fill-rule="nonzero" fill-opacity="1" /><path clip-path="url(#clip540)" d="M2167.74 392.056 Q2164.13 392.056 2162.3 395.621 Q2160.5 399.163 2160.5 406.292 Q2160.5 413.399 2162.3 416.964 Q2164.13 420.505 2167.74 420.505 Q2171.38 420.505 2173.18 416.964 Q2175.01 413.399 2175.01 406.292 Q2175.01 399.163 2173.18 395.621 Q2171.38 392.056 2167.74 392.056 M2167.74 388.353 Q2173.55 388.353 2176.61 392.959 Q2179.69 397.542 2179.69 406.292 Q2179.69 415.019 2176.61 419.626 Q2173.55 424.209 2167.74 424.209 Q2161.93 424.209 2158.85 419.626 Q2155.8 415.019 2155.8 406.292 Q2155.8 397.542 2158.85 392.959 Q2161.93 388.353 2167.74 388.353 Z" fill="#000000" fill-rule="nonzero" fill-opacity="1" /></svg>