<?xml version="1.0" encoding="utf-8"?>
<svg xmlns="http://www.w3.org/2000/svg" xmlns:xlink="http://www.w3.org/1999/xlink" width="600" height="400" viewBox="0 0 2400 1600">
<defs>
  <clipPath id="clip890">
    <rect x="0" y="0" width="2400" height="1600"/>
  </clipPath>
</defs>
<path clip-path="url(#clip890)" d="M0 1600 L2400 1600 L2400 0 L0 0  Z" fill="#ffffff" fill-rule="evenodd" fill-opacity="1"/>
<defs>
  <clipPath id="clip891">
    <rect x="480" y="0" width="1681" height="1600"/>
  </clipPath>
</defs>
<path clip-path="url(#clip890)" d="M156.112 1486.45 L2352.76 1486.45 L2352.76 47.2441 L156.112 47.2441  Z" fill="#ffffff" fill-rule="evenodd" fill-opacity="1"/>
<defs>
  <clipPath id="clip892">
    <rect x="156" y="47" width="2198" height="1440"/>
  </clipPath>
</defs>
<polyline clip-path="url(#clip892)" style="stroke:#000000; stroke-linecap:round; stroke-linejoin:round; stroke-width:2; stroke-opacity:0.1; fill:none" points="563.666,1486.45 563.666,47.2441 "/>
<polyline clip-path="url(#clip892)" style="stroke:#000000; stroke-linecap:round; stroke-linejoin:round; stroke-width:2; stroke-opacity:0.1; fill:none" points="995.396,1486.45 995.396,47.2441 "/>
<polyline clip-path="url(#clip892)" style="stroke:#000000; stroke-linecap:round; stroke-linejoin:round; stroke-width:2; stroke-opacity:0.1; fill:none" points="1427.13,1486.45 1427.13,47.2441 "/>
<polyline clip-path="url(#clip892)" style="stroke:#000000; stroke-linecap:round; stroke-linejoin:round; stroke-width:2; stroke-opacity:0.1; fill:none" points="1858.86,1486.45 1858.86,47.2441 "/>
<polyline clip-path="url(#clip892)" style="stroke:#000000; stroke-linecap:round; stroke-linejoin:round; stroke-width:2; stroke-opacity:0.1; fill:none" points="2290.59,1486.45 2290.59,47.2441 "/>
<polyline clip-path="url(#clip890)" style="stroke:#000000; stroke-linecap:round; stroke-linejoin:round; stroke-width:4; stroke-opacity:1; fill:none" points="156.112,1486.45 2352.76,1486.45 "/>
<polyline clip-path="url(#clip890)" style="stroke:#000000; stroke-linecap:round; stroke-linejoin:round; stroke-width:4; stroke-opacity:1; fill:none" points="563.666,1486.45 563.666,1467.55 "/>
<polyline clip-path="url(#clip890)" style="stroke:#000000; stroke-linecap:round; stroke-linejoin:round; stroke-width:4; stroke-opacity:1; fill:none" points="995.396,1486.45 995.396,1467.55 "/>
<polyline clip-path="url(#clip890)" style="stroke:#000000; stroke-linecap:round; stroke-linejoin:round; stroke-width:4; stroke-opacity:1; fill:none" points="1427.13,1486.45 1427.13,1467.55 "/>
<polyline clip-path="url(#clip890)" style="stroke:#000000; stroke-linecap:round; stroke-linejoin:round; stroke-width:4; stroke-opacity:1; fill:none" points="1858.86,1486.45 1858.86,1467.55 "/>
<polyline clip-path="url(#clip890)" style="stroke:#000000; stroke-linecap:round; stroke-linejoin:round; stroke-width:4; stroke-opacity:1; fill:none" points="2290.59,1486.45 2290.59,1467.55 "/>
<path clip-path="url(#clip890)" d="M553.943 1514.29 L572.3 1514.29 L572.3 1518.22 L558.226 1518.22 L558.226 1526.7 Q559.244 1526.35 560.263 1526.19 Q561.281 1526 562.3 1526 Q568.087 1526 571.466 1529.17 Q574.846 1532.34 574.846 1537.76 Q574.846 1543.34 571.374 1546.44 Q567.902 1549.52 561.582 1549.52 Q559.406 1549.52 557.138 1549.15 Q554.892 1548.78 552.485 1548.04 L552.485 1543.34 Q554.568 1544.47 556.791 1545.03 Q559.013 1545.58 561.49 1545.58 Q565.494 1545.58 567.832 1543.48 Q570.17 1541.37 570.17 1537.76 Q570.17 1534.15 567.832 1532.04 Q565.494 1529.94 561.49 1529.94 Q559.615 1529.94 557.74 1530.35 Q555.888 1530.77 553.943 1531.65 L553.943 1514.29 Z" fill="#000000" fill-rule="nonzero" fill-opacity="1" /><path clip-path="url(#clip890)" d="M970.083 1544.91 L977.722 1544.91 L977.722 1518.55 L969.412 1520.21 L969.412 1515.95 L977.676 1514.29 L982.352 1514.29 L982.352 1544.91 L989.991 1544.91 L989.991 1548.85 L970.083 1548.85 L970.083 1544.91 Z" fill="#000000" fill-rule="nonzero" fill-opacity="1" /><path clip-path="url(#clip890)" d="M1009.44 1517.37 Q1005.82 1517.37 1004 1520.93 Q1002.19 1524.47 1002.19 1531.6 Q1002.19 1538.71 1004 1542.27 Q1005.82 1545.82 1009.44 1545.82 Q1013.07 1545.82 1014.87 1542.27 Q1016.7 1538.71 1016.7 1531.6 Q1016.7 1524.47 1014.87 1520.93 Q1013.07 1517.37 1009.44 1517.37 M1009.44 1513.66 Q1015.25 1513.66 1018.3 1518.27 Q1021.38 1522.85 1021.38 1531.6 Q1021.38 1540.33 1018.3 1544.94 Q1015.25 1549.52 1009.44 1549.52 Q1003.62 1549.52 1000.55 1544.94 Q997.491 1540.33 997.491 1531.6 Q997.491 1522.85 1000.55 1518.27 Q1003.62 1513.66 1009.44 1513.66 Z" fill="#000000" fill-rule="nonzero" fill-opacity="1" /><path clip-path="url(#clip890)" d="M1402.31 1544.91 L1409.95 1544.91 L1409.95 1518.55 L1401.64 1520.21 L1401.64 1515.95 L1409.9 1514.29 L1414.58 1514.29 L1414.58 1544.91 L1422.22 1544.91 L1422.22 1548.85 L1402.31 1548.85 L1402.31 1544.91 Z" fill="#000000" fill-rule="nonzero" fill-opacity="1" /><path clip-path="url(#clip890)" d="M1431.71 1514.29 L1450.07 1514.29 L1450.07 1518.22 L1435.99 1518.22 L1435.99 1526.7 Q1437.01 1526.35 1438.03 1526.19 Q1439.05 1526 1440.07 1526 Q1445.85 1526 1449.23 1529.17 Q1452.61 1532.34 1452.61 1537.76 Q1452.61 1543.34 1449.14 1546.44 Q1445.67 1549.52 1439.35 1549.52 Q1437.17 1549.52 1434.9 1549.15 Q1432.66 1548.78 1430.25 1548.04 L1430.25 1543.34 Q1432.33 1544.47 1434.56 1545.03 Q1436.78 1545.58 1439.26 1545.58 Q1443.26 1545.58 1445.6 1543.48 Q1447.94 1541.37 1447.94 1537.76 Q1447.94 1534.15 1445.6 1532.04 Q1443.26 1529.94 1439.26 1529.94 Q1437.38 1529.94 1435.51 1530.35 Q1433.65 1530.77 1431.71 1531.65 L1431.71 1514.29 Z" fill="#000000" fill-rule="nonzero" fill-opacity="1" /><path clip-path="url(#clip890)" d="M1837.63 1544.91 L1853.95 1544.91 L1853.95 1548.85 L1832 1548.85 L1832 1544.91 Q1834.67 1542.16 1839.25 1537.53 Q1843.86 1532.88 1845.04 1531.53 Q1847.28 1529.01 1848.16 1527.27 Q1849.06 1525.51 1849.06 1523.82 Q1849.06 1521.07 1847.12 1519.33 Q1845.2 1517.6 1842.1 1517.6 Q1839.9 1517.6 1837.44 1518.36 Q1835.01 1519.13 1832.24 1520.68 L1832.24 1515.95 Q1835.06 1514.82 1837.51 1514.24 Q1839.97 1513.66 1842 1513.66 Q1847.38 1513.66 1850.57 1516.35 Q1853.76 1519.03 1853.76 1523.52 Q1853.76 1525.65 1852.95 1527.57 Q1852.17 1529.47 1850.06 1532.07 Q1849.48 1532.74 1846.38 1535.95 Q1843.28 1539.15 1837.63 1544.91 Z" fill="#000000" fill-rule="nonzero" fill-opacity="1" /><path clip-path="url(#clip890)" d="M1873.76 1517.37 Q1870.15 1517.37 1868.32 1520.93 Q1866.52 1524.47 1866.52 1531.6 Q1866.52 1538.71 1868.32 1542.27 Q1870.15 1545.82 1873.76 1545.82 Q1877.4 1545.82 1879.2 1542.27 Q1881.03 1538.71 1881.03 1531.6 Q1881.03 1524.47 1879.2 1520.93 Q1877.4 1517.37 1873.76 1517.37 M1873.76 1513.66 Q1879.57 1513.66 1882.63 1518.27 Q1885.71 1522.85 1885.71 1531.6 Q1885.71 1540.33 1882.63 1544.94 Q1879.57 1549.52 1873.76 1549.52 Q1867.95 1549.52 1864.87 1544.94 Q1861.82 1540.33 1861.82 1531.6 Q1861.82 1522.85 1864.87 1518.27 Q1867.95 1513.66 1873.76 1513.66 Z" fill="#000000" fill-rule="nonzero" fill-opacity="1" /><path clip-path="url(#clip890)" d="M2269.86 1544.91 L2286.18 1544.91 L2286.18 1548.85 L2264.23 1548.85 L2264.23 1544.91 Q2266.89 1542.16 2271.48 1537.53 Q2276.08 1532.88 2277.27 1531.53 Q2279.51 1529.01 2280.39 1527.27 Q2281.29 1525.51 2281.29 1523.82 Q2281.29 1521.07 2279.35 1519.33 Q2277.43 1517.6 2274.33 1517.6 Q2272.13 1517.6 2269.67 1518.36 Q2267.24 1519.13 2264.46 1520.68 L2264.46 1515.95 Q2267.29 1514.82 2269.74 1514.24 Q2272.2 1513.66 2274.23 1513.66 Q2279.6 1513.66 2282.8 1516.35 Q2285.99 1519.03 2285.99 1523.52 Q2285.99 1525.65 2285.18 1527.57 Q2284.39 1529.47 2282.29 1532.07 Q2281.71 1532.74 2278.61 1535.95 Q2275.51 1539.15 2269.86 1544.91 Z" fill="#000000" fill-rule="nonzero" fill-opacity="1" /><path clip-path="url(#clip890)" d="M2296.04 1514.29 L2314.39 1514.29 L2314.39 1518.22 L2300.32 1518.22 L2300.32 1526.7 Q2301.34 1526.35 2302.36 1526.19 Q2303.38 1526 2304.39 1526 Q2310.18 1526 2313.56 1529.17 Q2316.94 1532.34 2316.94 1537.76 Q2316.94 1543.34 2313.47 1546.44 Q2310 1549.52 2303.68 1549.52 Q2301.5 1549.52 2299.23 1549.15 Q2296.99 1548.78 2294.58 1548.04 L2294.58 1543.34 Q2296.66 1544.47 2298.89 1545.03 Q2301.11 1545.58 2303.58 1545.58 Q2307.59 1545.58 2309.93 1543.48 Q2312.26 1541.37 2312.26 1537.76 Q2312.26 1534.15 2309.93 1532.04 Q2307.59 1529.94 2303.58 1529.94 Q2301.71 1529.94 2299.83 1530.35 Q2297.98 1530.77 2296.04 1531.65 L2296.04 1514.29 Z" fill="#000000" fill-rule="nonzero" fill-opacity="1" /><polyline clip-path="url(#clip892)" style="stroke:#000000; stroke-linecap:round; stroke-linejoin:round; stroke-width:2; stroke-opacity:0.1; fill:none" points="156.112,1445.72 2352.76,1445.72 "/>
<polyline clip-path="url(#clip892)" style="stroke:#000000; stroke-linecap:round; stroke-linejoin:round; stroke-width:2; stroke-opacity:0.1; fill:none" points="156.112,1106.28 2352.76,1106.28 "/>
<polyline clip-path="url(#clip892)" style="stroke:#000000; stroke-linecap:round; stroke-linejoin:round; stroke-width:2; stroke-opacity:0.1; fill:none" points="156.112,766.846 2352.76,766.846 "/>
<polyline clip-path="url(#clip892)" style="stroke:#000000; stroke-linecap:round; stroke-linejoin:round; stroke-width:2; stroke-opacity:0.1; fill:none" points="156.112,427.411 2352.76,427.411 "/>
<polyline clip-path="url(#clip892)" style="stroke:#000000; stroke-linecap:round; stroke-linejoin:round; stroke-width:2; stroke-opacity:0.1; fill:none" points="156.112,87.9763 2352.76,87.9763 "/>
<polyline clip-path="url(#clip890)" style="stroke:#000000; stroke-linecap:round; stroke-linejoin:round; stroke-width:4; stroke-opacity:1; fill:none" points="156.112,1486.45 156.112,47.2441 "/>
<polyline clip-path="url(#clip890)" style="stroke:#000000; stroke-linecap:round; stroke-linejoin:round; stroke-width:4; stroke-opacity:1; fill:none" points="156.112,1445.72 175.01,1445.72 "/>
<polyline clip-path="url(#clip890)" style="stroke:#000000; stroke-linecap:round; stroke-linejoin:round; stroke-width:4; stroke-opacity:1; fill:none" points="156.112,1106.28 175.01,1106.28 "/>
<polyline clip-path="url(#clip890)" style="stroke:#000000; stroke-linecap:round; stroke-linejoin:round; stroke-width:4; stroke-opacity:1; fill:none" points="156.112,766.846 175.01,766.846 "/>
<polyline clip-path="url(#clip890)" style="stroke:#000000; stroke-linecap:round; stroke-linejoin:round; stroke-width:4; stroke-opacity:1; fill:none" points="156.112,427.411 175.01,427.411 "/>
<polyline clip-path="url(#clip890)" style="stroke:#000000; stroke-linecap:round; stroke-linejoin:round; stroke-width:4; stroke-opacity:1; fill:none" points="156.112,87.9763 175.01,87.9763 "/>
<path clip-path="url(#clip890)" d="M62.9365 1431.51 Q59.3254 1431.51 57.4967 1435.08 Q55.6912 1438.62 55.6912 1445.75 Q55.6912 1452.86 57.4967 1456.42 Q59.3254 1459.96 62.9365 1459.96 Q66.5707 1459.96 68.3763 1456.42 Q70.205 1452.86 70.205 1445.75 Q70.205 1438.62 68.3763 1435.08 Q66.5707 1431.51 62.9365 1431.51 M62.9365 1427.81 Q68.7467 1427.81 71.8022 1432.42 Q74.8809 1437 74.8809 1445.75 Q74.8809 1454.48 71.8022 1459.08 Q68.7467 1463.67 62.9365 1463.67 Q57.1264 1463.67 54.0477 1459.08 Q50.9921 1454.48 50.9921 1445.75 Q50.9921 1437 54.0477 1432.42 Q57.1264 1427.81 62.9365 1427.81 Z" fill="#000000" fill-rule="nonzero" fill-opacity="1" /><path clip-path="url(#clip890)" d="M83.0984 1457.12 L87.9827 1457.12 L87.9827 1463 L83.0984 1463 L83.0984 1457.12 Z" fill="#000000" fill-rule="nonzero" fill-opacity="1" /><path clip-path="url(#clip890)" d="M108.168 1431.51 Q104.557 1431.51 102.728 1435.08 Q100.922 1438.62 100.922 1445.75 Q100.922 1452.86 102.728 1456.42 Q104.557 1459.96 108.168 1459.96 Q111.802 1459.96 113.608 1456.42 Q115.436 1452.86 115.436 1445.75 Q115.436 1438.62 113.608 1435.08 Q111.802 1431.51 108.168 1431.51 M108.168 1427.81 Q113.978 1427.81 117.033 1432.42 Q120.112 1437 120.112 1445.75 Q120.112 1454.48 117.033 1459.08 Q113.978 1463.67 108.168 1463.67 Q102.358 1463.67 99.2789 1459.08 Q96.2234 1454.48 96.2234 1445.75 Q96.2234 1437 99.2789 1432.42 Q102.358 1427.81 108.168 1427.81 Z" fill="#000000" fill-rule="nonzero" fill-opacity="1" /><path clip-path="url(#clip890)" d="M63.9319 1092.08 Q60.3208 1092.08 58.4921 1095.64 Q56.6865 1099.19 56.6865 1106.32 Q56.6865 1113.42 58.4921 1116.99 Q60.3208 1120.53 63.9319 1120.53 Q67.5661 1120.53 69.3717 1116.99 Q71.2004 1113.42 71.2004 1106.32 Q71.2004 1099.19 69.3717 1095.64 Q67.5661 1092.08 63.9319 1092.08 M63.9319 1088.38 Q69.742 1088.38 72.7976 1092.98 Q75.8763 1097.57 75.8763 1106.32 Q75.8763 1115.04 72.7976 1119.65 Q69.742 1124.23 63.9319 1124.23 Q58.1217 1124.23 55.043 1119.65 Q51.9875 1115.04 51.9875 1106.32 Q51.9875 1097.57 55.043 1092.98 Q58.1217 1088.38 63.9319 1088.38 Z" fill="#000000" fill-rule="nonzero" fill-opacity="1" /><path clip-path="url(#clip890)" d="M84.0938 1117.68 L88.978 1117.68 L88.978 1123.56 L84.0938 1123.56 L84.0938 1117.68 Z" fill="#000000" fill-rule="nonzero" fill-opacity="1" /><path clip-path="url(#clip890)" d="M99.2095 1089 L117.566 1089 L117.566 1092.94 L103.492 1092.94 L103.492 1101.41 Q104.51 1101.06 105.529 1100.9 Q106.547 1100.71 107.566 1100.71 Q113.353 1100.71 116.733 1103.89 Q120.112 1107.06 120.112 1112.47 Q120.112 1118.05 116.64 1121.15 Q113.168 1124.23 106.848 1124.23 Q104.672 1124.23 102.404 1123.86 Q100.159 1123.49 97.7511 1122.75 L97.7511 1118.05 Q99.8345 1119.19 102.057 1119.74 Q104.279 1120.3 106.756 1120.3 Q110.76 1120.3 113.098 1118.19 Q115.436 1116.08 115.436 1112.47 Q115.436 1108.86 113.098 1106.76 Q110.76 1104.65 106.756 1104.65 Q104.881 1104.65 103.006 1105.07 Q101.154 1105.48 99.2095 1106.36 L99.2095 1089 Z" fill="#000000" fill-rule="nonzero" fill-opacity="1" /><path clip-path="url(#clip890)" d="M53.7467 780.191 L61.3856 780.191 L61.3856 753.825 L53.0754 755.492 L53.0754 751.233 L61.3393 749.566 L66.0152 749.566 L66.0152 780.191 L73.654 780.191 L73.654 784.126 L53.7467 784.126 L53.7467 780.191 Z" fill="#000000" fill-rule="nonzero" fill-opacity="1" /><path clip-path="url(#clip890)" d="M83.0984 778.246 L87.9827 778.246 L87.9827 784.126 L83.0984 784.126 L83.0984 778.246 Z" fill="#000000" fill-rule="nonzero" fill-opacity="1" /><path clip-path="url(#clip890)" d="M108.168 752.645 Q104.557 752.645 102.728 756.209 Q100.922 759.751 100.922 766.881 Q100.922 773.987 102.728 777.552 Q104.557 781.094 108.168 781.094 Q111.802 781.094 113.608 777.552 Q115.436 773.987 115.436 766.881 Q115.436 759.751 113.608 756.209 Q111.802 752.645 108.168 752.645 M108.168 748.941 Q113.978 748.941 117.033 753.547 Q120.112 758.131 120.112 766.881 Q120.112 775.608 117.033 780.214 Q113.978 784.797 108.168 784.797 Q102.358 784.797 99.2789 780.214 Q96.2234 775.608 96.2234 766.881 Q96.2234 758.131 99.2789 753.547 Q102.358 748.941 108.168 748.941 Z" fill="#000000" fill-rule="nonzero" fill-opacity="1" /><path clip-path="url(#clip890)" d="M54.7421 440.756 L62.381 440.756 L62.381 414.39 L54.0708 416.057 L54.0708 411.798 L62.3347 410.131 L67.0106 410.131 L67.0106 440.756 L74.6494 440.756 L74.6494 444.691 L54.7421 444.691 L54.7421 440.756 Z" fill="#000000" fill-rule="nonzero" fill-opacity="1" /><path clip-path="url(#clip890)" d="M84.0938 438.812 L88.978 438.812 L88.978 444.691 L84.0938 444.691 L84.0938 438.812 Z" fill="#000000" fill-rule="nonzero" fill-opacity="1" /><path clip-path="url(#clip890)" d="M99.2095 410.131 L117.566 410.131 L117.566 414.066 L103.492 414.066 L103.492 422.538 Q104.51 422.191 105.529 422.029 Q106.547 421.844 107.566 421.844 Q113.353 421.844 116.733 425.015 Q120.112 428.187 120.112 433.603 Q120.112 439.182 116.64 442.284 Q113.168 445.362 106.848 445.362 Q104.672 445.362 102.404 444.992 Q100.159 444.622 97.7511 443.881 L97.7511 439.182 Q99.8345 440.316 102.057 440.872 Q104.279 441.427 106.756 441.427 Q110.76 441.427 113.098 439.321 Q115.436 437.214 115.436 433.603 Q115.436 429.992 113.098 427.886 Q110.76 425.779 106.756 425.779 Q104.881 425.779 103.006 426.196 Q101.154 426.613 99.2095 427.492 L99.2095 410.131 Z" fill="#000000" fill-rule="nonzero" fill-opacity="1" /><path clip-path="url(#clip890)" d="M56.9643 101.321 L73.2837 101.321 L73.2837 105.256 L51.3393 105.256 L51.3393 101.321 Q54.0014 98.5665 58.5847 93.9369 Q63.1911 89.2841 64.3717 87.9416 Q66.617 85.4184 67.4967 83.6823 Q68.3994 81.9231 68.3994 80.2333 Q68.3994 77.4786 66.455 75.7425 Q64.5337 74.0064 61.4319 74.0064 Q59.2328 74.0064 56.7791 74.7703 Q54.3486 75.5342 51.5708 77.0851 L51.5708 72.3629 Q54.3949 71.2287 56.8486 70.65 Q59.3023 70.0713 61.3393 70.0713 Q66.7096 70.0713 69.9041 72.7565 Q73.0985 75.4416 73.0985 79.9323 Q73.0985 82.062 72.2883 83.9832 Q71.5013 85.8814 69.3948 88.474 Q68.8161 89.1453 65.7143 92.3628 Q62.6124 95.5573 56.9643 101.321 Z" fill="#000000" fill-rule="nonzero" fill-opacity="1" /><path clip-path="url(#clip890)" d="M83.0984 99.3767 L87.9827 99.3767 L87.9827 105.256 L83.0984 105.256 L83.0984 99.3767 Z" fill="#000000" fill-rule="nonzero" fill-opacity="1" /><path clip-path="url(#clip890)" d="M108.168 73.775 Q104.557 73.775 102.728 77.3398 Q100.922 80.8814 100.922 88.011 Q100.922 95.1174 102.728 98.6822 Q104.557 102.224 108.168 102.224 Q111.802 102.224 113.608 98.6822 Q115.436 95.1174 115.436 88.011 Q115.436 80.8814 113.608 77.3398 Q111.802 73.775 108.168 73.775 M108.168 70.0713 Q113.978 70.0713 117.033 74.6777 Q120.112 79.261 120.112 88.011 Q120.112 96.7378 117.033 101.344 Q113.978 105.928 108.168 105.928 Q102.358 105.928 99.2789 101.344 Q96.2234 96.7378 96.2234 88.011 Q96.2234 79.261 99.2789 74.6777 Q102.358 70.0713 108.168 70.0713 Z" fill="#000000" fill-rule="nonzero" fill-opacity="1" /><polyline clip-path="url(#clip892)" style="stroke:#009af9; stroke-linecap:round; stroke-linejoin:round; stroke-width:4; stroke-opacity:1; fill:none" points="218.281,1118.48 304.627,1118.48 390.973,1118.48 477.319,1118.48 563.666,1118.48 650.012,1118.48 736.358,1118.48 822.704,1118.48 909.05,1118.48 995.396,1118.48 1081.74,1118.48 1168.09,1118.48 1254.43,1118.48 1340.78,1118.48 1427.13,1118.48 1513.47,1118.48 1599.82,1118.48 1686.16,1118.48 1772.51,1118.48 1858.86,1118.48 1945.2,1118.48 2031.55,1118.48 2117.89,1118.48 2204.24,1118.48 2290.59,1118.48 "/>
<polyline clip-path="url(#clip892)" style="stroke:#e26f46; stroke-linecap:round; stroke-linejoin:round; stroke-width:4; stroke-opacity:1; fill:none" points="218.281,1445.72 304.627,1445.72 390.973,1445.72 477.319,1445.72 563.666,1445.72 650.012,1445.72 736.358,1445.72 822.704,1445.72 909.05,1445.72 995.396,1445.72 1081.74,1445.72 1168.09,1445.72 1254.43,1445.72 1340.78,1445.72 1427.13,1445.72 1513.47,1445.72 1599.82,1445.72 1686.16,1445.72 1772.51,1445.72 1858.86,1445.72 1945.2,1445.72 2031.55,1445.72 2117.89,1445.72 2204.24,1445.72 2290.59,1445.72 "/>
<polyline clip-path="url(#clip892)" style="stroke:#3da44d; stroke-linecap:round; stroke-linejoin:round; stroke-width:4; stroke-opacity:1; fill:none" points="218.281,1377.83 304.627,1315.89 390.973,1262.19 477.319,1220.56 563.666,1189.94 650.012,1168.06 736.358,1152.68 822.704,1141.98 909.05,1134.58 995.396,1129.5 1081.74,1126.01 1168.09,1123.62 1254.43,1121.99 1340.78,1120.88 1427.13,1120.11 1513.47,1119.6 1599.82,1119.24 1686.16,1119 1772.51,1118.83 1858.86,1118.72 1945.2,1118.65 2031.55,1118.59 2117.89,1118.56 2204.24,1118.53 2290.59,1118.52 "/>
<polyline clip-path="url(#clip892)" style="stroke:#c271d2; stroke-linecap:round; stroke-linejoin:round; stroke-width:4; stroke-opacity:1; fill:none" points="218.281,1309.94 304.627,1257.42 390.973,1216.99 477.319,1187.36 563.666,1166.24 650.012,1151.4 736.358,1141.1 822.704,1133.98 909.05,1129.08 995.396,1125.73 1081.74,1123.43 1168.09,1121.86 1254.43,1120.79 1340.78,1120.05 1427.13,1119.55 1513.47,1119.21 1599.82,1118.98 1686.16,1118.82 1772.51,1118.71 1858.86,1118.64 1945.2,1118.59 2031.55,1118.55 2117.89,1118.53 2204.24,1118.51 2290.59,1118.5 "/>
<polyline clip-path="url(#clip892)" style="stroke:#ac8d18; stroke-linecap:round; stroke-linejoin:round; stroke-width:4; stroke-opacity:1; fill:none" points="218.281,1038.39 304.627,1064.7 390.973,1082.2 477.319,1093.92 563.666,1101.82 650.012,1107.16 736.358,1110.78 822.704,1113.24 909.05,1114.91 995.396,1116.05 1081.74,1116.82 1168.09,1117.35 1254.43,1117.71 1340.78,1117.96 1427.13,1118.12 1513.47,1118.24 1599.82,1118.31 1686.16,1118.37 1772.51,1118.4 1858.86,1118.43 1945.2,1118.44 2031.55,1118.46 2117.89,1118.46 2204.24,1118.47 2290.59,1118.47 "/>
<polyline clip-path="url(#clip892)" style="stroke:#00a9ad; stroke-linecap:round; stroke-linejoin:round; stroke-width:4; stroke-opacity:1; fill:none" points="218.281,87.9763 304.627,477.189 390.973,711.454 477.319,855.655 563.666,946.344 650.012,1004.48 736.358,1042.34 822.704,1067.32 909.05,1083.95 995.396,1095.1 1081.74,1102.62 1168.09,1107.7 1254.43,1111.15 1340.78,1113.49 1427.13,1115.08 1513.47,1116.16 1599.82,1116.9 1686.16,1117.4 1772.51,1117.75 1858.86,1117.98 1945.2,1118.14 2031.55,1118.25 2117.89,1118.32 2204.24,1118.37 2290.59,1118.41 "/>
<path clip-path="url(#clip890)" d="M1924.59 458.098 L2279.53 458.098 L2279.53 95.2176 L1924.59 95.2176  Z" fill="#ffffff" fill-rule="evenodd" fill-opacity="1"/>
<polyline clip-path="url(#clip890)" style="stroke:#000000; stroke-linecap:round; stroke-linejoin:round; stroke-width:4; stroke-opacity:1; fill:none" points="1924.59,458.098 2279.53,458.098 2279.53,95.2176 1924.59,95.2176 1924.59,458.098 "/>
<polyline clip-path="url(#clip890)" style="stroke:#009af9; stroke-linecap:round; stroke-linejoin:round; stroke-width:4; stroke-opacity:1; fill:none" points="1949,147.058 2095.44,147.058 "/>
<path clip-path="url(#clip890)" d="M2119.85 128.319 L2124.13 128.319 L2124.13 149.592 L2136.84 138.412 L2142.28 138.412 L2128.53 150.541 L2142.86 164.338 L2137.3 164.338 L2124.13 151.676 L2124.13 164.338 L2119.85 164.338 L2119.85 128.319 Z" fill="#000000" fill-rule="nonzero" fill-opacity="1" /><path clip-path="url(#clip890)" d="M2165.29 135.472 L2156.98 139.963 L2165.29 144.477 L2163.95 146.745 L2156.17 142.046 L2156.17 150.773 L2153.53 150.773 L2153.53 142.046 L2145.75 146.745 L2144.41 144.477 L2152.72 139.963 L2144.41 135.472 L2145.75 133.18 L2153.53 137.879 L2153.53 129.153 L2156.17 129.153 L2156.17 137.879 L2163.95 133.18 L2165.29 135.472 Z" fill="#000000" fill-rule="nonzero" fill-opacity="1" /><polyline clip-path="url(#clip890)" style="stroke:#e26f46; stroke-linecap:round; stroke-linejoin:round; stroke-width:4; stroke-opacity:1; fill:none" points="1949,198.898 2095.44,198.898 "/>
<path clip-path="url(#clip890)" d="M2119.85 180.159 L2124.13 180.159 L2124.13 201.432 L2136.84 190.252 L2142.28 190.252 L2128.53 202.381 L2142.86 216.178 L2137.3 216.178 L2124.13 203.516 L2124.13 216.178 L2119.85 216.178 L2119.85 180.159 Z" fill="#000000" fill-rule="nonzero" fill-opacity="1" /><path clip-path="url(#clip890)" d="M2148.02 194.65 L2177.7 194.65 L2177.7 198.539 L2148.02 198.539 L2148.02 194.65 M2148.02 204.094 L2177.7 204.094 L2177.7 208.029 L2148.02 208.029 L2148.02 204.094 Z" fill="#000000" fill-rule="nonzero" fill-opacity="1" /><path clip-path="url(#clip890)" d="M2197.79 184.696 Q2194.18 184.696 2192.35 188.261 Q2190.54 191.803 2190.54 198.932 Q2190.54 206.039 2192.35 209.604 Q2194.18 213.145 2197.79 213.145 Q2201.42 213.145 2203.23 209.604 Q2205.06 206.039 2205.06 198.932 Q2205.06 191.803 2203.23 188.261 Q2201.42 184.696 2197.79 184.696 M2197.79 180.993 Q2203.6 180.993 2206.66 185.599 Q2209.73 190.182 2209.73 198.932 Q2209.73 207.659 2206.66 212.266 Q2203.6 216.849 2197.79 216.849 Q2191.98 216.849 2188.9 212.266 Q2185.85 207.659 2185.85 198.932 Q2185.85 190.182 2188.9 185.599 Q2191.98 180.993 2197.79 180.993 Z" fill="#000000" fill-rule="nonzero" fill-opacity="1" /><path clip-path="url(#clip890)" d="M2217.95 210.298 L2222.84 210.298 L2222.84 216.178 L2217.95 216.178 L2217.95 210.298 Z" fill="#000000" fill-rule="nonzero" fill-opacity="1" /><path clip-path="url(#clip890)" d="M2243.02 184.696 Q2239.41 184.696 2237.58 188.261 Q2235.78 191.803 2235.78 198.932 Q2235.78 206.039 2237.58 209.604 Q2239.41 213.145 2243.02 213.145 Q2246.66 213.145 2248.46 209.604 Q2250.29 206.039 2250.29 198.932 Q2250.29 191.803 2248.46 188.261 Q2246.66 184.696 2243.02 184.696 M2243.02 180.993 Q2248.83 180.993 2251.89 185.599 Q2254.97 190.182 2254.97 198.932 Q2254.97 207.659 2251.89 212.266 Q2248.83 216.849 2243.02 216.849 Q2237.21 216.849 2234.13 212.266 Q2231.08 207.659 2231.08 198.932 Q2231.08 190.182 2234.13 185.599 Q2237.21 180.993 2243.02 180.993 Z" fill="#000000" fill-rule="nonzero" fill-opacity="1" /><polyline clip-path="url(#clip890)" style="stroke:#3da44d; stroke-linecap:round; stroke-linejoin:round; stroke-width:4; stroke-opacity:1; fill:none" points="1949,250.738 2095.44,250.738 "/>
<path clip-path="url(#clip890)" d="M2119.85 231.999 L2124.13 231.999 L2124.13 253.272 L2136.84 242.092 L2142.28 242.092 L2128.53 254.221 L2142.86 268.018 L2137.3 268.018 L2124.13 255.356 L2124.13 268.018 L2119.85 268.018 L2119.85 231.999 Z" fill="#000000" fill-rule="nonzero" fill-opacity="1" /><path clip-path="url(#clip890)" d="M2148.02 246.49 L2177.7 246.49 L2177.7 250.379 L2148.02 250.379 L2148.02 246.49 M2148.02 255.934 L2177.7 255.934 L2177.7 259.869 L2148.02 259.869 L2148.02 255.934 Z" fill="#000000" fill-rule="nonzero" fill-opacity="1" /><path clip-path="url(#clip890)" d="M2197.79 236.536 Q2194.18 236.536 2192.35 240.101 Q2190.54 243.643 2190.54 250.772 Q2190.54 257.879 2192.35 261.444 Q2194.18 264.985 2197.79 264.985 Q2201.42 264.985 2203.23 261.444 Q2205.06 257.879 2205.06 250.772 Q2205.06 243.643 2203.23 240.101 Q2201.42 236.536 2197.79 236.536 M2197.79 232.833 Q2203.6 232.833 2206.66 237.439 Q2209.73 242.022 2209.73 250.772 Q2209.73 259.499 2206.66 264.106 Q2203.6 268.689 2197.79 268.689 Q2191.98 268.689 2188.9 264.106 Q2185.85 259.499 2185.85 250.772 Q2185.85 242.022 2188.9 237.439 Q2191.98 232.833 2197.79 232.833 Z" fill="#000000" fill-rule="nonzero" fill-opacity="1" /><path clip-path="url(#clip890)" d="M2217.95 262.138 L2222.84 262.138 L2222.84 268.018 L2217.95 268.018 L2217.95 262.138 Z" fill="#000000" fill-rule="nonzero" fill-opacity="1" /><path clip-path="url(#clip890)" d="M2233.83 264.082 L2241.47 264.082 L2241.47 237.717 L2233.16 239.383 L2233.16 235.124 L2241.42 233.458 L2246.1 233.458 L2246.1 264.082 L2253.74 264.082 L2253.74 268.018 L2233.83 268.018 L2233.83 264.082 Z" fill="#000000" fill-rule="nonzero" fill-opacity="1" /><polyline clip-path="url(#clip890)" style="stroke:#c271d2; stroke-linecap:round; stroke-linejoin:round; stroke-width:4; stroke-opacity:1; fill:none" points="1949,302.578 2095.44,302.578 "/>
<path clip-path="url(#clip890)" d="M2119.85 283.839 L2124.13 283.839 L2124.13 305.112 L2136.84 293.932 L2142.28 293.932 L2128.53 306.061 L2142.86 319.858 L2137.3 319.858 L2124.13 307.196 L2124.13 319.858 L2119.85 319.858 L2119.85 283.839 Z" fill="#000000" fill-rule="nonzero" fill-opacity="1" /><path clip-path="url(#clip890)" d="M2148.02 298.33 L2177.7 298.33 L2177.7 302.219 L2148.02 302.219 L2148.02 298.33 M2148.02 307.774 L2177.7 307.774 L2177.7 311.709 L2148.02 311.709 L2148.02 307.774 Z" fill="#000000" fill-rule="nonzero" fill-opacity="1" /><path clip-path="url(#clip890)" d="M2197.79 288.376 Q2194.18 288.376 2192.35 291.941 Q2190.54 295.483 2190.54 302.612 Q2190.54 309.719 2192.35 313.284 Q2194.18 316.825 2197.79 316.825 Q2201.42 316.825 2203.23 313.284 Q2205.06 309.719 2205.06 302.612 Q2205.06 295.483 2203.23 291.941 Q2201.42 288.376 2197.79 288.376 M2197.79 284.673 Q2203.6 284.673 2206.66 289.279 Q2209.73 293.862 2209.73 302.612 Q2209.73 311.339 2206.66 315.946 Q2203.6 320.529 2197.79 320.529 Q2191.98 320.529 2188.9 315.946 Q2185.85 311.339 2185.85 302.612 Q2185.85 293.862 2188.9 289.279 Q2191.98 284.673 2197.79 284.673 Z" fill="#000000" fill-rule="nonzero" fill-opacity="1" /><path clip-path="url(#clip890)" d="M2217.95 313.978 L2222.84 313.978 L2222.84 319.858 L2217.95 319.858 L2217.95 313.978 Z" fill="#000000" fill-rule="nonzero" fill-opacity="1" /><path clip-path="url(#clip890)" d="M2237.05 315.922 L2253.37 315.922 L2253.37 319.858 L2231.42 319.858 L2231.42 315.922 Q2234.09 313.168 2238.67 308.538 Q2243.28 303.885 2244.46 302.543 Q2246.7 300.02 2247.58 298.284 Q2248.48 296.524 2248.48 294.835 Q2248.48 292.08 2246.54 290.344 Q2244.62 288.608 2241.52 288.608 Q2239.32 288.608 2236.86 289.372 Q2234.43 290.135 2231.66 291.686 L2231.66 286.964 Q2234.48 285.83 2236.93 285.251 Q2239.39 284.673 2241.42 284.673 Q2246.79 284.673 2249.99 287.358 Q2253.18 290.043 2253.18 294.534 Q2253.18 296.663 2252.37 298.585 Q2251.59 300.483 2249.48 303.075 Q2248.9 303.747 2245.8 306.964 Q2242.7 310.159 2237.05 315.922 Z" fill="#000000" fill-rule="nonzero" fill-opacity="1" /><polyline clip-path="url(#clip890)" style="stroke:#ac8d18; stroke-linecap:round; stroke-linejoin:round; stroke-width:4; stroke-opacity:1; fill:none" points="1949,354.418 2095.44,354.418 "/>
<path clip-path="url(#clip890)" d="M2119.85 335.679 L2124.13 335.679 L2124.13 356.952 L2136.84 345.772 L2142.28 345.772 L2128.53 357.901 L2142.86 371.698 L2137.3 371.698 L2124.13 359.036 L2124.13 371.698 L2119.85 371.698 L2119.85 335.679 Z" fill="#000000" fill-rule="nonzero" fill-opacity="1" /><path clip-path="url(#clip890)" d="M2148.02 350.17 L2177.7 350.17 L2177.7 354.059 L2148.02 354.059 L2148.02 350.17 M2148.02 359.614 L2177.7 359.614 L2177.7 363.549 L2148.02 363.549 L2148.02 359.614 Z" fill="#000000" fill-rule="nonzero" fill-opacity="1" /><path clip-path="url(#clip890)" d="M2197.79 340.216 Q2194.18 340.216 2192.35 343.781 Q2190.54 347.323 2190.54 354.452 Q2190.54 361.559 2192.35 365.124 Q2194.18 368.665 2197.79 368.665 Q2201.42 368.665 2203.23 365.124 Q2205.06 361.559 2205.06 354.452 Q2205.06 347.323 2203.23 343.781 Q2201.42 340.216 2197.79 340.216 M2197.79 336.513 Q2203.6 336.513 2206.66 341.119 Q2209.73 345.702 2209.73 354.452 Q2209.73 363.179 2206.66 367.786 Q2203.6 372.369 2197.79 372.369 Q2191.98 372.369 2188.9 367.786 Q2185.85 363.179 2185.85 354.452 Q2185.85 345.702 2188.9 341.119 Q2191.98 336.513 2197.79 336.513 Z" fill="#000000" fill-rule="nonzero" fill-opacity="1" /><path clip-path="url(#clip890)" d="M2217.95 365.818 L2222.84 365.818 L2222.84 371.698 L2217.95 371.698 L2217.95 365.818 Z" fill="#000000" fill-rule="nonzero" fill-opacity="1" /><path clip-path="url(#clip890)" d="M2243.6 352.554 Q2240.45 352.554 2238.6 354.707 Q2236.77 356.86 2236.77 360.61 Q2236.77 364.336 2238.6 366.512 Q2240.45 368.665 2243.6 368.665 Q2246.75 368.665 2248.58 366.512 Q2250.43 364.336 2250.43 360.61 Q2250.43 356.86 2248.58 354.707 Q2246.75 352.554 2243.6 352.554 M2252.88 337.901 L2252.88 342.161 Q2251.12 341.327 2249.32 340.888 Q2247.53 340.448 2245.78 340.448 Q2241.15 340.448 2238.69 343.573 Q2236.26 346.698 2235.91 353.017 Q2237.28 351.003 2239.34 349.938 Q2241.4 348.85 2243.88 348.85 Q2249.09 348.85 2252.09 352.022 Q2255.13 355.17 2255.13 360.61 Q2255.13 365.934 2251.98 369.151 Q2248.83 372.369 2243.6 372.369 Q2237.6 372.369 2234.43 367.786 Q2231.26 363.179 2231.26 354.452 Q2231.26 346.258 2235.15 341.397 Q2239.04 336.513 2245.59 336.513 Q2247.35 336.513 2249.13 336.86 Q2250.94 337.207 2252.88 337.901 Z" fill="#000000" fill-rule="nonzero" fill-opacity="1" /><polyline clip-path="url(#clip890)" style="stroke:#00a9ad; stroke-linecap:round; stroke-linejoin:round; stroke-width:4; stroke-opacity:1; fill:none" points="1949,406.258 2095.44,406.258 "/>
<path clip-path="url(#clip890)" d="M2119.85 387.519 L2124.13 387.519 L2124.13 408.792 L2136.84 397.612 L2142.28 397.612 L2128.53 409.741 L2142.86 423.538 L2137.3 423.538 L2124.13 410.876 L2124.13 423.538 L2119.85 423.538 L2119.85 387.519 Z" fill="#000000" fill-rule="nonzero" fill-opacity="1" /><path clip-path="url(#clip890)" d="M2148.02 402.01 L2177.7 402.01 L2177.7 405.899 L2148.02 405.899 L2148.02 402.01 M2148.02 411.454 L2177.7 411.454 L2177.7 415.389 L2148.02 415.389 L2148.02 411.454 Z" fill="#000000" fill-rule="nonzero" fill-opacity="1" /><path clip-path="url(#clip890)" d="M2191.82 419.602 L2208.14 419.602 L2208.14 423.538 L2186.19 423.538 L2186.19 419.602 Q2188.85 416.848 2193.44 412.218 Q2198.04 407.565 2199.22 406.223 Q2201.47 403.7 2202.35 401.964 Q2203.25 400.204 2203.25 398.515 Q2203.25 395.76 2201.31 394.024 Q2199.39 392.288 2196.29 392.288 Q2194.09 392.288 2191.63 393.052 Q2189.2 393.815 2186.42 395.366 L2186.42 390.644 Q2189.25 389.51 2191.7 388.931 Q2194.16 388.353 2196.19 388.353 Q2201.56 388.353 2204.76 391.038 Q2207.95 393.723 2207.95 398.214 Q2207.95 400.343 2207.14 402.265 Q2206.35 404.163 2204.25 406.755 Q2203.67 407.427 2200.57 410.644 Q2197.47 413.839 2191.82 419.602 Z" fill="#000000" fill-rule="nonzero" fill-opacity="1" /><path clip-path="url(#clip890)" d="M2217.95 417.658 L2222.84 417.658 L2222.84 423.538 L2217.95 423.538 L2217.95 417.658 Z" fill="#000000" fill-rule="nonzero" fill-opacity="1" /><path clip-path="url(#clip890)" d="M2243.02 392.056 Q2239.41 392.056 2237.58 395.621 Q2235.78 399.163 2235.78 406.292 Q2235.78 413.399 2237.58 416.964 Q2239.41 420.505 2243.02 420.505 Q2246.66 420.505 2248.46 416.964 Q2250.29 413.399 2250.29 406.292 Q2250.29 399.163 2248.46 395.621 Q2246.66 392.056 2243.02 392.056 M2243.02 388.353 Q2248.83 388.353 2251.89 392.959 Q2254.97 397.542 2254.97 406.292 Q2254.97 415.019 2251.89 419.626 Q2248.83 424.209 2243.02 424.209 Q2237.21 424.209 2234.13 419.626 Q2231.08 415.019 2231.08 406.292 Q2231.08 397.542 2234.13 392.959 Q2237.21 388.353 2243.02 388.353 Z" fill="#000000" fill-rule="nonzero" fill-opacity="1" /></svg>