<?xml version="1.0" encoding="utf-8"?>
<svg xmlns="http://www.w3.org/2000/svg" xmlns:xlink="http://www.w3.org/1999/xlink" width="600" height="400" viewBox="0 0 2400 1600">
<defs>
  <clipPath id="clip270">
    <rect x="0" y="0" width="2400" height="1600"/>
  </clipPath>
</defs>
<path clip-path="url(#clip270)" d="M0 1600 L2400 1600 L2400 0 L0 0  Z" fill="#ffffff" fill-rule="evenodd" fill-opacity="1"/>
<defs>
  <clipPath id="clip271">
    <rect x="480" y="0" width="1681" height="1600"/>
  </clipPath>
</defs>
<path clip-path="url(#clip270)" d="M156.598 1486.45 L2352.76 1486.45 L2352.76 47.2441 L156.598 47.2441  Z" fill="#ffffff" fill-rule="evenodd" fill-opacity="1"/>
<defs>
  <clipPath id="clip272">
    <rect x="156" y="47" width="2197" height="1440"/>
  </clipPath>
</defs>
<polyline clip-path="url(#clip272)" style="stroke:#000000; stroke-linecap:round; stroke-linejoin:round; stroke-width:2; stroke-opacity:0.1; fill:none" points="197.826,1486.45 197.826,47.2441 "/>
<polyline clip-path="url(#clip272)" style="stroke:#000000; stroke-linecap:round; stroke-linejoin:round; stroke-width:2; stroke-opacity:0.1; fill:none" points="721.02,1486.45 721.02,47.2441 "/>
<polyline clip-path="url(#clip272)" style="stroke:#000000; stroke-linecap:round; stroke-linejoin:round; stroke-width:2; stroke-opacity:0.1; fill:none" points="1244.21,1486.45 1244.21,47.2441 "/>
<polyline clip-path="url(#clip272)" style="stroke:#000000; stroke-linecap:round; stroke-linejoin:round; stroke-width:2; stroke-opacity:0.1; fill:none" points="1767.41,1486.45 1767.41,47.2441 "/>
<polyline clip-path="url(#clip272)" style="stroke:#000000; stroke-linecap:round; stroke-linejoin:round; stroke-width:2; stroke-opacity:0.1; fill:none" points="2290.6,1486.45 2290.6,47.2441 "/>
<polyline clip-path="url(#clip270)" style="stroke:#000000; stroke-linecap:round; stroke-linejoin:round; stroke-width:4; stroke-opacity:1; fill:none" points="156.598,1486.45 2352.76,1486.45 "/>
<polyline clip-path="url(#clip270)" style="stroke:#000000; stroke-linecap:round; stroke-linejoin:round; stroke-width:4; stroke-opacity:1; fill:none" points="197.826,1486.45 197.826,1467.55 "/>
<polyline clip-path="url(#clip270)" style="stroke:#000000; stroke-linecap:round; stroke-linejoin:round; stroke-width:4; stroke-opacity:1; fill:none" points="721.02,1486.45 721.02,1467.55 "/>
<polyline clip-path="url(#clip270)" style="stroke:#000000; stroke-linecap:round; stroke-linejoin:round; stroke-width:4; stroke-opacity:1; fill:none" points="1244.21,1486.45 1244.21,1467.55 "/>
<polyline clip-path="url(#clip270)" style="stroke:#000000; stroke-linecap:round; stroke-linejoin:round; stroke-width:4; stroke-opacity:1; fill:none" points="1767.41,1486.45 1767.41,1467.55 "/>
<polyline clip-path="url(#clip270)" style="stroke:#000000; stroke-linecap:round; stroke-linejoin:round; stroke-width:4; stroke-opacity:1; fill:none" points="2290.6,1486.45 2290.6,1467.55 "/>
<path clip-path="url(#clip270)" d="M197.826 1517.37 Q194.215 1517.37 192.386 1520.93 Q190.581 1524.47 190.581 1531.6 Q190.581 1538.71 192.386 1542.27 Q194.215 1545.82 197.826 1545.82 Q201.46 1545.82 203.266 1542.27 Q205.094 1538.71 205.094 1531.6 Q205.094 1524.47 203.266 1520.93 Q201.46 1517.37 197.826 1517.37 M197.826 1513.66 Q203.636 1513.66 206.692 1518.27 Q209.77 1522.85 209.77 1531.6 Q209.77 1540.33 206.692 1544.94 Q203.636 1549.52 197.826 1549.52 Q192.016 1549.52 188.937 1544.94 Q185.882 1540.33 185.882 1531.6 Q185.882 1522.85 188.937 1518.27 Q192.016 1513.66 197.826 1513.66 Z" fill="#000000" fill-rule="nonzero" fill-opacity="1" /><path clip-path="url(#clip270)" d="M700.29 1544.91 L716.61 1544.91 L716.61 1548.85 L694.666 1548.85 L694.666 1544.91 Q697.328 1542.16 701.911 1537.53 Q706.517 1532.88 707.698 1531.53 Q709.943 1529.01 710.823 1527.27 Q711.726 1525.51 711.726 1523.82 Q711.726 1521.07 709.781 1519.33 Q707.86 1517.6 704.758 1517.6 Q702.559 1517.6 700.105 1518.36 Q697.675 1519.13 694.897 1520.68 L694.897 1515.95 Q697.721 1514.82 700.175 1514.24 Q702.628 1513.66 704.665 1513.66 Q710.036 1513.66 713.23 1516.35 Q716.425 1519.03 716.425 1523.52 Q716.425 1525.65 715.614 1527.57 Q714.827 1529.47 712.721 1532.07 Q712.142 1532.74 709.04 1535.95 Q705.939 1539.15 700.29 1544.91 Z" fill="#000000" fill-rule="nonzero" fill-opacity="1" /><path clip-path="url(#clip270)" d="M726.471 1514.29 L744.827 1514.29 L744.827 1518.22 L730.753 1518.22 L730.753 1526.7 Q731.772 1526.35 732.79 1526.19 Q733.809 1526 734.827 1526 Q740.614 1526 743.994 1529.17 Q747.374 1532.34 747.374 1537.76 Q747.374 1543.34 743.901 1546.44 Q740.429 1549.52 734.11 1549.52 Q731.934 1549.52 729.665 1549.15 Q727.42 1548.78 725.013 1548.04 L725.013 1543.34 Q727.096 1544.47 729.318 1545.03 Q731.54 1545.58 734.017 1545.58 Q738.022 1545.58 740.36 1543.48 Q742.698 1541.37 742.698 1537.76 Q742.698 1534.15 740.36 1532.04 Q738.022 1529.94 734.017 1529.94 Q732.142 1529.94 730.267 1530.35 Q728.415 1530.77 726.471 1531.65 L726.471 1514.29 Z" fill="#000000" fill-rule="nonzero" fill-opacity="1" /><path clip-path="url(#clip270)" d="M1218.91 1514.29 L1237.27 1514.29 L1237.27 1518.22 L1223.19 1518.22 L1223.19 1526.7 Q1224.21 1526.35 1225.23 1526.19 Q1226.25 1526 1227.27 1526 Q1233.06 1526 1236.44 1529.17 Q1239.82 1532.34 1239.82 1537.76 Q1239.82 1543.34 1236.34 1546.44 Q1232.87 1549.52 1226.55 1549.52 Q1224.38 1549.52 1222.11 1549.15 Q1219.86 1548.78 1217.45 1548.04 L1217.45 1543.34 Q1219.54 1544.47 1221.76 1545.03 Q1223.98 1545.58 1226.46 1545.58 Q1230.46 1545.58 1232.8 1543.48 Q1235.14 1541.37 1235.14 1537.76 Q1235.14 1534.15 1232.8 1532.04 Q1230.46 1529.94 1226.46 1529.94 Q1224.58 1529.94 1222.71 1530.35 Q1220.86 1530.77 1218.91 1531.65 L1218.91 1514.29 Z" fill="#000000" fill-rule="nonzero" fill-opacity="1" /><path clip-path="url(#clip270)" d="M1259.03 1517.37 Q1255.42 1517.37 1253.59 1520.93 Q1251.78 1524.47 1251.78 1531.6 Q1251.78 1538.71 1253.59 1542.27 Q1255.42 1545.82 1259.03 1545.82 Q1262.66 1545.82 1264.47 1542.27 Q1266.3 1538.71 1266.3 1531.6 Q1266.3 1524.47 1264.47 1520.93 Q1262.66 1517.37 1259.03 1517.37 M1259.03 1513.66 Q1264.84 1513.66 1267.89 1518.27 Q1270.97 1522.85 1270.97 1531.6 Q1270.97 1540.33 1267.89 1544.94 Q1264.84 1549.52 1259.03 1549.52 Q1253.22 1549.52 1250.14 1544.94 Q1247.08 1540.33 1247.08 1531.6 Q1247.08 1522.85 1250.14 1518.27 Q1253.22 1513.66 1259.03 1513.66 Z" fill="#000000" fill-rule="nonzero" fill-opacity="1" /><path clip-path="url(#clip270)" d="M1741.26 1514.29 L1763.48 1514.29 L1763.48 1516.28 L1750.94 1548.85 L1746.05 1548.85 L1757.86 1518.22 L1741.26 1518.22 L1741.26 1514.29 Z" fill="#000000" fill-rule="nonzero" fill-opacity="1" /><path clip-path="url(#clip270)" d="M1772.65 1514.29 L1791.01 1514.29 L1791.01 1518.22 L1776.93 1518.22 L1776.93 1526.7 Q1777.95 1526.35 1778.97 1526.19 Q1779.99 1526 1781.01 1526 Q1786.79 1526 1790.17 1529.17 Q1793.55 1532.34 1793.55 1537.76 Q1793.55 1543.34 1790.08 1546.44 Q1786.61 1549.52 1780.29 1549.52 Q1778.11 1549.52 1775.84 1549.15 Q1773.6 1548.78 1771.19 1548.04 L1771.19 1543.34 Q1773.27 1544.47 1775.5 1545.03 Q1777.72 1545.58 1780.2 1545.58 Q1784.2 1545.58 1786.54 1543.48 Q1788.88 1541.37 1788.88 1537.76 Q1788.88 1534.15 1786.54 1532.04 Q1784.2 1529.94 1780.2 1529.94 Q1778.32 1529.94 1776.45 1530.35 Q1774.59 1530.77 1772.65 1531.65 L1772.65 1514.29 Z" fill="#000000" fill-rule="nonzero" fill-opacity="1" /><path clip-path="url(#clip270)" d="M2250.21 1544.91 L2257.85 1544.91 L2257.85 1518.55 L2249.54 1520.21 L2249.54 1515.95 L2257.8 1514.29 L2262.48 1514.29 L2262.48 1544.91 L2270.11 1544.91 L2270.11 1548.85 L2250.21 1548.85 L2250.21 1544.91 Z" fill="#000000" fill-rule="nonzero" fill-opacity="1" /><path clip-path="url(#clip270)" d="M2289.56 1517.37 Q2285.95 1517.37 2284.12 1520.93 Q2282.31 1524.47 2282.31 1531.6 Q2282.31 1538.71 2284.12 1542.27 Q2285.95 1545.82 2289.56 1545.82 Q2293.19 1545.82 2295 1542.27 Q2296.83 1538.71 2296.83 1531.6 Q2296.83 1524.47 2295 1520.93 Q2293.19 1517.37 2289.56 1517.37 M2289.56 1513.66 Q2295.37 1513.66 2298.42 1518.27 Q2301.5 1522.85 2301.5 1531.6 Q2301.5 1540.33 2298.42 1544.94 Q2295.37 1549.52 2289.56 1549.52 Q2283.75 1549.52 2280.67 1544.94 Q2277.61 1540.33 2277.61 1531.6 Q2277.61 1522.85 2280.67 1518.27 Q2283.75 1513.66 2289.56 1513.66 Z" fill="#000000" fill-rule="nonzero" fill-opacity="1" /><path clip-path="url(#clip270)" d="M2319.72 1517.37 Q2316.11 1517.37 2314.28 1520.93 Q2312.48 1524.47 2312.48 1531.6 Q2312.48 1538.71 2314.28 1542.27 Q2316.11 1545.82 2319.72 1545.82 Q2323.35 1545.82 2325.16 1542.27 Q2326.99 1538.71 2326.99 1531.6 Q2326.99 1524.47 2325.16 1520.93 Q2323.35 1517.37 2319.72 1517.37 M2319.72 1513.66 Q2325.53 1513.66 2328.59 1518.27 Q2331.67 1522.85 2331.67 1531.6 Q2331.67 1540.33 2328.59 1544.94 Q2325.53 1549.52 2319.72 1549.52 Q2313.91 1549.52 2310.83 1544.94 Q2307.78 1540.33 2307.78 1531.6 Q2307.78 1522.85 2310.83 1518.27 Q2313.91 1513.66 2319.72 1513.66 Z" fill="#000000" fill-rule="nonzero" fill-opacity="1" /><polyline clip-path="url(#clip272)" style="stroke:#000000; stroke-linecap:round; stroke-linejoin:round; stroke-width:2; stroke-opacity:0.1; fill:none" points="156.598,1445.72 2352.76,1445.72 "/>
<polyline clip-path="url(#clip272)" style="stroke:#000000; stroke-linecap:round; stroke-linejoin:round; stroke-width:2; stroke-opacity:0.1; fill:none" points="156.598,1046.34 2352.76,1046.34 "/>
<polyline clip-path="url(#clip272)" style="stroke:#000000; stroke-linecap:round; stroke-linejoin:round; stroke-width:2; stroke-opacity:0.1; fill:none" points="156.598,646.968 2352.76,646.968 "/>
<polyline clip-path="url(#clip272)" style="stroke:#000000; stroke-linecap:round; stroke-linejoin:round; stroke-width:2; stroke-opacity:0.1; fill:none" points="156.598,247.594 2352.76,247.594 "/>
<polyline clip-path="url(#clip270)" style="stroke:#000000; stroke-linecap:round; stroke-linejoin:round; stroke-width:4; stroke-opacity:1; fill:none" points="156.598,1486.45 156.598,47.2441 "/>
<polyline clip-path="url(#clip270)" style="stroke:#000000; stroke-linecap:round; stroke-linejoin:round; stroke-width:4; stroke-opacity:1; fill:none" points="156.598,1445.72 175.496,1445.72 "/>
<polyline clip-path="url(#clip270)" style="stroke:#000000; stroke-linecap:round; stroke-linejoin:round; stroke-width:4; stroke-opacity:1; fill:none" points="156.598,1046.34 175.496,1046.34 "/>
<polyline clip-path="url(#clip270)" style="stroke:#000000; stroke-linecap:round; stroke-linejoin:round; stroke-width:4; stroke-opacity:1; fill:none" points="156.598,646.968 175.496,646.968 "/>
<polyline clip-path="url(#clip270)" style="stroke:#000000; stroke-linecap:round; stroke-linejoin:round; stroke-width:4; stroke-opacity:1; fill:none" points="156.598,247.594 175.496,247.594 "/>
<path clip-path="url(#clip270)" d="M64.6495 1431.51 Q61.0384 1431.51 59.2097 1435.08 Q57.4041 1438.62 57.4041 1445.75 Q57.4041 1452.86 59.2097 1456.42 Q61.0384 1459.96 64.6495 1459.96 Q68.2837 1459.96 70.0892 1456.42 Q71.9179 1452.86 71.9179 1445.75 Q71.9179 1438.62 70.0892 1435.08 Q68.2837 1431.51 64.6495 1431.51 M64.6495 1427.81 Q70.4596 1427.81 73.5152 1432.42 Q76.5938 1437 76.5938 1445.75 Q76.5938 1454.48 73.5152 1459.08 Q70.4596 1463.67 64.6495 1463.67 Q58.8393 1463.67 55.7606 1459.08 Q52.7051 1454.48 52.7051 1445.75 Q52.7051 1437 55.7606 1432.42 Q58.8393 1427.81 64.6495 1427.81 Z" fill="#000000" fill-rule="nonzero" fill-opacity="1" /><path clip-path="url(#clip270)" d="M84.8114 1457.12 L89.6956 1457.12 L89.6956 1463 L84.8114 1463 L84.8114 1457.12 Z" fill="#000000" fill-rule="nonzero" fill-opacity="1" /><path clip-path="url(#clip270)" d="M100.691 1459.06 L108.33 1459.06 L108.33 1432.69 L100.02 1434.36 L100.02 1430.1 L108.283 1428.44 L112.959 1428.44 L112.959 1459.06 L120.598 1459.06 L120.598 1463 L100.691 1463 L100.691 1459.06 Z" fill="#000000" fill-rule="nonzero" fill-opacity="1" /><path clip-path="url(#clip270)" d="M65.0198 1032.14 Q61.4087 1032.14 59.58 1035.71 Q57.7745 1039.25 57.7745 1046.38 Q57.7745 1053.48 59.58 1057.05 Q61.4087 1060.59 65.0198 1060.59 Q68.6541 1060.59 70.4596 1057.05 Q72.2883 1053.48 72.2883 1046.38 Q72.2883 1039.25 70.4596 1035.71 Q68.6541 1032.14 65.0198 1032.14 M65.0198 1028.44 Q70.83 1028.44 73.8855 1033.04 Q76.9642 1037.63 76.9642 1046.38 Q76.9642 1055.1 73.8855 1059.71 Q70.83 1064.29 65.0198 1064.29 Q59.2097 1064.29 56.131 1059.71 Q53.0754 1055.1 53.0754 1046.38 Q53.0754 1037.63 56.131 1033.04 Q59.2097 1028.44 65.0198 1028.44 Z" fill="#000000" fill-rule="nonzero" fill-opacity="1" /><path clip-path="url(#clip270)" d="M85.1818 1057.74 L90.066 1057.74 L90.066 1063.62 L85.1818 1063.62 L85.1818 1057.74 Z" fill="#000000" fill-rule="nonzero" fill-opacity="1" /><path clip-path="url(#clip270)" d="M104.279 1059.69 L120.598 1059.69 L120.598 1063.62 L98.6539 1063.62 L98.6539 1059.69 Q101.316 1056.93 105.899 1052.3 Q110.506 1047.65 111.686 1046.31 Q113.932 1043.78 114.811 1042.05 Q115.714 1040.29 115.714 1038.6 Q115.714 1035.84 113.77 1034.11 Q111.848 1032.37 108.746 1032.37 Q106.547 1032.37 104.094 1033.14 Q101.663 1033.9 98.8854 1035.45 L98.8854 1030.73 Q101.709 1029.59 104.163 1029.02 Q106.617 1028.44 108.654 1028.44 Q114.024 1028.44 117.219 1031.12 Q120.413 1033.81 120.413 1038.3 Q120.413 1040.43 119.603 1042.35 Q118.816 1044.25 116.709 1046.84 Q116.131 1047.51 113.029 1050.73 Q109.927 1053.92 104.279 1059.69 Z" fill="#000000" fill-rule="nonzero" fill-opacity="1" /><path clip-path="url(#clip270)" d="M64.0708 632.767 Q60.4597 632.767 58.631 636.331 Q56.8254 639.873 56.8254 647.003 Q56.8254 654.109 58.631 657.674 Q60.4597 661.215 64.0708 661.215 Q67.705 661.215 69.5105 657.674 Q71.3392 654.109 71.3392 647.003 Q71.3392 639.873 69.5105 636.331 Q67.705 632.767 64.0708 632.767 M64.0708 629.063 Q69.8809 629.063 72.9365 633.669 Q76.0151 638.253 76.0151 647.003 Q76.0151 655.729 72.9365 660.336 Q69.8809 664.919 64.0708 664.919 Q58.2606 664.919 55.1819 660.336 Q52.1264 655.729 52.1264 647.003 Q52.1264 638.253 55.1819 633.669 Q58.2606 629.063 64.0708 629.063 Z" fill="#000000" fill-rule="nonzero" fill-opacity="1" /><path clip-path="url(#clip270)" d="M84.2327 658.368 L89.1169 658.368 L89.1169 664.248 L84.2327 664.248 L84.2327 658.368 Z" fill="#000000" fill-rule="nonzero" fill-opacity="1" /><path clip-path="url(#clip270)" d="M113.469 645.614 Q116.825 646.331 118.7 648.6 Q120.598 650.868 120.598 654.202 Q120.598 659.317 117.08 662.118 Q113.561 664.919 107.08 664.919 Q104.904 664.919 102.589 664.479 Q100.297 664.063 97.8437 663.206 L97.8437 658.692 Q99.7882 659.827 102.103 660.405 Q104.418 660.984 106.941 660.984 Q111.339 660.984 113.631 659.248 Q115.945 657.512 115.945 654.202 Q115.945 651.146 113.793 649.433 Q111.663 647.697 107.844 647.697 L103.816 647.697 L103.816 643.854 L108.029 643.854 Q111.478 643.854 113.307 642.489 Q115.135 641.1 115.135 638.507 Q115.135 635.845 113.237 634.433 Q111.362 632.998 107.844 632.998 Q105.922 632.998 103.723 633.415 Q101.524 633.831 98.8854 634.711 L98.8854 630.544 Q101.547 629.804 103.862 629.433 Q106.2 629.063 108.26 629.063 Q113.584 629.063 116.686 631.493 Q119.788 633.901 119.788 638.021 Q119.788 640.891 118.145 642.882 Q116.501 644.85 113.469 645.614 Z" fill="#000000" fill-rule="nonzero" fill-opacity="1" /><path clip-path="url(#clip270)" d="M62.9365 233.393 Q59.3254 233.393 57.4967 236.957 Q55.6912 240.499 55.6912 247.629 Q55.6912 254.735 57.4967 258.3 Q59.3254 261.842 62.9365 261.842 Q66.5707 261.842 68.3763 258.3 Q70.205 254.735 70.205 247.629 Q70.205 240.499 68.3763 236.957 Q66.5707 233.393 62.9365 233.393 M62.9365 229.689 Q68.7467 229.689 71.8022 234.295 Q74.8809 238.879 74.8809 247.629 Q74.8809 256.355 71.8022 260.962 Q68.7467 265.545 62.9365 265.545 Q57.1264 265.545 54.0477 260.962 Q50.9921 256.355 50.9921 247.629 Q50.9921 238.879 54.0477 234.295 Q57.1264 229.689 62.9365 229.689 Z" fill="#000000" fill-rule="nonzero" fill-opacity="1" /><path clip-path="url(#clip270)" d="M83.0984 258.994 L87.9827 258.994 L87.9827 264.874 L83.0984 264.874 L83.0984 258.994 Z" fill="#000000" fill-rule="nonzero" fill-opacity="1" /><path clip-path="url(#clip270)" d="M111.015 234.388 L99.2095 252.837 L111.015 252.837 L111.015 234.388 M109.788 230.314 L115.668 230.314 L115.668 252.837 L120.598 252.837 L120.598 256.726 L115.668 256.726 L115.668 264.874 L111.015 264.874 L111.015 256.726 L95.4132 256.726 L95.4132 252.212 L109.788 230.314 Z" fill="#000000" fill-rule="nonzero" fill-opacity="1" /><polyline clip-path="url(#clip272)" style="stroke:#009af9; stroke-linecap:round; stroke-linejoin:round; stroke-width:4; stroke-opacity:1; fill:none" points="218.754,1445.72 239.681,1103.6 260.609,814.321 281.537,594.85 302.465,436.632 323.392,325.681 344.32,249.127 365.248,196.83 386.176,161.329 407.103,137.329 428.031,121.147 448.959,110.255 469.887,102.932 490.814,98.0137 511.742,94.7112 532.67,92.4946 553.598,91.0073 574.525,90.0094 595.453,89.34 616.381,88.891 637.309,88.5898 658.236,88.3878 679.164,88.2523 700.092,88.1614 721.02,88.1004 741.947,88.0595 762.875,88.0321 783.803,88.0137 804.731,88.0014 825.658,87.9931 846.586,87.9876 867.514,87.9839 888.442,87.9814 909.369,87.9797 930.297,87.9786 951.225,87.9778 972.152,87.9773 993.08,87.977 1014.01,87.9767 1034.94,87.9766 1055.86,87.9765 1076.79,87.9764 1097.72,87.9764 1118.65,87.9763 1139.57,87.9763 1160.5,87.9763 1181.43,87.9763 1202.36,87.9763 1223.29,87.9763 1244.21,87.9763 1265.14,87.9763 1286.07,87.9763 1307,87.9763 1327.92,87.9763 1348.85,87.9763 1369.78,87.9763 1390.71,87.9763 1411.64,87.9763 1432.56,87.9763 1453.49,87.9763 1474.42,87.9763 1495.35,87.9763 1516.27,87.9763 1537.2,87.9763 1558.13,87.9763 1579.06,87.9763 1599.98,87.9763 1620.91,87.9763 1641.84,87.9763 1662.77,87.9763 1683.7,87.9763 1704.62,87.9763 1725.55,87.9763 1746.48,87.9763 1767.41,87.9763 1788.33,87.9763 1809.26,87.9763 1830.19,87.9763 1851.12,87.9763 1872.05,87.9763 1892.97,87.9763 1913.9,87.9763 1934.83,87.9763 1955.76,87.9763 1976.68,87.9763 1997.61,87.9763 2018.54,87.9763 2039.47,87.9763 2060.4,87.9763 2081.32,87.9763 2102.25,87.9763 2123.18,87.9763 2144.11,87.9763 2165.03,87.9763 2185.96,87.9763 2206.89,87.9763 2227.82,87.9763 2248.75,87.9763 2269.67,87.9763 2290.6,87.9763 "/>
<path clip-path="url(#clip270)" d="M1729.94 1438.47 L2279.55 1438.47 L2279.55 1334.79 L1729.94 1334.79  Z" fill="#ffffff" fill-rule="evenodd" fill-opacity="1"/>
<polyline clip-path="url(#clip270)" style="stroke:#000000; stroke-linecap:round; stroke-linejoin:round; stroke-width:4; stroke-opacity:1; fill:none" points="1729.94,1438.47 2279.55,1438.47 2279.55,1334.79 1729.94,1334.79 1729.94,1438.47 "/>
<polyline clip-path="url(#clip270)" style="stroke:#009af9; stroke-linecap:round; stroke-linejoin:round; stroke-width:4; stroke-opacity:1; fill:none" points="1754.34,1386.63 1900.75,1386.63 "/>
<path clip-path="url(#clip270)" d="M1944.06 1390.65 Q1944.06 1386.02 1942.14 1383.47 Q1940.24 1380.93 1936.79 1380.93 Q1933.37 1380.93 1931.45 1383.47 Q1929.55 1386.02 1929.55 1390.65 Q1929.55 1395.26 1931.45 1397.8 Q1933.37 1400.35 1936.79 1400.35 Q1940.24 1400.35 1942.14 1397.8 Q1944.06 1395.26 1944.06 1390.65 M1948.32 1400.7 Q1948.32 1407.32 1945.38 1410.53 Q1942.44 1413.78 1936.38 1413.78 Q1934.13 1413.78 1932.14 1413.43 Q1930.15 1413.1 1928.28 1412.41 L1928.28 1408.27 Q1930.15 1409.28 1931.98 1409.77 Q1933.81 1410.26 1935.71 1410.26 Q1939.9 1410.26 1941.98 1408.06 Q1944.06 1405.88 1944.06 1401.46 L1944.06 1399.35 Q1942.74 1401.65 1940.68 1402.78 Q1938.62 1403.91 1935.75 1403.91 Q1930.98 1403.91 1928.07 1400.28 Q1925.15 1396.65 1925.15 1390.65 Q1925.15 1384.63 1928.07 1381 Q1930.98 1377.36 1935.75 1377.36 Q1938.62 1377.36 1940.68 1378.5 Q1942.74 1379.63 1944.06 1381.92 L1944.06 1377.99 L1948.32 1377.99 L1948.32 1400.7 Z" fill="#000000" fill-rule="nonzero" fill-opacity="1" /><path clip-path="url(#clip270)" d="M1957.65 1382.39 L1987.33 1382.39 L1987.33 1386.28 L1957.65 1386.28 L1957.65 1382.39 M1957.65 1391.83 L1987.33 1391.83 L1987.33 1395.77 L1957.65 1395.77 L1957.65 1391.83 Z" fill="#000000" fill-rule="nonzero" fill-opacity="1" /><path clip-path="url(#clip270)" d="M1998.23 1399.98 L2005.87 1399.98 L2005.87 1373.61 L1997.56 1375.28 L1997.56 1371.02 L2005.82 1369.35 L2010.5 1369.35 L2010.5 1399.98 L2018.14 1399.98 L2018.14 1403.91 L1998.23 1403.91 L1998.23 1399.98 Z" fill="#000000" fill-rule="nonzero" fill-opacity="1" /><path clip-path="url(#clip270)" d="M2037.58 1372.43 Q2033.97 1372.43 2032.14 1376 Q2030.34 1379.54 2030.34 1386.67 Q2030.34 1393.78 2032.14 1397.34 Q2033.97 1400.88 2037.58 1400.88 Q2041.21 1400.88 2043.02 1397.34 Q2044.85 1393.78 2044.85 1386.67 Q2044.85 1379.54 2043.02 1376 Q2041.21 1372.43 2037.58 1372.43 M2037.58 1368.73 Q2043.39 1368.73 2046.45 1373.34 Q2049.52 1377.92 2049.52 1386.67 Q2049.52 1395.4 2046.45 1400 Q2043.39 1404.59 2037.58 1404.59 Q2031.77 1404.59 2028.69 1400 Q2025.64 1395.4 2025.64 1386.67 Q2025.64 1377.92 2028.69 1373.34 Q2031.77 1368.73 2037.58 1368.73 Z" fill="#000000" fill-rule="nonzero" fill-opacity="1" /><path clip-path="url(#clip270)" d="M2087.14 1388.71 Q2085.13 1388.71 2083.97 1390.42 Q2082.84 1392.13 2082.84 1395.19 Q2082.84 1398.2 2083.97 1399.93 Q2085.13 1401.65 2087.14 1401.65 Q2089.11 1401.65 2090.24 1399.93 Q2091.4 1398.2 2091.4 1395.19 Q2091.4 1392.16 2090.24 1390.44 Q2089.11 1388.71 2087.14 1388.71 M2087.14 1385.77 Q2090.8 1385.77 2092.95 1388.31 Q2095.1 1390.86 2095.1 1395.19 Q2095.1 1399.52 2092.93 1402.06 Q2090.77 1404.59 2087.14 1404.59 Q2083.44 1404.59 2081.28 1402.06 Q2079.13 1399.52 2079.13 1395.19 Q2079.13 1390.84 2081.28 1388.31 Q2083.46 1385.77 2087.14 1385.77 M2063.25 1371.67 Q2061.26 1371.67 2060.1 1373.41 Q2058.97 1375.12 2058.97 1378.13 Q2058.97 1381.18 2060.1 1382.9 Q2061.24 1384.61 2063.25 1384.61 Q2065.27 1384.61 2066.4 1382.9 Q2067.56 1381.18 2067.56 1378.13 Q2067.56 1375.14 2066.4 1373.41 Q2065.24 1371.67 2063.25 1371.67 M2084.15 1368.73 L2087.86 1368.73 L2066.24 1404.59 L2062.53 1404.59 L2084.15 1368.73 M2063.25 1368.73 Q2066.91 1368.73 2069.09 1371.28 Q2071.26 1373.8 2071.26 1378.13 Q2071.26 1382.5 2069.09 1385.03 Q2066.93 1387.55 2063.25 1387.55 Q2059.57 1387.55 2057.42 1385.03 Q2055.29 1382.48 2055.29 1378.13 Q2055.29 1373.82 2057.44 1371.28 Q2059.59 1368.73 2063.25 1368.73 Z" fill="#000000" fill-rule="nonzero" fill-opacity="1" /><path clip-path="url(#clip270)" d="M2103.27 1398.03 L2108.16 1398.03 L2108.16 1402.02 L2104.36 1409.42 L2101.38 1409.42 L2103.27 1402.02 L2103.27 1398.03 Z" fill="#000000" fill-rule="nonzero" fill-opacity="1" /><path clip-path="url(#clip270)" d="M2138.81 1388.27 L2138.81 1403.91 L2134.55 1403.91 L2134.55 1388.41 Q2134.55 1384.72 2133.11 1382.9 Q2131.68 1381.07 2128.81 1381.07 Q2125.36 1381.07 2123.37 1383.27 Q2121.38 1385.47 2121.38 1389.26 L2121.38 1403.91 L2117.09 1403.91 L2117.09 1377.99 L2121.38 1377.99 L2121.38 1382.02 Q2122.9 1379.68 2124.96 1378.52 Q2127.05 1377.36 2129.76 1377.36 Q2134.22 1377.36 2136.52 1380.14 Q2138.81 1382.9 2138.81 1388.27 Z" fill="#000000" fill-rule="nonzero" fill-opacity="1" /><path clip-path="url(#clip270)" d="M2147.86 1382.39 L2177.53 1382.39 L2177.53 1386.28 L2147.86 1386.28 L2147.86 1382.39 M2147.86 1391.83 L2177.53 1391.83 L2177.53 1395.77 L2147.86 1395.77 L2147.86 1391.83 Z" fill="#000000" fill-rule="nonzero" fill-opacity="1" /><path clip-path="url(#clip270)" d="M2201.79 1385.28 Q2205.15 1386 2207.02 1388.27 Q2208.92 1390.53 2208.92 1393.87 Q2208.92 1398.98 2205.4 1401.78 Q2201.89 1404.59 2195.4 1404.59 Q2193.23 1404.59 2190.91 1404.15 Q2188.62 1403.73 2186.17 1402.87 L2186.17 1398.36 Q2188.11 1399.49 2190.43 1400.07 Q2192.74 1400.65 2195.26 1400.65 Q2199.66 1400.65 2201.95 1398.91 Q2204.27 1397.18 2204.27 1393.87 Q2204.27 1390.81 2202.12 1389.1 Q2199.99 1387.36 2196.17 1387.36 L2192.14 1387.36 L2192.14 1383.52 L2196.35 1383.52 Q2199.8 1383.52 2201.63 1382.16 Q2203.46 1380.77 2203.46 1378.17 Q2203.46 1375.51 2201.56 1374.1 Q2199.69 1372.66 2196.17 1372.66 Q2194.25 1372.66 2192.05 1373.08 Q2189.85 1373.5 2187.21 1374.38 L2187.21 1370.21 Q2189.87 1369.47 2192.19 1369.1 Q2194.52 1368.73 2196.58 1368.73 Q2201.91 1368.73 2205.01 1371.16 Q2208.11 1373.57 2208.11 1377.69 Q2208.11 1380.56 2206.47 1382.55 Q2204.83 1384.52 2201.79 1385.28 Z" fill="#000000" fill-rule="nonzero" fill-opacity="1" /><path clip-path="url(#clip270)" d="M2247.19 1388.71 Q2245.17 1388.71 2244.01 1390.42 Q2242.88 1392.13 2242.88 1395.19 Q2242.88 1398.2 2244.01 1399.93 Q2245.17 1401.65 2247.19 1401.65 Q2249.15 1401.65 2250.29 1399.93 Q2251.45 1398.2 2251.45 1395.19 Q2251.45 1392.16 2250.29 1390.44 Q2249.15 1388.71 2247.19 1388.71 M2247.19 1385.77 Q2250.84 1385.77 2253 1388.31 Q2255.15 1390.86 2255.15 1395.19 Q2255.15 1399.52 2252.97 1402.06 Q2250.82 1404.59 2247.19 1404.59 Q2243.48 1404.59 2241.33 1402.06 Q2239.18 1399.52 2239.18 1395.19 Q2239.18 1390.84 2241.33 1388.31 Q2243.51 1385.77 2247.19 1385.77 M2223.3 1371.67 Q2221.31 1371.67 2220.15 1373.41 Q2219.01 1375.12 2219.01 1378.13 Q2219.01 1381.18 2220.15 1382.9 Q2221.28 1384.61 2223.3 1384.61 Q2225.31 1384.61 2226.45 1382.9 Q2227.6 1381.18 2227.6 1378.13 Q2227.6 1375.14 2226.45 1373.41 Q2225.29 1371.67 2223.3 1371.67 M2244.2 1368.73 L2247.9 1368.73 L2226.28 1404.59 L2222.58 1404.59 L2244.2 1368.73 M2223.3 1368.73 Q2226.95 1368.73 2229.13 1371.28 Q2231.31 1373.8 2231.31 1378.13 Q2231.31 1382.5 2229.13 1385.03 Q2226.98 1387.55 2223.3 1387.55 Q2219.62 1387.55 2217.46 1385.03 Q2215.33 1382.48 2215.33 1378.13 Q2215.33 1373.82 2217.49 1371.28 Q2219.64 1368.73 2223.3 1368.73 Z" fill="#000000" fill-rule="nonzero" fill-opacity="1" /></svg>