<?xml version="1.0" encoding="utf-8"?>
<svg xmlns="http://www.w3.org/2000/svg" xmlns:xlink="http://www.w3.org/1999/xlink" width="600" height="400" viewBox="0 0 2400 1600">
<defs>
  <clipPath id="clip540">
    <rect x="0" y="0" width="2400" height="1600"/>
  </clipPath>
</defs>
<path clip-path="url(#clip540)" d="M0 1600 L2400 1600 L2400 0 L0 0  Z" fill="#ffffff" fill-rule="evenodd" fill-opacity="1"/>
<defs>
  <clipPath id="clip541">
    <rect x="480" y="0" width="1681" height="1600"/>
  </clipPath>
</defs>
<path clip-path="url(#clip540)" d="M138.959 1486.45 L2352.76 1486.45 L2352.76 47.2441 L138.959 47.2441  Z" fill="#ffffff" fill-rule="evenodd" fill-opacity="1"/>
<defs>
  <clipPath id="clip542">
    <rect x="138" y="47" width="2215" height="1440"/>
  </clipPath>
</defs>
<polyline clip-path="url(#clip542)" style="stroke:#000000; stroke-linecap:round; stroke-linejoin:round; stroke-width:2; stroke-opacity:0.1; fill:none" points="180.729,1486.45 180.729,47.2441 "/>
<polyline clip-path="url(#clip542)" style="stroke:#000000; stroke-linecap:round; stroke-linejoin:round; stroke-width:2; stroke-opacity:0.1; fill:none" points="702.851,1486.45 702.851,47.2441 "/>
<polyline clip-path="url(#clip542)" style="stroke:#000000; stroke-linecap:round; stroke-linejoin:round; stroke-width:2; stroke-opacity:0.1; fill:none" points="1224.97,1486.45 1224.97,47.2441 "/>
<polyline clip-path="url(#clip542)" style="stroke:#000000; stroke-linecap:round; stroke-linejoin:round; stroke-width:2; stroke-opacity:0.1; fill:none" points="1747.09,1486.45 1747.09,47.2441 "/>
<polyline clip-path="url(#clip542)" style="stroke:#000000; stroke-linecap:round; stroke-linejoin:round; stroke-width:2; stroke-opacity:0.1; fill:none" points="2269.22,1486.45 2269.22,47.2441 "/>
<polyline clip-path="url(#clip540)" style="stroke:#000000; stroke-linecap:round; stroke-linejoin:round; stroke-width:4; stroke-opacity:1; fill:none" points="138.959,1486.45 2352.76,1486.45 "/>
<polyline clip-path="url(#clip540)" style="stroke:#000000; stroke-linecap:round; stroke-linejoin:round; stroke-width:4; stroke-opacity:1; fill:none" points="180.729,1486.45 180.729,1467.55 "/>
<polyline clip-path="url(#clip540)" style="stroke:#000000; stroke-linecap:round; stroke-linejoin:round; stroke-width:4; stroke-opacity:1; fill:none" points="702.851,1486.45 702.851,1467.55 "/>
<polyline clip-path="url(#clip540)" style="stroke:#000000; stroke-linecap:round; stroke-linejoin:round; stroke-width:4; stroke-opacity:1; fill:none" points="1224.97,1486.45 1224.97,1467.55 "/>
<polyline clip-path="url(#clip540)" style="stroke:#000000; stroke-linecap:round; stroke-linejoin:round; stroke-width:4; stroke-opacity:1; fill:none" points="1747.09,1486.45 1747.09,1467.55 "/>
<polyline clip-path="url(#clip540)" style="stroke:#000000; stroke-linecap:round; stroke-linejoin:round; stroke-width:4; stroke-opacity:1; fill:none" points="2269.22,1486.45 2269.22,1467.55 "/>
<path clip-path="url(#clip540)" d="M180.729 1517.37 Q177.118 1517.37 175.289 1520.93 Q173.484 1524.47 173.484 1531.6 Q173.484 1538.71 175.289 1542.27 Q177.118 1545.82 180.729 1545.82 Q184.363 1545.82 186.169 1542.27 Q187.998 1538.71 187.998 1531.6 Q187.998 1524.47 186.169 1520.93 Q184.363 1517.37 180.729 1517.37 M180.729 1513.66 Q186.539 1513.66 189.595 1518.27 Q192.674 1522.85 192.674 1531.6 Q192.674 1540.33 189.595 1544.94 Q186.539 1549.52 180.729 1549.52 Q174.919 1549.52 171.84 1544.94 Q168.785 1540.33 168.785 1531.6 Q168.785 1522.85 171.84 1518.27 Q174.919 1513.66 180.729 1513.66 Z" fill="#000000" fill-rule="nonzero" fill-opacity="1" /><path clip-path="url(#clip540)" d="M682.122 1544.91 L698.441 1544.91 L698.441 1548.85 L676.497 1548.85 L676.497 1544.91 Q679.159 1542.16 683.742 1537.53 Q688.349 1532.88 689.529 1531.53 Q691.775 1529.01 692.654 1527.27 Q693.557 1525.51 693.557 1523.82 Q693.557 1521.07 691.613 1519.33 Q689.691 1517.6 686.59 1517.6 Q684.39 1517.6 681.937 1518.36 Q679.506 1519.13 676.728 1520.68 L676.728 1515.95 Q679.553 1514.82 682.006 1514.24 Q684.46 1513.66 686.497 1513.66 Q691.867 1513.66 695.062 1516.35 Q698.256 1519.03 698.256 1523.52 Q698.256 1525.65 697.446 1527.57 Q696.659 1529.47 694.552 1532.07 Q693.974 1532.74 690.872 1535.95 Q687.77 1539.15 682.122 1544.91 Z" fill="#000000" fill-rule="nonzero" fill-opacity="1" /><path clip-path="url(#clip540)" d="M708.302 1514.29 L726.659 1514.29 L726.659 1518.22 L712.585 1518.22 L712.585 1526.7 Q713.603 1526.35 714.622 1526.19 Q715.64 1526 716.659 1526 Q722.446 1526 725.825 1529.17 Q729.205 1532.34 729.205 1537.76 Q729.205 1543.34 725.733 1546.44 Q722.261 1549.52 715.941 1549.52 Q713.765 1549.52 711.497 1549.15 Q709.251 1548.78 706.844 1548.04 L706.844 1543.34 Q708.927 1544.47 711.15 1545.03 Q713.372 1545.58 715.849 1545.58 Q719.853 1545.58 722.191 1543.48 Q724.529 1541.37 724.529 1537.76 Q724.529 1534.15 722.191 1532.04 Q719.853 1529.94 715.849 1529.94 Q713.974 1529.94 712.099 1530.35 Q710.247 1530.77 708.302 1531.65 L708.302 1514.29 Z" fill="#000000" fill-rule="nonzero" fill-opacity="1" /><path clip-path="url(#clip540)" d="M1199.67 1514.29 L1218.03 1514.29 L1218.03 1518.22 L1203.95 1518.22 L1203.95 1526.7 Q1204.97 1526.35 1205.99 1526.19 Q1207.01 1526 1208.03 1526 Q1213.82 1526 1217.2 1529.17 Q1220.57 1532.34 1220.57 1537.76 Q1220.57 1543.34 1217.1 1546.44 Q1213.63 1549.52 1207.31 1549.52 Q1205.13 1549.52 1202.87 1549.15 Q1200.62 1548.78 1198.21 1548.04 L1198.21 1543.34 Q1200.3 1544.47 1202.52 1545.03 Q1204.74 1545.58 1207.22 1545.58 Q1211.22 1545.58 1213.56 1543.48 Q1215.9 1541.37 1215.9 1537.76 Q1215.9 1534.15 1213.56 1532.04 Q1211.22 1529.94 1207.22 1529.94 Q1205.34 1529.94 1203.47 1530.35 Q1201.62 1530.77 1199.67 1531.65 L1199.67 1514.29 Z" fill="#000000" fill-rule="nonzero" fill-opacity="1" /><path clip-path="url(#clip540)" d="M1239.79 1517.37 Q1236.18 1517.37 1234.35 1520.93 Q1232.54 1524.47 1232.54 1531.6 Q1232.54 1538.71 1234.35 1542.27 Q1236.18 1545.82 1239.79 1545.82 Q1243.42 1545.82 1245.23 1542.27 Q1247.06 1538.71 1247.06 1531.6 Q1247.06 1524.47 1245.23 1520.93 Q1243.42 1517.37 1239.79 1517.37 M1239.79 1513.66 Q1245.6 1513.66 1248.65 1518.27 Q1251.73 1522.85 1251.73 1531.6 Q1251.73 1540.33 1248.65 1544.94 Q1245.6 1549.52 1239.79 1549.52 Q1233.98 1549.52 1230.9 1544.94 Q1227.84 1540.33 1227.84 1531.6 Q1227.84 1522.85 1230.9 1518.27 Q1233.98 1513.66 1239.79 1513.66 Z" fill="#000000" fill-rule="nonzero" fill-opacity="1" /><path clip-path="url(#clip540)" d="M1720.95 1514.29 L1743.17 1514.29 L1743.17 1516.28 L1730.62 1548.85 L1725.74 1548.85 L1737.55 1518.22 L1720.95 1518.22 L1720.95 1514.29 Z" fill="#000000" fill-rule="nonzero" fill-opacity="1" /><path clip-path="url(#clip540)" d="M1752.34 1514.29 L1770.69 1514.29 L1770.69 1518.22 L1756.62 1518.22 L1756.62 1526.7 Q1757.64 1526.35 1758.66 1526.19 Q1759.68 1526 1760.69 1526 Q1766.48 1526 1769.86 1529.17 Q1773.24 1532.34 1773.24 1537.76 Q1773.24 1543.34 1769.77 1546.44 Q1766.3 1549.52 1759.98 1549.52 Q1757.8 1549.52 1755.53 1549.15 Q1753.29 1548.78 1750.88 1548.04 L1750.88 1543.34 Q1752.96 1544.47 1755.18 1545.03 Q1757.41 1545.58 1759.88 1545.58 Q1763.89 1545.58 1766.23 1543.48 Q1768.56 1541.37 1768.56 1537.76 Q1768.56 1534.15 1766.23 1532.04 Q1763.89 1529.94 1759.88 1529.94 Q1758.01 1529.94 1756.13 1530.35 Q1754.28 1530.77 1752.34 1531.65 L1752.34 1514.29 Z" fill="#000000" fill-rule="nonzero" fill-opacity="1" /><path clip-path="url(#clip540)" d="M2228.82 1544.91 L2236.46 1544.91 L2236.46 1518.55 L2228.15 1520.21 L2228.15 1515.95 L2236.42 1514.29 L2241.09 1514.29 L2241.09 1544.91 L2248.73 1544.91 L2248.73 1548.85 L2228.82 1548.85 L2228.82 1544.91 Z" fill="#000000" fill-rule="nonzero" fill-opacity="1" /><path clip-path="url(#clip540)" d="M2268.17 1517.37 Q2264.56 1517.37 2262.73 1520.93 Q2260.93 1524.47 2260.93 1531.6 Q2260.93 1538.71 2262.73 1542.27 Q2264.56 1545.82 2268.17 1545.82 Q2271.81 1545.82 2273.61 1542.27 Q2275.44 1538.71 2275.44 1531.6 Q2275.44 1524.47 2273.61 1520.93 Q2271.81 1517.37 2268.17 1517.37 M2268.17 1513.66 Q2273.98 1513.66 2277.04 1518.27 Q2280.12 1522.85 2280.12 1531.6 Q2280.12 1540.33 2277.04 1544.94 Q2273.98 1549.52 2268.17 1549.52 Q2262.36 1549.52 2259.29 1544.94 Q2256.23 1540.33 2256.23 1531.6 Q2256.23 1522.85 2259.29 1518.27 Q2262.36 1513.66 2268.17 1513.66 Z" fill="#000000" fill-rule="nonzero" fill-opacity="1" /><path clip-path="url(#clip540)" d="M2298.34 1517.37 Q2294.73 1517.37 2292.9 1520.93 Q2291.09 1524.47 2291.09 1531.6 Q2291.09 1538.71 2292.9 1542.27 Q2294.73 1545.82 2298.34 1545.82 Q2301.97 1545.82 2303.78 1542.27 Q2305.61 1538.71 2305.61 1531.6 Q2305.61 1524.47 2303.78 1520.93 Q2301.97 1517.37 2298.34 1517.37 M2298.34 1513.66 Q2304.15 1513.66 2307.2 1518.27 Q2310.28 1522.85 2310.28 1531.6 Q2310.28 1540.33 2307.2 1544.94 Q2304.15 1549.52 2298.34 1549.52 Q2292.53 1549.52 2289.45 1544.94 Q2286.39 1540.33 2286.39 1531.6 Q2286.39 1522.85 2289.45 1518.27 Q2292.53 1513.66 2298.34 1513.66 Z" fill="#000000" fill-rule="nonzero" fill-opacity="1" /><polyline clip-path="url(#clip542)" style="stroke:#000000; stroke-linecap:round; stroke-linejoin:round; stroke-width:2; stroke-opacity:0.1; fill:none" points="138.959,1308.55 2352.76,1308.55 "/>
<polyline clip-path="url(#clip542)" style="stroke:#000000; stroke-linecap:round; stroke-linejoin:round; stroke-width:2; stroke-opacity:0.1; fill:none" points="138.959,1003.41 2352.76,1003.41 "/>
<polyline clip-path="url(#clip542)" style="stroke:#000000; stroke-linecap:round; stroke-linejoin:round; stroke-width:2; stroke-opacity:0.1; fill:none" points="138.959,698.263 2352.76,698.263 "/>
<polyline clip-path="url(#clip542)" style="stroke:#000000; stroke-linecap:round; stroke-linejoin:round; stroke-width:2; stroke-opacity:0.1; fill:none" points="138.959,393.119 2352.76,393.119 "/>
<polyline clip-path="url(#clip542)" style="stroke:#000000; stroke-linecap:round; stroke-linejoin:round; stroke-width:2; stroke-opacity:0.1; fill:none" points="138.959,87.9763 2352.76,87.9763 "/>
<polyline clip-path="url(#clip540)" style="stroke:#000000; stroke-linecap:round; stroke-linejoin:round; stroke-width:4; stroke-opacity:1; fill:none" points="138.959,1486.45 138.959,47.2441 "/>
<polyline clip-path="url(#clip540)" style="stroke:#000000; stroke-linecap:round; stroke-linejoin:round; stroke-width:4; stroke-opacity:1; fill:none" points="138.959,1308.55 157.857,1308.55 "/>
<polyline clip-path="url(#clip540)" style="stroke:#000000; stroke-linecap:round; stroke-linejoin:round; stroke-width:4; stroke-opacity:1; fill:none" points="138.959,1003.41 157.857,1003.41 "/>
<polyline clip-path="url(#clip540)" style="stroke:#000000; stroke-linecap:round; stroke-linejoin:round; stroke-width:4; stroke-opacity:1; fill:none" points="138.959,698.263 157.857,698.263 "/>
<polyline clip-path="url(#clip540)" style="stroke:#000000; stroke-linecap:round; stroke-linejoin:round; stroke-width:4; stroke-opacity:1; fill:none" points="138.959,393.119 157.857,393.119 "/>
<polyline clip-path="url(#clip540)" style="stroke:#000000; stroke-linecap:round; stroke-linejoin:round; stroke-width:4; stroke-opacity:1; fill:none" points="138.959,87.9763 157.857,87.9763 "/>
<path clip-path="url(#clip540)" d="M86.6401 1321.89 L102.959 1321.89 L102.959 1325.83 L81.0151 1325.83 L81.0151 1321.89 Q83.6771 1319.14 88.2604 1314.51 Q92.8669 1309.86 94.0475 1308.51 Q96.2928 1305.99 97.1724 1304.25 Q98.0752 1302.5 98.0752 1300.81 Q98.0752 1298.05 96.1308 1296.32 Q94.2095 1294.58 91.1077 1294.58 Q88.9086 1294.58 86.4549 1295.34 Q84.0244 1296.11 81.2466 1297.66 L81.2466 1292.94 Q84.0707 1291.8 86.5243 1291.22 Q88.978 1290.64 91.0151 1290.64 Q96.3854 1290.64 99.5798 1293.33 Q102.774 1296.01 102.774 1300.51 Q102.774 1302.63 101.964 1304.56 Q101.177 1306.45 99.0706 1309.05 Q98.4919 1309.72 95.39 1312.94 Q92.2882 1316.13 86.6401 1321.89 Z" fill="#000000" fill-rule="nonzero" fill-opacity="1" /><path clip-path="url(#clip540)" d="M93.3762 990.2 L81.5707 1008.65 L93.3762 1008.65 L93.3762 990.2 M92.1493 986.126 L98.0289 986.126 L98.0289 1008.65 L102.959 1008.65 L102.959 1012.54 L98.0289 1012.54 L98.0289 1020.69 L93.3762 1020.69 L93.3762 1012.54 L77.7744 1012.54 L77.7744 1008.02 L92.1493 986.126 Z" fill="#000000" fill-rule="nonzero" fill-opacity="1" /><path clip-path="url(#clip540)" d="M91.4317 696.399 Q88.2836 696.399 86.4318 698.552 Q84.6031 700.705 84.6031 704.455 Q84.6031 708.182 86.4318 710.357 Q88.2836 712.51 91.4317 712.51 Q94.5799 712.51 96.4085 710.357 Q98.2604 708.182 98.2604 704.455 Q98.2604 700.705 96.4085 698.552 Q94.5799 696.399 91.4317 696.399 M100.714 681.746 L100.714 686.006 Q98.9548 685.172 97.1493 684.733 Q95.3669 684.293 93.6076 684.293 Q88.978 684.293 86.5243 687.418 Q84.0938 690.543 83.7466 696.862 Q85.1123 694.848 87.1725 693.783 Q89.2327 692.696 91.7095 692.696 Q96.9178 692.696 99.927 695.867 Q102.959 699.015 102.959 704.455 Q102.959 709.779 99.8113 712.996 Q96.6632 716.214 91.4317 716.214 Q85.4364 716.214 82.2651 711.631 Q79.0938 707.024 79.0938 698.297 Q79.0938 690.103 82.9827 685.242 Q86.8716 680.358 93.4225 680.358 Q95.1817 680.358 96.9641 680.705 Q98.7696 681.052 100.714 681.746 Z" fill="#000000" fill-rule="nonzero" fill-opacity="1" /><path clip-path="url(#clip540)" d="M91.1077 393.987 Q87.7743 393.987 85.8531 395.77 Q83.9549 397.552 83.9549 400.677 Q83.9549 403.802 85.8531 405.585 Q87.7743 407.367 91.1077 407.367 Q94.441 407.367 96.3623 405.585 Q98.2835 403.779 98.2835 400.677 Q98.2835 397.552 96.3623 395.77 Q94.4641 393.987 91.1077 393.987 M86.4318 391.997 Q83.4225 391.256 81.7327 389.196 Q80.066 387.136 80.066 384.173 Q80.066 380.029 83.0058 377.622 Q85.9688 375.214 91.1077 375.214 Q96.2697 375.214 99.2095 377.622 Q102.149 380.029 102.149 384.173 Q102.149 387.136 100.459 389.196 Q98.7928 391.256 95.8067 391.997 Q99.1863 392.784 101.061 395.075 Q102.959 397.367 102.959 400.677 Q102.959 405.7 99.8808 408.386 Q96.8252 411.071 91.1077 411.071 Q85.3901 411.071 82.3114 408.386 Q79.2559 405.7 79.2559 400.677 Q79.2559 397.367 81.154 395.075 Q83.0521 392.784 86.4318 391.997 M84.7188 384.613 Q84.7188 387.298 86.3855 388.802 Q88.0753 390.307 91.1077 390.307 Q94.1169 390.307 95.8067 388.802 Q97.5197 387.298 97.5197 384.613 Q97.5197 381.927 95.8067 380.423 Q94.1169 378.918 91.1077 378.918 Q88.0753 378.918 86.3855 380.423 Q84.7188 381.927 84.7188 384.613 Z" fill="#000000" fill-rule="nonzero" fill-opacity="1" /><path clip-path="url(#clip540)" d="M51.6634 101.321 L59.3023 101.321 L59.3023 74.9555 L50.9921 76.6222 L50.9921 72.3629 L59.256 70.6963 L63.9319 70.6963 L63.9319 101.321 L71.5707 101.321 L71.5707 105.256 L51.6634 105.256 L51.6634 101.321 Z" fill="#000000" fill-rule="nonzero" fill-opacity="1" /><path clip-path="url(#clip540)" d="M91.0151 73.775 Q87.404 73.775 85.5753 77.3398 Q83.7697 80.8814 83.7697 88.011 Q83.7697 95.1174 85.5753 98.6822 Q87.404 102.224 91.0151 102.224 Q94.6493 102.224 96.4548 98.6822 Q98.2835 95.1174 98.2835 88.011 Q98.2835 80.8814 96.4548 77.3398 Q94.6493 73.775 91.0151 73.775 M91.0151 70.0713 Q96.8252 70.0713 99.8808 74.6777 Q102.959 79.261 102.959 88.011 Q102.959 96.7378 99.8808 101.344 Q96.8252 105.928 91.0151 105.928 Q85.2049 105.928 82.1262 101.344 Q79.0707 96.7378 79.0707 88.011 Q79.0707 79.261 82.1262 74.6777 Q85.2049 70.0713 91.0151 70.0713 Z" fill="#000000" fill-rule="nonzero" fill-opacity="1" /><polyline clip-path="url(#clip542)" style="stroke:#009af9; stroke-linecap:round; stroke-linejoin:round; stroke-width:4; stroke-opacity:1; fill:none" points="201.614,1445.71 222.499,1445.71 243.384,1445.71 264.269,1445.71 285.154,1445.71 306.038,1445.71 326.923,1445.71 347.808,1445.71 368.693,1445.71 389.578,1445.71 410.463,1445.71 431.348,1445.71 452.233,1445.71 473.117,1445.71 494.002,1445.71 514.887,1445.71 535.772,1445.71 556.657,1445.71 577.542,1445.71 598.427,1445.71 619.312,1445.71 640.196,1445.71 661.081,1445.71 681.966,1445.71 702.851,1445.71 723.736,1445.71 744.621,1445.71 765.506,1445.71 786.39,1445.71 807.275,1445.71 828.16,1445.71 849.045,1445.71 869.93,1445.71 890.815,1445.71 911.7,1445.71 932.585,1445.71 953.469,1445.71 974.354,1445.71 995.239,1445.71 1016.12,1445.71 1037.01,1445.71 1057.89,1445.71 1078.78,1445.71 1099.66,1445.71 1120.55,1445.71 1141.43,1445.71 1162.32,1445.71 1183.2,1445.71 1204.09,1445.71 1224.97,1445.71 1245.86,1445.71 1266.74,1445.71 1287.63,1445.71 1308.51,1445.71 1329.4,1445.71 1350.28,1445.71 1371.17,1445.71 1392.05,1445.71 1412.94,1445.71 1433.82,1445.71 1454.71,1445.71 1475.59,1445.71 1496.48,1445.71 1517.36,1445.71 1538.25,1445.71 1559.13,1445.71 1580.02,1445.71 1600.9,1445.71 1621.79,1445.71 1642.67,1445.71 1663.56,1445.71 1684.44,1445.71 1705.32,1445.71 1726.21,1445.71 1747.09,1445.71 1767.98,1445.71 1788.86,1445.71 1809.75,1445.71 1830.63,1445.71 1851.52,1445.71 1872.4,1445.71 1893.29,1445.71 1914.17,1445.71 1935.06,1445.71 1955.94,1445.71 1976.83,1445.71 1997.71,1445.71 2018.6,1445.71 2039.48,1445.71 2060.37,1445.71 2081.25,1445.71 2102.14,1445.71 2123.02,1445.72 2143.91,1445.72 2164.79,1445.72 2185.68,1445.72 2206.56,1445.72 2227.45,1445.72 2248.33,1445.72 2269.22,1445.72 2290.1,1445.72 "/>
<polyline clip-path="url(#clip542)" style="stroke:#e26f46; stroke-linecap:round; stroke-linejoin:round; stroke-width:4; stroke-opacity:1; fill:none" points="201.614,87.9763 222.499,87.9798 243.384,87.9832 264.269,87.9866 285.154,87.99 306.038,87.9933 326.923,87.9966 347.808,87.9998 368.693,88.0029 389.578,88.006 410.463,88.0091 431.348,88.0121 452.233,88.015 473.117,88.0179 494.002,88.0207 514.887,88.0235 535.772,88.0262 556.657,88.0289 577.542,88.0315 598.427,88.034 619.312,88.0365 640.196,88.0389 661.081,88.0413 681.966,88.0436 702.851,88.0459 723.736,88.0481 744.621,88.0502 765.506,88.0523 786.39,88.0543 807.275,88.0562 828.16,88.0581 849.045,88.0599 869.93,88.0616 890.815,88.0633 911.7,88.0649 932.585,88.0665 953.469,88.0679 974.354,88.0693 995.239,88.0707 1016.12,88.0719 1037.01,88.0731 1057.89,88.0743 1078.78,88.0753 1099.66,88.0763 1120.55,88.0772 1141.43,88.078 1162.32,88.0788 1183.2,88.0794 1204.09,88.08 1224.97,88.0805 1245.86,88.081 1266.74,88.0813 1287.63,88.0816 1308.51,88.0818 1329.4,88.0819 1350.28,88.082 1371.17,88.0819 1392.05,88.0818 1412.94,88.0816 1433.82,88.0813 1454.71,88.0809 1475.59,88.0804 1496.48,88.0798 1517.36,88.0792 1538.25,88.0784 1559.13,88.0776 1580.02,88.0767 1600.9,88.0756 1621.79,88.0745 1642.67,88.0733 1663.56,88.072 1684.44,88.0706 1705.32,88.0691 1726.21,88.0674 1747.09,88.0657 1767.98,88.0639 1788.86,88.062 1809.75,88.06 1830.63,88.0579 1851.52,88.0557 1872.4,88.0533 1893.29,88.0509 1914.17,88.0483 1935.06,88.0457 1955.94,88.0429 1976.83,88.04 1997.71,88.0371 2018.6,88.0339 2039.48,88.0307 2060.37,88.0274 2081.25,88.0239 2102.14,88.0204 2123.02,88.0167 2143.91,88.0128 2164.79,88.0089 2185.68,88.0048 2206.56,88.0007 2227.45,87.9963 2248.33,87.9919 2269.22,87.9873 2290.1,87.9826 "/>
<path clip-path="url(#clip540)" d="M1983.76 250.738 L2278.96 250.738 L2278.96 95.2176 L1983.76 95.2176  Z" fill="#ffffff" fill-rule="evenodd" fill-opacity="1"/>
<polyline clip-path="url(#clip540)" style="stroke:#000000; stroke-linecap:round; stroke-linejoin:round; stroke-width:4; stroke-opacity:1; fill:none" points="1983.76,250.738 2278.96,250.738 2278.96,95.2176 1983.76,95.2176 1983.76,250.738 "/>
<polyline clip-path="url(#clip540)" style="stroke:#009af9; stroke-linecap:round; stroke-linejoin:round; stroke-width:4; stroke-opacity:1; fill:none" points="2008.36,147.058 2155.95,147.058 "/>
<path clip-path="url(#clip540)" d="M2201.06 139.407 L2201.06 143.389 Q2199.25 142.393 2197.42 141.907 Q2195.62 141.398 2193.76 141.398 Q2189.62 141.398 2187.33 144.037 Q2185.04 146.652 2185.04 151.398 Q2185.04 156.143 2187.33 158.782 Q2189.62 161.398 2193.76 161.398 Q2195.62 161.398 2197.42 160.912 Q2199.25 160.402 2201.06 159.407 L2201.06 163.342 Q2199.27 164.176 2197.35 164.592 Q2195.45 165.009 2193.3 165.009 Q2187.44 165.009 2183.99 161.328 Q2180.55 157.648 2180.55 151.398 Q2180.55 145.055 2184.02 141.421 Q2187.51 137.787 2193.58 137.787 Q2195.55 137.787 2197.42 138.203 Q2199.3 138.597 2201.06 139.407 Z" fill="#000000" fill-rule="nonzero" fill-opacity="1" /><path clip-path="url(#clip540)" d="M2212.68 131.051 L2212.68 138.412 L2221.45 138.412 L2221.45 141.722 L2212.68 141.722 L2212.68 155.796 Q2212.68 158.967 2213.53 159.87 Q2214.41 160.773 2217.07 160.773 L2221.45 160.773 L2221.45 164.338 L2217.07 164.338 Q2212.14 164.338 2210.27 162.509 Q2208.39 160.657 2208.39 155.796 L2208.39 141.722 L2205.27 141.722 L2205.27 138.412 L2208.39 138.412 L2208.39 131.051 L2212.68 131.051 Z" fill="#000000" fill-rule="nonzero" fill-opacity="1" /><polyline clip-path="url(#clip540)" style="stroke:#e26f46; stroke-linecap:round; stroke-linejoin:round; stroke-width:4; stroke-opacity:1; fill:none" points="2008.36,198.898 2155.95,198.898 "/>
<path clip-path="url(#clip540)" d="M2193.95 203.145 Q2188.79 203.145 2186.8 204.326 Q2184.81 205.506 2184.81 208.354 Q2184.81 210.622 2186.29 211.965 Q2187.79 213.284 2190.36 213.284 Q2193.9 213.284 2196.03 210.784 Q2198.18 208.261 2198.18 204.094 L2198.18 203.145 L2193.95 203.145 M2202.44 201.386 L2202.44 216.178 L2198.18 216.178 L2198.18 212.242 Q2196.73 214.603 2194.55 215.738 Q2192.37 216.849 2189.23 216.849 Q2185.24 216.849 2182.88 214.627 Q2180.55 212.381 2180.55 208.631 Q2180.55 204.256 2183.46 202.034 Q2186.4 199.812 2192.21 199.812 L2198.18 199.812 L2198.18 199.395 Q2198.18 196.455 2196.24 194.858 Q2194.32 193.238 2190.82 193.238 Q2188.6 193.238 2186.49 193.77 Q2184.39 194.303 2182.44 195.367 L2182.44 191.432 Q2184.78 190.53 2186.98 190.09 Q2189.18 189.627 2191.26 189.627 Q2196.89 189.627 2199.67 192.543 Q2202.44 195.46 2202.44 201.386 Z" fill="#000000" fill-rule="nonzero" fill-opacity="1" /><path clip-path="url(#clip540)" d="M2212.63 212.242 L2220.27 212.242 L2220.27 185.877 L2211.96 187.543 L2211.96 183.284 L2220.22 181.618 L2224.9 181.618 L2224.9 212.242 L2232.54 212.242 L2232.54 216.178 L2212.63 216.178 L2212.63 212.242 Z" fill="#000000" fill-rule="nonzero" fill-opacity="1" /><path clip-path="url(#clip540)" d="M2245.59 182.891 L2245.59 190.252 L2254.36 190.252 L2254.36 193.562 L2245.59 193.562 L2245.59 207.636 Q2245.59 210.807 2246.45 211.71 Q2247.33 212.613 2249.99 212.613 L2254.36 212.613 L2254.36 216.178 L2249.99 216.178 Q2245.06 216.178 2243.18 214.349 Q2241.31 212.497 2241.31 207.636 L2241.31 193.562 L2238.18 193.562 L2238.18 190.252 L2241.31 190.252 L2241.31 182.891 L2245.59 182.891 Z" fill="#000000" fill-rule="nonzero" fill-opacity="1" /></svg>