<?xml version="1.0" encoding="utf-8"?>
<svg xmlns="http://www.w3.org/2000/svg" xmlns:xlink="http://www.w3.org/1999/xlink" width="600" height="400" viewBox="0 0 2400 1600">
<defs>
  <clipPath id="clip090">
    <rect x="0" y="0" width="2400" height="1600"/>
  </clipPath>
</defs>
<path clip-path="url(#clip090)" d="M0 1600 L2400 1600 L2400 0 L0 0  Z" fill="#ffffff" fill-rule="evenodd" fill-opacity="1"/>
<defs>
  <clipPath id="clip091">
    <rect x="480" y="0" width="1681" height="1600"/>
  </clipPath>
</defs>
<path clip-path="url(#clip090)" d="M156.112 1486.45 L2352.76 1486.45 L2352.76 47.2441 L156.112 47.2441  Z" fill="#ffffff" fill-rule="evenodd" fill-opacity="1"/>
<defs>
  <clipPath id="clip092">
    <rect x="156" y="47" width="2198" height="1440"/>
  </clipPath>
</defs>
<polyline clip-path="url(#clip092)" style="stroke:#000000; stroke-linecap:round; stroke-linejoin:round; stroke-width:2; stroke-opacity:0.1; fill:none" points="207.92,1486.45 207.92,47.2441 "/>
<polyline clip-path="url(#clip092)" style="stroke:#000000; stroke-linecap:round; stroke-linejoin:round; stroke-width:2; stroke-opacity:0.1; fill:none" points="725.996,1486.45 725.996,47.2441 "/>
<polyline clip-path="url(#clip092)" style="stroke:#000000; stroke-linecap:round; stroke-linejoin:round; stroke-width:2; stroke-opacity:0.1; fill:none" points="1244.07,1486.45 1244.07,47.2441 "/>
<polyline clip-path="url(#clip092)" style="stroke:#000000; stroke-linecap:round; stroke-linejoin:round; stroke-width:2; stroke-opacity:0.1; fill:none" points="1762.15,1486.45 1762.15,47.2441 "/>
<polyline clip-path="url(#clip092)" style="stroke:#000000; stroke-linecap:round; stroke-linejoin:round; stroke-width:2; stroke-opacity:0.1; fill:none" points="2280.23,1486.45 2280.23,47.2441 "/>
<polyline clip-path="url(#clip090)" style="stroke:#000000; stroke-linecap:round; stroke-linejoin:round; stroke-width:4; stroke-opacity:1; fill:none" points="156.112,1486.45 2352.76,1486.45 "/>
<polyline clip-path="url(#clip090)" style="stroke:#000000; stroke-linecap:round; stroke-linejoin:round; stroke-width:4; stroke-opacity:1; fill:none" points="207.92,1486.45 207.92,1467.55 "/>
<polyline clip-path="url(#clip090)" style="stroke:#000000; stroke-linecap:round; stroke-linejoin:round; stroke-width:4; stroke-opacity:1; fill:none" points="725.996,1486.45 725.996,1467.55 "/>
<polyline clip-path="url(#clip090)" style="stroke:#000000; stroke-linecap:round; stroke-linejoin:round; stroke-width:4; stroke-opacity:1; fill:none" points="1244.07,1486.45 1244.07,1467.55 "/>
<polyline clip-path="url(#clip090)" style="stroke:#000000; stroke-linecap:round; stroke-linejoin:round; stroke-width:4; stroke-opacity:1; fill:none" points="1762.15,1486.45 1762.15,1467.55 "/>
<polyline clip-path="url(#clip090)" style="stroke:#000000; stroke-linecap:round; stroke-linejoin:round; stroke-width:4; stroke-opacity:1; fill:none" points="2280.23,1486.45 2280.23,1467.55 "/>
<path clip-path="url(#clip090)" d="M207.92 1517.37 Q204.309 1517.37 202.48 1520.93 Q200.674 1524.47 200.674 1531.6 Q200.674 1538.71 202.48 1542.27 Q204.309 1545.82 207.92 1545.82 Q211.554 1545.82 213.36 1542.27 Q215.188 1538.71 215.188 1531.6 Q215.188 1524.47 213.36 1520.93 Q211.554 1517.37 207.92 1517.37 M207.92 1513.66 Q213.73 1513.66 216.785 1518.27 Q219.864 1522.85 219.864 1531.6 Q219.864 1540.33 216.785 1544.94 Q213.73 1549.52 207.92 1549.52 Q202.11 1549.52 199.031 1544.94 Q195.975 1540.33 195.975 1531.6 Q195.975 1522.85 199.031 1518.27 Q202.11 1513.66 207.92 1513.66 Z" fill="#000000" fill-rule="nonzero" fill-opacity="1" /><path clip-path="url(#clip090)" d="M700.695 1514.29 L719.052 1514.29 L719.052 1518.22 L704.978 1518.22 L704.978 1526.7 Q705.996 1526.35 707.015 1526.19 Q708.033 1526 709.052 1526 Q714.839 1526 718.218 1529.17 Q721.598 1532.34 721.598 1537.76 Q721.598 1543.34 718.126 1546.44 Q714.654 1549.52 708.334 1549.52 Q706.158 1549.52 703.89 1549.15 Q701.644 1548.78 699.237 1548.04 L699.237 1543.34 Q701.32 1544.47 703.543 1545.03 Q705.765 1545.58 708.242 1545.58 Q712.246 1545.58 714.584 1543.48 Q716.922 1541.37 716.922 1537.76 Q716.922 1534.15 714.584 1532.04 Q712.246 1529.94 708.242 1529.94 Q706.367 1529.94 704.492 1530.35 Q702.64 1530.77 700.695 1531.65 L700.695 1514.29 Z" fill="#000000" fill-rule="nonzero" fill-opacity="1" /><path clip-path="url(#clip090)" d="M740.811 1517.37 Q737.2 1517.37 735.371 1520.93 Q733.566 1524.47 733.566 1531.6 Q733.566 1538.71 735.371 1542.27 Q737.2 1545.82 740.811 1545.82 Q744.445 1545.82 746.251 1542.27 Q748.079 1538.71 748.079 1531.6 Q748.079 1524.47 746.251 1520.93 Q744.445 1517.37 740.811 1517.37 M740.811 1513.66 Q746.621 1513.66 749.677 1518.27 Q752.755 1522.85 752.755 1531.6 Q752.755 1540.33 749.677 1544.94 Q746.621 1549.52 740.811 1549.52 Q735.001 1549.52 731.922 1544.94 Q728.866 1540.33 728.866 1531.6 Q728.866 1522.85 731.922 1518.27 Q735.001 1513.66 740.811 1513.66 Z" fill="#000000" fill-rule="nonzero" fill-opacity="1" /><path clip-path="url(#clip090)" d="M1203.68 1544.91 L1211.32 1544.91 L1211.32 1518.55 L1203.01 1520.21 L1203.01 1515.95 L1211.27 1514.29 L1215.95 1514.29 L1215.95 1544.91 L1223.59 1544.91 L1223.59 1548.85 L1203.68 1548.85 L1203.68 1544.91 Z" fill="#000000" fill-rule="nonzero" fill-opacity="1" /><path clip-path="url(#clip090)" d="M1243.03 1517.37 Q1239.42 1517.37 1237.59 1520.93 Q1235.79 1524.47 1235.79 1531.6 Q1235.79 1538.71 1237.59 1542.27 Q1239.42 1545.82 1243.03 1545.82 Q1246.67 1545.82 1248.47 1542.27 Q1250.3 1538.71 1250.3 1531.6 Q1250.3 1524.47 1248.47 1520.93 Q1246.67 1517.37 1243.03 1517.37 M1243.03 1513.66 Q1248.84 1513.66 1251.9 1518.27 Q1254.98 1522.85 1254.98 1531.6 Q1254.98 1540.33 1251.9 1544.94 Q1248.84 1549.52 1243.03 1549.52 Q1237.22 1549.52 1234.14 1544.94 Q1231.09 1540.33 1231.09 1531.6 Q1231.09 1522.85 1234.14 1518.27 Q1237.22 1513.66 1243.03 1513.66 Z" fill="#000000" fill-rule="nonzero" fill-opacity="1" /><path clip-path="url(#clip090)" d="M1273.19 1517.37 Q1269.58 1517.37 1267.75 1520.93 Q1265.95 1524.47 1265.95 1531.6 Q1265.95 1538.71 1267.75 1542.27 Q1269.58 1545.82 1273.19 1545.82 Q1276.83 1545.82 1278.63 1542.27 Q1280.46 1538.71 1280.46 1531.6 Q1280.46 1524.47 1278.63 1520.93 Q1276.83 1517.37 1273.19 1517.37 M1273.19 1513.66 Q1279 1513.66 1282.06 1518.27 Q1285.14 1522.85 1285.14 1531.6 Q1285.14 1540.33 1282.06 1544.94 Q1279 1549.52 1273.19 1549.52 Q1267.38 1549.52 1264.3 1544.94 Q1261.25 1540.33 1261.25 1531.6 Q1261.25 1522.85 1264.3 1518.27 Q1267.38 1513.66 1273.19 1513.66 Z" fill="#000000" fill-rule="nonzero" fill-opacity="1" /><path clip-path="url(#clip090)" d="M1721.76 1544.91 L1729.39 1544.91 L1729.39 1518.55 L1721.08 1520.21 L1721.08 1515.95 L1729.35 1514.29 L1734.02 1514.29 L1734.02 1544.91 L1741.66 1544.91 L1741.66 1548.85 L1721.76 1548.85 L1721.76 1544.91 Z" fill="#000000" fill-rule="nonzero" fill-opacity="1" /><path clip-path="url(#clip090)" d="M1751.15 1514.29 L1769.51 1514.29 L1769.51 1518.22 L1755.44 1518.22 L1755.44 1526.7 Q1756.45 1526.35 1757.47 1526.19 Q1758.49 1526 1759.51 1526 Q1765.3 1526 1768.68 1529.17 Q1772.06 1532.34 1772.06 1537.76 Q1772.06 1543.34 1768.58 1546.44 Q1765.11 1549.52 1758.79 1549.52 Q1756.62 1549.52 1754.35 1549.15 Q1752.1 1548.78 1749.7 1548.04 L1749.7 1543.34 Q1751.78 1544.47 1754 1545.03 Q1756.22 1545.58 1758.7 1545.58 Q1762.7 1545.58 1765.04 1543.48 Q1767.38 1541.37 1767.38 1537.76 Q1767.38 1534.15 1765.04 1532.04 Q1762.7 1529.94 1758.7 1529.94 Q1756.82 1529.94 1754.95 1530.35 Q1753.1 1530.77 1751.15 1531.65 L1751.15 1514.29 Z" fill="#000000" fill-rule="nonzero" fill-opacity="1" /><path clip-path="url(#clip090)" d="M1791.27 1517.37 Q1787.66 1517.37 1785.83 1520.93 Q1784.02 1524.47 1784.02 1531.6 Q1784.02 1538.71 1785.83 1542.27 Q1787.66 1545.82 1791.27 1545.82 Q1794.9 1545.82 1796.71 1542.27 Q1798.54 1538.71 1798.54 1531.6 Q1798.54 1524.47 1796.71 1520.93 Q1794.9 1517.37 1791.27 1517.37 M1791.27 1513.66 Q1797.08 1513.66 1800.13 1518.27 Q1803.21 1522.85 1803.21 1531.6 Q1803.21 1540.33 1800.13 1544.94 Q1797.08 1549.52 1791.27 1549.52 Q1785.46 1549.52 1782.38 1544.94 Q1779.32 1540.33 1779.32 1531.6 Q1779.32 1522.85 1782.38 1518.27 Q1785.46 1513.66 1791.27 1513.66 Z" fill="#000000" fill-rule="nonzero" fill-opacity="1" /><path clip-path="url(#clip090)" d="M2243.92 1544.91 L2260.24 1544.91 L2260.24 1548.85 L2238.29 1548.85 L2238.29 1544.91 Q2240.95 1542.16 2245.54 1537.53 Q2250.14 1532.88 2251.32 1531.53 Q2253.57 1529.01 2254.45 1527.27 Q2255.35 1525.51 2255.35 1523.82 Q2255.35 1521.07 2253.41 1519.33 Q2251.49 1517.6 2248.39 1517.6 Q2246.19 1517.6 2243.73 1518.36 Q2241.3 1519.13 2238.52 1520.68 L2238.52 1515.95 Q2241.35 1514.82 2243.8 1514.24 Q2246.26 1513.66 2248.29 1513.66 Q2253.66 1513.66 2256.86 1516.35 Q2260.05 1519.03 2260.05 1523.52 Q2260.05 1525.65 2259.24 1527.57 Q2258.45 1529.47 2256.35 1532.07 Q2255.77 1532.74 2252.67 1535.95 Q2249.57 1539.15 2243.92 1544.91 Z" fill="#000000" fill-rule="nonzero" fill-opacity="1" /><path clip-path="url(#clip090)" d="M2280.05 1517.37 Q2276.44 1517.37 2274.61 1520.93 Q2272.81 1524.47 2272.81 1531.6 Q2272.81 1538.71 2274.61 1542.27 Q2276.44 1545.82 2280.05 1545.82 Q2283.69 1545.82 2285.49 1542.27 Q2287.32 1538.71 2287.32 1531.6 Q2287.32 1524.47 2285.49 1520.93 Q2283.69 1517.37 2280.05 1517.37 M2280.05 1513.66 Q2285.86 1513.66 2288.92 1518.27 Q2292 1522.85 2292 1531.6 Q2292 1540.33 2288.92 1544.94 Q2285.86 1549.52 2280.05 1549.52 Q2274.24 1549.52 2271.16 1544.94 Q2268.11 1540.33 2268.11 1531.6 Q2268.11 1522.85 2271.16 1518.27 Q2274.24 1513.66 2280.05 1513.66 Z" fill="#000000" fill-rule="nonzero" fill-opacity="1" /><path clip-path="url(#clip090)" d="M2310.21 1517.37 Q2306.6 1517.37 2304.77 1520.93 Q2302.97 1524.47 2302.97 1531.6 Q2302.97 1538.71 2304.77 1542.27 Q2306.6 1545.82 2310.21 1545.82 Q2313.85 1545.82 2315.65 1542.27 Q2317.48 1538.71 2317.48 1531.6 Q2317.48 1524.47 2315.65 1520.93 Q2313.85 1517.37 2310.21 1517.37 M2310.21 1513.66 Q2316.02 1513.66 2319.08 1518.27 Q2322.16 1522.85 2322.16 1531.6 Q2322.16 1540.33 2319.08 1544.94 Q2316.02 1549.52 2310.21 1549.52 Q2304.4 1549.52 2301.32 1544.94 Q2298.27 1540.33 2298.27 1531.6 Q2298.27 1522.85 2301.32 1518.27 Q2304.4 1513.66 2310.21 1513.66 Z" fill="#000000" fill-rule="nonzero" fill-opacity="1" /><polyline clip-path="url(#clip092)" style="stroke:#000000; stroke-linecap:round; stroke-linejoin:round; stroke-width:2; stroke-opacity:0.1; fill:none" points="156.112,1453.8 2352.76,1453.8 "/>
<polyline clip-path="url(#clip092)" style="stroke:#000000; stroke-linecap:round; stroke-linejoin:round; stroke-width:2; stroke-opacity:0.1; fill:none" points="156.112,1184.1 2352.76,1184.1 "/>
<polyline clip-path="url(#clip092)" style="stroke:#000000; stroke-linecap:round; stroke-linejoin:round; stroke-width:2; stroke-opacity:0.1; fill:none" points="156.112,914.388 2352.76,914.388 "/>
<polyline clip-path="url(#clip092)" style="stroke:#000000; stroke-linecap:round; stroke-linejoin:round; stroke-width:2; stroke-opacity:0.1; fill:none" points="156.112,644.682 2352.76,644.682 "/>
<polyline clip-path="url(#clip092)" style="stroke:#000000; stroke-linecap:round; stroke-linejoin:round; stroke-width:2; stroke-opacity:0.1; fill:none" points="156.112,374.975 2352.76,374.975 "/>
<polyline clip-path="url(#clip092)" style="stroke:#000000; stroke-linecap:round; stroke-linejoin:round; stroke-width:2; stroke-opacity:0.1; fill:none" points="156.112,105.268 2352.76,105.268 "/>
<polyline clip-path="url(#clip090)" style="stroke:#000000; stroke-linecap:round; stroke-linejoin:round; stroke-width:4; stroke-opacity:1; fill:none" points="156.112,1486.45 156.112,47.2441 "/>
<polyline clip-path="url(#clip090)" style="stroke:#000000; stroke-linecap:round; stroke-linejoin:round; stroke-width:4; stroke-opacity:1; fill:none" points="156.112,1453.8 175.01,1453.8 "/>
<polyline clip-path="url(#clip090)" style="stroke:#000000; stroke-linecap:round; stroke-linejoin:round; stroke-width:4; stroke-opacity:1; fill:none" points="156.112,1184.1 175.01,1184.1 "/>
<polyline clip-path="url(#clip090)" style="stroke:#000000; stroke-linecap:round; stroke-linejoin:round; stroke-width:4; stroke-opacity:1; fill:none" points="156.112,914.388 175.01,914.388 "/>
<polyline clip-path="url(#clip090)" style="stroke:#000000; stroke-linecap:round; stroke-linejoin:round; stroke-width:4; stroke-opacity:1; fill:none" points="156.112,644.682 175.01,644.682 "/>
<polyline clip-path="url(#clip090)" style="stroke:#000000; stroke-linecap:round; stroke-linejoin:round; stroke-width:4; stroke-opacity:1; fill:none" points="156.112,374.975 175.01,374.975 "/>
<polyline clip-path="url(#clip090)" style="stroke:#000000; stroke-linecap:round; stroke-linejoin:round; stroke-width:4; stroke-opacity:1; fill:none" points="156.112,105.268 175.01,105.268 "/>
<path clip-path="url(#clip090)" d="M62.9365 1439.6 Q59.3254 1439.6 57.4967 1443.17 Q55.6912 1446.71 55.6912 1453.84 Q55.6912 1460.94 57.4967 1464.51 Q59.3254 1468.05 62.9365 1468.05 Q66.5707 1468.05 68.3763 1464.51 Q70.205 1460.94 70.205 1453.84 Q70.205 1446.71 68.3763 1443.17 Q66.5707 1439.6 62.9365 1439.6 M62.9365 1435.9 Q68.7467 1435.9 71.8022 1440.5 Q74.8809 1445.09 74.8809 1453.84 Q74.8809 1462.56 71.8022 1467.17 Q68.7467 1471.75 62.9365 1471.75 Q57.1264 1471.75 54.0477 1467.17 Q50.9921 1462.56 50.9921 1453.84 Q50.9921 1445.09 54.0477 1440.5 Q57.1264 1435.9 62.9365 1435.9 Z" fill="#000000" fill-rule="nonzero" fill-opacity="1" /><path clip-path="url(#clip090)" d="M83.0984 1465.2 L87.9827 1465.2 L87.9827 1471.08 L83.0984 1471.08 L83.0984 1465.2 Z" fill="#000000" fill-rule="nonzero" fill-opacity="1" /><path clip-path="url(#clip090)" d="M108.168 1439.6 Q104.557 1439.6 102.728 1443.17 Q100.922 1446.71 100.922 1453.84 Q100.922 1460.94 102.728 1464.51 Q104.557 1468.05 108.168 1468.05 Q111.802 1468.05 113.608 1464.51 Q115.436 1460.94 115.436 1453.84 Q115.436 1446.71 113.608 1443.17 Q111.802 1439.6 108.168 1439.6 M108.168 1435.9 Q113.978 1435.9 117.033 1440.5 Q120.112 1445.09 120.112 1453.84 Q120.112 1462.56 117.033 1467.17 Q113.978 1471.75 108.168 1471.75 Q102.358 1471.75 99.2789 1467.17 Q96.2234 1462.56 96.2234 1453.84 Q96.2234 1445.09 99.2789 1440.5 Q102.358 1435.9 108.168 1435.9 Z" fill="#000000" fill-rule="nonzero" fill-opacity="1" /><path clip-path="url(#clip090)" d="M63.9319 1169.89 Q60.3208 1169.89 58.4921 1173.46 Q56.6865 1177 56.6865 1184.13 Q56.6865 1191.24 58.4921 1194.8 Q60.3208 1198.34 63.9319 1198.34 Q67.5661 1198.34 69.3717 1194.8 Q71.2004 1191.24 71.2004 1184.13 Q71.2004 1177 69.3717 1173.46 Q67.5661 1169.89 63.9319 1169.89 M63.9319 1166.19 Q69.742 1166.19 72.7976 1170.8 Q75.8763 1175.38 75.8763 1184.13 Q75.8763 1192.86 72.7976 1197.46 Q69.742 1202.05 63.9319 1202.05 Q58.1217 1202.05 55.043 1197.46 Q51.9875 1192.86 51.9875 1184.13 Q51.9875 1175.38 55.043 1170.8 Q58.1217 1166.19 63.9319 1166.19 Z" fill="#000000" fill-rule="nonzero" fill-opacity="1" /><path clip-path="url(#clip090)" d="M84.0938 1195.5 L88.978 1195.5 L88.978 1201.38 L84.0938 1201.38 L84.0938 1195.5 Z" fill="#000000" fill-rule="nonzero" fill-opacity="1" /><path clip-path="url(#clip090)" d="M99.2095 1166.82 L117.566 1166.82 L117.566 1170.75 L103.492 1170.75 L103.492 1179.22 Q104.51 1178.88 105.529 1178.71 Q106.547 1178.53 107.566 1178.53 Q113.353 1178.53 116.733 1181.7 Q120.112 1184.87 120.112 1190.29 Q120.112 1195.87 116.64 1198.97 Q113.168 1202.05 106.848 1202.05 Q104.672 1202.05 102.404 1201.68 Q100.159 1201.31 97.7511 1200.57 L97.7511 1195.87 Q99.8345 1197 102.057 1197.56 Q104.279 1198.11 106.756 1198.11 Q110.76 1198.11 113.098 1196 Q115.436 1193.9 115.436 1190.29 Q115.436 1186.68 113.098 1184.57 Q110.76 1182.46 106.756 1182.46 Q104.881 1182.46 103.006 1182.88 Q101.154 1183.3 99.2095 1184.18 L99.2095 1166.82 Z" fill="#000000" fill-rule="nonzero" fill-opacity="1" /><path clip-path="url(#clip090)" d="M53.7467 927.733 L61.3856 927.733 L61.3856 901.368 L53.0754 903.034 L53.0754 898.775 L61.3393 897.108 L66.0152 897.108 L66.0152 927.733 L73.654 927.733 L73.654 931.668 L53.7467 931.668 L53.7467 927.733 Z" fill="#000000" fill-rule="nonzero" fill-opacity="1" /><path clip-path="url(#clip090)" d="M83.0984 925.789 L87.9827 925.789 L87.9827 931.668 L83.0984 931.668 L83.0984 925.789 Z" fill="#000000" fill-rule="nonzero" fill-opacity="1" /><path clip-path="url(#clip090)" d="M108.168 900.187 Q104.557 900.187 102.728 903.752 Q100.922 907.294 100.922 914.423 Q100.922 921.53 102.728 925.094 Q104.557 928.636 108.168 928.636 Q111.802 928.636 113.608 925.094 Q115.436 921.53 115.436 914.423 Q115.436 907.294 113.608 903.752 Q111.802 900.187 108.168 900.187 M108.168 896.483 Q113.978 896.483 117.033 901.09 Q120.112 905.673 120.112 914.423 Q120.112 923.15 117.033 927.756 Q113.978 932.34 108.168 932.34 Q102.358 932.34 99.2789 927.756 Q96.2234 923.15 96.2234 914.423 Q96.2234 905.673 99.2789 901.09 Q102.358 896.483 108.168 896.483 Z" fill="#000000" fill-rule="nonzero" fill-opacity="1" /><path clip-path="url(#clip090)" d="M54.7421 658.026 L62.381 658.026 L62.381 631.661 L54.0708 633.328 L54.0708 629.068 L62.3347 627.402 L67.0106 627.402 L67.0106 658.026 L74.6494 658.026 L74.6494 661.962 L54.7421 661.962 L54.7421 658.026 Z" fill="#000000" fill-rule="nonzero" fill-opacity="1" /><path clip-path="url(#clip090)" d="M84.0938 656.082 L88.978 656.082 L88.978 661.962 L84.0938 661.962 L84.0938 656.082 Z" fill="#000000" fill-rule="nonzero" fill-opacity="1" /><path clip-path="url(#clip090)" d="M99.2095 627.402 L117.566 627.402 L117.566 631.337 L103.492 631.337 L103.492 639.809 Q104.51 639.462 105.529 639.3 Q106.547 639.115 107.566 639.115 Q113.353 639.115 116.733 642.286 Q120.112 645.457 120.112 650.874 Q120.112 656.452 116.64 659.554 Q113.168 662.633 106.848 662.633 Q104.672 662.633 102.404 662.263 Q100.159 661.892 97.7511 661.151 L97.7511 656.452 Q99.8345 657.587 102.057 658.142 Q104.279 658.698 106.756 658.698 Q110.76 658.698 113.098 656.591 Q115.436 654.485 115.436 650.874 Q115.436 647.263 113.098 645.156 Q110.76 643.05 106.756 643.05 Q104.881 643.05 103.006 643.466 Q101.154 643.883 99.2095 644.763 L99.2095 627.402 Z" fill="#000000" fill-rule="nonzero" fill-opacity="1" /><path clip-path="url(#clip090)" d="M56.9643 388.32 L73.2837 388.32 L73.2837 392.255 L51.3393 392.255 L51.3393 388.32 Q54.0014 385.565 58.5847 380.935 Q63.1911 376.283 64.3717 374.94 Q66.617 372.417 67.4967 370.681 Q68.3994 368.922 68.3994 367.232 Q68.3994 364.477 66.455 362.741 Q64.5337 361.005 61.4319 361.005 Q59.2328 361.005 56.7791 361.769 Q54.3486 362.533 51.5708 364.084 L51.5708 359.361 Q54.3949 358.227 56.8486 357.649 Q59.3023 357.07 61.3393 357.07 Q66.7096 357.07 69.9041 359.755 Q73.0985 362.44 73.0985 366.931 Q73.0985 369.061 72.2883 370.982 Q71.5013 372.88 69.3948 375.473 Q68.8161 376.144 65.7143 379.361 Q62.6124 382.556 56.9643 388.32 Z" fill="#000000" fill-rule="nonzero" fill-opacity="1" /><path clip-path="url(#clip090)" d="M83.0984 386.375 L87.9827 386.375 L87.9827 392.255 L83.0984 392.255 L83.0984 386.375 Z" fill="#000000" fill-rule="nonzero" fill-opacity="1" /><path clip-path="url(#clip090)" d="M108.168 360.774 Q104.557 360.774 102.728 364.338 Q100.922 367.88 100.922 375.01 Q100.922 382.116 102.728 385.681 Q104.557 389.222 108.168 389.222 Q111.802 389.222 113.608 385.681 Q115.436 382.116 115.436 375.01 Q115.436 367.88 113.608 364.338 Q111.802 360.774 108.168 360.774 M108.168 357.07 Q113.978 357.07 117.033 361.676 Q120.112 366.26 120.112 375.01 Q120.112 383.736 117.033 388.343 Q113.978 392.926 108.168 392.926 Q102.358 392.926 99.2789 388.343 Q96.2234 383.736 96.2234 375.01 Q96.2234 366.26 99.2789 361.676 Q102.358 357.07 108.168 357.07 Z" fill="#000000" fill-rule="nonzero" fill-opacity="1" /><path clip-path="url(#clip090)" d="M57.9597 118.613 L74.279 118.613 L74.279 122.548 L52.3347 122.548 L52.3347 118.613 Q54.9967 115.858 59.58 111.229 Q64.1865 106.576 65.367 105.233 Q67.6124 102.71 68.492 100.974 Q69.3948 99.2148 69.3948 97.525 Q69.3948 94.7704 67.4504 93.0343 Q65.5291 91.2982 62.4272 91.2982 Q60.2282 91.2982 57.7745 92.0621 Q55.344 92.826 52.5662 94.3769 L52.5662 89.6547 Q55.3903 88.5204 57.8439 87.9417 Q60.2976 87.363 62.3347 87.363 Q67.705 87.363 70.8994 90.0482 Q74.0939 92.7334 74.0939 97.2241 Q74.0939 99.3537 73.2837 101.275 Q72.4966 103.173 70.3902 105.766 Q69.8115 106.437 66.7096 109.655 Q63.6078 112.849 57.9597 118.613 Z" fill="#000000" fill-rule="nonzero" fill-opacity="1" /><path clip-path="url(#clip090)" d="M84.0938 116.668 L88.978 116.668 L88.978 122.548 L84.0938 122.548 L84.0938 116.668 Z" fill="#000000" fill-rule="nonzero" fill-opacity="1" /><path clip-path="url(#clip090)" d="M99.2095 87.988 L117.566 87.988 L117.566 91.9232 L103.492 91.9232 L103.492 100.395 Q104.51 100.048 105.529 99.8861 Q106.547 99.7009 107.566 99.7009 Q113.353 99.7009 116.733 102.872 Q120.112 106.043 120.112 111.46 Q120.112 117.039 116.64 120.141 Q113.168 123.219 106.848 123.219 Q104.672 123.219 102.404 122.849 Q100.159 122.479 97.7511 121.738 L97.7511 117.039 Q99.8345 118.173 102.057 118.729 Q104.279 119.284 106.756 119.284 Q110.76 119.284 113.098 117.178 Q115.436 115.071 115.436 111.46 Q115.436 107.849 113.098 105.743 Q110.76 103.636 106.756 103.636 Q104.881 103.636 103.006 104.053 Q101.154 104.469 99.2095 105.349 L99.2095 87.988 Z" fill="#000000" fill-rule="nonzero" fill-opacity="1" /><polyline clip-path="url(#clip092)" style="stroke:#009af9; stroke-linecap:round; stroke-linejoin:round; stroke-width:4; stroke-opacity:1; fill:none" points="218.281,87.9763 228.643,122.56 239.004,156.268 249.366,189.122 259.727,221.144 270.089,252.356 280.45,282.777 290.812,312.428 301.174,341.328 311.535,369.497 321.897,396.952 332.258,423.712 342.62,449.795 352.981,475.217 363.343,499.995 373.704,524.146 384.066,547.685 394.427,570.629 404.789,592.991 415.15,614.787 425.512,636.032 435.873,656.738 446.235,676.92 456.596,696.591 466.958,715.764 477.319,734.452 487.681,752.666 498.043,770.419 508.404,787.723 518.766,804.589 529.127,821.027 539.489,837.049 549.85,852.666 560.212,867.887 570.573,882.723 580.935,897.183 591.296,911.277 601.658,925.014 612.019,938.403 622.381,951.453 632.742,964.173 643.104,976.57 653.465,988.654 663.827,1000.43 674.188,1011.91 684.55,1023.1 694.912,1034.01 705.273,1044.64 715.635,1055 725.996,1065.09 736.358,1074.94 746.719,1084.53 757.081,1093.88 767.442,1102.99 777.804,1111.88 788.165,1120.53 798.527,1128.97 808.888,1137.2 819.25,1145.21 829.611,1153.03 839.973,1160.64 850.334,1168.07 860.696,1175.3 871.058,1182.35 881.419,1189.23 891.781,1195.93 902.142,1202.45 912.504,1208.82 922.865,1215.02 933.227,1221.07 943.588,1226.96 953.95,1232.7 964.311,1238.3 974.673,1243.76 985.034,1249.08 995.396,1254.26 1005.76,1259.31 1016.12,1264.24 1026.48,1269.04 1036.84,1273.72 1047.2,1278.28 1057.56,1282.72 1067.93,1287.05 1078.29,1291.28 1088.65,1295.39 1099.01,1299.4 1109.37,1303.31 1119.73,1307.12 1130.1,1310.84 1140.46,1314.46 1150.82,1317.98 1161.18,1321.42 1171.54,1324.77 1181.9,1328.04 1192.26,1331.23 1202.63,1334.33 1212.99,1337.36 1223.35,1340.3 1233.71,1343.18 1244.07,1345.98 1254.43,1348.71 1264.8,1351.37 1275.16,1353.96 1285.52,1356.49 1295.88,1358.96 1306.24,1361.36 1316.6,1363.7 1326.96,1365.98 1337.33,1368.2 1347.69,1370.37 1358.05,1372.48 1368.41,1374.54 1378.77,1376.55 1389.13,1378.5 1399.5,1380.41 1409.86,1382.27 1420.22,1384.08 1430.58,1385.85 1440.94,1387.57 1451.3,1389.24 1461.66,1390.88 1472.03,1392.47 1482.39,1394.02 1492.75,1395.54 1503.11,1397.01 1513.47,1398.45 1523.83,1399.85 1534.2,1401.22 1544.56,1402.55 1554.92,1403.85 1565.28,1405.11 1575.64,1406.35 1586,1407.55 1596.36,1408.72 1606.73,1409.86 1617.09,1410.97 1627.45,1412.06 1637.81,1413.11 1648.17,1414.14 1658.53,1415.15 1668.9,1416.13 1679.26,1417.08 1689.62,1418.01 1699.98,1418.92 1710.34,1419.8 1720.7,1420.66 1731.06,1421.5 1741.43,1422.32 1751.79,1423.12 1762.15,1423.89 1772.51,1424.65 1782.87,1425.39 1793.23,1426.11 1803.59,1426.81 1813.96,1427.49 1824.32,1428.16 1834.68,1428.81 1845.04,1429.44 1855.4,1430.06 1865.76,1430.66 1876.13,1431.24 1886.49,1431.82 1896.85,1432.37 1907.21,1432.92 1917.57,1433.44 1927.93,1433.96 1938.29,1434.46 1948.66,1434.95 1959.02,1435.43 1969.38,1435.89 1979.74,1436.35 1990.1,1436.79 2000.46,1437.22 2010.83,1437.64 2021.19,1438.05 2031.55,1438.45 2041.91,1438.84 2052.27,1439.22 2062.63,1439.59 2072.99,1439.95 2083.36,1440.3 2093.72,1440.64 2104.08,1440.97 2114.44,1441.3 2124.8,1441.61 2135.16,1441.92 2145.53,1442.22 2155.89,1442.52 2166.25,1442.8 2176.61,1443.08 2186.97,1443.35 2197.33,1443.62 2207.69,1443.87 2218.06,1444.13 2228.42,1444.37 2238.78,1444.61 2249.14,1444.84 2259.5,1445.07 2269.86,1445.29 2280.23,1445.51 2290.59,1445.72 "/>
<path clip-path="url(#clip090)" d="M2007.44 198.898 L2279.53 198.898 L2279.53 95.2176 L2007.44 95.2176  Z" fill="#ffffff" fill-rule="evenodd" fill-opacity="1"/>
<polyline clip-path="url(#clip090)" style="stroke:#000000; stroke-linecap:round; stroke-linejoin:round; stroke-width:4; stroke-opacity:1; fill:none" points="2007.44,198.898 2279.53,198.898 2279.53,95.2176 2007.44,95.2176 2007.44,198.898 "/>
<polyline clip-path="url(#clip090)" style="stroke:#009af9; stroke-linecap:round; stroke-linejoin:round; stroke-width:4; stroke-opacity:1; fill:none" points="2031.85,147.058 2178.29,147.058 "/>
<path clip-path="url(#clip090)" d="M2216.54 166.745 Q2214.73 171.375 2213.02 172.787 Q2211.31 174.199 2208.44 174.199 L2205.03 174.199 L2205.03 170.634 L2207.53 170.634 Q2209.29 170.634 2210.27 169.8 Q2211.24 168.967 2212.42 165.865 L2213.18 163.921 L2202.7 138.412 L2207.21 138.412 L2215.31 158.689 L2223.41 138.412 L2227.93 138.412 L2216.54 166.745 Z" fill="#000000" fill-rule="nonzero" fill-opacity="1" /><path clip-path="url(#clip090)" d="M2235.22 160.402 L2242.86 160.402 L2242.86 134.037 L2234.55 135.703 L2234.55 131.444 L2242.81 129.778 L2247.49 129.778 L2247.49 160.402 L2255.13 160.402 L2255.13 164.338 L2235.22 164.338 L2235.22 160.402 Z" fill="#000000" fill-rule="nonzero" fill-opacity="1" /></svg>