<?xml version="1.0" encoding="utf-8"?>
<svg xmlns="http://www.w3.org/2000/svg" xmlns:xlink="http://www.w3.org/1999/xlink" width="800" height="400" viewBox="0 0 3200 1600">
<defs>
  <clipPath id="clip370">
    <rect x="0" y="0" width="3200" height="1600"/>
  </clipPath>
</defs>
<path clip-path="url(#clip370)" d="M0 1600 L3200 1600 L3200 0 L0 0  Z" fill="#ffffff" fill-rule="evenodd" fill-opacity="1"/>
<defs>
  <clipPath id="clip371">
    <rect x="640" y="0" width="2241" height="1600"/>
  </clipPath>
</defs>
<path clip-path="url(#clip370)" d="M164.274 1495.09 L1552.59 1495.09 L1552.59 47.2441 L164.274 47.2441  Z" fill="#ffffff" fill-rule="evenodd" fill-opacity="1"/>
<defs>
  <clipPath id="clip372">
    <rect x="164" y="47" width="1389" height="1449"/>
  </clipPath>
</defs>
<polyline clip-path="url(#clip372)" style="stroke:#000000; stroke-linecap:round; stroke-linejoin:round; stroke-width:2; stroke-opacity:0.1; fill:none" points="378.198,1495.09 378.198,47.2441 "/>
<polyline clip-path="url(#clip372)" style="stroke:#000000; stroke-linecap:round; stroke-linejoin:round; stroke-width:2; stroke-opacity:0.1; fill:none" points="640.145,1495.09 640.145,47.2441 "/>
<polyline clip-path="url(#clip372)" style="stroke:#000000; stroke-linecap:round; stroke-linejoin:round; stroke-width:2; stroke-opacity:0.1; fill:none" points="902.092,1495.09 902.092,47.2441 "/>
<polyline clip-path="url(#clip372)" style="stroke:#000000; stroke-linecap:round; stroke-linejoin:round; stroke-width:2; stroke-opacity:0.1; fill:none" points="1164.04,1495.09 1164.04,47.2441 "/>
<polyline clip-path="url(#clip372)" style="stroke:#000000; stroke-linecap:round; stroke-linejoin:round; stroke-width:2; stroke-opacity:0.1; fill:none" points="1425.99,1495.09 1425.99,47.2441 "/>
<polyline clip-path="url(#clip370)" style="stroke:#000000; stroke-linecap:round; stroke-linejoin:round; stroke-width:4; stroke-opacity:1; fill:none" points="164.274,1495.09 1552.59,1495.09 "/>
<polyline clip-path="url(#clip370)" style="stroke:#000000; stroke-linecap:round; stroke-linejoin:round; stroke-width:4; stroke-opacity:1; fill:none" points="378.198,1495.09 378.198,1476.19 "/>
<polyline clip-path="url(#clip370)" style="stroke:#000000; stroke-linecap:round; stroke-linejoin:round; stroke-width:4; stroke-opacity:1; fill:none" points="640.145,1495.09 640.145,1476.19 "/>
<polyline clip-path="url(#clip370)" style="stroke:#000000; stroke-linecap:round; stroke-linejoin:round; stroke-width:4; stroke-opacity:1; fill:none" points="902.092,1495.09 902.092,1476.19 "/>
<polyline clip-path="url(#clip370)" style="stroke:#000000; stroke-linecap:round; stroke-linejoin:round; stroke-width:4; stroke-opacity:1; fill:none" points="1164.04,1495.09 1164.04,1476.19 "/>
<polyline clip-path="url(#clip370)" style="stroke:#000000; stroke-linecap:round; stroke-linejoin:round; stroke-width:4; stroke-opacity:1; fill:none" points="1425.99,1495.09 1425.99,1476.19 "/>
<path clip-path="url(#clip370)" d="M382.445 1545.25 Q385.802 1545.97 387.677 1548.24 Q389.575 1550.51 389.575 1553.84 Q389.575 1558.96 386.056 1561.76 Q382.538 1564.56 376.056 1564.56 Q373.881 1564.56 371.566 1564.12 Q369.274 1563.7 366.82 1562.85 L366.82 1558.33 Q368.765 1559.47 371.08 1560.05 Q373.394 1560.62 375.918 1560.62 Q380.316 1560.62 382.607 1558.89 Q384.922 1557.15 384.922 1553.84 Q384.922 1550.79 382.769 1549.07 Q380.64 1547.34 376.82 1547.34 L372.793 1547.34 L372.793 1543.49 L377.006 1543.49 Q380.455 1543.49 382.283 1542.13 Q384.112 1540.74 384.112 1538.15 Q384.112 1535.49 382.214 1534.07 Q380.339 1532.64 376.82 1532.64 Q374.899 1532.64 372.7 1533.05 Q370.501 1533.47 367.862 1534.35 L367.862 1530.18 Q370.524 1529.44 372.839 1529.07 Q375.177 1528.7 377.237 1528.7 Q382.561 1528.7 385.663 1531.13 Q388.765 1533.54 388.765 1537.66 Q388.765 1540.53 387.121 1542.52 Q385.478 1544.49 382.445 1545.25 Z" fill="#000000" fill-rule="nonzero" fill-opacity="1" /><path clip-path="url(#clip370)" d="M640.55 1544.74 Q637.402 1544.74 635.55 1546.9 Q633.721 1549.05 633.721 1552.8 Q633.721 1556.53 635.55 1558.7 Q637.402 1560.86 640.55 1560.86 Q643.698 1560.86 645.527 1558.7 Q647.379 1556.53 647.379 1552.8 Q647.379 1549.05 645.527 1546.9 Q643.698 1544.74 640.55 1544.74 M649.832 1530.09 L649.832 1534.35 Q648.073 1533.52 646.267 1533.08 Q644.485 1532.64 642.726 1532.64 Q638.096 1532.64 635.642 1535.76 Q633.212 1538.89 632.865 1545.21 Q634.23 1543.19 636.291 1542.13 Q638.351 1541.04 640.828 1541.04 Q646.036 1541.04 649.045 1544.21 Q652.078 1547.36 652.078 1552.8 Q652.078 1558.12 648.929 1561.34 Q645.781 1564.56 640.55 1564.56 Q634.555 1564.56 631.383 1559.98 Q628.212 1555.37 628.212 1546.64 Q628.212 1538.45 632.101 1533.59 Q635.99 1528.7 642.541 1528.7 Q644.3 1528.7 646.082 1529.05 Q647.888 1529.4 649.832 1530.09 Z" fill="#000000" fill-rule="nonzero" fill-opacity="1" /><path clip-path="url(#clip370)" d="M892.393 1563.17 L892.393 1558.91 Q894.152 1559.74 895.958 1560.18 Q897.763 1560.62 899.499 1560.62 Q904.129 1560.62 906.559 1557.52 Q909.013 1554.4 909.36 1548.05 Q908.018 1550.05 905.958 1551.11 Q903.897 1552.17 901.397 1552.17 Q896.212 1552.17 893.18 1549.05 Q890.171 1545.9 890.171 1540.46 Q890.171 1535.14 893.319 1531.92 Q896.467 1528.7 901.698 1528.7 Q907.694 1528.7 910.842 1533.31 Q914.013 1537.89 914.013 1546.64 Q914.013 1554.81 910.124 1559.7 Q906.259 1564.56 899.708 1564.56 Q897.948 1564.56 896.143 1564.21 Q894.337 1563.86 892.393 1563.17 M901.698 1548.52 Q904.846 1548.52 906.675 1546.36 Q908.527 1544.21 908.527 1540.46 Q908.527 1536.74 906.675 1534.58 Q904.846 1532.41 901.698 1532.41 Q898.55 1532.41 896.698 1534.58 Q894.87 1536.74 894.87 1540.46 Q894.87 1544.21 896.698 1546.36 Q898.55 1548.52 901.698 1548.52 Z" fill="#000000" fill-rule="nonzero" fill-opacity="1" /><path clip-path="url(#clip370)" d="M1139.53 1559.95 L1147.16 1559.95 L1147.16 1533.59 L1138.85 1535.25 L1138.85 1530.99 L1147.12 1529.33 L1151.79 1529.33 L1151.79 1559.95 L1159.43 1559.95 L1159.43 1563.89 L1139.53 1563.89 L1139.53 1559.95 Z" fill="#000000" fill-rule="nonzero" fill-opacity="1" /><path clip-path="url(#clip370)" d="M1172.9 1559.95 L1189.22 1559.95 L1189.22 1563.89 L1167.28 1563.89 L1167.28 1559.95 Q1169.94 1557.2 1174.53 1552.57 Q1179.13 1547.92 1180.31 1546.57 Q1182.56 1544.05 1183.44 1542.31 Q1184.34 1540.55 1184.34 1538.86 Q1184.34 1536.11 1182.4 1534.37 Q1180.47 1532.64 1177.37 1532.64 Q1175.17 1532.64 1172.72 1533.4 Q1170.29 1534.17 1167.51 1535.72 L1167.51 1530.99 Q1170.34 1529.86 1172.79 1529.28 Q1175.24 1528.7 1177.28 1528.7 Q1182.65 1528.7 1185.84 1531.39 Q1189.04 1534.07 1189.04 1538.56 Q1189.04 1540.69 1188.23 1542.61 Q1187.44 1544.51 1185.34 1547.11 Q1184.76 1547.78 1181.65 1550.99 Q1178.55 1554.19 1172.9 1559.95 Z" fill="#000000" fill-rule="nonzero" fill-opacity="1" /><path clip-path="url(#clip370)" d="M1401.17 1559.95 L1408.81 1559.95 L1408.81 1533.59 L1400.5 1535.25 L1400.5 1530.99 L1408.76 1529.33 L1413.44 1529.33 L1413.44 1559.95 L1421.08 1559.95 L1421.08 1563.89 L1401.17 1563.89 L1401.17 1559.95 Z" fill="#000000" fill-rule="nonzero" fill-opacity="1" /><path clip-path="url(#clip370)" d="M1430.57 1529.33 L1448.93 1529.33 L1448.93 1533.26 L1434.85 1533.26 L1434.85 1541.74 Q1435.87 1541.39 1436.89 1541.23 Q1437.91 1541.04 1438.93 1541.04 Q1444.71 1541.04 1448.09 1544.21 Q1451.47 1547.38 1451.47 1552.8 Q1451.47 1558.38 1448 1561.48 Q1444.53 1564.56 1438.21 1564.56 Q1436.03 1564.56 1433.76 1564.19 Q1431.52 1563.82 1429.11 1563.08 L1429.11 1558.38 Q1431.19 1559.51 1433.42 1560.07 Q1435.64 1560.62 1438.12 1560.62 Q1442.12 1560.62 1444.46 1558.52 Q1446.8 1556.41 1446.8 1552.8 Q1446.8 1549.19 1444.46 1547.08 Q1442.12 1544.98 1438.12 1544.98 Q1436.24 1544.98 1434.37 1545.39 Q1432.51 1545.81 1430.57 1546.69 L1430.57 1529.33 Z" fill="#000000" fill-rule="nonzero" fill-opacity="1" /><polyline clip-path="url(#clip372)" style="stroke:#000000; stroke-linecap:round; stroke-linejoin:round; stroke-width:2; stroke-opacity:0.1; fill:none" points="164.274,1248.69 1552.59,1248.69 "/>
<polyline clip-path="url(#clip372)" style="stroke:#000000; stroke-linecap:round; stroke-linejoin:round; stroke-width:2; stroke-opacity:0.1; fill:none" points="164.274,940.554 1552.59,940.554 "/>
<polyline clip-path="url(#clip372)" style="stroke:#000000; stroke-linecap:round; stroke-linejoin:round; stroke-width:2; stroke-opacity:0.1; fill:none" points="164.274,632.42 1552.59,632.42 "/>
<polyline clip-path="url(#clip372)" style="stroke:#000000; stroke-linecap:round; stroke-linejoin:round; stroke-width:2; stroke-opacity:0.1; fill:none" points="164.274,324.286 1552.59,324.286 "/>
<polyline clip-path="url(#clip370)" style="stroke:#000000; stroke-linecap:round; stroke-linejoin:round; stroke-width:4; stroke-opacity:1; fill:none" points="164.274,1495.09 164.274,47.2441 "/>
<polyline clip-path="url(#clip370)" style="stroke:#000000; stroke-linecap:round; stroke-linejoin:round; stroke-width:4; stroke-opacity:1; fill:none" points="164.274,1248.69 183.172,1248.69 "/>
<polyline clip-path="url(#clip370)" style="stroke:#000000; stroke-linecap:round; stroke-linejoin:round; stroke-width:4; stroke-opacity:1; fill:none" points="164.274,940.554 183.172,940.554 "/>
<polyline clip-path="url(#clip370)" style="stroke:#000000; stroke-linecap:round; stroke-linejoin:round; stroke-width:4; stroke-opacity:1; fill:none" points="164.274,632.42 183.172,632.42 "/>
<polyline clip-path="url(#clip370)" style="stroke:#000000; stroke-linecap:round; stroke-linejoin:round; stroke-width:4; stroke-opacity:1; fill:none" points="164.274,324.286 183.172,324.286 "/>
<path clip-path="url(#clip370)" d="M58.9365 1234.49 Q55.3254 1234.49 53.4967 1238.05 Q51.6912 1241.59 51.6912 1248.72 Q51.6912 1255.83 53.4967 1259.39 Q55.3254 1262.94 58.9365 1262.94 Q62.5707 1262.94 64.3763 1259.39 Q66.205 1255.83 66.205 1248.72 Q66.205 1241.59 64.3763 1238.05 Q62.5707 1234.49 58.9365 1234.49 M58.9365 1230.78 Q64.7467 1230.78 67.8022 1235.39 Q70.8809 1239.97 70.8809 1248.72 Q70.8809 1257.45 67.8022 1262.06 Q64.7467 1266.64 58.9365 1266.64 Q53.1264 1266.64 50.0477 1262.06 Q46.9921 1257.45 46.9921 1248.72 Q46.9921 1239.97 50.0477 1235.39 Q53.1264 1230.78 58.9365 1230.78 Z" fill="#000000" fill-rule="nonzero" fill-opacity="1" /><path clip-path="url(#clip370)" d="M79.0984 1260.09 L83.9827 1260.09 L83.9827 1265.97 L79.0984 1265.97 L79.0984 1260.09 Z" fill="#000000" fill-rule="nonzero" fill-opacity="1" /><path clip-path="url(#clip370)" d="M104.746 1246.82 Q101.598 1246.82 99.7465 1248.98 Q97.9178 1251.13 97.9178 1254.88 Q97.9178 1258.61 99.7465 1260.78 Q101.598 1262.94 104.746 1262.94 Q107.895 1262.94 109.723 1260.78 Q111.575 1258.61 111.575 1254.88 Q111.575 1251.13 109.723 1248.98 Q107.895 1246.82 104.746 1246.82 M114.029 1232.17 L114.029 1236.43 Q112.27 1235.6 110.464 1235.16 Q108.682 1234.72 106.922 1234.72 Q102.293 1234.72 99.8391 1237.84 Q97.4085 1240.97 97.0613 1247.29 Q98.427 1245.27 100.487 1244.21 Q102.547 1243.12 105.024 1243.12 Q110.233 1243.12 113.242 1246.29 Q116.274 1249.44 116.274 1254.88 Q116.274 1260.2 113.126 1263.42 Q109.978 1266.64 104.746 1266.64 Q98.7511 1266.64 95.5798 1262.06 Q92.4085 1257.45 92.4085 1248.72 Q92.4085 1240.53 96.2974 1235.67 Q100.186 1230.78 106.737 1230.78 Q108.496 1230.78 110.279 1231.13 Q112.084 1231.48 114.029 1232.17 Z" fill="#000000" fill-rule="nonzero" fill-opacity="1" /><path clip-path="url(#clip370)" d="M59.2837 926.353 Q55.6726 926.353 53.8439 929.918 Q52.0384 933.459 52.0384 940.589 Q52.0384 947.695 53.8439 951.26 Q55.6726 954.802 59.2837 954.802 Q62.918 954.802 64.7235 951.26 Q66.5522 947.695 66.5522 940.589 Q66.5522 933.459 64.7235 929.918 Q62.918 926.353 59.2837 926.353 M59.2837 922.649 Q65.0939 922.649 68.1494 927.256 Q71.2281 931.839 71.2281 940.589 Q71.2281 949.316 68.1494 953.922 Q65.0939 958.505 59.2837 958.505 Q53.4736 958.505 50.3949 953.922 Q47.3393 949.316 47.3393 940.589 Q47.3393 931.839 50.3949 927.256 Q53.4736 922.649 59.2837 922.649 Z" fill="#000000" fill-rule="nonzero" fill-opacity="1" /><path clip-path="url(#clip370)" d="M79.4457 951.955 L84.3299 951.955 L84.3299 957.834 L79.4457 957.834 L79.4457 951.955 Z" fill="#000000" fill-rule="nonzero" fill-opacity="1" /><path clip-path="url(#clip370)" d="M94.6539 957.117 L94.6539 952.857 Q96.4132 953.691 98.2187 954.131 Q100.024 954.57 101.76 954.57 Q106.39 954.57 108.82 951.468 Q111.274 948.344 111.621 942.001 Q110.279 943.992 108.219 945.056 Q106.158 946.121 103.658 946.121 Q98.4733 946.121 95.4409 942.996 Q92.4317 939.848 92.4317 934.408 Q92.4317 929.084 95.5798 925.867 Q98.728 922.649 103.959 922.649 Q109.955 922.649 113.103 927.256 Q116.274 931.839 116.274 940.589 Q116.274 948.76 112.385 953.644 Q108.52 958.505 101.969 958.505 Q100.209 958.505 98.4039 958.158 Q96.5983 957.811 94.6539 957.117 M103.959 942.464 Q107.108 942.464 108.936 940.311 Q110.788 938.158 110.788 934.408 Q110.788 930.682 108.936 928.529 Q107.108 926.353 103.959 926.353 Q100.811 926.353 98.9594 928.529 Q97.1307 930.682 97.1307 934.408 Q97.1307 938.158 98.9594 940.311 Q100.811 942.464 103.959 942.464 Z" fill="#000000" fill-rule="nonzero" fill-opacity="1" /><path clip-path="url(#clip370)" d="M51.506 645.765 L59.1448 645.765 L59.1448 619.399 L50.8347 621.066 L50.8347 616.807 L59.0985 615.14 L63.7744 615.14 L63.7744 645.765 L71.4133 645.765 L71.4133 649.7 L51.506 649.7 L51.506 645.765 Z" fill="#000000" fill-rule="nonzero" fill-opacity="1" /><path clip-path="url(#clip370)" d="M80.8577 643.82 L85.7419 643.82 L85.7419 649.7 L80.8577 649.7 L80.8577 643.82 Z" fill="#000000" fill-rule="nonzero" fill-opacity="1" /><path clip-path="url(#clip370)" d="M99.9548 645.765 L116.274 645.765 L116.274 649.7 L94.3298 649.7 L94.3298 645.765 Q96.9919 643.01 101.575 638.381 Q106.182 633.728 107.362 632.385 Q109.608 629.862 110.487 628.126 Q111.39 626.367 111.39 624.677 Q111.39 621.922 109.445 620.186 Q107.524 618.45 104.422 618.45 Q102.223 618.45 99.7696 619.214 Q97.3391 619.978 94.5613 621.529 L94.5613 616.807 Q97.3854 615.672 99.8391 615.094 Q102.293 614.515 104.33 614.515 Q109.7 614.515 112.895 617.2 Q116.089 619.885 116.089 624.376 Q116.089 626.506 115.279 628.427 Q114.492 630.325 112.385 632.918 Q111.807 633.589 108.705 636.807 Q105.603 640.001 99.9548 645.765 Z" fill="#000000" fill-rule="nonzero" fill-opacity="1" /><path clip-path="url(#clip370)" d="M50.9041 337.631 L58.543 337.631 L58.543 311.265 L50.2328 312.932 L50.2328 308.672 L58.4967 307.006 L63.1726 307.006 L63.1726 337.631 L70.8114 337.631 L70.8114 341.566 L50.9041 341.566 L50.9041 337.631 Z" fill="#000000" fill-rule="nonzero" fill-opacity="1" /><path clip-path="url(#clip370)" d="M80.2558 335.686 L85.1401 335.686 L85.1401 341.566 L80.2558 341.566 L80.2558 335.686 Z" fill="#000000" fill-rule="nonzero" fill-opacity="1" /><path clip-path="url(#clip370)" d="M95.3715 307.006 L113.728 307.006 L113.728 310.941 L99.6539 310.941 L99.6539 319.413 Q100.672 319.066 101.691 318.904 Q102.709 318.719 103.728 318.719 Q109.515 318.719 112.895 321.89 Q116.274 325.061 116.274 330.478 Q116.274 336.057 112.802 339.158 Q109.33 342.237 103.01 342.237 Q100.834 342.237 98.5659 341.867 Q96.3206 341.496 93.9132 340.756 L93.9132 336.057 Q95.9965 337.191 98.2187 337.746 Q100.441 338.302 102.918 338.302 Q106.922 338.302 109.26 336.195 Q111.598 334.089 111.598 330.478 Q111.598 326.867 109.26 324.76 Q106.922 322.654 102.918 322.654 Q101.043 322.654 99.1678 323.071 Q97.3159 323.487 95.3715 324.367 L95.3715 307.006 Z" fill="#000000" fill-rule="nonzero" fill-opacity="1" /><polyline clip-path="url(#clip372)" style="stroke:#009af9; stroke-linecap:round; stroke-linejoin:round; stroke-width:4; stroke-opacity:1; fill:none" points="203.566,1454.11 290.882,1293.89 378.198,1130.07 465.513,955.657 552.829,757.372 640.145,504.775 727.46,88.2208 "/>
<path clip-path="url(#clip370)" d="M210.551 199.186 L390.286 199.186 L390.286 95.5056 L210.551 95.5056  Z" fill="#ffffff" fill-rule="evenodd" fill-opacity="1"/>
<polyline clip-path="url(#clip370)" style="stroke:#000000; stroke-linecap:round; stroke-linejoin:round; stroke-width:4; stroke-opacity:1; fill:none" points="210.551,199.186 390.286,199.186 390.286,95.5056 210.551,95.5056 210.551,199.186 "/>
<polyline clip-path="url(#clip370)" style="stroke:#009af9; stroke-linecap:round; stroke-linejoin:round; stroke-width:4; stroke-opacity:1; fill:none" points="225.977,147.346 318.532,147.346 "/>
<path clip-path="url(#clip370)" d="M354.467 139.695 L354.467 143.677 Q352.661 142.681 350.833 142.195 Q349.027 141.686 347.175 141.686 Q343.032 141.686 340.74 144.325 Q338.448 146.94 338.448 151.686 Q338.448 156.431 340.74 159.07 Q343.032 161.686 347.175 161.686 Q349.027 161.686 350.833 161.2 Q352.661 160.69 354.467 159.695 L354.467 163.63 Q352.684 164.464 350.763 164.88 Q348.865 165.297 346.712 165.297 Q340.856 165.297 337.407 161.616 Q333.958 157.936 333.958 151.686 Q333.958 145.343 337.43 141.709 Q340.925 138.075 346.99 138.075 Q348.958 138.075 350.833 138.491 Q352.708 138.885 354.467 139.695 Z" fill="#000000" fill-rule="nonzero" fill-opacity="1" /><path clip-path="url(#clip370)" d="M366.087 131.339 L366.087 138.7 L374.86 138.7 L374.86 142.01 L366.087 142.01 L366.087 156.084 Q366.087 159.255 366.944 160.158 Q367.823 161.061 370.485 161.061 L374.86 161.061 L374.86 164.626 L370.485 164.626 Q365.555 164.626 363.68 162.797 Q361.805 160.945 361.805 156.084 L361.805 142.01 L358.68 142.01 L358.68 138.7 L361.805 138.7 L361.805 131.339 L366.087 131.339 Z" fill="#000000" fill-rule="nonzero" fill-opacity="1" /><path clip-path="url(#clip370)" d="M1764.44 1495.09 L3152.76 1495.09 L3152.76 47.2441 L1764.44 47.2441  Z" fill="#ffffff" fill-rule="evenodd" fill-opacity="1"/>
<defs>
  <clipPath id="clip373">
    <rect x="1764" y="47" width="1389" height="1449"/>
  </clipPath>
</defs>
<polyline clip-path="url(#clip373)" style="stroke:#000000; stroke-linecap:round; stroke-linejoin:round; stroke-width:2; stroke-opacity:0.1; fill:none" points="1978.36,1495.09 1978.36,47.2441 "/>
<polyline clip-path="url(#clip373)" style="stroke:#000000; stroke-linecap:round; stroke-linejoin:round; stroke-width:2; stroke-opacity:0.1; fill:none" points="2240.31,1495.09 2240.31,47.2441 "/>
<polyline clip-path="url(#clip373)" style="stroke:#000000; stroke-linecap:round; stroke-linejoin:round; stroke-width:2; stroke-opacity:0.1; fill:none" points="2502.25,1495.09 2502.25,47.2441 "/>
<polyline clip-path="url(#clip373)" style="stroke:#000000; stroke-linecap:round; stroke-linejoin:round; stroke-width:2; stroke-opacity:0.1; fill:none" points="2764.2,1495.09 2764.2,47.2441 "/>
<polyline clip-path="url(#clip373)" style="stroke:#000000; stroke-linecap:round; stroke-linejoin:round; stroke-width:2; stroke-opacity:0.1; fill:none" points="3026.15,1495.09 3026.15,47.2441 "/>
<polyline clip-path="url(#clip370)" style="stroke:#000000; stroke-linecap:round; stroke-linejoin:round; stroke-width:4; stroke-opacity:1; fill:none" points="1764.44,1495.09 3152.76,1495.09 "/>
<polyline clip-path="url(#clip370)" style="stroke:#000000; stroke-linecap:round; stroke-linejoin:round; stroke-width:4; stroke-opacity:1; fill:none" points="1978.36,1495.09 1978.36,1476.19 "/>
<polyline clip-path="url(#clip370)" style="stroke:#000000; stroke-linecap:round; stroke-linejoin:round; stroke-width:4; stroke-opacity:1; fill:none" points="2240.31,1495.09 2240.31,1476.19 "/>
<polyline clip-path="url(#clip370)" style="stroke:#000000; stroke-linecap:round; stroke-linejoin:round; stroke-width:4; stroke-opacity:1; fill:none" points="2502.25,1495.09 2502.25,1476.19 "/>
<polyline clip-path="url(#clip370)" style="stroke:#000000; stroke-linecap:round; stroke-linejoin:round; stroke-width:4; stroke-opacity:1; fill:none" points="2764.2,1495.09 2764.2,1476.19 "/>
<polyline clip-path="url(#clip370)" style="stroke:#000000; stroke-linecap:round; stroke-linejoin:round; stroke-width:4; stroke-opacity:1; fill:none" points="3026.15,1495.09 3026.15,1476.19 "/>
<path clip-path="url(#clip370)" d="M1982.61 1545.25 Q1985.96 1545.97 1987.84 1548.24 Q1989.74 1550.51 1989.74 1553.84 Q1989.74 1558.96 1986.22 1561.76 Q1982.7 1564.56 1976.22 1564.56 Q1974.04 1564.56 1971.73 1564.12 Q1969.44 1563.7 1966.98 1562.85 L1966.98 1558.33 Q1968.93 1559.47 1971.24 1560.05 Q1973.56 1560.62 1976.08 1560.62 Q1980.48 1560.62 1982.77 1558.89 Q1985.08 1557.15 1985.08 1553.84 Q1985.08 1550.79 1982.93 1549.07 Q1980.8 1547.34 1976.98 1547.34 L1972.95 1547.34 L1972.95 1543.49 L1977.17 1543.49 Q1980.62 1543.49 1982.45 1542.13 Q1984.27 1540.74 1984.27 1538.15 Q1984.27 1535.49 1982.38 1534.07 Q1980.5 1532.64 1976.98 1532.64 Q1975.06 1532.64 1972.86 1533.05 Q1970.66 1533.47 1968.02 1534.35 L1968.02 1530.18 Q1970.69 1529.44 1973 1529.07 Q1975.34 1528.7 1977.4 1528.7 Q1982.72 1528.7 1985.82 1531.13 Q1988.93 1533.54 1988.93 1537.66 Q1988.93 1540.53 1987.28 1542.52 Q1985.64 1544.49 1982.61 1545.25 Z" fill="#000000" fill-rule="nonzero" fill-opacity="1" /><path clip-path="url(#clip370)" d="M2240.71 1544.74 Q2237.56 1544.74 2235.71 1546.9 Q2233.88 1549.05 2233.88 1552.8 Q2233.88 1556.53 2235.71 1558.7 Q2237.56 1560.86 2240.71 1560.86 Q2243.86 1560.86 2245.69 1558.7 Q2247.54 1556.53 2247.54 1552.8 Q2247.54 1549.05 2245.69 1546.9 Q2243.86 1544.74 2240.71 1544.74 M2249.99 1530.09 L2249.99 1534.35 Q2248.23 1533.52 2246.43 1533.08 Q2244.65 1532.64 2242.89 1532.64 Q2238.26 1532.64 2235.8 1535.76 Q2233.37 1538.89 2233.03 1545.21 Q2234.39 1543.19 2236.45 1542.13 Q2238.51 1541.04 2240.99 1541.04 Q2246.2 1541.04 2249.21 1544.21 Q2252.24 1547.36 2252.24 1552.8 Q2252.24 1558.12 2249.09 1561.34 Q2245.94 1564.56 2240.71 1564.56 Q2234.72 1564.56 2231.55 1559.98 Q2228.37 1555.37 2228.37 1546.64 Q2228.37 1538.45 2232.26 1533.59 Q2236.15 1528.7 2242.7 1528.7 Q2244.46 1528.7 2246.24 1529.05 Q2248.05 1529.4 2249.99 1530.09 Z" fill="#000000" fill-rule="nonzero" fill-opacity="1" /><path clip-path="url(#clip370)" d="M2492.55 1563.17 L2492.55 1558.91 Q2494.31 1559.74 2496.12 1560.18 Q2497.93 1560.62 2499.66 1560.62 Q2504.29 1560.62 2506.72 1557.52 Q2509.18 1554.4 2509.52 1548.05 Q2508.18 1550.05 2506.12 1551.11 Q2504.06 1552.17 2501.56 1552.17 Q2496.37 1552.17 2493.34 1549.05 Q2490.33 1545.9 2490.33 1540.46 Q2490.33 1535.14 2493.48 1531.92 Q2496.63 1528.7 2501.86 1528.7 Q2507.86 1528.7 2511 1533.31 Q2514.18 1537.89 2514.18 1546.64 Q2514.18 1554.81 2510.29 1559.7 Q2506.42 1564.56 2499.87 1564.56 Q2498.11 1564.56 2496.3 1564.21 Q2494.5 1563.86 2492.55 1563.17 M2501.86 1548.52 Q2505.01 1548.52 2506.84 1546.36 Q2508.69 1544.21 2508.69 1540.46 Q2508.69 1536.74 2506.84 1534.58 Q2505.01 1532.41 2501.86 1532.41 Q2498.71 1532.41 2496.86 1534.58 Q2495.03 1536.74 2495.03 1540.46 Q2495.03 1544.21 2496.86 1546.36 Q2498.71 1548.52 2501.86 1548.52 Z" fill="#000000" fill-rule="nonzero" fill-opacity="1" /><path clip-path="url(#clip370)" d="M2739.69 1559.95 L2747.33 1559.95 L2747.33 1533.59 L2739.02 1535.25 L2739.02 1530.99 L2747.28 1529.33 L2751.96 1529.33 L2751.96 1559.95 L2759.59 1559.95 L2759.59 1563.89 L2739.69 1563.89 L2739.69 1559.95 Z" fill="#000000" fill-rule="nonzero" fill-opacity="1" /><path clip-path="url(#clip370)" d="M2773.07 1559.95 L2789.39 1559.95 L2789.39 1563.89 L2767.44 1563.89 L2767.44 1559.95 Q2770.1 1557.2 2774.69 1552.57 Q2779.29 1547.92 2780.47 1546.57 Q2782.72 1544.05 2783.6 1542.31 Q2784.5 1540.55 2784.5 1538.86 Q2784.5 1536.11 2782.56 1534.37 Q2780.64 1532.64 2777.53 1532.64 Q2775.34 1532.64 2772.88 1533.4 Q2770.45 1534.17 2767.67 1535.72 L2767.67 1530.99 Q2770.5 1529.86 2772.95 1529.28 Q2775.4 1528.7 2777.44 1528.7 Q2782.81 1528.7 2786.01 1531.39 Q2789.2 1534.07 2789.2 1538.56 Q2789.2 1540.69 2788.39 1542.61 Q2787.6 1544.51 2785.5 1547.11 Q2784.92 1547.78 2781.82 1550.99 Q2778.71 1554.19 2773.07 1559.95 Z" fill="#000000" fill-rule="nonzero" fill-opacity="1" /><path clip-path="url(#clip370)" d="M3001.33 1559.95 L3008.97 1559.95 L3008.97 1533.59 L3000.66 1535.25 L3000.66 1530.99 L3008.93 1529.33 L3013.6 1529.33 L3013.6 1559.95 L3021.24 1559.95 L3021.24 1563.89 L3001.33 1563.89 L3001.33 1559.95 Z" fill="#000000" fill-rule="nonzero" fill-opacity="1" /><path clip-path="url(#clip370)" d="M3030.73 1529.33 L3049.09 1529.33 L3049.09 1533.26 L3035.01 1533.26 L3035.01 1541.74 Q3036.03 1541.39 3037.05 1541.23 Q3038.07 1541.04 3039.09 1541.04 Q3044.87 1541.04 3048.25 1544.21 Q3051.63 1547.38 3051.63 1552.8 Q3051.63 1558.38 3048.16 1561.48 Q3044.69 1564.56 3038.37 1564.56 Q3036.19 1564.56 3033.93 1564.19 Q3031.68 1563.82 3029.27 1563.08 L3029.27 1558.38 Q3031.36 1559.51 3033.58 1560.07 Q3035.8 1560.62 3038.28 1560.62 Q3042.28 1560.62 3044.62 1558.52 Q3046.96 1556.41 3046.96 1552.8 Q3046.96 1549.19 3044.62 1547.08 Q3042.28 1544.98 3038.28 1544.98 Q3036.4 1544.98 3034.53 1545.39 Q3032.68 1545.81 3030.73 1546.69 L3030.73 1529.33 Z" fill="#000000" fill-rule="nonzero" fill-opacity="1" /><polyline clip-path="url(#clip373)" style="stroke:#000000; stroke-linecap:round; stroke-linejoin:round; stroke-width:2; stroke-opacity:0.1; fill:none" points="1764.44,1291.61 3152.76,1291.61 "/>
<polyline clip-path="url(#clip373)" style="stroke:#000000; stroke-linecap:round; stroke-linejoin:round; stroke-width:2; stroke-opacity:0.1; fill:none" points="1764.44,966.597 3152.76,966.597 "/>
<polyline clip-path="url(#clip373)" style="stroke:#000000; stroke-linecap:round; stroke-linejoin:round; stroke-width:2; stroke-opacity:0.1; fill:none" points="1764.44,641.587 3152.76,641.587 "/>
<polyline clip-path="url(#clip373)" style="stroke:#000000; stroke-linecap:round; stroke-linejoin:round; stroke-width:2; stroke-opacity:0.1; fill:none" points="1764.44,316.577 3152.76,316.577 "/>
<polyline clip-path="url(#clip370)" style="stroke:#000000; stroke-linecap:round; stroke-linejoin:round; stroke-width:4; stroke-opacity:1; fill:none" points="1764.44,1495.09 1764.44,47.2441 "/>
<polyline clip-path="url(#clip370)" style="stroke:#000000; stroke-linecap:round; stroke-linejoin:round; stroke-width:4; stroke-opacity:1; fill:none" points="1764.44,1291.61 1783.33,1291.61 "/>
<polyline clip-path="url(#clip370)" style="stroke:#000000; stroke-linecap:round; stroke-linejoin:round; stroke-width:4; stroke-opacity:1; fill:none" points="1764.44,966.597 1783.33,966.597 "/>
<polyline clip-path="url(#clip370)" style="stroke:#000000; stroke-linecap:round; stroke-linejoin:round; stroke-width:4; stroke-opacity:1; fill:none" points="1764.44,641.587 1783.33,641.587 "/>
<polyline clip-path="url(#clip370)" style="stroke:#000000; stroke-linecap:round; stroke-linejoin:round; stroke-width:4; stroke-opacity:1; fill:none" points="1764.44,316.577 1783.33,316.577 "/>
<path clip-path="url(#clip370)" d="M1658.77 1277.41 Q1655.16 1277.41 1653.33 1280.97 Q1651.53 1284.51 1651.53 1291.64 Q1651.53 1298.75 1653.33 1302.31 Q1655.16 1305.85 1658.77 1305.85 Q1662.41 1305.85 1664.21 1302.31 Q1666.04 1298.75 1666.04 1291.64 Q1666.04 1284.51 1664.21 1280.97 Q1662.41 1277.41 1658.77 1277.41 M1658.77 1273.7 Q1664.58 1273.7 1667.64 1278.31 Q1670.72 1282.89 1670.72 1291.64 Q1670.72 1300.37 1667.64 1304.97 Q1664.58 1309.56 1658.77 1309.56 Q1652.96 1309.56 1649.89 1304.97 Q1646.83 1300.37 1646.83 1291.64 Q1646.83 1282.89 1649.89 1278.31 Q1652.96 1273.7 1658.77 1273.7 Z" fill="#000000" fill-rule="nonzero" fill-opacity="1" /><path clip-path="url(#clip370)" d="M1678.94 1303.01 L1683.82 1303.01 L1683.82 1308.89 L1678.94 1308.89 L1678.94 1303.01 Z" fill="#000000" fill-rule="nonzero" fill-opacity="1" /><path clip-path="url(#clip370)" d="M1706.85 1278.4 L1695.05 1296.85 L1706.85 1296.85 L1706.85 1278.4 M1705.63 1274.33 L1711.51 1274.33 L1711.51 1296.85 L1716.44 1296.85 L1716.44 1300.74 L1711.51 1300.74 L1711.51 1308.89 L1706.85 1308.89 L1706.85 1300.74 L1691.25 1300.74 L1691.25 1296.22 L1705.63 1274.33 Z" fill="#000000" fill-rule="nonzero" fill-opacity="1" /><path clip-path="url(#clip370)" d="M1659.1 952.395 Q1655.49 952.395 1653.66 955.96 Q1651.85 959.502 1651.85 966.631 Q1651.85 973.738 1653.66 977.303 Q1655.49 980.844 1659.1 980.844 Q1662.73 980.844 1664.54 977.303 Q1666.37 973.738 1666.37 966.631 Q1666.37 959.502 1664.54 955.96 Q1662.73 952.395 1659.1 952.395 M1659.1 948.692 Q1664.91 948.692 1667.96 953.298 Q1671.04 957.881 1671.04 966.631 Q1671.04 975.358 1667.96 979.965 Q1664.91 984.548 1659.1 984.548 Q1653.29 984.548 1650.21 979.965 Q1647.15 975.358 1647.15 966.631 Q1647.15 957.881 1650.21 953.298 Q1653.29 948.692 1659.1 948.692 Z" fill="#000000" fill-rule="nonzero" fill-opacity="1" /><path clip-path="url(#clip370)" d="M1679.26 977.997 L1684.14 977.997 L1684.14 983.877 L1679.26 983.877 L1679.26 977.997 Z" fill="#000000" fill-rule="nonzero" fill-opacity="1" /><path clip-path="url(#clip370)" d="M1704.91 964.733 Q1701.76 964.733 1699.91 966.886 Q1698.08 969.039 1698.08 972.789 Q1698.08 976.516 1699.91 978.692 Q1701.76 980.844 1704.91 980.844 Q1708.06 980.844 1709.89 978.692 Q1711.74 976.516 1711.74 972.789 Q1711.74 969.039 1709.89 966.886 Q1708.06 964.733 1704.91 964.733 M1714.19 950.081 L1714.19 954.34 Q1712.43 953.506 1710.63 953.067 Q1708.84 952.627 1707.08 952.627 Q1702.45 952.627 1700 955.752 Q1697.57 958.877 1697.22 965.196 Q1698.59 963.182 1700.65 962.118 Q1702.71 961.03 1705.19 961.03 Q1710.39 961.03 1713.4 964.201 Q1716.44 967.349 1716.44 972.789 Q1716.44 978.113 1713.29 981.33 Q1710.14 984.548 1704.91 984.548 Q1698.91 984.548 1695.74 979.965 Q1692.57 975.358 1692.57 966.631 Q1692.57 958.437 1696.46 953.576 Q1700.35 948.692 1706.9 948.692 Q1708.66 948.692 1710.44 949.039 Q1712.25 949.386 1714.19 950.081 Z" fill="#000000" fill-rule="nonzero" fill-opacity="1" /><path clip-path="url(#clip370)" d="M1659.35 627.386 Q1655.74 627.386 1653.91 630.951 Q1652.11 634.492 1652.11 641.622 Q1652.11 648.728 1653.91 652.293 Q1655.74 655.835 1659.35 655.835 Q1662.99 655.835 1664.79 652.293 Q1666.62 648.728 1666.62 641.622 Q1666.62 634.492 1664.79 630.951 Q1662.99 627.386 1659.35 627.386 M1659.35 623.682 Q1665.16 623.682 1668.22 628.288 Q1671.3 632.872 1671.3 641.622 Q1671.3 650.349 1668.22 654.955 Q1665.16 659.538 1659.35 659.538 Q1653.54 659.538 1650.46 654.955 Q1647.41 650.349 1647.41 641.622 Q1647.41 632.872 1650.46 628.288 Q1653.54 623.682 1659.35 623.682 Z" fill="#000000" fill-rule="nonzero" fill-opacity="1" /><path clip-path="url(#clip370)" d="M1679.52 652.987 L1684.4 652.987 L1684.4 658.867 L1679.52 658.867 L1679.52 652.987 Z" fill="#000000" fill-rule="nonzero" fill-opacity="1" /><path clip-path="url(#clip370)" d="M1704.58 642.455 Q1701.25 642.455 1699.33 644.237 Q1697.43 646.02 1697.43 649.145 Q1697.43 652.27 1699.33 654.052 Q1701.25 655.835 1704.58 655.835 Q1707.92 655.835 1709.84 654.052 Q1711.76 652.247 1711.76 649.145 Q1711.76 646.02 1709.84 644.237 Q1707.94 642.455 1704.58 642.455 M1699.91 640.464 Q1696.9 639.724 1695.21 637.663 Q1693.54 635.603 1693.54 632.64 Q1693.54 628.497 1696.48 626.089 Q1699.45 623.682 1704.58 623.682 Q1709.75 623.682 1712.69 626.089 Q1715.63 628.497 1715.63 632.64 Q1715.63 635.603 1713.94 637.663 Q1712.27 639.724 1709.28 640.464 Q1712.66 641.251 1714.54 643.543 Q1716.44 645.835 1716.44 649.145 Q1716.44 654.168 1713.36 656.853 Q1710.3 659.538 1704.58 659.538 Q1698.87 659.538 1695.79 656.853 Q1692.73 654.168 1692.73 649.145 Q1692.73 645.835 1694.63 643.543 Q1696.53 641.251 1699.91 640.464 M1698.2 633.08 Q1698.2 635.765 1699.86 637.27 Q1701.55 638.775 1704.58 638.775 Q1707.59 638.775 1709.28 637.27 Q1711 635.765 1711 633.08 Q1711 630.395 1709.28 628.89 Q1707.59 627.386 1704.58 627.386 Q1701.55 627.386 1699.86 628.89 Q1698.2 630.395 1698.2 633.08 Z" fill="#000000" fill-rule="nonzero" fill-opacity="1" /><path clip-path="url(#clip370)" d="M1650.07 329.922 L1657.71 329.922 L1657.71 303.557 L1649.4 305.223 L1649.4 300.964 L1657.66 299.297 L1662.34 299.297 L1662.34 329.922 L1669.98 329.922 L1669.98 333.857 L1650.07 333.857 L1650.07 329.922 Z" fill="#000000" fill-rule="nonzero" fill-opacity="1" /><path clip-path="url(#clip370)" d="M1679.42 327.978 L1684.31 327.978 L1684.31 333.857 L1679.42 333.857 L1679.42 327.978 Z" fill="#000000" fill-rule="nonzero" fill-opacity="1" /><path clip-path="url(#clip370)" d="M1704.49 302.376 Q1700.88 302.376 1699.05 305.941 Q1697.25 309.483 1697.25 316.612 Q1697.25 323.719 1699.05 327.283 Q1700.88 330.825 1704.49 330.825 Q1708.13 330.825 1709.93 327.283 Q1711.76 323.719 1711.76 316.612 Q1711.76 309.483 1709.93 305.941 Q1708.13 302.376 1704.49 302.376 M1704.49 298.672 Q1710.3 298.672 1713.36 303.279 Q1716.44 307.862 1716.44 316.612 Q1716.44 325.339 1713.36 329.945 Q1710.3 334.529 1704.49 334.529 Q1698.68 334.529 1695.6 329.945 Q1692.55 325.339 1692.55 316.612 Q1692.55 307.862 1695.6 303.279 Q1698.68 298.672 1704.49 298.672 Z" fill="#000000" fill-rule="nonzero" fill-opacity="1" /><polyline clip-path="url(#clip373)" style="stroke:#009af9; stroke-linecap:round; stroke-linejoin:round; stroke-width:4; stroke-opacity:1; fill:none" points="1803.73,1454.11 1891.04,1021.65 1978.36,596.679 2065.68,259.573 2152.99,88.2208 2240.31,180.542 2327.62,699.039 "/>
<path clip-path="url(#clip370)" d="M1810.71 199.186 L1990.15 199.186 L1990.15 95.5056 L1810.71 95.5056  Z" fill="#ffffff" fill-rule="evenodd" fill-opacity="1"/>
<polyline clip-path="url(#clip370)" style="stroke:#000000; stroke-linecap:round; stroke-linejoin:round; stroke-width:4; stroke-opacity:1; fill:none" points="1810.71,199.186 1990.15,199.186 1990.15,95.5056 1810.71,95.5056 1810.71,199.186 "/>
<polyline clip-path="url(#clip370)" style="stroke:#009af9; stroke-linecap:round; stroke-linejoin:round; stroke-width:4; stroke-opacity:1; fill:none" points="1826.14,147.346 1918.69,147.346 "/>
<path clip-path="url(#clip370)" d="M1934.12 128.607 L1938.4 128.607 L1938.4 149.88 L1951.11 138.7 L1956.55 138.7 L1942.8 150.829 L1957.13 164.626 L1951.57 164.626 L1938.4 151.964 L1938.4 164.626 L1934.12 164.626 L1934.12 128.607 Z" fill="#000000" fill-rule="nonzero" fill-opacity="1" /><path clip-path="url(#clip370)" d="M1965.95 131.339 L1965.95 138.7 L1974.72 138.7 L1974.72 142.01 L1965.95 142.01 L1965.95 156.084 Q1965.95 159.255 1966.8 160.158 Q1967.68 161.061 1970.35 161.061 L1974.72 161.061 L1974.72 164.626 L1970.35 164.626 Q1965.42 164.626 1963.54 162.797 Q1961.67 160.945 1961.67 156.084 L1961.67 142.01 L1958.54 142.01 L1958.54 138.7 L1961.67 138.7 L1961.67 131.339 L1965.95 131.339 Z" fill="#000000" fill-rule="nonzero" fill-opacity="1" /></svg>