<?xml version="1.0" encoding="utf-8"?>
<svg xmlns="http://www.w3.org/2000/svg" xmlns:xlink="http://www.w3.org/1999/xlink" width="600" height="400" viewBox="0 0 2400 1600">
<defs>
  <clipPath id="clip550">
    <rect x="0" y="0" width="2400" height="1600"/>
  </clipPath>
</defs>
<path clip-path="url(#clip550)" d="M0 1600 L2400 1600 L2400 0 L0 0  Z" fill="#ffffff" fill-rule="evenodd" fill-opacity="1"/>
<defs>
  <clipPath id="clip551">
    <rect x="480" y="0" width="1681" height="1600"/>
  </clipPath>
</defs>
<path clip-path="url(#clip550)" d="M184.191 1486.45 L2352.76 1486.45 L2352.76 47.2441 L184.191 47.2441  Z" fill="#ffffff" fill-rule="evenodd" fill-opacity="1"/>
<defs>
  <clipPath id="clip552">
    <rect x="184" y="47" width="2170" height="1440"/>
  </clipPath>
</defs>
<polyline clip-path="url(#clip552)" style="stroke:#000000; stroke-linecap:round; stroke-linejoin:round; stroke-width:2; stroke-opacity:0.1; fill:none" points="518.341,1486.45 518.341,47.2441 "/>
<polyline clip-path="url(#clip552)" style="stroke:#000000; stroke-linecap:round; stroke-linejoin:round; stroke-width:2; stroke-opacity:0.1; fill:none" points="927.504,1486.45 927.504,47.2441 "/>
<polyline clip-path="url(#clip552)" style="stroke:#000000; stroke-linecap:round; stroke-linejoin:round; stroke-width:2; stroke-opacity:0.1; fill:none" points="1336.67,1486.45 1336.67,47.2441 "/>
<polyline clip-path="url(#clip552)" style="stroke:#000000; stroke-linecap:round; stroke-linejoin:round; stroke-width:2; stroke-opacity:0.1; fill:none" points="1745.83,1486.45 1745.83,47.2441 "/>
<polyline clip-path="url(#clip552)" style="stroke:#000000; stroke-linecap:round; stroke-linejoin:round; stroke-width:2; stroke-opacity:0.1; fill:none" points="2154.99,1486.45 2154.99,47.2441 "/>
<polyline clip-path="url(#clip550)" style="stroke:#000000; stroke-linecap:round; stroke-linejoin:round; stroke-width:4; stroke-opacity:1; fill:none" points="184.191,1486.45 2352.76,1486.45 "/>
<polyline clip-path="url(#clip550)" style="stroke:#000000; stroke-linecap:round; stroke-linejoin:round; stroke-width:4; stroke-opacity:1; fill:none" points="518.341,1486.45 518.341,1467.55 "/>
<polyline clip-path="url(#clip550)" style="stroke:#000000; stroke-linecap:round; stroke-linejoin:round; stroke-width:4; stroke-opacity:1; fill:none" points="927.504,1486.45 927.504,1467.55 "/>
<polyline clip-path="url(#clip550)" style="stroke:#000000; stroke-linecap:round; stroke-linejoin:round; stroke-width:4; stroke-opacity:1; fill:none" points="1336.67,1486.45 1336.67,1467.55 "/>
<polyline clip-path="url(#clip550)" style="stroke:#000000; stroke-linecap:round; stroke-linejoin:round; stroke-width:4; stroke-opacity:1; fill:none" points="1745.83,1486.45 1745.83,1467.55 "/>
<polyline clip-path="url(#clip550)" style="stroke:#000000; stroke-linecap:round; stroke-linejoin:round; stroke-width:4; stroke-opacity:1; fill:none" points="2154.99,1486.45 2154.99,1467.55 "/>
<path clip-path="url(#clip550)" d="M522.588 1530.21 Q525.945 1530.93 527.82 1533.2 Q529.718 1535.47 529.718 1538.8 Q529.718 1543.92 526.199 1546.72 Q522.681 1549.52 516.199 1549.52 Q514.024 1549.52 511.709 1549.08 Q509.417 1548.66 506.963 1547.81 L506.963 1543.29 Q508.908 1544.43 511.223 1545.01 Q513.537 1545.58 516.061 1545.58 Q520.459 1545.58 522.75 1543.85 Q525.065 1542.11 525.065 1538.8 Q525.065 1535.75 522.912 1534.03 Q520.783 1532.3 516.963 1532.3 L512.936 1532.3 L512.936 1528.45 L517.149 1528.45 Q520.598 1528.45 522.426 1527.09 Q524.255 1525.7 524.255 1523.11 Q524.255 1520.45 522.357 1519.03 Q520.482 1517.6 516.963 1517.6 Q515.042 1517.6 512.843 1518.01 Q510.644 1518.43 508.005 1519.31 L508.005 1515.14 Q510.667 1514.4 512.982 1514.03 Q515.32 1513.66 517.38 1513.66 Q522.704 1513.66 525.806 1516.09 Q528.908 1518.5 528.908 1522.62 Q528.908 1525.49 527.264 1527.48 Q525.621 1529.45 522.588 1530.21 Z" fill="#000000" fill-rule="nonzero" fill-opacity="1" /><path clip-path="url(#clip550)" d="M927.909 1529.7 Q924.761 1529.7 922.909 1531.86 Q921.08 1534.01 921.08 1537.76 Q921.08 1541.49 922.909 1543.66 Q924.761 1545.82 927.909 1545.82 Q931.057 1545.82 932.886 1543.66 Q934.738 1541.49 934.738 1537.76 Q934.738 1534.01 932.886 1531.86 Q931.057 1529.7 927.909 1529.7 M937.191 1515.05 L937.191 1519.31 Q935.432 1518.48 933.627 1518.04 Q931.844 1517.6 930.085 1517.6 Q925.455 1517.6 923.002 1520.72 Q920.571 1523.85 920.224 1530.17 Q921.59 1528.15 923.65 1527.09 Q925.71 1526 928.187 1526 Q933.395 1526 936.404 1529.17 Q939.437 1532.32 939.437 1537.76 Q939.437 1543.08 936.289 1546.3 Q933.14 1549.52 927.909 1549.52 Q921.914 1549.52 918.742 1544.94 Q915.571 1540.33 915.571 1531.6 Q915.571 1523.41 919.46 1518.55 Q923.349 1513.66 929.9 1513.66 Q931.659 1513.66 933.441 1514.01 Q935.247 1514.36 937.191 1515.05 Z" fill="#000000" fill-rule="nonzero" fill-opacity="1" /><path clip-path="url(#clip550)" d="M1326.97 1548.13 L1326.97 1543.87 Q1328.73 1544.7 1330.53 1545.14 Q1332.34 1545.58 1334.07 1545.58 Q1338.7 1545.58 1341.13 1542.48 Q1343.59 1539.36 1343.94 1533.01 Q1342.59 1535.01 1340.53 1536.07 Q1338.47 1537.13 1335.97 1537.13 Q1330.79 1537.13 1327.76 1534.01 Q1324.75 1530.86 1324.75 1525.42 Q1324.75 1520.1 1327.89 1516.88 Q1331.04 1513.66 1336.27 1513.66 Q1342.27 1513.66 1345.42 1518.27 Q1348.59 1522.85 1348.59 1531.6 Q1348.59 1539.77 1344.7 1544.66 Q1340.83 1549.52 1334.28 1549.52 Q1332.52 1549.52 1330.72 1549.17 Q1328.91 1548.82 1326.97 1548.13 M1336.27 1533.48 Q1339.42 1533.48 1341.25 1531.32 Q1343.1 1529.17 1343.1 1525.42 Q1343.1 1521.7 1341.25 1519.54 Q1339.42 1517.37 1336.27 1517.37 Q1333.13 1517.37 1331.27 1519.54 Q1329.44 1521.7 1329.44 1525.42 Q1329.44 1529.17 1331.27 1531.32 Q1333.13 1533.48 1336.27 1533.48 Z" fill="#000000" fill-rule="nonzero" fill-opacity="1" /><path clip-path="url(#clip550)" d="M1721.32 1544.91 L1728.96 1544.91 L1728.96 1518.55 L1720.65 1520.21 L1720.65 1515.95 L1728.91 1514.29 L1733.59 1514.29 L1733.59 1544.91 L1741.22 1544.91 L1741.22 1548.85 L1721.32 1548.85 L1721.32 1544.91 Z" fill="#000000" fill-rule="nonzero" fill-opacity="1" /><path clip-path="url(#clip550)" d="M1754.7 1544.91 L1771.02 1544.91 L1771.02 1548.85 L1749.07 1548.85 L1749.07 1544.91 Q1751.73 1542.16 1756.32 1537.53 Q1760.92 1532.88 1762.1 1531.53 Q1764.35 1529.01 1765.23 1527.27 Q1766.13 1525.51 1766.13 1523.82 Q1766.13 1521.07 1764.19 1519.33 Q1762.27 1517.6 1759.16 1517.6 Q1756.96 1517.6 1754.51 1518.36 Q1752.08 1519.13 1749.3 1520.68 L1749.3 1515.95 Q1752.13 1514.82 1754.58 1514.24 Q1757.03 1513.66 1759.07 1513.66 Q1764.44 1513.66 1767.64 1516.35 Q1770.83 1519.03 1770.83 1523.52 Q1770.83 1525.65 1770.02 1527.57 Q1769.23 1529.47 1767.13 1532.07 Q1766.55 1532.74 1763.45 1535.95 Q1760.34 1539.15 1754.7 1544.91 Z" fill="#000000" fill-rule="nonzero" fill-opacity="1" /><path clip-path="url(#clip550)" d="M2130.18 1544.91 L2137.82 1544.91 L2137.82 1518.55 L2129.51 1520.21 L2129.51 1515.95 L2137.77 1514.29 L2142.45 1514.29 L2142.45 1544.91 L2150.09 1544.91 L2150.09 1548.85 L2130.18 1548.85 L2130.18 1544.91 Z" fill="#000000" fill-rule="nonzero" fill-opacity="1" /><path clip-path="url(#clip550)" d="M2159.58 1514.29 L2177.93 1514.29 L2177.93 1518.22 L2163.86 1518.22 L2163.86 1526.7 Q2164.88 1526.35 2165.9 1526.19 Q2166.91 1526 2167.93 1526 Q2173.72 1526 2177.1 1529.17 Q2180.48 1532.34 2180.48 1537.76 Q2180.48 1543.34 2177.01 1546.44 Q2173.54 1549.52 2167.22 1549.52 Q2165.04 1549.52 2162.77 1549.15 Q2160.53 1548.78 2158.12 1548.04 L2158.12 1543.34 Q2160.2 1544.47 2162.42 1545.03 Q2164.65 1545.58 2167.12 1545.58 Q2171.13 1545.58 2173.47 1543.48 Q2175.8 1541.37 2175.8 1537.76 Q2175.8 1534.15 2173.47 1532.04 Q2171.13 1529.94 2167.12 1529.94 Q2165.25 1529.94 2163.37 1530.35 Q2161.52 1530.77 2159.58 1531.65 L2159.58 1514.29 Z" fill="#000000" fill-rule="nonzero" fill-opacity="1" /><polyline clip-path="url(#clip552)" style="stroke:#000000; stroke-linecap:round; stroke-linejoin:round; stroke-width:2; stroke-opacity:0.1; fill:none" points="184.191,1445.72 2352.76,1445.72 "/>
<polyline clip-path="url(#clip552)" style="stroke:#000000; stroke-linecap:round; stroke-linejoin:round; stroke-width:2; stroke-opacity:0.1; fill:none" points="184.191,1164.64 2352.76,1164.64 "/>
<polyline clip-path="url(#clip552)" style="stroke:#000000; stroke-linecap:round; stroke-linejoin:round; stroke-width:2; stroke-opacity:0.1; fill:none" points="184.191,883.566 2352.76,883.566 "/>
<polyline clip-path="url(#clip552)" style="stroke:#000000; stroke-linecap:round; stroke-linejoin:round; stroke-width:2; stroke-opacity:0.1; fill:none" points="184.191,602.491 2352.76,602.491 "/>
<polyline clip-path="url(#clip552)" style="stroke:#000000; stroke-linecap:round; stroke-linejoin:round; stroke-width:2; stroke-opacity:0.1; fill:none" points="184.191,321.415 2352.76,321.415 "/>
<polyline clip-path="url(#clip550)" style="stroke:#000000; stroke-linecap:round; stroke-linejoin:round; stroke-width:4; stroke-opacity:1; fill:none" points="184.191,1486.45 184.191,47.2441 "/>
<polyline clip-path="url(#clip550)" style="stroke:#000000; stroke-linecap:round; stroke-linejoin:round; stroke-width:4; stroke-opacity:1; fill:none" points="184.191,1445.72 203.088,1445.72 "/>
<polyline clip-path="url(#clip550)" style="stroke:#000000; stroke-linecap:round; stroke-linejoin:round; stroke-width:4; stroke-opacity:1; fill:none" points="184.191,1164.64 203.088,1164.64 "/>
<polyline clip-path="url(#clip550)" style="stroke:#000000; stroke-linecap:round; stroke-linejoin:round; stroke-width:4; stroke-opacity:1; fill:none" points="184.191,883.566 203.088,883.566 "/>
<polyline clip-path="url(#clip550)" style="stroke:#000000; stroke-linecap:round; stroke-linejoin:round; stroke-width:4; stroke-opacity:1; fill:none" points="184.191,602.491 203.088,602.491 "/>
<polyline clip-path="url(#clip550)" style="stroke:#000000; stroke-linecap:round; stroke-linejoin:round; stroke-width:4; stroke-opacity:1; fill:none" points="184.191,321.415 203.088,321.415 "/>
<path clip-path="url(#clip550)" d="M91.0151 1431.51 Q87.404 1431.51 85.5753 1435.08 Q83.7697 1438.62 83.7697 1445.75 Q83.7697 1452.86 85.5753 1456.42 Q87.404 1459.96 91.0151 1459.96 Q94.6493 1459.96 96.4548 1456.42 Q98.2835 1452.86 98.2835 1445.75 Q98.2835 1438.62 96.4548 1435.08 Q94.6493 1431.51 91.0151 1431.51 M91.0151 1427.81 Q96.8252 1427.81 99.8808 1432.42 Q102.959 1437 102.959 1445.75 Q102.959 1454.48 99.8808 1459.08 Q96.8252 1463.67 91.0151 1463.67 Q85.2049 1463.67 82.1262 1459.08 Q79.0707 1454.48 79.0707 1445.75 Q79.0707 1437 82.1262 1432.42 Q85.2049 1427.81 91.0151 1427.81 Z" fill="#000000" fill-rule="nonzero" fill-opacity="1" /><path clip-path="url(#clip550)" d="M111.177 1457.12 L116.061 1457.12 L116.061 1463 L111.177 1463 L111.177 1457.12 Z" fill="#000000" fill-rule="nonzero" fill-opacity="1" /><path clip-path="url(#clip550)" d="M136.246 1431.51 Q132.635 1431.51 130.807 1435.08 Q129.001 1438.62 129.001 1445.75 Q129.001 1452.86 130.807 1456.42 Q132.635 1459.96 136.246 1459.96 Q139.881 1459.96 141.686 1456.42 Q143.515 1452.86 143.515 1445.75 Q143.515 1438.62 141.686 1435.08 Q139.881 1431.51 136.246 1431.51 M136.246 1427.81 Q142.056 1427.81 145.112 1432.42 Q148.191 1437 148.191 1445.75 Q148.191 1454.48 145.112 1459.08 Q142.056 1463.67 136.246 1463.67 Q130.436 1463.67 127.357 1459.08 Q124.302 1454.48 124.302 1445.75 Q124.302 1437 127.357 1432.42 Q130.436 1427.81 136.246 1427.81 Z" fill="#000000" fill-rule="nonzero" fill-opacity="1" /><path clip-path="url(#clip550)" d="M86.0382 1177.99 L102.358 1177.99 L102.358 1181.92 L80.4133 1181.92 L80.4133 1177.99 Q83.0753 1175.23 87.6586 1170.6 Q92.2651 1165.95 93.4456 1164.61 Q95.691 1162.08 96.5706 1160.35 Q97.4734 1158.59 97.4734 1156.9 Q97.4734 1154.14 95.5289 1152.41 Q93.6076 1150.67 90.5058 1150.67 Q88.3067 1150.67 85.8531 1151.43 Q83.4225 1152.2 80.6447 1153.75 L80.6447 1149.03 Q83.4688 1147.89 85.9225 1147.31 Q88.3762 1146.74 90.4132 1146.74 Q95.7836 1146.74 98.978 1149.42 Q102.172 1152.11 102.172 1156.6 Q102.172 1158.73 101.362 1160.65 Q100.575 1162.55 98.4687 1165.14 Q97.89 1165.81 94.7882 1169.03 Q91.6864 1172.22 86.0382 1177.99 Z" fill="#000000" fill-rule="nonzero" fill-opacity="1" /><path clip-path="url(#clip550)" d="M112.172 1176.04 L117.057 1176.04 L117.057 1181.92 L112.172 1181.92 L112.172 1176.04 Z" fill="#000000" fill-rule="nonzero" fill-opacity="1" /><path clip-path="url(#clip550)" d="M127.288 1147.36 L145.644 1147.36 L145.644 1151.3 L131.57 1151.3 L131.57 1159.77 Q132.589 1159.42 133.607 1159.26 Q134.626 1159.07 135.644 1159.07 Q141.431 1159.07 144.811 1162.24 Q148.191 1165.42 148.191 1170.83 Q148.191 1176.41 144.718 1179.51 Q141.246 1182.59 134.927 1182.59 Q132.751 1182.59 130.482 1182.22 Q128.237 1181.85 125.83 1181.11 L125.83 1176.41 Q127.913 1177.55 130.135 1178.1 Q132.357 1178.66 134.834 1178.66 Q138.839 1178.66 141.177 1176.55 Q143.515 1174.44 143.515 1170.83 Q143.515 1167.22 141.177 1165.12 Q138.839 1163.01 134.834 1163.01 Q132.959 1163.01 131.084 1163.43 Q129.232 1163.84 127.288 1164.72 L127.288 1147.36 Z" fill="#000000" fill-rule="nonzero" fill-opacity="1" /><path clip-path="url(#clip550)" d="M81.0614 866.286 L99.4178 866.286 L99.4178 870.221 L85.3438 870.221 L85.3438 878.693 Q86.3623 878.346 87.3808 878.184 Q88.3993 877.998 89.4178 877.998 Q95.2049 877.998 98.5845 881.17 Q101.964 884.341 101.964 889.758 Q101.964 895.336 98.4919 898.438 Q95.0197 901.517 88.7003 901.517 Q86.5243 901.517 84.2558 901.147 Q82.0105 900.776 79.6031 900.035 L79.6031 895.336 Q81.6864 896.471 83.9086 897.026 Q86.1308 897.582 88.6077 897.582 Q92.6123 897.582 94.9502 895.475 Q97.2882 893.369 97.2882 889.758 Q97.2882 886.147 94.9502 884.04 Q92.6123 881.934 88.6077 881.934 Q86.7327 881.934 84.8577 882.35 Q83.0058 882.767 81.0614 883.647 L81.0614 866.286 Z" fill="#000000" fill-rule="nonzero" fill-opacity="1" /><path clip-path="url(#clip550)" d="M111.177 894.966 L116.061 894.966 L116.061 900.846 L111.177 900.846 L111.177 894.966 Z" fill="#000000" fill-rule="nonzero" fill-opacity="1" /><path clip-path="url(#clip550)" d="M136.246 869.364 Q132.635 869.364 130.807 872.929 Q129.001 876.471 129.001 883.6 Q129.001 890.707 130.807 894.272 Q132.635 897.813 136.246 897.813 Q139.881 897.813 141.686 894.272 Q143.515 890.707 143.515 883.6 Q143.515 876.471 141.686 872.929 Q139.881 869.364 136.246 869.364 M136.246 865.661 Q142.056 865.661 145.112 870.267 Q148.191 874.85 148.191 883.6 Q148.191 892.327 145.112 896.934 Q142.056 901.517 136.246 901.517 Q130.436 901.517 127.357 896.934 Q124.302 892.327 124.302 883.6 Q124.302 874.85 127.357 870.267 Q130.436 865.661 136.246 865.661 Z" fill="#000000" fill-rule="nonzero" fill-opacity="1" /><path clip-path="url(#clip550)" d="M80.8299 585.211 L103.052 585.211 L103.052 587.201 L90.5058 619.771 L85.6216 619.771 L97.4271 589.146 L80.8299 589.146 L80.8299 585.211 Z" fill="#000000" fill-rule="nonzero" fill-opacity="1" /><path clip-path="url(#clip550)" d="M112.172 613.891 L117.057 613.891 L117.057 619.771 L112.172 619.771 L112.172 613.891 Z" fill="#000000" fill-rule="nonzero" fill-opacity="1" /><path clip-path="url(#clip550)" d="M127.288 585.211 L145.644 585.211 L145.644 589.146 L131.57 589.146 L131.57 597.618 Q132.589 597.271 133.607 597.109 Q134.626 596.923 135.644 596.923 Q141.431 596.923 144.811 600.095 Q148.191 603.266 148.191 608.683 Q148.191 614.261 144.718 617.363 Q141.246 620.442 134.927 620.442 Q132.751 620.442 130.482 620.071 Q128.237 619.701 125.83 618.96 L125.83 614.261 Q127.913 615.396 130.135 615.951 Q132.357 616.507 134.834 616.507 Q138.839 616.507 141.177 614.4 Q143.515 612.294 143.515 608.683 Q143.515 605.072 141.177 602.965 Q138.839 600.859 134.834 600.859 Q132.959 600.859 131.084 601.275 Q129.232 601.692 127.288 602.572 L127.288 585.211 Z" fill="#000000" fill-rule="nonzero" fill-opacity="1" /><path clip-path="url(#clip550)" d="M51.6634 334.76 L59.3023 334.76 L59.3023 308.395 L50.9921 310.061 L50.9921 305.802 L59.256 304.135 L63.9319 304.135 L63.9319 334.76 L71.5707 334.76 L71.5707 338.695 L51.6634 338.695 L51.6634 334.76 Z" fill="#000000" fill-rule="nonzero" fill-opacity="1" /><path clip-path="url(#clip550)" d="M91.0151 307.214 Q87.404 307.214 85.5753 310.779 Q83.7697 314.321 83.7697 321.45 Q83.7697 328.557 85.5753 332.121 Q87.404 335.663 91.0151 335.663 Q94.6493 335.663 96.4548 332.121 Q98.2835 328.557 98.2835 321.45 Q98.2835 314.321 96.4548 310.779 Q94.6493 307.214 91.0151 307.214 M91.0151 303.51 Q96.8252 303.51 99.8808 308.117 Q102.959 312.7 102.959 321.45 Q102.959 330.177 99.8808 334.783 Q96.8252 339.367 91.0151 339.367 Q85.2049 339.367 82.1262 334.783 Q79.0707 330.177 79.0707 321.45 Q79.0707 312.7 82.1262 308.117 Q85.2049 303.51 91.0151 303.51 Z" fill="#000000" fill-rule="nonzero" fill-opacity="1" /><path clip-path="url(#clip550)" d="M111.177 332.816 L116.061 332.816 L116.061 338.695 L111.177 338.695 L111.177 332.816 Z" fill="#000000" fill-rule="nonzero" fill-opacity="1" /><path clip-path="url(#clip550)" d="M136.246 307.214 Q132.635 307.214 130.807 310.779 Q129.001 314.321 129.001 321.45 Q129.001 328.557 130.807 332.121 Q132.635 335.663 136.246 335.663 Q139.881 335.663 141.686 332.121 Q143.515 328.557 143.515 321.45 Q143.515 314.321 141.686 310.779 Q139.881 307.214 136.246 307.214 M136.246 303.51 Q142.056 303.51 145.112 308.117 Q148.191 312.7 148.191 321.45 Q148.191 330.177 145.112 334.783 Q142.056 339.367 136.246 339.367 Q130.436 339.367 127.357 334.783 Q124.302 330.177 124.302 321.45 Q124.302 312.7 127.357 308.117 Q130.436 303.51 136.246 303.51 Z" fill="#000000" fill-rule="nonzero" fill-opacity="1" /><circle clip-path="url(#clip552)" cx="2291.38" cy="1445.72" r="14.4" fill="#ff0000" fill-rule="evenodd" fill-opacity="1" stroke="#000000" stroke-opacity="1" stroke-width="3.2"/>
<polyline clip-path="url(#clip552)" style="stroke:#e26f46; stroke-linecap:round; stroke-linejoin:round; stroke-width:2; stroke-opacity:1; fill:none" stroke-dasharray="1, 2" points="2291.38,2925.65 2291.38,-1391.96 "/>
<polyline clip-path="url(#clip552)" style="stroke:#3da44d; stroke-linecap:round; stroke-linejoin:round; stroke-width:8; stroke-opacity:1; fill:none" points="245.565,1344.53 381.953,1306.86 518.341,1271.99 654.728,1242.26 791.116,1219.87 927.504,1207.19 1063.89,1207.16 1200.28,1223.89 1336.67,1263.97 1473.05,1340.11 "/>
<polyline clip-path="url(#clip552)" style="stroke:#c271d2; stroke-linecap:round; stroke-linejoin:round; stroke-width:8; stroke-opacity:1; fill:none" points="245.565,1344.53 381.953,1306.57 518.341,1271.24 654.728,1240.84 791.116,1217.49 927.504,1203.46 1063.89,1201.51 1200.28,1215.43 1336.67,1251.13 1473.05,1319.51 "/>
<polyline clip-path="url(#clip552)" style="stroke:#ac8d18; stroke-linecap:round; stroke-linejoin:round; stroke-width:8; stroke-opacity:1; fill:none" points="245.565,1344.53 381.953,1291.23 518.341,1232.56 654.728,1169.59 791.116,1102.85 927.504,1032.54 1063.89,958.603 1200.28,880.887 1336.67,799.135 1473.05,713.048 1609.44,622.305 1745.83,526.581 1882.22,425.563 2018.61,318.959 2154.99,206.506 2291.38,87.9763 "/>
<polyline clip-path="url(#clip552)" style="stroke:#00a9ad; stroke-linecap:round; stroke-linejoin:round; stroke-width:8; stroke-opacity:1; fill:none" points="245.565,1344.53 381.953,1301.78 518.341,1259.04 654.728,1218.01 791.116,1179.93 927.504,1145.81 1063.89,1116.59 1200.28,1093.15 1336.67,1076.51 1473.05,1067.83 1609.44,1068.6 1745.83,1080.78 1882.22,1107.17 2018.61,1152.04 2154.99,1222.55 2291.38,1333.29 "/>
<polyline clip-path="url(#clip552)" style="stroke:#ed5d92; stroke-linecap:round; stroke-linejoin:round; stroke-width:8; stroke-opacity:1; fill:none" points="245.565,1344.53 381.953,1302.11 518.341,1259.88 654.728,1219.56 791.116,1182.46 927.504,1149.64 1063.89,1122.11 1200.28,1100.87 1336.67,1087.08 1473.05,1082.11 1609.44,1087.77 1745.83,1106.51 1882.22,1141.99 2018.61,1200.1 2154.99,1291.9 2291.38,1445.71 "/>
<path clip-path="url(#clip550)" d="M256.476 406.258 L1186.82 406.258 L1186.82 95.2176 L256.476 95.2176  Z" fill="#ffffff" fill-rule="evenodd" fill-opacity="1"/>
<polyline clip-path="url(#clip550)" style="stroke:#000000; stroke-linecap:round; stroke-linejoin:round; stroke-width:4; stroke-opacity:0; fill:none" points="256.476,406.258 1186.82,406.258 1186.82,95.2176 256.476,95.2176 256.476,406.258 "/>
<polyline clip-path="url(#clip550)" style="stroke:#3da44d; stroke-linecap:round; stroke-linejoin:round; stroke-width:8; stroke-opacity:1; fill:none" points="280.571,147.058 425.142,147.058 "/>
<path clip-path="url(#clip550)" d="M449.238 128.319 L453.52 128.319 L453.52 149.592 L466.228 138.412 L471.668 138.412 L457.918 150.541 L472.247 164.338 L466.691 164.338 L453.52 151.676 L453.52 164.338 L449.238 164.338 L449.238 128.319 Z" fill="#000000" fill-rule="nonzero" fill-opacity="1" /><path clip-path="url(#clip550)" d="M481.066 131.051 L481.066 138.412 L489.839 138.412 L489.839 141.722 L481.066 141.722 L481.066 155.796 Q481.066 158.967 481.923 159.87 Q482.802 160.773 485.464 160.773 L489.839 160.773 L489.839 164.338 L485.464 164.338 Q480.534 164.338 478.659 162.509 Q476.784 160.657 476.784 155.796 L476.784 141.722 L473.659 141.722 L473.659 138.412 L476.784 138.412 L476.784 131.051 L481.066 131.051 Z" fill="#000000" fill-rule="nonzero" fill-opacity="1" /><path clip-path="url(#clip550)" d="M520.742 128.366 Q517.64 133.69 516.135 138.898 Q514.631 144.106 514.631 149.453 Q514.631 154.801 516.135 160.055 Q517.663 165.287 520.742 170.588 L517.038 170.588 Q513.566 165.148 511.83 159.893 Q510.117 154.639 510.117 149.453 Q510.117 144.291 511.83 139.06 Q513.543 133.828 517.038 128.366 L520.742 128.366 Z" fill="#000000" fill-rule="nonzero" fill-opacity="1" /><path clip-path="url(#clip550)" d="M547.663 139.407 L547.663 143.389 Q545.857 142.393 544.029 141.907 Q542.223 141.398 540.371 141.398 Q536.228 141.398 533.936 144.037 Q531.645 146.652 531.645 151.398 Q531.645 156.143 533.936 158.782 Q536.228 161.398 540.371 161.398 Q542.223 161.398 544.029 160.912 Q545.857 160.402 547.663 159.407 L547.663 163.342 Q545.881 164.176 543.959 164.592 Q542.061 165.009 539.908 165.009 Q534.052 165.009 530.603 161.328 Q527.154 157.648 527.154 151.398 Q527.154 145.055 530.626 141.421 Q534.121 137.787 540.186 137.787 Q542.154 137.787 544.029 138.203 Q545.904 138.597 547.663 139.407 Z" fill="#000000" fill-rule="nonzero" fill-opacity="1" /><path clip-path="url(#clip550)" d="M565.672 132.856 Q562.061 132.856 560.232 136.421 Q558.427 139.963 558.427 147.092 Q558.427 154.199 560.232 157.764 Q562.061 161.305 565.672 161.305 Q569.306 161.305 571.112 157.764 Q572.941 154.199 572.941 147.092 Q572.941 139.963 571.112 136.421 Q569.306 132.856 565.672 132.856 M565.672 129.153 Q571.482 129.153 574.538 133.759 Q577.616 138.342 577.616 147.092 Q577.616 155.819 574.538 160.426 Q571.482 165.009 565.672 165.009 Q559.862 165.009 556.783 160.426 Q553.728 155.819 553.728 147.092 Q553.728 138.342 556.783 133.759 Q559.862 129.153 565.672 129.153 Z" fill="#000000" fill-rule="nonzero" fill-opacity="1" /><path clip-path="url(#clip550)" d="M585.788 142.81 L615.464 142.81 L615.464 146.699 L585.788 146.699 L585.788 142.81 M585.788 152.254 L615.464 152.254 L615.464 156.189 L585.788 156.189 L585.788 152.254 Z" fill="#000000" fill-rule="nonzero" fill-opacity="1" /><path clip-path="url(#clip550)" d="M635.556 132.856 Q631.945 132.856 630.116 136.421 Q628.311 139.963 628.311 147.092 Q628.311 154.199 630.116 157.764 Q631.945 161.305 635.556 161.305 Q639.19 161.305 640.996 157.764 Q642.824 154.199 642.824 147.092 Q642.824 139.963 640.996 136.421 Q639.19 132.856 635.556 132.856 M635.556 129.153 Q641.366 129.153 644.422 133.759 Q647.5 138.342 647.5 147.092 Q647.5 155.819 644.422 160.426 Q641.366 165.009 635.556 165.009 Q629.746 165.009 626.667 160.426 Q623.612 155.819 623.612 147.092 Q623.612 138.342 626.667 133.759 Q629.746 129.153 635.556 129.153 Z" fill="#000000" fill-rule="nonzero" fill-opacity="1" /><path clip-path="url(#clip550)" d="M655.718 158.458 L660.602 158.458 L660.602 164.338 L655.718 164.338 L655.718 158.458 Z" fill="#000000" fill-rule="nonzero" fill-opacity="1" /><path clip-path="url(#clip550)" d="M681.366 145.194 Q678.218 145.194 676.366 147.347 Q674.537 149.5 674.537 153.25 Q674.537 156.976 676.366 159.152 Q678.218 161.305 681.366 161.305 Q684.514 161.305 686.343 159.152 Q688.195 156.976 688.195 153.25 Q688.195 149.5 686.343 147.347 Q684.514 145.194 681.366 145.194 M690.648 130.541 L690.648 134.801 Q688.889 133.967 687.083 133.528 Q685.301 133.088 683.542 133.088 Q678.912 133.088 676.459 136.213 Q674.028 139.338 673.681 145.657 Q675.047 143.643 677.107 142.578 Q679.167 141.49 681.644 141.49 Q686.852 141.49 689.861 144.662 Q692.894 147.81 692.894 153.25 Q692.894 158.574 689.746 161.791 Q686.597 165.009 681.366 165.009 Q675.371 165.009 672.199 160.426 Q669.028 155.819 669.028 147.092 Q669.028 138.898 672.917 134.037 Q676.806 129.153 683.357 129.153 Q685.116 129.153 686.898 129.5 Q688.704 129.847 690.648 130.541 Z" fill="#000000" fill-rule="nonzero" fill-opacity="1" /><path clip-path="url(#clip550)" d="M701.759 160.402 L709.398 160.402 L709.398 134.037 L701.088 135.703 L701.088 131.444 L709.352 129.778 L714.028 129.778 L714.028 160.402 L721.667 160.402 L721.667 164.338 L701.759 164.338 L701.759 160.402 Z" fill="#000000" fill-rule="nonzero" fill-opacity="1" /><path clip-path="url(#clip550)" d="M735.139 160.402 L751.458 160.402 L751.458 164.338 L729.514 164.338 L729.514 160.402 Q732.176 157.648 736.759 153.018 Q741.366 148.365 742.546 147.023 Q744.792 144.5 745.671 142.764 Q746.574 141.004 746.574 139.315 Q746.574 136.56 744.629 134.824 Q742.708 133.088 739.606 133.088 Q737.407 133.088 734.954 133.852 Q732.523 134.615 729.745 136.166 L729.745 131.444 Q732.569 130.31 735.023 129.731 Q737.477 129.153 739.514 129.153 Q744.884 129.153 748.079 131.838 Q751.273 134.523 751.273 139.014 Q751.273 141.143 750.463 143.065 Q749.676 144.963 747.569 147.555 Q746.991 148.227 743.889 151.444 Q740.787 154.639 735.139 160.402 Z" fill="#000000" fill-rule="nonzero" fill-opacity="1" /><path clip-path="url(#clip550)" d="M771.273 147.926 Q767.94 147.926 766.018 149.708 Q764.12 151.49 764.12 154.615 Q764.12 157.74 766.018 159.523 Q767.94 161.305 771.273 161.305 Q774.606 161.305 776.527 159.523 Q778.449 157.717 778.449 154.615 Q778.449 151.49 776.527 149.708 Q774.629 147.926 771.273 147.926 M766.597 145.935 Q763.588 145.194 761.898 143.134 Q760.231 141.074 760.231 138.111 Q760.231 133.967 763.171 131.56 Q766.134 129.153 771.273 129.153 Q776.435 129.153 779.375 131.56 Q782.314 133.967 782.314 138.111 Q782.314 141.074 780.625 143.134 Q778.958 145.194 775.972 145.935 Q779.352 146.722 781.227 149.014 Q783.125 151.305 783.125 154.615 Q783.125 159.639 780.046 162.324 Q776.99 165.009 771.273 165.009 Q765.555 165.009 762.477 162.324 Q759.421 159.639 759.421 154.615 Q759.421 151.305 761.319 149.014 Q763.217 146.722 766.597 145.935 M764.884 138.551 Q764.884 141.236 766.551 142.74 Q768.24 144.245 771.273 144.245 Q774.282 144.245 775.972 142.74 Q777.685 141.236 777.685 138.551 Q777.685 135.865 775.972 134.361 Q774.282 132.856 771.273 132.856 Q768.24 132.856 766.551 134.361 Q764.884 135.865 764.884 138.551 Z" fill="#000000" fill-rule="nonzero" fill-opacity="1" /><path clip-path="url(#clip550)" d="M801.435 132.856 Q797.824 132.856 795.995 136.421 Q794.189 139.963 794.189 147.092 Q794.189 154.199 795.995 157.764 Q797.824 161.305 801.435 161.305 Q805.069 161.305 806.875 157.764 Q808.703 154.199 808.703 147.092 Q808.703 139.963 806.875 136.421 Q805.069 132.856 801.435 132.856 M801.435 129.153 Q807.245 129.153 810.3 133.759 Q813.379 138.342 813.379 147.092 Q813.379 155.819 810.3 160.426 Q807.245 165.009 801.435 165.009 Q795.625 165.009 792.546 160.426 Q789.49 155.819 789.49 147.092 Q789.49 138.342 792.546 133.759 Q795.625 129.153 801.435 129.153 Z" fill="#000000" fill-rule="nonzero" fill-opacity="1" /><path clip-path="url(#clip550)" d="M831.597 132.856 Q827.986 132.856 826.157 136.421 Q824.351 139.963 824.351 147.092 Q824.351 154.199 826.157 157.764 Q827.986 161.305 831.597 161.305 Q835.231 161.305 837.036 157.764 Q838.865 154.199 838.865 147.092 Q838.865 139.963 837.036 136.421 Q835.231 132.856 831.597 132.856 M831.597 129.153 Q837.407 129.153 840.462 133.759 Q843.541 138.342 843.541 147.092 Q843.541 155.819 840.462 160.426 Q837.407 165.009 831.597 165.009 Q825.786 165.009 822.708 160.426 Q819.652 155.819 819.652 147.092 Q819.652 138.342 822.708 133.759 Q825.786 129.153 831.597 129.153 Z" fill="#000000" fill-rule="nonzero" fill-opacity="1" /><path clip-path="url(#clip550)" d="M862.337 145.194 Q859.189 145.194 857.337 147.347 Q855.509 149.5 855.509 153.25 Q855.509 156.976 857.337 159.152 Q859.189 161.305 862.337 161.305 Q865.485 161.305 867.314 159.152 Q869.166 156.976 869.166 153.25 Q869.166 149.5 867.314 147.347 Q865.485 145.194 862.337 145.194 M871.62 130.541 L871.62 134.801 Q869.86 133.967 868.055 133.528 Q866.272 133.088 864.513 133.088 Q859.883 133.088 857.43 136.213 Q854.999 139.338 854.652 145.657 Q856.018 143.643 858.078 142.578 Q860.138 141.49 862.615 141.49 Q867.823 141.49 870.833 144.662 Q873.865 147.81 873.865 153.25 Q873.865 158.574 870.717 161.791 Q867.569 165.009 862.337 165.009 Q856.342 165.009 853.171 160.426 Q849.999 155.819 849.999 147.092 Q849.999 138.898 853.888 134.037 Q857.777 129.153 864.328 129.153 Q866.087 129.153 867.87 129.5 Q869.675 129.847 871.62 130.541 Z" fill="#000000" fill-rule="nonzero" fill-opacity="1" /><path clip-path="url(#clip550)" d="M894.768 133.852 L882.962 152.301 L894.768 152.301 L894.768 133.852 M893.541 129.778 L899.42 129.778 L899.42 152.301 L904.351 152.301 L904.351 156.189 L899.42 156.189 L899.42 164.338 L894.768 164.338 L894.768 156.189 L879.166 156.189 L879.166 151.676 L893.541 129.778 Z" fill="#000000" fill-rule="nonzero" fill-opacity="1" /><path clip-path="url(#clip550)" d="M912.129 129.778 L930.485 129.778 L930.485 133.713 L916.411 133.713 L916.411 142.185 Q917.429 141.838 918.448 141.676 Q919.467 141.49 920.485 141.49 Q926.272 141.49 929.652 144.662 Q933.031 147.833 933.031 153.25 Q933.031 158.828 929.559 161.93 Q926.087 165.009 919.767 165.009 Q917.592 165.009 915.323 164.638 Q913.078 164.268 910.67 163.527 L910.67 158.828 Q912.754 159.963 914.976 160.518 Q917.198 161.074 919.675 161.074 Q923.679 161.074 926.017 158.967 Q928.355 156.861 928.355 153.25 Q928.355 149.639 926.017 147.532 Q923.679 145.426 919.675 145.426 Q917.8 145.426 915.925 145.842 Q914.073 146.259 912.129 147.139 L912.129 129.778 Z" fill="#000000" fill-rule="nonzero" fill-opacity="1" /><path clip-path="url(#clip550)" d="M952.244 147.926 Q948.911 147.926 946.99 149.708 Q945.091 151.49 945.091 154.615 Q945.091 157.74 946.99 159.523 Q948.911 161.305 952.244 161.305 Q955.577 161.305 957.499 159.523 Q959.42 157.717 959.42 154.615 Q959.42 151.49 957.499 149.708 Q955.601 147.926 952.244 147.926 M947.568 145.935 Q944.559 145.194 942.869 143.134 Q941.202 141.074 941.202 138.111 Q941.202 133.967 944.142 131.56 Q947.105 129.153 952.244 129.153 Q957.406 129.153 960.346 131.56 Q963.286 133.967 963.286 138.111 Q963.286 141.074 961.596 143.134 Q959.929 145.194 956.943 145.935 Q960.323 146.722 962.198 149.014 Q964.096 151.305 964.096 154.615 Q964.096 159.639 961.017 162.324 Q957.962 165.009 952.244 165.009 Q946.527 165.009 943.448 162.324 Q940.392 159.639 940.392 154.615 Q940.392 151.305 942.29 149.014 Q944.189 146.722 947.568 145.935 M945.855 138.551 Q945.855 141.236 947.522 142.74 Q949.212 144.245 952.244 144.245 Q955.253 144.245 956.943 142.74 Q958.656 141.236 958.656 138.551 Q958.656 135.865 956.943 134.361 Q955.253 132.856 952.244 132.856 Q949.212 132.856 947.522 134.361 Q945.855 135.865 945.855 138.551 Z" fill="#000000" fill-rule="nonzero" fill-opacity="1" /><path clip-path="url(#clip550)" d="M976.434 160.402 L992.753 160.402 L992.753 164.338 L970.809 164.338 L970.809 160.402 Q973.471 157.648 978.054 153.018 Q982.661 148.365 983.841 147.023 Q986.087 144.5 986.966 142.764 Q987.869 141.004 987.869 139.315 Q987.869 136.56 985.924 134.824 Q984.003 133.088 980.901 133.088 Q978.702 133.088 976.249 133.852 Q973.818 134.615 971.04 136.166 L971.04 131.444 Q973.864 130.31 976.318 129.731 Q978.772 129.153 980.809 129.153 Q986.179 129.153 989.374 131.838 Q992.568 134.523 992.568 139.014 Q992.568 141.143 991.758 143.065 Q990.971 144.963 988.864 147.555 Q988.286 148.227 985.184 151.444 Q982.082 154.639 976.434 160.402 Z" fill="#000000" fill-rule="nonzero" fill-opacity="1" /><path clip-path="url(#clip550)" d="M1012.57 147.926 Q1009.23 147.926 1007.31 149.708 Q1005.42 151.49 1005.42 154.615 Q1005.42 157.74 1007.31 159.523 Q1009.23 161.305 1012.57 161.305 Q1015.9 161.305 1017.82 159.523 Q1019.74 157.717 1019.74 154.615 Q1019.74 151.49 1017.82 149.708 Q1015.92 147.926 1012.57 147.926 M1007.89 145.935 Q1004.88 145.194 1003.19 143.134 Q1001.53 141.074 1001.53 138.111 Q1001.53 133.967 1004.47 131.56 Q1007.43 129.153 1012.57 129.153 Q1017.73 129.153 1020.67 131.56 Q1023.61 133.967 1023.61 138.111 Q1023.61 141.074 1021.92 143.134 Q1020.25 145.194 1017.27 145.935 Q1020.65 146.722 1022.52 149.014 Q1024.42 151.305 1024.42 154.615 Q1024.42 159.639 1021.34 162.324 Q1018.29 165.009 1012.57 165.009 Q1006.85 165.009 1003.77 162.324 Q1000.72 159.639 1000.72 154.615 Q1000.72 151.305 1002.61 149.014 Q1004.51 146.722 1007.89 145.935 M1006.18 138.551 Q1006.18 141.236 1007.85 142.74 Q1009.54 144.245 1012.57 144.245 Q1015.58 144.245 1017.27 142.74 Q1018.98 141.236 1018.98 138.551 Q1018.98 135.865 1017.27 134.361 Q1015.58 132.856 1012.57 132.856 Q1009.54 132.856 1007.85 134.361 Q1006.18 135.865 1006.18 138.551 Z" fill="#000000" fill-rule="nonzero" fill-opacity="1" /><path clip-path="url(#clip550)" d="M1036.76 160.402 L1053.08 160.402 L1053.08 164.338 L1031.13 164.338 L1031.13 160.402 Q1033.79 157.648 1038.38 153.018 Q1042.98 148.365 1044.16 147.023 Q1046.41 144.5 1047.29 142.764 Q1048.19 141.004 1048.19 139.315 Q1048.19 136.56 1046.25 134.824 Q1044.33 133.088 1041.23 133.088 Q1039.03 133.088 1036.57 133.852 Q1034.14 134.615 1031.36 136.166 L1031.36 131.444 Q1034.19 130.31 1036.64 129.731 Q1039.1 129.153 1041.13 129.153 Q1046.5 129.153 1049.7 131.838 Q1052.89 134.523 1052.89 139.014 Q1052.89 141.143 1052.08 143.065 Q1051.29 144.963 1049.19 147.555 Q1048.61 148.227 1045.51 151.444 Q1042.41 154.639 1036.76 160.402 Z" fill="#000000" fill-rule="nonzero" fill-opacity="1" /><path clip-path="url(#clip550)" d="M1075.74 133.852 L1063.93 152.301 L1075.74 152.301 L1075.74 133.852 M1074.51 129.778 L1080.39 129.778 L1080.39 152.301 L1085.32 152.301 L1085.32 156.189 L1080.39 156.189 L1080.39 164.338 L1075.74 164.338 L1075.74 156.189 L1060.14 156.189 L1060.14 151.676 L1074.51 129.778 Z" fill="#000000" fill-rule="nonzero" fill-opacity="1" /><path clip-path="url(#clip550)" d="M1091.87 129.778 L1114.1 129.778 L1114.1 131.768 L1101.55 164.338 L1096.66 164.338 L1108.47 133.713 L1091.87 133.713 L1091.87 129.778 Z" fill="#000000" fill-rule="nonzero" fill-opacity="1" /><path clip-path="url(#clip550)" d="M1124.03 160.402 L1131.66 160.402 L1131.66 134.037 L1123.35 135.703 L1123.35 131.444 L1131.62 129.778 L1136.29 129.778 L1136.29 160.402 L1143.93 160.402 L1143.93 164.338 L1124.03 164.338 L1124.03 160.402 Z" fill="#000000" fill-rule="nonzero" fill-opacity="1" /><path clip-path="url(#clip550)" d="M1152.1 128.366 L1155.81 128.366 Q1159.28 133.828 1160.99 139.06 Q1162.73 144.291 1162.73 149.453 Q1162.73 154.639 1160.99 159.893 Q1159.28 165.148 1155.81 170.588 L1152.1 170.588 Q1155.18 165.287 1156.69 160.055 Q1158.22 154.801 1158.22 149.453 Q1158.22 144.106 1156.69 138.898 Q1155.18 133.69 1152.1 128.366 Z" fill="#000000" fill-rule="nonzero" fill-opacity="1" /><polyline clip-path="url(#clip550)" style="stroke:#c271d2; stroke-linecap:round; stroke-linejoin:round; stroke-width:8; stroke-opacity:1; fill:none" points="280.571,198.898 425.142,198.898 "/>
<path clip-path="url(#clip550)" d="M449.238 180.159 L453.52 180.159 L453.52 201.432 L466.228 190.252 L471.668 190.252 L457.918 202.381 L472.247 216.178 L466.691 216.178 L453.52 203.516 L453.52 216.178 L449.238 216.178 L449.238 180.159 Z" fill="#000000" fill-rule="nonzero" fill-opacity="1" /><path clip-path="url(#clip550)" d="M481.066 182.891 L481.066 190.252 L489.839 190.252 L489.839 193.562 L481.066 193.562 L481.066 207.636 Q481.066 210.807 481.923 211.71 Q482.802 212.613 485.464 212.613 L489.839 212.613 L489.839 216.178 L485.464 216.178 Q480.534 216.178 478.659 214.349 Q476.784 212.497 476.784 207.636 L476.784 193.562 L473.659 193.562 L473.659 190.252 L476.784 190.252 L476.784 182.891 L481.066 182.891 Z" fill="#000000" fill-rule="nonzero" fill-opacity="1" /><path clip-path="url(#clip550)" d="M520.742 180.206 Q517.64 185.53 516.135 190.738 Q514.631 195.946 514.631 201.293 Q514.631 206.641 516.135 211.895 Q517.663 217.127 520.742 222.428 L517.038 222.428 Q513.566 216.988 511.83 211.733 Q510.117 206.479 510.117 201.293 Q510.117 196.131 511.83 190.9 Q513.543 185.668 517.038 180.206 L520.742 180.206 Z" fill="#000000" fill-rule="nonzero" fill-opacity="1" /><path clip-path="url(#clip550)" d="M547.663 191.247 L547.663 195.229 Q545.857 194.233 544.029 193.747 Q542.223 193.238 540.371 193.238 Q536.228 193.238 533.936 195.877 Q531.645 198.492 531.645 203.238 Q531.645 207.983 533.936 210.622 Q536.228 213.238 540.371 213.238 Q542.223 213.238 544.029 212.752 Q545.857 212.242 547.663 211.247 L547.663 215.182 Q545.881 216.016 543.959 216.432 Q542.061 216.849 539.908 216.849 Q534.052 216.849 530.603 213.168 Q527.154 209.488 527.154 203.238 Q527.154 196.895 530.626 193.261 Q534.121 189.627 540.186 189.627 Q542.154 189.627 544.029 190.043 Q545.904 190.437 547.663 191.247 Z" fill="#000000" fill-rule="nonzero" fill-opacity="1" /><path clip-path="url(#clip550)" d="M565.672 184.696 Q562.061 184.696 560.232 188.261 Q558.427 191.803 558.427 198.932 Q558.427 206.039 560.232 209.604 Q562.061 213.145 565.672 213.145 Q569.306 213.145 571.112 209.604 Q572.941 206.039 572.941 198.932 Q572.941 191.803 571.112 188.261 Q569.306 184.696 565.672 184.696 M565.672 180.993 Q571.482 180.993 574.538 185.599 Q577.616 190.182 577.616 198.932 Q577.616 207.659 574.538 212.266 Q571.482 216.849 565.672 216.849 Q559.862 216.849 556.783 212.266 Q553.728 207.659 553.728 198.932 Q553.728 190.182 556.783 185.599 Q559.862 180.993 565.672 180.993 Z" fill="#000000" fill-rule="nonzero" fill-opacity="1" /><path clip-path="url(#clip550)" d="M585.788 194.65 L615.464 194.65 L615.464 198.539 L585.788 198.539 L585.788 194.65 M585.788 204.094 L615.464 204.094 L615.464 208.029 L585.788 208.029 L585.788 204.094 Z" fill="#000000" fill-rule="nonzero" fill-opacity="1" /><path clip-path="url(#clip550)" d="M635.556 184.696 Q631.945 184.696 630.116 188.261 Q628.311 191.803 628.311 198.932 Q628.311 206.039 630.116 209.604 Q631.945 213.145 635.556 213.145 Q639.19 213.145 640.996 209.604 Q642.824 206.039 642.824 198.932 Q642.824 191.803 640.996 188.261 Q639.19 184.696 635.556 184.696 M635.556 180.993 Q641.366 180.993 644.422 185.599 Q647.5 190.182 647.5 198.932 Q647.5 207.659 644.422 212.266 Q641.366 216.849 635.556 216.849 Q629.746 216.849 626.667 212.266 Q623.612 207.659 623.612 198.932 Q623.612 190.182 626.667 185.599 Q629.746 180.993 635.556 180.993 Z" fill="#000000" fill-rule="nonzero" fill-opacity="1" /><path clip-path="url(#clip550)" d="M655.718 210.298 L660.602 210.298 L660.602 216.178 L655.718 216.178 L655.718 210.298 Z" fill="#000000" fill-rule="nonzero" fill-opacity="1" /><path clip-path="url(#clip550)" d="M681.366 197.034 Q678.218 197.034 676.366 199.187 Q674.537 201.34 674.537 205.09 Q674.537 208.816 676.366 210.992 Q678.218 213.145 681.366 213.145 Q684.514 213.145 686.343 210.992 Q688.195 208.816 688.195 205.09 Q688.195 201.34 686.343 199.187 Q684.514 197.034 681.366 197.034 M690.648 182.381 L690.648 186.641 Q688.889 185.807 687.083 185.368 Q685.301 184.928 683.542 184.928 Q678.912 184.928 676.459 188.053 Q674.028 191.178 673.681 197.497 Q675.047 195.483 677.107 194.418 Q679.167 193.33 681.644 193.33 Q686.852 193.33 689.861 196.502 Q692.894 199.65 692.894 205.09 Q692.894 210.414 689.746 213.631 Q686.597 216.849 681.366 216.849 Q675.371 216.849 672.199 212.266 Q669.028 207.659 669.028 198.932 Q669.028 190.738 672.917 185.877 Q676.806 180.993 683.357 180.993 Q685.116 180.993 686.898 181.34 Q688.704 181.687 690.648 182.381 Z" fill="#000000" fill-rule="nonzero" fill-opacity="1" /><path clip-path="url(#clip550)" d="M701.759 212.242 L709.398 212.242 L709.398 185.877 L701.088 187.543 L701.088 183.284 L709.352 181.618 L714.028 181.618 L714.028 212.242 L721.667 212.242 L721.667 216.178 L701.759 216.178 L701.759 212.242 Z" fill="#000000" fill-rule="nonzero" fill-opacity="1" /><path clip-path="url(#clip550)" d="M741.111 184.696 Q737.5 184.696 735.671 188.261 Q733.866 191.803 733.866 198.932 Q733.866 206.039 735.671 209.604 Q737.5 213.145 741.111 213.145 Q744.745 213.145 746.551 209.604 Q748.379 206.039 748.379 198.932 Q748.379 191.803 746.551 188.261 Q744.745 184.696 741.111 184.696 M741.111 180.993 Q746.921 180.993 749.977 185.599 Q753.055 190.182 753.055 198.932 Q753.055 207.659 749.977 212.266 Q746.921 216.849 741.111 216.849 Q735.301 216.849 732.222 212.266 Q729.167 207.659 729.167 198.932 Q729.167 190.182 732.222 185.599 Q735.301 180.993 741.111 180.993 Z" fill="#000000" fill-rule="nonzero" fill-opacity="1" /><path clip-path="url(#clip550)" d="M762.083 212.242 L769.722 212.242 L769.722 185.877 L761.412 187.543 L761.412 183.284 L769.676 181.618 L774.352 181.618 L774.352 212.242 L781.99 212.242 L781.99 216.178 L762.083 216.178 L762.083 212.242 Z" fill="#000000" fill-rule="nonzero" fill-opacity="1" /><path clip-path="url(#clip550)" d="M790.254 181.618 L812.476 181.618 L812.476 183.608 L799.93 216.178 L795.046 216.178 L806.851 185.553 L790.254 185.553 L790.254 181.618 Z" fill="#000000" fill-rule="nonzero" fill-opacity="1" /><path clip-path="url(#clip550)" d="M835.763 197.543 Q839.12 198.261 840.995 200.529 Q842.893 202.798 842.893 206.131 Q842.893 211.247 839.374 214.048 Q835.856 216.849 829.374 216.849 Q827.198 216.849 824.884 216.409 Q822.592 215.992 820.138 215.136 L820.138 210.622 Q822.083 211.756 824.398 212.335 Q826.712 212.914 829.236 212.914 Q833.634 212.914 835.925 211.178 Q838.24 209.441 838.24 206.131 Q838.24 203.076 836.087 201.363 Q833.958 199.627 830.138 199.627 L826.111 199.627 L826.111 195.784 L830.323 195.784 Q833.773 195.784 835.601 194.418 Q837.43 193.03 837.43 190.437 Q837.43 187.775 835.532 186.363 Q833.657 184.928 830.138 184.928 Q828.217 184.928 826.018 185.344 Q823.819 185.761 821.18 186.641 L821.18 182.474 Q823.842 181.733 826.157 181.363 Q828.495 180.993 830.555 180.993 Q835.879 180.993 838.981 183.423 Q842.083 185.83 842.083 189.951 Q842.083 192.821 840.439 194.812 Q838.796 196.78 835.763 197.543 Z" fill="#000000" fill-rule="nonzero" fill-opacity="1" /><path clip-path="url(#clip550)" d="M850.578 181.618 L872.8 181.618 L872.8 183.608 L860.254 216.178 L855.37 216.178 L867.175 185.553 L850.578 185.553 L850.578 181.618 Z" fill="#000000" fill-rule="nonzero" fill-opacity="1" /><path clip-path="url(#clip550)" d="M882.059 215.46 L882.059 211.201 Q883.819 212.034 885.624 212.474 Q887.43 212.914 889.166 212.914 Q893.795 212.914 896.226 209.812 Q898.68 206.687 899.027 200.344 Q897.684 202.335 895.624 203.4 Q893.564 204.465 891.064 204.465 Q885.879 204.465 882.846 201.34 Q879.837 198.192 879.837 192.752 Q879.837 187.428 882.985 184.21 Q886.133 180.993 891.365 180.993 Q897.36 180.993 900.508 185.599 Q903.68 190.182 903.68 198.932 Q903.68 207.104 899.791 211.988 Q895.925 216.849 889.374 216.849 Q887.615 216.849 885.809 216.502 Q884.004 216.154 882.059 215.46 M891.365 200.807 Q894.513 200.807 896.342 198.654 Q898.193 196.502 898.193 192.752 Q898.193 189.025 896.342 186.872 Q894.513 184.696 891.365 184.696 Q888.217 184.696 886.365 186.872 Q884.536 189.025 884.536 192.752 Q884.536 196.502 886.365 198.654 Q888.217 200.807 891.365 200.807 Z" fill="#000000" fill-rule="nonzero" fill-opacity="1" /><path clip-path="url(#clip550)" d="M910.902 181.618 L933.124 181.618 L933.124 183.608 L920.578 216.178 L915.693 216.178 L927.499 185.553 L910.902 185.553 L910.902 181.618 Z" fill="#000000" fill-rule="nonzero" fill-opacity="1" /><path clip-path="url(#clip550)" d="M952.823 197.034 Q949.675 197.034 947.823 199.187 Q945.994 201.34 945.994 205.09 Q945.994 208.816 947.823 210.992 Q949.675 213.145 952.823 213.145 Q955.971 213.145 957.8 210.992 Q959.651 208.816 959.651 205.09 Q959.651 201.34 957.8 199.187 Q955.971 197.034 952.823 197.034 M962.105 182.381 L962.105 186.641 Q960.346 185.807 958.54 185.368 Q956.758 184.928 954.999 184.928 Q950.369 184.928 947.915 188.053 Q945.485 191.178 945.138 197.497 Q946.503 195.483 948.564 194.418 Q950.624 193.33 953.101 193.33 Q958.309 193.33 961.318 196.502 Q964.351 199.65 964.351 205.09 Q964.351 210.414 961.202 213.631 Q958.054 216.849 952.823 216.849 Q946.827 216.849 943.656 212.266 Q940.485 207.659 940.485 198.932 Q940.485 190.738 944.374 185.877 Q948.263 180.993 954.814 180.993 Q956.573 180.993 958.355 181.34 Q960.161 181.687 962.105 182.381 Z" fill="#000000" fill-rule="nonzero" fill-opacity="1" /><path clip-path="url(#clip550)" d="M982.406 184.696 Q978.795 184.696 976.966 188.261 Q975.161 191.803 975.161 198.932 Q975.161 206.039 976.966 209.604 Q978.795 213.145 982.406 213.145 Q986.04 213.145 987.846 209.604 Q989.674 206.039 989.674 198.932 Q989.674 191.803 987.846 188.261 Q986.04 184.696 982.406 184.696 M982.406 180.993 Q988.216 180.993 991.272 185.599 Q994.35 190.182 994.35 198.932 Q994.35 207.659 991.272 212.266 Q988.216 216.849 982.406 216.849 Q976.596 216.849 973.517 212.266 Q970.462 207.659 970.462 198.932 Q970.462 190.182 973.517 185.599 Q976.596 180.993 982.406 180.993 Z" fill="#000000" fill-rule="nonzero" fill-opacity="1" /><path clip-path="url(#clip550)" d="M1001.39 181.618 L1023.61 181.618 L1023.61 183.608 L1011.06 216.178 L1006.18 216.178 L1017.98 185.553 L1001.39 185.553 L1001.39 181.618 Z" fill="#000000" fill-rule="nonzero" fill-opacity="1" /><path clip-path="url(#clip550)" d="M1045.58 185.692 L1033.77 204.141 L1045.58 204.141 L1045.58 185.692 M1044.35 181.618 L1050.23 181.618 L1050.23 204.141 L1055.16 204.141 L1055.16 208.029 L1050.23 208.029 L1050.23 216.178 L1045.58 216.178 L1045.58 208.029 L1029.98 208.029 L1029.98 203.516 L1044.35 181.618 Z" fill="#000000" fill-rule="nonzero" fill-opacity="1" /><path clip-path="url(#clip550)" d="M1066.92 212.242 L1083.24 212.242 L1083.24 216.178 L1061.29 216.178 L1061.29 212.242 Q1063.96 209.488 1068.54 204.858 Q1073.15 200.205 1074.33 198.863 Q1076.57 196.34 1077.45 194.604 Q1078.35 192.844 1078.35 191.155 Q1078.35 188.4 1076.41 186.664 Q1074.49 184.928 1071.39 184.928 Q1069.19 184.928 1066.73 185.692 Q1064.3 186.455 1061.53 188.006 L1061.53 183.284 Q1064.35 182.15 1066.8 181.571 Q1069.26 180.993 1071.29 180.993 Q1076.66 180.993 1079.86 183.678 Q1083.05 186.363 1083.05 190.854 Q1083.05 192.983 1082.24 194.905 Q1081.46 196.803 1079.35 199.395 Q1078.77 200.067 1075.67 203.284 Q1072.57 206.479 1066.92 212.242 Z" fill="#000000" fill-rule="nonzero" fill-opacity="1" /><path clip-path="url(#clip550)" d="M1097.08 212.242 L1113.4 212.242 L1113.4 216.178 L1091.46 216.178 L1091.46 212.242 Q1094.12 209.488 1098.7 204.858 Q1103.31 200.205 1104.49 198.863 Q1106.73 196.34 1107.61 194.604 Q1108.52 192.844 1108.52 191.155 Q1108.52 188.4 1106.57 186.664 Q1104.65 184.928 1101.55 184.928 Q1099.35 184.928 1096.9 185.692 Q1094.47 186.455 1091.69 188.006 L1091.69 183.284 Q1094.51 182.15 1096.97 181.571 Q1099.42 180.993 1101.46 180.993 Q1106.83 180.993 1110.02 183.678 Q1113.22 186.363 1113.22 190.854 Q1113.22 192.983 1112.41 194.905 Q1111.62 196.803 1109.51 199.395 Q1108.93 200.067 1105.83 203.284 Q1102.73 206.479 1097.08 212.242 Z" fill="#000000" fill-rule="nonzero" fill-opacity="1" /><path clip-path="url(#clip550)" d="M1121.94 180.206 L1125.65 180.206 Q1129.12 185.668 1130.83 190.9 Q1132.57 196.131 1132.57 201.293 Q1132.57 206.479 1130.83 211.733 Q1129.12 216.988 1125.65 222.428 L1121.94 222.428 Q1125.02 217.127 1126.53 211.895 Q1128.05 206.641 1128.05 201.293 Q1128.05 195.946 1126.53 190.738 Q1125.02 185.53 1121.94 180.206 Z" fill="#000000" fill-rule="nonzero" fill-opacity="1" /><polyline clip-path="url(#clip550)" style="stroke:#ac8d18; stroke-linecap:round; stroke-linejoin:round; stroke-width:8; stroke-opacity:1; fill:none" points="280.571,250.738 425.142,250.738 "/>
<path clip-path="url(#clip550)" d="M449.238 231.999 L453.52 231.999 L453.52 253.272 L466.228 242.092 L471.668 242.092 L457.918 254.221 L472.247 268.018 L466.691 268.018 L453.52 255.356 L453.52 268.018 L449.238 268.018 L449.238 231.999 Z" fill="#000000" fill-rule="nonzero" fill-opacity="1" /><path clip-path="url(#clip550)" d="M481.066 234.731 L481.066 242.092 L489.839 242.092 L489.839 245.402 L481.066 245.402 L481.066 259.476 Q481.066 262.647 481.923 263.55 Q482.802 264.453 485.464 264.453 L489.839 264.453 L489.839 268.018 L485.464 268.018 Q480.534 268.018 478.659 266.189 Q476.784 264.337 476.784 259.476 L476.784 245.402 L473.659 245.402 L473.659 242.092 L476.784 242.092 L476.784 234.731 L481.066 234.731 Z" fill="#000000" fill-rule="nonzero" fill-opacity="1" /><path clip-path="url(#clip550)" d="M520.742 232.046 Q517.64 237.37 516.135 242.578 Q514.631 247.786 514.631 253.133 Q514.631 258.481 516.135 263.735 Q517.663 268.967 520.742 274.268 L517.038 274.268 Q513.566 268.828 511.83 263.573 Q510.117 258.319 510.117 253.133 Q510.117 247.971 511.83 242.74 Q513.543 237.508 517.038 232.046 L520.742 232.046 Z" fill="#000000" fill-rule="nonzero" fill-opacity="1" /><path clip-path="url(#clip550)" d="M547.663 243.087 L547.663 247.069 Q545.857 246.073 544.029 245.587 Q542.223 245.078 540.371 245.078 Q536.228 245.078 533.936 247.717 Q531.645 250.332 531.645 255.078 Q531.645 259.823 533.936 262.462 Q536.228 265.078 540.371 265.078 Q542.223 265.078 544.029 264.592 Q545.857 264.082 547.663 263.087 L547.663 267.022 Q545.881 267.856 543.959 268.272 Q542.061 268.689 539.908 268.689 Q534.052 268.689 530.603 265.008 Q527.154 261.328 527.154 255.078 Q527.154 248.735 530.626 245.101 Q534.121 241.467 540.186 241.467 Q542.154 241.467 544.029 241.883 Q545.904 242.277 547.663 243.087 Z" fill="#000000" fill-rule="nonzero" fill-opacity="1" /><path clip-path="url(#clip550)" d="M565.672 236.536 Q562.061 236.536 560.232 240.101 Q558.427 243.643 558.427 250.772 Q558.427 257.879 560.232 261.444 Q562.061 264.985 565.672 264.985 Q569.306 264.985 571.112 261.444 Q572.941 257.879 572.941 250.772 Q572.941 243.643 571.112 240.101 Q569.306 236.536 565.672 236.536 M565.672 232.833 Q571.482 232.833 574.538 237.439 Q577.616 242.022 577.616 250.772 Q577.616 259.499 574.538 264.106 Q571.482 268.689 565.672 268.689 Q559.862 268.689 556.783 264.106 Q553.728 259.499 553.728 250.772 Q553.728 242.022 556.783 237.439 Q559.862 232.833 565.672 232.833 Z" fill="#000000" fill-rule="nonzero" fill-opacity="1" /><path clip-path="url(#clip550)" d="M585.788 246.49 L615.464 246.49 L615.464 250.379 L585.788 250.379 L585.788 246.49 M585.788 255.934 L615.464 255.934 L615.464 259.869 L585.788 259.869 L585.788 255.934 Z" fill="#000000" fill-rule="nonzero" fill-opacity="1" /><path clip-path="url(#clip550)" d="M635.556 236.536 Q631.945 236.536 630.116 240.101 Q628.311 243.643 628.311 250.772 Q628.311 257.879 630.116 261.444 Q631.945 264.985 635.556 264.985 Q639.19 264.985 640.996 261.444 Q642.824 257.879 642.824 250.772 Q642.824 243.643 640.996 240.101 Q639.19 236.536 635.556 236.536 M635.556 232.833 Q641.366 232.833 644.422 237.439 Q647.5 242.022 647.5 250.772 Q647.5 259.499 644.422 264.106 Q641.366 268.689 635.556 268.689 Q629.746 268.689 626.667 264.106 Q623.612 259.499 623.612 250.772 Q623.612 242.022 626.667 237.439 Q629.746 232.833 635.556 232.833 Z" fill="#000000" fill-rule="nonzero" fill-opacity="1" /><path clip-path="url(#clip550)" d="M655.718 262.138 L660.602 262.138 L660.602 268.018 L655.718 268.018 L655.718 262.138 Z" fill="#000000" fill-rule="nonzero" fill-opacity="1" /><path clip-path="url(#clip550)" d="M683.634 237.532 L671.829 255.981 L683.634 255.981 L683.634 237.532 M682.408 233.458 L688.287 233.458 L688.287 255.981 L693.218 255.981 L693.218 259.869 L688.287 259.869 L688.287 268.018 L683.634 268.018 L683.634 259.869 L668.033 259.869 L668.033 255.356 L682.408 233.458 Z" fill="#000000" fill-rule="nonzero" fill-opacity="1" /><path clip-path="url(#clip550)" d="M699.769 233.458 L721.991 233.458 L721.991 235.448 L709.444 268.018 L704.56 268.018 L716.366 237.393 L699.769 237.393 L699.769 233.458 Z" fill="#000000" fill-rule="nonzero" fill-opacity="1" /><path clip-path="url(#clip550)" d="M745.278 249.383 Q748.634 250.101 750.509 252.369 Q752.407 254.638 752.407 257.971 Q752.407 263.087 748.889 265.888 Q745.37 268.689 738.889 268.689 Q736.713 268.689 734.398 268.249 Q732.106 267.832 729.653 266.976 L729.653 262.462 Q731.597 263.596 733.912 264.175 Q736.227 264.754 738.75 264.754 Q743.148 264.754 745.44 263.018 Q747.754 261.281 747.754 257.971 Q747.754 254.916 745.602 253.203 Q743.472 251.467 739.653 251.467 L735.625 251.467 L735.625 247.624 L739.838 247.624 Q743.287 247.624 745.116 246.258 Q746.944 244.87 746.944 242.277 Q746.944 239.615 745.046 238.203 Q743.171 236.768 739.653 236.768 Q737.731 236.768 735.532 237.184 Q733.333 237.601 730.694 238.481 L730.694 234.314 Q733.356 233.573 735.671 233.203 Q738.009 232.833 740.069 232.833 Q745.393 232.833 748.495 235.263 Q751.597 237.67 751.597 241.791 Q751.597 244.661 749.954 246.652 Q748.31 248.62 745.278 249.383 Z" fill="#000000" fill-rule="nonzero" fill-opacity="1" /><path clip-path="url(#clip550)" d="M771.273 251.606 Q767.94 251.606 766.018 253.388 Q764.12 255.17 764.12 258.295 Q764.12 261.42 766.018 263.203 Q767.94 264.985 771.273 264.985 Q774.606 264.985 776.527 263.203 Q778.449 261.397 778.449 258.295 Q778.449 255.17 776.527 253.388 Q774.629 251.606 771.273 251.606 M766.597 249.615 Q763.588 248.874 761.898 246.814 Q760.231 244.754 760.231 241.791 Q760.231 237.647 763.171 235.24 Q766.134 232.833 771.273 232.833 Q776.435 232.833 779.375 235.24 Q782.314 237.647 782.314 241.791 Q782.314 244.754 780.625 246.814 Q778.958 248.874 775.972 249.615 Q779.352 250.402 781.227 252.694 Q783.125 254.985 783.125 258.295 Q783.125 263.319 780.046 266.004 Q776.99 268.689 771.273 268.689 Q765.555 268.689 762.477 266.004 Q759.421 263.319 759.421 258.295 Q759.421 254.985 761.319 252.694 Q763.217 250.402 766.597 249.615 M764.884 242.231 Q764.884 244.916 766.551 246.42 Q768.24 247.925 771.273 247.925 Q774.282 247.925 775.972 246.42 Q777.685 244.916 777.685 242.231 Q777.685 239.545 775.972 238.041 Q774.282 236.536 771.273 236.536 Q768.24 236.536 766.551 238.041 Q764.884 239.545 764.884 242.231 Z" fill="#000000" fill-rule="nonzero" fill-opacity="1" /><path clip-path="url(#clip550)" d="M801.435 236.536 Q797.824 236.536 795.995 240.101 Q794.189 243.643 794.189 250.772 Q794.189 257.879 795.995 261.444 Q797.824 264.985 801.435 264.985 Q805.069 264.985 806.875 261.444 Q808.703 257.879 808.703 250.772 Q808.703 243.643 806.875 240.101 Q805.069 236.536 801.435 236.536 M801.435 232.833 Q807.245 232.833 810.3 237.439 Q813.379 242.022 813.379 250.772 Q813.379 259.499 810.3 264.106 Q807.245 268.689 801.435 268.689 Q795.625 268.689 792.546 264.106 Q789.49 259.499 789.49 250.772 Q789.49 242.022 792.546 237.439 Q795.625 232.833 801.435 232.833 Z" fill="#000000" fill-rule="nonzero" fill-opacity="1" /><path clip-path="url(#clip550)" d="M821.643 233.458 L839.999 233.458 L839.999 237.393 L825.925 237.393 L825.925 245.865 Q826.944 245.518 827.962 245.356 Q828.981 245.17 829.999 245.17 Q835.786 245.17 839.166 248.342 Q842.546 251.513 842.546 256.93 Q842.546 262.508 839.073 265.61 Q835.601 268.689 829.282 268.689 Q827.106 268.689 824.837 268.318 Q822.592 267.948 820.185 267.207 L820.185 262.508 Q822.268 263.643 824.49 264.198 Q826.712 264.754 829.189 264.754 Q833.194 264.754 835.532 262.647 Q837.87 260.541 837.87 256.93 Q837.87 253.319 835.532 251.212 Q833.194 249.106 829.189 249.106 Q827.314 249.106 825.439 249.522 Q823.587 249.939 821.643 250.819 L821.643 233.458 Z" fill="#000000" fill-rule="nonzero" fill-opacity="1" /><path clip-path="url(#clip550)" d="M851.897 267.3 L851.897 263.041 Q853.657 263.874 855.462 264.314 Q857.268 264.754 859.004 264.754 Q863.633 264.754 866.064 261.652 Q868.518 258.527 868.865 252.184 Q867.522 254.175 865.462 255.24 Q863.402 256.305 860.902 256.305 Q855.717 256.305 852.684 253.18 Q849.675 250.032 849.675 244.592 Q849.675 239.268 852.823 236.05 Q855.971 232.833 861.203 232.833 Q867.198 232.833 870.346 237.439 Q873.518 242.022 873.518 250.772 Q873.518 258.944 869.629 263.828 Q865.763 268.689 859.212 268.689 Q857.453 268.689 855.647 268.342 Q853.842 267.994 851.897 267.3 M861.203 252.647 Q864.351 252.647 866.18 250.494 Q868.032 248.342 868.032 244.592 Q868.032 240.865 866.18 238.712 Q864.351 236.536 861.203 236.536 Q858.055 236.536 856.203 238.712 Q854.374 240.865 854.374 244.592 Q854.374 248.342 856.203 250.494 Q858.055 252.647 861.203 252.647 Z" fill="#000000" fill-rule="nonzero" fill-opacity="1" /><path clip-path="url(#clip550)" d="M882.059 267.3 L882.059 263.041 Q883.819 263.874 885.624 264.314 Q887.43 264.754 889.166 264.754 Q893.795 264.754 896.226 261.652 Q898.68 258.527 899.027 252.184 Q897.684 254.175 895.624 255.24 Q893.564 256.305 891.064 256.305 Q885.879 256.305 882.846 253.18 Q879.837 250.032 879.837 244.592 Q879.837 239.268 882.985 236.05 Q886.133 232.833 891.365 232.833 Q897.36 232.833 900.508 237.439 Q903.68 242.022 903.68 250.772 Q903.68 258.944 899.791 263.828 Q895.925 268.689 889.374 268.689 Q887.615 268.689 885.809 268.342 Q884.004 267.994 882.059 267.3 M891.365 252.647 Q894.513 252.647 896.342 250.494 Q898.193 248.342 898.193 244.592 Q898.193 240.865 896.342 238.712 Q894.513 236.536 891.365 236.536 Q888.217 236.536 886.365 238.712 Q884.536 240.865 884.536 244.592 Q884.536 248.342 886.365 250.494 Q888.217 252.647 891.365 252.647 Z" fill="#000000" fill-rule="nonzero" fill-opacity="1" /><path clip-path="url(#clip550)" d="M912.221 267.3 L912.221 263.041 Q913.98 263.874 915.786 264.314 Q917.592 264.754 919.328 264.754 Q923.957 264.754 926.388 261.652 Q928.841 258.527 929.189 252.184 Q927.846 254.175 925.786 255.24 Q923.726 256.305 921.226 256.305 Q916.041 256.305 913.008 253.18 Q909.999 250.032 909.999 244.592 Q909.999 239.268 913.147 236.05 Q916.295 232.833 921.527 232.833 Q927.522 232.833 930.67 237.439 Q933.841 242.022 933.841 250.772 Q933.841 258.944 929.953 263.828 Q926.087 268.689 919.536 268.689 Q917.777 268.689 915.971 268.342 Q914.166 267.994 912.221 267.3 M921.527 252.647 Q924.675 252.647 926.504 250.494 Q928.355 248.342 928.355 244.592 Q928.355 240.865 926.504 238.712 Q924.675 236.536 921.527 236.536 Q918.379 236.536 916.527 238.712 Q914.698 240.865 914.698 244.592 Q914.698 248.342 916.527 250.494 Q918.379 252.647 921.527 252.647 Z" fill="#000000" fill-rule="nonzero" fill-opacity="1" /><path clip-path="url(#clip550)" d="M941.064 233.458 L963.286 233.458 L963.286 235.448 L950.739 268.018 L945.855 268.018 L957.661 237.393 L941.064 237.393 L941.064 233.458 Z" fill="#000000" fill-rule="nonzero" fill-opacity="1" /><path clip-path="url(#clip550)" d="M972.452 233.458 L990.809 233.458 L990.809 237.393 L976.735 237.393 L976.735 245.865 Q977.753 245.518 978.772 245.356 Q979.79 245.17 980.809 245.17 Q986.596 245.17 989.975 248.342 Q993.355 251.513 993.355 256.93 Q993.355 262.508 989.883 265.61 Q986.411 268.689 980.091 268.689 Q977.915 268.689 975.647 268.318 Q973.401 267.948 970.994 267.207 L970.994 262.508 Q973.077 263.643 975.3 264.198 Q977.522 264.754 979.999 264.754 Q984.003 264.754 986.341 262.647 Q988.679 260.541 988.679 256.93 Q988.679 253.319 986.341 251.212 Q984.003 249.106 979.999 249.106 Q978.124 249.106 976.249 249.522 Q974.397 249.939 972.452 250.819 L972.452 233.458 Z" fill="#000000" fill-rule="nonzero" fill-opacity="1" /><path clip-path="url(#clip550)" d="M1002.61 233.458 L1020.97 233.458 L1020.97 237.393 L1006.9 237.393 L1006.9 245.865 Q1007.92 245.518 1008.93 245.356 Q1009.95 245.17 1010.97 245.17 Q1016.76 245.17 1020.14 248.342 Q1023.52 251.513 1023.52 256.93 Q1023.52 262.508 1020.04 265.61 Q1016.57 268.689 1010.25 268.689 Q1008.08 268.689 1005.81 268.318 Q1003.56 267.948 1001.16 267.207 L1001.16 262.508 Q1003.24 263.643 1005.46 264.198 Q1007.68 264.754 1010.16 264.754 Q1014.17 264.754 1016.5 262.647 Q1018.84 260.541 1018.84 256.93 Q1018.84 253.319 1016.5 251.212 Q1014.17 249.106 1010.16 249.106 Q1008.29 249.106 1006.41 249.522 Q1004.56 249.939 1002.61 250.819 L1002.61 233.458 Z" fill="#000000" fill-rule="nonzero" fill-opacity="1" /><path clip-path="url(#clip550)" d="M1042.73 251.606 Q1039.4 251.606 1037.48 253.388 Q1035.58 255.17 1035.58 258.295 Q1035.58 261.42 1037.48 263.203 Q1039.4 264.985 1042.73 264.985 Q1046.06 264.985 1047.98 263.203 Q1049.91 261.397 1049.91 258.295 Q1049.91 255.17 1047.98 253.388 Q1046.09 251.606 1042.73 251.606 M1038.05 249.615 Q1035.04 248.874 1033.35 246.814 Q1031.69 244.754 1031.69 241.791 Q1031.69 237.647 1034.63 235.24 Q1037.59 232.833 1042.73 232.833 Q1047.89 232.833 1050.83 235.24 Q1053.77 237.647 1053.77 241.791 Q1053.77 244.754 1052.08 246.814 Q1050.41 248.874 1047.43 249.615 Q1050.81 250.402 1052.68 252.694 Q1054.58 254.985 1054.58 258.295 Q1054.58 263.319 1051.5 266.004 Q1048.45 268.689 1042.73 268.689 Q1037.01 268.689 1033.93 266.004 Q1030.88 263.319 1030.88 258.295 Q1030.88 254.985 1032.78 252.694 Q1034.67 250.402 1038.05 249.615 M1036.34 242.231 Q1036.34 244.916 1038.01 246.42 Q1039.7 247.925 1042.73 247.925 Q1045.74 247.925 1047.43 246.42 Q1049.14 244.916 1049.14 242.231 Q1049.14 239.545 1047.43 238.041 Q1045.74 236.536 1042.73 236.536 Q1039.7 236.536 1038.01 238.041 Q1036.34 239.545 1036.34 242.231 Z" fill="#000000" fill-rule="nonzero" fill-opacity="1" /><path clip-path="url(#clip550)" d="M1062.94 233.458 L1081.29 233.458 L1081.29 237.393 L1067.22 237.393 L1067.22 245.865 Q1068.24 245.518 1069.26 245.356 Q1070.28 245.17 1071.29 245.17 Q1077.08 245.17 1080.46 248.342 Q1083.84 251.513 1083.84 256.93 Q1083.84 262.508 1080.37 265.61 Q1076.9 268.689 1070.58 268.689 Q1068.4 268.689 1066.13 268.318 Q1063.89 267.948 1061.48 267.207 L1061.48 262.508 Q1063.56 263.643 1065.79 264.198 Q1068.01 264.754 1070.48 264.754 Q1074.49 264.754 1076.83 262.647 Q1079.16 260.541 1079.16 256.93 Q1079.16 253.319 1076.83 251.212 Q1074.49 249.106 1070.48 249.106 Q1068.61 249.106 1066.73 249.522 Q1064.88 249.939 1062.94 250.819 L1062.94 233.458 Z" fill="#000000" fill-rule="nonzero" fill-opacity="1" /><path clip-path="url(#clip550)" d="M1093.19 267.3 L1093.19 263.041 Q1094.95 263.874 1096.76 264.314 Q1098.56 264.754 1100.3 264.754 Q1104.93 264.754 1107.36 261.652 Q1109.81 258.527 1110.16 252.184 Q1108.82 254.175 1106.76 255.24 Q1104.7 256.305 1102.2 256.305 Q1097.01 256.305 1093.98 253.18 Q1090.97 250.032 1090.97 244.592 Q1090.97 239.268 1094.12 236.05 Q1097.27 232.833 1102.5 232.833 Q1108.49 232.833 1111.64 237.439 Q1114.81 242.022 1114.81 250.772 Q1114.81 258.944 1110.92 263.828 Q1107.06 268.689 1100.51 268.689 Q1098.75 268.689 1096.94 268.342 Q1095.14 267.994 1093.19 267.3 M1102.5 252.647 Q1105.65 252.647 1107.47 250.494 Q1109.33 248.342 1109.33 244.592 Q1109.33 240.865 1107.47 238.712 Q1105.65 236.536 1102.5 236.536 Q1099.35 236.536 1097.5 238.712 Q1095.67 240.865 1095.67 244.592 Q1095.67 248.342 1097.5 250.494 Q1099.35 252.647 1102.5 252.647 Z" fill="#000000" fill-rule="nonzero" fill-opacity="1" /><path clip-path="url(#clip550)" d="M1136.06 237.532 L1124.26 255.981 L1136.06 255.981 L1136.06 237.532 M1134.84 233.458 L1140.72 233.458 L1140.72 255.981 L1145.65 255.981 L1145.65 259.869 L1140.72 259.869 L1140.72 268.018 L1136.06 268.018 L1136.06 259.869 L1120.46 259.869 L1120.46 255.356 L1134.84 233.458 Z" fill="#000000" fill-rule="nonzero" fill-opacity="1" /><path clip-path="url(#clip550)" d="M1152.1 232.046 L1155.81 232.046 Q1159.28 237.508 1160.99 242.74 Q1162.73 247.971 1162.73 253.133 Q1162.73 258.319 1160.99 263.573 Q1159.28 268.828 1155.81 274.268 L1152.1 274.268 Q1155.18 268.967 1156.69 263.735 Q1158.22 258.481 1158.22 253.133 Q1158.22 247.786 1156.69 242.578 Q1155.18 237.37 1152.1 232.046 Z" fill="#000000" fill-rule="nonzero" fill-opacity="1" /><polyline clip-path="url(#clip550)" style="stroke:#00a9ad; stroke-linecap:round; stroke-linejoin:round; stroke-width:8; stroke-opacity:1; fill:none" points="280.571,302.578 425.142,302.578 "/>
<path clip-path="url(#clip550)" d="M449.238 283.839 L453.52 283.839 L453.52 305.112 L466.228 293.932 L471.668 293.932 L457.918 306.061 L472.247 319.858 L466.691 319.858 L453.52 307.196 L453.52 319.858 L449.238 319.858 L449.238 283.839 Z" fill="#000000" fill-rule="nonzero" fill-opacity="1" /><path clip-path="url(#clip550)" d="M481.066 286.571 L481.066 293.932 L489.839 293.932 L489.839 297.242 L481.066 297.242 L481.066 311.316 Q481.066 314.487 481.923 315.39 Q482.802 316.293 485.464 316.293 L489.839 316.293 L489.839 319.858 L485.464 319.858 Q480.534 319.858 478.659 318.029 Q476.784 316.177 476.784 311.316 L476.784 297.242 L473.659 297.242 L473.659 293.932 L476.784 293.932 L476.784 286.571 L481.066 286.571 Z" fill="#000000" fill-rule="nonzero" fill-opacity="1" /><path clip-path="url(#clip550)" d="M520.742 283.886 Q517.64 289.21 516.135 294.418 Q514.631 299.626 514.631 304.973 Q514.631 310.321 516.135 315.575 Q517.663 320.807 520.742 326.108 L517.038 326.108 Q513.566 320.668 511.83 315.413 Q510.117 310.159 510.117 304.973 Q510.117 299.811 511.83 294.58 Q513.543 289.348 517.038 283.886 L520.742 283.886 Z" fill="#000000" fill-rule="nonzero" fill-opacity="1" /><path clip-path="url(#clip550)" d="M547.663 294.927 L547.663 298.909 Q545.857 297.913 544.029 297.427 Q542.223 296.918 540.371 296.918 Q536.228 296.918 533.936 299.557 Q531.645 302.172 531.645 306.918 Q531.645 311.663 533.936 314.302 Q536.228 316.918 540.371 316.918 Q542.223 316.918 544.029 316.432 Q545.857 315.922 547.663 314.927 L547.663 318.862 Q545.881 319.696 543.959 320.112 Q542.061 320.529 539.908 320.529 Q534.052 320.529 530.603 316.848 Q527.154 313.168 527.154 306.918 Q527.154 300.575 530.626 296.941 Q534.121 293.307 540.186 293.307 Q542.154 293.307 544.029 293.723 Q545.904 294.117 547.663 294.927 Z" fill="#000000" fill-rule="nonzero" fill-opacity="1" /><path clip-path="url(#clip550)" d="M565.672 288.376 Q562.061 288.376 560.232 291.941 Q558.427 295.483 558.427 302.612 Q558.427 309.719 560.232 313.284 Q562.061 316.825 565.672 316.825 Q569.306 316.825 571.112 313.284 Q572.941 309.719 572.941 302.612 Q572.941 295.483 571.112 291.941 Q569.306 288.376 565.672 288.376 M565.672 284.673 Q571.482 284.673 574.538 289.279 Q577.616 293.862 577.616 302.612 Q577.616 311.339 574.538 315.946 Q571.482 320.529 565.672 320.529 Q559.862 320.529 556.783 315.946 Q553.728 311.339 553.728 302.612 Q553.728 293.862 556.783 289.279 Q559.862 284.673 565.672 284.673 Z" fill="#000000" fill-rule="nonzero" fill-opacity="1" /><path clip-path="url(#clip550)" d="M585.788 298.33 L615.464 298.33 L615.464 302.219 L585.788 302.219 L585.788 298.33 M585.788 307.774 L615.464 307.774 L615.464 311.709 L585.788 311.709 L585.788 307.774 Z" fill="#000000" fill-rule="nonzero" fill-opacity="1" /><path clip-path="url(#clip550)" d="M635.556 288.376 Q631.945 288.376 630.116 291.941 Q628.311 295.483 628.311 302.612 Q628.311 309.719 630.116 313.284 Q631.945 316.825 635.556 316.825 Q639.19 316.825 640.996 313.284 Q642.824 309.719 642.824 302.612 Q642.824 295.483 640.996 291.941 Q639.19 288.376 635.556 288.376 M635.556 284.673 Q641.366 284.673 644.422 289.279 Q647.5 293.862 647.5 302.612 Q647.5 311.339 644.422 315.946 Q641.366 320.529 635.556 320.529 Q629.746 320.529 626.667 315.946 Q623.612 311.339 623.612 302.612 Q623.612 293.862 626.667 289.279 Q629.746 284.673 635.556 284.673 Z" fill="#000000" fill-rule="nonzero" fill-opacity="1" /><path clip-path="url(#clip550)" d="M655.718 313.978 L660.602 313.978 L660.602 319.858 L655.718 319.858 L655.718 313.978 Z" fill="#000000" fill-rule="nonzero" fill-opacity="1" /><path clip-path="url(#clip550)" d="M670.834 285.298 L689.19 285.298 L689.19 289.233 L675.116 289.233 L675.116 297.705 Q676.134 297.358 677.153 297.196 Q678.171 297.01 679.19 297.01 Q684.977 297.01 688.357 300.182 Q691.736 303.353 691.736 308.77 Q691.736 314.348 688.264 317.45 Q684.792 320.529 678.472 320.529 Q676.297 320.529 674.028 320.158 Q671.783 319.788 669.375 319.047 L669.375 314.348 Q671.459 315.483 673.681 316.038 Q675.903 316.594 678.38 316.594 Q682.384 316.594 684.722 314.487 Q687.06 312.381 687.06 308.77 Q687.06 305.159 684.722 303.052 Q682.384 300.946 678.38 300.946 Q676.505 300.946 674.63 301.362 Q672.778 301.779 670.834 302.659 L670.834 285.298 Z" fill="#000000" fill-rule="nonzero" fill-opacity="1" /><path clip-path="url(#clip550)" d="M711.528 300.714 Q708.38 300.714 706.528 302.867 Q704.699 305.02 704.699 308.77 Q704.699 312.496 706.528 314.672 Q708.38 316.825 711.528 316.825 Q714.676 316.825 716.505 314.672 Q718.356 312.496 718.356 308.77 Q718.356 305.02 716.505 302.867 Q714.676 300.714 711.528 300.714 M720.81 286.061 L720.81 290.321 Q719.051 289.487 717.245 289.048 Q715.463 288.608 713.704 288.608 Q709.074 288.608 706.62 291.733 Q704.19 294.858 703.843 301.177 Q705.208 299.163 707.269 298.098 Q709.329 297.01 711.806 297.01 Q717.014 297.01 720.023 300.182 Q723.056 303.33 723.056 308.77 Q723.056 314.094 719.907 317.311 Q716.759 320.529 711.528 320.529 Q705.532 320.529 702.361 315.946 Q699.19 311.339 699.19 302.612 Q699.19 294.418 703.079 289.557 Q706.968 284.673 713.519 284.673 Q715.278 284.673 717.06 285.02 Q718.866 285.367 720.81 286.061 Z" fill="#000000" fill-rule="nonzero" fill-opacity="1" /><path clip-path="url(#clip550)" d="M729.93 285.298 L752.153 285.298 L752.153 287.288 L739.606 319.858 L734.722 319.858 L746.528 289.233 L729.93 289.233 L729.93 285.298 Z" fill="#000000" fill-rule="nonzero" fill-opacity="1" /><path clip-path="url(#clip550)" d="M761.319 285.298 L779.676 285.298 L779.676 289.233 L765.602 289.233 L765.602 297.705 Q766.62 297.358 767.639 297.196 Q768.657 297.01 769.676 297.01 Q775.463 297.01 778.842 300.182 Q782.222 303.353 782.222 308.77 Q782.222 314.348 778.75 317.45 Q775.277 320.529 768.958 320.529 Q766.782 320.529 764.514 320.158 Q762.268 319.788 759.861 319.047 L759.861 314.348 Q761.944 315.483 764.166 316.038 Q766.389 316.594 768.865 316.594 Q772.87 316.594 775.208 314.487 Q777.546 312.381 777.546 308.77 Q777.546 305.159 775.208 303.052 Q772.87 300.946 768.865 300.946 Q766.99 300.946 765.115 301.362 Q763.264 301.779 761.319 302.659 L761.319 285.298 Z" fill="#000000" fill-rule="nonzero" fill-opacity="1" /><path clip-path="url(#clip550)" d="M801.435 303.446 Q798.101 303.446 796.18 305.228 Q794.282 307.01 794.282 310.135 Q794.282 313.26 796.18 315.043 Q798.101 316.825 801.435 316.825 Q804.768 316.825 806.689 315.043 Q808.611 313.237 808.611 310.135 Q808.611 307.01 806.689 305.228 Q804.791 303.446 801.435 303.446 M796.759 301.455 Q793.75 300.714 792.06 298.654 Q790.393 296.594 790.393 293.631 Q790.393 289.487 793.333 287.08 Q796.296 284.673 801.435 284.673 Q806.597 284.673 809.537 287.08 Q812.476 289.487 812.476 293.631 Q812.476 296.594 810.787 298.654 Q809.12 300.714 806.134 301.455 Q809.513 302.242 811.388 304.534 Q813.287 306.825 813.287 310.135 Q813.287 315.159 810.208 317.844 Q807.152 320.529 801.435 320.529 Q795.717 320.529 792.638 317.844 Q789.583 315.159 789.583 310.135 Q789.583 306.825 791.481 304.534 Q793.379 302.242 796.759 301.455 M795.046 294.071 Q795.046 296.756 796.713 298.26 Q798.402 299.765 801.435 299.765 Q804.444 299.765 806.134 298.26 Q807.847 296.756 807.847 294.071 Q807.847 291.385 806.134 289.881 Q804.444 288.376 801.435 288.376 Q798.402 288.376 796.713 289.881 Q795.046 291.385 795.046 294.071 Z" fill="#000000" fill-rule="nonzero" fill-opacity="1" /><path clip-path="url(#clip550)" d="M821.643 285.298 L839.999 285.298 L839.999 289.233 L825.925 289.233 L825.925 297.705 Q826.944 297.358 827.962 297.196 Q828.981 297.01 829.999 297.01 Q835.786 297.01 839.166 300.182 Q842.546 303.353 842.546 308.77 Q842.546 314.348 839.073 317.45 Q835.601 320.529 829.282 320.529 Q827.106 320.529 824.837 320.158 Q822.592 319.788 820.185 319.047 L820.185 314.348 Q822.268 315.483 824.49 316.038 Q826.712 316.594 829.189 316.594 Q833.194 316.594 835.532 314.487 Q837.87 312.381 837.87 308.77 Q837.87 305.159 835.532 303.052 Q833.194 300.946 829.189 300.946 Q827.314 300.946 825.439 301.362 Q823.587 301.779 821.643 302.659 L821.643 285.298 Z" fill="#000000" fill-rule="nonzero" fill-opacity="1" /><path clip-path="url(#clip550)" d="M864.606 289.372 L852.8 307.821 L864.606 307.821 L864.606 289.372 M863.379 285.298 L869.258 285.298 L869.258 307.821 L874.189 307.821 L874.189 311.709 L869.258 311.709 L869.258 319.858 L864.606 319.858 L864.606 311.709 L849.004 311.709 L849.004 307.196 L863.379 285.298 Z" fill="#000000" fill-rule="nonzero" fill-opacity="1" /><path clip-path="url(#clip550)" d="M892.499 300.714 Q889.351 300.714 887.499 302.867 Q885.67 305.02 885.67 308.77 Q885.67 312.496 887.499 314.672 Q889.351 316.825 892.499 316.825 Q895.647 316.825 897.476 314.672 Q899.328 312.496 899.328 308.77 Q899.328 305.02 897.476 302.867 Q895.647 300.714 892.499 300.714 M901.781 286.061 L901.781 290.321 Q900.022 289.487 898.217 289.048 Q896.434 288.608 894.675 288.608 Q890.045 288.608 887.592 291.733 Q885.161 294.858 884.814 301.177 Q886.18 299.163 888.24 298.098 Q890.3 297.01 892.777 297.01 Q897.985 297.01 900.994 300.182 Q904.027 303.33 904.027 308.77 Q904.027 314.094 900.879 317.311 Q897.731 320.529 892.499 320.529 Q886.504 320.529 883.332 315.946 Q880.161 311.339 880.161 302.612 Q880.161 294.418 884.05 289.557 Q887.939 284.673 894.49 284.673 Q896.249 284.673 898.031 285.02 Q899.837 285.367 901.781 286.061 Z" fill="#000000" fill-rule="nonzero" fill-opacity="1" /><path clip-path="url(#clip550)" d="M922.082 303.446 Q918.749 303.446 916.828 305.228 Q914.929 307.01 914.929 310.135 Q914.929 313.26 916.828 315.043 Q918.749 316.825 922.082 316.825 Q925.416 316.825 927.337 315.043 Q929.258 313.237 929.258 310.135 Q929.258 307.01 927.337 305.228 Q925.439 303.446 922.082 303.446 M917.406 301.455 Q914.397 300.714 912.707 298.654 Q911.041 296.594 911.041 293.631 Q911.041 289.487 913.98 287.08 Q916.943 284.673 922.082 284.673 Q927.244 284.673 930.184 287.08 Q933.124 289.487 933.124 293.631 Q933.124 296.594 931.434 298.654 Q929.767 300.714 926.781 301.455 Q930.161 302.242 932.036 304.534 Q933.934 306.825 933.934 310.135 Q933.934 315.159 930.855 317.844 Q927.8 320.529 922.082 320.529 Q916.365 320.529 913.286 317.844 Q910.23 315.159 910.23 310.135 Q910.23 306.825 912.129 304.534 Q914.027 302.242 917.406 301.455 M915.693 294.071 Q915.693 296.756 917.36 298.26 Q919.05 299.765 922.082 299.765 Q925.091 299.765 926.781 298.26 Q928.494 296.756 928.494 294.071 Q928.494 291.385 926.781 289.881 Q925.091 288.376 922.082 288.376 Q919.05 288.376 917.36 289.881 Q915.693 291.385 915.693 294.071 Z" fill="#000000" fill-rule="nonzero" fill-opacity="1" /><path clip-path="url(#clip550)" d="M946.272 315.922 L962.591 315.922 L962.591 319.858 L940.647 319.858 L940.647 315.922 Q943.309 313.168 947.892 308.538 Q952.499 303.885 953.679 302.543 Q955.925 300.02 956.804 298.284 Q957.707 296.524 957.707 294.835 Q957.707 292.08 955.763 290.344 Q953.841 288.608 950.739 288.608 Q948.54 288.608 946.087 289.372 Q943.656 290.135 940.878 291.686 L940.878 286.964 Q943.702 285.83 946.156 285.251 Q948.61 284.673 950.647 284.673 Q956.017 284.673 959.212 287.358 Q962.406 290.043 962.406 294.534 Q962.406 296.663 961.596 298.585 Q960.809 300.483 958.702 303.075 Q958.124 303.747 955.022 306.964 Q951.92 310.159 946.272 315.922 Z" fill="#000000" fill-rule="nonzero" fill-opacity="1" /><path clip-path="url(#clip550)" d="M972.545 319.14 L972.545 314.881 Q974.304 315.714 976.11 316.154 Q977.915 316.594 979.651 316.594 Q984.281 316.594 986.712 313.492 Q989.165 310.367 989.512 304.024 Q988.17 306.015 986.11 307.08 Q984.049 308.145 981.55 308.145 Q976.364 308.145 973.332 305.02 Q970.323 301.872 970.323 296.432 Q970.323 291.108 973.471 287.89 Q976.619 284.673 981.85 284.673 Q987.846 284.673 990.994 289.279 Q994.165 293.862 994.165 302.612 Q994.165 310.784 990.276 315.668 Q986.411 320.529 979.86 320.529 Q978.1 320.529 976.295 320.182 Q974.489 319.834 972.545 319.14 M981.85 304.487 Q984.999 304.487 986.827 302.334 Q988.679 300.182 988.679 296.432 Q988.679 292.705 986.827 290.552 Q984.999 288.376 981.85 288.376 Q978.702 288.376 976.85 290.552 Q975.022 292.705 975.022 296.432 Q975.022 300.182 976.85 302.334 Q978.702 304.487 981.85 304.487 Z" fill="#000000" fill-rule="nonzero" fill-opacity="1" /><path clip-path="url(#clip550)" d="M1006.6 315.922 L1022.92 315.922 L1022.92 319.858 L1000.97 319.858 L1000.97 315.922 Q1003.63 313.168 1008.22 308.538 Q1012.82 303.885 1014 302.543 Q1016.25 300.02 1017.13 298.284 Q1018.03 296.524 1018.03 294.835 Q1018.03 292.08 1016.09 290.344 Q1014.17 288.608 1011.06 288.608 Q1008.86 288.608 1006.41 289.372 Q1003.98 290.135 1001.2 291.686 L1001.2 286.964 Q1004.03 285.83 1006.48 285.251 Q1008.93 284.673 1010.97 284.673 Q1016.34 284.673 1019.54 287.358 Q1022.73 290.043 1022.73 294.534 Q1022.73 296.663 1021.92 298.585 Q1021.13 300.483 1019.03 303.075 Q1018.45 303.747 1015.35 306.964 Q1012.24 310.159 1006.6 315.922 Z" fill="#000000" fill-rule="nonzero" fill-opacity="1" /><path clip-path="url(#clip550)" d="M1036.76 315.922 L1053.08 315.922 L1053.08 319.858 L1031.13 319.858 L1031.13 315.922 Q1033.79 313.168 1038.38 308.538 Q1042.98 303.885 1044.16 302.543 Q1046.41 300.02 1047.29 298.284 Q1048.19 296.524 1048.19 294.835 Q1048.19 292.08 1046.25 290.344 Q1044.33 288.608 1041.23 288.608 Q1039.03 288.608 1036.57 289.372 Q1034.14 290.135 1031.36 291.686 L1031.36 286.964 Q1034.19 285.83 1036.64 285.251 Q1039.1 284.673 1041.13 284.673 Q1046.5 284.673 1049.7 287.358 Q1052.89 290.043 1052.89 294.534 Q1052.89 296.663 1052.08 298.585 Q1051.29 300.483 1049.19 303.075 Q1048.61 303.747 1045.51 306.964 Q1042.41 310.159 1036.76 315.922 Z" fill="#000000" fill-rule="nonzero" fill-opacity="1" /><path clip-path="url(#clip550)" d="M1077.06 301.223 Q1080.41 301.941 1082.29 304.209 Q1084.19 306.478 1084.19 309.811 Q1084.19 314.927 1080.67 317.728 Q1077.15 320.529 1070.67 320.529 Q1068.49 320.529 1066.18 320.089 Q1063.89 319.672 1061.43 318.816 L1061.43 314.302 Q1063.38 315.436 1065.69 316.015 Q1068.01 316.594 1070.53 316.594 Q1074.93 316.594 1077.22 314.858 Q1079.54 313.121 1079.54 309.811 Q1079.54 306.756 1077.38 305.043 Q1075.25 303.307 1071.43 303.307 L1067.41 303.307 L1067.41 299.464 L1071.62 299.464 Q1075.07 299.464 1076.9 298.098 Q1078.72 296.71 1078.72 294.117 Q1078.72 291.455 1076.83 290.043 Q1074.95 288.608 1071.43 288.608 Q1069.51 288.608 1067.31 289.024 Q1065.11 289.441 1062.47 290.321 L1062.47 286.154 Q1065.14 285.413 1067.45 285.043 Q1069.79 284.673 1071.85 284.673 Q1077.17 284.673 1080.28 287.103 Q1083.38 289.51 1083.38 293.631 Q1083.38 296.501 1081.73 298.492 Q1080.09 300.46 1077.06 301.223 Z" fill="#000000" fill-rule="nonzero" fill-opacity="1" /><path clip-path="url(#clip550)" d="M1103.63 300.714 Q1100.48 300.714 1098.63 302.867 Q1096.8 305.02 1096.8 308.77 Q1096.8 312.496 1098.63 314.672 Q1100.48 316.825 1103.63 316.825 Q1106.78 316.825 1108.61 314.672 Q1110.46 312.496 1110.46 308.77 Q1110.46 305.02 1108.61 302.867 Q1106.78 300.714 1103.63 300.714 M1112.91 286.061 L1112.91 290.321 Q1111.16 289.487 1109.35 289.048 Q1107.57 288.608 1105.81 288.608 Q1101.18 288.608 1098.72 291.733 Q1096.29 294.858 1095.95 301.177 Q1097.31 299.163 1099.37 298.098 Q1101.43 297.01 1103.91 297.01 Q1109.12 297.01 1112.13 300.182 Q1115.16 303.33 1115.16 308.77 Q1115.16 314.094 1112.01 317.311 Q1108.86 320.529 1103.63 320.529 Q1097.64 320.529 1094.47 315.946 Q1091.29 311.339 1091.29 302.612 Q1091.29 294.418 1095.18 289.557 Q1099.07 284.673 1105.62 284.673 Q1107.38 284.673 1109.16 285.02 Q1110.97 285.367 1112.91 286.061 Z" fill="#000000" fill-rule="nonzero" fill-opacity="1" /><path clip-path="url(#clip550)" d="M1137.38 301.223 Q1140.74 301.941 1142.61 304.209 Q1144.51 306.478 1144.51 309.811 Q1144.51 314.927 1140.99 317.728 Q1137.47 320.529 1130.99 320.529 Q1128.82 320.529 1126.5 320.089 Q1124.21 319.672 1121.76 318.816 L1121.76 314.302 Q1123.7 315.436 1126.02 316.015 Q1128.33 316.594 1130.85 316.594 Q1135.25 316.594 1137.54 314.858 Q1139.86 313.121 1139.86 309.811 Q1139.86 306.756 1137.71 305.043 Q1135.58 303.307 1131.76 303.307 L1127.73 303.307 L1127.73 299.464 L1131.94 299.464 Q1135.39 299.464 1137.22 298.098 Q1139.05 296.71 1139.05 294.117 Q1139.05 291.455 1137.15 290.043 Q1135.28 288.608 1131.76 288.608 Q1129.84 288.608 1127.64 289.024 Q1125.44 289.441 1122.8 290.321 L1122.8 286.154 Q1125.46 285.413 1127.78 285.043 Q1130.11 284.673 1132.17 284.673 Q1137.5 284.673 1140.6 287.103 Q1143.7 289.51 1143.7 293.631 Q1143.7 296.501 1142.06 298.492 Q1140.41 300.46 1137.38 301.223 Z" fill="#000000" fill-rule="nonzero" fill-opacity="1" /><path clip-path="url(#clip550)" d="M1152.1 283.886 L1155.81 283.886 Q1159.28 289.348 1160.99 294.58 Q1162.73 299.811 1162.73 304.973 Q1162.73 310.159 1160.99 315.413 Q1159.28 320.668 1155.81 326.108 L1152.1 326.108 Q1155.18 320.807 1156.69 315.575 Q1158.22 310.321 1158.22 304.973 Q1158.22 299.626 1156.69 294.418 Q1155.18 289.21 1152.1 283.886 Z" fill="#000000" fill-rule="nonzero" fill-opacity="1" /><polyline clip-path="url(#clip550)" style="stroke:#ed5d92; stroke-linecap:round; stroke-linejoin:round; stroke-width:8; stroke-opacity:1; fill:none" points="280.571,354.418 425.142,354.418 "/>
<path clip-path="url(#clip550)" d="M449.238 335.679 L453.52 335.679 L453.52 356.952 L466.228 345.772 L471.668 345.772 L457.918 357.901 L472.247 371.698 L466.691 371.698 L453.52 359.036 L453.52 371.698 L449.238 371.698 L449.238 335.679 Z" fill="#000000" fill-rule="nonzero" fill-opacity="1" /><path clip-path="url(#clip550)" d="M481.066 338.411 L481.066 345.772 L489.839 345.772 L489.839 349.082 L481.066 349.082 L481.066 363.156 Q481.066 366.327 481.923 367.23 Q482.802 368.133 485.464 368.133 L489.839 368.133 L489.839 371.698 L485.464 371.698 Q480.534 371.698 478.659 369.869 Q476.784 368.017 476.784 363.156 L476.784 349.082 L473.659 349.082 L473.659 345.772 L476.784 345.772 L476.784 338.411 L481.066 338.411 Z" fill="#000000" fill-rule="nonzero" fill-opacity="1" /><path clip-path="url(#clip550)" d="M520.742 335.726 Q517.64 341.05 516.135 346.258 Q514.631 351.466 514.631 356.813 Q514.631 362.161 516.135 367.415 Q517.663 372.647 520.742 377.948 L517.038 377.948 Q513.566 372.508 511.83 367.253 Q510.117 361.999 510.117 356.813 Q510.117 351.651 511.83 346.42 Q513.543 341.188 517.038 335.726 L520.742 335.726 Z" fill="#000000" fill-rule="nonzero" fill-opacity="1" /><path clip-path="url(#clip550)" d="M547.663 346.767 L547.663 350.749 Q545.857 349.753 544.029 349.267 Q542.223 348.758 540.371 348.758 Q536.228 348.758 533.936 351.397 Q531.645 354.012 531.645 358.758 Q531.645 363.503 533.936 366.142 Q536.228 368.758 540.371 368.758 Q542.223 368.758 544.029 368.272 Q545.857 367.762 547.663 366.767 L547.663 370.702 Q545.881 371.536 543.959 371.952 Q542.061 372.369 539.908 372.369 Q534.052 372.369 530.603 368.688 Q527.154 365.008 527.154 358.758 Q527.154 352.415 530.626 348.781 Q534.121 345.147 540.186 345.147 Q542.154 345.147 544.029 345.563 Q545.904 345.957 547.663 346.767 Z" fill="#000000" fill-rule="nonzero" fill-opacity="1" /><path clip-path="url(#clip550)" d="M565.672 340.216 Q562.061 340.216 560.232 343.781 Q558.427 347.323 558.427 354.452 Q558.427 361.559 560.232 365.124 Q562.061 368.665 565.672 368.665 Q569.306 368.665 571.112 365.124 Q572.941 361.559 572.941 354.452 Q572.941 347.323 571.112 343.781 Q569.306 340.216 565.672 340.216 M565.672 336.513 Q571.482 336.513 574.538 341.119 Q577.616 345.702 577.616 354.452 Q577.616 363.179 574.538 367.786 Q571.482 372.369 565.672 372.369 Q559.862 372.369 556.783 367.786 Q553.728 363.179 553.728 354.452 Q553.728 345.702 556.783 341.119 Q559.862 336.513 565.672 336.513 Z" fill="#000000" fill-rule="nonzero" fill-opacity="1" /><path clip-path="url(#clip550)" d="M585.788 350.17 L615.464 350.17 L615.464 354.059 L585.788 354.059 L585.788 350.17 M585.788 359.614 L615.464 359.614 L615.464 363.549 L585.788 363.549 L585.788 359.614 Z" fill="#000000" fill-rule="nonzero" fill-opacity="1" /><path clip-path="url(#clip550)" d="M635.556 340.216 Q631.945 340.216 630.116 343.781 Q628.311 347.323 628.311 354.452 Q628.311 361.559 630.116 365.124 Q631.945 368.665 635.556 368.665 Q639.19 368.665 640.996 365.124 Q642.824 361.559 642.824 354.452 Q642.824 347.323 640.996 343.781 Q639.19 340.216 635.556 340.216 M635.556 336.513 Q641.366 336.513 644.422 341.119 Q647.5 345.702 647.5 354.452 Q647.5 363.179 644.422 367.786 Q641.366 372.369 635.556 372.369 Q629.746 372.369 626.667 367.786 Q623.612 363.179 623.612 354.452 Q623.612 345.702 626.667 341.119 Q629.746 336.513 635.556 336.513 Z" fill="#000000" fill-rule="nonzero" fill-opacity="1" /><path clip-path="url(#clip550)" d="M655.718 365.818 L660.602 365.818 L660.602 371.698 L655.718 371.698 L655.718 365.818 Z" fill="#000000" fill-rule="nonzero" fill-opacity="1" /><path clip-path="url(#clip550)" d="M670.834 337.138 L689.19 337.138 L689.19 341.073 L675.116 341.073 L675.116 349.545 Q676.134 349.198 677.153 349.036 Q678.171 348.85 679.19 348.85 Q684.977 348.85 688.357 352.022 Q691.736 355.193 691.736 360.61 Q691.736 366.188 688.264 369.29 Q684.792 372.369 678.472 372.369 Q676.297 372.369 674.028 371.998 Q671.783 371.628 669.375 370.887 L669.375 366.188 Q671.459 367.323 673.681 367.878 Q675.903 368.434 678.38 368.434 Q682.384 368.434 684.722 366.327 Q687.06 364.221 687.06 360.61 Q687.06 356.999 684.722 354.892 Q682.384 352.786 678.38 352.786 Q676.505 352.786 674.63 353.202 Q672.778 353.619 670.834 354.499 L670.834 337.138 Z" fill="#000000" fill-rule="nonzero" fill-opacity="1" /><path clip-path="url(#clip550)" d="M699.769 337.138 L721.991 337.138 L721.991 339.128 L709.444 371.698 L704.56 371.698 L716.366 341.073 L699.769 341.073 L699.769 337.138 Z" fill="#000000" fill-rule="nonzero" fill-opacity="1" /><path clip-path="url(#clip550)" d="M741.111 340.216 Q737.5 340.216 735.671 343.781 Q733.866 347.323 733.866 354.452 Q733.866 361.559 735.671 365.124 Q737.5 368.665 741.111 368.665 Q744.745 368.665 746.551 365.124 Q748.379 361.559 748.379 354.452 Q748.379 347.323 746.551 343.781 Q744.745 340.216 741.111 340.216 M741.111 336.513 Q746.921 336.513 749.977 341.119 Q753.055 345.702 753.055 354.452 Q753.055 363.179 749.977 367.786 Q746.921 372.369 741.111 372.369 Q735.301 372.369 732.222 367.786 Q729.167 363.179 729.167 354.452 Q729.167 345.702 732.222 341.119 Q735.301 336.513 741.111 336.513 Z" fill="#000000" fill-rule="nonzero" fill-opacity="1" /><path clip-path="url(#clip550)" d="M761.319 337.138 L779.676 337.138 L779.676 341.073 L765.602 341.073 L765.602 349.545 Q766.62 349.198 767.639 349.036 Q768.657 348.85 769.676 348.85 Q775.463 348.85 778.842 352.022 Q782.222 355.193 782.222 360.61 Q782.222 366.188 778.75 369.29 Q775.277 372.369 768.958 372.369 Q766.782 372.369 764.514 371.998 Q762.268 371.628 759.861 370.887 L759.861 366.188 Q761.944 367.323 764.166 367.878 Q766.389 368.434 768.865 368.434 Q772.87 368.434 775.208 366.327 Q777.546 364.221 777.546 360.61 Q777.546 356.999 775.208 354.892 Q772.87 352.786 768.865 352.786 Q766.99 352.786 765.115 353.202 Q763.264 353.619 761.319 354.499 L761.319 337.138 Z" fill="#000000" fill-rule="nonzero" fill-opacity="1" /><path clip-path="url(#clip550)" d="M795.463 367.762 L811.782 367.762 L811.782 371.698 L789.838 371.698 L789.838 367.762 Q792.5 365.008 797.083 360.378 Q801.689 355.725 802.87 354.383 Q805.115 351.86 805.995 350.124 Q806.898 348.364 806.898 346.675 Q806.898 343.92 804.953 342.184 Q803.032 340.448 799.93 340.448 Q797.731 340.448 795.277 341.212 Q792.847 341.975 790.069 343.526 L790.069 338.804 Q792.893 337.67 795.347 337.091 Q797.8 336.513 799.838 336.513 Q805.208 336.513 808.402 339.198 Q811.597 341.883 811.597 346.374 Q811.597 348.503 810.787 350.425 Q809.999 352.323 807.893 354.915 Q807.314 355.587 804.212 358.804 Q801.111 361.999 795.463 367.762 Z" fill="#000000" fill-rule="nonzero" fill-opacity="1" /><path clip-path="url(#clip550)" d="M832.175 352.554 Q829.027 352.554 827.175 354.707 Q825.347 356.86 825.347 360.61 Q825.347 364.336 827.175 366.512 Q829.027 368.665 832.175 368.665 Q835.323 368.665 837.152 366.512 Q839.004 364.336 839.004 360.61 Q839.004 356.86 837.152 354.707 Q835.323 352.554 832.175 352.554 M841.458 337.901 L841.458 342.161 Q839.698 341.327 837.893 340.888 Q836.11 340.448 834.351 340.448 Q829.722 340.448 827.268 343.573 Q824.837 346.698 824.49 353.017 Q825.856 351.003 827.916 349.938 Q829.976 348.85 832.453 348.85 Q837.661 348.85 840.671 352.022 Q843.703 355.17 843.703 360.61 Q843.703 365.934 840.555 369.151 Q837.407 372.369 832.175 372.369 Q826.18 372.369 823.009 367.786 Q819.837 363.179 819.837 354.452 Q819.837 346.258 823.726 341.397 Q827.615 336.513 834.166 336.513 Q835.925 336.513 837.708 336.86 Q839.513 337.207 841.458 337.901 Z" fill="#000000" fill-rule="nonzero" fill-opacity="1" /><path clip-path="url(#clip550)" d="M862.337 352.554 Q859.189 352.554 857.337 354.707 Q855.509 356.86 855.509 360.61 Q855.509 364.336 857.337 366.512 Q859.189 368.665 862.337 368.665 Q865.485 368.665 867.314 366.512 Q869.166 364.336 869.166 360.61 Q869.166 356.86 867.314 354.707 Q865.485 352.554 862.337 352.554 M871.62 337.901 L871.62 342.161 Q869.86 341.327 868.055 340.888 Q866.272 340.448 864.513 340.448 Q859.883 340.448 857.43 343.573 Q854.999 346.698 854.652 353.017 Q856.018 351.003 858.078 349.938 Q860.138 348.85 862.615 348.85 Q867.823 348.85 870.833 352.022 Q873.865 355.17 873.865 360.61 Q873.865 365.934 870.717 369.151 Q867.569 372.369 862.337 372.369 Q856.342 372.369 853.171 367.786 Q849.999 363.179 849.999 354.452 Q849.999 346.258 853.888 341.397 Q857.777 336.513 864.328 336.513 Q866.087 336.513 867.87 336.86 Q869.675 337.207 871.62 337.901 Z" fill="#000000" fill-rule="nonzero" fill-opacity="1" /><path clip-path="url(#clip550)" d="M880.74 337.138 L902.962 337.138 L902.962 339.128 L890.416 371.698 L885.531 371.698 L897.337 341.073 L880.74 341.073 L880.74 337.138 Z" fill="#000000" fill-rule="nonzero" fill-opacity="1" /><path clip-path="url(#clip550)" d="M912.892 367.762 L920.531 367.762 L920.531 341.397 L912.221 343.063 L912.221 338.804 L920.485 337.138 L925.161 337.138 L925.161 367.762 L932.8 367.762 L932.8 371.698 L912.892 371.698 L912.892 367.762 Z" fill="#000000" fill-rule="nonzero" fill-opacity="1" /><path clip-path="url(#clip550)" d="M955.091 341.212 L943.286 359.661 L955.091 359.661 L955.091 341.212 M953.864 337.138 L959.744 337.138 L959.744 359.661 L964.675 359.661 L964.675 363.549 L959.744 363.549 L959.744 371.698 L955.091 371.698 L955.091 363.549 L939.49 363.549 L939.49 359.036 L953.864 337.138 Z" fill="#000000" fill-rule="nonzero" fill-opacity="1" /><path clip-path="url(#clip550)" d="M982.406 340.216 Q978.795 340.216 976.966 343.781 Q975.161 347.323 975.161 354.452 Q975.161 361.559 976.966 365.124 Q978.795 368.665 982.406 368.665 Q986.04 368.665 987.846 365.124 Q989.674 361.559 989.674 354.452 Q989.674 347.323 987.846 343.781 Q986.04 340.216 982.406 340.216 M982.406 336.513 Q988.216 336.513 991.272 341.119 Q994.35 345.702 994.35 354.452 Q994.35 363.179 991.272 367.786 Q988.216 372.369 982.406 372.369 Q976.596 372.369 973.517 367.786 Q970.462 363.179 970.462 354.452 Q970.462 345.702 973.517 341.119 Q976.596 336.513 982.406 336.513 Z" fill="#000000" fill-rule="nonzero" fill-opacity="1" /><path clip-path="url(#clip550)" d="M1002.71 370.98 L1002.71 366.721 Q1004.47 367.554 1006.27 367.994 Q1008.08 368.434 1009.81 368.434 Q1014.44 368.434 1016.87 365.332 Q1019.33 362.207 1019.67 355.864 Q1018.33 357.855 1016.27 358.92 Q1014.21 359.985 1011.71 359.985 Q1006.53 359.985 1003.49 356.86 Q1000.48 353.712 1000.48 348.272 Q1000.48 342.948 1003.63 339.73 Q1006.78 336.513 1012.01 336.513 Q1018.01 336.513 1021.16 341.119 Q1024.33 345.702 1024.33 354.452 Q1024.33 362.624 1020.44 367.508 Q1016.57 372.369 1010.02 372.369 Q1008.26 372.369 1006.46 372.022 Q1004.65 371.674 1002.71 370.98 M1012.01 356.327 Q1015.16 356.327 1016.99 354.174 Q1018.84 352.022 1018.84 348.272 Q1018.84 344.545 1016.99 342.392 Q1015.16 340.216 1012.01 340.216 Q1008.86 340.216 1007.01 342.392 Q1005.18 344.545 1005.18 348.272 Q1005.18 352.022 1007.01 354.174 Q1008.86 356.327 1012.01 356.327 Z" fill="#000000" fill-rule="nonzero" fill-opacity="1" /><path clip-path="url(#clip550)" d="M1043.31 352.554 Q1040.16 352.554 1038.31 354.707 Q1036.48 356.86 1036.48 360.61 Q1036.48 364.336 1038.31 366.512 Q1040.16 368.665 1043.31 368.665 Q1046.46 368.665 1048.29 366.512 Q1050.14 364.336 1050.14 360.61 Q1050.14 356.86 1048.29 354.707 Q1046.46 352.554 1043.31 352.554 M1052.59 337.901 L1052.59 342.161 Q1050.83 341.327 1049.03 340.888 Q1047.24 340.448 1045.48 340.448 Q1040.85 340.448 1038.4 343.573 Q1035.97 346.698 1035.62 353.017 Q1036.99 351.003 1039.05 349.938 Q1041.11 348.85 1043.59 348.85 Q1048.79 348.85 1051.8 352.022 Q1054.84 355.17 1054.84 360.61 Q1054.84 365.934 1051.69 369.151 Q1048.54 372.369 1043.31 372.369 Q1037.31 372.369 1034.14 367.786 Q1030.97 363.179 1030.97 354.452 Q1030.97 346.258 1034.86 341.397 Q1038.75 336.513 1045.3 336.513 Q1047.06 336.513 1048.84 336.86 Q1050.65 337.207 1052.59 337.901 Z" fill="#000000" fill-rule="nonzero" fill-opacity="1" /><path clip-path="url(#clip550)" d="M1072.89 340.216 Q1069.28 340.216 1067.45 343.781 Q1065.65 347.323 1065.65 354.452 Q1065.65 361.559 1067.45 365.124 Q1069.28 368.665 1072.89 368.665 Q1076.53 368.665 1078.33 365.124 Q1080.16 361.559 1080.16 354.452 Q1080.16 347.323 1078.33 343.781 Q1076.53 340.216 1072.89 340.216 M1072.89 336.513 Q1078.7 336.513 1081.76 341.119 Q1084.84 345.702 1084.84 354.452 Q1084.84 363.179 1081.76 367.786 Q1078.7 372.369 1072.89 372.369 Q1067.08 372.369 1064 367.786 Q1060.95 363.179 1060.95 354.452 Q1060.95 345.702 1064 341.119 Q1067.08 336.513 1072.89 336.513 Z" fill="#000000" fill-rule="nonzero" fill-opacity="1" /><path clip-path="url(#clip550)" d="M1091.87 337.138 L1114.1 337.138 L1114.1 339.128 L1101.55 371.698 L1096.66 371.698 L1108.47 341.073 L1091.87 341.073 L1091.87 337.138 Z" fill="#000000" fill-rule="nonzero" fill-opacity="1" /><path clip-path="url(#clip550)" d="M1121.94 335.726 L1125.65 335.726 Q1129.12 341.188 1130.83 346.42 Q1132.57 351.651 1132.57 356.813 Q1132.57 361.999 1130.83 367.253 Q1129.12 372.508 1125.65 377.948 L1121.94 377.948 Q1125.02 372.647 1126.53 367.415 Q1128.05 362.161 1128.05 356.813 Q1128.05 351.466 1126.53 346.258 Q1125.02 341.05 1121.94 335.726 Z" fill="#000000" fill-rule="nonzero" fill-opacity="1" /></svg>