<?xml version="1.0" encoding="utf-8"?>
<svg xmlns="http://www.w3.org/2000/svg" xmlns:xlink="http://www.w3.org/1999/xlink" width="800" height="400" viewBox="0 0 3200 1600">
<defs>
  <clipPath id="clip970">
    <rect x="0" y="0" width="3200" height="1600"/>
  </clipPath>
</defs>
<path clip-path="url(#clip970)" d="M0 1600 L3200 1600 L3200 0 L0 0  Z" fill="#ffffff" fill-rule="evenodd" fill-opacity="1"/>
<defs>
  <clipPath id="clip971">
    <rect x="640" y="0" width="2241" height="1600"/>
  </clipPath>
</defs>
<path clip-path="url(#clip970)" d="M215.5 1443.7 L1546.25 1443.7 L1546.25 47.2441 L215.5 47.2441  Z" fill="#ffffff" fill-rule="evenodd" fill-opacity="1"/>
<defs>
  <clipPath id="clip972">
    <rect x="215" y="47" width="1332" height="1397"/>
  </clipPath>
</defs>
<polyline clip-path="url(#clip972)" style="stroke:#000000; stroke-linecap:round; stroke-linejoin:round; stroke-width:2; stroke-opacity:0.1; fill:none" points="246.886,1443.7 246.886,47.2441 "/>
<polyline clip-path="url(#clip972)" style="stroke:#000000; stroke-linecap:round; stroke-linejoin:round; stroke-width:2; stroke-opacity:0.1; fill:none" points="560.742,1443.7 560.742,47.2441 "/>
<polyline clip-path="url(#clip972)" style="stroke:#000000; stroke-linecap:round; stroke-linejoin:round; stroke-width:2; stroke-opacity:0.1; fill:none" points="874.599,1443.7 874.599,47.2441 "/>
<polyline clip-path="url(#clip972)" style="stroke:#000000; stroke-linecap:round; stroke-linejoin:round; stroke-width:2; stroke-opacity:0.1; fill:none" points="1188.46,1443.7 1188.46,47.2441 "/>
<polyline clip-path="url(#clip972)" style="stroke:#000000; stroke-linecap:round; stroke-linejoin:round; stroke-width:2; stroke-opacity:0.1; fill:none" points="1502.31,1443.7 1502.31,47.2441 "/>
<polyline clip-path="url(#clip970)" style="stroke:#000000; stroke-linecap:round; stroke-linejoin:round; stroke-width:4; stroke-opacity:1; fill:none" points="215.5,1443.7 1546.25,1443.7 "/>
<polyline clip-path="url(#clip970)" style="stroke:#000000; stroke-linecap:round; stroke-linejoin:round; stroke-width:4; stroke-opacity:1; fill:none" points="246.886,1443.7 246.886,1424.8 "/>
<polyline clip-path="url(#clip970)" style="stroke:#000000; stroke-linecap:round; stroke-linejoin:round; stroke-width:4; stroke-opacity:1; fill:none" points="560.742,1443.7 560.742,1424.8 "/>
<polyline clip-path="url(#clip970)" style="stroke:#000000; stroke-linecap:round; stroke-linejoin:round; stroke-width:4; stroke-opacity:1; fill:none" points="874.599,1443.7 874.599,1424.8 "/>
<polyline clip-path="url(#clip970)" style="stroke:#000000; stroke-linecap:round; stroke-linejoin:round; stroke-width:4; stroke-opacity:1; fill:none" points="1188.46,1443.7 1188.46,1424.8 "/>
<polyline clip-path="url(#clip970)" style="stroke:#000000; stroke-linecap:round; stroke-linejoin:round; stroke-width:4; stroke-opacity:1; fill:none" points="1502.31,1443.7 1502.31,1424.8 "/>
<path clip-path="url(#clip970)" d="M246.886 1481.02 Q243.275 1481.02 241.446 1484.58 Q239.64 1488.12 239.64 1495.25 Q239.64 1502.36 241.446 1505.93 Q243.275 1509.47 246.886 1509.47 Q250.52 1509.47 252.326 1505.93 Q254.154 1502.36 254.154 1495.25 Q254.154 1488.12 252.326 1484.58 Q250.52 1481.02 246.886 1481.02 M246.886 1477.31 Q252.696 1477.31 255.751 1481.92 Q258.83 1486.5 258.83 1495.25 Q258.83 1503.98 255.751 1508.59 Q252.696 1513.17 246.886 1513.17 Q241.076 1513.17 237.997 1508.59 Q234.941 1503.98 234.941 1495.25 Q234.941 1486.5 237.997 1481.92 Q241.076 1477.31 246.886 1477.31 Z" fill="#000000" fill-rule="nonzero" fill-opacity="1" /><path clip-path="url(#clip970)" d="M535.441 1477.94 L553.798 1477.94 L553.798 1481.88 L539.724 1481.88 L539.724 1490.35 Q540.742 1490 541.761 1489.84 Q542.779 1489.65 543.798 1489.65 Q549.585 1489.65 552.964 1492.82 Q556.344 1496 556.344 1501.41 Q556.344 1506.99 552.872 1510.09 Q549.4 1513.17 543.08 1513.17 Q540.904 1513.17 538.636 1512.8 Q536.39 1512.43 533.983 1511.69 L533.983 1506.99 Q536.066 1508.12 538.289 1508.68 Q540.511 1509.24 542.988 1509.24 Q546.992 1509.24 549.33 1507.13 Q551.668 1505.02 551.668 1501.41 Q551.668 1497.8 549.33 1495.69 Q546.992 1493.59 542.988 1493.59 Q541.113 1493.59 539.238 1494 Q537.386 1494.42 535.441 1495.3 L535.441 1477.94 Z" fill="#000000" fill-rule="nonzero" fill-opacity="1" /><path clip-path="url(#clip970)" d="M575.557 1481.02 Q571.946 1481.02 570.117 1484.58 Q568.312 1488.12 568.312 1495.25 Q568.312 1502.36 570.117 1505.93 Q571.946 1509.47 575.557 1509.47 Q579.191 1509.47 580.997 1505.93 Q582.825 1502.36 582.825 1495.25 Q582.825 1488.12 580.997 1484.58 Q579.191 1481.02 575.557 1481.02 M575.557 1477.31 Q581.367 1477.31 584.423 1481.92 Q587.501 1486.5 587.501 1495.25 Q587.501 1503.98 584.423 1508.59 Q581.367 1513.17 575.557 1513.17 Q569.747 1513.17 566.668 1508.59 Q563.613 1503.98 563.613 1495.25 Q563.613 1486.5 566.668 1481.92 Q569.747 1477.31 575.557 1477.31 Z" fill="#000000" fill-rule="nonzero" fill-opacity="1" /><path clip-path="url(#clip970)" d="M834.205 1508.56 L841.844 1508.56 L841.844 1482.2 L833.534 1483.87 L833.534 1479.61 L841.798 1477.94 L846.474 1477.94 L846.474 1508.56 L854.113 1508.56 L854.113 1512.5 L834.205 1512.5 L834.205 1508.56 Z" fill="#000000" fill-rule="nonzero" fill-opacity="1" /><path clip-path="url(#clip970)" d="M873.557 1481.02 Q869.946 1481.02 868.117 1484.58 Q866.312 1488.12 866.312 1495.25 Q866.312 1502.36 868.117 1505.93 Q869.946 1509.47 873.557 1509.47 Q877.191 1509.47 878.997 1505.93 Q880.825 1502.36 880.825 1495.25 Q880.825 1488.12 878.997 1484.58 Q877.191 1481.02 873.557 1481.02 M873.557 1477.31 Q879.367 1477.31 882.423 1481.92 Q885.501 1486.5 885.501 1495.25 Q885.501 1503.98 882.423 1508.59 Q879.367 1513.17 873.557 1513.17 Q867.747 1513.17 864.668 1508.59 Q861.613 1503.98 861.613 1495.25 Q861.613 1486.5 864.668 1481.92 Q867.747 1477.31 873.557 1477.31 Z" fill="#000000" fill-rule="nonzero" fill-opacity="1" /><path clip-path="url(#clip970)" d="M903.719 1481.02 Q900.108 1481.02 898.279 1484.58 Q896.473 1488.12 896.473 1495.25 Q896.473 1502.36 898.279 1505.93 Q900.108 1509.47 903.719 1509.47 Q907.353 1509.47 909.159 1505.93 Q910.987 1502.36 910.987 1495.25 Q910.987 1488.12 909.159 1484.58 Q907.353 1481.02 903.719 1481.02 M903.719 1477.31 Q909.529 1477.31 912.585 1481.92 Q915.663 1486.5 915.663 1495.25 Q915.663 1503.98 912.585 1508.59 Q909.529 1513.17 903.719 1513.17 Q897.909 1513.17 894.83 1508.59 Q891.774 1503.98 891.774 1495.25 Q891.774 1486.5 894.83 1481.92 Q897.909 1477.31 903.719 1477.31 Z" fill="#000000" fill-rule="nonzero" fill-opacity="1" /><path clip-path="url(#clip970)" d="M1148.06 1508.56 L1155.7 1508.56 L1155.7 1482.2 L1147.39 1483.87 L1147.39 1479.61 L1155.65 1477.94 L1160.33 1477.94 L1160.33 1508.56 L1167.97 1508.56 L1167.97 1512.5 L1148.06 1512.5 L1148.06 1508.56 Z" fill="#000000" fill-rule="nonzero" fill-opacity="1" /><path clip-path="url(#clip970)" d="M1177.46 1477.94 L1195.82 1477.94 L1195.82 1481.88 L1181.74 1481.88 L1181.74 1490.35 Q1182.76 1490 1183.78 1489.84 Q1184.8 1489.65 1185.82 1489.65 Q1191.6 1489.65 1194.98 1492.82 Q1198.36 1496 1198.36 1501.41 Q1198.36 1506.99 1194.89 1510.09 Q1191.42 1513.17 1185.1 1513.17 Q1182.92 1513.17 1180.65 1512.8 Q1178.41 1512.43 1176 1511.69 L1176 1506.99 Q1178.08 1508.12 1180.31 1508.68 Q1182.53 1509.24 1185.01 1509.24 Q1189.01 1509.24 1191.35 1507.13 Q1193.69 1505.02 1193.69 1501.41 Q1193.69 1497.8 1191.35 1495.69 Q1189.01 1493.59 1185.01 1493.59 Q1183.13 1493.59 1181.26 1494 Q1179.4 1494.42 1177.46 1495.3 L1177.46 1477.94 Z" fill="#000000" fill-rule="nonzero" fill-opacity="1" /><path clip-path="url(#clip970)" d="M1217.58 1481.02 Q1213.96 1481.02 1212.14 1484.58 Q1210.33 1488.12 1210.33 1495.25 Q1210.33 1502.36 1212.14 1505.93 Q1213.96 1509.47 1217.58 1509.47 Q1221.21 1509.47 1223.02 1505.93 Q1224.84 1502.36 1224.84 1495.25 Q1224.84 1488.12 1223.02 1484.58 Q1221.21 1481.02 1217.58 1481.02 M1217.58 1477.31 Q1223.39 1477.31 1226.44 1481.92 Q1229.52 1486.5 1229.52 1495.25 Q1229.52 1503.98 1226.44 1508.59 Q1223.39 1513.17 1217.58 1513.17 Q1211.77 1513.17 1208.69 1508.59 Q1205.63 1503.98 1205.63 1495.25 Q1205.63 1486.5 1208.69 1481.92 Q1211.77 1477.31 1217.58 1477.31 Z" fill="#000000" fill-rule="nonzero" fill-opacity="1" /><path clip-path="url(#clip970)" d="M1466 1508.56 L1482.32 1508.56 L1482.32 1512.5 L1460.38 1512.5 L1460.38 1508.56 Q1463.04 1505.81 1467.62 1501.18 Q1472.23 1496.53 1473.41 1495.19 Q1475.66 1492.66 1476.54 1490.93 Q1477.44 1489.17 1477.44 1487.48 Q1477.44 1484.72 1475.49 1482.99 Q1473.57 1481.25 1470.47 1481.25 Q1468.27 1481.25 1465.82 1482.01 Q1463.39 1482.78 1460.61 1484.33 L1460.61 1479.61 Q1463.43 1478.47 1465.89 1477.89 Q1468.34 1477.31 1470.38 1477.31 Q1475.75 1477.31 1478.94 1480 Q1482.14 1482.69 1482.14 1487.18 Q1482.14 1489.31 1481.33 1491.23 Q1480.54 1493.12 1478.43 1495.72 Q1477.86 1496.39 1474.75 1499.61 Q1471.65 1502.8 1466 1508.56 Z" fill="#000000" fill-rule="nonzero" fill-opacity="1" /><path clip-path="url(#clip970)" d="M1502.14 1481.02 Q1498.53 1481.02 1496.7 1484.58 Q1494.89 1488.12 1494.89 1495.25 Q1494.89 1502.36 1496.7 1505.93 Q1498.53 1509.47 1502.14 1509.47 Q1505.77 1509.47 1507.58 1505.93 Q1509.41 1502.36 1509.41 1495.25 Q1509.41 1488.12 1507.58 1484.58 Q1505.77 1481.02 1502.14 1481.02 M1502.14 1477.31 Q1507.95 1477.31 1511 1481.92 Q1514.08 1486.5 1514.08 1495.25 Q1514.08 1503.98 1511 1508.59 Q1507.95 1513.17 1502.14 1513.17 Q1496.33 1513.17 1493.25 1508.59 Q1490.19 1503.98 1490.19 1495.25 Q1490.19 1486.5 1493.25 1481.92 Q1496.33 1477.31 1502.14 1477.31 Z" fill="#000000" fill-rule="nonzero" fill-opacity="1" /><path clip-path="url(#clip970)" d="M1532.3 1481.02 Q1528.69 1481.02 1526.86 1484.58 Q1525.05 1488.12 1525.05 1495.25 Q1525.05 1502.36 1526.86 1505.93 Q1528.69 1509.47 1532.3 1509.47 Q1535.93 1509.47 1537.74 1505.93 Q1539.57 1502.36 1539.57 1495.25 Q1539.57 1488.12 1537.74 1484.58 Q1535.93 1481.02 1532.3 1481.02 M1532.3 1477.31 Q1538.11 1477.31 1541.17 1481.92 Q1544.24 1486.5 1544.24 1495.25 Q1544.24 1503.98 1541.17 1508.59 Q1538.11 1513.17 1532.3 1513.17 Q1526.49 1513.17 1523.41 1508.59 Q1520.36 1503.98 1520.36 1495.25 Q1520.36 1486.5 1523.41 1481.92 Q1526.49 1477.31 1532.3 1477.31 Z" fill="#000000" fill-rule="nonzero" fill-opacity="1" /><path clip-path="url(#clip970)" d="M778.658 1553.04 L818.858 1553.04 L818.858 1558.45 L801.989 1558.45 L801.989 1600.56 L795.528 1600.56 L795.528 1558.45 L778.658 1558.45 L778.658 1553.04 Z" fill="#000000" fill-rule="nonzero" fill-opacity="1" /><path clip-path="url(#clip970)" d="M822.805 1564.92 L828.661 1564.92 L828.661 1600.56 L822.805 1600.56 L822.805 1564.92 M822.805 1551.04 L828.661 1551.04 L828.661 1558.45 L822.805 1558.45 L822.805 1551.04 Z" fill="#000000" fill-rule="nonzero" fill-opacity="1" /><path clip-path="url(#clip970)" d="M868.669 1571.76 Q870.866 1567.81 873.921 1565.93 Q876.977 1564.06 881.114 1564.06 Q886.684 1564.06 889.708 1567.97 Q892.732 1571.85 892.732 1579.05 L892.732 1600.56 L886.844 1600.56 L886.844 1579.24 Q886.844 1574.11 885.029 1571.63 Q883.215 1569.15 879.491 1569.15 Q874.94 1569.15 872.298 1572.17 Q869.656 1575.2 869.656 1580.42 L869.656 1600.56 L863.768 1600.56 L863.768 1579.24 Q863.768 1574.08 861.954 1571.63 Q860.139 1569.15 856.352 1569.15 Q851.864 1569.15 849.222 1572.2 Q846.58 1575.23 846.58 1580.42 L846.58 1600.56 L840.692 1600.56 L840.692 1564.92 L846.58 1564.92 L846.58 1570.45 Q848.586 1567.18 851.387 1565.62 Q854.188 1564.06 858.039 1564.06 Q861.922 1564.06 864.627 1566.03 Q867.365 1568 868.669 1571.76 Z" fill="#000000" fill-rule="nonzero" fill-opacity="1" /><path clip-path="url(#clip970)" d="M934.905 1581.28 L934.905 1584.14 L907.978 1584.14 Q908.36 1590.19 911.606 1593.37 Q914.885 1596.52 920.709 1596.52 Q924.083 1596.52 927.234 1595.69 Q930.417 1594.87 933.536 1593.21 L933.536 1598.75 Q930.385 1600.09 927.075 1600.79 Q923.765 1601.49 920.359 1601.49 Q911.829 1601.49 906.832 1596.52 Q901.867 1591.56 901.867 1583.09 Q901.867 1574.34 906.577 1569.21 Q911.32 1564.06 919.341 1564.06 Q926.534 1564.06 930.703 1568.7 Q934.905 1573.32 934.905 1581.28 M929.048 1579.56 Q928.985 1574.75 926.343 1571.89 Q923.733 1569.02 919.404 1569.02 Q914.503 1569.02 911.543 1571.79 Q908.614 1574.56 908.169 1579.59 L929.048 1579.56 Z" fill="#000000" fill-rule="nonzero" fill-opacity="1" /><path clip-path="url(#clip970)" d="M971.03 1554.79 L971.03 1564.92 L983.093 1564.92 L983.093 1569.47 L971.03 1569.47 L971.03 1588.82 Q971.03 1593.18 972.208 1594.42 Q973.417 1595.66 977.077 1595.66 L983.093 1595.66 L983.093 1600.56 L977.077 1600.56 Q970.298 1600.56 967.72 1598.05 Q965.142 1595.5 965.142 1588.82 L965.142 1569.47 L960.845 1569.47 L960.845 1564.92 L965.142 1564.92 L965.142 1554.79 L971.03 1554.79 Z" fill="#000000" fill-rule="nonzero" fill-opacity="1" /><polyline clip-path="url(#clip972)" style="stroke:#000000; stroke-linecap:round; stroke-linejoin:round; stroke-width:2; stroke-opacity:0.1; fill:none" points="215.5,1412.02 1546.25,1412.02 "/>
<polyline clip-path="url(#clip972)" style="stroke:#000000; stroke-linecap:round; stroke-linejoin:round; stroke-width:2; stroke-opacity:0.1; fill:none" points="215.5,1150.33 1546.25,1150.33 "/>
<polyline clip-path="url(#clip972)" style="stroke:#000000; stroke-linecap:round; stroke-linejoin:round; stroke-width:2; stroke-opacity:0.1; fill:none" points="215.5,888.632 1546.25,888.632 "/>
<polyline clip-path="url(#clip972)" style="stroke:#000000; stroke-linecap:round; stroke-linejoin:round; stroke-width:2; stroke-opacity:0.1; fill:none" points="215.5,626.936 1546.25,626.936 "/>
<polyline clip-path="url(#clip972)" style="stroke:#000000; stroke-linecap:round; stroke-linejoin:round; stroke-width:2; stroke-opacity:0.1; fill:none" points="215.5,365.24 1546.25,365.24 "/>
<polyline clip-path="url(#clip972)" style="stroke:#000000; stroke-linecap:round; stroke-linejoin:round; stroke-width:2; stroke-opacity:0.1; fill:none" points="215.5,103.545 1546.25,103.545 "/>
<polyline clip-path="url(#clip970)" style="stroke:#000000; stroke-linecap:round; stroke-linejoin:round; stroke-width:4; stroke-opacity:1; fill:none" points="215.5,1443.7 215.5,47.2441 "/>
<polyline clip-path="url(#clip970)" style="stroke:#000000; stroke-linecap:round; stroke-linejoin:round; stroke-width:4; stroke-opacity:1; fill:none" points="215.5,1412.02 234.398,1412.02 "/>
<polyline clip-path="url(#clip970)" style="stroke:#000000; stroke-linecap:round; stroke-linejoin:round; stroke-width:4; stroke-opacity:1; fill:none" points="215.5,1150.33 234.398,1150.33 "/>
<polyline clip-path="url(#clip970)" style="stroke:#000000; stroke-linecap:round; stroke-linejoin:round; stroke-width:4; stroke-opacity:1; fill:none" points="215.5,888.632 234.398,888.632 "/>
<polyline clip-path="url(#clip970)" style="stroke:#000000; stroke-linecap:round; stroke-linejoin:round; stroke-width:4; stroke-opacity:1; fill:none" points="215.5,626.936 234.398,626.936 "/>
<polyline clip-path="url(#clip970)" style="stroke:#000000; stroke-linecap:round; stroke-linejoin:round; stroke-width:4; stroke-opacity:1; fill:none" points="215.5,365.24 234.398,365.24 "/>
<polyline clip-path="url(#clip970)" style="stroke:#000000; stroke-linecap:round; stroke-linejoin:round; stroke-width:4; stroke-opacity:1; fill:none" points="215.5,103.545 234.398,103.545 "/>
<path clip-path="url(#clip970)" d="M110.325 1397.82 Q106.713 1397.82 104.885 1401.39 Q103.079 1404.93 103.079 1412.06 Q103.079 1419.16 104.885 1422.73 Q106.713 1426.27 110.325 1426.27 Q113.959 1426.27 115.764 1422.73 Q117.593 1419.16 117.593 1412.06 Q117.593 1404.93 115.764 1401.39 Q113.959 1397.82 110.325 1397.82 M110.325 1394.12 Q116.135 1394.12 119.19 1398.73 Q122.269 1403.31 122.269 1412.06 Q122.269 1420.79 119.19 1425.39 Q116.135 1429.98 110.325 1429.98 Q104.514 1429.98 101.436 1425.39 Q98.3802 1420.79 98.3802 1412.06 Q98.3802 1403.31 101.436 1398.73 Q104.514 1394.12 110.325 1394.12 Z" fill="#000000" fill-rule="nonzero" fill-opacity="1" /><path clip-path="url(#clip970)" d="M130.486 1423.42 L135.371 1423.42 L135.371 1429.3 L130.486 1429.3 L130.486 1423.42 Z" fill="#000000" fill-rule="nonzero" fill-opacity="1" /><path clip-path="url(#clip970)" d="M155.556 1397.82 Q151.945 1397.82 150.116 1401.39 Q148.31 1404.93 148.31 1412.06 Q148.31 1419.16 150.116 1422.73 Q151.945 1426.27 155.556 1426.27 Q159.19 1426.27 160.996 1422.73 Q162.824 1419.16 162.824 1412.06 Q162.824 1404.93 160.996 1401.39 Q159.19 1397.82 155.556 1397.82 M155.556 1394.12 Q161.366 1394.12 164.421 1398.73 Q167.5 1403.31 167.5 1412.06 Q167.5 1420.79 164.421 1425.39 Q161.366 1429.98 155.556 1429.98 Q149.746 1429.98 146.667 1425.39 Q143.611 1420.79 143.611 1412.06 Q143.611 1403.31 146.667 1398.73 Q149.746 1394.12 155.556 1394.12 Z" fill="#000000" fill-rule="nonzero" fill-opacity="1" /><path clip-path="url(#clip970)" d="M111.32 1136.13 Q107.709 1136.13 105.88 1139.69 Q104.075 1143.23 104.075 1150.36 Q104.075 1157.47 105.88 1161.03 Q107.709 1164.58 111.32 1164.58 Q114.954 1164.58 116.76 1161.03 Q118.588 1157.47 118.588 1150.36 Q118.588 1143.23 116.76 1139.69 Q114.954 1136.13 111.32 1136.13 M111.32 1132.42 Q117.13 1132.42 120.186 1137.03 Q123.264 1141.61 123.264 1150.36 Q123.264 1159.09 120.186 1163.7 Q117.13 1168.28 111.32 1168.28 Q105.51 1168.28 102.431 1163.7 Q99.3755 1159.09 99.3755 1150.36 Q99.3755 1141.61 102.431 1137.03 Q105.51 1132.42 111.32 1132.42 Z" fill="#000000" fill-rule="nonzero" fill-opacity="1" /><path clip-path="url(#clip970)" d="M131.482 1161.73 L136.366 1161.73 L136.366 1167.61 L131.482 1167.61 L131.482 1161.73 Z" fill="#000000" fill-rule="nonzero" fill-opacity="1" /><path clip-path="url(#clip970)" d="M146.597 1133.05 L164.954 1133.05 L164.954 1136.98 L150.88 1136.98 L150.88 1145.46 Q151.898 1145.11 152.917 1144.95 Q153.935 1144.76 154.954 1144.76 Q160.741 1144.76 164.121 1147.93 Q167.5 1151.1 167.5 1156.52 Q167.5 1162.1 164.028 1165.2 Q160.556 1168.28 154.236 1168.28 Q152.06 1168.28 149.792 1167.91 Q147.547 1167.54 145.139 1166.8 L145.139 1162.1 Q147.222 1163.23 149.445 1163.79 Q151.667 1164.34 154.144 1164.34 Q158.148 1164.34 160.486 1162.24 Q162.824 1160.13 162.824 1156.52 Q162.824 1152.91 160.486 1150.8 Q158.148 1148.7 154.144 1148.7 Q152.269 1148.7 150.394 1149.11 Q148.542 1149.53 146.597 1150.41 L146.597 1133.05 Z" fill="#000000" fill-rule="nonzero" fill-opacity="1" /><path clip-path="url(#clip970)" d="M101.135 901.977 L108.774 901.977 L108.774 875.611 L100.463 877.278 L100.463 873.019 L108.727 871.352 L113.403 871.352 L113.403 901.977 L121.042 901.977 L121.042 905.912 L101.135 905.912 L101.135 901.977 Z" fill="#000000" fill-rule="nonzero" fill-opacity="1" /><path clip-path="url(#clip970)" d="M130.486 900.032 L135.371 900.032 L135.371 905.912 L130.486 905.912 L130.486 900.032 Z" fill="#000000" fill-rule="nonzero" fill-opacity="1" /><path clip-path="url(#clip970)" d="M155.556 874.431 Q151.945 874.431 150.116 877.996 Q148.31 881.537 148.31 888.667 Q148.31 895.773 150.116 899.338 Q151.945 902.88 155.556 902.88 Q159.19 902.88 160.996 899.338 Q162.824 895.773 162.824 888.667 Q162.824 881.537 160.996 877.996 Q159.19 874.431 155.556 874.431 M155.556 870.727 Q161.366 870.727 164.421 875.334 Q167.5 879.917 167.5 888.667 Q167.5 897.394 164.421 902 Q161.366 906.583 155.556 906.583 Q149.746 906.583 146.667 902 Q143.611 897.394 143.611 888.667 Q143.611 879.917 146.667 875.334 Q149.746 870.727 155.556 870.727 Z" fill="#000000" fill-rule="nonzero" fill-opacity="1" /><path clip-path="url(#clip970)" d="M102.13 640.281 L109.769 640.281 L109.769 613.915 L101.459 615.582 L101.459 611.323 L109.723 609.656 L114.399 609.656 L114.399 640.281 L122.037 640.281 L122.037 644.216 L102.13 644.216 L102.13 640.281 Z" fill="#000000" fill-rule="nonzero" fill-opacity="1" /><path clip-path="url(#clip970)" d="M131.482 638.337 L136.366 638.337 L136.366 644.216 L131.482 644.216 L131.482 638.337 Z" fill="#000000" fill-rule="nonzero" fill-opacity="1" /><path clip-path="url(#clip970)" d="M146.597 609.656 L164.954 609.656 L164.954 613.591 L150.88 613.591 L150.88 622.064 Q151.898 621.716 152.917 621.554 Q153.935 621.369 154.954 621.369 Q160.741 621.369 164.121 624.54 Q167.5 627.712 167.5 633.128 Q167.5 638.707 164.028 641.809 Q160.556 644.888 154.236 644.888 Q152.06 644.888 149.792 644.517 Q147.547 644.147 145.139 643.406 L145.139 638.707 Q147.222 639.841 149.445 640.397 Q151.667 640.952 154.144 640.952 Q158.148 640.952 160.486 638.846 Q162.824 636.739 162.824 633.128 Q162.824 629.517 160.486 627.411 Q158.148 625.304 154.144 625.304 Q152.269 625.304 150.394 625.721 Q148.542 626.138 146.597 627.017 L146.597 609.656 Z" fill="#000000" fill-rule="nonzero" fill-opacity="1" /><path clip-path="url(#clip970)" d="M104.352 378.585 L120.672 378.585 L120.672 382.52 L98.7274 382.52 L98.7274 378.585 Q101.389 375.831 105.973 371.201 Q110.579 366.548 111.76 365.206 Q114.005 362.683 114.885 360.946 Q115.787 359.187 115.787 357.497 Q115.787 354.743 113.843 353.007 Q111.922 351.271 108.82 351.271 Q106.621 351.271 104.167 352.034 Q101.737 352.798 98.9589 354.349 L98.9589 349.627 Q101.783 348.493 104.237 347.914 Q106.69 347.335 108.727 347.335 Q114.098 347.335 117.292 350.021 Q120.487 352.706 120.487 357.196 Q120.487 359.326 119.676 361.247 Q118.889 363.145 116.783 365.738 Q116.204 366.409 113.102 369.627 Q110 372.821 104.352 378.585 Z" fill="#000000" fill-rule="nonzero" fill-opacity="1" /><path clip-path="url(#clip970)" d="M130.486 376.641 L135.371 376.641 L135.371 382.52 L130.486 382.52 L130.486 376.641 Z" fill="#000000" fill-rule="nonzero" fill-opacity="1" /><path clip-path="url(#clip970)" d="M155.556 351.039 Q151.945 351.039 150.116 354.604 Q148.31 358.146 148.31 365.275 Q148.31 372.382 150.116 375.946 Q151.945 379.488 155.556 379.488 Q159.19 379.488 160.996 375.946 Q162.824 372.382 162.824 365.275 Q162.824 358.146 160.996 354.604 Q159.19 351.039 155.556 351.039 M155.556 347.335 Q161.366 347.335 164.421 351.942 Q167.5 356.525 167.5 365.275 Q167.5 374.002 164.421 378.608 Q161.366 383.192 155.556 383.192 Q149.746 383.192 146.667 378.608 Q143.611 374.002 143.611 365.275 Q143.611 356.525 146.667 351.942 Q149.746 347.335 155.556 347.335 Z" fill="#000000" fill-rule="nonzero" fill-opacity="1" /><path clip-path="url(#clip970)" d="M105.348 116.889 L121.667 116.889 L121.667 120.825 L99.7227 120.825 L99.7227 116.889 Q102.385 114.135 106.968 109.505 Q111.575 104.852 112.755 103.51 Q115 100.987 115.88 99.2506 Q116.783 97.4914 116.783 95.8015 Q116.783 93.0469 114.838 91.3108 Q112.917 89.5747 109.815 89.5747 Q107.616 89.5747 105.163 90.3386 Q102.732 91.1025 99.9542 92.6534 L99.9542 87.9312 Q102.778 86.797 105.232 86.2183 Q107.686 85.6396 109.723 85.6396 Q115.093 85.6396 118.287 88.3247 Q121.482 91.0099 121.482 95.5006 Q121.482 97.6302 120.672 99.5515 Q119.885 101.45 117.778 104.042 Q117.2 104.714 114.098 107.931 Q110.996 111.126 105.348 116.889 Z" fill="#000000" fill-rule="nonzero" fill-opacity="1" /><path clip-path="url(#clip970)" d="M131.482 114.945 L136.366 114.945 L136.366 120.825 L131.482 120.825 L131.482 114.945 Z" fill="#000000" fill-rule="nonzero" fill-opacity="1" /><path clip-path="url(#clip970)" d="M146.597 86.2646 L164.954 86.2646 L164.954 90.1997 L150.88 90.1997 L150.88 98.6719 Q151.898 98.3247 152.917 98.1626 Q153.935 97.9775 154.954 97.9775 Q160.741 97.9775 164.121 101.149 Q167.5 104.32 167.5 109.737 Q167.5 115.315 164.028 118.417 Q160.556 121.496 154.236 121.496 Q152.06 121.496 149.792 121.125 Q147.547 120.755 145.139 120.014 L145.139 115.315 Q147.222 116.45 149.445 117.005 Q151.667 117.561 154.144 117.561 Q158.148 117.561 160.486 115.454 Q162.824 113.348 162.824 109.737 Q162.824 106.126 160.486 104.019 Q158.148 101.913 154.144 101.913 Q152.269 101.913 150.394 102.329 Q148.542 102.746 146.597 103.626 L146.597 86.2646 Z" fill="#000000" fill-rule="nonzero" fill-opacity="1" /><path clip-path="url(#clip970)" d="M-7.73556 918.412 L-0.956084 918.412 Q-3.97979 921.659 -5.47574 925.351 Q-6.97168 929.011 -6.97168 933.149 Q-6.97168 941.297 -1.9746 945.626 Q2.99065 949.954 12.4119 949.954 Q21.8013 949.954 26.7984 945.626 Q31.7636 941.297 31.7636 933.149 Q31.7636 929.011 30.2677 925.351 Q28.7718 921.659 25.7481 918.412 L32.4639 918.412 Q34.7555 921.786 35.9014 925.574 Q37.0472 929.329 37.0472 933.531 Q37.0472 944.321 30.4587 950.527 Q23.8383 956.734 12.4119 956.734 Q0.953628 956.734 -5.63488 950.527 Q-12.2552 944.321 -12.2552 933.531 Q-12.2552 929.266 -11.1094 925.51 Q-9.99539 921.722 -7.73556 918.412 Z" fill="#000000" fill-rule="nonzero" fill-opacity="1" /><path clip-path="url(#clip970)" d="M4.58208 894.923 Q4.58208 899.633 8.27419 902.371 Q11.9345 905.108 18.332 905.108 Q24.7295 905.108 28.4217 902.403 Q32.0819 899.665 32.0819 894.923 Q32.0819 890.244 28.3898 887.507 Q24.6977 884.77 18.332 884.77 Q11.9981 884.77 8.30602 887.507 Q4.58208 890.244 4.58208 894.923 M-0.38317 894.923 Q-0.38317 887.284 4.58208 882.923 Q9.54733 878.563 18.332 878.563 Q27.0849 878.563 32.0819 882.923 Q37.0472 887.284 37.0472 894.923 Q37.0472 902.594 32.0819 906.954 Q27.0849 911.283 18.332 911.283 Q9.54733 911.283 4.58208 906.954 Q-0.38317 902.594 -0.38317 894.923 Z" fill="#000000" fill-rule="nonzero" fill-opacity="1" /><path clip-path="url(#clip970)" d="M14.6081 839.223 L36.1242 839.223 L36.1242 845.079 L14.799 845.079 Q9.7383 845.079 7.22385 847.053 Q4.7094 849.026 4.7094 852.973 Q4.7094 857.715 7.73311 860.453 Q10.7568 863.19 15.9767 863.19 L36.1242 863.19 L36.1242 869.078 L0.4762 869.078 L0.4762 863.19 L6.01437 863.19 Q2.79968 861.089 1.20826 858.256 Q-0.38317 855.392 -0.38317 851.668 Q-0.38317 845.525 3.43625 842.374 Q7.22385 839.223 14.6081 839.223 Z" fill="#000000" fill-rule="nonzero" fill-opacity="1" /><path clip-path="url(#clip970)" d="M1.52654 804.816 L7.06471 804.816 Q5.79157 807.299 5.15499 809.972 Q4.51842 812.646 4.51842 815.511 Q4.51842 819.871 5.85522 822.067 Q7.19202 824.232 9.86562 824.232 Q11.9026 824.232 13.0803 822.672 Q14.2261 821.112 15.2765 816.402 L15.7221 814.397 Q17.0589 808.158 19.5097 805.548 Q21.9286 802.907 26.2891 802.907 Q31.2544 802.907 34.1508 806.853 Q37.0472 810.768 37.0472 817.643 Q37.0472 820.508 36.4743 823.627 Q35.9332 826.714 34.8192 830.152 L28.7718 830.152 Q30.4587 826.905 31.318 823.754 Q32.1456 820.603 32.1456 817.516 Q32.1456 813.378 30.7451 811.15 Q29.3129 808.922 26.7347 808.922 Q24.3476 808.922 23.0745 810.545 Q21.8013 812.137 20.6237 817.58 L20.1462 819.617 Q19.0004 825.059 16.6451 827.478 Q14.258 829.897 10.1202 829.897 Q5.09134 829.897 2.35408 826.332 Q-0.38317 822.768 -0.38317 816.211 Q-0.38317 812.964 0.0942579 810.1 Q0.571686 807.235 1.52654 804.816 Z" fill="#000000" fill-rule="nonzero" fill-opacity="1" /><path clip-path="url(#clip970)" d="M22.0559 794.186 L0.4762 794.186 L0.4762 788.329 L21.8331 788.329 Q26.8939 788.329 29.4402 786.356 Q31.9546 784.382 31.9546 780.436 Q31.9546 775.693 28.9309 772.956 Q25.9072 770.187 20.6873 770.187 L0.4762 770.187 L0.4762 764.33 L36.1242 764.33 L36.1242 770.187 L30.6496 770.187 Q33.8962 772.319 35.4876 775.152 Q37.0472 777.953 37.0472 781.677 Q37.0472 787.82 33.2278 791.003 Q29.4083 794.186 22.0559 794.186 M-0.38317 779.449 L-0.38317 779.449 Z" fill="#000000" fill-rule="nonzero" fill-opacity="1" /><path clip-path="url(#clip970)" d="M7.31933 724.513 Q3.3726 722.317 1.49471 719.261 Q-0.38317 716.206 -0.38317 712.068 Q-0.38317 706.498 3.53174 703.474 Q7.41482 700.451 14.6081 700.451 L36.1242 700.451 L36.1242 706.339 L14.799 706.339 Q9.67465 706.339 7.19202 708.153 Q4.7094 709.967 4.7094 713.691 Q4.7094 718.243 7.73311 720.884 Q10.7568 723.526 15.9767 723.526 L36.1242 723.526 L36.1242 729.414 L14.799 729.414 Q9.64282 729.414 7.19202 731.229 Q4.7094 733.043 4.7094 736.831 Q4.7094 741.318 7.76493 743.96 Q10.7886 746.602 15.9767 746.602 L36.1242 746.602 L36.1242 752.49 L0.4762 752.49 L0.4762 746.602 L6.01437 746.602 Q2.73603 744.597 1.17643 741.796 Q-0.38317 738.995 -0.38317 735.144 Q-0.38317 731.261 1.5902 728.555 Q3.56357 725.818 7.31933 724.513 Z" fill="#000000" fill-rule="nonzero" fill-opacity="1" /><path clip-path="url(#clip970)" d="M30.777 683.104 L49.6831 683.104 L49.6831 688.992 L0.4762 688.992 L0.4762 683.104 L5.88705 683.104 Q2.7042 681.258 1.17643 678.457 Q-0.38317 675.624 -0.38317 671.709 Q-0.38317 665.216 4.77305 661.174 Q9.92927 657.1 18.332 657.1 Q26.7347 657.1 31.891 661.174 Q37.0472 665.216 37.0472 671.709 Q37.0472 675.624 35.5194 678.457 Q33.9598 681.258 30.777 683.104 M18.332 663.179 Q11.8708 663.179 8.21053 665.853 Q4.51842 668.495 4.51842 673.142 Q4.51842 677.789 8.21053 680.462 Q11.8708 683.104 18.332 683.104 Q24.7932 683.104 28.4853 680.462 Q32.1456 677.789 32.1456 673.142 Q32.1456 668.495 28.4853 665.853 Q24.7932 663.179 18.332 663.179 Z" fill="#000000" fill-rule="nonzero" fill-opacity="1" /><path clip-path="url(#clip970)" d="M-9.64527 641.6 L0.4762 641.6 L0.4762 629.537 L5.02768 629.537 L5.02768 641.6 L24.3794 641.6 Q28.7399 641.6 29.9813 640.422 Q31.2226 639.212 31.2226 635.552 L31.2226 629.537 L36.1242 629.537 L36.1242 635.552 Q36.1242 642.332 33.6097 644.91 Q31.0634 647.488 24.3794 647.488 L5.02768 647.488 L5.02768 651.785 L0.4762 651.785 L0.4762 647.488 L-9.64527 647.488 L-9.64527 641.6 Z" fill="#000000" fill-rule="nonzero" fill-opacity="1" /><path clip-path="url(#clip970)" d="M0.4762 621.834 L0.4762 615.978 L36.1242 615.978 L36.1242 621.834 L0.4762 621.834 M-13.401 621.834 L-13.401 615.978 L-5.98499 615.978 L-5.98499 621.834 L-13.401 621.834 Z" fill="#000000" fill-rule="nonzero" fill-opacity="1" /><path clip-path="url(#clip970)" d="M4.58208 589.91 Q4.58208 594.621 8.27419 597.358 Q11.9345 600.095 18.332 600.095 Q24.7295 600.095 28.4217 597.39 Q32.0819 594.652 32.0819 589.91 Q32.0819 585.231 28.3898 582.494 Q24.6977 579.757 18.332 579.757 Q11.9981 579.757 8.30602 582.494 Q4.58208 585.231 4.58208 589.91 M-0.38317 589.91 Q-0.38317 582.271 4.58208 577.911 Q9.54733 573.55 18.332 573.55 Q27.0849 573.55 32.0819 577.911 Q37.0472 582.271 37.0472 589.91 Q37.0472 597.581 32.0819 601.941 Q27.0849 606.27 18.332 606.27 Q9.54733 606.27 4.58208 601.941 Q-0.38317 597.581 -0.38317 589.91 Z" fill="#000000" fill-rule="nonzero" fill-opacity="1" /><path clip-path="url(#clip970)" d="M14.6081 534.21 L36.1242 534.21 L36.1242 540.067 L14.799 540.067 Q9.7383 540.067 7.22385 542.04 Q4.7094 544.013 4.7094 547.96 Q4.7094 552.702 7.73311 555.44 Q10.7568 558.177 15.9767 558.177 L36.1242 558.177 L36.1242 564.065 L0.4762 564.065 L0.4762 558.177 L6.01437 558.177 Q2.79968 556.076 1.20826 553.244 Q-0.38317 550.379 -0.38317 546.655 Q-0.38317 540.512 3.43625 537.361 Q7.22385 534.21 14.6081 534.21 Z" fill="#000000" fill-rule="nonzero" fill-opacity="1" /><polyline clip-path="url(#clip972)" style="stroke:#009af9; stroke-linecap:round; stroke-linejoin:round; stroke-width:4; stroke-opacity:1; fill:none" points="253.163,86.7664 259.44,120.323 265.717,153.029 271.994,184.908 278.271,215.979 284.549,246.264 290.826,275.781 297.103,304.552 303.38,332.593 309.657,359.925 315.934,386.565 322.211,412.53 328.488,437.838 334.766,462.505 341.043,486.547 347.32,509.981 353.597,532.821 359.874,555.083 366.151,576.781 372.428,597.93 378.705,618.543 384.983,638.635 391.26,658.217 397.537,677.304 403.814,695.908 410.091,714.04 416.368,731.713 422.645,748.939 428.923,765.729 435.2,782.093 441.477,798.044 447.754,813.59 454.031,828.743 460.308,843.512 466.585,857.907 472.862,871.937 479.14,885.613 485.417,898.942 491.694,911.933 497.971,924.596 504.248,936.938 510.525,948.967 516.802,960.692 523.079,972.12 529.357,983.259 535.634,994.115 541.911,1004.7 548.188,1015.01 554.465,1025.06 560.742,1034.86 567.019,1044.41 573.296,1053.72 579.574,1062.79 585.851,1071.63 592.128,1080.25 598.405,1088.65 604.682,1096.84 610.959,1104.82 617.236,1112.6 623.513,1120.18 629.791,1127.57 636.068,1134.77 642.345,1141.79 648.622,1148.64 654.899,1155.31 661.176,1161.81 667.453,1168.14 673.731,1174.32 680.008,1180.34 686.285,1186.2 692.562,1191.92 698.839,1197.49 705.116,1202.93 711.393,1208.22 717.67,1213.38 723.948,1218.41 730.225,1223.31 736.502,1228.09 742.779,1232.75 749.056,1237.29 755.333,1241.71 761.61,1246.02 767.887,1250.23 774.165,1254.32 780.442,1258.32 786.719,1262.21 792.996,1266 799.273,1269.7 805.55,1273.3 811.827,1276.82 818.104,1280.24 824.382,1283.58 830.659,1286.83 836.936,1290 843.213,1293.09 849.49,1296.1 855.767,1299.04 862.044,1301.9 868.321,1304.68 874.599,1307.4 880.876,1310.05 887.153,1312.63 893.43,1315.15 899.707,1317.6 905.984,1319.99 912.261,1322.32 918.539,1324.6 924.816,1326.81 931.093,1328.97 937.37,1331.07 943.647,1333.12 949.924,1335.12 956.201,1337.07 962.478,1338.96 968.756,1340.81 975.033,1342.62 981.31,1344.37 987.587,1346.09 993.864,1347.76 1000.14,1349.38 1006.42,1350.97 1012.7,1352.52 1018.97,1354.02 1025.25,1355.49 1031.53,1356.92 1037.8,1358.32 1044.08,1359.68 1050.36,1361 1056.64,1362.29 1062.91,1363.55 1069.19,1364.78 1075.47,1365.98 1081.74,1367.14 1088.02,1368.28 1094.3,1369.39 1100.58,1370.47 1106.85,1371.52 1113.13,1372.54 1119.41,1373.54 1125.68,1374.52 1131.96,1375.47 1138.24,1376.39 1144.52,1377.3 1150.79,1378.18 1157.07,1379.03 1163.35,1379.87 1169.62,1380.68 1175.9,1381.48 1182.18,1382.25 1188.46,1383 1194.73,1383.74 1201.01,1384.45 1207.29,1385.15 1213.56,1385.83 1219.84,1386.5 1226.12,1387.14 1232.39,1387.77 1238.67,1388.39 1244.95,1388.98 1251.23,1389.57 1257.5,1390.14 1263.78,1390.69 1270.06,1391.23 1276.33,1391.76 1282.61,1392.27 1288.89,1392.77 1295.17,1393.26 1301.44,1393.73 1307.72,1394.2 1314,1394.65 1320.27,1395.09 1326.55,1395.52 1332.83,1395.93 1339.11,1396.34 1345.38,1396.74 1351.66,1397.13 1357.94,1397.5 1364.21,1397.87 1370.49,1398.23 1376.77,1398.58 1383.05,1398.92 1389.32,1399.25 1395.6,1399.57 1401.88,1399.89 1408.15,1400.2 1414.43,1400.5 1420.71,1400.79 1426.99,1401.07 1433.26,1401.35 1439.54,1401.62 1445.82,1401.88 1452.09,1402.14 1458.37,1402.39 1464.65,1402.63 1470.93,1402.87 1477.2,1403.1 1483.48,1403.33 1489.76,1403.55 1496.03,1403.76 1502.31,1403.97 1508.59,1404.18 "/>
<path clip-path="url(#clip970)" d="M1822 1443.7 L3152.76 1443.7 L3152.76 47.2441 L1822 47.2441  Z" fill="#ffffff" fill-rule="evenodd" fill-opacity="1"/>
<defs>
  <clipPath id="clip973">
    <rect x="1822" y="47" width="1332" height="1397"/>
  </clipPath>
</defs>
<polyline clip-path="url(#clip973)" style="stroke:#000000; stroke-linecap:round; stroke-linejoin:round; stroke-width:2; stroke-opacity:0.1; fill:none" points="1853.39,1443.7 1853.39,47.2441 "/>
<polyline clip-path="url(#clip973)" style="stroke:#000000; stroke-linecap:round; stroke-linejoin:round; stroke-width:2; stroke-opacity:0.1; fill:none" points="2167.25,1443.7 2167.25,47.2441 "/>
<polyline clip-path="url(#clip973)" style="stroke:#000000; stroke-linecap:round; stroke-linejoin:round; stroke-width:2; stroke-opacity:0.1; fill:none" points="2481.1,1443.7 2481.1,47.2441 "/>
<polyline clip-path="url(#clip973)" style="stroke:#000000; stroke-linecap:round; stroke-linejoin:round; stroke-width:2; stroke-opacity:0.1; fill:none" points="2794.96,1443.7 2794.96,47.2441 "/>
<polyline clip-path="url(#clip973)" style="stroke:#000000; stroke-linecap:round; stroke-linejoin:round; stroke-width:2; stroke-opacity:0.1; fill:none" points="3108.82,1443.7 3108.82,47.2441 "/>
<polyline clip-path="url(#clip970)" style="stroke:#000000; stroke-linecap:round; stroke-linejoin:round; stroke-width:4; stroke-opacity:1; fill:none" points="1822,1443.7 3152.76,1443.7 "/>
<polyline clip-path="url(#clip970)" style="stroke:#000000; stroke-linecap:round; stroke-linejoin:round; stroke-width:4; stroke-opacity:1; fill:none" points="1853.39,1443.7 1853.39,1424.8 "/>
<polyline clip-path="url(#clip970)" style="stroke:#000000; stroke-linecap:round; stroke-linejoin:round; stroke-width:4; stroke-opacity:1; fill:none" points="2167.25,1443.7 2167.25,1424.8 "/>
<polyline clip-path="url(#clip970)" style="stroke:#000000; stroke-linecap:round; stroke-linejoin:round; stroke-width:4; stroke-opacity:1; fill:none" points="2481.1,1443.7 2481.1,1424.8 "/>
<polyline clip-path="url(#clip970)" style="stroke:#000000; stroke-linecap:round; stroke-linejoin:round; stroke-width:4; stroke-opacity:1; fill:none" points="2794.96,1443.7 2794.96,1424.8 "/>
<polyline clip-path="url(#clip970)" style="stroke:#000000; stroke-linecap:round; stroke-linejoin:round; stroke-width:4; stroke-opacity:1; fill:none" points="3108.82,1443.7 3108.82,1424.8 "/>
<path clip-path="url(#clip970)" d="M1853.39 1481.02 Q1849.78 1481.02 1847.95 1484.58 Q1846.15 1488.12 1846.15 1495.25 Q1846.15 1502.36 1847.95 1505.93 Q1849.78 1509.47 1853.39 1509.47 Q1857.02 1509.47 1858.83 1505.93 Q1860.66 1502.36 1860.66 1495.25 Q1860.66 1488.12 1858.83 1484.58 Q1857.02 1481.02 1853.39 1481.02 M1853.39 1477.31 Q1859.2 1477.31 1862.26 1481.92 Q1865.33 1486.5 1865.33 1495.25 Q1865.33 1503.98 1862.26 1508.59 Q1859.2 1513.17 1853.39 1513.17 Q1847.58 1513.17 1844.5 1508.59 Q1841.45 1503.98 1841.45 1495.25 Q1841.45 1486.5 1844.5 1481.92 Q1847.58 1477.31 1853.39 1477.31 Z" fill="#000000" fill-rule="nonzero" fill-opacity="1" /><path clip-path="url(#clip970)" d="M2141.95 1477.94 L2160.3 1477.94 L2160.3 1481.88 L2146.23 1481.88 L2146.23 1490.35 Q2147.25 1490 2148.27 1489.84 Q2149.28 1489.65 2150.3 1489.65 Q2156.09 1489.65 2159.47 1492.82 Q2162.85 1496 2162.85 1501.41 Q2162.85 1506.99 2159.38 1510.09 Q2155.9 1513.17 2149.58 1513.17 Q2147.41 1513.17 2145.14 1512.8 Q2142.9 1512.43 2140.49 1511.69 L2140.49 1506.99 Q2142.57 1508.12 2144.79 1508.68 Q2147.02 1509.24 2149.49 1509.24 Q2153.5 1509.24 2155.83 1507.13 Q2158.17 1505.02 2158.17 1501.41 Q2158.17 1497.8 2155.83 1495.69 Q2153.5 1493.59 2149.49 1493.59 Q2147.62 1493.59 2145.74 1494 Q2143.89 1494.42 2141.95 1495.3 L2141.95 1477.94 Z" fill="#000000" fill-rule="nonzero" fill-opacity="1" /><path clip-path="url(#clip970)" d="M2182.06 1481.02 Q2178.45 1481.02 2176.62 1484.58 Q2174.82 1488.12 2174.82 1495.25 Q2174.82 1502.36 2176.62 1505.93 Q2178.45 1509.47 2182.06 1509.47 Q2185.7 1509.47 2187.5 1505.93 Q2189.33 1502.36 2189.33 1495.25 Q2189.33 1488.12 2187.5 1484.58 Q2185.7 1481.02 2182.06 1481.02 M2182.06 1477.31 Q2187.87 1477.31 2190.93 1481.92 Q2194.01 1486.5 2194.01 1495.25 Q2194.01 1503.98 2190.93 1508.59 Q2187.87 1513.17 2182.06 1513.17 Q2176.25 1513.17 2173.17 1508.59 Q2170.12 1503.98 2170.12 1495.25 Q2170.12 1486.5 2173.17 1481.92 Q2176.25 1477.31 2182.06 1477.31 Z" fill="#000000" fill-rule="nonzero" fill-opacity="1" /><path clip-path="url(#clip970)" d="M2440.71 1508.56 L2448.35 1508.56 L2448.35 1482.2 L2440.04 1483.87 L2440.04 1479.61 L2448.3 1477.94 L2452.98 1477.94 L2452.98 1508.56 L2460.62 1508.56 L2460.62 1512.5 L2440.71 1512.5 L2440.71 1508.56 Z" fill="#000000" fill-rule="nonzero" fill-opacity="1" /><path clip-path="url(#clip970)" d="M2480.06 1481.02 Q2476.45 1481.02 2474.62 1484.58 Q2472.82 1488.12 2472.82 1495.25 Q2472.82 1502.36 2474.62 1505.93 Q2476.45 1509.47 2480.06 1509.47 Q2483.7 1509.47 2485.5 1505.93 Q2487.33 1502.36 2487.33 1495.25 Q2487.33 1488.12 2485.5 1484.58 Q2483.7 1481.02 2480.06 1481.02 M2480.06 1477.31 Q2485.87 1477.31 2488.93 1481.92 Q2492.01 1486.5 2492.01 1495.25 Q2492.01 1503.98 2488.93 1508.59 Q2485.87 1513.17 2480.06 1513.17 Q2474.25 1513.17 2471.17 1508.59 Q2468.12 1503.98 2468.12 1495.25 Q2468.12 1486.5 2471.17 1481.92 Q2474.25 1477.31 2480.06 1477.31 Z" fill="#000000" fill-rule="nonzero" fill-opacity="1" /><path clip-path="url(#clip970)" d="M2510.22 1481.02 Q2506.61 1481.02 2504.78 1484.58 Q2502.98 1488.12 2502.98 1495.25 Q2502.98 1502.36 2504.78 1505.93 Q2506.61 1509.47 2510.22 1509.47 Q2513.86 1509.47 2515.66 1505.93 Q2517.49 1502.36 2517.49 1495.25 Q2517.49 1488.12 2515.66 1484.58 Q2513.86 1481.02 2510.22 1481.02 M2510.22 1477.31 Q2516.03 1477.31 2519.09 1481.92 Q2522.17 1486.5 2522.17 1495.25 Q2522.17 1503.98 2519.09 1508.59 Q2516.03 1513.17 2510.22 1513.17 Q2504.41 1513.17 2501.33 1508.59 Q2498.28 1503.98 2498.28 1495.25 Q2498.28 1486.5 2501.33 1481.92 Q2504.41 1477.31 2510.22 1477.31 Z" fill="#000000" fill-rule="nonzero" fill-opacity="1" /><path clip-path="url(#clip970)" d="M2754.57 1508.56 L2762.21 1508.56 L2762.21 1482.2 L2753.9 1483.87 L2753.9 1479.61 L2762.16 1477.94 L2766.83 1477.94 L2766.83 1508.56 L2774.47 1508.56 L2774.47 1512.5 L2754.57 1512.5 L2754.57 1508.56 Z" fill="#000000" fill-rule="nonzero" fill-opacity="1" /><path clip-path="url(#clip970)" d="M2783.96 1477.94 L2802.32 1477.94 L2802.32 1481.88 L2788.25 1481.88 L2788.25 1490.35 Q2789.27 1490 2790.28 1489.84 Q2791.3 1489.65 2792.32 1489.65 Q2798.11 1489.65 2801.49 1492.82 Q2804.87 1496 2804.87 1501.41 Q2804.87 1506.99 2801.39 1510.09 Q2797.92 1513.17 2791.6 1513.17 Q2789.43 1513.17 2787.16 1512.8 Q2784.91 1512.43 2782.51 1511.69 L2782.51 1506.99 Q2784.59 1508.12 2786.81 1508.68 Q2789.03 1509.24 2791.51 1509.24 Q2795.52 1509.24 2797.85 1507.13 Q2800.19 1505.02 2800.19 1501.41 Q2800.19 1497.8 2797.85 1495.69 Q2795.52 1493.59 2791.51 1493.59 Q2789.64 1493.59 2787.76 1494 Q2785.91 1494.42 2783.96 1495.3 L2783.96 1477.94 Z" fill="#000000" fill-rule="nonzero" fill-opacity="1" /><path clip-path="url(#clip970)" d="M2824.08 1481.02 Q2820.47 1481.02 2818.64 1484.58 Q2816.83 1488.12 2816.83 1495.25 Q2816.83 1502.36 2818.64 1505.93 Q2820.47 1509.47 2824.08 1509.47 Q2827.71 1509.47 2829.52 1505.93 Q2831.35 1502.36 2831.35 1495.25 Q2831.35 1488.12 2829.52 1484.58 Q2827.71 1481.02 2824.08 1481.02 M2824.08 1477.31 Q2829.89 1477.31 2832.95 1481.92 Q2836.02 1486.5 2836.02 1495.25 Q2836.02 1503.98 2832.95 1508.59 Q2829.89 1513.17 2824.08 1513.17 Q2818.27 1513.17 2815.19 1508.59 Q2812.14 1503.98 2812.14 1495.25 Q2812.14 1486.5 2815.19 1481.92 Q2818.27 1477.31 2824.08 1477.31 Z" fill="#000000" fill-rule="nonzero" fill-opacity="1" /><path clip-path="url(#clip970)" d="M3072.51 1508.56 L3088.83 1508.56 L3088.83 1512.5 L3066.88 1512.5 L3066.88 1508.56 Q3069.55 1505.81 3074.13 1501.18 Q3078.74 1496.53 3079.92 1495.19 Q3082.16 1492.66 3083.04 1490.93 Q3083.94 1489.17 3083.94 1487.48 Q3083.94 1484.72 3082 1482.99 Q3080.08 1481.25 3076.98 1481.25 Q3074.78 1481.25 3072.32 1482.01 Q3069.89 1482.78 3067.11 1484.33 L3067.11 1479.61 Q3069.94 1478.47 3072.39 1477.89 Q3074.85 1477.31 3076.88 1477.31 Q3082.25 1477.31 3085.45 1480 Q3088.64 1482.69 3088.64 1487.18 Q3088.64 1489.31 3087.83 1491.23 Q3087.05 1493.12 3084.94 1495.72 Q3084.36 1496.39 3081.26 1499.61 Q3078.16 1502.8 3072.51 1508.56 Z" fill="#000000" fill-rule="nonzero" fill-opacity="1" /><path clip-path="url(#clip970)" d="M3108.64 1481.02 Q3105.03 1481.02 3103.2 1484.58 Q3101.4 1488.12 3101.4 1495.25 Q3101.4 1502.36 3103.2 1505.93 Q3105.03 1509.47 3108.64 1509.47 Q3112.28 1509.47 3114.08 1505.93 Q3115.91 1502.36 3115.91 1495.25 Q3115.91 1488.12 3114.08 1484.58 Q3112.28 1481.02 3108.64 1481.02 M3108.64 1477.31 Q3114.45 1477.31 3117.51 1481.92 Q3120.59 1486.5 3120.59 1495.25 Q3120.59 1503.98 3117.51 1508.59 Q3114.45 1513.17 3108.64 1513.17 Q3102.83 1513.17 3099.75 1508.59 Q3096.7 1503.98 3096.7 1495.25 Q3096.7 1486.5 3099.75 1481.92 Q3102.83 1477.31 3108.64 1477.31 Z" fill="#000000" fill-rule="nonzero" fill-opacity="1" /><path clip-path="url(#clip970)" d="M3138.8 1481.02 Q3135.19 1481.02 3133.36 1484.58 Q3131.56 1488.12 3131.56 1495.25 Q3131.56 1502.36 3133.36 1505.93 Q3135.19 1509.47 3138.8 1509.47 Q3142.44 1509.47 3144.24 1505.93 Q3146.07 1502.36 3146.07 1495.25 Q3146.07 1488.12 3144.24 1484.58 Q3142.44 1481.02 3138.8 1481.02 M3138.8 1477.31 Q3144.61 1477.31 3147.67 1481.92 Q3150.75 1486.5 3150.75 1495.25 Q3150.75 1503.98 3147.67 1508.59 Q3144.61 1513.17 3138.8 1513.17 Q3132.99 1513.17 3129.92 1508.59 Q3126.86 1503.98 3126.86 1495.25 Q3126.86 1486.5 3129.92 1481.92 Q3132.99 1477.31 3138.8 1477.31 Z" fill="#000000" fill-rule="nonzero" fill-opacity="1" /><path clip-path="url(#clip970)" d="M2385.16 1553.04 L2425.36 1553.04 L2425.36 1558.45 L2408.49 1558.45 L2408.49 1600.56 L2402.03 1600.56 L2402.03 1558.45 L2385.16 1558.45 L2385.16 1553.04 Z" fill="#000000" fill-rule="nonzero" fill-opacity="1" /><path clip-path="url(#clip970)" d="M2429.31 1564.92 L2435.17 1564.92 L2435.17 1600.56 L2429.31 1600.56 L2429.31 1564.92 M2429.31 1551.04 L2435.17 1551.04 L2435.17 1558.45 L2429.31 1558.45 L2429.31 1551.04 Z" fill="#000000" fill-rule="nonzero" fill-opacity="1" /><path clip-path="url(#clip970)" d="M2475.17 1571.76 Q2477.37 1567.81 2480.43 1565.93 Q2483.48 1564.06 2487.62 1564.06 Q2493.19 1564.06 2496.21 1567.97 Q2499.24 1571.85 2499.24 1579.05 L2499.24 1600.56 L2493.35 1600.56 L2493.35 1579.24 Q2493.35 1574.11 2491.53 1571.63 Q2489.72 1569.15 2486 1569.15 Q2481.44 1569.15 2478.8 1572.17 Q2476.16 1575.2 2476.16 1580.42 L2476.16 1600.56 L2470.27 1600.56 L2470.27 1579.24 Q2470.27 1574.08 2468.46 1571.63 Q2466.64 1569.15 2462.86 1569.15 Q2458.37 1569.15 2455.73 1572.2 Q2453.09 1575.23 2453.09 1580.42 L2453.09 1600.56 L2447.2 1600.56 L2447.2 1564.92 L2453.09 1564.92 L2453.09 1570.45 Q2455.09 1567.18 2457.89 1565.62 Q2460.69 1564.06 2464.54 1564.06 Q2468.43 1564.06 2471.13 1566.03 Q2473.87 1568 2475.17 1571.76 Z" fill="#000000" fill-rule="nonzero" fill-opacity="1" /><path clip-path="url(#clip970)" d="M2541.41 1581.28 L2541.41 1584.14 L2514.48 1584.14 Q2514.86 1590.19 2518.11 1593.37 Q2521.39 1596.52 2527.21 1596.52 Q2530.59 1596.52 2533.74 1595.69 Q2536.92 1594.87 2540.04 1593.21 L2540.04 1598.75 Q2536.89 1600.09 2533.58 1600.79 Q2530.27 1601.49 2526.86 1601.49 Q2518.33 1601.49 2513.34 1596.52 Q2508.37 1591.56 2508.37 1583.09 Q2508.37 1574.34 2513.08 1569.21 Q2517.82 1564.06 2525.85 1564.06 Q2533.04 1564.06 2537.21 1568.7 Q2541.41 1573.32 2541.41 1581.28 M2535.55 1579.56 Q2535.49 1574.75 2532.85 1571.89 Q2530.24 1569.02 2525.91 1569.02 Q2521.01 1569.02 2518.05 1571.79 Q2515.12 1574.56 2514.67 1579.59 L2535.55 1579.56 Z" fill="#000000" fill-rule="nonzero" fill-opacity="1" /><path clip-path="url(#clip970)" d="M2577.53 1554.79 L2577.53 1564.92 L2589.6 1564.92 L2589.6 1569.47 L2577.53 1569.47 L2577.53 1588.82 Q2577.53 1593.18 2578.71 1594.42 Q2579.92 1595.66 2583.58 1595.66 L2589.6 1595.66 L2589.6 1600.56 L2583.58 1600.56 Q2576.8 1600.56 2574.22 1598.05 Q2571.65 1595.5 2571.65 1588.82 L2571.65 1569.47 L2567.35 1569.47 L2567.35 1564.92 L2571.65 1564.92 L2571.65 1554.79 L2577.53 1554.79 Z" fill="#000000" fill-rule="nonzero" fill-opacity="1" /><polyline clip-path="url(#clip973)" style="stroke:#000000; stroke-linecap:round; stroke-linejoin:round; stroke-width:2; stroke-opacity:0.1; fill:none" points="1822,1412.02 3152.76,1412.02 "/>
<polyline clip-path="url(#clip973)" style="stroke:#000000; stroke-linecap:round; stroke-linejoin:round; stroke-width:2; stroke-opacity:0.1; fill:none" points="1822,1080.71 3152.76,1080.71 "/>
<polyline clip-path="url(#clip973)" style="stroke:#000000; stroke-linecap:round; stroke-linejoin:round; stroke-width:2; stroke-opacity:0.1; fill:none" points="1822,749.395 3152.76,749.395 "/>
<polyline clip-path="url(#clip973)" style="stroke:#000000; stroke-linecap:round; stroke-linejoin:round; stroke-width:2; stroke-opacity:0.1; fill:none" points="1822,418.081 3152.76,418.081 "/>
<polyline clip-path="url(#clip973)" style="stroke:#000000; stroke-linecap:round; stroke-linejoin:round; stroke-width:2; stroke-opacity:0.1; fill:none" points="1822,86.7664 3152.76,86.7664 "/>
<polyline clip-path="url(#clip970)" style="stroke:#000000; stroke-linecap:round; stroke-linejoin:round; stroke-width:4; stroke-opacity:1; fill:none" points="1822,1443.7 1822,47.2441 "/>
<polyline clip-path="url(#clip970)" style="stroke:#000000; stroke-linecap:round; stroke-linejoin:round; stroke-width:4; stroke-opacity:1; fill:none" points="1822,1412.02 1840.9,1412.02 "/>
<polyline clip-path="url(#clip970)" style="stroke:#000000; stroke-linecap:round; stroke-linejoin:round; stroke-width:4; stroke-opacity:1; fill:none" points="1822,1080.71 1840.9,1080.71 "/>
<polyline clip-path="url(#clip970)" style="stroke:#000000; stroke-linecap:round; stroke-linejoin:round; stroke-width:4; stroke-opacity:1; fill:none" points="1822,749.395 1840.9,749.395 "/>
<polyline clip-path="url(#clip970)" style="stroke:#000000; stroke-linecap:round; stroke-linejoin:round; stroke-width:4; stroke-opacity:1; fill:none" points="1822,418.081 1840.9,418.081 "/>
<polyline clip-path="url(#clip970)" style="stroke:#000000; stroke-linecap:round; stroke-linejoin:round; stroke-width:4; stroke-opacity:1; fill:none" points="1822,86.7664 1840.9,86.7664 "/>
<path clip-path="url(#clip970)" d="M1762.06 1397.82 Q1758.45 1397.82 1756.62 1401.39 Q1754.82 1404.93 1754.82 1412.06 Q1754.82 1419.16 1756.62 1422.73 Q1758.45 1426.27 1762.06 1426.27 Q1765.69 1426.27 1767.5 1422.73 Q1769.33 1419.16 1769.33 1412.06 Q1769.33 1404.93 1767.5 1401.39 Q1765.69 1397.82 1762.06 1397.82 M1762.06 1394.12 Q1767.87 1394.12 1770.93 1398.73 Q1774 1403.31 1774 1412.06 Q1774 1420.79 1770.93 1425.39 Q1767.87 1429.98 1762.06 1429.98 Q1756.25 1429.98 1753.17 1425.39 Q1750.12 1420.79 1750.12 1412.06 Q1750.12 1403.31 1753.17 1398.73 Q1756.25 1394.12 1762.06 1394.12 Z" fill="#000000" fill-rule="nonzero" fill-opacity="1" /><path clip-path="url(#clip970)" d="M1726.92 1094.05 L1743.24 1094.05 L1743.24 1097.99 L1721.3 1097.99 L1721.3 1094.05 Q1723.96 1091.3 1728.54 1086.67 Q1733.15 1082.02 1734.33 1080.67 Q1736.57 1078.15 1737.45 1076.42 Q1738.36 1074.66 1738.36 1072.97 Q1738.36 1070.21 1736.41 1068.48 Q1734.49 1066.74 1731.39 1066.74 Q1729.19 1066.74 1726.74 1067.5 Q1724.31 1068.27 1721.53 1069.82 L1721.53 1065.1 Q1724.35 1063.96 1726.81 1063.38 Q1729.26 1062.8 1731.3 1062.8 Q1736.67 1062.8 1739.86 1065.49 Q1743.06 1068.17 1743.06 1072.67 Q1743.06 1074.8 1742.25 1076.72 Q1741.46 1078.61 1739.35 1081.21 Q1738.77 1081.88 1735.67 1085.1 Q1732.57 1088.29 1726.92 1094.05 Z" fill="#000000" fill-rule="nonzero" fill-opacity="1" /><path clip-path="url(#clip970)" d="M1753.1 1063.43 L1771.46 1063.43 L1771.46 1067.36 L1757.38 1067.36 L1757.38 1075.84 Q1758.4 1075.49 1759.42 1075.33 Q1760.44 1075.14 1761.46 1075.14 Q1767.25 1075.14 1770.63 1078.31 Q1774 1081.48 1774 1086.9 Q1774 1092.48 1770.53 1095.58 Q1767.06 1098.66 1760.74 1098.66 Q1758.57 1098.66 1756.3 1098.29 Q1754.05 1097.92 1751.64 1097.18 L1751.64 1092.48 Q1753.73 1093.61 1755.95 1094.17 Q1758.17 1094.73 1760.65 1094.73 Q1764.65 1094.73 1766.99 1092.62 Q1769.33 1090.51 1769.33 1086.9 Q1769.33 1083.29 1766.99 1081.18 Q1764.65 1079.08 1760.65 1079.08 Q1758.77 1079.08 1756.9 1079.49 Q1755.05 1079.91 1753.1 1080.79 L1753.1 1063.43 Z" fill="#000000" fill-rule="nonzero" fill-opacity="1" /><path clip-path="url(#clip970)" d="M1721.94 732.115 L1740.3 732.115 L1740.3 736.05 L1726.23 736.05 L1726.23 744.522 Q1727.25 744.175 1728.26 744.013 Q1729.28 743.828 1730.3 743.828 Q1736.09 743.828 1739.47 746.999 Q1742.85 750.171 1742.85 755.587 Q1742.85 761.166 1739.38 764.268 Q1735.9 767.346 1729.58 767.346 Q1727.41 767.346 1725.14 766.976 Q1722.89 766.606 1720.49 765.865 L1720.49 761.166 Q1722.57 762.3 1724.79 762.856 Q1727.01 763.411 1729.49 763.411 Q1733.5 763.411 1735.83 761.305 Q1738.17 759.198 1738.17 755.587 Q1738.17 751.976 1735.83 749.87 Q1733.5 747.763 1729.49 747.763 Q1727.62 747.763 1725.74 748.18 Q1723.89 748.596 1721.94 749.476 L1721.94 732.115 Z" fill="#000000" fill-rule="nonzero" fill-opacity="1" /><path clip-path="url(#clip970)" d="M1762.06 735.194 Q1758.45 735.194 1756.62 738.759 Q1754.82 742.3 1754.82 749.43 Q1754.82 756.536 1756.62 760.101 Q1758.45 763.643 1762.06 763.643 Q1765.69 763.643 1767.5 760.101 Q1769.33 756.536 1769.33 749.43 Q1769.33 742.3 1767.5 738.759 Q1765.69 735.194 1762.06 735.194 M1762.06 731.49 Q1767.87 731.49 1770.93 736.097 Q1774 740.68 1774 749.43 Q1774 758.157 1770.93 762.763 Q1767.87 767.346 1762.06 767.346 Q1756.25 767.346 1753.17 762.763 Q1750.12 758.157 1750.12 749.43 Q1750.12 740.68 1753.17 736.097 Q1756.25 731.49 1762.06 731.49 Z" fill="#000000" fill-rule="nonzero" fill-opacity="1" /><path clip-path="url(#clip970)" d="M1721.71 400.801 L1743.94 400.801 L1743.94 402.791 L1731.39 435.361 L1726.51 435.361 L1738.31 404.736 L1721.71 404.736 L1721.71 400.801 Z" fill="#000000" fill-rule="nonzero" fill-opacity="1" /><path clip-path="url(#clip970)" d="M1753.1 400.801 L1771.46 400.801 L1771.46 404.736 L1757.38 404.736 L1757.38 413.208 Q1758.4 412.861 1759.42 412.699 Q1760.44 412.514 1761.46 412.514 Q1767.25 412.514 1770.63 415.685 Q1774 418.856 1774 424.273 Q1774 429.852 1770.53 432.953 Q1767.06 436.032 1760.74 436.032 Q1758.57 436.032 1756.3 435.662 Q1754.05 435.291 1751.64 434.551 L1751.64 429.852 Q1753.73 430.986 1755.95 431.541 Q1758.17 432.097 1760.65 432.097 Q1764.65 432.097 1766.99 429.99 Q1769.33 427.884 1769.33 424.273 Q1769.33 420.662 1766.99 418.555 Q1764.65 416.449 1760.65 416.449 Q1758.77 416.449 1756.9 416.865 Q1755.05 417.282 1753.1 418.162 L1753.1 400.801 Z" fill="#000000" fill-rule="nonzero" fill-opacity="1" /><path clip-path="url(#clip970)" d="M1692.55 100.111 L1700.19 100.111 L1700.19 73.7457 L1691.88 75.4123 L1691.88 71.1531 L1700.14 69.4864 L1704.82 69.4864 L1704.82 100.111 L1712.45 100.111 L1712.45 104.046 L1692.55 104.046 L1692.55 100.111 Z" fill="#000000" fill-rule="nonzero" fill-opacity="1" /><path clip-path="url(#clip970)" d="M1731.9 72.5651 Q1728.29 72.5651 1726.46 76.1299 Q1724.65 79.6716 1724.65 86.8011 Q1724.65 93.9076 1726.46 97.4724 Q1728.29 101.014 1731.9 101.014 Q1735.53 101.014 1737.34 97.4724 Q1739.17 93.9076 1739.17 86.8011 Q1739.17 79.6716 1737.34 76.1299 Q1735.53 72.5651 1731.9 72.5651 M1731.9 68.8614 Q1737.71 68.8614 1740.76 73.4679 Q1743.84 78.0512 1743.84 86.8011 Q1743.84 95.528 1740.76 100.134 Q1737.71 104.718 1731.9 104.718 Q1726.09 104.718 1723.01 100.134 Q1719.95 95.528 1719.95 86.8011 Q1719.95 78.0512 1723.01 73.4679 Q1726.09 68.8614 1731.9 68.8614 Z" fill="#000000" fill-rule="nonzero" fill-opacity="1" /><path clip-path="url(#clip970)" d="M1762.06 72.5651 Q1758.45 72.5651 1756.62 76.1299 Q1754.82 79.6716 1754.82 86.8011 Q1754.82 93.9076 1756.62 97.4724 Q1758.45 101.014 1762.06 101.014 Q1765.69 101.014 1767.5 97.4724 Q1769.33 93.9076 1769.33 86.8011 Q1769.33 79.6716 1767.5 76.1299 Q1765.69 72.5651 1762.06 72.5651 M1762.06 68.8614 Q1767.87 68.8614 1770.93 73.4679 Q1774 78.0512 1774 86.8011 Q1774 95.528 1770.93 100.134 Q1767.87 104.718 1762.06 104.718 Q1756.25 104.718 1753.17 100.134 Q1750.12 95.528 1750.12 86.8011 Q1750.12 78.0512 1753.17 73.4679 Q1756.25 68.8614 1762.06 68.8614 Z" fill="#000000" fill-rule="nonzero" fill-opacity="1" /><path clip-path="url(#clip970)" d="M1583.66 838.475 L1589.93 838.475 Q1588.18 842.135 1587.32 845.382 Q1586.46 848.628 1586.46 851.652 Q1586.46 856.904 1588.5 859.768 Q1590.53 862.601 1594.29 862.601 Q1597.44 862.601 1599.06 860.723 Q1600.66 858.813 1601.64 853.53 L1602.44 849.647 Q1603.81 842.454 1607.28 839.048 Q1610.71 835.61 1616.51 835.61 Q1623.41 835.61 1626.98 840.257 Q1630.54 844.872 1630.54 853.816 Q1630.54 857.19 1629.78 861.01 Q1629.01 864.797 1627.52 868.871 L1620.9 868.871 Q1623.09 864.956 1624.21 861.201 Q1625.32 857.445 1625.32 853.816 Q1625.32 848.31 1623.16 845.318 Q1620.99 842.326 1616.98 842.326 Q1613.48 842.326 1611.51 844.491 Q1609.54 846.623 1608.55 851.525 L1607.79 855.44 Q1606.35 862.633 1603.3 865.847 Q1600.24 869.062 1594.8 869.062 Q1588.5 869.062 1584.87 864.638 Q1581.24 860.182 1581.24 852.384 Q1581.24 849.042 1581.84 845.573 Q1582.45 842.103 1583.66 838.475 Z" fill="#000000" fill-rule="nonzero" fill-opacity="1" /><path clip-path="url(#clip970)" d="M1611.7 809.638 Q1611.7 816.736 1613.32 819.473 Q1614.95 822.211 1618.86 822.211 Q1621.98 822.211 1623.83 820.174 Q1625.64 818.105 1625.64 814.572 Q1625.64 809.702 1622.2 806.774 Q1618.73 803.814 1613.01 803.814 L1611.7 803.814 L1611.7 809.638 M1609.28 797.957 L1629.62 797.957 L1629.62 803.814 L1624.21 803.814 Q1627.46 805.819 1629.01 808.811 Q1630.54 811.803 1630.54 816.131 Q1630.54 821.606 1627.49 824.852 Q1624.4 828.067 1619.24 828.067 Q1613.23 828.067 1610.17 824.057 Q1607.12 820.014 1607.12 812.025 L1607.12 803.814 L1606.54 803.814 Q1602.5 803.814 1600.31 806.487 Q1598.08 809.129 1598.08 813.935 Q1598.08 816.991 1598.81 819.887 Q1599.54 822.783 1601.01 825.457 L1595.59 825.457 Q1594.35 822.242 1593.75 819.219 Q1593.11 816.195 1593.11 813.33 Q1593.11 805.596 1597.12 801.777 Q1601.13 797.957 1609.28 797.957 Z" fill="#000000" fill-rule="nonzero" fill-opacity="1" /><path clip-path="url(#clip970)" d="M1593.97 790.096 L1593.97 783.889 L1623.89 772.749 L1593.97 761.609 L1593.97 755.402 L1629.62 768.77 L1629.62 776.728 L1593.97 790.096 Z" fill="#000000" fill-rule="nonzero" fill-opacity="1" /><path clip-path="url(#clip970)" d="M1593.97 747.318 L1593.97 741.462 L1629.62 741.462 L1629.62 747.318 L1593.97 747.318 M1580.09 747.318 L1580.09 741.462 L1587.51 741.462 L1587.51 747.318 L1580.09 747.318 Z" fill="#000000" fill-rule="nonzero" fill-opacity="1" /><path clip-path="url(#clip970)" d="M1608.1 699.575 L1629.62 699.575 L1629.62 705.432 L1608.29 705.432 Q1603.23 705.432 1600.72 707.405 Q1598.2 709.378 1598.2 713.325 Q1598.2 718.068 1601.23 720.805 Q1604.25 723.542 1609.47 723.542 L1629.62 723.542 L1629.62 729.43 L1593.97 729.43 L1593.97 723.542 L1599.51 723.542 Q1596.3 721.441 1594.7 718.609 Q1593.11 715.744 1593.11 712.02 Q1593.11 705.877 1596.93 702.726 Q1600.72 699.575 1608.1 699.575 Z" fill="#000000" fill-rule="nonzero" fill-opacity="1" /><path clip-path="url(#clip970)" d="M1611.38 664.437 Q1605.02 664.437 1601.51 667.078 Q1598.01 669.688 1598.01 674.431 Q1598.01 679.141 1601.51 681.783 Q1605.02 684.393 1611.38 684.393 Q1617.72 684.393 1621.22 681.783 Q1624.72 679.141 1624.72 674.431 Q1624.72 669.688 1621.22 667.078 Q1617.72 664.437 1611.38 664.437 M1625.2 658.58 Q1634.3 658.58 1638.72 662.622 Q1643.18 666.665 1643.18 675.004 Q1643.18 678.091 1642.7 680.828 Q1642.26 683.565 1641.3 686.144 L1635.6 686.144 Q1637 683.565 1637.67 681.051 Q1638.34 678.537 1638.34 675.927 Q1638.34 670.166 1635.32 667.301 Q1632.32 664.437 1626.25 664.437 L1623.35 664.437 Q1626.5 666.251 1628.06 669.083 Q1629.62 671.916 1629.62 675.863 Q1629.62 682.42 1624.62 686.43 Q1619.63 690.44 1611.38 690.44 Q1603.11 690.44 1598.11 686.43 Q1593.11 682.42 1593.11 675.863 Q1593.11 671.916 1594.67 669.083 Q1596.23 666.251 1599.38 664.437 L1593.97 664.437 L1593.97 658.58 L1625.2 658.58 Z" fill="#000000" fill-rule="nonzero" fill-opacity="1" /><path clip-path="url(#clip970)" d="M1595.02 623.791 L1600.56 623.791 Q1599.29 626.274 1598.65 628.948 Q1598.01 631.621 1598.01 634.486 Q1598.01 638.846 1599.35 641.043 Q1600.69 643.207 1603.36 643.207 Q1605.4 643.207 1606.58 641.647 Q1607.72 640.088 1608.77 635.377 L1609.22 633.372 Q1610.55 627.133 1613.01 624.524 Q1615.42 621.882 1619.78 621.882 Q1624.75 621.882 1627.65 625.829 Q1630.54 629.743 1630.54 636.618 Q1630.54 639.483 1629.97 642.602 Q1629.43 645.69 1628.31 649.127 L1622.27 649.127 Q1623.95 645.88 1624.81 642.729 Q1625.64 639.578 1625.64 636.491 Q1625.64 632.353 1624.24 630.125 Q1622.81 627.897 1620.23 627.897 Q1617.84 627.897 1616.57 629.521 Q1615.3 631.112 1614.12 636.555 L1613.64 638.592 Q1612.5 644.034 1610.14 646.453 Q1607.75 648.872 1603.62 648.872 Q1598.59 648.872 1595.85 645.308 Q1593.11 641.743 1593.11 635.186 Q1593.11 631.94 1593.59 629.075 Q1594.07 626.21 1595.02 623.791 Z" fill="#000000" fill-rule="nonzero" fill-opacity="1" /><polyline clip-path="url(#clip973)" style="stroke:#009af9; stroke-linecap:round; stroke-linejoin:round; stroke-width:4; stroke-opacity:1; fill:none" points="1859.67,86.7664 1865.94,120.323 1872.22,153.029 1878.5,184.908 1884.78,215.979 1891.05,246.264 1897.33,275.781 1903.61,304.552 1909.88,332.593 1916.16,359.925 1922.44,386.565 1928.72,412.53 1934.99,437.838 1941.27,462.505 1947.55,486.547 1953.82,509.981 1960.1,532.821 1966.38,555.083 1972.66,576.781 1978.93,597.93 1985.21,618.543 1991.49,638.635 1997.76,658.217 2004.04,677.304 2010.32,695.908 2016.6,714.04 2022.87,731.713 2029.15,748.939 2035.43,765.729 2041.7,782.093 2047.98,798.044 2054.26,813.59 2060.54,828.743 2066.81,843.512 2073.09,857.907 2079.37,871.937 2085.64,885.613 2091.92,898.942 2098.2,911.933 2104.48,924.596 2110.75,936.938 2117.03,948.967 2123.31,960.692 2129.58,972.12 2135.86,983.259 2142.14,994.115 2148.42,1004.7 2154.69,1015.01 2160.97,1025.06 2167.25,1034.86 2173.52,1044.41 2179.8,1053.72 2186.08,1062.79 2192.36,1071.63 2198.63,1080.25 2204.91,1088.65 2211.19,1096.84 2217.46,1104.82 2223.74,1112.6 2230.02,1120.18 2236.3,1127.57 2242.57,1134.77 2248.85,1141.79 2255.13,1148.64 2261.4,1155.31 2267.68,1161.81 2273.96,1168.14 2280.24,1174.32 2286.51,1180.34 2292.79,1186.2 2299.07,1191.92 2305.34,1197.49 2311.62,1202.93 2317.9,1208.22 2324.17,1213.38 2330.45,1218.41 2336.73,1223.31 2343.01,1228.09 2349.28,1232.75 2355.56,1237.29 2361.84,1241.71 2368.11,1246.02 2374.39,1250.23 2380.67,1254.32 2386.95,1258.32 2393.22,1262.21 2399.5,1266 2405.78,1269.7 2412.05,1273.3 2418.33,1276.82 2424.61,1280.24 2430.89,1283.58 2437.16,1286.83 2443.44,1290 2449.72,1293.09 2455.99,1296.1 2462.27,1299.04 2468.55,1301.9 2474.83,1304.68 2481.1,1307.4 2487.38,1310.05 2493.66,1312.63 2499.93,1315.15 2506.21,1317.6 2512.49,1319.99 2518.77,1322.32 2525.04,1324.6 2531.32,1326.81 2537.6,1328.97 2543.87,1331.07 2550.15,1333.12 2556.43,1335.12 2562.71,1337.07 2568.98,1338.96 2575.26,1340.81 2581.54,1342.62 2587.81,1344.37 2594.09,1346.09 2600.37,1347.76 2606.65,1349.38 2612.92,1350.97 2619.2,1352.52 2625.48,1354.02 2631.75,1355.49 2638.03,1356.92 2644.31,1358.32 2650.59,1359.68 2656.86,1361 2663.14,1362.29 2669.42,1363.55 2675.69,1364.78 2681.97,1365.98 2688.25,1367.14 2694.53,1368.28 2700.8,1369.39 2707.08,1370.47 2713.36,1371.52 2719.63,1372.54 2725.91,1373.54 2732.19,1374.52 2738.47,1375.47 2744.74,1376.39 2751.02,1377.3 2757.3,1378.18 2763.57,1379.03 2769.85,1379.87 2776.13,1380.68 2782.41,1381.48 2788.68,1382.25 2794.96,1383 2801.24,1383.74 2807.51,1384.45 2813.79,1385.15 2820.07,1385.83 2826.35,1386.5 2832.62,1387.14 2838.9,1387.77 2845.18,1388.39 2851.45,1388.98 2857.73,1389.57 2864.01,1390.14 2870.29,1390.69 2876.56,1391.23 2882.84,1391.76 2889.12,1392.27 2895.39,1392.77 2901.67,1393.26 2907.95,1393.73 2914.23,1394.2 2920.5,1394.65 2926.78,1395.09 2933.06,1395.52 2939.33,1395.93 2945.61,1396.34 2951.89,1396.74 2958.16,1397.13 2964.44,1397.5 2970.72,1397.87 2977,1398.23 2983.27,1398.58 2989.55,1398.92 2995.83,1399.25 3002.1,1399.57 3008.38,1399.89 3014.66,1400.2 3020.94,1400.5 3027.21,1400.79 3033.49,1401.07 3039.77,1401.35 3046.04,1401.62 3052.32,1401.88 3058.6,1402.14 3064.88,1402.39 3071.15,1402.63 3077.43,1402.87 3083.71,1403.1 3089.98,1403.33 3096.26,1403.55 3102.54,1403.76 3108.82,1403.97 3115.09,1404.18 "/>
</svg>