<?xml version="1.0" encoding="utf-8"?>
<svg xmlns="http://www.w3.org/2000/svg" xmlns:xlink="http://www.w3.org/1999/xlink" width="600" height="400" viewBox="0 0 2400 1600">
<defs>
  <clipPath id="clip810">
    <rect x="0" y="0" width="2400" height="1600"/>
  </clipPath>
</defs>
<path clip-path="url(#clip810)" d="M0 1600 L2400 1600 L2400 0 L0 0  Z" fill="#ffffff" fill-rule="evenodd" fill-opacity="1"/>
<defs>
  <clipPath id="clip811">
    <rect x="480" y="0" width="1681" height="1600"/>
  </clipPath>
</defs>
<path clip-path="url(#clip810)" d="M138.959 1486.45 L2352.76 1486.45 L2352.76 47.2441 L138.959 47.2441  Z" fill="#ffffff" fill-rule="evenodd" fill-opacity="1"/>
<defs>
  <clipPath id="clip812">
    <rect x="138" y="47" width="2215" height="1440"/>
  </clipPath>
</defs>
<polyline clip-path="url(#clip812)" style="stroke:#000000; stroke-linecap:round; stroke-linejoin:round; stroke-width:2; stroke-opacity:0.1; fill:none" points="180.729,1486.45 180.729,47.2441 "/>
<polyline clip-path="url(#clip812)" style="stroke:#000000; stroke-linecap:round; stroke-linejoin:round; stroke-width:2; stroke-opacity:0.1; fill:none" points="702.851,1486.45 702.851,47.2441 "/>
<polyline clip-path="url(#clip812)" style="stroke:#000000; stroke-linecap:round; stroke-linejoin:round; stroke-width:2; stroke-opacity:0.1; fill:none" points="1224.97,1486.45 1224.97,47.2441 "/>
<polyline clip-path="url(#clip812)" style="stroke:#000000; stroke-linecap:round; stroke-linejoin:round; stroke-width:2; stroke-opacity:0.1; fill:none" points="1747.09,1486.45 1747.09,47.2441 "/>
<polyline clip-path="url(#clip812)" style="stroke:#000000; stroke-linecap:round; stroke-linejoin:round; stroke-width:2; stroke-opacity:0.1; fill:none" points="2269.22,1486.45 2269.22,47.2441 "/>
<polyline clip-path="url(#clip810)" style="stroke:#000000; stroke-linecap:round; stroke-linejoin:round; stroke-width:4; stroke-opacity:1; fill:none" points="138.959,1486.45 2352.76,1486.45 "/>
<polyline clip-path="url(#clip810)" style="stroke:#000000; stroke-linecap:round; stroke-linejoin:round; stroke-width:4; stroke-opacity:1; fill:none" points="180.729,1486.45 180.729,1467.55 "/>
<polyline clip-path="url(#clip810)" style="stroke:#000000; stroke-linecap:round; stroke-linejoin:round; stroke-width:4; stroke-opacity:1; fill:none" points="702.851,1486.45 702.851,1467.55 "/>
<polyline clip-path="url(#clip810)" style="stroke:#000000; stroke-linecap:round; stroke-linejoin:round; stroke-width:4; stroke-opacity:1; fill:none" points="1224.97,1486.45 1224.97,1467.55 "/>
<polyline clip-path="url(#clip810)" style="stroke:#000000; stroke-linecap:round; stroke-linejoin:round; stroke-width:4; stroke-opacity:1; fill:none" points="1747.09,1486.45 1747.09,1467.55 "/>
<polyline clip-path="url(#clip810)" style="stroke:#000000; stroke-linecap:round; stroke-linejoin:round; stroke-width:4; stroke-opacity:1; fill:none" points="2269.22,1486.45 2269.22,1467.55 "/>
<path clip-path="url(#clip810)" d="M180.729 1517.37 Q177.118 1517.37 175.289 1520.93 Q173.484 1524.47 173.484 1531.6 Q173.484 1538.71 175.289 1542.27 Q177.118 1545.82 180.729 1545.82 Q184.363 1545.82 186.169 1542.27 Q187.998 1538.71 187.998 1531.6 Q187.998 1524.47 186.169 1520.93 Q184.363 1517.37 180.729 1517.37 M180.729 1513.66 Q186.539 1513.66 189.595 1518.27 Q192.674 1522.85 192.674 1531.6 Q192.674 1540.33 189.595 1544.94 Q186.539 1549.52 180.729 1549.52 Q174.919 1549.52 171.84 1544.94 Q168.785 1540.33 168.785 1531.6 Q168.785 1522.85 171.84 1518.27 Q174.919 1513.66 180.729 1513.66 Z" fill="#000000" fill-rule="nonzero" fill-opacity="1" /><path clip-path="url(#clip810)" d="M682.122 1544.91 L698.441 1544.91 L698.441 1548.85 L676.497 1548.85 L676.497 1544.91 Q679.159 1542.16 683.742 1537.53 Q688.349 1532.88 689.529 1531.53 Q691.775 1529.01 692.654 1527.27 Q693.557 1525.51 693.557 1523.82 Q693.557 1521.07 691.613 1519.33 Q689.691 1517.6 686.59 1517.6 Q684.39 1517.6 681.937 1518.36 Q679.506 1519.13 676.728 1520.68 L676.728 1515.95 Q679.553 1514.82 682.006 1514.24 Q684.46 1513.66 686.497 1513.66 Q691.867 1513.66 695.062 1516.35 Q698.256 1519.03 698.256 1523.52 Q698.256 1525.65 697.446 1527.57 Q696.659 1529.47 694.552 1532.07 Q693.974 1532.74 690.872 1535.95 Q687.77 1539.15 682.122 1544.91 Z" fill="#000000" fill-rule="nonzero" fill-opacity="1" /><path clip-path="url(#clip810)" d="M708.302 1514.29 L726.659 1514.29 L726.659 1518.22 L712.585 1518.22 L712.585 1526.7 Q713.603 1526.35 714.622 1526.19 Q715.64 1526 716.659 1526 Q722.446 1526 725.825 1529.17 Q729.205 1532.34 729.205 1537.76 Q729.205 1543.34 725.733 1546.44 Q722.261 1549.52 715.941 1549.52 Q713.765 1549.52 711.497 1549.15 Q709.251 1548.78 706.844 1548.04 L706.844 1543.34 Q708.927 1544.47 711.15 1545.03 Q713.372 1545.58 715.849 1545.58 Q719.853 1545.58 722.191 1543.48 Q724.529 1541.37 724.529 1537.76 Q724.529 1534.15 722.191 1532.04 Q719.853 1529.94 715.849 1529.94 Q713.974 1529.94 712.099 1530.35 Q710.247 1530.77 708.302 1531.65 L708.302 1514.29 Z" fill="#000000" fill-rule="nonzero" fill-opacity="1" /><path clip-path="url(#clip810)" d="M1199.67 1514.29 L1218.03 1514.29 L1218.03 1518.22 L1203.95 1518.22 L1203.95 1526.7 Q1204.97 1526.35 1205.99 1526.19 Q1207.01 1526 1208.03 1526 Q1213.82 1526 1217.2 1529.17 Q1220.57 1532.34 1220.57 1537.76 Q1220.57 1543.34 1217.1 1546.44 Q1213.63 1549.52 1207.31 1549.52 Q1205.13 1549.52 1202.87 1549.15 Q1200.62 1548.78 1198.21 1548.04 L1198.21 1543.34 Q1200.3 1544.47 1202.52 1545.03 Q1204.74 1545.58 1207.22 1545.58 Q1211.22 1545.58 1213.56 1543.48 Q1215.9 1541.37 1215.9 1537.76 Q1215.9 1534.15 1213.56 1532.04 Q1211.22 1529.94 1207.22 1529.94 Q1205.34 1529.94 1203.47 1530.35 Q1201.62 1530.77 1199.67 1531.65 L1199.67 1514.29 Z" fill="#000000" fill-rule="nonzero" fill-opacity="1" /><path clip-path="url(#clip810)" d="M1239.79 1517.37 Q1236.18 1517.37 1234.35 1520.93 Q1232.54 1524.47 1232.54 1531.6 Q1232.54 1538.71 1234.35 1542.27 Q1236.18 1545.82 1239.79 1545.82 Q1243.42 1545.82 1245.23 1542.27 Q1247.06 1538.71 1247.06 1531.6 Q1247.06 1524.47 1245.23 1520.93 Q1243.42 1517.37 1239.79 1517.37 M1239.79 1513.66 Q1245.6 1513.66 1248.65 1518.27 Q1251.73 1522.85 1251.73 1531.6 Q1251.73 1540.33 1248.65 1544.94 Q1245.6 1549.52 1239.79 1549.52 Q1233.98 1549.52 1230.9 1544.94 Q1227.84 1540.33 1227.84 1531.6 Q1227.84 1522.85 1230.9 1518.27 Q1233.98 1513.66 1239.79 1513.66 Z" fill="#000000" fill-rule="nonzero" fill-opacity="1" /><path clip-path="url(#clip810)" d="M1720.95 1514.29 L1743.17 1514.29 L1743.17 1516.28 L1730.62 1548.85 L1725.74 1548.85 L1737.55 1518.22 L1720.95 1518.22 L1720.95 1514.29 Z" fill="#000000" fill-rule="nonzero" fill-opacity="1" /><path clip-path="url(#clip810)" d="M1752.34 1514.29 L1770.69 1514.29 L1770.69 1518.22 L1756.62 1518.22 L1756.62 1526.7 Q1757.64 1526.35 1758.66 1526.19 Q1759.68 1526 1760.69 1526 Q1766.48 1526 1769.86 1529.17 Q1773.24 1532.34 1773.24 1537.76 Q1773.24 1543.34 1769.77 1546.44 Q1766.3 1549.52 1759.98 1549.52 Q1757.8 1549.52 1755.53 1549.15 Q1753.29 1548.78 1750.88 1548.04 L1750.88 1543.34 Q1752.96 1544.47 1755.18 1545.03 Q1757.41 1545.58 1759.88 1545.58 Q1763.89 1545.58 1766.23 1543.48 Q1768.56 1541.37 1768.56 1537.76 Q1768.56 1534.15 1766.23 1532.04 Q1763.89 1529.94 1759.88 1529.94 Q1758.01 1529.94 1756.13 1530.35 Q1754.28 1530.77 1752.34 1531.65 L1752.34 1514.29 Z" fill="#000000" fill-rule="nonzero" fill-opacity="1" /><path clip-path="url(#clip810)" d="M2228.82 1544.91 L2236.46 1544.91 L2236.46 1518.55 L2228.15 1520.21 L2228.15 1515.95 L2236.42 1514.29 L2241.09 1514.29 L2241.09 1544.91 L2248.73 1544.91 L2248.73 1548.85 L2228.82 1548.85 L2228.82 1544.91 Z" fill="#000000" fill-rule="nonzero" fill-opacity="1" /><path clip-path="url(#clip810)" d="M2268.17 1517.37 Q2264.56 1517.37 2262.73 1520.93 Q2260.93 1524.47 2260.93 1531.6 Q2260.93 1538.71 2262.73 1542.27 Q2264.56 1545.82 2268.17 1545.82 Q2271.81 1545.82 2273.61 1542.27 Q2275.44 1538.71 2275.44 1531.6 Q2275.44 1524.47 2273.61 1520.93 Q2271.81 1517.37 2268.17 1517.37 M2268.17 1513.66 Q2273.98 1513.66 2277.04 1518.27 Q2280.12 1522.85 2280.12 1531.6 Q2280.12 1540.33 2277.04 1544.94 Q2273.98 1549.52 2268.17 1549.52 Q2262.36 1549.52 2259.29 1544.94 Q2256.23 1540.33 2256.23 1531.6 Q2256.23 1522.85 2259.29 1518.27 Q2262.36 1513.66 2268.17 1513.66 Z" fill="#000000" fill-rule="nonzero" fill-opacity="1" /><path clip-path="url(#clip810)" d="M2298.34 1517.37 Q2294.73 1517.37 2292.9 1520.93 Q2291.09 1524.47 2291.09 1531.6 Q2291.09 1538.71 2292.9 1542.27 Q2294.73 1545.82 2298.34 1545.82 Q2301.97 1545.82 2303.78 1542.27 Q2305.61 1538.71 2305.61 1531.6 Q2305.61 1524.47 2303.78 1520.93 Q2301.97 1517.37 2298.34 1517.37 M2298.34 1513.66 Q2304.15 1513.66 2307.2 1518.27 Q2310.28 1522.85 2310.28 1531.6 Q2310.28 1540.33 2307.2 1544.94 Q2304.15 1549.52 2298.34 1549.52 Q2292.53 1549.52 2289.45 1544.94 Q2286.39 1540.33 2286.39 1531.6 Q2286.39 1522.85 2289.45 1518.27 Q2292.53 1513.66 2298.34 1513.66 Z" fill="#000000" fill-rule="nonzero" fill-opacity="1" /><polyline clip-path="url(#clip812)" style="stroke:#000000; stroke-linecap:round; stroke-linejoin:round; stroke-width:2; stroke-opacity:0.1; fill:none" points="138.959,1294.86 2352.76,1294.86 "/>
<polyline clip-path="url(#clip812)" style="stroke:#000000; stroke-linecap:round; stroke-linejoin:round; stroke-width:2; stroke-opacity:0.1; fill:none" points="138.959,993.143 2352.76,993.143 "/>
<polyline clip-path="url(#clip812)" style="stroke:#000000; stroke-linecap:round; stroke-linejoin:round; stroke-width:2; stroke-opacity:0.1; fill:none" points="138.959,691.421 2352.76,691.421 "/>
<polyline clip-path="url(#clip812)" style="stroke:#000000; stroke-linecap:round; stroke-linejoin:round; stroke-width:2; stroke-opacity:0.1; fill:none" points="138.959,389.698 2352.76,389.698 "/>
<polyline clip-path="url(#clip812)" style="stroke:#000000; stroke-linecap:round; stroke-linejoin:round; stroke-width:2; stroke-opacity:0.1; fill:none" points="138.959,87.9763 2352.76,87.9763 "/>
<polyline clip-path="url(#clip810)" style="stroke:#000000; stroke-linecap:round; stroke-linejoin:round; stroke-width:4; stroke-opacity:1; fill:none" points="138.959,1486.45 138.959,47.2441 "/>
<polyline clip-path="url(#clip810)" style="stroke:#000000; stroke-linecap:round; stroke-linejoin:round; stroke-width:4; stroke-opacity:1; fill:none" points="138.959,1294.86 157.857,1294.86 "/>
<polyline clip-path="url(#clip810)" style="stroke:#000000; stroke-linecap:round; stroke-linejoin:round; stroke-width:4; stroke-opacity:1; fill:none" points="138.959,993.143 157.857,993.143 "/>
<polyline clip-path="url(#clip810)" style="stroke:#000000; stroke-linecap:round; stroke-linejoin:round; stroke-width:4; stroke-opacity:1; fill:none" points="138.959,691.421 157.857,691.421 "/>
<polyline clip-path="url(#clip810)" style="stroke:#000000; stroke-linecap:round; stroke-linejoin:round; stroke-width:4; stroke-opacity:1; fill:none" points="138.959,389.698 157.857,389.698 "/>
<polyline clip-path="url(#clip810)" style="stroke:#000000; stroke-linecap:round; stroke-linejoin:round; stroke-width:4; stroke-opacity:1; fill:none" points="138.959,87.9763 157.857,87.9763 "/>
<path clip-path="url(#clip810)" d="M86.6401 1308.21 L102.959 1308.21 L102.959 1312.14 L81.0151 1312.14 L81.0151 1308.21 Q83.6771 1305.46 88.2604 1300.83 Q92.8669 1296.17 94.0475 1294.83 Q96.2928 1292.31 97.1724 1290.57 Q98.0752 1288.81 98.0752 1287.12 Q98.0752 1284.37 96.1308 1282.63 Q94.2095 1280.9 91.1077 1280.9 Q88.9086 1280.9 86.4549 1281.66 Q84.0244 1282.42 81.2466 1283.97 L81.2466 1279.25 Q84.0707 1278.12 86.5243 1277.54 Q88.978 1276.96 91.0151 1276.96 Q96.3854 1276.96 99.5798 1279.65 Q102.774 1282.33 102.774 1286.82 Q102.774 1288.95 101.964 1290.87 Q101.177 1292.77 99.0706 1295.36 Q98.4919 1296.03 95.39 1299.25 Q92.2882 1302.45 86.6401 1308.21 Z" fill="#000000" fill-rule="nonzero" fill-opacity="1" /><path clip-path="url(#clip810)" d="M93.3762 979.937 L81.5707 998.386 L93.3762 998.386 L93.3762 979.937 M92.1493 975.863 L98.0289 975.863 L98.0289 998.386 L102.959 998.386 L102.959 1002.27 L98.0289 1002.27 L98.0289 1010.42 L93.3762 1010.42 L93.3762 1002.27 L77.7744 1002.27 L77.7744 997.761 L92.1493 975.863 Z" fill="#000000" fill-rule="nonzero" fill-opacity="1" /><path clip-path="url(#clip810)" d="M91.4317 689.557 Q88.2836 689.557 86.4318 691.71 Q84.6031 693.863 84.6031 697.613 Q84.6031 701.34 86.4318 703.515 Q88.2836 705.668 91.4317 705.668 Q94.5799 705.668 96.4085 703.515 Q98.2604 701.34 98.2604 697.613 Q98.2604 693.863 96.4085 691.71 Q94.5799 689.557 91.4317 689.557 M100.714 674.905 L100.714 679.164 Q98.9548 678.33 97.1493 677.891 Q95.3669 677.451 93.6076 677.451 Q88.978 677.451 86.5243 680.576 Q84.0938 683.701 83.7466 690.02 Q85.1123 688.006 87.1725 686.941 Q89.2327 685.854 91.7095 685.854 Q96.9178 685.854 99.927 689.025 Q102.959 692.173 102.959 697.613 Q102.959 702.937 99.8113 706.154 Q96.6632 709.372 91.4317 709.372 Q85.4364 709.372 82.2651 704.789 Q79.0938 700.182 79.0938 691.455 Q79.0938 683.261 82.9827 678.4 Q86.8716 673.516 93.4225 673.516 Q95.1817 673.516 96.9641 673.863 Q98.7696 674.21 100.714 674.905 Z" fill="#000000" fill-rule="nonzero" fill-opacity="1" /><path clip-path="url(#clip810)" d="M91.1077 390.567 Q87.7743 390.567 85.8531 392.349 Q83.9549 394.131 83.9549 397.256 Q83.9549 400.381 85.8531 402.164 Q87.7743 403.946 91.1077 403.946 Q94.441 403.946 96.3623 402.164 Q98.2835 400.358 98.2835 397.256 Q98.2835 394.131 96.3623 392.349 Q94.4641 390.567 91.1077 390.567 M86.4318 388.576 Q83.4225 387.835 81.7327 385.775 Q80.066 383.715 80.066 380.752 Q80.066 376.608 83.0058 374.201 Q85.9688 371.793 91.1077 371.793 Q96.2697 371.793 99.2095 374.201 Q102.149 376.608 102.149 380.752 Q102.149 383.715 100.459 385.775 Q98.7928 387.835 95.8067 388.576 Q99.1863 389.363 101.061 391.654 Q102.959 393.946 102.959 397.256 Q102.959 402.279 99.8808 404.965 Q96.8252 407.65 91.1077 407.65 Q85.3901 407.65 82.3114 404.965 Q79.2559 402.279 79.2559 397.256 Q79.2559 393.946 81.154 391.654 Q83.0521 389.363 86.4318 388.576 M84.7188 381.192 Q84.7188 383.877 86.3855 385.381 Q88.0753 386.886 91.1077 386.886 Q94.1169 386.886 95.8067 385.381 Q97.5197 383.877 97.5197 381.192 Q97.5197 378.506 95.8067 377.002 Q94.1169 375.497 91.1077 375.497 Q88.0753 375.497 86.3855 377.002 Q84.7188 378.506 84.7188 381.192 Z" fill="#000000" fill-rule="nonzero" fill-opacity="1" /><path clip-path="url(#clip810)" d="M51.6634 101.321 L59.3023 101.321 L59.3023 74.9555 L50.9921 76.6222 L50.9921 72.3629 L59.256 70.6963 L63.9319 70.6963 L63.9319 101.321 L71.5707 101.321 L71.5707 105.256 L51.6634 105.256 L51.6634 101.321 Z" fill="#000000" fill-rule="nonzero" fill-opacity="1" /><path clip-path="url(#clip810)" d="M91.0151 73.775 Q87.404 73.775 85.5753 77.3398 Q83.7697 80.8814 83.7697 88.011 Q83.7697 95.1174 85.5753 98.6822 Q87.404 102.224 91.0151 102.224 Q94.6493 102.224 96.4548 98.6822 Q98.2835 95.1174 98.2835 88.011 Q98.2835 80.8814 96.4548 77.3398 Q94.6493 73.775 91.0151 73.775 M91.0151 70.0713 Q96.8252 70.0713 99.8808 74.6777 Q102.959 79.261 102.959 88.011 Q102.959 96.7378 99.8808 101.344 Q96.8252 105.928 91.0151 105.928 Q85.2049 105.928 82.1262 101.344 Q79.0707 96.7378 79.0707 88.011 Q79.0707 79.261 82.1262 74.6777 Q85.2049 70.0713 91.0151 70.0713 Z" fill="#000000" fill-rule="nonzero" fill-opacity="1" /><polyline clip-path="url(#clip812)" style="stroke:#009af9; stroke-linecap:round; stroke-linejoin:round; stroke-width:4; stroke-opacity:1; fill:none" points="201.614,1422.57 222.499,1422.57 243.384,1422.57 264.269,1422.57 285.154,1422.57 306.038,1422.57 326.923,1422.57 347.808,1422.57 368.693,1422.57 389.578,1422.57 410.463,1422.57 431.348,1422.57 452.233,1422.57 473.117,1422.57 494.002,1422.57 514.887,1422.57 535.772,1422.57 556.657,1422.57 577.542,1422.57 598.427,1422.57 619.312,1422.57 640.196,1422.57 661.081,1422.57 681.966,1422.57 702.851,1422.57 723.736,1422.57 744.621,1422.57 765.506,1422.57 786.39,1422.57 807.275,1422.57 828.16,1422.57 849.045,1422.57 869.93,1422.57 890.815,1422.57 911.7,1422.57 932.585,1422.57 953.469,1422.57 974.354,1422.57 995.239,1422.57 1016.12,1422.57 1037.01,1422.57 1057.89,1422.57 1078.78,1422.57 1099.66,1422.57 1120.55,1422.57 1141.43,1422.57 1162.32,1422.57 1183.2,1422.57 1204.09,1422.57 1224.97,1422.57 1245.86,1422.57 1266.74,1422.57 1287.63,1422.57 1308.51,1422.57 1329.4,1422.57 1350.28,1422.57 1371.17,1422.57 1392.05,1422.57 1412.94,1422.57 1433.82,1422.57 1454.71,1422.57 1475.59,1422.57 1496.48,1422.57 1517.36,1422.57 1538.25,1422.57 1559.13,1422.57 1580.02,1422.57 1600.9,1422.57 1621.79,1422.57 1642.67,1422.57 1663.56,1422.57 1684.44,1422.57 1705.32,1422.57 1726.21,1422.57 1747.09,1422.57 1767.98,1422.57 1788.86,1422.57 1809.75,1422.57 1830.63,1422.57 1851.52,1422.57 1872.4,1422.57 1893.29,1422.57 1914.17,1422.57 1935.06,1422.57 1955.94,1422.57 1976.83,1422.57 1997.71,1422.57 2018.6,1422.57 2039.48,1422.57 2060.37,1422.57 2081.25,1422.57 2102.14,1422.57 2123.02,1422.57 2143.91,1422.57 2164.79,1422.57 2185.68,1422.57 2206.56,1422.58 2227.45,1422.58 2248.33,1422.58 2269.22,1422.58 2290.1,1422.58 "/>
<polyline clip-path="url(#clip812)" style="stroke:#e26f46; stroke-linecap:round; stroke-linejoin:round; stroke-width:4; stroke-opacity:1; fill:none" points="201.614,87.9763 222.499,95.8987 243.384,103.901 264.269,111.984 285.154,120.149 306.038,128.396 326.923,136.726 347.808,145.14 368.693,153.639 389.578,162.224 410.463,170.895 431.348,179.654 452.233,188.502 473.117,197.438 494.002,206.465 514.887,215.583 535.772,224.793 556.657,234.096 577.542,243.493 598.427,252.984 619.312,262.571 640.196,272.255 661.081,282.037 681.966,291.918 702.851,301.898 723.736,311.979 744.621,322.161 765.506,332.447 786.39,342.836 807.275,353.33 828.16,363.93 849.045,374.637 869.93,385.452 890.815,396.376 911.7,407.41 932.585,418.556 953.469,429.814 974.354,441.186 995.239,452.673 1016.12,464.275 1037.01,475.995 1057.89,487.833 1078.78,499.79 1099.66,511.868 1120.55,524.068 1141.43,536.391 1162.32,548.838 1183.2,561.411 1204.09,574.111 1224.97,586.94 1245.86,599.897 1266.74,612.986 1287.63,626.206 1308.51,639.56 1329.4,653.049 1350.28,666.674 1371.17,680.436 1392.05,694.338 1412.94,708.379 1433.82,722.563 1454.71,736.889 1475.59,751.36 1496.48,765.978 1517.36,780.743 1538.25,795.656 1559.13,810.721 1580.02,825.937 1600.9,841.307 1621.79,856.832 1642.67,872.514 1663.56,888.355 1684.44,904.355 1705.32,920.516 1726.21,936.841 1747.09,953.331 1767.98,969.987 1788.86,986.811 1809.75,1003.8 1830.63,1020.97 1851.52,1038.31 1872.4,1055.82 1893.29,1073.51 1914.17,1091.38 1935.06,1109.43 1955.94,1127.66 1976.83,1146.08 1997.71,1164.68 2018.6,1183.47 2039.48,1202.45 2060.37,1221.62 2081.25,1240.99 2102.14,1260.55 2123.02,1280.3 2143.91,1300.26 2164.79,1320.42 2185.68,1340.78 2206.56,1361.35 2227.45,1382.12 2248.33,1403.11 2269.22,1424.31 2290.1,1445.72 "/>
<path clip-path="url(#clip810)" d="M1983.76 250.738 L2278.96 250.738 L2278.96 95.2176 L1983.76 95.2176  Z" fill="#ffffff" fill-rule="evenodd" fill-opacity="1"/>
<polyline clip-path="url(#clip810)" style="stroke:#000000; stroke-linecap:round; stroke-linejoin:round; stroke-width:4; stroke-opacity:1; fill:none" points="1983.76,250.738 2278.96,250.738 2278.96,95.2176 1983.76,95.2176 1983.76,250.738 "/>
<polyline clip-path="url(#clip810)" style="stroke:#009af9; stroke-linecap:round; stroke-linejoin:round; stroke-width:4; stroke-opacity:1; fill:none" points="2008.36,147.058 2155.95,147.058 "/>
<path clip-path="url(#clip810)" d="M2201.06 139.407 L2201.06 143.389 Q2199.25 142.393 2197.42 141.907 Q2195.62 141.398 2193.76 141.398 Q2189.62 141.398 2187.33 144.037 Q2185.04 146.652 2185.04 151.398 Q2185.04 156.143 2187.33 158.782 Q2189.62 161.398 2193.76 161.398 Q2195.62 161.398 2197.42 160.912 Q2199.25 160.402 2201.06 159.407 L2201.06 163.342 Q2199.27 164.176 2197.35 164.592 Q2195.45 165.009 2193.3 165.009 Q2187.44 165.009 2183.99 161.328 Q2180.55 157.648 2180.55 151.398 Q2180.55 145.055 2184.02 141.421 Q2187.51 137.787 2193.58 137.787 Q2195.55 137.787 2197.42 138.203 Q2199.3 138.597 2201.06 139.407 Z" fill="#000000" fill-rule="nonzero" fill-opacity="1" /><path clip-path="url(#clip810)" d="M2212.68 131.051 L2212.68 138.412 L2221.45 138.412 L2221.45 141.722 L2212.68 141.722 L2212.68 155.796 Q2212.68 158.967 2213.53 159.87 Q2214.41 160.773 2217.07 160.773 L2221.45 160.773 L2221.45 164.338 L2217.07 164.338 Q2212.14 164.338 2210.27 162.509 Q2208.39 160.657 2208.39 155.796 L2208.39 141.722 L2205.27 141.722 L2205.27 138.412 L2208.39 138.412 L2208.39 131.051 L2212.68 131.051 Z" fill="#000000" fill-rule="nonzero" fill-opacity="1" /><polyline clip-path="url(#clip810)" style="stroke:#e26f46; stroke-linecap:round; stroke-linejoin:round; stroke-width:4; stroke-opacity:1; fill:none" points="2008.36,198.898 2155.95,198.898 "/>
<path clip-path="url(#clip810)" d="M2193.95 203.145 Q2188.79 203.145 2186.8 204.326 Q2184.81 205.506 2184.81 208.354 Q2184.81 210.622 2186.29 211.965 Q2187.79 213.284 2190.36 213.284 Q2193.9 213.284 2196.03 210.784 Q2198.18 208.261 2198.18 204.094 L2198.18 203.145 L2193.95 203.145 M2202.44 201.386 L2202.44 216.178 L2198.18 216.178 L2198.18 212.242 Q2196.73 214.603 2194.55 215.738 Q2192.37 216.849 2189.23 216.849 Q2185.24 216.849 2182.88 214.627 Q2180.55 212.381 2180.55 208.631 Q2180.55 204.256 2183.46 202.034 Q2186.4 199.812 2192.21 199.812 L2198.18 199.812 L2198.18 199.395 Q2198.18 196.455 2196.24 194.858 Q2194.32 193.238 2190.82 193.238 Q2188.6 193.238 2186.49 193.77 Q2184.39 194.303 2182.44 195.367 L2182.44 191.432 Q2184.78 190.53 2186.98 190.09 Q2189.18 189.627 2191.26 189.627 Q2196.89 189.627 2199.67 192.543 Q2202.44 195.46 2202.44 201.386 Z" fill="#000000" fill-rule="nonzero" fill-opacity="1" /><path clip-path="url(#clip810)" d="M2212.63 212.242 L2220.27 212.242 L2220.27 185.877 L2211.96 187.543 L2211.96 183.284 L2220.22 181.618 L2224.9 181.618 L2224.9 212.242 L2232.54 212.242 L2232.54 216.178 L2212.63 216.178 L2212.63 212.242 Z" fill="#000000" fill-rule="nonzero" fill-opacity="1" /><path clip-path="url(#clip810)" d="M2245.59 182.891 L2245.59 190.252 L2254.36 190.252 L2254.36 193.562 L2245.59 193.562 L2245.59 207.636 Q2245.59 210.807 2246.45 211.71 Q2247.33 212.613 2249.99 212.613 L2254.36 212.613 L2254.36 216.178 L2249.99 216.178 Q2245.06 216.178 2243.18 214.349 Q2241.31 212.497 2241.31 207.636 L2241.31 193.562 L2238.18 193.562 L2238.18 190.252 L2241.31 190.252 L2241.31 182.891 L2245.59 182.891 Z" fill="#000000" fill-rule="nonzero" fill-opacity="1" /></svg>