<?xml version="1.0" encoding="utf-8"?>
<svg xmlns="http://www.w3.org/2000/svg" xmlns:xlink="http://www.w3.org/1999/xlink" width="800" height="400" viewBox="0 0 3200 1600">
<defs>
  <clipPath id="clip730">
    <rect x="0" y="0" width="3200" height="1600"/>
  </clipPath>
</defs>
<path clip-path="url(#clip730)" d="M0 1600 L3200 1600 L3200 0 L0 0  Z" fill="#ffffff" fill-rule="evenodd" fill-opacity="1"/>
<defs>
  <clipPath id="clip731">
    <rect x="640" y="0" width="2241" height="1600"/>
  </clipPath>
</defs>
<path clip-path="url(#clip730)" d="M162.515 1495.09 L1560.53 1495.09 L1560.53 47.2441 L162.515 47.2441  Z" fill="#ffffff" fill-rule="evenodd" fill-opacity="1"/>
<defs>
  <clipPath id="clip732">
    <rect x="162" y="47" width="1399" height="1449"/>
  </clipPath>
</defs>
<polyline clip-path="url(#clip732)" style="stroke:#000000; stroke-linecap:round; stroke-linejoin:round; stroke-width:2; stroke-opacity:0.1; fill:none" points="188.893,1495.09 188.893,47.2441 "/>
<polyline clip-path="url(#clip732)" style="stroke:#000000; stroke-linecap:round; stroke-linejoin:round; stroke-width:2; stroke-opacity:0.1; fill:none" points="518.614,1495.09 518.614,47.2441 "/>
<polyline clip-path="url(#clip732)" style="stroke:#000000; stroke-linecap:round; stroke-linejoin:round; stroke-width:2; stroke-opacity:0.1; fill:none" points="848.335,1495.09 848.335,47.2441 "/>
<polyline clip-path="url(#clip732)" style="stroke:#000000; stroke-linecap:round; stroke-linejoin:round; stroke-width:2; stroke-opacity:0.1; fill:none" points="1178.06,1495.09 1178.06,47.2441 "/>
<polyline clip-path="url(#clip732)" style="stroke:#000000; stroke-linecap:round; stroke-linejoin:round; stroke-width:2; stroke-opacity:0.1; fill:none" points="1507.78,1495.09 1507.78,47.2441 "/>
<polyline clip-path="url(#clip730)" style="stroke:#000000; stroke-linecap:round; stroke-linejoin:round; stroke-width:4; stroke-opacity:1; fill:none" points="162.515,1495.09 1560.53,1495.09 "/>
<polyline clip-path="url(#clip730)" style="stroke:#000000; stroke-linecap:round; stroke-linejoin:round; stroke-width:4; stroke-opacity:1; fill:none" points="188.893,1495.09 188.893,1476.19 "/>
<polyline clip-path="url(#clip730)" style="stroke:#000000; stroke-linecap:round; stroke-linejoin:round; stroke-width:4; stroke-opacity:1; fill:none" points="518.614,1495.09 518.614,1476.19 "/>
<polyline clip-path="url(#clip730)" style="stroke:#000000; stroke-linecap:round; stroke-linejoin:round; stroke-width:4; stroke-opacity:1; fill:none" points="848.335,1495.09 848.335,1476.19 "/>
<polyline clip-path="url(#clip730)" style="stroke:#000000; stroke-linecap:round; stroke-linejoin:round; stroke-width:4; stroke-opacity:1; fill:none" points="1178.06,1495.09 1178.06,1476.19 "/>
<polyline clip-path="url(#clip730)" style="stroke:#000000; stroke-linecap:round; stroke-linejoin:round; stroke-width:4; stroke-opacity:1; fill:none" points="1507.78,1495.09 1507.78,1476.19 "/>
<path clip-path="url(#clip730)" d="M188.893 1532.41 Q185.282 1532.41 183.453 1535.97 Q181.647 1539.51 181.647 1546.64 Q181.647 1553.75 183.453 1557.31 Q185.282 1560.86 188.893 1560.86 Q192.527 1560.86 194.332 1557.31 Q196.161 1553.75 196.161 1546.64 Q196.161 1539.51 194.332 1535.97 Q192.527 1532.41 188.893 1532.41 M188.893 1528.7 Q194.703 1528.7 197.758 1533.31 Q200.837 1537.89 200.837 1546.64 Q200.837 1555.37 197.758 1559.98 Q194.703 1564.56 188.893 1564.56 Q183.082 1564.56 180.004 1559.98 Q176.948 1555.37 176.948 1546.64 Q176.948 1537.89 180.004 1533.31 Q183.082 1528.7 188.893 1528.7 Z" fill="#000000" fill-rule="nonzero" fill-opacity="1" /><path clip-path="url(#clip730)" d="M497.885 1559.95 L514.204 1559.95 L514.204 1563.89 L492.26 1563.89 L492.26 1559.95 Q494.922 1557.2 499.505 1552.57 Q504.112 1547.92 505.292 1546.57 Q507.538 1544.05 508.417 1542.31 Q509.32 1540.55 509.32 1538.86 Q509.32 1536.11 507.376 1534.37 Q505.454 1532.64 502.353 1532.64 Q500.153 1532.64 497.7 1533.4 Q495.269 1534.17 492.491 1535.72 L492.491 1530.99 Q495.316 1529.86 497.769 1529.28 Q500.223 1528.7 502.26 1528.7 Q507.63 1528.7 510.825 1531.39 Q514.019 1534.07 514.019 1538.56 Q514.019 1540.69 513.209 1542.61 Q512.422 1544.51 510.315 1547.11 Q509.737 1547.78 506.635 1550.99 Q503.533 1554.19 497.885 1559.95 Z" fill="#000000" fill-rule="nonzero" fill-opacity="1" /><path clip-path="url(#clip730)" d="M524.065 1529.33 L542.422 1529.33 L542.422 1533.26 L528.348 1533.26 L528.348 1541.74 Q529.366 1541.39 530.385 1541.23 Q531.403 1541.04 532.422 1541.04 Q538.209 1541.04 541.588 1544.21 Q544.968 1547.38 544.968 1552.8 Q544.968 1558.38 541.496 1561.48 Q538.024 1564.56 531.704 1564.56 Q529.528 1564.56 527.26 1564.19 Q525.014 1563.82 522.607 1563.08 L522.607 1558.38 Q524.69 1559.51 526.913 1560.07 Q529.135 1560.62 531.612 1560.62 Q535.616 1560.62 537.954 1558.52 Q540.292 1556.41 540.292 1552.8 Q540.292 1549.19 537.954 1547.08 Q535.616 1544.98 531.612 1544.98 Q529.737 1544.98 527.862 1545.39 Q526.01 1545.81 524.065 1546.69 L524.065 1529.33 Z" fill="#000000" fill-rule="nonzero" fill-opacity="1" /><path clip-path="url(#clip730)" d="M823.035 1529.33 L841.391 1529.33 L841.391 1533.26 L827.317 1533.26 L827.317 1541.74 Q828.336 1541.39 829.354 1541.23 Q830.373 1541.04 831.391 1541.04 Q837.178 1541.04 840.558 1544.21 Q843.937 1547.38 843.937 1552.8 Q843.937 1558.38 840.465 1561.48 Q836.993 1564.56 830.673 1564.56 Q828.498 1564.56 826.229 1564.19 Q823.984 1563.82 821.576 1563.08 L821.576 1558.38 Q823.66 1559.51 825.882 1560.07 Q828.104 1560.62 830.581 1560.62 Q834.585 1560.62 836.923 1558.52 Q839.261 1556.41 839.261 1552.8 Q839.261 1549.19 836.923 1547.08 Q834.585 1544.98 830.581 1544.98 Q828.706 1544.98 826.831 1545.39 Q824.979 1545.81 823.035 1546.69 L823.035 1529.33 Z" fill="#000000" fill-rule="nonzero" fill-opacity="1" /><path clip-path="url(#clip730)" d="M863.15 1532.41 Q859.539 1532.41 857.71 1535.97 Q855.905 1539.51 855.905 1546.64 Q855.905 1553.75 857.71 1557.31 Q859.539 1560.86 863.15 1560.86 Q866.784 1560.86 868.59 1557.31 Q870.419 1553.75 870.419 1546.64 Q870.419 1539.51 868.59 1535.97 Q866.784 1532.41 863.15 1532.41 M863.15 1528.7 Q868.96 1528.7 872.016 1533.31 Q875.095 1537.89 875.095 1546.64 Q875.095 1555.37 872.016 1559.98 Q868.96 1564.56 863.15 1564.56 Q857.34 1564.56 854.261 1559.98 Q851.206 1555.37 851.206 1546.64 Q851.206 1537.89 854.261 1533.31 Q857.34 1528.7 863.15 1528.7 Z" fill="#000000" fill-rule="nonzero" fill-opacity="1" /><path clip-path="url(#clip730)" d="M1151.91 1529.33 L1174.13 1529.33 L1174.13 1531.32 L1161.59 1563.89 L1156.7 1563.89 L1168.51 1533.26 L1151.91 1533.26 L1151.91 1529.33 Z" fill="#000000" fill-rule="nonzero" fill-opacity="1" /><path clip-path="url(#clip730)" d="M1183.3 1529.33 L1201.66 1529.33 L1201.66 1533.26 L1187.58 1533.26 L1187.58 1541.74 Q1188.6 1541.39 1189.62 1541.23 Q1190.64 1541.04 1191.66 1541.04 Q1197.44 1541.04 1200.82 1544.21 Q1204.2 1547.38 1204.2 1552.8 Q1204.2 1558.38 1200.73 1561.48 Q1197.26 1564.56 1190.94 1564.56 Q1188.76 1564.56 1186.49 1564.19 Q1184.25 1563.82 1181.84 1563.08 L1181.84 1558.38 Q1183.92 1559.51 1186.15 1560.07 Q1188.37 1560.62 1190.85 1560.62 Q1194.85 1560.62 1197.19 1558.52 Q1199.53 1556.41 1199.53 1552.8 Q1199.53 1549.19 1197.19 1547.08 Q1194.85 1544.98 1190.85 1544.98 Q1188.97 1544.98 1187.1 1545.39 Q1185.24 1545.81 1183.3 1546.69 L1183.3 1529.33 Z" fill="#000000" fill-rule="nonzero" fill-opacity="1" /><path clip-path="url(#clip730)" d="M1467.38 1559.95 L1475.02 1559.95 L1475.02 1533.59 L1466.71 1535.25 L1466.71 1530.99 L1474.98 1529.33 L1479.65 1529.33 L1479.65 1559.95 L1487.29 1559.95 L1487.29 1563.89 L1467.38 1563.89 L1467.38 1559.95 Z" fill="#000000" fill-rule="nonzero" fill-opacity="1" /><path clip-path="url(#clip730)" d="M1506.74 1532.41 Q1503.13 1532.41 1501.3 1535.97 Q1499.49 1539.51 1499.49 1546.64 Q1499.49 1553.75 1501.3 1557.31 Q1503.13 1560.86 1506.74 1560.86 Q1510.37 1560.86 1512.18 1557.31 Q1514.01 1553.75 1514.01 1546.64 Q1514.01 1539.51 1512.18 1535.97 Q1510.37 1532.41 1506.74 1532.41 M1506.74 1528.7 Q1512.55 1528.7 1515.6 1533.31 Q1518.68 1537.89 1518.68 1546.64 Q1518.68 1555.37 1515.6 1559.98 Q1512.55 1564.56 1506.74 1564.56 Q1500.93 1564.56 1497.85 1559.98 Q1494.79 1555.37 1494.79 1546.64 Q1494.79 1537.89 1497.85 1533.31 Q1500.93 1528.7 1506.74 1528.7 Z" fill="#000000" fill-rule="nonzero" fill-opacity="1" /><path clip-path="url(#clip730)" d="M1536.9 1532.41 Q1533.29 1532.41 1531.46 1535.97 Q1529.65 1539.51 1529.65 1546.64 Q1529.65 1553.75 1531.46 1557.31 Q1533.29 1560.86 1536.9 1560.86 Q1540.53 1560.86 1542.34 1557.31 Q1544.17 1553.75 1544.17 1546.64 Q1544.17 1539.51 1542.34 1535.97 Q1540.53 1532.41 1536.9 1532.41 M1536.9 1528.7 Q1542.71 1528.7 1545.76 1533.31 Q1548.84 1537.89 1548.84 1546.64 Q1548.84 1555.37 1545.76 1559.98 Q1542.71 1564.56 1536.9 1564.56 Q1531.09 1564.56 1528.01 1559.98 Q1524.95 1555.37 1524.95 1546.64 Q1524.95 1537.89 1528.01 1533.31 Q1531.09 1528.7 1536.9 1528.7 Z" fill="#000000" fill-rule="nonzero" fill-opacity="1" /><polyline clip-path="url(#clip732)" style="stroke:#000000; stroke-linecap:round; stroke-linejoin:round; stroke-width:2; stroke-opacity:0.1; fill:none" points="162.515,1317.79 1560.53,1317.79 "/>
<polyline clip-path="url(#clip732)" style="stroke:#000000; stroke-linecap:round; stroke-linejoin:round; stroke-width:2; stroke-opacity:0.1; fill:none" points="162.515,1107.81 1560.53,1107.81 "/>
<polyline clip-path="url(#clip732)" style="stroke:#000000; stroke-linecap:round; stroke-linejoin:round; stroke-width:2; stroke-opacity:0.1; fill:none" points="162.515,897.824 1560.53,897.824 "/>
<polyline clip-path="url(#clip732)" style="stroke:#000000; stroke-linecap:round; stroke-linejoin:round; stroke-width:2; stroke-opacity:0.1; fill:none" points="162.515,687.84 1560.53,687.84 "/>
<polyline clip-path="url(#clip732)" style="stroke:#000000; stroke-linecap:round; stroke-linejoin:round; stroke-width:2; stroke-opacity:0.1; fill:none" points="162.515,477.856 1560.53,477.856 "/>
<polyline clip-path="url(#clip732)" style="stroke:#000000; stroke-linecap:round; stroke-linejoin:round; stroke-width:2; stroke-opacity:0.1; fill:none" points="162.515,267.872 1560.53,267.872 "/>
<polyline clip-path="url(#clip732)" style="stroke:#000000; stroke-linecap:round; stroke-linejoin:round; stroke-width:2; stroke-opacity:0.1; fill:none" points="162.515,57.8879 1560.53,57.8879 "/>
<polyline clip-path="url(#clip730)" style="stroke:#000000; stroke-linecap:round; stroke-linejoin:round; stroke-width:4; stroke-opacity:1; fill:none" points="162.515,1495.09 162.515,47.2441 "/>
<polyline clip-path="url(#clip730)" style="stroke:#000000; stroke-linecap:round; stroke-linejoin:round; stroke-width:4; stroke-opacity:1; fill:none" points="162.515,1317.79 181.413,1317.79 "/>
<polyline clip-path="url(#clip730)" style="stroke:#000000; stroke-linecap:round; stroke-linejoin:round; stroke-width:4; stroke-opacity:1; fill:none" points="162.515,1107.81 181.413,1107.81 "/>
<polyline clip-path="url(#clip730)" style="stroke:#000000; stroke-linecap:round; stroke-linejoin:round; stroke-width:4; stroke-opacity:1; fill:none" points="162.515,897.824 181.413,897.824 "/>
<polyline clip-path="url(#clip730)" style="stroke:#000000; stroke-linecap:round; stroke-linejoin:round; stroke-width:4; stroke-opacity:1; fill:none" points="162.515,687.84 181.413,687.84 "/>
<polyline clip-path="url(#clip730)" style="stroke:#000000; stroke-linecap:round; stroke-linejoin:round; stroke-width:4; stroke-opacity:1; fill:none" points="162.515,477.856 181.413,477.856 "/>
<polyline clip-path="url(#clip730)" style="stroke:#000000; stroke-linecap:round; stroke-linejoin:round; stroke-width:4; stroke-opacity:1; fill:none" points="162.515,267.872 181.413,267.872 "/>
<polyline clip-path="url(#clip730)" style="stroke:#000000; stroke-linecap:round; stroke-linejoin:round; stroke-width:4; stroke-opacity:1; fill:none" points="162.515,57.8879 181.413,57.8879 "/>
<path clip-path="url(#clip730)" d="M49.3764 1331.14 L57.0152 1331.14 L57.0152 1304.77 L48.7051 1306.44 L48.7051 1302.18 L56.9689 1300.51 L61.6448 1300.51 L61.6448 1331.14 L69.2837 1331.14 L69.2837 1335.07 L49.3764 1335.07 L49.3764 1331.14 Z" fill="#000000" fill-rule="nonzero" fill-opacity="1" /><path clip-path="url(#clip730)" d="M78.7281 1329.19 L83.6123 1329.19 L83.6123 1335.07 L78.7281 1335.07 L78.7281 1329.19 Z" fill="#000000" fill-rule="nonzero" fill-opacity="1" /><path clip-path="url(#clip730)" d="M94.6076 1331.14 L102.246 1331.14 L102.246 1304.77 L93.9363 1306.44 L93.9363 1302.18 L102.2 1300.51 L106.876 1300.51 L106.876 1331.14 L114.515 1331.14 L114.515 1335.07 L94.6076 1335.07 L94.6076 1331.14 Z" fill="#000000" fill-rule="nonzero" fill-opacity="1" /><path clip-path="url(#clip730)" d="M49.7467 1121.15 L57.3856 1121.15 L57.3856 1094.79 L49.0754 1096.45 L49.0754 1092.2 L57.3393 1090.53 L62.0152 1090.53 L62.0152 1121.15 L69.654 1121.15 L69.654 1125.09 L49.7467 1125.09 L49.7467 1121.15 Z" fill="#000000" fill-rule="nonzero" fill-opacity="1" /><path clip-path="url(#clip730)" d="M79.0984 1119.21 L83.9827 1119.21 L83.9827 1125.09 L79.0984 1125.09 L79.0984 1119.21 Z" fill="#000000" fill-rule="nonzero" fill-opacity="1" /><path clip-path="url(#clip730)" d="M98.1956 1121.15 L114.515 1121.15 L114.515 1125.09 L92.5706 1125.09 L92.5706 1121.15 Q95.2326 1118.4 99.8159 1113.77 Q104.422 1109.12 105.603 1107.77 Q107.848 1105.25 108.728 1103.51 Q109.631 1101.76 109.631 1100.07 Q109.631 1097.31 107.686 1095.57 Q105.765 1093.84 102.663 1093.84 Q100.464 1093.84 98.0104 1094.6 Q95.5798 1095.37 92.8021 1096.92 L92.8021 1092.2 Q95.6261 1091.06 98.0798 1090.48 Q100.534 1089.9 102.571 1089.9 Q107.941 1089.9 111.135 1092.59 Q114.33 1095.27 114.33 1099.76 Q114.33 1101.89 113.52 1103.82 Q112.733 1105.71 110.626 1108.31 Q110.047 1108.98 106.946 1112.19 Q103.844 1115.39 98.1956 1121.15 Z" fill="#000000" fill-rule="nonzero" fill-opacity="1" /><path clip-path="url(#clip730)" d="M48.7977 911.169 L56.4365 911.169 L56.4365 884.804 L48.1264 886.47 L48.1264 882.211 L56.3902 880.544 L61.0661 880.544 L61.0661 911.169 L68.705 911.169 L68.705 915.104 L48.7977 915.104 L48.7977 911.169 Z" fill="#000000" fill-rule="nonzero" fill-opacity="1" /><path clip-path="url(#clip730)" d="M78.1494 909.225 L83.0336 909.225 L83.0336 915.104 L78.1494 915.104 L78.1494 909.225 Z" fill="#000000" fill-rule="nonzero" fill-opacity="1" /><path clip-path="url(#clip730)" d="M107.385 896.47 Q110.742 897.188 112.617 899.456 Q114.515 901.725 114.515 905.058 Q114.515 910.174 110.996 912.975 Q107.478 915.776 100.996 915.776 Q98.8206 915.776 96.5057 915.336 Q94.2141 914.919 91.7604 914.063 L91.7604 909.549 Q93.7048 910.683 96.0196 911.262 Q98.3344 911.84 100.858 911.84 Q105.256 911.84 107.547 910.104 Q109.862 908.368 109.862 905.058 Q109.862 902.003 107.709 900.29 Q105.58 898.553 101.76 898.553 L97.7326 898.553 L97.7326 894.711 L101.946 894.711 Q105.395 894.711 107.223 893.345 Q109.052 891.956 109.052 889.364 Q109.052 886.702 107.154 885.29 Q105.279 883.854 101.76 883.854 Q99.8391 883.854 97.64 884.271 Q95.4409 884.688 92.8021 885.567 L92.8021 881.401 Q95.4641 880.66 97.7789 880.29 Q100.117 879.919 102.177 879.919 Q107.501 879.919 110.603 882.35 Q113.705 884.757 113.705 888.878 Q113.705 891.748 112.061 893.739 Q110.418 895.706 107.385 896.47 Z" fill="#000000" fill-rule="nonzero" fill-opacity="1" /><path clip-path="url(#clip730)" d="M47.6634 701.185 L55.3023 701.185 L55.3023 674.819 L46.9921 676.486 L46.9921 672.227 L55.256 670.56 L59.9319 670.56 L59.9319 701.185 L67.5707 701.185 L67.5707 705.12 L47.6634 705.12 L47.6634 701.185 Z" fill="#000000" fill-rule="nonzero" fill-opacity="1" /><path clip-path="url(#clip730)" d="M77.0151 699.241 L81.8993 699.241 L81.8993 705.12 L77.0151 705.12 L77.0151 699.241 Z" fill="#000000" fill-rule="nonzero" fill-opacity="1" /><path clip-path="url(#clip730)" d="M104.932 674.634 L93.1261 693.083 L104.932 693.083 L104.932 674.634 M103.705 670.56 L109.584 670.56 L109.584 693.083 L114.515 693.083 L114.515 696.972 L109.584 696.972 L109.584 705.12 L104.932 705.12 L104.932 696.972 L89.3299 696.972 L89.3299 692.458 L103.705 670.56 Z" fill="#000000" fill-rule="nonzero" fill-opacity="1" /><path clip-path="url(#clip730)" d="M49.1449 491.201 L56.7837 491.201 L56.7837 464.835 L48.4736 466.502 L48.4736 462.243 L56.7374 460.576 L61.4133 460.576 L61.4133 491.201 L69.0522 491.201 L69.0522 495.136 L49.1449 495.136 L49.1449 491.201 Z" fill="#000000" fill-rule="nonzero" fill-opacity="1" /><path clip-path="url(#clip730)" d="M78.4966 489.257 L83.3808 489.257 L83.3808 495.136 L78.4966 495.136 L78.4966 489.257 Z" fill="#000000" fill-rule="nonzero" fill-opacity="1" /><path clip-path="url(#clip730)" d="M93.6122 460.576 L111.969 460.576 L111.969 464.511 L97.8946 464.511 L97.8946 472.983 Q98.9131 472.636 99.9317 472.474 Q100.95 472.289 101.969 472.289 Q107.756 472.289 111.135 475.46 Q114.515 478.632 114.515 484.048 Q114.515 489.627 111.043 492.729 Q107.571 495.807 101.251 495.807 Q99.0752 495.807 96.8067 495.437 Q94.5613 495.067 92.1539 494.326 L92.1539 489.627 Q94.2372 490.761 96.4595 491.317 Q98.6817 491.872 101.159 491.872 Q105.163 491.872 107.501 489.766 Q109.839 487.659 109.839 484.048 Q109.839 480.437 107.501 478.331 Q105.163 476.224 101.159 476.224 Q99.2835 476.224 97.4085 476.641 Q95.5567 477.057 93.6122 477.937 L93.6122 460.576 Z" fill="#000000" fill-rule="nonzero" fill-opacity="1" /><path clip-path="url(#clip730)" d="M47.9875 281.217 L55.6263 281.217 L55.6263 254.851 L47.3162 256.518 L47.3162 252.259 L55.58 250.592 L60.2559 250.592 L60.2559 281.217 L67.8948 281.217 L67.8948 285.152 L47.9875 285.152 L47.9875 281.217 Z" fill="#000000" fill-rule="nonzero" fill-opacity="1" /><path clip-path="url(#clip730)" d="M77.3392 279.272 L82.2234 279.272 L82.2234 285.152 L77.3392 285.152 L77.3392 279.272 Z" fill="#000000" fill-rule="nonzero" fill-opacity="1" /><path clip-path="url(#clip730)" d="M102.987 266.009 Q99.8391 266.009 97.9872 268.161 Q96.1585 270.314 96.1585 274.064 Q96.1585 277.791 97.9872 279.967 Q99.8391 282.12 102.987 282.12 Q106.135 282.12 107.964 279.967 Q109.816 277.791 109.816 274.064 Q109.816 270.314 107.964 268.161 Q106.135 266.009 102.987 266.009 M112.27 251.356 L112.27 255.615 Q110.51 254.782 108.705 254.342 Q106.922 253.902 105.163 253.902 Q100.534 253.902 98.0798 257.027 Q95.6493 260.152 95.3021 266.472 Q96.6678 264.458 98.728 263.393 Q100.788 262.305 103.265 262.305 Q108.473 262.305 111.483 265.476 Q114.515 268.624 114.515 274.064 Q114.515 279.388 111.367 282.606 Q108.219 285.823 102.987 285.823 Q96.9919 285.823 93.8206 281.24 Q90.6493 276.634 90.6493 267.907 Q90.6493 259.712 94.5382 254.851 Q98.427 249.967 104.978 249.967 Q106.737 249.967 108.52 250.314 Q110.325 250.661 112.27 251.356 Z" fill="#000000" fill-rule="nonzero" fill-opacity="1" /><path clip-path="url(#clip730)" d="M49.0523 71.2327 L56.6911 71.2327 L56.6911 44.8671 L48.381 46.5338 L48.381 42.2746 L56.6449 40.6079 L61.3208 40.6079 L61.3208 71.2327 L68.9596 71.2327 L68.9596 75.1679 L49.0523 75.1679 L49.0523 71.2327 Z" fill="#000000" fill-rule="nonzero" fill-opacity="1" /><path clip-path="url(#clip730)" d="M78.404 69.2883 L83.2882 69.2883 L83.2882 75.1679 L78.404 75.1679 L78.404 69.2883 Z" fill="#000000" fill-rule="nonzero" fill-opacity="1" /><path clip-path="url(#clip730)" d="M92.2928 40.6079 L114.515 40.6079 L114.515 42.5986 L101.969 75.1679 L97.0845 75.1679 L108.89 44.5431 L92.2928 44.5431 L92.2928 40.6079 Z" fill="#000000" fill-rule="nonzero" fill-opacity="1" /><polyline clip-path="url(#clip732)" style="stroke:#009af9; stroke-linecap:round; stroke-linejoin:round; stroke-width:4; stroke-opacity:1; fill:none" points="202.081,1454.11 215.27,1443.49 228.459,1432.81 241.648,1422.08 254.837,1411.3 268.026,1400.47 281.215,1389.58 294.403,1378.64 307.592,1367.65 320.781,1356.6 333.97,1345.5 347.159,1334.35 360.348,1323.14 373.537,1311.87 386.725,1300.55 399.914,1289.18 413.103,1277.75 426.292,1266.26 439.481,1254.72 452.67,1243.12 465.859,1231.46 479.047,1219.75 492.236,1207.98 505.425,1196.15 518.614,1184.27 531.803,1172.33 544.992,1160.32 558.181,1148.26 571.369,1136.15 584.558,1123.97 597.747,1111.73 610.936,1099.43 624.125,1087.07 637.314,1074.65 650.503,1062.18 663.691,1049.64 676.88,1037.03 690.069,1024.37 703.258,1011.65 716.447,998.86 729.636,986.01 742.825,973.098 756.013,960.123 769.202,947.084 782.391,933.981 795.58,920.814 808.769,907.583 821.958,894.288 835.147,880.927 848.335,867.501 861.524,854.01 874.713,840.452 887.902,826.828 901.091,813.138 914.28,799.38 927.469,785.556 940.657,771.664 953.846,757.704 967.035,743.675 980.224,729.578 993.413,715.413 1006.6,701.178 1019.79,686.873 1032.98,672.499 1046.17,658.054 1059.36,643.538 1072.55,628.952 1085.73,614.294 1098.92,599.565 1112.11,584.764 1125.3,569.89 1138.49,554.944 1151.68,539.925 1164.87,524.832 1178.06,509.665 1191.25,494.424 1204.43,479.109 1217.62,463.719 1230.81,448.254 1244,432.713 1257.19,417.096 1270.38,401.403 1283.57,385.633 1296.76,369.786 1309.95,353.861 1323.13,337.859 1336.32,321.779 1349.51,305.62 1362.7,289.381 1375.89,273.064 1389.08,256.667 1402.27,240.189 1415.46,223.631 1428.65,206.993 1441.83,190.272 1455.02,173.47 1468.21,156.586 1481.4,139.62 1494.59,122.57 1507.78,105.437 1520.97,88.2208 "/>
<path clip-path="url(#clip730)" d="M209.116 199.186 L389.82 199.186 L389.82 95.5056 L209.116 95.5056  Z" fill="#ffffff" fill-rule="evenodd" fill-opacity="1"/>
<polyline clip-path="url(#clip730)" style="stroke:#000000; stroke-linecap:round; stroke-linejoin:round; stroke-width:4; stroke-opacity:1; fill:none" points="209.116,199.186 389.82,199.186 389.82,95.5056 209.116,95.5056 209.116,199.186 "/>
<polyline clip-path="url(#clip730)" style="stroke:#009af9; stroke-linecap:round; stroke-linejoin:round; stroke-width:4; stroke-opacity:1; fill:none" points="224.649,147.346 317.85,147.346 "/>
<path clip-path="url(#clip730)" d="M353.893 139.695 L353.893 143.677 Q352.087 142.681 350.259 142.195 Q348.453 141.686 346.601 141.686 Q342.458 141.686 340.166 144.325 Q337.875 146.94 337.875 151.686 Q337.875 156.431 340.166 159.07 Q342.458 161.686 346.601 161.686 Q348.453 161.686 350.259 161.2 Q352.087 160.69 353.893 159.695 L353.893 163.63 Q352.111 164.464 350.189 164.88 Q348.291 165.297 346.138 165.297 Q340.282 165.297 336.833 161.616 Q333.384 157.936 333.384 151.686 Q333.384 145.343 336.856 141.709 Q340.351 138.075 346.416 138.075 Q348.384 138.075 350.259 138.491 Q352.134 138.885 353.893 139.695 Z" fill="#000000" fill-rule="nonzero" fill-opacity="1" /><path clip-path="url(#clip730)" d="M365.513 131.339 L365.513 138.7 L374.286 138.7 L374.286 142.01 L365.513 142.01 L365.513 156.084 Q365.513 159.255 366.37 160.158 Q367.249 161.061 369.911 161.061 L374.286 161.061 L374.286 164.626 L369.911 164.626 Q364.981 164.626 363.106 162.797 Q361.231 160.945 361.231 156.084 L361.231 142.01 L358.106 142.01 L358.106 138.7 L361.231 138.7 L361.231 131.339 L365.513 131.339 Z" fill="#000000" fill-rule="nonzero" fill-opacity="1" /><path clip-path="url(#clip730)" d="M1754.74 1495.09 L3152.76 1495.09 L3152.76 47.2441 L1754.74 47.2441  Z" fill="#ffffff" fill-rule="evenodd" fill-opacity="1"/>
<defs>
  <clipPath id="clip733">
    <rect x="1754" y="47" width="1399" height="1449"/>
  </clipPath>
</defs>
<polyline clip-path="url(#clip733)" style="stroke:#000000; stroke-linecap:round; stroke-linejoin:round; stroke-width:2; stroke-opacity:0.1; fill:none" points="1781.11,1495.09 1781.11,47.2441 "/>
<polyline clip-path="url(#clip733)" style="stroke:#000000; stroke-linecap:round; stroke-linejoin:round; stroke-width:2; stroke-opacity:0.1; fill:none" points="2110.84,1495.09 2110.84,47.2441 "/>
<polyline clip-path="url(#clip733)" style="stroke:#000000; stroke-linecap:round; stroke-linejoin:round; stroke-width:2; stroke-opacity:0.1; fill:none" points="2440.56,1495.09 2440.56,47.2441 "/>
<polyline clip-path="url(#clip733)" style="stroke:#000000; stroke-linecap:round; stroke-linejoin:round; stroke-width:2; stroke-opacity:0.1; fill:none" points="2770.28,1495.09 2770.28,47.2441 "/>
<polyline clip-path="url(#clip733)" style="stroke:#000000; stroke-linecap:round; stroke-linejoin:round; stroke-width:2; stroke-opacity:0.1; fill:none" points="3100,1495.09 3100,47.2441 "/>
<polyline clip-path="url(#clip730)" style="stroke:#000000; stroke-linecap:round; stroke-linejoin:round; stroke-width:4; stroke-opacity:1; fill:none" points="1754.74,1495.09 3152.76,1495.09 "/>
<polyline clip-path="url(#clip730)" style="stroke:#000000; stroke-linecap:round; stroke-linejoin:round; stroke-width:4; stroke-opacity:1; fill:none" points="1781.11,1495.09 1781.11,1476.19 "/>
<polyline clip-path="url(#clip730)" style="stroke:#000000; stroke-linecap:round; stroke-linejoin:round; stroke-width:4; stroke-opacity:1; fill:none" points="2110.84,1495.09 2110.84,1476.19 "/>
<polyline clip-path="url(#clip730)" style="stroke:#000000; stroke-linecap:round; stroke-linejoin:round; stroke-width:4; stroke-opacity:1; fill:none" points="2440.56,1495.09 2440.56,1476.19 "/>
<polyline clip-path="url(#clip730)" style="stroke:#000000; stroke-linecap:round; stroke-linejoin:round; stroke-width:4; stroke-opacity:1; fill:none" points="2770.28,1495.09 2770.28,1476.19 "/>
<polyline clip-path="url(#clip730)" style="stroke:#000000; stroke-linecap:round; stroke-linejoin:round; stroke-width:4; stroke-opacity:1; fill:none" points="3100,1495.09 3100,1476.19 "/>
<path clip-path="url(#clip730)" d="M1781.11 1532.41 Q1777.5 1532.41 1775.68 1535.97 Q1773.87 1539.51 1773.87 1546.64 Q1773.87 1553.75 1775.68 1557.31 Q1777.5 1560.86 1781.11 1560.86 Q1784.75 1560.86 1786.55 1557.31 Q1788.38 1553.75 1788.38 1546.64 Q1788.38 1539.51 1786.55 1535.97 Q1784.75 1532.41 1781.11 1532.41 M1781.11 1528.7 Q1786.93 1528.7 1789.98 1533.31 Q1793.06 1537.89 1793.06 1546.64 Q1793.06 1555.37 1789.98 1559.98 Q1786.93 1564.56 1781.11 1564.56 Q1775.3 1564.56 1772.23 1559.98 Q1769.17 1555.37 1769.17 1546.64 Q1769.17 1537.89 1772.23 1533.31 Q1775.3 1528.7 1781.11 1528.7 Z" fill="#000000" fill-rule="nonzero" fill-opacity="1" /><path clip-path="url(#clip730)" d="M2090.11 1559.95 L2106.43 1559.95 L2106.43 1563.89 L2084.48 1563.89 L2084.48 1559.95 Q2087.14 1557.2 2091.73 1552.57 Q2096.33 1547.92 2097.51 1546.57 Q2099.76 1544.05 2100.64 1542.31 Q2101.54 1540.55 2101.54 1538.86 Q2101.54 1536.11 2099.6 1534.37 Q2097.68 1532.64 2094.57 1532.64 Q2092.38 1532.64 2089.92 1533.4 Q2087.49 1534.17 2084.71 1535.72 L2084.71 1530.99 Q2087.54 1529.86 2089.99 1529.28 Q2092.45 1528.7 2094.48 1528.7 Q2099.85 1528.7 2103.05 1531.39 Q2106.24 1534.07 2106.24 1538.56 Q2106.24 1540.69 2105.43 1542.61 Q2104.64 1544.51 2102.54 1547.11 Q2101.96 1547.78 2098.86 1550.99 Q2095.76 1554.19 2090.11 1559.95 Z" fill="#000000" fill-rule="nonzero" fill-opacity="1" /><path clip-path="url(#clip730)" d="M2116.29 1529.33 L2134.64 1529.33 L2134.64 1533.26 L2120.57 1533.26 L2120.57 1541.74 Q2121.59 1541.39 2122.61 1541.23 Q2123.63 1541.04 2124.64 1541.04 Q2130.43 1541.04 2133.81 1544.21 Q2137.19 1547.38 2137.19 1552.8 Q2137.19 1558.38 2133.72 1561.48 Q2130.25 1564.56 2123.93 1564.56 Q2121.75 1564.56 2119.48 1564.19 Q2117.24 1563.82 2114.83 1563.08 L2114.83 1558.38 Q2116.91 1559.51 2119.13 1560.07 Q2121.36 1560.62 2123.83 1560.62 Q2127.84 1560.62 2130.18 1558.52 Q2132.51 1556.41 2132.51 1552.8 Q2132.51 1549.19 2130.18 1547.08 Q2127.84 1544.98 2123.83 1544.98 Q2121.96 1544.98 2120.08 1545.39 Q2118.23 1545.81 2116.29 1546.69 L2116.29 1529.33 Z" fill="#000000" fill-rule="nonzero" fill-opacity="1" /><path clip-path="url(#clip730)" d="M2415.26 1529.33 L2433.61 1529.33 L2433.61 1533.26 L2419.54 1533.26 L2419.54 1541.74 Q2420.56 1541.39 2421.58 1541.23 Q2422.59 1541.04 2423.61 1541.04 Q2429.4 1541.04 2432.78 1544.21 Q2436.16 1547.38 2436.16 1552.8 Q2436.16 1558.38 2432.69 1561.48 Q2429.22 1564.56 2422.9 1564.56 Q2420.72 1564.56 2418.45 1564.19 Q2416.21 1563.82 2413.8 1563.08 L2413.8 1558.38 Q2415.88 1559.51 2418.1 1560.07 Q2420.33 1560.62 2422.8 1560.62 Q2426.81 1560.62 2429.15 1558.52 Q2431.48 1556.41 2431.48 1552.8 Q2431.48 1549.19 2429.15 1547.08 Q2426.81 1544.98 2422.8 1544.98 Q2420.93 1544.98 2419.05 1545.39 Q2417.2 1545.81 2415.26 1546.69 L2415.26 1529.33 Z" fill="#000000" fill-rule="nonzero" fill-opacity="1" /><path clip-path="url(#clip730)" d="M2455.37 1532.41 Q2451.76 1532.41 2449.93 1535.97 Q2448.13 1539.51 2448.13 1546.64 Q2448.13 1553.75 2449.93 1557.31 Q2451.76 1560.86 2455.37 1560.86 Q2459.01 1560.86 2460.81 1557.31 Q2462.64 1553.75 2462.64 1546.64 Q2462.64 1539.51 2460.81 1535.97 Q2459.01 1532.41 2455.37 1532.41 M2455.37 1528.7 Q2461.18 1528.7 2464.24 1533.31 Q2467.32 1537.89 2467.32 1546.64 Q2467.32 1555.37 2464.24 1559.98 Q2461.18 1564.56 2455.37 1564.56 Q2449.56 1564.56 2446.48 1559.98 Q2443.43 1555.37 2443.43 1546.64 Q2443.43 1537.89 2446.48 1533.31 Q2449.56 1528.7 2455.37 1528.7 Z" fill="#000000" fill-rule="nonzero" fill-opacity="1" /><path clip-path="url(#clip730)" d="M2744.13 1529.33 L2766.36 1529.33 L2766.36 1531.32 L2753.81 1563.89 L2748.93 1563.89 L2760.73 1533.26 L2744.13 1533.26 L2744.13 1529.33 Z" fill="#000000" fill-rule="nonzero" fill-opacity="1" /><path clip-path="url(#clip730)" d="M2775.52 1529.33 L2793.88 1529.33 L2793.88 1533.26 L2779.8 1533.26 L2779.8 1541.74 Q2780.82 1541.39 2781.84 1541.23 Q2782.86 1541.04 2783.88 1541.04 Q2789.67 1541.04 2793.05 1544.21 Q2796.42 1547.38 2796.42 1552.8 Q2796.42 1558.38 2792.95 1561.48 Q2789.48 1564.56 2783.16 1564.56 Q2780.99 1564.56 2778.72 1564.19 Q2776.47 1563.82 2774.06 1563.08 L2774.06 1558.38 Q2776.15 1559.51 2778.37 1560.07 Q2780.59 1560.62 2783.07 1560.62 Q2787.07 1560.62 2789.41 1558.52 Q2791.75 1556.41 2791.75 1552.8 Q2791.75 1549.19 2789.41 1547.08 Q2787.07 1544.98 2783.07 1544.98 Q2781.19 1544.98 2779.32 1545.39 Q2777.47 1545.81 2775.52 1546.69 L2775.52 1529.33 Z" fill="#000000" fill-rule="nonzero" fill-opacity="1" /><path clip-path="url(#clip730)" d="M3059.61 1559.95 L3067.25 1559.95 L3067.25 1533.59 L3058.94 1535.25 L3058.94 1530.99 L3067.2 1529.33 L3071.88 1529.33 L3071.88 1559.95 L3079.51 1559.95 L3079.51 1563.89 L3059.61 1563.89 L3059.61 1559.95 Z" fill="#000000" fill-rule="nonzero" fill-opacity="1" /><path clip-path="url(#clip730)" d="M3098.96 1532.41 Q3095.35 1532.41 3093.52 1535.97 Q3091.71 1539.51 3091.71 1546.64 Q3091.71 1553.75 3093.52 1557.31 Q3095.35 1560.86 3098.96 1560.86 Q3102.59 1560.86 3104.4 1557.31 Q3106.23 1553.75 3106.23 1546.64 Q3106.23 1539.51 3104.4 1535.97 Q3102.59 1532.41 3098.96 1532.41 M3098.96 1528.7 Q3104.77 1528.7 3107.82 1533.31 Q3110.9 1537.89 3110.9 1546.64 Q3110.9 1555.37 3107.82 1559.98 Q3104.77 1564.56 3098.96 1564.56 Q3093.15 1564.56 3090.07 1559.98 Q3087.01 1555.37 3087.01 1546.64 Q3087.01 1537.89 3090.07 1533.31 Q3093.15 1528.7 3098.96 1528.7 Z" fill="#000000" fill-rule="nonzero" fill-opacity="1" /><path clip-path="url(#clip730)" d="M3129.12 1532.41 Q3125.51 1532.41 3123.68 1535.97 Q3121.88 1539.51 3121.88 1546.64 Q3121.88 1553.75 3123.68 1557.31 Q3125.51 1560.86 3129.12 1560.86 Q3132.75 1560.86 3134.56 1557.31 Q3136.39 1553.75 3136.39 1546.64 Q3136.39 1539.51 3134.56 1535.97 Q3132.75 1532.41 3129.12 1532.41 M3129.12 1528.7 Q3134.93 1528.7 3137.99 1533.31 Q3141.07 1537.89 3141.07 1546.64 Q3141.07 1555.37 3137.99 1559.98 Q3134.93 1564.56 3129.12 1564.56 Q3123.31 1564.56 3120.23 1559.98 Q3117.18 1555.37 3117.18 1546.64 Q3117.18 1537.89 3120.23 1533.31 Q3123.31 1528.7 3129.12 1528.7 Z" fill="#000000" fill-rule="nonzero" fill-opacity="1" /><polyline clip-path="url(#clip733)" style="stroke:#000000; stroke-linecap:round; stroke-linejoin:round; stroke-width:2; stroke-opacity:0.1; fill:none" points="1754.74,1454.12 3152.76,1454.12 "/>
<polyline clip-path="url(#clip733)" style="stroke:#000000; stroke-linecap:round; stroke-linejoin:round; stroke-width:2; stroke-opacity:0.1; fill:none" points="1754.74,986.191 3152.76,986.191 "/>
<polyline clip-path="url(#clip733)" style="stroke:#000000; stroke-linecap:round; stroke-linejoin:round; stroke-width:2; stroke-opacity:0.1; fill:none" points="1754.74,518.265 3152.76,518.265 "/>
<polyline clip-path="url(#clip733)" style="stroke:#000000; stroke-linecap:round; stroke-linejoin:round; stroke-width:2; stroke-opacity:0.1; fill:none" points="1754.74,50.339 3152.76,50.339 "/>
<polyline clip-path="url(#clip730)" style="stroke:#000000; stroke-linecap:round; stroke-linejoin:round; stroke-width:4; stroke-opacity:1; fill:none" points="1754.74,1495.09 1754.74,47.2441 "/>
<polyline clip-path="url(#clip730)" style="stroke:#000000; stroke-linecap:round; stroke-linejoin:round; stroke-width:4; stroke-opacity:1; fill:none" points="1754.74,1454.12 1773.63,1454.12 "/>
<polyline clip-path="url(#clip730)" style="stroke:#000000; stroke-linecap:round; stroke-linejoin:round; stroke-width:4; stroke-opacity:1; fill:none" points="1754.74,986.191 1773.63,986.191 "/>
<polyline clip-path="url(#clip730)" style="stroke:#000000; stroke-linecap:round; stroke-linejoin:round; stroke-width:4; stroke-opacity:1; fill:none" points="1754.74,518.265 1773.63,518.265 "/>
<polyline clip-path="url(#clip730)" style="stroke:#000000; stroke-linecap:round; stroke-linejoin:round; stroke-width:4; stroke-opacity:1; fill:none" points="1754.74,50.339 1773.63,50.339 "/>
<path clip-path="url(#clip730)" d="M1694.79 1439.92 Q1691.18 1439.92 1689.35 1443.48 Q1687.55 1447.02 1687.55 1454.15 Q1687.55 1461.26 1689.35 1464.82 Q1691.18 1468.36 1694.79 1468.36 Q1698.43 1468.36 1700.23 1464.82 Q1702.06 1461.26 1702.06 1454.15 Q1702.06 1447.02 1700.23 1443.48 Q1698.43 1439.92 1694.79 1439.92 M1694.79 1436.21 Q1700.6 1436.21 1703.66 1440.82 Q1706.74 1445.4 1706.74 1454.15 Q1706.74 1462.88 1703.66 1467.48 Q1700.6 1472.07 1694.79 1472.07 Q1688.98 1472.07 1685.9 1467.48 Q1682.85 1462.88 1682.85 1454.15 Q1682.85 1445.4 1685.9 1440.82 Q1688.98 1436.21 1694.79 1436.21 Z" fill="#000000" fill-rule="nonzero" fill-opacity="1" /><path clip-path="url(#clip730)" d="M1685.83 968.911 L1704.19 968.911 L1704.19 972.846 L1690.12 972.846 L1690.12 981.318 Q1691.14 980.971 1692.15 980.809 Q1693.17 980.624 1694.19 980.624 Q1699.98 980.624 1703.36 983.795 Q1706.74 986.966 1706.74 992.383 Q1706.74 997.961 1703.26 1001.06 Q1699.79 1004.14 1693.47 1004.14 Q1691.3 1004.14 1689.03 1003.77 Q1686.78 1003.4 1684.38 1002.66 L1684.38 997.961 Q1686.46 999.096 1688.68 999.651 Q1690.9 1000.21 1693.38 1000.21 Q1697.39 1000.21 1699.72 998.1 Q1702.06 995.994 1702.06 992.383 Q1702.06 988.772 1699.72 986.665 Q1697.39 984.559 1693.38 984.559 Q1691.51 984.559 1689.63 984.975 Q1687.78 985.392 1685.83 986.272 L1685.83 968.911 Z" fill="#000000" fill-rule="nonzero" fill-opacity="1" /><path clip-path="url(#clip730)" d="M1655.44 531.61 L1663.08 531.61 L1663.08 505.244 L1654.77 506.911 L1654.77 502.651 L1663.03 500.985 L1667.71 500.985 L1667.71 531.61 L1675.35 531.61 L1675.35 535.545 L1655.44 535.545 L1655.44 531.61 Z" fill="#000000" fill-rule="nonzero" fill-opacity="1" /><path clip-path="url(#clip730)" d="M1694.79 504.064 Q1691.18 504.064 1689.35 507.628 Q1687.55 511.17 1687.55 518.3 Q1687.55 525.406 1689.35 528.971 Q1691.18 532.512 1694.79 532.512 Q1698.43 532.512 1700.23 528.971 Q1702.06 525.406 1702.06 518.3 Q1702.06 511.17 1700.23 507.628 Q1698.43 504.064 1694.79 504.064 M1694.79 500.36 Q1700.6 500.36 1703.66 504.966 Q1706.74 509.55 1706.74 518.3 Q1706.74 527.026 1703.66 531.633 Q1700.6 536.216 1694.79 536.216 Q1688.98 536.216 1685.9 531.633 Q1682.85 527.026 1682.85 518.3 Q1682.85 509.55 1685.9 504.966 Q1688.98 500.36 1694.79 500.36 Z" fill="#000000" fill-rule="nonzero" fill-opacity="1" /><path clip-path="url(#clip730)" d="M1656.44 63.6839 L1664.08 63.6839 L1664.08 37.3183 L1655.77 38.9849 L1655.77 34.7257 L1664.03 33.059 L1668.7 33.059 L1668.7 63.6839 L1676.34 63.6839 L1676.34 67.619 L1656.44 67.619 L1656.44 63.6839 Z" fill="#000000" fill-rule="nonzero" fill-opacity="1" /><path clip-path="url(#clip730)" d="M1685.83 33.059 L1704.19 33.059 L1704.19 36.9942 L1690.12 36.9942 L1690.12 45.4664 Q1691.14 45.1191 1692.15 44.9571 Q1693.17 44.7719 1694.19 44.7719 Q1699.98 44.7719 1703.36 47.9432 Q1706.74 51.1145 1706.74 56.5311 Q1706.74 62.1098 1703.26 65.2116 Q1699.79 68.2903 1693.47 68.2903 Q1691.3 68.2903 1689.03 67.92 Q1686.78 67.5496 1684.38 66.8088 L1684.38 62.1098 Q1686.46 63.244 1688.68 63.7996 Q1690.9 64.3552 1693.38 64.3552 Q1697.39 64.3552 1699.72 62.2487 Q1702.06 60.1422 1702.06 56.5311 Q1702.06 52.92 1699.72 50.8136 Q1697.39 48.7071 1693.38 48.7071 Q1691.51 48.7071 1689.63 49.1238 Q1687.78 49.5404 1685.83 50.42 L1685.83 33.059 Z" fill="#000000" fill-rule="nonzero" fill-opacity="1" /><polyline clip-path="url(#clip733)" style="stroke:#009af9; stroke-linecap:round; stroke-linejoin:round; stroke-width:4; stroke-opacity:1; fill:none" points="1794.3,518.265 1807.49,502.831 1820.68,487.562 1833.87,472.463 1847.06,457.541 1860.25,442.8 1873.44,428.248 1886.63,413.889 1899.81,399.731 1913,385.78 1926.19,372.042 1939.38,358.524 1952.57,345.233 1965.76,332.176 1978.95,319.36 1992.14,306.791 2005.33,294.479 2018.51,282.429 2031.7,270.65 2044.89,259.151 2058.08,247.938 2071.27,237.02 2084.46,226.406 2097.65,216.105 2110.84,206.124 2124.03,196.474 2137.21,187.162 2150.4,178.2 2163.59,169.595 2176.78,161.359 2189.97,153.501 2203.16,146.031 2216.35,138.959 2229.54,132.297 2242.72,126.056 2255.91,120.245 2269.1,114.877 2282.29,109.964 2295.48,105.517 2308.67,101.547 2321.86,98.0685 2335.05,95.0929 2348.24,92.6332 2361.42,90.7026 2374.61,89.3145 2387.8,88.4826 2400.99,88.2208 2414.18,88.5435 2427.37,89.4652 2440.56,91.0008 2453.75,93.1655 2466.94,95.9747 2480.12,99.4444 2493.31,103.591 2506.5,108.43 2519.69,113.979 2532.88,120.256 2546.07,127.277 2559.26,135.06 2572.45,143.625 2585.64,152.989 2598.82,163.171 2612.01,174.192 2625.2,186.071 2638.39,198.828 2651.58,212.484 2664.77,227.059 2677.96,242.577 2691.15,259.058 2704.33,276.525 2717.52,295.001 2730.71,314.51 2743.9,335.074 2757.09,356.72 2770.28,379.471 2783.47,403.353 2796.66,428.392 2809.85,454.614 2823.03,482.047 2836.22,510.717 2849.41,540.654 2862.6,571.885 2875.79,604.44 2888.98,638.349 2902.17,673.643 2915.36,710.352 2928.55,748.509 2941.73,788.145 2954.92,829.295 2968.11,871.991 2981.3,916.268 2994.49,962.162 3007.68,1009.71 3020.87,1058.94 3034.06,1109.9 3047.25,1162.63 3060.43,1217.16 3073.62,1273.53 3086.81,1331.78 3100,1391.96 3113.19,1454.11 "/>
<path clip-path="url(#clip730)" d="M2892.53 199.186 L3106.16 199.186 L3106.16 95.5056 L2892.53 95.5056  Z" fill="#ffffff" fill-rule="evenodd" fill-opacity="1"/>
<polyline clip-path="url(#clip730)" style="stroke:#000000; stroke-linecap:round; stroke-linejoin:round; stroke-width:4; stroke-opacity:1; fill:none" points="2892.53,199.186 3106.16,199.186 3106.16,95.5056 2892.53,95.5056 2892.53,199.186 "/>
<polyline clip-path="url(#clip730)" style="stroke:#009af9; stroke-linecap:round; stroke-linejoin:round; stroke-width:4; stroke-opacity:1; fill:none" points="2908.07,147.346 3001.27,147.346 "/>
<path clip-path="url(#clip730)" d="M3030.21 151.593 Q3025.04 151.593 3023.05 152.774 Q3021.06 153.954 3021.06 156.802 Q3021.06 159.07 3022.54 160.413 Q3024.05 161.732 3026.62 161.732 Q3030.16 161.732 3032.29 159.232 Q3034.44 156.709 3034.44 152.542 L3034.44 151.593 L3030.21 151.593 M3038.7 149.834 L3038.7 164.626 L3034.44 164.626 L3034.44 160.69 Q3032.98 163.051 3030.81 164.186 Q3028.63 165.297 3025.48 165.297 Q3021.5 165.297 3019.14 163.075 Q3016.8 160.829 3016.8 157.079 Q3016.8 152.704 3019.72 150.482 Q3022.66 148.26 3028.47 148.26 L3034.44 148.26 L3034.44 147.843 Q3034.44 144.903 3032.5 143.306 Q3030.58 141.686 3027.08 141.686 Q3024.86 141.686 3022.75 142.218 Q3020.65 142.751 3018.7 143.815 L3018.7 139.88 Q3021.04 138.978 3023.24 138.538 Q3025.44 138.075 3027.52 138.075 Q3033.15 138.075 3035.92 140.991 Q3038.7 143.908 3038.7 149.834 Z" fill="#000000" fill-rule="nonzero" fill-opacity="1" /><path clip-path="url(#clip730)" d="M3048.89 160.69 L3056.52 160.69 L3056.52 134.325 L3048.21 135.991 L3048.21 131.732 L3056.48 130.066 L3061.15 130.066 L3061.15 160.69 L3068.79 160.69 L3068.79 164.626 L3048.89 164.626 L3048.89 160.69 Z" fill="#000000" fill-rule="nonzero" fill-opacity="1" /><path clip-path="url(#clip730)" d="M3081.85 131.339 L3081.85 138.7 L3090.62 138.7 L3090.62 142.01 L3081.85 142.01 L3081.85 156.084 Q3081.85 159.255 3082.71 160.158 Q3083.58 161.061 3086.25 161.061 L3090.62 161.061 L3090.62 164.626 L3086.25 164.626 Q3081.32 164.626 3079.44 162.797 Q3077.57 160.945 3077.57 156.084 L3077.57 142.01 L3074.44 142.01 L3074.44 138.7 L3077.57 138.7 L3077.57 131.339 L3081.85 131.339 Z" fill="#000000" fill-rule="nonzero" fill-opacity="1" /></svg>