<?xml version="1.0" encoding="UTF-8"?>
<svg id="Capa_1" data-name="Capa 1" xmlns="http://www.w3.org/2000/svg" viewBox="0 0 214.26 62.53">
  <defs>
    <style>
      .cls-1 {
        fill: #394049;
      }

      .cls-1, .cls-2, .cls-3, .cls-4, .cls-5 {
        stroke-width: 0px;
      }

      .cls-2 {
        fill: #00a499;
      }

      .cls-3 {
        fill: #ec7700;
      }

      .cls-4 {
        fill: #323e48;
      }

      .cls-5 {
        fill: #eb7704;
      }
    </style>
  </defs>
  <path class="cls-3" d="m63.94,62.53c-.34,0-.62-.28-.62-.62V.62c0-.34.28-.62.62-.62s.62.28.62.62v61.3c0,.34-.28.62-.62.62Z"/>
  <g>
    <g>
      <path class="cls-2" d="m0,31.25h.75C.75,16.44,12.76,4.44,27.57,4.44s26.81,12,26.81,26.81-12,26.81-26.81,26.81v.75c15.22,0,27.57-12.34,27.57-27.57S42.79,3.69,27.57,3.69,0,16.03,0,31.25Z"/>
      <path class="cls-5" d="m.75,31.28h0s-.75,0-.75,0h0c0,15.22,12.34,27.57,27.57,27.57v-.75C12.76,58.09.75,46.08.75,31.28Z"/>
    </g>
    <g>
      <path class="cls-1" d="m36.68,40.66h0c-.35,0-.64-.18-.67-.21-.27-.17-.69-.42-.98-.59-.04-.02-.15-.07-.26-.13,0,0,0,0,0,0h0s-.03-.02-.05-.04c-.1-.07-.17-.14-.21-.21-.11-.23-.06-.44-.05-.46.01-.03.03-.06.07-.07.03-.01.07,0,.1,0l.64.38c.13-.32-.05-.72-.12-.87-1.15.57-2.33.9-2.85,1.01-.08.02-.16.03-.24.03-.35,0-.51-.2-.57-.32-.02-.04-.03-.07-.03-.08l-.16-.44s-.02-.03-.03-.04l-.09.03c-1,.32-2.23.49-3.47.49h-.23s-.23,0-.23,0c-1.23,0-2.45-.17-3.44-.49l-.16.44s-.12.41-.6.41c-.07,0-.15,0-.24-.03-.52-.11-1.71-.45-2.85-1.01-.07.15-.24.55-.12.87l.64-.38s.07-.02.1,0c.03.01.05.04.06.07,0,.02.07.24-.05.46-.04.07-.11.14-.22.21,0,0-.03.02-.19.11-.31.18-.87.51-1.09.64-.01,0-.32.21-.67.21-.2,0-.38-.06-.53-.18-.89-.71-.23-3.08-.07-3.6-.07-.09-.12-.17-.16-.25-.35-.6-.12-.89-.01-.99l1.48-1.43s.05-.05.08-.08c.02-.02.04-.03.07-.05.07-.05.14-.07.2-.08.12-.02.23.02.33.1.23.19.32.73.36,1.05,1.07.82,2.68,1.33,3.87,1.62l.25-.54c.1-.2.33-.33.58-.33h0s.17.02.17.02c0,0,.02,0,.02,0v.02s0-.02,0-.02c.65.17,1.42.26,2.23.26h.19s.19,0,.19,0c.8,0,1.57-.09,2.22-.26h.03s.16-.03.16-.03c.25,0,.48.13.59.33l.27.57c1.23-.29,2.9-.8,3.99-1.65.03-.32.12-.86.36-1.05.1-.08.21-.11.32-.1.07,0,.13.04.2.08.03.02.05.04.07.06.03.02.05.04.07.06l1.49,1.44c.11.1.33.39-.01.98-.05.08-.1.16-.16.25.16.53.82,2.89-.07,3.6-.15.12-.33.18-.53.18m-18.67-3.57c-.12.41-.33,1.29-.33,2.05,0,.58.13.97.37,1.17.11.09.24.13.39.13.29,0,.55-.16.56-.17h.02c.3-.2.56-.36.76-.48.04-.02.07-.04.11-.06-.05-.03-.1-.06-.14-.11,0,0,0,0-.01-.01,0,0-.02-.02-.02-.03-.02-.03-.03-.05-.04-.08-.06-.12-.09-.26-.09-.41,0-.29.12-.57.18-.7-.01,0-.02-.02-.04-.03h-.02c-.74-.41-1.31-.83-1.7-1.28m17.23,2.64s.07.04.11.06c.3.17.63.38.75.45l.03.02s.27.17.56.17c.15,0,.28-.04.39-.13.25-.2.37-.59.37-1.17,0-.76-.22-1.64-.33-2.05-.39.45-.96.87-1.71,1.27-.02,0-.04.02-.06.03.06.13.19.41.19.71,0,.15-.03.29-.09.41-.01.03-.03.05-.04.07h0s0,.01,0,.01c0,0,0,.01-.01.01,0,0,0,0-.01.01h0s-.08.09-.14.11m-15.25-.2s.08.03.13.03c.06,0,.11-.01.14-.02.11-.07.15-.12.16-.15.02-.04.04-.09.04-.14-.04.02-.08.05-.13.08-.1.06-.22.13-.34.2m14.89,0s.08.02.14.02c.05,0,.09,0,.13-.03-.12-.07-.25-.15-.35-.21-.05-.03-.09-.05-.12-.07,0,.04.02.09.04.14.01.03.05.08.16.15m-15.65-5.09s0,0-.01,0l-1.4,1.36c-.07.06-.1.14-.1.24,0,.13.05.29.16.47.04.07.09.14.14.22.14.19.31.38.52.56l.16.13c.08.06.16.13.24.19.26.19.57.37.9.55,1.19.63,2.5,1,3.03,1.11.22.05.39.02.49-.08,0,0,0-.02-.01-.03h0c-.07-.19-.15-.44-.13-.59,0-.02,0-.04.01-.05v-.03s.73-1.54.73-1.54c-1.68-.4-2.96-.94-3.83-1.58-.38-.28-.66-.57-.85-.87v-.02s-.04-.05-.04-.05c0,0,0,0,0,0m12.45,4.63s.09.23.39.23c.06,0,.12,0,.19-.02.53-.11,1.84-.48,3.03-1.11.33-.17.63-.36.9-.55l.41-.33c.2-.18.38-.37.52-.56.06-.08.11-.15.15-.22.1-.18.15-.34.15-.47,0-.1-.03-.19-.1-.24,0,0-.07-.07-.19-.18,0,0-.02.02-.03.03-.02.02-.1.1-.19.19h0s-.04.04-.06.04c-.01,0-.03,0-.04-.01-.01-.01-.02-.03-.02-.05l-.22-.09-.2.21.06.16s.02.04.03.05c0,0,0,0,0,0l.02-.02s.02-.02.05-.02c.02,0,.03,0,.04.02.01.01.02.03.02.04,0,.02,0,.04-.02.05-.01.01-.03.03-.05.05-.02.02-.04.04-.05.05,0,0,0,0-.01.01,0,0-.01.01-.02.02-.01.01-.03.03-.05.05l-.03.04c-.06.05-.09.07-.14.08-.02,0-.04,0-.06,0-.06,0-.14-.02-.24-.04-.05-.01-.1-.03-.14-.04-.02,0-.04-.01-.06-.02l-.07.05c.05.07.12.15.16.19.01.01.02.02.02.02,0,0,0,0,0,0,.02-.01.04-.03.05-.03.03-.02.07-.02.09.01,0,0,.03.05-.02.09-.05.04-.12.09-.15.12l-.02.02s-.02.02-.03.03c-.03.03-.07.06-.1.08-.03.03-.07.02-.09,0-.01-.01-.01-.03-.01-.04,0-.02.01-.03.03-.05,0,0,.02-.02.03-.02h0s0-.01-.01-.03c-.03-.05-.09-.13-.16-.22l-.16-.2c-.11-.14-.13-.16-.16-.19,0-.01-.01-.01-.01-.01,0,0,0,0-.03,0,0,0-.01,0-.03.02,0,0,.01.02.02.03.02.03.03.05.04.07h0c.02.06,0,.08-.02.09,0,0-.02,0-.03,0-.03,0-.05-.02-.06-.04h0s0-.01-.02-.01c-.01,0-.05,0-.1.04l-.11.07.25.41c.05.08.11.18.15.23.01.01.02.02.02.02,0,0,0,0,.01,0,.01,0,.04-.02.06-.03.03-.02.07-.01.09.02,0,.01,0,.03,0,.04,0,.02-.02.03-.04.05-.05.03-.1.06-.14.08-.02.01-.04.02-.06.03-.01,0-.04.02-.07.04-.03.02-.06.04-.09.06-.04.02-.08.02-.09-.01,0-.01-.01-.03,0-.05,0-.01.01-.03.04-.04.02-.01.03-.02.03-.02h0s0-.01-.01-.03c-.02-.04-.07-.12-.12-.21l-.27-.43-.14.09c-.07.04-.07.06-.07.07,0,.02,0,.03,0,.04.01.05-.02.07-.03.08,0,0-.02,0-.03,0-.02,0-.03,0-.04-.01.02.05-.01.08-.02.08h0s-.02,0-.02,0c-.01,0-.04,0-.06-.04,0,0-.02-.03-.05-.04-.04-.02-.08-.01-.13.01-.06.03-.11.09-.09.15.01.03.03.06.17.06h.07c.21,0,.33.07.4.2.05.11.05.21-.02.32-.05.09-.14.14-.2.17-.09.05-.17.07-.24.08,0,0,0,0-.01,0-.05,0-.07-.04-.07-.05-.03-.05-.05-.12-.07-.15h0c-.02-.07,0-.1.02-.11,0,0,.02,0,.03,0,.02,0,.04,0,.06.04,0,.01.02.03.03.04.02.03.05.04.09.04s.08-.01.11-.03c.04-.02.07-.05.09-.09,0-.03,0-.06,0-.08-.01-.03-.03-.07-.17-.08h-.09c-.19-.01-.3-.07-.37-.2-.08-.16.01-.35.22-.45.08-.04.16-.07.2-.07.03,0,.06,0,.08.03h0s0-.02,0-.02c-.01-.04,0-.06.02-.08.02-.01.03-.01.04-.01,0,0,.02,0,.03,0,.04-.02.09-.05.12-.07l.48-.3s.06-.04.07-.05c0,0,.01-.01.02-.01,0,0,.01-.01.02-.02,0,0,.02,0,.03,0,0,0,0,0,.01,0,.04-.03.08-.07.12-.09.02-.01.03-.02.03-.03.02-.01.05-.04.08-.07.03-.03.07-.06.09-.07.07-.05.16-.12.27-.13,0,0,.01,0,.02,0,.07,0,.15.03.21.1.06.08.08.18.04.34.17.03.3.06.4.07.03,0,.05,0,.07,0,0-.02,0-.04-.02-.06l-.33-.83s-.03-.08,0-.12c.02-.02.03-.02.05-.02.02,0,.03,0,.05.01.04.01.2.07.38.14.17.06.35.13.45.17.05.02.08.03.11.03.02,0,.03,0,.03,0,.01,0,.02-.02.03-.03,0,0,0,0,0,0-.34-.33-.9-.87-1.13-1.09,0,0,0,0,0,0,0,0,0,0,0,0l-.05.08c-.19.3-.47.59-.85.87-.89.66-2.22,1.2-3.96,1.61l.64,1.37s.01.03.03.06l-.19-.69c-.02-.06,0-.1.04-.11,0,0,.01,0,.02,0,.03,0,.05.01.08.03h0s.28.15.53.28c.06.03.14.07.22.11.02.01.05.02.07.04l-.14-.45c-.02-.06-.03-.06-.04-.06,0,0-.03,0-.06.01,0,0-.02,0-.03,0-.03,0-.05-.02-.06-.04,0-.01,0-.03,0-.04.01-.03.04-.03.06-.04.04-.01.07-.02.11-.03.03,0,.05-.01.07-.02.02,0,.07-.02.13-.04.01,0,.02,0,.03,0,.03,0,.05.01.06.04,0,.01,0,.03,0,.04,0,.02-.02.03-.05.04-.01,0-.02,0-.03.01,0,0-.01,0,0,.07l.21.79c.02.06-.01.09-.04.1-.04.01-.07,0-.1-.01-.12-.06-.36-.18-.5-.25-.12-.06-.23-.12-.31-.16l.13.4c.03.08.04.09.04.09.02,0,.04,0,.06,0,.04-.01.08,0,.08.04,0,.01,0,.03,0,.04,0,.02-.03.03-.05.04-.06.02-.11.03-.15.04-.01,0-.02,0-.03,0,0,0-.01,0-.02,0-.02,0-.05.02-.09.03-.01.12-.06.25-.09.36m3.63-3l.22.27s.03-.02.06-.04c.04-.03.04-.04.05-.05.01-.04.01-.1-.04-.17-.04-.05-.09-.08-.14-.08s-.09.03-.11.04c-.01.01-.03.02-.04.03m.91-.48l.08.19.11-.11-.19-.08Zm-12.78,3.05h0s.03.17.07.3c.02-.05.04-.12.07-.21.01-.03.02-.06.03-.07,0-.01,0-.02.01-.04-.01,0-.03,0-.04-.01,0,0,0,0-.02,0-.05,0-.1.02-.12.04m4.06.31h.23c1.21,0,2.41-.17,3.38-.48.05-.02.1-.03.15-.05h.02s.05-.02.07-.03c.01,0,.03,0,.05-.01.02,0,.03,0,.05,0-.08-.17-.29-.62-.49-1.05-.06-.13-.12-.27-.18-.39l-.28-.61c-.06-.13-.21-.21-.38-.21h-.12s0,.02-.01.02h0c-.67.18-1.46.27-2.28.27h-.19s-.19,0-.19,0c-.82,0-1.61-.09-2.29-.27h-.01s-.12-.02-.12-.02c-.17,0-.32.09-.39.22,0,0-.11.23-.25.54l-.02.04s-.02.05-.04.08l-.28.6c-.15.33-.29.63-.36.78.04,0,.07,0,.1.01l.1.03s.07.02.11.04c0,0,.02,0,.03,0,.97.31,2.18.48,3.38.48h.23Zm4.02-.33l.04.1s0-.06,0-.08h0s-.02-.02-.05-.02m-8.64.04s-.02,0-.03,0l-.13-.04c-.08-.03-.12-.05-.16-.09-.05-.06-.08-.14-.13-.29-.01-.04-.03-.09-.04-.13-.01-.04-.02-.08-.03-.1l-.08-.03-.02.06c-.03.1-.06.19-.07.23,0,.04,0,.04,0,.05.02.01.05.02.06.03.02,0,.03.02.04.03,0,.01,0,.03,0,.04,0,.02-.03.04-.06.04,0,0-.02,0-.03,0-.06-.02-.14-.05-.18-.06h-.02s-.02-.01-.04-.02c-.04-.01-.09-.02-.12-.04,0,0-.04-.01-.05-.04,0-.01,0-.03,0-.05.01-.03.04-.05.08-.03.01,0,.03,0,.04,0,0,0,.02-.03.02-.04.02-.05.05-.15.09-.26l.09-.29c.07-.22.08-.26.1-.3,0-.04,0-.04-.01-.05,0,0-.02-.01-.04-.02-.06-.02-.05-.06-.05-.08,0-.03.03-.04.06-.04,0,0,.02,0,.03,0,.04.01.09.03.13.04.03,0,.05.02.06.02.02,0,.06.02.1.03.04.01.08.02.1.03.09.03.19.07.25.16.04.06.07.16.04.27-.04.12-.12.21-.27.28l.02.06c.05.15.1.28.14.37.04.09.08.12.1.13,0,0,.02.01.03.01h0s.02.01.03.03c.01.01.01.03,0,.05,0,.03-.03.04-.06.04m-.55-.85s.04.02.07.03c.03,0,.04.01.05.01,0,0,.01,0,.02,0,.03-.01.08-.05.12-.16.07-.21-.08-.27-.1-.27-.02,0-.03,0-.04-.01l-.13.41Zm5.05.5h0c-.05,0-.1,0-.14,0-.03,0-.06,0-.07,0h0s-.03,0-.04,0c-.04,0-.09,0-.12,0h0s-.05-.01-.05-.02c-.01-.01-.01-.03-.01-.04,0-.03.02-.06.07-.06h.01s.02,0,.02,0h0s0-.01,0-.04c0-.06.01-.16.01-.29v-.55s-.14,0-.14,0c-.08,0-.09.01-.09.02,0,.01-.01.03-.02.04-.01.05-.05.05-.06.05-.02,0-.03,0-.04-.02,0,0,0-.01-.01-.02,0,0-.02,0-.02,0h0s-.03,0-.04-.02c-.02-.02-.02-.04-.01-.05,0-.01,0-.03,0-.03,0-.02,0-.02-.05-.03-.01,0-.14-.02-.25-.04-.1-.01-.21-.03-.29-.04v.03c.02.08.04.19.06.3.21.03.52.07.54.07.02,0,.03,0,.03,0,0,0,0,0,0,0,0,0,.02-.02.04-.02h0s.02,0,.03.02c.01.01.02.03.02.05,0,0,0,.02,0,.03,0,.02,0,.04-.02.08,0,.03-.01.08-.02.09,0,.06-.05.07-.06.07h0s-.03,0-.04-.02c0-.01-.01-.03-.01-.04,0,0,0-.01,0-.02,0,0,0-.02,0-.03,0,0,0-.01-.03-.02-.02,0-.27-.04-.46-.07.02.12.05.24.06.31,0,0,0,.02,0,.03.01.03.03.04.04.05l.31.04s.04,0,.06,0c.03,0,.04,0,.05,0,.01,0,.03-.01.04-.07h0s.02-.06.06-.06h0s.05.02.05.09c0,.03-.02.13-.04.17-.01.03-.03.06-.08.06-.01,0-.02,0-.04,0-.07,0-.14-.02-.2-.02h-.06s-.06-.01-.1-.02c-.02,0-.05,0-.07,0-.06,0-.17-.02-.24-.03-.02,0-.08-.02-.07-.07,0-.02.02-.04.03-.05l-.04-.26-.27-.05-.1.16s-.02.05-.03.06c0,0,0,0,0,0h.02s.06.04.05.07c0,.03-.03.05-.06.05,0,0-.01,0-.02,0-.02,0-.05-.01-.08-.02-.02,0-.04-.01-.06-.01,0,0-.01,0-.02,0-.03,0-.08-.01-.13-.02-.03,0-.05-.02-.05-.04,0,0-.02,0-.03,0-.02,0-.04,0-.07-.01-.08-.02-.15-.05-.23-.08-.03,0-.05-.02-.08-.03-.03-.01-.06-.02-.09-.03-.01,0-.03,0-.05-.01h-.02s-.03-.01-.04-.02c-.02,0-.03,0-.05-.01-.02,0-.04-.02-.05-.04,0-.01,0-.03,0-.05.01-.03.04-.05.08-.04.02,0,.03,0,.03,0,0,0,0-.01.02-.03.02-.05.05-.13.08-.24l.11-.35c.05-.16.06-.19.07-.23t-.01-.04s-.01,0-.03-.01c-.02,0-.03-.02-.04-.03,0-.01,0-.03,0-.05,0-.02.03-.04.06-.04,0,0,.02,0,.03,0,.04.01.08.02.11.04.03,0,.05.02.06.02.01,0,.04.01.07.02.04.01.08.02.11.03.02,0,.04.01.05.03,0,.01,0,.03,0,.04-.01.03-.04.05-.09.04-.01,0-.03,0-.04,0,0,0,0,0,0,0,0,0,0,0-.02.03-.01.03-.02.07-.06.19l-.03.1-.07.24c-.03.11-.07.24-.07.26,0,0,.03.03.13.06.06.02.1.03.13.01.01,0,.03-.03.04-.05,0-.01.02-.05.06-.05h.02s.03.02.03.03c0,.02,0,.04,0,.07,0,.01-.03.07-.05.12h0s0,0,.01,0c0,0,.01,0,.02,0,.03,0,.05-.02.09-.08l.51-.83s.04-.07.09-.07h0s.22.04.41.07c.14.02.29.05.3.05h0s.03,0,.03,0h0s0,0,0,0c0,0,.02,0,.03,0h0s.03.01.04.03c0,0,.01,0,.02,0,.02,0,.03,0,.04,0,0,0,.02,0,.03,0,.04,0,.09,0,.13,0h.56s.05.01.07.01c.01,0,.02,0,.02,0,0,0,.02,0,.02,0h0s.02,0,.03.01c.01,0,.03-.01.05-.02.03,0,.08,0,.12,0,.02,0,.05,0,.06,0,.01,0,.04,0,.06,0,.04,0,.08,0,.11,0,0,0,0,0,0,0,.03,0,.05.01.06.03,0-.04.04-.05.05-.05h0s.02,0,.03,0c0,0,.02,0,.03,0h0s.07,0,.12,0l.54-.06s.06,0,.08-.01c0,0,.02,0,.02,0,0,0,.02,0,.02,0h0s.03,0,.04.01c0-.01.03-.02.06-.03.02,0,.05,0,.08-.01.04,0,.07-.01.09-.02.02,0,.05,0,.08-.02.03,0,.06-.01.09-.02,0,0,.02,0,.02,0,.04,0,.06.03.06.05,0,.01,0,.03,0,.05,0,.01-.02.02-.05.03,0,0-.02,0-.03,0,0,0-.01,0-.01,0,0,0,0,0,0,.03,0,.04.01.08.04.23l.06.31c.02.13.05.25.06.3,0,.02,0,.02,0,.02,0,0,0,0,0,0,.02,0,.05,0,.06,0,0,0,.02,0,.03,0,0,0,0,0,0,0,0,0,.01,0,.02,0,.03-.01.04-.04.05-.11l.12-.96s.01-.09.06-.1c0,0,.01,0,.02,0,.04,0,.06.03.08.05.02.03.1.15.2.29.12.18.27.39.34.49.07.1.1.1.11.1.02,0,.03,0,.04,0,0,0,0,0,.02,0,.03,0,.05.02.06.05,0,.02,0,.03,0,.04-.01.02-.04.03-.08.04h-.03c-.05.02-.13.04-.22.06h0s-.02,0-.03,0c-.03,0-.05-.02-.06-.04,0-.02,0-.04.01-.06l-.15-.22-.26.06-.02.18s0,.05,0,.07c0,0,0,0,0,0h.02s.01,0,.02,0c.03,0,.05.02.06.05,0,.02,0,.06-.05.08-.03,0-.05.01-.08.02-.02,0-.05,0-.07.01h-.01s-.08.03-.14.04c-.02,0-.03,0-.04,0-.05,0-.1.02-.14.02-.03,0-.05,0-.07.01-.01,0-.04,0-.07.01-.03,0-.07.02-.1.02,0,0-.01,0-.02,0-.03,0-.06-.02-.06-.05,0-.03.01-.07.06-.07.01,0,.02,0,.03,0h0s0-.01,0-.03c0-.06-.03-.18-.05-.3l-.07-.38c-.02-.11-.03-.14-.03-.17,0-.03-.01-.03-.02-.03,0,0-.02,0-.03,0-.02,0-.03,0-.04,0,0,0,0,.01,0,.02,0,.04,0,.09.01.12h0c0,.07-.04.08-.05.08h0s-.05-.02-.06-.06h0s-.05-.05-.12-.04h-.12s.06.54.06.54c.01.12.03.24.04.3,0,.02,0,.03.01.03,0,0,0,0,0,0,.02,0,.04,0,.06,0h0s.06.02.07.05c0,.03-.01.06-.06.07-.05,0-.1.01-.14.01-.03,0-.06,0-.07,0-.01,0-.04,0-.07.01-.04,0-.08.01-.1.02,0,0,0,0-.01,0-.04,0-.06-.03-.07-.05h0s.02-.06.06-.07c.02,0,.03,0,.03,0,0,0,0,0,0-.04,0-.06-.01-.17-.03-.3l-.06-.53-.15.02c-.08.01-.08.02-.09.03,0,.02-.01.03-.01.04,0,.05-.05.06-.06.06-.01,0-.06,0-.06-.06,0-.02,0-.08,0-.13-.01.01-.03.02-.05.02,0,0-.02,0-.03,0,0,0,0,0,0,0,0,0,0,0,0,.03,0,.05,0,.09.01.3v.25c.02.12.02.25.03.31,0,.02,0,.02,0,.02,0,0,0,0,0,0,.01,0,.04,0,.06,0h0s.06.02.06.05h0s-.02.07-.07.07c-.06,0-.11,0-.16,0-.03,0-.05,0-.06,0-.01,0-.04,0-.06,0-.04,0-.08,0-.11,0h0s-.07-.03-.07-.05h0s.02-.06.06-.07c.02,0,.03,0,.04,0,0,0,0,0,0-.03,0-.06,0-.17,0-.31v-.31c-.02-.17-.02-.21-.03-.25,0-.03,0-.03-.02-.03,0,0-.02,0-.03,0h0s-.02,0-.02,0c0,.02,0,.04,0,.06,0,.03,0,.06,0,.07,0,.07-.05.07-.06.07-.03,0-.06-.01-.06-.07h0s-.04-.06-.11-.06h-.12s-.01.53-.01.53c0,.1,0,.24,0,.3,0,.03,0,.03,0,.03,0,0,0,0,0,0,.01,0,.04,0,.06,0,.04,0,.07.03.07.06,0,.03-.02.06-.07.06m.39-.1v.03h0v-.03s0,0,0,0m.79-.05v.03s0-.03,0-.03h0Zm-2.88-.54l.14.03-.03-.22-.11.19Zm4.4-.38l-.02.22.14-.04-.12-.18Zm3.04,1.04h0c-.26,0-.43-.19-.49-.36-.1-.25-.04-.58.31-.72.08-.03.16-.05.23-.05.21,0,.38.12.47.34.12.32,0,.62-.3.74-.07.03-.15.04-.22.04m-.06-.94s-.06,0-.1.02c-.04.02-.1.05-.13.12-.03.08-.02.18.03.31.07.19.21.3.35.3.03,0,.07,0,.11-.02.03-.01.08-.04.11-.11.03-.08.02-.19-.03-.32-.07-.18-.2-.3-.34-.3m-11.67.77h0c-.08,0-.16-.02-.24-.05-.15-.06-.26-.17-.32-.3-.06-.15-.05-.34.02-.51.08-.19.28-.41.58-.41.08,0,.16.02.25.05.16.07.28.17.33.31.06.14.05.31-.03.48-.12.27-.35.43-.6.43m.09-1.11c-.13,0-.25.11-.34.31-.07.16-.09.33-.04.45.03.08.09.14.17.17.02,0,.05.02.09.02.13,0,.25-.11.34-.33.07-.16.08-.32.04-.43-.03-.08-.09-.13-.16-.16-.04-.01-.07-.02-.11-.02m-1.03.67h0c-.08,0-.15-.02-.23-.06,0,0-.02-.01-.04-.02-.02,0-.03-.02-.05-.03-.04-.02-.07-.04-.09-.05,0,0-.01,0-.02-.01-.01,0-.03-.02-.05-.02-.02,0-.03-.02-.05-.02-.02,0-.03-.01-.04-.02,0,0,0,0,0,0-.02,0-.04-.01-.08-.04-.05-.03-.14-.09-.23-.15h0s-.07-.05-.04-.1c.01-.02.03-.03.05-.03l.07-.29-.23-.15-.17.13s-.05.05-.06.05t0,0s0,0,0,0h.02s.03.03.03.05c0,.01,0,.03,0,.04-.02.03-.04.03-.05.03-.02,0-.03,0-.04-.01-.02-.01-.04-.03-.06-.04-.02-.02-.04-.03-.06-.04,0,0-.02-.01-.04-.02-.03-.02-.07-.04-.11-.07-.01,0-.03-.02-.04-.05,0-.01,0-.02,0-.03,0,0-.02,0-.03,0-.04,0-.06-.02-.1-.06-.06-.05-.1-.09-.14-.13-.02-.02-.04-.04-.06-.05-.05-.05-.09-.09-.14-.14-.01-.01-.04-.03-.07-.06-.01-.01-.03-.03-.04-.04-.01-.01-.03-.02-.04-.03-.05-.05-.03-.09-.02-.1,0-.01.02-.02.04-.02.02,0,.04.01.05.02.02.02.03.02.04.03,0,0,.01,0,.04-.03.04-.04.12-.11.2-.2l.2-.22c.15-.16.18-.2.21-.23.03-.03.02-.03,0-.05,0,0-.02-.02-.03-.03-.05-.05-.02-.08-.01-.09,0-.01.02-.02.04-.02.02,0,.04.02.06.03.03.03.06.06.09.09.03.03.05.05.06.06,0,0,.02.02.04.04.04.03.09.08.12.11.05.05.03.08.02.1-.01.01-.03.02-.04.02-.02,0-.04-.01-.05-.03-.02-.01-.03-.03-.04-.03,0,0-.01,0-.01,0,0,0,0,0-.03.02-.03.03-.07.07-.22.23l-.19.2c-.09.1-.18.19-.18.22,0,.02.02.05.1.13.06.05.09.08.13.08.02,0,.05-.01.07-.03.01,0,.03-.02.05-.02.02,0,.03,0,.04.02.02.02.03.05,0,.09,0,0-.07.06-.11.1.02,0,.03,0,.03.01h.01s.02.02.02.02c.01,0,.02,0,.03,0,.03,0,.06-.02.1-.05l.82-.6s.06-.04.08-.04c.01,0,.02,0,.03,0,.04.03.03.08.03.11,0,.04-.04.19-.08.35-.05.22-.11.48-.14.62-.03.13,0,.16,0,.17.01.01.02.02.03.03.01,0,.03,0,.04.01.01,0,.02.01.04.01,0,0,0,0,.03-.04.04-.05.1-.17.15-.28l.12-.24c.11-.21.13-.24.15-.28.02-.04.01-.04,0-.05,0,0-.02-.02-.04-.02-.06-.03-.04-.07-.04-.09,0-.02.03-.03.05-.03.01,0,.03,0,.05.01.03.02.07.04.1.06.03.02.06.03.07.04.04.02.07.04.1.05.02.01.04.02.06.03.11.06.18.13.21.21.03.09,0,.16-.02.19-.05.1-.13.15-.21.17.08.11.12.26.04.41-.06.12-.19.2-.32.2m-.02-.63l-.15.29c-.04.08-.04.09-.03.1.02.03.05.04.07.05.01,0,.03.02.06.02.05,0,.09-.03.12-.09.02-.05.08-.17.02-.29-.01-.02-.03-.04-.07-.07,0,0-.01,0-.02-.01m.07-.14s.02,0,.03.02c.04.02.05.02.07.02.04,0,.07-.04.1-.09.03-.05.04-.12.02-.16,0-.03-.03-.05-.05-.07h0s0,0,0,0l-.15.29Zm-.95-.35l.13.08.06-.23-.19.14Zm16.02-2.32s-.09.02-.13.05c-.1.08-.19.32-.25.67.25-.22.39-.41.46-.53l.02-.03s0-.01.01-.02c.02-.07-.03-.11-.06-.12-.01,0-.03,0-.04-.01,0,0-.02,0-.02,0m-16.15.13l.03.06c.08.12.22.31.46.53-.06-.34-.14-.59-.25-.67-.05-.04-.1-.06-.16-.05-.01,0-.03,0-.04.01-.02,0-.07.04-.06.09h0s0,.02,0,.03m13.41.43c-.31,0-.95-.52-1.51-1.23-1.15.73-2.47,1.11-3.84,1.11-1.44,0-2.82-.42-4-1.22h-.01c-.54.76-1.18,1.27-1.46,1.32-.06.01-.12,0-.16-.03-.23-.17.11-1.15.68-1.95l.05-.07c-.05-.05-.11-.1-.16-.16-1.35-1.35-2.1-3.15-2.1-5.07v-8.67l-.72-.79-.23.13-.09.04c-.07.04-.15.04-.23.01-.09-.03-.17-.1-.22-.18-.07-.13-.05-.32.07-.42l-.37-.39c-.08.04-.18.1-.18.1-.07.03-.15.04-.23.01-.1-.03-.18-.1-.22-.18-.04-.08-.05-.19-.02-.28.01-.03.03-.07.05-.09-.11-.03-.21-.07-.3-.13-.32-.22-.51-.64-.57-1.25,0-.05.03-.11.08-.12.03-.01.07,0,.1.02,0-.06-.01-.12-.01-.19,0-.31.09-.64.27-.97.02-.04.07-.07.12-.06.05,0,.09.05.1.1,0,.02,0,.05.01.07.03-.12.08-.24.15-.36.1-.18.15-.43.15-.75,0-.37-.07-.69-.07-.69,0,0,0-.02,0-.03,0-.04.02-.08.05-.1.04-.03.09-.03.13,0,.03.02.63.44.99,1.11.03-.13.06-.28.11-.44.01-.05.06-.08.11-.08s.1.03.11.08c.14.47.23.71.39.92.28.37.45.65.44.93.02,0,.05-.01.07-.02.09-.01.19.02.27.08.07.06.12.15.14.25,0,.01,0,.03,0,.04,0,.07-.02.13-.06.18l-.13.16.31.43s.11-.06.18-.07c.1,0,.19.03.26.09.18.17.15.36.07.46l-.05.07s-.09.12-.17.21l.58.78h12.04c.2-.29.51-.8.49-1.18,0-.03,0-.07.03-.09.02-.02.05-.04.08-.04.02,0,.48,0,.8-.2-.21-.15-.77-.55-.77-.55l-.18-.13c-.05-.04-.12-.05-.18-.04-.06.01-.12.05-.16.1-.08.1-.05.25.06.34.05.04.13.07.19.07.02,0,.04,0,.06,0,.05-.02.11,0,.14.05.03.05.02.11-.02.15-.14.13-.33.2-.52.2-.17,0-.33-.05-.46-.15-.21-.15-.33-.39-.33-.65,0-.17.05-.33.15-.46.03-.04.06-.08.1-.12-.05-.03-.09-.06-.09-.06-.3-.21-.59-.54-.59-.8,0-.06.02-.12.05-.17.06-.08.16-.12.29-.12.22,0,.53.12.8.32l.08.07c.02-.05.05-.1.08-.14.15-.21.39-.33.65-.33.17,0,.33.05.46.15.21.15.33.39.33.65,0,.09-.02.18-.05.27h0c-.02.07-.09.1-.15.08-.06-.02-.09-.08-.08-.14.03-.1-.01-.2-.09-.26-.05-.04-.12-.05-.18-.04-.06.01-.12.04-.16.1-.03.04-.04.09-.04.13,0,.08.04.15.1.21,0,0,.77.56.98.7.15-.2.72-1,.72-1,0-.01.04-.06.04-.13,0,0,0-.02,0-.03-.01-.08-.07-.15-.16-.22-.06-.05-.12-.06-.18-.05-.08.02-.15.09-.22.21-.02.04-.06.06-.1.06-.04,0-.08-.02-.1-.06,0-.01-.17-.33.09-.7.16-.23.43-.28.63-.28.1,0,.18.01.19.02,0,0,.06,0,.16,0,.21,0,.62-.04,1.01-.29.04-.03.09-.02.13,0,.04.03.06.08.05.12-.16.65.11,1.19.11,1.19.03.05.27.52.02.87-.21.28-.47.31-.58.31-.03,0-.06,0-.06,0-.04,0-.08-.04-.09-.08-.01-.04,0-.08.02-.12.09-.1.13-.2.13-.27,0-.06-.04-.11-.1-.16-.08-.06-.15-.08-.22-.08-.11,0-.18.08-.19.09l-.72,1c.2.14.98.7.98.7.04.03.1.04.15.04.08,0,.15-.04.19-.1.04-.05.05-.12.04-.18-.01-.06-.04-.12-.1-.16-.08-.06-.19-.06-.27,0-.05.03-.12.02-.16-.03-.02-.02-.02-.04-.02-.07,0-.03.02-.07.04-.09,0,0,0,0,0,0,.14-.11.31-.17.49-.17.17,0,.33.05.46.15.17.12.29.31.32.52,0,.04.01.09.01.13,0,.17-.05.32-.15.46-.03.04-.06.08-.1.11l.09.05c.3.21.59.54.59.8,0,.06-.02.12-.05.17-.04.06-.12.1-.2.12-.22.04-.57-.09-.89-.32,0,0-.04-.03-.08-.07-.02.05-.05.1-.08.14-.15.21-.39.33-.65.33-.17,0-.33-.05-.46-.15-.3-.21-.41-.6-.27-.94.02-.05.08-.08.13-.07.06.01.09.06.09.12,0,.07.06.16.14.21.05.03.1.05.15.05.08,0,.15-.04.19-.1.03-.04.04-.09.04-.14,0-.08-.04-.15-.1-.2,0,0-.71-.51-.94-.68-.02.08-.03.17-.03.25,0,.3.1.57.1.57,0,.01,0,.03,0,.04,0,.02,0,.04-.01.05-.02.03-.04.05-.07.06-.45.12-.92.78-1.06.98h0s-.03.06-.04.07l-.04.06v8.95c0,1.92-.75,3.72-2.1,5.07-.08.08-.16.15-.23.22.51.78.88,1.77.63,1.96-.03.02-.07.04-.12.04m-10.07-1.9s-.03.04-.03.04c-.51.7-.72,1.39-.72,1.61.17-.06.75-.47,1.28-1.21h0c-.19-.15-.37-.29-.54-.44m8.78.53c.55.69,1.09,1.07,1.25,1.11h0c0-.18-.16-.82-.65-1.58-.2.17-.4.32-.6.46m-10.85-15.52v9.61c0,1.01.21,1.97.63,2.87.12.24.25.49.39.71.27.44.6.85.97,1.22,1.28,1.28,2.99,1.99,4.81,1.99s3.52-.71,4.8-1.99c1.28-1.28,1.99-2.99,1.99-4.8v-9.61h-13.6Zm9.67,15.73l-.11-.08c-.06-.05-.32-.23-.41-.29-.08.06-.34.25-.4.29l-.11.08.04-.13c.02-.07.12-.37.15-.47-.08-.06-.35-.25-.41-.3l-.12-.08h.14c.08,0,.4,0,.51,0,.03-.1.13-.41.16-.48l.04-.14.2.62c.1,0,.42,0,.5,0h.14l-.11.08c-.06.05-.32.23-.4.29.03.1.13.4.15.48l.04.13Zm-4.71,0l-.11-.08c-.06-.05-.32-.23-.41-.29-.08.06-.34.25-.4.29l-.12.08.04-.13c.02-.07.12-.37.15-.47-.09-.06-.35-.25-.41-.3l-.12-.08h.14c.08,0,.4,0,.51,0l.2-.62.04.14c.02.07.12.38.16.48.1,0,.42,0,.5,0h.14l-.11.08c-.06.05-.32.23-.4.29.03.1.13.4.15.48l.04.13Zm1.84-1.12c-2.76,0-5.02-2.25-5.02-5.01v-7.82h10.04v7.82c0,2.76-2.25,5.01-5.02,5.01m-4.64-12.46v7.45c0,2.56,2.08,4.64,4.64,4.64s4.64-2.08,4.64-4.64v-4.28l-.06.03c-.26.12-.32.28-.4.47-.04.11-.09.22-.16.33-.11.16-.3.27-.51.3-.17.02-.35,0-.5-.09-.06.09-.09.18-.09.27,0,.29.08.47.32.68.02-.08.05-.16.09-.21l.23-.33.05.4c.02.15.04.17.13.21.05.03.13.07.2.14.11.1.16.23.16.36,0,.09-.02.18-.07.26.08.16.11.32.11.5,0,.27-.1.5-.28.66-.22.19-.52.24-.74.25,0,.04,0,.08-.01.12.07,0,.13-.02.15-.03l.27-.12-.06.29c-.02.11-.08.21-.18.28.01.02.02.04.02.07,0,.06-.04.12-.06.15-.06.09-.21.25-.48.25-.08,0-.16-.01-.25-.04-.01.02-.02.03-.03.05-.01.03-.01.04-.01.05,0,0,0,.02,0,.02.02.04.11.08.16.09h.02s0,0,0,0c.05.02.11.03.18.03.18.02.32.05.4.15.04.05.06.11.06.19,0,.05,0,.1-.02.16h0s0,.02,0,.03c.13-.01.29-.11.29-.11l.07-.04v.09s-.02.43-.28.55v.04c-.02.14-.09.24-.21.31,0,.01,0,.02,0,.02-.02.12-.09.2-.22.25-.02.03-.04.07-.04.07-.12.22-.3.34-.56.34-.09,0-.17-.01-.23-.02h-.02s-.05-.01-.07-.01c-.11,0-.2.03-.24.09-.02.03-.03.05-.03.07.07.07.12.17.12.27,0,.02,0,.03,0,.05,0,.09-.05.16-.1.22h0c0,.09-.03.16-.07.2-.08.07-.19.11-.31.11-.1,0-.17-.02-.17-.02l-.07-.02.05-.05s.08-.08.09-.17c-.06-.04-.1-.09-.13-.14-.05.02-.11.02-.16.01-.02,0-.03,0-.05-.01-.02.05-.04.12-.05.17v.06s-.07-.03-.07-.03c-.01,0-.24-.15-.26-.36h0c0-.06.01-.14.1-.23,0,0,0-.01,0-.02,0-.04.02-.07.03-.11-.06-.04-.1-.09-.13-.15-.04.02-.08.06-.11.09l-.05.05-.03-.07s-.11-.31.07-.51c.06-.07.16-.09.28-.07.07-.04.15-.05.23-.04.16.02.25.15.29.22.01,0,.04,0,.08.02h0s.05,0,.13-.06c.24-.18.52-.65.56-.93,0,0,0-.01,0-.02,0-.08-.1-.13-.4-.23l-.12-.03c-.07-.02-.13-.04-.2-.07,0,.01,0,.03,0,.04,0,.16-.09.28-.13.34v.19l-.03-.15-.06.06v-.09c-.02-.05-.06-.21-.14-.26-.03-.02-.07-.03-.07-.03-.01,0-.06-.01-.11-.04-.02,0-.04-.02-.06-.03-.06.11-.13.19-.23.24l-.04.07c-.08.14-.18.22-.32.26-.01.02-.02.04-.02.04-.04.07-.1.12-.16.15-.07.05-.18.12-.18.12-.12.08-.25.12-.39.12-.09,0-.18-.02-.26-.03-.08-.01-.14-.03-.2-.02-.2.01-.4.09-.49.16.02.04.04.09.05.16h0s0,.03,0,.04c0,.08-.03.17-.09.23-.06.08-.15.13-.24.14.01.04.04.09.06.11l.05.06h-.07s-.03.02-.07.02c-.1,0-.28-.03-.38-.23-.02-.04-.02-.07-.02-.11,0-.03,0-.06.02-.1,0-.01,0-.02,0-.03-.06,0-.13,0-.18-.03-.01.02-.02.07-.03.15h0s0,.05,0,.05h-.05s-.22-.08-.26-.34c0-.01,0-.02,0-.03,0-.08.04-.16.12-.23,0-.03.01-.06.02-.08l-.03-.03s-.12-.11-.13-.32c0-.04,0-.07.01-.09.02-.11.12-.19.25-.22.07-.07.15-.11.24-.12.2-.02.38.12.41.3,0,0,.03.02.09.02.03,0,.07,0,.12-.02.09-.02.21-.07.32-.14.39-.22.58-.49.61-.52.03-.05.04-.08.04-.11,0-.04-.04-.09-.11-.18-.11-.14-.26-.32-.38-.65,0-.02-.01-.04-.02-.06-.15.11-.31.12-.34.12h-.09l.04-.07s.16-.25.05-.43c-.08-.12-.09-.27-.03-.41.05-.1.16-.22.44-.22.02,0,.03,0,.05,0,.24-.28.59-.36.7-.37.2-.03.43-.12.57-.17-.25-.15-.46-.33-.61-.52-.07.01-.14.02-.21.03.02.03.06.07.12.12l.19.17-.24.09s-.11.03-.17.03c-.09,0-.22-.02-.34-.13-.02,0-.03.01-.03.01-.04.01-.09.02-.14.02-.1,0-.27-.03-.39-.22l-.07-.11q-.04-.07-.07-.08c-.2-.04-.36-.09-.44-.11l-.19-.06c-.11-.04-.22-.06-.32-.06-.02,0-.03,0-.04,0,0,.06-.01.11-.04.16-.04.09-.12.16-.22.19-.09.03-.19.03-.27,0,0,.03,0,.06.01.12v.07s-.05-.01-.05-.01c-.1-.02-.31-.13-.32-.38,0-.03,0-.05,0-.07.01-.07.05-.13.11-.18,0-.01,0-.02,0-.03,0,0,0,0,0,0-.06-.03-.11-.07-.14-.12-.03.02-.08.06-.11.13l-.04.07-.04-.07c-.03-.05-.08-.14-.08-.28,0-.08.02-.13.04-.16.02-.05.06-.09.11-.11h-.7c-.05,0-.1-.05-.1-.1v-2.17s.01-.06.04-.08c.02-.02.31-.24.33-.25h0s.02-.01.03-.02c.14-.06.29-.11.43-.15h.01c.01-.19.17-.34.36-.34.09,0,.16.02.22.07.07-.09.18-.14.3-.14.11,0,.21.04.28.11.07-.05.16-.08.26-.08.21,0,.39.17.39.38,0,.01,0,.03,0,.04l.2.06h.02s.31.23.31.23c.03.02.04.05.04.08v.56s.02.02.03.03c.07-.18.24-.49.67-.49.07,0,.14,0,.21.02-.02-.06-.02-.12-.02-.18,0-.03,0-.05,0-.08-.08,0-.15-.02-.21-.05-.16-.07-.25-.21-.28-.38-.06-.39.28-.66.3-.67l.07-.06v.1s0,.32.14.45c-.03-.06-.05-.12-.05-.18,0-.01,0-.02,0-.04,0-.06.01-.11.03-.16-.03-.05-.04-.1-.04-.15,0-.06.02-.12.05-.16.09-.12.35-.16.82-.12.13-.05.34-.05.65,0,.09-.14.22-.22.38-.22h0c.06,0,.12.01.18.04.06,0,.12-.01.12-.01.18-.02.2-.02.38-.11.25-.14.36-.35.36-.35l.04-.08.04.09s.06.14.07.32c0,.11-.02.22-.07.34.12-.04.3-.12.37-.15l.07-.03v.07s0,.24-.17.49c.37.3.41.65.41.66v.09s.03,0,.03,0l-.04.07s-.2.36-.58.36c.1.24.35.38.35.38l.08.04-.08.04s-.18.1-.35.1c0,.05.01.09,0,.13,0,.43-.29.67-.3.68l-.06.05v-.08c-.02-.06-.03-.1-.03-.13v.02s-.02.04-.02.06c0,.16.18.28.25.33.04-.07.09-.15.15-.22-.03-.07-.06-.17-.06-.26,0-.07.01-.14.04-.21.07-.19.22-.36.44-.45.39-.18.39-.38.39-.38v-.1s.08.07.08.07c0,0,.04.03.07.09.2-.28.52-.32.7-.32.07,0,.12,0,.12,0l.1.02-.08.07s-.34.29-.35.53c0,0,0,0,0,.01h0c0,.07,0,.13,0,.19,0,.04,0,.07,0,.11.08-.03.17-.05.26-.05.12,0,.23.03.3.09l.05.04v-3.16h-9.29Zm5.99,10.69s.04,0,.06.01h0s.05.06.05.09c0,.03,0,.07-.03.09h0c-.05.04-.08.08-.09.13-.01.08.04.16.12.19h.02s0,.02,0,.02c.02.03.04.11.01.19.03,0,.05-.02.07-.04.02-.03.02-.07.01-.12v-.04s.03-.02.03-.02c.05-.02.08-.07.09-.13.01-.09-.03-.15-.07-.17-.05-.03-.05-.12-.03-.19.02-.07.1-.29.46-.3h0s.07,0,.12.01c.06,0,.13.02.19.02.13,0,.23-.04.31-.12-.02,0-.04,0-.06,0-.06,0-.1-.01-.11-.01h-.04s0-.05,0-.05c.02-.14.16-.16.28-.18.08-.01.14-.02.18-.05-.03,0-.06,0-.08,0-.1,0-.16-.02-.19-.05l-.02-.02v-.02c.01-.08.11-.09.2-.1.14-.01.25-.03.3-.13-.02,0-.04,0-.06,0-.06,0-.1-.02-.1-.03l-.02-.02v-.03c.02-.13.13-.16.23-.18.1-.02.19-.05.23-.16-.08.02-.16.04-.22.04-.09,0-.11-.04-.12-.07h0s0,0,0,0c0-.07.02-.14.03-.19.02-.1.03-.16,0-.2-.03-.04-.11-.06-.26-.08-.08,0-.16-.02-.22-.04h-.05s0-.02,0-.02c-.07-.02-.19-.08-.24-.19-.04-.07-.03-.15,0-.24.03-.06.07-.12.14-.18l.02-.02h.03c.1.06.19.08.28.08.16,0,.25-.08.3-.14-.01,0-.02,0-.03,0-.16,0-.27-.05-.32-.09l-.09-.06.11-.02s.03,0,.05,0c.14,0,.37-.04.46-.19-.04.01-.1.02-.16.02-.07,0-.13-.01-.18-.04l-.04-.02v-.04c.05-.11.07-.24.06-.38v-.05s.05,0,.05,0c.04,0,.07,0,.11,0,.19,0,.45-.03.64-.2.14-.12.21-.3.21-.51,0-.17-.04-.33-.13-.48v-.03s0-.02,0-.02c.04-.06.17-.26-.02-.44-.05-.05-.11-.08-.16-.11-.09-.05-.16-.09-.21-.22-.02.07-.01.15.07.22.15.13.14.22.11.26l-.03.05-.04-.04c-.11-.1-.23-.2-.34-.28-.36-.28-.49-.52-.49-.92,0-.18.07-.35.22-.52l.03-.03.03.03c.14.12.29.14.39.14.19,0,.37-.08.46-.22.06-.09.1-.19.14-.29.05-.13.11-.26.2-.36-.13.03-.28.11-.38.29h0s-.07.11-.18.17l-.4.2.35-.28c.25-.2.26-.59.24-.81-.02-.18.09-.34.18-.45-.31.11-.41.36-.49.63-.03.12-.2.22-.34.24h-.1s.06-.07.06-.07c.04-.06.09-.1.12-.12h0s.01-.02.02-.02c.05-.04.11-.09.12-.25-.06.06-.16.14-.33.21-.15.07-.27.19-.32.33-.05.14-.03.28.04.42l.02.03-.02.02c-.21.22-.3.44-.3.69,0,.54.23.84.58,1.11.3.23.63.49.63.91,0,.14-.04.24-.12.31-.11.09-.27.12-.39.13-.1,0-.21-.06-.24-.2-.02-.09-.09-.41-.34-.64-.07-.08-.14-.13-.2-.19-.18-.15-.32-.28-.51-.8h-.08s-.47.1-.73-.27c-.06.06-.13.12-.22.18,0,0,0,0,0,.04,0,.07.04.17.05.2l.12.25-.28-.03c-.31-.04-.44-.21-.5-.31-.02-.03-.03-.07-.04-.1-.18.18-.41.27-.65.25-.06,0-.12,0-.16.04-.02.02-.04.04-.06.08.1,0,.19-.02.27-.04h.03s.02.02.02.02c.13.21.42.51,1.01.73.89.34.89.63.81.88h0s-.08.24-.35.52c-.17.18-.33.45-.26.7v.04s-.02.02-.02.02c-.1.05-.17.11-.19.17,0,0,0,0,0,0,0,0,0,0,0,0-.02.07,0,.13.05.19.02.02.04.04.06.05.02.01.05.03.08.04.05.02.09.03.09.03,0,0,.07.02.14.06.01.01.03.02.04.03-.01-.05-.04-.11-.11-.14-.08-.04-.11-.08-.11-.13,0-.03.01-.08.08-.11l.03-.02.02.02c.07.06.16.12.28.17.08.04.17.07.26.1h0s.08.03.11.04c.27.08.58.18.54.47-.06.42-.57,1.21-.91,1.16-.12-.02-.18-.04-.21-.09-.05-.08-.09-.14-.16-.15-.05,0-.1,0-.14.04l-.02.02h-.02c-.08-.03-.14-.03-.17,0-.01.02-.02.03-.03.06.05-.02.1-.02.15-.01h.04s0,.05,0,.05c0,.09.06.18.15.19.06,0,.12-.01.16-.06h0s.04-.04.09-.04c.04,0,.07.02.09.05.02.03.02.08,0,.12-.02.04-.06.06-.12.06-.14-.01-.23.04-.25.14,0,.02,0,.04,0,.06v.03s-.02.02-.02.02c-.05.03-.08.06-.08.1,0,.02,0,.05.02.07.02-.05.06-.09.11-.11h.02s.02,0,.02,0c.02.02.05.03.08.03,0,0,.02,0,.02,0,.09,0,.16-.06.18-.15,0,0,0-.02,0-.03,0-.03,0-.07.02-.1.02-.03.05-.05.09-.05m-3.34-.87s.07.02.1.05c.03.03.03.08.02.12-.01.04-.04.07-.08.08-.08.02-.14.11-.13.19,0,.02.01.04.02.07l.02.02v.02s-.05.07-.03.12c0,.01.01.03.02.04,0-.05.02-.09.05-.12l.02-.02h.03s.05.02.07.01c.1-.01.17-.1.16-.19,0-.04-.02-.08-.06-.12-.03-.04-.02-.11.02-.16.1-.11.38-.24.66-.26.08,0,.17.01.25.03.07.01.15.03.22.03.06,0,.12,0,.17-.03-.05-.02-.09-.04-.11-.07-.02-.03-.01-.06-.01-.07h0s.01-.02.01-.02c.04-.03.08-.04.14-.04.03,0,.07,0,.1,0,.03,0,.06,0,.09,0,.04,0,.08,0,.1-.03-.06-.01-.09-.04-.11-.07-.02-.03-.01-.05,0-.07.02-.04.07-.04.09-.04.01,0,.03,0,.05,0,.08,0,.21.02.31-.1-.06,0-.1,0-.14,0-.06,0-.11,0-.13-.05v-.02s0-.02,0-.02c.05-.11.15-.12.25-.12.11,0,.23,0,.31-.14-.06,0-.11,0-.15.01-.08,0-.12,0-.16-.01l-.06-.03.05-.04c.2-.19.13-.27-.02-.43-.04-.04-.08-.09-.12-.14-.07-.11-.16-.28-.1-.57h0s.03-.07.03-.07l.02-.04.04.02c.07.04.13.06.19.06.05,0,.09-.01.11-.02-.05-.05-.08-.1-.08-.15,0-.06.03-.09.03-.1l.03-.03.03.03c.08.07.16.1.24.1.03,0,.06,0,.08-.02-.03-.03-.06-.08-.07-.14,0-.06.01-.12.06-.18.05-.07.14-.1.26-.1s.24.03.29.05c.03-.06.1-.21.03-.33-.09-.15-.28-.23-.41-.28-.02,0-.04-.02-.06-.02-.12-.05-.33-.15-.4-.18-.09.04-.45.21-.77.25-.1.01-.44.08-.62.36l-.02.02h-.03s-.08-.01-.12-.01c-.09,0-.21.02-.25.1-.04.08,0,.15.03.24.03.08.07.17.05.28.04-.04.07-.11.06-.2-.02-.09,0-.15.03-.2.03-.03.06-.05.11-.05h.06s0,.05,0,.05c-.03.16,0,.35.07.56.1.3.24.47.34.59.13.16.23.28.08.52-.01.01-.22.31-.65.57h0s-.02.02-.02.02c-.14.08-.26.13-.37.16-.06.01-.12.02-.17.02-.17,0-.27-.09-.28-.18-.01-.09-.1-.16-.2-.15-.06,0-.11.04-.14.09v.02s-.04,0-.04,0c-.06,0-.13.02-.14.07,0,0,0,.02,0,.03.04-.03.08-.04.12-.04h.04s0,.04,0,.04c.02.09.1.16.2.15t.05-.02s.03-.02.07-.02c.03,0,.06.01.08.03.06.05.06.13.02.18-.04.05-.08.05-.11.05h0s-.05-.01-.06-.02c-.02-.02-.04-.03-.11-.03-.1.01-.18.1-.17.19h0v.04h-.02c-.06.05-.1.09-.09.13,0,.01,0,.02,0,.03.03-.04.07-.08.12-.09h.02s.02,0,.02,0c.04.03.09.05.15.05.11-.01.16-.07.17-.18,0-.07.06-.12.13-.12m2.21-1.7s.03.03.11.12c.05.05.1.11.14.17v-.02c.04-.08.11-.15.2-.21,0-.01,0-.03,0-.04,0-.17.07-.37.19-.54-.03.02-.06.04-.09.05-.03.01-.08.02-.14.02-.03.02-.08.07-.08.07-.03.02-.13.1-.29.1-.03,0-.07,0-.11-.01,0,0,0,.02,0,.02,0,.12.04.21.08.27m.72-.89c-.05,0-.1.01-.11.03,0,0-.01.02-.01.03,0,.08.12.12.12.12l.05.02s0,0,0,0c.05-.05.1-.11.14-.16-.06-.01-.13-.03-.19-.03m1.04-2.57c.02.09.04.18.07.26.19.58.32.69.49.84.06.05.13.11.21.19.29.27.38.64.4.74,0,.02.01.03.04.03.12,0,.22-.04.27-.08.02-.01.06-.05.06-.16,0-.3-.22-.49-.56-.75-.31-.24-.64-.58-.66-1.2-.08.05-.18.11-.31.12m-3.31.83h.04s.16,0,.27.2c.06.11.16.17.27.17,0,0,.02,0,.02,0-.03-.03-.06-.07-.09-.1-.07-.03-.24-.14-.23-.47,0-.27.15-.47.29-.59-.05,0-.1,0-.15,0h0c-.25,0-.44.37-.45.37l-.04.07-.04-.07s-.04-.06-.06-.14v.03s0-.06,0-.06c0-.02-.01-.05-.02-.08-.26.04-.5.06-.72.04-.09,0-.23-.02-.34-.05-.15-.05-.25-.11-.3-.18,0,0,0-.01-.01-.02,0,0,0-.01,0-.01,0,0,0-.01,0-.02,0,0,0,0,0,0,0,0,0,0,0,0,0-.01,0-.02,0-.03h0s0-.01,0-.02h0s0-.02,0-.03h0c.02-.06.02-.11-.01-.16-.01-.03-.03-.05-.06-.06h0s-.01-.01-.02-.01c-.02,0-.04-.01-.06-.02-.02,0-.05,0-.08,0-.01,0-.03,0-.04.01h-.02s-.02,0-.02,0c-.06-.04-.13-.04-.16-.01,0,0-.01.01-.02.03,0,0,0,0,.01,0,.04,0,.09,0,.11.03l.04.02-.02.04s-.02.09,0,.14c0,0,0,.02.01.03h0s.01.02.02.03c0,0,.01.01.02.02,0,0,.01.01.02.01h0s0,.01.01.01c.03.01.03.01.04.01,0,0,0,0,.01,0h0s.1.02.12.09c.02.07-.02.14-.08.16-.02,0-.03.01-.05.01-.03,0-.05-.01-.07-.02-.03-.01-.03-.04-.04-.05,0-.02-.02-.05-.09-.08-.03-.01-.06-.02-.09-.02-.07,0-.13.04-.16.1l-.02.03h-.04c-.07,0-.12.02-.13.05,0,0,0,.02-.01.03.05-.02.11-.03.16-.02h.02s0,.03,0,.03c.02.05.05.09.1.12.1.05.18.02.25-.07.03-.03.06-.05.11-.05.07,0,.12.05.13.11,0,.04,0,.07-.03.1-.03.04-.08.05-.13.04-.01,0-.03,0-.04,0-.07,0-.15.04-.18.1-.01.02-.02.04-.02.07v.03s-.02.01-.02.01c-.03.02-.07.04-.08.09,0,.02,0,.03,0,.05.03-.04.07-.07.11-.08h.03s.02.01.02.01c.02.02.04.03.06.04.02.01.05.02.08.02.07,0,.14-.04.17-.1.02-.04.02-.08.02-.14,0-.05.04-.11.11-.12.11-.04.33-.01.52.05.02,0,.08.02.18.05.09.03.24.07.43.11.12.03.14.06.2.17.02.03.04.06.06.11.05.08.12.12.21.13-.09-.11-.07-.23-.07-.24v-.04Zm1.07-1.33v.16s.02.33-.2.44c-.16.07-.41.29-.37.62.06-.13.18-.26.41-.24.01,0,.03,0,.04,0h0c.33,0,.64-.3.7-.68l.04-.21.05.21s.06.24,0,.4c-.02.05-.03.14.03.23.05.09.15.16.27.19-.04-.12-.08-.33.06-.42.19-.13.32-.25.32-.47,0-.02,0-.02,0-.02h.09s0,.01,0,.02c0,.04,0,.17.04.25.04.11.15.21.26.27-.04-.08-.08-.19-.04-.32,0-.01.01-.03.03-.05.04-.05.11-.15.11-.29v-.31s.09.3.09.3c0,0,.07.23.3.23.02,0,.05,0,.07,0-.1-.05-.29-.2-.26-.49,0-.08,0-.17,0-.23l.09-.02s.06.17.24.18c-.08-.09-.15-.24-.09-.41.02-.06.04-.1.05-.14.04-.09.06-.15.05-.31v-.11s.08.07.08.07c0,0,.12.1.17.27.04-.11.07-.29,0-.5-.01-.03-.02-.09.01-.13l.03-.03.03.02s.1.04.15.04c-.09-.09-.23-.27-.25-.55v-.07s.06.03.06.03c.17.06.32.05.45-.03-.08-.01-.18-.05-.25-.13-.07-.08-.11-.18-.1-.31v-.03s.03-.01.03-.01c0,0,.12-.05.26-.05.03,0,.07,0,.1,0-.06-.09-.18-.23-.37-.33l-.06-.03.05-.04c.1-.09.16-.18.2-.24-.22.09-.38.12-.49.09l-.07-.02.04-.05c.09-.11.18-.26.19-.45-.06.05-.14.12-.22.16-.18.09-.24.1-.37.12.04.06.08.16.08.3,0,.25-.24.4-.4.4-.03,0-.06,0-.09-.02l-.15-.08h.17c.14-.02.26-.15.26-.32,0-.17-.12-.3-.27-.3h0c-.11,0-.21.09-.25.21v.04s-.05,0-.05,0c-.09-.02-.32-.06-.5-.06-.12,0-.16.02-.18.03h-.01s-.02,0-.02,0c0,0-.17-.02-.34-.02-.3,0-.34.04-.34.05-.02.03-.02.06,0,.08.03,0,.09,0,.13,0l.19.03-.18.06c-.1.04-.15.11-.14.22,0,.09.07.17.11.23.03-.06.1-.12.27-.16.06-.02.13-.02.19-.02.15,0,.28.05.36.13.07.07.1.17.1.28v.05c0-.15-.02-.28-.02-.29l-.04-.23.13.2c.25.39-.05.6-.05.6l-.15.1.08-.16c.03-.05.04-.11.05-.17h0c-.06.21-.3.29-.48.29,0,0-.02,0-.03,0-.01,0-.03,0-.04,0h-.04s-.02,0-.02,0c-.07-.01-.13-.04-.18-.07-.03-.02-.06-.04-.08-.07h0s-.01-.01-.01-.01c0,0,0,0-.01-.01-.03.02-.06.05-.08.1-.03.09-.03.2.02.34.04-.1.12-.2.26-.2.02,0,.05,0,.07,0,.1.02.2.06.29.09.1.03.2.06.28.08h.01s.03,0,.05,0c0,0,.01,0,.02,0h0s.01,0,.02,0c0,0,0,0,.01,0h.01c.14,0,.27-.05.37-.14l.24-.21-.18.27s-.2.28-.54.28c-.09,0-.18-.02-.27-.05-.02.12-.09.27-.26.27-.06,0-.13-.02-.2-.05l-.04-.02s-.09-.04-.13-.06v.02s-.02-.03-.02-.03c-.16-.07-.32-.14-.47-.14-.16,0-.29.07-.4.22.04,0,.09-.02.15-.02.12,0,.21.04.28.11.02.03.03.05.05.07,0,0,0,0,0,0h.01s-.01,0-.01,0c0,.02.02.03.03.06l.03.05-.05.02s-.04,0-.09,0c-.03,0-.06,0-.1,0-.06,0-.1,0-.13.01-.06.02-.11.05-.16.1v.03s-.03,0-.03,0c-.05.05-.08.1-.1.15.05-.02.12-.03.19-.03.05,0,.1,0,.14.02.04.01.08.02.13.03l.15.03-.15.06c-.33.13-.44.4-.48.55.23-.17.45-.22.64-.16l.1.03-.1.05s-.08.04-.12.05c-.27.07-.57.38-.6.66.09-.09.23-.2.42-.19.25,0,.47-.08.55-.22l.08-.13Zm1.88.5s0,.03,0,.04c.01.22.22.34.23.34l.05.03s-.02-.06-.03-.09c-.04-.12-.07-.24-.09-.36,0,0-.02,0-.03-.01-.03-.01-.05-.03-.07-.04-.02.03-.04.06-.05.08,0,0,0,0,0,0m-6.03-.2h.79s0-.09.02-.16c-.16,0-.37.03-.56.09-.03.01-.06,0-.09-.01-.03-.02-.04-.05-.04-.08v-1.95c-.06.04-.09.07-.12.09v2.02Zm6.37-.39c0,.1.07.17.19.22.07.03.11.04.15.05.01-.09.03-.18.07-.27-.06.02-.14.03-.23.03-.07,0-.13,0-.18-.03m-4.43,0c.18,0,.36.03.55.1v-2.01h-.02s-.06-.02-.09-.03h-.01c-.04.05-.09.1-.15.12,0,.01-.03.05-.07.14h0s0,.03-.02.04c-.02.02-.05.03-.09.03-.05,0-.07-.05-.08-.07-.05-.1-.07-.13-.08-.15t0,0h-.01s-.04-.02-.06-.03c-.04.04-.09.07-.14.09h0s-.04.04-.09.15c0,.02-.03.04-.06.06v.95s.03-.06.06-.08c-.02-.05-.03-.1-.03-.16,0-.27.2-.49.45-.49s.45.22.45.49c0,.05,0,.1-.03.16.04.01.07.05.07.1,0,.06-.05.11-.11.11h-.13s-.07-.02-.09-.06c-.02-.04-.02-.08,0-.11.05-.07.07-.14.07-.2,0-.15-.11-.28-.24-.28s-.24.12-.24.28c0,.06.02.12.07.2.02.03.02.07,0,.11-.02.04-.06.05-.09.05h-.12c-.05,0-.1-.04-.1-.09v.58s0,0,0,0c.03.01.05.03.08.05.08-.03.19-.05.35-.05m-1.63-1.86v1.96c.19-.04.38-.07.56-.07h.03s0,0,0,0c.08-.08.21-.1.34-.05.03,0,.06-.01.09-.01v-1.73s0-.01,0-.02c-.05-.03-.09-.06-.12-.09-.02.01-.04.02-.05.03-.02.02-.06.09-.09.16h-.01s-.06.05-.08.05c-.05,0-.09-.04-.09-.07-.02-.06-.04-.12-.06-.14-.06-.03-.11-.08-.14-.14,0,0-.02,0-.03.01-.11.03-.22.07-.33.11m2.7,1.48v.27c.03-.11.09-.23.18-.35-.07.03-.14.06-.18.08m0-.55v.17s.05-.09.08-.13c-.03-.01-.05-.03-.08-.04m.66-1.72c-.04.07-.07.17-.05.28.04.18.15.27.32.27.11,0,.24-.04.39-.11.15-.07.29-.11.43-.11.09,0,.16.01.21.03-.1-.08-.21-.12-.33-.12s-.25.04-.37.07c-.06.02-.13.04-.19.05-.02,0-.05,0-.07,0-.22,0-.31-.23-.34-.38m3.44.3s.02.04.03.06c.09.1.27.11.35.11.02,0,.04,0,.04,0h.04s-.06-.05-.06-.05c0,0-.16-.12-.34-.12-.02,0-.04,0-.07,0m-2.46-.15c.14,0,.26.04.37.12-.01-.04-.03-.07-.06-.1-.06-.06-.17-.1-.29-.1-.06,0-.12,0-.17.02-.14.03-.2.09-.21.13.12-.04.24-.07.37-.07m5.08,7.87l.04-.13c.02-.07.12-.37.15-.47-.09-.06-.35-.25-.41-.3l-.11-.08h.65c.03-.1.13-.41.16-.48l.04-.13.04.13c.02.07.12.38.16.48h.64l-.11.08c-.06.05-.32.23-.4.29.03.1.13.4.15.48l.04.13-.11-.08c-.06-.04-.32-.23-.41-.29-.08.06-.34.25-.4.29l-.11.08Zm-11.64,0l.04-.13c.02-.07.12-.37.15-.47-.09-.06-.35-.25-.41-.3l-.11-.08h.65c.03-.1.13-.41.16-.48l.04-.14.04.14c.02.07.12.38.16.48h.64l-.12.08c-.06.05-.32.23-.4.29.03.1.13.4.15.48l.04.13-.11-.08c-.06-.04-.32-.23-.41-.29-.08.06-.34.25-.4.29l-.11.08Zm7.5-1.03l.37-.28c.37-.28.56-.55.56-.82,0-.28-.2-.45-.2-.45l-.24-.2.29.12s.38.16.35.57c-.04.53-.69.85-.72.86l-.41.2Zm-1.89-.96c-.05,0-.11,0-.16-.01v-.09s.02,0,.03,0c.12,0,.52-.03.53-.45v-.04s.05,0,.05,0c0,0,.58,0,.88-.15l.04.08s-.38.2-.8.25c-.03.11-.15.41-.55.41m-1.96-2.98h1.08v-2.1s-.05-.03-.08-.06l-.04-.03v2.04s-.02.06-.04.08c-.03.02-.07.02-.1,0-.21-.09-.4-.14-.59-.14-.09,0-.17.01-.25.03.01.04.02.08.02.12,0,.01,0,.03,0,.04m9.07-.05l-.11-.08c-.06-.05-.32-.23-.41-.29-.08.06-.34.25-.4.29l-.11.08.04-.13c.02-.07.12-.37.15-.47-.09-.06-.35-.25-.41-.3l-.11-.08h.65c.03-.1.13-.41.15-.48l.04-.13.04.13c.02.07.12.38.16.48h.64l-.11.08c-.06.04-.32.23-.4.29.03.1.13.4.15.48l.04.14Zm-11.73,0l-.12-.08c-.06-.05-.32-.23-.41-.29-.08.06-.34.25-.4.29l-.12.08.04-.14c.02-.07.12-.37.15-.47-.09-.06-.35-.25-.41-.3l-.11-.08h.65c.03-.1.13-.41.15-.48l.04-.14.04.13c.02.07.12.38.16.48h.64l-.12.08c-.06.04-.32.23-.4.29.03.1.13.4.15.48l.04.14Zm2.17-.84h-.31v-.1h.01s0-.01,0-.02c0,0,0-.01,0-.02,0,0,0-.01,0-.02h-.22s0,.02,0,.03c0,0,0,.01,0,.02h0v.11s-.29,0-.29,0v-.1h.03s0,0,0,0h0s0-.02,0-.03h0s.01-.06.02-.09c0-.02.02-.04.02-.07l.03-.08s.02-.05.02-.07c0-.02.01-.04.02-.06,0-.02.01-.04.02-.06,0-.02.01-.04.02-.06,0-.02,0-.03.01-.04,0-.02.01-.04.02-.06h-.01s0-.11,0-.11h.39v.11h-.01s0,.03.01.04c0,.01,0,.03.01.05,0,.01,0,.03.01.05,0,.02.02.05.02.08.01.05.03.09.05.14l.05.16s.02.07.03.09c0,0,0,0,0,.01h.03v.11Zm-.48-.36h.1l-.05-.16-.05.16Zm3.56-.63h0s.05.03.08.04l.04.02s.08.03.11.03c0,0,.01,0,.02,0,.02-.01.05-.08.05-.13h0c-.06-.03-.12-.05-.18-.06-.03,0-.05,0-.05,0-.02.02-.05.06-.06.1m-3.09-.64h0s.08.03.09.07c.01.05.04.08.1.11.02.01.04.03.07.08.03-.04.06-.07.1-.08.07-.03.09-.05.11-.1.01-.04.05-.06.09-.07,0,0,0,0,0,0,.04,0,.07.02.09.05,0,.02.02.03.07.05h.02s.05.04.08.09c.03-.05.06-.07.09-.08,0,0,.01,0,.02,0,0,0,0,0,0,0,0,0,0,0,.01,0h0s0-.01,0-.01c0,0,0,0,0,0,0,0,0,0,0,0h0s0-.01,0-.02c0,0,0,0,0-.01,0,0,0,0,0,0,0,0,0-.01,0-.02,0-.01,0-.02,0-.03h0s0-.02,0-.02c0,0,0-.02,0-.03,0-.1-.09-.19-.19-.19-.09,0-.15.03-.18.09-.02.04-.05.06-.09.06-.04,0-.08-.03-.09-.06-.03-.07-.09-.11-.18-.11-.1,0-.17.05-.19.14,0,.04-.04.07-.09.07h0s-.08-.02-.09-.06c-.03-.07-.11-.08-.15-.08-.09,0-.16.07-.16.16,0,0,0,.02,0,.02,0,0,0,.01,0,.02,0,0,0,0,0,.01h0s0,0,0,0v.02s.01,0,.02,0c0,0,0,0,0,0l.02.02s0,0,.01,0c0,0,0,0,0,0,0,0,.01,0,.02.01.02.01.04.03.06.06.03-.04.05-.06.07-.07h0c.06-.03.07-.04.07-.06.02-.04.05-.06.09-.06m3.3.05h.03s.03,0,.03,0c0,0,.01,0,.02,0,.08,0,.15-.02.2-.05-.09,0-.18,0-.28.04m.88-.73h-.14s-.19-.03-.37-.03h-.07s0-.04,0-.04c0-.01-.02-.12.04-.18.02-.03.06-.04.09-.04.13,0,.32.18.35.2l.1.09Zm-.49-.13c.07,0,.15,0,.21,0-.06-.04-.13-.08-.17-.08-.02,0-.02,0-.03.01-.01.01-.02.04-.02.06m5.87-1.68l-.11-.08c-.06-.05-.32-.23-.41-.29-.08.06-.34.25-.4.29l-.11.08.04-.14c.02-.07.12-.37.15-.47-.09-.06-.35-.25-.41-.3l-.12-.08h.65c.03-.1.13-.41.15-.48l.04-.13.04.13c.02.07.12.38.16.48h.64l-.11.08c-.06.04-.32.23-.4.29.03.1.13.4.15.48l.04.13Zm-12.77,0l.2-.61-.52-.38h.65c.03-.1.13-.41.16-.48l.04-.14.04.14c.02.07.12.38.16.48h.64l-.12.08c-.06.04-.32.23-.4.29.03.1.13.4.15.48l.04.13-.52-.38c-.08.06-.34.25-.4.29l-.12.08Zm6.9,0l-.11-.08c-.06-.05-.32-.23-.41-.29l-.52.38.04-.14c.02-.07.12-.37.15-.47-.09-.06-.35-.25-.41-.3l-.12-.08h.65l.2-.61.04.13c.02.07.12.38.16.48h.64l-.12.08c-.06.04-.32.23-.4.29.03.1.13.4.15.48l.04.13Zm-8.21-1.59c.12.13.34.37.51.56v-.92c-.19.15-.34.26-.51.36m.57-.4h1.08c-.11-.15-.25-.34-.36-.48l-.09-.11c-.16.18-.33.34-.57.54-.02.02-.04.04-.07.05m13.69,0h.6v.62c.2-.27.57-.72.97-.88-.03-.12-.08-.32-.08-.54,0-.19.03-.35.09-.49.02-.03.04-.06.08-.07.03,0,.07,0,.1.02l1.08.77c.21.15.26.45.11.66-.09.12-.23.2-.38.2-.1,0-.19-.03-.28-.08-.02,0-.03-.02-.05-.03.03.13.11.25.22.33.1.07.21.1.32.1.18,0,.35-.09.46-.23.05-.07.08-.14.09-.22,0-.04.04-.07.08-.09.04-.01.08,0,.12.02l.2.16c.32.23.59.3.71.28.03,0,.04-.01.05-.02.04-.06-.07-.35-.49-.64l-.22-.14s-.06-.06-.06-.1c0-.04.02-.08.06-.1.07-.04.13-.09.18-.16.09-.12.12-.27.1-.42-.02-.15-.1-.28-.23-.36-.06-.04-.12-.07-.2-.09.07.09.12.2.12.31,0,.1-.03.19-.09.28-.09.12-.23.19-.38.19-.1,0-.2-.03-.28-.09l-1.08-.77s-.04-.04-.05-.07c0-.03,0-.06.02-.09l.79-1.1s.12-.16.3-.19c.14-.02.28.02.43.12.12.08.19.2.2.32,0,.01,0,.03,0,.04,0,.05-.01.11-.03.17.07-.04.14-.09.19-.17.05-.06.07-.14.07-.23,0-.2-.1-.38-.11-.38,0-.02-.19-.37-.19-.87,0-.07,0-.15.02-.24-.35.17-.69.2-.91.2-.11,0-.18,0-.2-.01h0s-.07-.01-.15-.01c-.15,0-.34.03-.44.17-.05.08-.09.16-.1.24.06-.05.12-.08.19-.1.12-.03.25,0,.37.09.15.11.24.23.26.37.03.18-.07.31-.09.34l-.79,1.1s-.05.04-.08.05c-.03,0-.06,0-.09-.02l-1.08-.77c-.21-.17-.25-.45-.11-.66.07-.1.18-.17.31-.19.09-.01.18,0,.26.03-.04-.06-.09-.12-.15-.16-.1-.07-.21-.1-.32-.1-.18,0-.35.09-.45.23-.05.07-.08.14-.09.22,0,.04-.04.07-.08.09-.04.01-.08,0-.12-.02l-.2-.16c-.29-.2-.53-.28-.66-.28-.06,0-.09.01-.1.03-.04.06.07.35.48.64l.22.14s.06.06.06.1c0,.04-.02.08-.06.1-.07.04-.13.09-.18.16-.09.12-.12.27-.1.42.02.15.1.28.23.36.11.08.24.11.37.1-.01,0-.03-.02-.04-.03-.12-.1-.19-.24-.19-.39,0-.1.03-.19.09-.27.07-.1.18-.17.31-.19.12-.02.25,0,.36.08l.18.13.9.64s.05.05.05.09c0,0,0,0,0,0,0,.03-.01.06-.04.09-.29.27-.75.33-.97.35-.02.36-.24.77-.44,1.07m-13.03-1.37l-.07.09c-.25.32-.4.51-.83.87-.43.35-.64.47-1.01.65h0s-.08.05-.08.05c-.03.02-.04.09-.01.14.01.03.05.05.08.06.02,0,.04,0,.06,0l.09-.04s.12-.07.23-.13l.15-.08c.16-.09.31-.19.47-.32.06-.05.12-.1.19-.15h0c.06-.06.12-.11.18-.16.15-.14.28-.26.4-.4,0,0,.05-.06.11-.13l.23-.28s.01-.02.01-.04c0-.03-.02-.07-.06-.11-.02-.02-.04-.02-.07-.02h0s-.03,0-.04.01m-2.3.97s.07.07.07.07l.3.32s.03-.02.05-.02c.03-.02.06-.03.1-.05h.03s.02-.02.03-.03c0,0,0,0,0,0l.06-.04s.02-.01.03-.02c0,0,0,0,0,0,.01,0,.03-.02.04-.03h0s.03-.02.04-.03c0,0,0,0,0,0,.01,0,.03-.02.04-.03h0s.03-.03.05-.04h0s.02-.02.03-.03l.03-.02s.03-.02.05-.03l.07-.05s0,0,.01,0c0,0,.02-.01.03-.02h.02s.02-.03.02-.03c0,0,.02-.01.02-.02l.05-.04s.03-.03.05-.04c.01-.01.03-.02.04-.03l.03-.03s.02-.01.02-.02h0s.02-.02.03-.03c.01,0,.02-.02.03-.03l.03-.03s.02-.02.04-.03c0,0,.01-.01.02-.02.01-.01.03-.03.04-.04h0s0,0,0-.01l.04-.04s0,0,.01-.01l.04-.04s0,0,0,0c.02-.02.03-.03.04-.04l.05-.05s.02-.03.04-.04h0s.04-.05.06-.08l.03-.03s.01-.02.02-.03l.05-.06s.02-.02.03-.04l.03-.04c-.05-.06-.11-.16-.11-.16l-.14-.19s-.03-.04-.06-.08c-.23.27-.47.5-.79.76-.31.26-.58.45-.89.63m1.66-2.06s0,0-.01,0c-.01,0-.03,0-.04.02-.13.17-.25.31-.37.44-.19.21-.39.4-.65.61-.34.28-.62.47-.98.67-.08.04-.15.08-.23.13-.01,0-.02.02-.02.04,0,.03,0,.07,0,.1.01.03.05.05.08.07.02,0,.04,0,.05,0l.18-.1s.08-.04.08-.04c.13-.07.25-.15.37-.22h.01s.03-.02.04-.03c.02-.01.04-.03.06-.04.02-.02.05-.03.07-.05l.05-.03s.04-.03.06-.04h0s.02-.02.03-.03c.01,0,.02-.02.04-.03h.01c.08-.07.15-.13.24-.2.17-.14.32-.27.45-.41h.01s.06-.07.08-.1h0s0-.01.01-.02c.03-.03.06-.06.09-.09,0,0,0,0,.01-.01.06-.06.12-.13.18-.21,0,0,0,0,.01-.01,0,0,.02-.03.05-.07l.13-.16s.01-.03,0-.05c0-.04-.02-.08-.05-.1-.02-.02-.05-.03-.08-.03m-3.04.77c.08.31.21.52.39.65.15.1.3.12.4.12.05,0,.09,0,.11,0,.34-.19.61-.38.93-.64.24-.2.43-.38.62-.58.16-.21.26-.37.26-.54,0-.18-.11-.4-.39-.77-.13-.18-.22-.36-.3-.6-.05.22-.05.34-.05.38,0,.02,0,.04,0,.04,0,0,0,.01,0,.02,0,.05-.04.1-.09.11,0,0-.02,0-.03,0-.05,0-.09-.03-.11-.08-.18-.55-.58-.98-.85-1.22.01.12.03.27.03.43,0,.36-.06.66-.18.87-.11.19-.16.39-.16.58,0,.16.04.26.04.27,0,.01,0,.03,0,.05,0,.04-.02.07-.04.09-.04.03-.1.03-.14,0-.09-.06-.16-.2-.22-.42-.07.19-.1.37-.1.53,0,.39.16.6.17.6.02.02.03.05.03.07,0,.02,0,.05-.02.07-.03.04-.08.06-.13.05-.04-.01-.09-.04-.14-.07"/>
      <g>
        <path class="cls-1" d="m16.33,48.34v-4.71h1.3v4.78c0,.44.22.67.66.67s.66-.22.66-.67v-4.78h1.25v4.71c0,1.18-.67,1.87-1.94,1.87s-1.93-.69-1.93-1.87Z"/>
        <path class="cls-1" d="m20.95,48.43v-.29h1.22v.29c0,.4.2.69.67.69.41,0,.68-.25.68-.69,0-.56-.22-.69-1.1-1.12-1.11-.54-1.44-1.09-1.44-2,0-1.06.67-1.77,1.92-1.77s1.87.71,1.87,1.79v.19h-1.22v-.18c0-.41-.19-.7-.64-.7-.4,0-.63.26-.63.66,0,.5.25.65,1.12,1.07,1.14.55,1.42,1.12,1.42,2.05,0,1.09-.69,1.81-1.95,1.81s-1.91-.71-1.91-1.78Z"/>
        <path class="cls-1" d="m28.13,48.94h-1.45l-.21,1.18h-1.23l1.34-6.49h1.75l1.34,6.49h-1.33l-.21-1.18Zm-.2-1.11l-.53-2.9-.52,2.9h1.05Z"/>
        <path class="cls-1" d="m30.18,48.34v-2.93c0-1.2.69-1.87,1.91-1.87s1.9.67,1.9,1.87v.47h-1.22v-.52c0-.47-.23-.73-.65-.73s-.64.26-.64.73v3.02c0,.47.23.73.64.73s.65-.26.65-.73v-.7h1.22v.66c0,1.2-.68,1.87-1.9,1.87s-1.91-.67-1.91-1.87Z"/>
        <path class="cls-1" d="m34.82,43.63h1.3v2.63h1.39v-2.63h1.3v6.49h-1.3v-2.72h-1.39v2.72h-1.3v-6.49Z"/>
      </g>
      <path class="cls-5" d="m16.33,42.15c0-.1.08-.19.17-.19h22.13c.1,0,.17.08.17.19s-.08.19-.17.19h-22.13c-.1,0-.17-.08-.17-.19"/>
    </g>
  </g>
  <g>
    <path class="cls-4" d="m73.06,4.76h5.1v.65h-4.38v4.42h3.62v.65h-3.62v5.07h-.72V4.76Z"/>
    <path class="cls-4" d="m83.74,13.09h-3.98l-.65,2.47h-.71l2.87-10.8h.99l2.91,10.8h-.77l-.66-2.47Zm-.19-.66l-1.82-6.77-1.79,6.77h3.61Z"/>
    <path class="cls-4" d="m86.48,12.79v-5.27c0-1.83,1.09-2.91,2.88-2.91s2.93,1.08,2.93,2.91v.68h-.69v-.72c0-1.43-.85-2.22-2.22-2.22s-2.16.79-2.16,2.22v5.36c0,1.43.85,2.22,2.16,2.22s2.22-.79,2.22-2.22v-1.05h.69v1c0,1.83-1.06,2.91-2.93,2.91s-2.88-1.08-2.88-2.91Z"/>
    <path class="cls-4" d="m94.09,12.75v-7.98h.74v8.03c0,1.51.79,2.27,2.22,2.27s2.2-.76,2.2-2.27V4.76h.72v7.98c0,1.9-1.03,2.96-2.94,2.96s-2.94-1.08-2.94-2.96Z"/>
    <path class="cls-4" d="m102.14,4.76h.72v10.14h4.38v.65h-5.1V4.76Z"/>
    <path class="cls-4" d="m109.15,5.41h-2.65v-.65h6.04v.65h-2.65v10.14h-.74V5.41Z"/>
    <path class="cls-4" d="m117.54,13.09h-3.98l-.65,2.47h-.71l2.87-10.8h.99l2.91,10.8h-.77l-.66-2.47Zm-.19-.66l-1.82-6.77-1.79,6.77h3.61Z"/>
    <path class="cls-4" d="m120.59,4.76h2.88c2.03,0,2.96.91,2.96,2.91v4.96c0,2-.92,2.91-2.96,2.91h-2.88V4.76Zm2.87,10.14c1.59,0,2.25-.65,2.25-2.23v-5.02c0-1.59-.66-2.23-2.25-2.23h-2.14v9.49h2.14Z"/>
    <path class="cls-4" d="m131.36,4.76h2.88c2.03,0,2.96.91,2.96,2.91v4.96c0,2-.92,2.91-2.96,2.91h-2.88V4.76Zm2.87,10.14c1.59,0,2.25-.65,2.25-2.23v-5.02c0-1.59-.66-2.23-2.25-2.23h-2.14v9.49h2.14Z"/>
    <path class="cls-4" d="m139.28,4.76h5.29v.65h-4.56v4.35h3.79v.65h-3.79v4.5h4.56v.65h-5.29V4.76Z"/>
  </g>
  <g>
    <path class="cls-4" d="m79.59,33.33h-4.1l-.62,3.02h-2.4l3.44-15.53h3.42l3.48,15.53h-2.6l-.62-3.02Zm-.47-2.2l-1.6-7.68-1.58,7.68h3.17Z"/>
    <path class="cls-4" d="m84.67,20.82h4.57c2.97,0,4.53,1.46,4.53,4.33v6.88c0,2.86-1.55,4.33-4.53,4.33h-4.57v-15.53Zm4.53,13.31c1.44,0,2.04-.6,2.04-2.06v-6.97c0-1.46-.6-2.06-2.04-2.06h-2v11.09h2Z"/>
    <path class="cls-4" d="m96.17,20.82h3.59l2.6,11.56,2.57-11.56h3.62v15.53h-2.42v-12.22l-2.82,12.22h-2.11l-2.82-12.22v12.22h-2.22v-15.53Z"/>
    <path class="cls-4" d="m111.19,20.82h2.53v15.53h-2.53v-15.53Z"/>
    <path class="cls-4" d="m116.38,20.82h3.17l3.97,10.23v-10.23h2.29v15.53h-2.57l-4.59-11.91v11.91h-2.26v-15.53Z"/>
    <path class="cls-4" d="m128.48,20.82h2.53v15.53h-2.53v-15.53Z"/>
    <path class="cls-4" d="m133.14,32.42v-.67h2.37v.67c0,1.15.71,2,2.04,2s2.04-.78,2.04-2c0-1.46-.58-1.93-2.86-3-2.77-1.31-3.53-2.6-3.53-4.7,0-2.44,1.58-4.13,4.46-4.13s4.37,1.66,4.37,4.17v.42h-2.4v-.4c0-1.2-.64-2.04-1.97-2.04-1.2,0-1.93.8-1.93,1.93,0,1.33.64,1.8,2.91,2.88,2.79,1.31,3.48,2.62,3.48,4.79,0,2.53-1.6,4.22-4.55,4.22s-4.44-1.66-4.44-4.15Z"/>
    <path class="cls-4" d="m146.88,23.04h-3.42v-2.22h9.34v2.22h-3.39v13.31h-2.53v-13.31Z"/>
    <path class="cls-4" d="m154.69,20.82h4.42c3.04,0,4.5,1.24,4.5,3.9v.51c0,1.8-.69,2.84-2.2,3.33v.07c1.53.35,2.22,1.49,2.22,3.71v1.86c0,.82.04,1.51.31,2.15h-2.57c-.18-.47-.27-.8-.27-2.15v-2.04c0-1.69-.62-2.31-2.37-2.31h-1.51v6.5h-2.53v-15.53Zm4.06,6.83c1.62,0,2.33-.67,2.33-2.11v-.51c0-1.4-.6-2-2-2h-1.86v4.62h1.53Z"/>
    <path class="cls-4" d="m172.51,33.33h-4.1l-.62,3.02h-2.4l3.44-15.53h3.42l3.48,15.53h-2.6l-.62-3.02Zm-.47-2.2l-1.6-7.68-1.58,7.68h3.17Z"/>
    <path class="cls-4" d="m177.17,32.18v-7.19c0-2.82,1.62-4.39,4.46-4.39s4.46,1.58,4.46,4.39v1.11h-2.4v-1.2c0-1.4-.75-2.15-2.02-2.15s-1.97.75-1.97,2.15v7.37c0,1.4.75,2.15,1.97,2.15s2.02-.75,2.02-2.15v-1.64h2.4v1.55c0,2.82-1.6,4.39-4.46,4.39s-4.46-1.58-4.46-4.39Z"/>
    <path class="cls-4" d="m188.27,20.82h2.53v15.53h-2.53v-15.53Z"/>
    <path class="cls-4" d="m193.22,32.16v-7.14c0-2.82,1.64-4.42,4.59-4.42s4.59,1.6,4.59,4.42v7.14c0,2.82-1.64,4.42-4.59,4.42s-4.59-1.6-4.59-4.42Zm6.66.11v-7.37c0-1.35-.73-2.09-2.06-2.09s-2.06.73-2.06,2.09v7.37c0,1.35.73,2.09,2.06,2.09s2.06-.73,2.06-2.09Zm-1.58-15.73h2.91l-2.82,2.8h-2.06l1.97-2.8Z"/>
    <path class="cls-4" d="m204.83,20.82h3.17l3.97,10.23v-10.23h2.29v15.53h-2.57l-4.59-11.91v11.91h-2.26v-15.53Z"/>
    <path class="cls-4" d="m76.28,52.22l-3.88-8.96h2.73l2.53,6.03,2.55-6.03h2.51l-3.9,8.96v6.57h-2.53v-6.57Z"/>
    <path class="cls-4" d="m88.55,43.26h8.21v2.22h-5.68v4.33h4.59v2.22h-4.59v4.55h5.68v2.22h-8.21v-15.53Z"/>
    <path class="cls-4" d="m98.58,54.62v-7.19c0-2.82,1.62-4.39,4.46-4.39s4.46,1.58,4.46,4.39v1.11h-2.4v-1.2c0-1.4-.75-2.15-2.02-2.15s-1.97.75-1.97,2.15v7.37c0,1.4.75,2.15,1.97,2.15s2.02-.75,2.02-2.15v-1.64h2.4v1.55c0,2.82-1.6,4.39-4.46,4.39s-4.46-1.58-4.46-4.39Z"/>
    <path class="cls-4" d="m109.48,54.6v-7.14c0-2.82,1.64-4.42,4.59-4.42s4.59,1.6,4.59,4.42v7.14c0,2.82-1.64,4.42-4.59,4.42s-4.59-1.6-4.59-4.42Zm6.66.11v-7.37c0-1.35-.73-2.09-2.06-2.09s-2.06.73-2.06,2.09v7.37c0,1.35.73,2.09,2.06,2.09s2.06-.73,2.06-2.09Z"/>
    <path class="cls-4" d="m121.09,43.26h3.17l3.97,10.23v-10.23h2.29v15.53h-2.57l-4.59-11.91v11.91h-2.26v-15.53Z"/>
    <path class="cls-4" d="m132.94,54.6v-7.14c0-2.82,1.64-4.42,4.59-4.42s4.59,1.6,4.59,4.42v7.14c0,2.82-1.64,4.42-4.59,4.42s-4.59-1.6-4.59-4.42Zm6.66.11v-7.37c0-1.35-.73-2.09-2.06-2.09s-2.06.73-2.06,2.09v7.37c0,1.35.73,2.09,2.06,2.09s2.06-.73,2.06-2.09Z"/>
    <path class="cls-4" d="m144.55,43.26h3.59l2.6,11.56,2.57-11.56h3.62v15.53h-2.42v-12.22l-2.82,12.22h-2.11l-2.82-12.22v12.22h-2.22v-15.53Z"/>
    <path class="cls-4" d="m161.32,38.98h2.91l-2.82,2.8h-2.06l1.97-2.8Zm-1.75,4.28h2.53v15.53h-2.53v-15.53Z"/>
    <path class="cls-4" d="m171.09,55.77h-4.1l-.62,3.02h-2.4l3.44-15.53h3.42l3.48,15.53h-2.6l-.62-3.02Zm-.47-2.2l-1.6-7.68-1.58,7.68h3.17Z"/>
  </g>
</svg>